<svg xmlns="http://www.w3.org/2000/svg" viewBox="0 0 2675.14 1673.47"><defs><style>.cls-1{fill:#ebf3fa;}.cls-11,.cls-12,.cls-2{fill:#fff;}.cls-3{fill:#739af0;}.cls-4,.cls-5{fill:#2b478b;}.cls-12,.cls-4{opacity:0.5;}.cls-6{fill:#8c9df4;}.cls-7{fill:#172a49;}.cls-8{fill:#f99746;}.cls-9{fill:#ed7f35;}.cls-10{fill:#233862;}.cls-11{opacity:0.7;}.cls-13{fill:#f5fbff;}.cls-14{fill:#a8d29f;}.cls-15{fill:#2a4a7c;}.cls-16{fill:#ffb27d;}.cls-17{fill:#ef7e29;}.cls-18{fill:#707fe5;}.cls-19{fill:#aec3ff;}.cls-20{fill:#ed985f;}.cls-21{fill:#dde7fe;}</style></defs><g id="Capa_2" data-name="Capa 2"><g id="_лой_1" data-name="‘лой_1"><path class="cls-1" d="M2639.35,1484.39c-28.57,115.37-88.89,182.7-90,185.22-31.31,0-149.56,0-317.85,0l-322.44,0c-707.84-.12-1741.81-.73-1742.69-3.44l-.21-.51a2.67,2.67,0,0,1-.22-.73c-.85-2-343.39-562.3,189.12-952.36C563.46,560,342.06,459.21,507.74,289.3c125.6-128.78,258.76-78.66,395.62-55,70.64,12.21,142.26,17.36,214.35-12.78,37.4-15.63,74.94-40.78,112.52-79.38A418.35,418.35,0,0,1,1299.39,85c77.37-51.23,169.27-76.1,261-83C1797-15.64,2063.27,83.82,2200.68,229.18c27.66,29.28,153.45,180.73,54.29,388.92-14.51,30.48-11.56,60.65,2.69,90.87,19.73,41.79,61.06,83.7,107.75,126.73,64.86,59.84,140.64,122.19,182.43,189.48C2635,1165.44,2679.17,1323.47,2639.35,1484.39Z"/><path class="cls-2" d="M1823,592.75s19.22-40.88,65.19-36.34c0,0,66.73-68.13,137.89-9.08,0,0,75.64-14.63,131.66,12.67,37.35,18.2,49.69,37.29,49.69,37.29Z"/><path class="cls-2" d="M2214.13,1109.24s16-34,54.16-30.19c0,0,55.44-56.6,114.56-7.55,0,0,62.84-12.15,109.38,10.53,31,15.12,41.28,31,41.28,31Z"/><path class="cls-3" d="M1713.15,1669.61c-315.83,0-500.65-.21-825.59-.6-167-.2-319.27-.46-440.39-.81-171.42-.49-280.49-1.15-280.77-2l-.21-.51a2.67,2.67,0,0,1-.22-.73c-.27-.61-32.57-53.6-62-138C82.81,1466.11,63.15,1389,58,1303.47v0c-11-183.61,45.09-406.31,297.06-590.88C563.46,560,342.06,459.21,507.74,289.3c125.6-128.78,321.48-63.07,407.16-11.83,126.41,75.62,281.88,162.27,354.12,688.41C1352.49,1573.82,1713.15,1669.61,1713.15,1669.61Z"/><path class="cls-4" d="M1175.53,1668.2H447.17c-171.42-.49-280.49-1.15-280.77-2l-.21-.51a2.67,2.67,0,0,1-.22-.73c-.27-.61-32.57-53.6-62-138C82.81,1466.11,63.15,1389,58,1303.47c62.89.81,210.74,18.89,322.43,158.75C526.16,1644.62,1066.92,1406.89,1175.53,1668.2Z"/><path class="cls-5" d="M1907.06,929.24a496.84,496.84,0,0,1-137.3,343.57c-90.81,95.46-219.08,155-361.24,155-275.33,0-498.53-223.2-498.53-498.53a496.81,496.81,0,0,1,134.47-340.58c91-97.21,220.43-157.95,364.06-157.95C1683.86,430.71,1907.06,653.9,1907.06,929.24Z"/><path class="cls-6" d="M1907.06,929.24a496.84,496.84,0,0,1-137.3,343.57l-725.3-684.15c91-97.21,220.43-157.95,364.06-157.95C1683.86,430.71,1907.06,653.9,1907.06,929.24Z"/><path class="cls-1" d="M1356,516.62l-17.16,4.77-3.54-13.62,25.61-8.17h11.71v96H1356Z"/><path class="cls-1" d="M1392.35,582.39l32.82-27.91c13.07-11,17.83-17.16,17.83-25.74,0-9.39-6.67-14.84-15.38-14.84s-14.71,4.77-22.06,14.3l-11.85-9.26c9.12-12.8,18.11-20,35.13-20,18.66,0,31.46,11.44,31.46,28.73,0,15-8,23-24.79,36.91l-19.6,16.34h45.34v14.7h-68.9Z"/><path class="cls-1" d="M1373.22,1331.16c-7.36-7.35-11.71-17.29-11.71-36.77,0-29.14,13.89-51.88,40.85-51.88,12.39,0,20.83,4,29.14,10.62l-9,12.94c-6.67-5.17-12.39-8.31-20.7-8.31-14.16,0-22.06,12.8-22.87,30.23,5-4.9,11.57-9.53,22.74-9.53,18.52,0,33.36,10.9,33.36,30.23,0,18.93-15.39,32.41-35.4,32.41C1387.92,1341.1,1379.48,1337.42,1373.22,1331.16Zm45.07-22.06c0-9.53-7.63-16.61-19.47-16.61s-19.34,7.62-19.34,17c0,9.67,7.76,17.16,19.75,17.16C1411.07,1326.67,1418.29,1319.18,1418.29,1309.1Z"/><path class="cls-1" d="M1732.57,958.34l11.71-10.89c6.81,8,14.44,12.53,25.06,12.53,9.39,0,16.47-5.72,16.47-14.71,0-9.4-8.57-14.71-21.92-14.71h-7.76l-2.72-10.48,25.73-27.37h-41.26V878.14h63v12.52l-26.55,27.24c15.11,2.18,28,9.94,28,27.1,0,17.56-13.62,30.09-33.36,30.09C1752.45,975.09,1740.6,968.14,1732.57,958.34Z"/><path class="cls-1" d="M1012.65,964.47l9.13-12.8c7.21,6.13,13.61,9,21.78,9,14,0,22.47-12.4,23-30-4.77,5.72-12.12,10.07-22.33,10.07-20.29,0-33.77-11.84-33.77-30.5s14.43-32.95,35.54-32.95c12,0,19.74,3.4,26.41,10.08C1079.51,894.48,1084,905,1084,924c0,30.63-15.25,51.88-40.85,51.88C1030,975.91,1020.69,971.14,1012.65,964.47ZM1066,909.32c0-9.94-7.76-17.57-19.88-17.57-11.84,0-18.93,7.9-18.93,18s7.63,17,19.48,17C1058.82,926.75,1066,918.85,1066,909.32Z"/><path class="cls-5" d="M1404.53,1551.76h0c-3.62,0-7.26-.09-10.83-.18a2.39,2.39,0,0,1-2.33-2.45,2.42,2.42,0,0,1,2.45-2.33c3.54.09,7.15.15,10.74.18a2.39,2.39,0,0,1,0,4.78Zm10.78,0a2.39,2.39,0,0,1,0-4.78c3.57,0,7.18-.1,10.73-.19a2.39,2.39,0,1,1,.13,4.78c-3.58.1-7.22.16-10.82.19Zm-32.34-.53h-.11c-3.61-.15-7.25-.33-10.81-.54a2.39,2.39,0,0,1,.29-4.78c3.53.21,7.14.39,10.72.54a2.39,2.39,0,0,1-.09,4.78Zm53.86,0a2.39,2.39,0,0,1-.1-4.78c3.57-.16,7.18-.34,10.73-.56a2.39,2.39,0,0,1,.29,4.78c-3.58.21-7.22.4-10.81.56Zm-75.39-1.24h-.19c-3.59-.27-7.22-.58-10.79-.92a2.39,2.39,0,0,1,.45-4.76c3.55.33,7.15.64,10.71.91a2.39,2.39,0,0,1-.18,4.78Zm96.92-.06a2.39,2.39,0,0,1-.18-4.78c3.58-.28,7.18-.59,10.7-.93a2.4,2.4,0,0,1,.46,4.77c-3.55.33-7.18.65-10.79.93Zm-118.4-2h-.27c-3.61-.4-7.23-.84-10.75-1.29a2.4,2.4,0,0,1,.62-4.75c3.49.45,7.08.89,10.66,1.28a2.39,2.39,0,0,1-.26,4.77Zm139.87-.09a2.39,2.39,0,0,1-.26-4.77c3.55-.4,7.14-.83,10.66-1.29a2.39,2.39,0,1,1,.62,4.74c-3.55.46-7.17.9-10.75,1.31Zm-161.26-2.66a2.07,2.07,0,0,1-.35,0c-3.56-.52-7.16-1.08-10.7-1.66a2.39,2.39,0,0,1,.78-4.72c3.51.57,7.08,1.13,10.61,1.65a2.39,2.39,0,0,1-.34,4.76Zm182.65-.12a2.39,2.39,0,0,1-.35-4.76c3.52-.52,7.09-1.09,10.62-1.67a2.39,2.39,0,0,1,.78,4.72c-3.56.59-7.16,1.16-10.7,1.68A2,2,0,0,1,1501.22,1545.06Zm-203.93-3.38a2.18,2.18,0,0,1-.44,0c-3.56-.65-7.14-1.34-10.63-2a2.39,2.39,0,1,1,.94-4.69c3.47.7,7,1.38,10.55,2a2.39,2.39,0,0,1-.42,4.75Zm225.21-.15a2.39,2.39,0,0,1-.43-4.75c3.49-.64,7-1.32,10.55-2a2.39,2.39,0,1,1,1,4.69c-3.54.71-7.11,1.4-10.63,2A3.42,3.42,0,0,1,1522.5,1541.53Zm-246.36-4.09a2.31,2.31,0,0,1-.52-.06c-3.53-.77-7.08-1.58-10.55-2.4a2.39,2.39,0,1,1,1.1-4.66c3.44.82,7,1.62,10.47,2.39a2.39,2.39,0,0,1-.5,4.73Zm267.5-.18a2.39,2.39,0,0,1-.51-4.73c3.47-.76,7-1.57,10.47-2.4a2.39,2.39,0,1,1,1.11,4.65c-3.5.84-7,1.65-10.55,2.42A2.31,2.31,0,0,1,1543.64,1537.26Zm-288.49-4.8a2.46,2.46,0,0,1-.6-.07c-3.5-.9-7-1.83-10.46-2.77a2.39,2.39,0,0,1,1.26-4.62c3.42.94,6.91,1.86,10.39,2.75a2.39,2.39,0,0,1-.59,4.71Zm309.48-.2a2.39,2.39,0,0,1-.6-4.71c3.46-.89,7-1.82,10.38-2.77a2.39,2.39,0,1,1,1.27,4.61c-3.45,1-7,1.89-10.46,2.79A2.46,2.46,0,0,1,1564.63,1532.26Zm-330.28-5.5a2.29,2.29,0,0,1-.68-.1c-3.44-1-6.92-2.06-10.36-3.13a2.39,2.39,0,0,1,1.42-4.57c3.42,1.06,6.88,2.11,10.29,3.11a2.39,2.39,0,0,1-.67,4.69Zm351.07-.24a2.4,2.4,0,0,1-.68-4.69c3.43-1,6.89-2.06,10.28-3.12a2.39,2.39,0,0,1,1.44,4.56c-3.42,1.08-6.91,2.14-10.36,3.15A2.33,2.33,0,0,1,1585.42,1526.52Zm-371.71-6.2a2.19,2.19,0,0,1-.75-.13c-3.43-1.13-6.89-2.32-10.28-3.51a2.39,2.39,0,1,1,1.58-4.51c3.37,1.18,6.8,2.35,10.21,3.48a2.4,2.4,0,0,1-.76,4.67Zm392.29-.26a2.39,2.39,0,0,1-.75-4.66c3.38-1.13,6.8-2.3,10.16-3.48a2.39,2.39,0,1,1,1.59,4.51c-3.38,1.19-6.83,2.37-10.24,3.51A2.51,2.51,0,0,1,1606,1520.06Zm-412.71-6.92a2.39,2.39,0,0,1-.83-.15c-3.39-1.26-6.81-2.56-10.16-3.87a2.39,2.39,0,1,1,1.75-4.45c3.32,1.3,6.71,2.59,10.07,3.84a2.39,2.39,0,0,1-.83,4.63Zm433.06-.25a2.39,2.39,0,0,1-.84-4.63c3.33-1.24,6.7-2.54,10-3.84a2.39,2.39,0,1,1,1.75,4.45c-3.35,1.32-6.76,2.62-10.11,3.87A2.47,2.47,0,0,1,1626.35,1512.89Zm-453.22-7.63a2.46,2.46,0,0,1-.91-.18c-3.33-1.38-6.7-2.8-10-4.22a2.4,2.4,0,0,1,1.9-4.4c3.27,1.42,6.61,2.83,9.93,4.19a2.4,2.4,0,0,1-.92,4.61Zm473.29-.25a2.39,2.39,0,0,1-.91-4.6c3.3-1.37,6.62-2.77,9.86-4.17a2.39,2.39,0,0,1,1.9,4.39c-3.26,1.41-6.61,2.83-9.93,4.2A2.47,2.47,0,0,1,1646.42,1505Zm-493.14-8.34a2.32,2.32,0,0,1-1-.21c-3.27-1.48-6.58-3-9.85-4.57a2.39,2.39,0,0,1,2-4.32c3.24,1.54,6.53,3.06,9.78,4.53a2.39,2.39,0,0,1-1,4.57Zm512.86-.2a2.39,2.39,0,0,1-1-4.57c3.22-1.47,6.49-3,9.71-4.52a2.4,2.4,0,1,1,2.05,4.33c-3.24,1.54-6.54,3.07-9.78,4.54A2.33,2.33,0,0,1,1666.14,1496.47Zm-532.4-9.06a2.36,2.36,0,0,1-1.06-.25c-3.25-1.61-6.51-3.27-9.68-4.91a2.39,2.39,0,1,1,2.2-4.25c3.15,1.63,6.38,3.27,9.6,4.87a2.39,2.39,0,0,1-1.06,4.54Zm551.82-.17a2.39,2.39,0,0,1-1.07-4.54c3.2-1.58,6.41-3.21,9.55-4.84a2.39,2.39,0,1,1,2.21,4.24c-3.17,1.65-6.41,3.29-9.63,4.89A2.36,2.36,0,0,1,1685.56,1487.24Zm-571-9.78a2.42,2.42,0,0,1-1.13-.28c-3.16-1.71-6.35-3.47-9.5-5.24a2.39,2.39,0,0,1,2.34-4.17c3.13,1.76,6.3,3.51,9.43,5.2a2.39,2.39,0,0,1-1.14,4.49Zm590.11-.12a2.4,2.4,0,0,1-1.14-4.5c3.1-1.67,6.26-3.42,9.38-5.18a2.39,2.39,0,1,1,2.35,4.17c-3.15,1.78-6.33,3.53-9.45,5.22A2.33,2.33,0,0,1,1704.65,1477.34Zm-608.94-10.48a2.41,2.41,0,0,1-1.21-.32c-3.11-1.83-6.24-3.7-9.31-5.57a2.4,2.4,0,0,1,2.5-4.09c3,1.86,6.14,3.72,9.23,5.53a2.39,2.39,0,0,1-1.21,4.45Zm627.69-.08a2.4,2.4,0,0,1-1.22-4.46c3.07-1.8,6.17-3.65,9.2-5.5a2.39,2.39,0,1,1,2.49,4.08c-3,1.87-6.17,3.74-9.27,5.55A2.39,2.39,0,0,1,1723.4,1466.78Zm-646.14-11.16a2.3,2.3,0,0,1-1.27-.38c-3-1.92-6.11-3.9-9.11-5.88a2.39,2.39,0,1,1,2.63-4c3,2,6,3.92,9,5.83a2.4,2.4,0,0,1-1.29,4.42Zm664.51,0a2.39,2.39,0,0,1-1.28-4.41c3-1.91,6-3.87,9-5.82a2.39,2.39,0,1,1,2.63,4c-3,2-6,3.94-9.07,5.87A2.4,2.4,0,0,1,1741.77,1455.57Zm-682.54-11.83a2.39,2.39,0,0,1-1.35-.42c-3-2-6-4.11-8.9-6.19a2.4,2.4,0,0,1,2.77-3.91c2.92,2.08,5.89,4.14,8.83,6.15a2.39,2.39,0,0,1,.62,3.33A2.37,2.37,0,0,1,1059.23,1443.74Zm700.52,0a2.39,2.39,0,0,1-1.35-4.37c2.91-2,5.87-4,8.8-6.13a2.39,2.39,0,1,1,2.77,3.9c-3,2.09-5.93,4.17-8.87,6.18A2.41,2.41,0,0,1,1759.75,1443.73Zm17.57-12.46a2.39,2.39,0,0,1-1.42-4.32c2.88-2.12,5.77-4.29,8.58-6.43a2.39,2.39,0,1,1,2.91,3.8c-2.84,2.16-5.75,4.34-8.66,6.48A2.32,2.32,0,0,1,1777.32,1431.27Zm-735.71,0a2.34,2.34,0,0,1-1.41-.47c-2.89-2.12-5.81-4.31-8.67-6.49a2.39,2.39,0,0,1,2.9-3.81c2.84,2.17,5.74,4.34,8.6,6.45a2.39,2.39,0,0,1-1.42,4.32Zm752.84-13a2.39,2.39,0,0,1-1.49-4.27c2.79-2.21,5.61-4.47,8.36-6.73a2.39,2.39,0,0,1,3,3.7c-2.78,2.28-5.62,4.56-8.43,6.78A2.37,2.37,0,0,1,1794.45,1418.21Zm-770,0a2.37,2.37,0,0,1-1.48-.52c-2.85-2.25-5.69-4.53-8.44-6.79a2.39,2.39,0,1,1,3-3.7c2.74,2.24,5.55,4.51,8.38,6.74a2.39,2.39,0,0,1-1.49,4.27Zm786.67-13.6a2.39,2.39,0,0,1-1.55-4.22c2.71-2.3,5.45-4.66,8.13-7a2.39,2.39,0,1,1,3.16,3.59c-2.71,2.38-5.46,4.75-8.19,7.07A2.4,2.4,0,0,1,1811.12,1404.56Zm-803.37-.08a2.38,2.38,0,0,1-1.54-.56c-2.77-2.35-5.52-4.73-8.2-7.08a2.4,2.4,0,1,1,3.16-3.6c2.65,2.34,5.39,4.7,8.13,7a2.39,2.39,0,0,1-1.55,4.21Zm819.57-14.14a2.4,2.4,0,0,1-1.61-4.17c2.63-2.39,5.29-4.85,7.88-7.29a2.39,2.39,0,0,1,3.28,3.49c-2.61,2.46-5.29,4.93-7.94,7.34A2.39,2.39,0,0,1,1827.32,1390.34Zm-835.78-.09a2.35,2.35,0,0,1-1.6-.63c-2.64-2.4-5.32-4.87-8-7.35a2.39,2.39,0,0,1,3.28-3.48c2.61,2.46,5.26,4.91,7.88,7.29a2.39,2.39,0,0,1-1.61,4.17ZM1843,1375.56a2.39,2.39,0,0,1-1.67-4.1c2.58-2.52,5.15-5.06,7.63-7.57a2.39,2.39,0,0,1,3.4,3.37c-2.51,2.53-5.09,5.09-7.69,7.62A2.41,2.41,0,0,1,1843,1375.56Zm-867.18-.1a2.35,2.35,0,0,1-1.67-.68c-2.58-2.51-5.17-5.08-7.69-7.62a2.39,2.39,0,0,1,3.4-3.37c2.5,2.52,5.07,5.07,7.63,7.56a2.4,2.4,0,0,1-1.67,4.11Zm882.37-15.21a2.4,2.4,0,0,1-1.73-4c2.48-2.58,5-5.22,7.37-7.82a2.39,2.39,0,0,1,3.51,3.25c-2.43,2.63-4.93,5.28-7.43,7.88A2.37,2.37,0,0,1,1858.21,1360.25Zm-897.55-.1a2.39,2.39,0,0,1-1.73-.74c-2.48-2.59-5-5.24-7.42-7.88a2.39,2.39,0,1,1,3.51-3.25c2.43,2.62,4.9,5.25,7.36,7.82a2.4,2.4,0,0,1-1.72,4.05Zm912.2-15.73a2.35,2.35,0,0,1-1.59-.61,2.39,2.39,0,0,1-.19-3.38c2.39-2.67,4.77-5.39,7.09-8.07a2.39,2.39,0,1,1,3.62,3.13c-2.33,2.7-4.74,5.44-7.15,8.13A2.37,2.37,0,0,1,1872.86,1344.42Zm-926.84-.1a2.39,2.39,0,0,1-1.79-.8c-2.41-2.69-4.81-5.42-7.14-8.13a2.39,2.39,0,0,1,3.62-3.12c2.32,2.68,4.7,5.39,7.09,8.07a2.39,2.39,0,0,1-1.78,4ZM1887,1328.09a2.35,2.35,0,0,1-1.53-.56,2.39,2.39,0,0,1-.31-3.36c2.31-2.77,4.6-5.56,6.82-8.32a2.39,2.39,0,0,1,3.72,3c-2.23,2.78-4.54,5.6-6.86,8.38A2.37,2.37,0,0,1,1887,1328.09Zm-955-.08a2.43,2.43,0,0,1-1.84-.86c-2.3-2.76-4.6-5.58-6.85-8.37a2.39,2.39,0,0,1,3.73-3c2.23,2.77,4.52,5.57,6.8,8.3a2.39,2.39,0,0,1-.31,3.37A2.33,2.33,0,0,1,931.93,1328Zm968.56-16.73a2.4,2.4,0,0,1-1.88-3.86c2.17-2.81,4.37-5.68,6.52-8.55a2.39,2.39,0,0,1,3.83,2.87c-2.17,2.89-4.38,5.79-6.58,8.61A2.37,2.37,0,0,1,1900.49,1311.28Zm-982.07-.06a2.41,2.41,0,0,1-1.89-.92c-2.21-2.85-4.42-5.75-6.56-8.6a2.39,2.39,0,1,1,3.83-2.87c2.13,2.83,4.32,5.7,6.51,8.53a2.39,2.39,0,0,1-1.89,3.86Zm995-17.22a2.45,2.45,0,0,1-1.4-.45,2.4,2.4,0,0,1-.54-3.34c2.1-2.9,4.19-5.85,6.23-8.77a2.39,2.39,0,1,1,3.92,2.73c-2.05,2.95-4.16,5.92-6.27,8.84A2.38,2.38,0,0,1,1913.44,1294Zm-1007.93,0a2.39,2.39,0,0,1-2-1c-2.11-2.92-4.21-5.88-6.25-8.82a2.39,2.39,0,1,1,3.93-2.73c2,2.91,4.11,5.85,6.2,8.75a2.38,2.38,0,0,1-1.93,3.79Zm-12.32-17.67a2.38,2.38,0,0,1-2-1c-2-3-4-6-6-9a2.39,2.39,0,0,1,4-2.6c1.92,3,3.91,6,5.9,9a2.4,2.4,0,0,1-.65,3.32A2.44,2.44,0,0,1,893.19,1276.31Zm1032.6,0a2.45,2.45,0,0,1-1.34-.41,2.4,2.4,0,0,1-.65-3.32c2-3,4-6,5.92-9a2.39,2.39,0,0,1,4,2.59c-2,3-4,6.07-6,9.06A2.39,2.39,0,0,1,1925.79,1276.29Zm-1044.28-18a2.41,2.41,0,0,1-2-1.13c-1.88-3-3.78-6.14-5.63-9.22a2.39,2.39,0,1,1,4.11-2.46c1.83,3.06,3.71,6.14,5.59,9.15a2.39,2.39,0,0,1-2,3.66Zm1056-.09a2.39,2.39,0,0,1-2-3.66c1.88-3,3.77-6.12,5.61-9.19a2.39,2.39,0,1,1,4.1,2.46c-1.85,3.09-3.75,6.21-5.65,9.26A2.38,2.38,0,0,1,1937.51,1258.15ZM870.45,1239.77a2.39,2.39,0,0,1-2.07-1.2c-1.78-3.1-3.57-6.26-5.3-9.41a2.39,2.39,0,1,1,4.18-2.31c1.73,3.12,3.5,6.26,5.27,9.33a2.4,2.4,0,0,1-.89,3.27A2.31,2.31,0,0,1,870.45,1239.77Zm1078.15-.16a2.47,2.47,0,0,1-1.19-.32,2.4,2.4,0,0,1-.88-3.27c1.79-3.11,3.56-6.26,5.28-9.38A2.39,2.39,0,0,1,1956,1229c-1.73,3.14-3.52,6.32-5.32,9.45A2.41,2.41,0,0,1,1948.6,1239.61ZM860.05,1220.94a2.38,2.38,0,0,1-2.11-1.27c-1.68-3.17-3.35-6.39-5-9.59a2.39,2.39,0,0,1,4.27-2.16c1.61,3.17,3.27,6.37,4.93,9.51a2.39,2.39,0,0,1-2.11,3.51Zm1099-.26a2.35,2.35,0,0,1-1.12-.28,2.38,2.38,0,0,1-1-3.23c1.67-3.15,3.34-6.37,5-9.56a2.39,2.39,0,1,1,4.26,2.17c-1.63,3.21-3.31,6.45-5,9.63A2.39,2.39,0,0,1,1959.05,1220.68ZM850.31,1201.77a2.4,2.4,0,0,1-2.15-1.35c-1.56-3.21-3.12-6.49-4.63-9.75a2.39,2.39,0,0,1,4.33-2c1.51,3.23,3,6.48,4.6,9.67a2.38,2.38,0,0,1-1.1,3.19A2.35,2.35,0,0,1,850.31,1201.77Zm1118.51-.37a2.29,2.29,0,0,1-1-.24,2.39,2.39,0,0,1-1.11-3.19c1.57-3.23,3.13-6.51,4.62-9.74a2.39,2.39,0,0,1,4.34,2c-1.51,3.25-3.07,6.55-4.65,9.8A2.39,2.39,0,0,1,1968.82,1201.4ZM841.25,1182.27a2.4,2.4,0,0,1-2.19-1.42c-1.46-3.28-2.9-6.61-4.29-9.89a2.4,2.4,0,0,1,4.41-1.87c1.38,3.26,2.81,6.56,4.26,9.82a2.4,2.4,0,0,1-1.22,3.16A2.38,2.38,0,0,1,841.25,1182.27Zm1136.68-.49a2.34,2.34,0,0,1-1-.2,2.4,2.4,0,0,1-1.22-3.16c1.45-3.27,2.89-6.6,4.28-9.89a2.4,2.4,0,0,1,4.41,1.87c-1.4,3.31-2.85,6.66-4.31,10A2.4,2.4,0,0,1,1977.93,1181.78ZM832.87,1162.49a2.41,2.41,0,0,1-2.22-1.5c-1.34-3.34-2.67-6.73-3.95-10.08a2.39,2.39,0,1,1,4.46-1.71c1.28,3.33,2.6,6.69,3.93,10a2.38,2.38,0,0,1-1.32,3.11A2.41,2.41,0,0,1,832.87,1162.49Zm1153.47-.64a2.31,2.31,0,0,1-.89-.17,2.39,2.39,0,0,1-1.33-3.11c1.33-3.31,2.65-6.69,3.93-10a2.39,2.39,0,0,1,4.47,1.71c-1.29,3.37-2.62,6.78-4,10.11A2.37,2.37,0,0,1,1986.34,1161.85ZM825.16,1142.34a2.4,2.4,0,0,1-2.25-1.57c-1.22-3.39-2.44-6.82-3.6-10.22a2.39,2.39,0,0,1,4.53-1.55c1.15,3.37,2.35,6.78,3.57,10.13a2.4,2.4,0,0,1-1.43,3.07A2.36,2.36,0,0,1,825.16,1142.34Zm1168.9-.71a2.36,2.36,0,0,1-.82-.14,2.39,2.39,0,0,1-1.43-3.06c1.21-3.37,2.42-6.79,3.57-10.18a2.39,2.39,0,1,1,4.53,1.55c-1.17,3.41-2.38,6.86-3.6,10.25A2.4,2.4,0,0,1,1994.06,1141.63Zm-1175.9-19.69a2.4,2.4,0,0,1-2.28-1.65c-1.11-3.43-2.2-6.91-3.24-10.33a2.39,2.39,0,0,1,4.58-1.4c1,3.4,2.12,6.85,3.22,10.25a2.41,2.41,0,0,1-1.54,3A2.76,2.76,0,0,1,818.16,1121.94Zm1182.9-.79a2.4,2.4,0,0,1-2.28-3.13c1.1-3.43,2.19-6.89,3.22-10.3a2.39,2.39,0,0,1,4.58,1.39c-1,3.43-2.13,6.92-3.25,10.38A2.39,2.39,0,0,1,2001.06,1121.15ZM811.88,1101.31a2.39,2.39,0,0,1-2.3-1.74c-1-3.45-2-7-2.88-10.44a2.39,2.39,0,0,1,4.62-1.23c.92,3.45,1.88,6.93,2.86,10.36a2.39,2.39,0,0,1-1.65,3A2.14,2.14,0,0,1,811.88,1101.31Zm1195.45-.85a2.5,2.5,0,0,1-.66-.09,2.4,2.4,0,0,1-1.65-3c1-3.44,1.94-6.93,2.85-10.36a2.39,2.39,0,1,1,4.62,1.23c-.91,3.46-1.88,7-2.86,10.44A2.4,2.4,0,0,1,2007.33,1100.46Zm-1201-20a2.38,2.38,0,0,1-2.32-1.81c-.87-3.48-1.71-7-2.52-10.53a2.4,2.4,0,1,1,4.67-1.07c.79,3.47,1.63,7,2.49,10.45a2.38,2.38,0,0,1-2.32,3Zm1206.53-.85a2.28,2.28,0,0,1-.57-.07,2.39,2.39,0,0,1-1.75-2.89c.86-3.48,1.69-7,2.48-10.46a2.39,2.39,0,1,1,4.66,1.06c-.79,3.49-1.63,7-2.49,10.54A2.4,2.4,0,0,1,2012.85,1079.61ZM801.49,1059.44a2.39,2.39,0,0,1-2.34-1.89c-.74-3.53-1.46-7.1-2.14-10.62a2.39,2.39,0,1,1,4.7-.9c.67,3.49,1.39,7,2.12,10.52a2.38,2.38,0,0,1-1.84,2.84A2.92,2.92,0,0,1,801.49,1059.44Zm1216.16-.86a2.72,2.72,0,0,1-.49,0,2.39,2.39,0,0,1-1.85-2.83c.73-3.5,1.44-7,2.11-10.54a2.39,2.39,0,1,1,4.7.9c-.67,3.52-1.39,7.09-2.13,10.62A2.4,2.4,0,0,1,2017.65,1058.58ZM797.4,1038.26a2.38,2.38,0,0,1-2.35-2c-.62-3.52-1.22-7.12-1.78-10.67a2.39,2.39,0,0,1,4.73-.75c.56,3.53,1.15,7.1,1.76,10.6a2.39,2.39,0,0,1-1.94,2.77Zm1224.31-.87a2.83,2.83,0,0,1-.41,0,2.4,2.4,0,0,1-2-2.77c.61-3.51,1.2-7.08,1.75-10.6a2.39,2.39,0,0,1,4.72.74c-.55,3.54-1.14,7.14-1.76,10.68A2.39,2.39,0,0,1,2021.71,1037.39ZM794.05,1017a2.39,2.39,0,0,1-2.36-2.07c-.5-3.54-1-7.15-1.41-10.73a2.39,2.39,0,0,1,4.75-.58c.44,3.55.9,7.14,1.39,10.65a2.38,2.38,0,0,1-2,2.7Zm1231-.88a1.83,1.83,0,0,1-.33,0,2.39,2.39,0,0,1-2-2.7c.48-3.53.95-7.12,1.37-10.65a2.39,2.39,0,0,1,4.75.57c-.43,3.56-.89,7.17-1.38,10.74A2.4,2.4,0,0,1,2025,1016.08ZM791.45,995.55a2.4,2.4,0,0,1-2.38-2.15c-.37-3.57-.72-7.2-1-10.78a2.39,2.39,0,1,1,4.77-.41c.3,3.55.65,7.15,1,10.7a2.38,2.38,0,0,1-2.13,2.62Zm1236.15-.88h-.24a2.41,2.41,0,0,1-2.14-2.63c.36-3.52.7-7.12,1-10.7a2.39,2.39,0,0,1,4.77.41c-.31,3.61-.65,7.23-1,10.78A2.39,2.39,0,0,1,2027.6,994.67Zm-1238-20.61a2.4,2.4,0,0,1-2.38-2.23c-.25-3.59-.47-7.22-.66-10.8a2.39,2.39,0,0,1,2.26-2.52,2.42,2.42,0,0,1,2.52,2.27c.18,3.55.4,7.16.65,10.72a2.39,2.39,0,0,1-2.22,2.55Zm1239.86-.88h-.17a2.39,2.39,0,0,1-2.22-2.55c.24-3.54.46-7.15.64-10.72a2.39,2.39,0,0,1,4.78.24c-.19,3.6-.4,7.24-.65,10.81A2.38,2.38,0,0,1,2029.44,973.18Zm-1241-20.66a2.39,2.39,0,0,1-2.39-2.31c-.13-3.57-.22-7.2-.29-10.8a2.41,2.41,0,0,1,2.35-2.44h0a2.4,2.4,0,0,1,2.4,2.35c.06,3.58.16,7.18.28,10.72a2.4,2.4,0,0,1-2.31,2.48Zm1242.07-.88h-.08a2.39,2.39,0,0,1-2.31-2.47c.12-3.55.21-7.17.27-10.74a2.43,2.43,0,0,1,2.43-2.35,2.38,2.38,0,0,1,2.35,2.43c0,3.6-.15,7.24-.27,10.82A2.39,2.39,0,0,1,2030.53,951.64ZM788.07,931a2.39,2.39,0,0,1-2.39-2.39V928c0-3.59,0-7.23.09-10.83a2.44,2.44,0,0,1,2.43-2.35,2.4,2.4,0,0,1,2.36,2.43c-.07,3.57-.1,7.19-.1,10.75v.6A2.39,2.39,0,0,1,788.07,931Zm1242.82-.9a2.39,2.39,0,0,1-2.39-2.39c0-3.57,0-7.19-.1-10.75a2.39,2.39,0,0,1,2.35-2.43,2.43,2.43,0,0,1,2.43,2.35c.07,3.58.1,7.23.1,10.83A2.39,2.39,0,0,1,2030.89,930.07ZM788.44,908.8h-.08a2.38,2.38,0,0,1-2.31-2.47c.12-3.61.28-7.24.46-10.82a2.39,2.39,0,0,1,4.78.25c-.18,3.54-.34,7.16-.46,10.73A2.39,2.39,0,0,1,788.44,908.8Zm1242.07-.28a2.39,2.39,0,0,1-2.39-2.31c-.12-3.58-.28-7.19-.46-10.73a2.39,2.39,0,1,1,4.78-.25c.18,3.57.34,7.21.46,10.82a2.38,2.38,0,0,1-2.31,2.47Zm-1241-21.25h-.17a2.39,2.39,0,0,1-2.22-2.55c.24-3.59.52-7.22.83-10.79a2.39,2.39,0,1,1,4.77.41c-.31,3.54-.59,7.14-.83,10.71A2.4,2.4,0,0,1,789.55,887.27ZM2029.39,887a2.39,2.39,0,0,1-2.38-2.23c-.25-3.57-.53-7.17-.83-10.71a2.38,2.38,0,0,1,2.18-2.59,2.41,2.41,0,0,1,2.59,2.18c.3,3.56.59,7.19.83,10.79a2.38,2.38,0,0,1-2.22,2.55Zm-1238-21.2-.25,0a2.38,2.38,0,0,1-2.13-2.62c.37-3.59.78-7.21,1.2-10.76A2.39,2.39,0,1,1,795,853c-.42,3.52-.82,7.12-1.19,10.68A2.4,2.4,0,0,1,791.39,865.78Zm1236.15-.29a2.39,2.39,0,0,1-2.38-2.14c-.37-3.56-.77-7.15-1.2-10.68a2.39,2.39,0,0,1,4.75-.58c.43,3.56.84,7.18,1.21,10.76a2.39,2.39,0,0,1-2.13,2.63ZM794,844.36l-.33,0a2.38,2.38,0,0,1-2-2.7c.49-3.54,1-7.15,1.57-10.71a2.39,2.39,0,0,1,4.73.74c-.55,3.54-1.08,7.11-1.56,10.63A2.41,2.41,0,0,1,794,844.36Zm1231-.28a2.39,2.39,0,0,1-2.36-2.06c-.49-3.53-1-7.11-1.57-10.63a2.39,2.39,0,1,1,4.72-.74c.56,3.55,1.09,7.15,1.59,10.71a2.4,2.4,0,0,1-2,2.7Zm-1227.63-21-.42,0a2.39,2.39,0,0,1-1.94-2.77c.61-3.51,1.27-7.1,1.95-10.65a2.39,2.39,0,0,1,4.7.9c-.68,3.53-1.33,7.08-1.94,10.57A2.39,2.39,0,0,1,797.31,823.05Zm1224.29-.28a2.39,2.39,0,0,1-2.35-2c-.61-3.49-1.26-7-1.94-10.57a2.39,2.39,0,1,1,4.7-.9c.68,3.55,1.34,7.13,2,10.65a2.38,2.38,0,0,1-1.94,2.76A2,2,0,0,1,2021.6,822.77ZM801.38,801.87a2.83,2.83,0,0,1-.5,0A2.4,2.4,0,0,1,799,799c.74-3.5,1.52-7.06,2.32-10.57a2.4,2.4,0,1,1,4.67,1.07c-.8,3.48-1.57,7-2.3,10.49A2.4,2.4,0,0,1,801.38,801.87Zm1216.15-.28a2.38,2.38,0,0,1-2.34-1.9c-.74-3.5-1.52-7-2.31-10.49a2.39,2.39,0,1,1,4.66-1.07c.8,3.49,1.58,7,2.33,10.57a2.4,2.4,0,0,1-1.85,2.84A2.72,2.72,0,0,1,2017.53,801.59ZM806.18,780.84a2.22,2.22,0,0,1-.57-.07,2.38,2.38,0,0,1-1.75-2.89c.86-3.49,1.76-7,2.69-10.49a2.39,2.39,0,1,1,4.62,1.23c-.92,3.44-1.81,6.94-2.67,10.4A2.39,2.39,0,0,1,806.18,780.84Zm1206.53-.27a2.4,2.4,0,0,1-2.32-1.82c-.86-3.46-1.76-7-2.67-10.41a2.39,2.39,0,0,1,4.62-1.23c.93,3.47,1.83,7,2.69,10.49a2.39,2.39,0,0,1-1.74,2.9A3,3,0,0,1,2012.71,780.57ZM811.72,760a2.16,2.16,0,0,1-.66-.1,2.38,2.38,0,0,1-1.64-2.95c1-3.45,2-7,3.05-10.39a2.39,2.39,0,0,1,4.58,1.39c-1,3.41-2.06,6.88-3,10.31A2.4,2.4,0,0,1,811.72,760Zm1195.44-.28a2.39,2.39,0,0,1-2.3-1.74c-1-3.42-2-6.89-3-10.3a2.39,2.39,0,1,1,4.58-1.39c1,3.44,2.07,6.93,3.06,10.38a2.4,2.4,0,0,1-1.65,3A2.5,2.5,0,0,1,2007.16,759.72ZM818,739.31a2.37,2.37,0,0,1-2.28-3.12c1.11-3.45,2.26-6.92,3.43-10.32a2.39,2.39,0,0,1,4.53,1.55c-1.16,3.38-2.3,6.82-3.41,10.23A2.37,2.37,0,0,1,818,739.31Zm1182.89-.22a2.41,2.41,0,0,1-2.28-1.66c-1.09-3.41-2.24-6.83-3.39-10.19a2.4,2.4,0,0,1,4.53-1.56c1.16,3.39,2.31,6.85,3.42,10.28a2.41,2.41,0,0,1-1.54,3A2.43,2.43,0,0,1,2000.89,739.09ZM825,718.83a2.4,2.4,0,0,1-2.25-3.21c1.22-3.39,2.5-6.81,3.79-10.18a2.39,2.39,0,0,1,4.47,1.71c-1.28,3.34-2.55,6.74-3.76,10.1A2.41,2.41,0,0,1,825,718.83Zm1168.89-.15a2.38,2.38,0,0,1-2.25-1.58c-1.22-3.36-2.48-6.74-3.75-10.07a2.39,2.39,0,1,1,4.47-1.7c1.28,3.34,2.55,6.76,3.78,10.14a2.4,2.4,0,0,1-1.44,3.07A2.56,2.56,0,0,1,1993.9,718.68ZM832.73,698.61a2.51,2.51,0,0,1-.89-.17,2.4,2.4,0,0,1-1.33-3.12c1.35-3.34,2.74-6.72,4.14-10a2.39,2.39,0,1,1,4.41,1.86c-1.39,3.28-2.77,6.64-4.11,10A2.4,2.4,0,0,1,832.73,698.61Zm1153.47-.08A2.39,2.39,0,0,1,1984,697c-1.32-3.28-2.69-6.61-4.08-9.89a2.39,2.39,0,0,1,4.41-1.86c1.4,3.31,2.78,6.66,4.11,10a2.39,2.39,0,0,1-1.33,3.11A2.31,2.31,0,0,1,1986.2,698.53Zm-8.37-19.79a2.41,2.41,0,0,1-2.19-1.42c-1.43-3.24-2.92-6.52-4.42-9.75a2.39,2.39,0,1,1,4.34-2c1.51,3.26,3,6.56,4.46,9.83a2.39,2.39,0,0,1-1.22,3.16A2.51,2.51,0,0,1,1977.83,678.74Zm-1136.68-.06a2.38,2.38,0,0,1-2.18-3.36c1.46-3.3,3-6.63,4.49-9.88a2.39,2.39,0,1,1,4.33,2c-1.5,3.23-3,6.53-4.45,9.81A2.39,2.39,0,0,1,841.15,678.68Zm1127.63-19.44a2.38,2.38,0,0,1-2.15-1.34c-1.55-3.19-3.15-6.42-4.77-9.6a2.39,2.39,0,0,1,4.27-2.16c1.63,3.2,3.24,6.45,4.8,9.67a2.38,2.38,0,0,1-1.11,3.19A2.26,2.26,0,0,1,1968.78,659.24Zm-1118.52-.17a2.43,2.43,0,0,1-1-.24,2.4,2.4,0,0,1-1.11-3.2c1.57-3.23,3.2-6.5,4.83-9.72a2.39,2.39,0,1,1,4.27,2.17c-1.62,3.19-3.23,6.44-4.79,9.64A2.39,2.39,0,0,1,850.26,659.07Zm1108.79-19a2.39,2.39,0,0,1-2.11-1.28c-1.67-3.14-3.38-6.31-5.1-9.42a2.39,2.39,0,1,1,4.19-2.31c1.73,3.13,3.46,6.33,5.14,9.49a2.4,2.4,0,0,1-2.12,3.52Zm-1099-.28a2.37,2.37,0,0,1-1.12-.27,2.4,2.4,0,0,1-1-3.24c1.69-3.18,3.42-6.39,5.16-9.54a2.39,2.39,0,1,1,4.19,2.31c-1.72,3.13-3.45,6.31-5.12,9.47A2.39,2.39,0,0,1,860.05,639.79Zm1088.61-18.56a2.39,2.39,0,0,1-2.08-1.2c-1.76-3.07-3.59-6.18-5.42-9.25a2.39,2.39,0,1,1,4.11-2.45c1.84,3.08,3.68,6.22,5.46,9.32a2.39,2.39,0,0,1-2.07,3.58ZM870.5,620.88a2.37,2.37,0,0,1-1.19-.32,2.4,2.4,0,0,1-.88-3.27c1.79-3.11,3.64-6.25,5.49-9.35A2.39,2.39,0,0,1,878,610.4c-1.84,3.07-3.67,6.19-5.45,9.28A2.39,2.39,0,0,1,870.5,620.88Zm1067.12-18.12a2.41,2.41,0,0,1-2-1.13c-1.87-3-3.8-6.06-5.74-9.06a2.39,2.39,0,0,1,4-2.59c2,3,3.9,6.09,5.79,9.13a2.4,2.4,0,0,1-.77,3.29A2.44,2.44,0,0,1,1937.62,602.76Zm-1056-.42a2.44,2.44,0,0,1-1.26-.36,2.39,2.39,0,0,1-.76-3.3c1.89-3,3.85-6.12,5.81-9.15a2.39,2.39,0,1,1,4,2.6c-1.94,3-3.88,6.06-5.76,9.08A2.41,2.41,0,0,1,881.6,602.34Zm1044.34-17.66a2.41,2.41,0,0,1-2-1.06c-2-3-4-5.94-6-8.86a2.39,2.39,0,1,1,3.92-2.73c2,2.94,4.1,5.94,6.1,8.92a2.4,2.4,0,0,1-.65,3.32A2.44,2.44,0,0,1,1925.94,584.68Zm-1032.6-.47a2.34,2.34,0,0,1-1.33-.41,2.39,2.39,0,0,1-.65-3.32c2-3,4.06-6,6.12-8.94a2.39,2.39,0,1,1,3.92,2.74c-2,2.92-4.08,5.91-6.07,8.87A2.39,2.39,0,0,1,893.34,584.21ZM1913.63,567a2.38,2.38,0,0,1-1.94-1c-2.09-2.89-4.22-5.8-6.35-8.64a2.39,2.39,0,0,1,3.83-2.87c2.14,2.87,4.3,5.8,6.4,8.71a2.39,2.39,0,0,1-1.94,3.79Zm-1007.94-.5a2.4,2.4,0,0,1-1.93-3.8c2.09-2.9,4.26-5.83,6.42-8.72a2.39,2.39,0,1,1,3.83,2.87c-2.15,2.87-4.3,5.78-6.38,8.66A2.41,2.41,0,0,1,905.69,566.5Zm995-16.74a2.39,2.39,0,0,1-1.89-.93c-2.18-2.81-4.42-5.64-6.65-8.42a2.39,2.39,0,0,1,3.73-3c2.25,2.8,4.5,5.65,6.7,8.49a2.4,2.4,0,0,1-.42,3.36A2.44,2.44,0,0,1,1900.72,549.76Zm-982.07-.53a2.4,2.4,0,0,1-1.89-3.86c2.21-2.84,4.47-5.7,6.72-8.5a2.4,2.4,0,1,1,3.73,3c-2.24,2.77-4.48,5.61-6.67,8.42A2.39,2.39,0,0,1,918.65,549.23ZM1887.22,533a2.4,2.4,0,0,1-1.84-.86c-2.28-2.74-4.62-5.49-6.94-8.19a2.39,2.39,0,1,1,3.62-3.12c2.35,2.71,4.7,5.49,7,8.25a2.39,2.39,0,0,1-1.84,3.92Zm-955-.54a2.39,2.39,0,0,1-1.84-3.92c2.31-2.76,4.67-5.54,7-8.26a2.39,2.39,0,0,1,3.61,3.13c-2.33,2.7-4.67,5.46-7,8.19A2.4,2.4,0,0,1,932.19,532.42Zm941-15.78a2.39,2.39,0,0,1-1.79-.8c-2.37-2.65-4.8-5.33-7.22-7.94a2.39,2.39,0,0,1,3.51-3.25c2.44,2.63,4.89,5.33,7.28,8a2.39,2.39,0,0,1-1.78,4ZM946.3,516.1a2.35,2.35,0,0,1-1.59-.61,2.39,2.39,0,0,1-.19-3.38c2.39-2.67,4.84-5.36,7.29-8a2.39,2.39,0,1,1,3.51,3.25c-2.43,2.62-4.86,5.29-7.24,7.94A2.37,2.37,0,0,1,946.3,516.1Zm912.21-15.29a2.39,2.39,0,0,1-1.73-.74c-2.48-2.59-5-5.18-7.49-7.69a2.39,2.39,0,1,1,3.4-3.37c2.51,2.54,5,5.14,7.55,7.75a2.39,2.39,0,0,1-1.73,4.05ZM961,500.28a2.4,2.4,0,0,1-1.72-4c2.48-2.59,5-5.2,7.56-7.75a2.39,2.39,0,1,1,3.39,3.37c-2.51,2.53-5,5.12-7.5,7.69A2.39,2.39,0,0,1,961,500.28Zm882.38-14.79a2.42,2.42,0,0,1-1.68-.68c-2.56-2.5-5.17-5-7.75-7.43a2.39,2.39,0,0,1,3.28-3.49c2.6,2.46,5.23,5,7.82,7.5a2.39,2.39,0,0,1-1.67,4.1ZM976.16,485a2.39,2.39,0,0,1-1.67-4.1c2.57-2.5,5.2-5,7.82-7.48a2.39,2.39,0,0,1,3.28,3.48c-2.61,2.45-5.22,4.95-7.77,7.42A2.33,2.33,0,0,1,976.16,485Zm851.48-14.27a2.35,2.35,0,0,1-1.61-.63c-2.64-2.39-5.33-4.8-8-7.16a2.39,2.39,0,1,1,3.16-3.59c2.7,2.37,5.41,4.8,8.07,7.22a2.39,2.39,0,0,1-1.61,4.16Zm-835.77-.49a2.42,2.42,0,0,1-1.78-.79,2.4,2.4,0,0,1,.17-3.38c2.66-2.42,5.38-4.84,8.07-7.2a2.39,2.39,0,1,1,3.15,3.6c-2.67,2.34-5.36,4.74-8,7.14A2.35,2.35,0,0,1,991.87,470.21Zm819.56-13.76a2.34,2.34,0,0,1-1.55-.57c-2.71-2.3-5.49-4.62-8.25-6.88a2.39,2.39,0,0,1,3-3.7c2.79,2.28,5.59,4.61,8.32,6.94a2.39,2.39,0,0,1-1.55,4.21ZM1008.07,456a2.36,2.36,0,0,1-1.82-.84,2.39,2.39,0,0,1,.27-3.37c2.73-2.31,5.52-4.64,8.32-6.92a2.39,2.39,0,0,1,3,3.7c-2.78,2.27-5.55,4.58-8.25,6.87A2.39,2.39,0,0,1,1008.07,456Zm786.67-13.22a2.42,2.42,0,0,1-1.48-.51c-2.78-2.21-5.64-4.43-8.49-6.6a2.39,2.39,0,0,1,2.9-3.81c2.88,2.2,5.75,4.43,8.56,6.65a2.39,2.39,0,0,1-1.49,4.27Zm-770-.42a2.39,2.39,0,0,1-1.48-4.27c2.82-2.22,5.69-4.45,8.54-6.63a2.39,2.39,0,1,1,2.9,3.81c-2.83,2.16-5.68,4.37-8.48,6.58A2.42,2.42,0,0,1,1024.75,442.35Zm752.83-12.68a2.38,2.38,0,0,1-1.41-.46c-2.89-2.13-5.82-4.25-8.72-6.31a2.39,2.39,0,0,1,2.77-3.9c2.92,2.08,5.88,4.21,8.78,6.35a2.39,2.39,0,0,1-1.42,4.32Zm-735.69-.37a2.39,2.39,0,0,1-1.42-4.32c2.9-2.13,5.85-4.26,8.77-6.33a2.39,2.39,0,0,1,2.76,3.9c-2.89,2.06-5.82,4.17-8.7,6.28A2.32,2.32,0,0,1,1041.89,429.3ZM1760,417.17a2.32,2.32,0,0,1-1.35-.42c-3-2-6-4-8.93-6a2.39,2.39,0,0,1,2.63-4c3,2,6,4,9,6a2.39,2.39,0,0,1,.62,3.33A2.37,2.37,0,0,1,1760,417.17Zm-700.52-.32a2.39,2.39,0,0,1-1.35-4.37c3-2,6-4.05,9-6a2.39,2.39,0,0,1,2.63,4c-3,2-6,4-8.91,6A2.39,2.39,0,0,1,1059.46,416.85Zm682.48-11.56a2.35,2.35,0,0,1-1.28-.38c-3-1.9-6.07-3.81-9.13-5.68a2.39,2.39,0,1,1,2.49-4.08c3.08,1.88,6.18,3.8,9.21,5.72a2.4,2.4,0,0,1-1.29,4.42ZM1077.45,405a2.39,2.39,0,0,1-1.28-4.41c3-1.92,6.11-3.84,9.17-5.7a2.39,2.39,0,1,1,2.49,4.08c-3,1.85-6.1,3.76-9.1,5.66A2.4,2.4,0,0,1,1077.45,405Zm646.05-11a2.39,2.39,0,0,1-1.2-.33c-3.08-1.8-6.22-3.61-9.33-5.36a2.39,2.39,0,0,1,2.34-4.17c3.14,1.77,6.31,3.59,9.41,5.4a2.4,2.4,0,0,1-1.22,4.46Zm-627.67-.22a2.39,2.39,0,0,1-1.21-4.45c3.08-1.81,6.23-3.62,9.36-5.38a2.39,2.39,0,1,1,2.35,4.17c-3.11,1.75-6.23,3.54-9.3,5.34A2.37,2.37,0,0,1,1095.83,393.81Zm608.85-10.39a2.33,2.33,0,0,1-1.14-.29c-3.13-1.69-6.34-3.39-9.51-5a2.39,2.39,0,0,1,2.2-4.24c3.2,1.66,6.43,3.36,9.59,5.07a2.4,2.4,0,0,1-1.14,4.5Zm-590.1-.16a2.39,2.39,0,0,1-1.14-4.5c3.16-1.7,6.37-3.4,9.54-5a2.39,2.39,0,1,1,2.2,4.24c-3.15,1.64-6.33,3.32-9.47,5A2.32,2.32,0,0,1,1114.58,383.26Zm570.91-9.79a2.43,2.43,0,0,1-1.07-.25c-3.19-1.58-6.44-3.17-9.68-4.71a2.39,2.39,0,1,1,2-4.32c3.26,1.55,6.55,3.15,9.76,4.74a2.39,2.39,0,0,1-1.06,4.54Zm-551.82-.1a2.39,2.39,0,0,1-1.06-4.53c3.21-1.6,6.48-3.18,9.71-4.72a2.4,2.4,0,0,1,2,4.33c-3.21,1.52-6.45,3.09-9.63,4.67A2.43,2.43,0,0,1,1133.67,373.37ZM1666,364.19a2.43,2.43,0,0,1-1-.21c-3.24-1.47-6.56-2.94-9.85-4.37a2.39,2.39,0,1,1,1.9-4.39c3.32,1.44,6.66,2.92,9.92,4.4a2.39,2.39,0,0,1-1,4.57Zm-512.86,0a2.39,2.39,0,0,1-1-4.57c3.26-1.47,6.58-2.94,9.87-4.37a2.39,2.39,0,0,1,1.9,4.39c-3.27,1.42-6.56,2.87-9.79,4.34A2.48,2.48,0,0,1,1153.09,364.15Zm19.72-8.53a2.4,2.4,0,0,1-.91-4.61c3.33-1.37,6.71-2.73,10-4a2.39,2.39,0,1,1,1.74,4.45c-3.31,1.3-6.66,2.65-10,4A2.47,2.47,0,0,1,1172.81,355.62Zm473.29,0a2.46,2.46,0,0,1-.91-.18c-3.32-1.37-6.68-2.72-10-4a2.39,2.39,0,1,1,1.75-4.45c3.34,1.3,6.73,2.67,10.07,4.05a2.39,2.39,0,0,1-.91,4.6Zm-453.2-7.85a2.4,2.4,0,0,1-.84-4.64c3.38-1.25,6.8-2.49,10.18-3.68a2.39,2.39,0,0,1,1.59,4.51c-3.35,1.18-6.75,2.41-10.1,3.66A2.43,2.43,0,0,1,1192.9,347.75Zm433.05,0a2.43,2.43,0,0,1-.83-.15c-3.34-1.25-6.75-2.48-10.14-3.67a2.39,2.39,0,0,1,1.59-4.51c3.41,1.2,6.85,2.44,10.22,3.69a2.4,2.4,0,0,1-.84,4.64Zm-412.71-7.12a2.4,2.4,0,0,1-.75-4.67c3.41-1.13,6.88-2.25,10.3-3.32a2.39,2.39,0,1,1,1.43,4.56c-3.4,1.07-6.84,2.18-10.22,3.3A2.25,2.25,0,0,1,1213.24,340.59Zm392.29-.07a2.45,2.45,0,0,1-.75-.12c-3.4-1.13-6.85-2.24-10.27-3.31a2.39,2.39,0,0,1,1.43-4.57c3.45,1.08,6.93,2.2,10.35,3.34a2.39,2.39,0,0,1-.76,4.66Zm-371.7-6.38a2.39,2.39,0,0,1-.68-4.69c3.45-1,6.95-2,10.41-3a2.4,2.4,0,1,1,1.27,4.62c-3.43.94-6.91,1.93-10.33,2.94A2.22,2.22,0,0,1,1233.83,334.14Zm351.07-.07a2.27,2.27,0,0,1-.67-.1c-3.44-1-6.91-2-10.33-2.94a2.39,2.39,0,1,1,1.26-4.61c3.45.95,6.95,1.94,10.42,3a2.39,2.39,0,0,1-.68,4.69Zm-330.28-5.66a2.37,2.37,0,0,1-2.31-1.8,2.39,2.39,0,0,1,1.72-2.91c3.49-.89,7-1.77,10.51-2.59a2.39,2.39,0,1,1,1.11,4.65c-3.46.82-7,1.69-10.43,2.58A2.46,2.46,0,0,1,1254.62,328.41Zm309.49-.06a2.46,2.46,0,0,1-.6-.07c-3.45-.89-7-1.75-10.43-2.58a2.39,2.39,0,0,1,1.11-4.65c3.5.83,7,1.7,10.51,2.59a2.39,2.39,0,0,1-.59,4.71Zm-288.51-4.93a2.39,2.39,0,0,1-.51-4.73c3.53-.77,7.09-1.52,10.6-2.23a2.39,2.39,0,1,1,.94,4.69c-3.48.7-7,1.45-10.51,2.21A2.31,2.31,0,0,1,1275.6,323.42Zm267.52-.05a2.22,2.22,0,0,1-.51-.06c-3.49-.76-7-1.5-10.52-2.21a2.39,2.39,0,0,1,1-4.69c3.51.71,7.08,1.46,10.59,2.23a2.39,2.39,0,0,1-.51,4.73Zm-246.37-4.21a2.39,2.39,0,0,1-.43-4.74c3.53-.65,7.12-1.27,10.66-1.86a2.39,2.39,0,1,1,.79,4.72c-3.53.58-7.09,1.2-10.59,1.84A2.09,2.09,0,0,1,1296.75,319.16Zm225.23,0a2.18,2.18,0,0,1-.44,0c-3.51-.64-7.07-1.26-10.58-1.84a2.39,2.39,0,1,1,.78-4.72c3.54.58,7.13,1.21,10.66,1.85a2.39,2.39,0,0,1-.42,4.75Zm-204-3.48a2.39,2.39,0,0,1-.35-4.75c3.54-.53,7.15-1,10.73-1.49a2.39,2.39,0,1,1,.61,4.74c-3.55.46-7.13,1-10.64,1.48A2.11,2.11,0,0,1,1318,315.64Zm182.66,0-.35,0c-3.52-.51-7.1-1-10.64-1.47a2.39,2.39,0,1,1,.61-4.74c3.58.46,7.18,1,10.73,1.48a2.39,2.39,0,0,1-.35,4.76Zm-161.27-2.74a2.39,2.39,0,0,1-.27-4.77c3.57-.4,7.19-.78,10.77-1.12a2.4,2.4,0,0,1,.45,4.77c-3.55.33-7.15.71-10.68,1.1Zm139.88,0H1479c-3.52-.4-7.12-.77-10.68-1.1a2.4,2.4,0,1,1,.45-4.77c3.59.34,7.21.71,10.77,1.11a2.39,2.39,0,0,1-.27,4.77Zm-118.41-2a2.39,2.39,0,0,1-.18-4.77c3.58-.28,7.22-.53,10.8-.74a2.39,2.39,0,1,1,.29,4.77c-3.56.21-7.16.46-10.72.74Zm96.94,0h-.19c-3.53-.27-7.14-.52-10.72-.73a2.39,2.39,0,0,1,.29-4.78c3.6.21,7.24.46,10.8.74a2.39,2.39,0,0,1-.18,4.78Zm-75.41-1.28a2.39,2.39,0,0,1-.1-4.78c3.57-.15,7.2-.28,10.79-.37a2.39,2.39,0,1,1,.13,4.78c-3.56.09-7.17.22-10.71.37Zm53.88,0h-.11c-3.56-.15-7.17-.28-10.73-.37a2.39,2.39,0,1,1,.12-4.78c3.58.09,7.22.22,10.82.37a2.39,2.39,0,0,1-.1,4.78ZM1404,309a2.4,2.4,0,0,1,0-4.79l5.55,0,5.27,0a2.4,2.4,0,0,1,2.38,2.41,2.43,2.43,0,0,1-2.42,2.37l-5.43,0-5.31,0Z"/><path class="cls-5" d="M1100.4,374.36a28,28,0,1,1,28,28A28,28,0,0,1,1100.4,374.36Z"/><path class="cls-7" d="M1409.48,1435.31A505.77,505.77,0,1,1,1607,1395.44,504.31,504.31,0,0,1,1409.48,1435.31Zm0-994.55a485.69,485.69,0,1,0,189.64,38.29A484,484,0,0,0,1409.48,440.76Z"/><rect class="cls-7" x="1340.08" y="389.94" width="132.41" height="44.5"/><rect class="cls-7" x="1395.63" y="347.88" width="21.3" height="50.49"/><path class="cls-7" d="M1406.28,359.91a41.22,41.22,0,1,1,41.22-41.22A41.26,41.26,0,0,1,1406.28,359.91Zm0-64.69a23.47,23.47,0,1,0,23.47,23.47A23.49,23.49,0,0,0,1406.28,295.22Z"/><path class="cls-8" d="M1652.66,932.91a236.11,236.11,0,0,1-3.79,42.22,234.44,234.44,0,0,1-444.94,52.66,230.53,230.53,0,0,1-11.93-33.7A236,236,0,0,1,1189.24,883c0-.19.08-.37.11-.55a235.11,235.11,0,0,1,91.48-139.43q7.23-5.23,14.87-9.93a233.08,233.08,0,0,1,122.6-34.6q8.94,0,17.71.67a232.88,232.88,0,0,1,116.08,41.26h0a235.37,235.37,0,0,1,64.29,67.12q5.38,8.5,10,17.48a233.38,233.38,0,0,1,26.22,107.85Z"/><path class="cls-9" d="M1338.67,828c-9.35,14.81,3.9,40.53-24.15,33.51s-45.21-10.13-46.77,5.45,21,15.6,21,32-10.14,21.79-25.72,14-20.08-19.08-38.2-12.06-28.64,2.33-32.73-11.7a20.67,20.67,0,0,0-2.91-6.13c0-.19.08-.37.11-.55a235.11,235.11,0,0,1,91.48-139.43q7.23-5.23,14.87-9.93c7.31.26,16,3,23.49,12.25,16.37,20.27,27.28,10.13,23.38,33.51s2.34,26.51,15.59,25.72,28.84-.78,30.39,9.36S1348,813.18,1338.67,828Z"/><path class="cls-9" d="M1468.26,953.83s-16.31,5.23-20.61-6.15.61-13.84-13.85-17.22-15.69-13.23-24.91-12-4.62,4.92-15.38,12.92-20.61,4.3-20.31,19.07,16.31,17.07,19.54,26.76-2.31,13.84,4.61,21.23,19.84,4.15,13.84,14.3-15.22,18-10.61,33.69,1.39,16.61,9.23,27.68,23.07,14.77,25.38,7.38-10.62-17.07-6.46-24.45,11.07-2.31,13.84-13.38,14-11.08,14.92-18.77-13.54-19.38-8-24.3,16.61,8.92,25.23-3.38,2.76-22.15,11.69-33.84S1474.41,947.07,1468.26,953.83Z"/><path class="cls-9" d="M1652.66,932.91a236.11,236.11,0,0,1-3.79,42.22,233,233,0,0,1-37,89.91,26.72,26.72,0,0,1-18.74-.5c-29.22-11.69-7.59-43.26,4.1-59s-18.12-8.77-39.75-23.38,2.34-53.78-19.88-47.35-49.1,14.61-62-7,11.69-25.14.59-43.26,6.43-28.64,28.64-30.4,19.29-17.53,46.76-19.87,26.89,32.73,57.29,30.39,29,4.68,29,4.68a14.18,14.18,0,0,1,6.34,1.33A234.74,234.74,0,0,1,1652.66,932.91Z"/><path class="cls-9" d="M1626.44,825.06c-25.28,12.3-35.42-21.15-57-11.09-21.78,10.13-18-9.36-35.11-21.83s-51.44,10.14-49.88-9.35,27.27-14,32.73-29.62,30.4-11.69,30.4-11.69a17.08,17.08,0,0,1,4.54-1s0,0,0,0a235.37,235.37,0,0,1,64.29,67.12Q1621.78,816.09,1626.44,825.06Z"/><path class="cls-9" d="M1413.49,757.85s13.25-19.12-7.79-24.76-20.66,1.75-37,0-22.8,10.93-10.52,24.76,22.21,40.38,33.32,26.23S1400.44,759.21,1413.49,757.85Z"/><path class="cls-7" d="M1410.54,945.17l-3.44.06A10.42,10.42,0,0,1,1396.25,935l1.6-300.33a6.33,6.33,0,0,1,6.38-6.15h0a6.34,6.34,0,0,1,6.59,6l9.63,300.75A9.83,9.83,0,0,1,1410.54,945.17Z"/><path class="cls-10" d="M1409.09,945.2l-.37-.26c-.64-.43,1.61-4.85,5-9.78l178.2-260.06c2-2.91,3.89-5,4.27-4.78h0c.38.26-.91,2.82-2.9,5.76l-177.37,261.4C1412.76,942.13,1409.69,945.6,1409.09,945.2Z"/><path class="cls-7" d="M1390,936.38l1.21-3.23c2.11-5.6,9.14-8.09,15.58-5.53l339.21,135c3.79,1.52,5.83,5.37,4.59,8.67h0c-1.25,3.32-5.36,4.86-9.22,3.46L1397.49,950C1391.37,947.76,1388,941.63,1390,936.38Z"/><path class="cls-5" d="M1355.87,933.77a52.41,52.41,0,1,1,53.27,51.54A52.41,52.41,0,0,1,1355.87,933.77Z"/><path class="cls-2" d="M2083.67,1017.32a50.79,50.79,0,0,1,49.16-24.64s50.32-46.19,104-6.16c0,0,57.05-9.92,99.29,8.59,28.17,12.34,37.47,25.29,37.47,25.29Z"/><path class="cls-2" d="M1456,124.17s12.37-28.69,42-25.5c0,0,43-47.8,88.76-6.37,0,0,48.69-10.27,84.75,8.89,24,12.77,32,26.16,32,26.16Z"/><path class="cls-11" d="M314.92,1275.22s27.61-47.86,93.64-42.55c0,0,95.86-79.78,198.09-10.63,0,0,108.66-17.14,189.14,14.83,53.65,21.32,71.37,43.67,71.37,43.67Z"/><path class="cls-12" d="M566.7,1022s15.49-28.68,52.52-25.49c0,0,53.77-47.81,111.11-6.38,0,0,61-10.26,106.1,8.89,30.09,12.77,40,26.17,40,26.17Z"/><path class="cls-12" d="M141.83,1136.65s15.48-28.68,52.52-25.49c0,0,53.77-47.81,111.11-6.38,0,0,61-10.26,106.09,8.89,30.1,12.77,40,26.17,40,26.17Z"/><path class="cls-12" d="M518,857.12s10.17-21.65,34.51-19.25c0,0,35.34-36.07,73-4.81,0,0,40.06-7.74,69.72,6.71,19.78,9.64,26.31,19.75,26.31,19.75Z"/><path class="cls-13" d="M654.88,1117.33a120.62,120.62,0,1,1-84.65-208.52,112.71,112.71,0,0,0,84.65,208.52Z"/><path class="cls-14" d="M2339.44,1526.27c10,4.07,45.83.78,47-2.08s-22.26-30.14-32.28-34.2a19.57,19.57,0,1,0-14.71,36.28Z"/><path class="cls-14" d="M2429.77,1543.37c-5.63,9.23-8.17,45.09-5.54,46.7s33.35-17.1,39-26.33a19.57,19.57,0,1,0-33.43-20.37Z"/><path class="cls-14" d="M2381.51,1613.55c10.3,3.29,45.75-2.71,46.69-5.65s-24.49-28.36-34.79-31.65a19.58,19.58,0,0,0-11.9,37.3Z"/><path class="cls-14" d="M2433.66,1648.26c0-.81-4-82-48.44-123.89l.94-1c44.86,42.3,48.84,124,48.87,124.84Z"/><path class="cls-14" d="M2582,1528c-6.25,4.15-31,6.87-32.19,5.09s10.94-23.54,17.18-27.69a13.57,13.57,0,0,1,15,22.6Z"/><path class="cls-14" d="M2523.06,1552.13c5.09,5.49,11.78,29.49,10.21,30.94s-25-7-30.1-12.48a13.57,13.57,0,0,1,19.89-18.46Z"/><path class="cls-14" d="M2565.53,1593.1c-6.54,3.66-31.44,4.49-32.48,2.63s12.7-22.65,19.24-26.31a13.57,13.57,0,0,1,13.24,23.68Z"/><path class="cls-14" d="M2534.93,1623.89c-.09-.56-8.63-56.22,15.74-90.83l-.78-.55c-24.6,34.93-16,91-15.9,91.53Z"/><path class="cls-14" d="M2490.93,1643.53l-2.83-.45C2477,1499,2433,1395.57,2432.34,1394.17l2.57-1.11C2435.53,1394.48,2479.85,1498.57,2490.93,1643.53Z"/><path class="cls-6" d="M2402.49,1379.67c5.42,6.15,30.83,16,32.59,14.49s-4.91-28-10.33-34.14a14.85,14.85,0,1,0-22.26,19.65Z"/><path class="cls-6" d="M2441.43,1358.24c-4.9,6.57-9.35,33.47-7.48,34.87s26.38-10.55,31.28-17.13a14.84,14.84,0,0,0-23.8-17.74Z"/><path class="cls-6" d="M2470.65,1386.84c-7.91-2.16-34.57,3.54-35.19,5.8s19.48,20.69,27.39,22.85a14.85,14.85,0,1,0,7.8-28.65Z"/><path class="cls-6" d="M2452.64,1422.5c-.79-8.16-15.57-31.07-17.9-30.85s-12.44,25.55-11.66,33.71a14.85,14.85,0,0,0,29.56-2.86Z"/><path class="cls-6" d="M2412.19,1420.75c7.26-3.81,22.9-26.15,21.81-28.22s-28.35-1.88-35.61,1.93a14.85,14.85,0,0,0,13.8,26.29Z"/><path class="cls-8" d="M2429.18,1391.76a4.89,4.89,0,1,1,4.05,5.6A4.88,4.88,0,0,1,2429.18,1391.76Z"/><path class="cls-14" d="M2490.12,1496.2c-8.07,9.92-16.78,51.55-13.95,53.85s41.81-14.71,49.88-24.63a23.16,23.16,0,0,0-35.93-29.22Z"/><path class="cls-14" d="M2330.43,1658.27l-1.92,0c-20-94.64-58.31-159.39-58.85-160.27l1.62-1C2271.81,1497.88,2310.36,1563.05,2330.43,1658.27Z"/><path class="cls-8" d="M2248.58,1491c4.14,3.6,21.87,7.93,22.9,6.75s-5.71-18.14-9.85-21.75a9.94,9.94,0,0,0-13.05,15Z"/><path class="cls-8" d="M2272.54,1473.31c-2.67,4.79-3.27,23-1.9,23.79s16.58-9.32,19.26-14.11a9.94,9.94,0,0,0-17.36-9.68Z"/><path class="cls-8" d="M2294.45,1489.72c-5.44-.73-22.64,5.38-22.85,6.94s14.74,12,20.18,12.76a9.94,9.94,0,0,0,2.67-19.7Z"/><path class="cls-8" d="M2285.62,1515c-1.24-5.35-13.06-19.26-14.58-18.9s-6,18-4.78,23.39a9.94,9.94,0,0,0,19.36-4.49Z"/><path class="cls-8" d="M2258.63,1517.35c4.48-3.16,12.9-19.36,12-20.64s-19,1.24-23.47,4.41a9.94,9.94,0,1,0,11.47,16.23Z"/><path class="cls-15" d="M2267.35,1496.63a3.28,3.28,0,1,1,3.19,3.35A3.27,3.27,0,0,1,2267.35,1496.63Z"/><path class="cls-14" d="M2317,1560.58c-4.48,7.29-6.61,35.68-4.53,37s26.45-13.43,30.93-20.73a15.49,15.49,0,0,0-26.4-16.23Z"/><path class="cls-14" d="M2270.63,1668.19s10.61-28.75,49.15-30.55,65.08,21.66,96.92,10.83,84.54-35.28,134.4-19,58.26,38.71,58.26,38.71Z"/><path class="cls-14" d="M1754.88,1658.37l-2.32-.37c-9.13-118.1-45.19-202.86-45.7-204l2.12-.91C1709.48,1454.25,1745.81,1539.56,1754.88,1658.37Z"/><path class="cls-6" d="M1682.4,1442.11c4.44,5,25.27,13.14,26.71,11.87s-4-22.94-8.47-28a12.17,12.17,0,1,0-18.24,16.11Z"/><path class="cls-6" d="M1714.31,1424.54c-4,5.39-7.66,27.44-6.13,28.58s21.63-8.65,25.64-14a12.17,12.17,0,0,0-19.51-14.54Z"/><path class="cls-6" d="M1738.27,1448c-6.49-1.76-28.34,2.9-28.85,4.76s16,17,22.45,18.72a12.17,12.17,0,0,0,6.4-23.48Z"/><path class="cls-6" d="M1723.5,1477.21c-.65-6.69-12.76-25.47-14.67-25.28s-10.2,20.94-9.55,27.62a12.17,12.17,0,1,0,24.22-2.34Z"/><path class="cls-6" d="M1690.35,1475.78c6-3.13,18.77-21.44,17.88-23.13s-23.24-1.55-29.19,1.58a12.17,12.17,0,0,0,11.31,21.55Z"/><path class="cls-10" d="M1704.27,1452a4,4,0,1,1,3.33,4.58A4,4,0,0,1,1704.27,1452Z"/><path class="cls-14" d="M1744,1486.75c-6.62,8.13-13.75,42.24-11.43,44.13s34.26-12.06,40.88-20.19a19,19,0,0,0-29.45-23.94Z"/><path class="cls-14" d="M1727.71,1584.72c6.86,3.35,22,23.72,21.09,25.68s-26.35,2.54-33.22-.81a13.84,13.84,0,0,1,12.13-24.87Z"/><path class="cls-14" d="M1821.06,1658.37l2.66-.42c10.48-135.6,51.89-232.91,52.47-234.23l-2.42-1C1873.19,1424,1831.48,1522,1821.06,1658.37Z"/><path class="cls-6" d="M1904.28,1410.07c-5.1,5.79-29,15.09-30.67,13.64s4.62-26.34,9.72-32.13a14,14,0,1,1,21,18.49Z"/><path class="cls-6" d="M1867.64,1389.91c4.61,6.18,8.8,31.5,7,32.81s-24.82-9.93-29.44-16.12a14,14,0,0,1,22.41-16.69Z"/><path class="cls-6" d="M1840.14,1416.82c7.44-2,32.53,3.33,33.11,5.46s-18.32,19.47-25.77,21.5a14,14,0,1,1-7.34-27Z"/><path class="cls-6" d="M1857.09,1450.38c.74-7.68,14.65-29.24,16.84-29s11.71,24,11,31.72a14,14,0,1,1-27.81-2.69Z"/><path class="cls-6" d="M1895.15,1448.73c-6.84-3.59-21.55-24.6-20.53-26.56s26.68-1.77,33.52,1.82a14,14,0,0,1-13,24.74Z"/><path class="cls-15" d="M1879.17,1421.45a4.6,4.6,0,1,0-3.82,5.27A4.6,4.6,0,0,0,1879.17,1421.45Z"/><path class="cls-14" d="M1821.82,1519.73c7.59,9.34,15.79,48.5,13.12,50.67s-39.34-13.84-46.93-23.18a21.79,21.79,0,0,1,33.81-27.49Z"/><path class="cls-14" d="M1852.26,1573.82c-7.88,3.84-25.32,27.22-24.22,29.47s30.26,2.92,38.14-.92a15.88,15.88,0,0,0-13.92-28.55Z"/><path class="cls-14" d="M1699.24,1669.42s32.38-42.78,78.43-27.12,107.43,1.41,107.27,22.85Z"/><path class="cls-16" d="M2110.84,1237.55s3.35,5.91,1.17,12.28c-5.42,15.87-5.29,22,4.17,29.08,0,0,13.08,6.51,11.37-.8a26.59,26.59,0,0,1,.86-13.15c4-11.52,4.14-17.15-1.95-25.29l-2.65-4.11Z"/><path class="cls-16" d="M2115.14,1249.13s-2.88.5-3.75,2.56c-2.81,6.62-9.3,12.35-8.34,13.4,2,2.18,6.49-2.08,9.2-6.26A21.58,21.58,0,0,0,2115.14,1249.13Z"/><path class="cls-17" d="M1966.6,1064.78c-1.89-24.08,24.27-40.59,44.93-28.07.43.26.85.52,1.26.79,30.93,19.9,97.66,112.79,102.25,122.09s18.14,83.33,18.14,83.33-16.75,6.13-24.58-.23c0,0-27.17-70.2-31.18-73.71s-108.66-62.22-109.55-84.24C1967.63,1078.92,1967.16,1071.93,1966.6,1064.78Z"/><path class="cls-15" d="M2153.34,1608.45s12.47,11.38,10,19.47-13.68,13.47-15.2,23.36-7.61,15.27-13.08,15.27H2109s-4-7,5.7-9,13.41-13.71,12.8-24.49.91-25.16.91-25.16l20.68-4.79Z"/><path class="cls-15" d="M2000.36,1637.88s2.24,25.9-3.23,28.6l-70.06-.15s0-8.08,11.25-9.88,31-8.38,34.37-23.06S2000.36,1637.88,2000.36,1637.88Z"/><path class="cls-6" d="M1941.22,1272.06s3.69,45.4,8,100c5.91,74.12,13,165.17,13.71,182.42,1.21,30,6.08,77.86,6.08,77.86s11.55,11.38,34.67,6.59c0,0,20.6-68.4,26.49-140.76l.27-3.58c5.48-73.66,14-228.78,14-228.78Z"/><path class="cls-18" d="M1941.22,1272.06s3.69,45.4,8,100l81,126.11.27-3.58c5.48-73.66,14-228.78,14-228.78Z"/><path class="cls-6" d="M1958.09,1277.46s66.6,164.4,110.4,241.66,57.48,98.82,57.48,98.82,25.09-9.88,27.37-16.62c0,0-16.75-149.16-46.08-185.52-16.57-20.54-30.63-79.39-32.94-100.84-2.69-25-9.94-67.15-9.94-67.15Z"/><path class="cls-16" d="M2015.52,1030.84s-44.63,22.64-70.76,15.08a58.32,58.32,0,0,1,11.21-10.49,12,12,0,0,0,4.68-11.7q-.53-3.09-.85-5.76a124.84,124.84,0,0,1-1.38-13.84l17.11-14,16.23-13.41C1991.19,1013.51,2015.52,1030.84,2015.52,1030.84Z"/><path class="cls-19" d="M2059.84,1260.82c-18,10.9-35.07,19.1-55,23.71-23.55,5.58-52.49,3.93-62.17,5.41a4,4,0,0,1-2.82-.72c-.76-.39-5-29.11-9.31-65.36-.19-1.45-.39-2.93-.47-4.4l-.07-.49c-1.66-14.17-3.12-29.06-4.39-44-1-11.61-1.88-23.09-2.47-33.88-.74-13.49-1-25.89-.74-36.09.14-4.66.41-8.85.83-12.48,2.55-21.18,12.65-36.31,22.16-47.57l9.36-8.91c9.15.58,17-1.22,25.83-7,9.63-6.34,20-13.16,22-12,14.76,8.08,26.79,29,35.38,56.67a316.27,316.27,0,0,1,11.12,53.11c.78,5.93,1.44,12,1.94,18.09.1,1.12.19,2.24.28,3.34,1.15,16.58,3,32.12,5.14,46,2.83,18.71,6,34.39,8.31,45.43,1.14,5.62,2,10,2.53,13.07C2067.71,1255.42,2062.27,1259.31,2059.84,1260.82Z"/><path class="cls-8" d="M2060,1260.87c-18,10.91-35.07,19.1-55,23.71-23.55,5.58-52.49,3.94-62.17,5.41a4,4,0,0,1-2.82-.71c-.76-.39-5-29.11-9.31-65.36-.19-1.46-.39-2.94-.47-4.41l-.07-.49c-1.66-14.17-3.12-29.06-4.39-44-1-11.61-1.88-23.09-2.47-33.88-.74-13.49-1-25.89-.74-36.08.14-4.66.41-8.85.82-12.49,2.56-21.18,11.82-37.6,21.94-48.33,2.21-2.35,9.59-8.15,9.59-8.15,9.15.58,17-1.22,25.83-7,9.63-6.34,20-13.16,22-12,14.76,8.08,26.79,29,35.38,56.67a316.27,316.27,0,0,1,11.12,53.11c.78,5.94,1.44,12,1.94,18.09.1,1.12.18,2.24.27,3.35,1.16,16.57,3,32.11,5.15,46,2.83,18.72,6,34.39,8.31,45.43,1.14,5.62,2,10,2.52,13.08C2067.87,1255.47,2062.43,1259.36,2060,1260.87Z"/><path class="cls-20" d="M1992.34,990.76s-11,21-32.54,27.21a124.84,124.84,0,0,1-1.38-13.84l17.11-14Z"/><path class="cls-16" d="M1950.48,1003.68s43.12,6.18,46.64-20.32,11.44-43.56-15.95-48.62-34.08,4.36-37.44,12.93S1939.36,1001.39,1950.48,1003.68Z"/><path class="cls-10" d="M2011.7,931c.39-.46,1.28-.84,3.28-1a8.11,8.11,0,0,0-3.76-1c-.48-2.77-2.06-7.67-6.87-8.78a6,6,0,0,1,3,4.28c-5.66-5.59-17.64-9.5-50.53-6.25-43.34,4.29-28.48,31.8-22.8,35s19.66-6.16,30.14-5.54,12.78,15.71,16.38,17.72,2.12-1.64,6.88-3.9,5.38,5.68,4.1,10.89,5.45,11.9,5.45,11.9l6.53-7.32c6.53-7.32,12.22-37.88,9.06-44.31Z"/><path class="cls-17" d="M1998,1107.38s-36.36,27.67-74.9,33.73c-.74-13.49-1-25.89-.74-36.09Z"/><path class="cls-16" d="M1774.73,1071.69c-.57-.62-7.07-21-20-22.16-10.32-1-33.13,4-26.42,7.63,2.24,1.22,14.74,8.91,21.16,20,3.19,5.51,12.93,7.21,12.93,7.21Z"/><path class="cls-8" d="M2002.57,1054c20.74,12.4,19.06,43.3-3.12,52.9l-1.37.57c-34.15,13.69-133,19.2-158.8,12.69-10.06-2.54-78.47-33.46-78.47-33.46s4.7-17.21,14.42-19.92c0,0,62.28,8.46,74.41,10,62.68,8.14,117.45-45.36,135.92-33.34C1990.44,1046.6,1996.42,1050.27,2002.57,1054Z"/><path class="cls-21" d="M769.11,438.44a5.09,5.09,0,1,1-7-1.52A5.09,5.09,0,0,1,769.11,438.44Z"/><path class="cls-21" d="M763.64,693.85a7.46,7.46,0,1,1-10.31-2.23A7.46,7.46,0,0,1,763.64,693.85Z"/><path class="cls-2" d="M575,724.78a10.37,10.37,0,1,1-14.33-3.11A10.37,10.37,0,0,1,575,724.78Z"/><path class="cls-21" d="M659.88,554.13a7.58,7.58,0,1,1-10.48-2.27A7.58,7.58,0,0,1,659.88,554.13Z"/><path class="cls-21" d="M432.1,752.42a3.52,3.52,0,1,1-4.87-1.06A3.53,3.53,0,0,1,432.1,752.42Z"/><path class="cls-21" d="M269.81,1221.86a7.18,7.18,0,1,1-4.25-9.22A7.18,7.18,0,0,1,269.81,1221.86Z"/><path class="cls-21" d="M305.48,926.57a4.63,4.63,0,1,1-2.07-6.22A4.64,4.64,0,0,1,305.48,926.57Z"/><path class="cls-2" d="M366.43,1045.68a6.78,6.78,0,1,1-3-9.11A6.78,6.78,0,0,1,366.43,1045.68Z"/><path class="cls-21" d="M429.29,850.05a6.9,6.9,0,1,1-3.08-9.26A6.91,6.91,0,0,1,429.29,850.05Z"/><path class="cls-21" d="M716.67,1153.84a3.52,3.52,0,1,1-2.08-4.52A3.52,3.52,0,0,1,716.67,1153.84Z"/><path class="cls-5" d="M887.56,1669c-403.33-.48-720.68-1.34-721.16-2.84l-.21-.51a2.67,2.67,0,0,1-.22-.73c-.27-.61-32.57-53.6-62-138,58.62-10.26,200.92-23.69,347.61,48.66C641.24,1669.11,800.76,1524.66,887.56,1669Z"/><path class="cls-5" d="M248.26,1552s45-168.78,114.16-176.21S275,1495,248.26,1552Z"/><path class="cls-5" d="M267.64,1548.26s70.88-105.47,117.42-94.45S299,1515.34,267.64,1548.26Z"/><path class="cls-5" d="M798,1635s51.3-80.18,88.32-72.59S821.29,1609.82,798,1635Z"/><path class="cls-5" d="M810.93,1636.53s61.78-47.5,88.19-31.37S835.85,1623.62,810.93,1636.53Z"/><path class="cls-5" d="M781.35,1635.26s17.22-76,47.84-80.45S792.28,1609.41,781.35,1635.26Z"/><circle class="cls-2" cx="2012.82" cy="394.79" r="54" transform="translate(1300.71 2318.39) rotate(-80.78)"/><path class="cls-5" d="M1304.78,1667.64h-70.4c-3.77-3.2,2.61-10.47,9.28-11,2.9-.22,6.56.38,10.75,1.27,1-12.87,6.5-70.71,27.35-68.38,23.44,2.6,0,25.47-6.63,39-4.91,10-10.09,24.41-12.45,31.19,1.9.42,3.87.82,5.88,1.19,3.11-9.54,14.67-41.63,29.37-39.76,17.26,2.19,10.33,15.06-1.91,22.69-9,5.62-20,13.6-25.24,17.46a75.15,75.15,0,0,0,13.77,1.1C1296.61,1662.18,1302.5,1665.73,1304.78,1667.64Z"/><rect class="cls-10" y="1665.76" width="2675.14" height="7.71" rx="3.16"/><path class="cls-3" d="M1894.35,297.63s-38.25-18.37-87.66-8.28c0,0,56.52-3.86,90,32,0,0,23.43-35.94,62.17-44.18C1958.9,277.18,1930,273.74,1894.35,297.63Z"/><path class="cls-3" d="M1786.57,280.32s-29.49-14.38-67.75-6.8c0,0,43.73-2.73,69.48,25.17,0,0,18.29-27.69,48.29-33.89C1836.59,264.8,1814.28,262,1786.57,280.32Z"/><path class="cls-3" d="M1691.43,267.21s-27.38-11.95-61.89-3.58c0,0,39.67-4.17,64.17,20.21,0,0,15.57-25.89,42.62-32.68C1736.33,251.16,1715.93,249.48,1691.43,267.21Z"/><path class="cls-3" d="M1638.1,239.69a71.58,71.58,0,0,0-42,1.5s26.49-5.32,44.55,9.58c0,0,8.86-18.44,26.67-24.73C1667.36,226,1653.5,226.19,1638.1,239.69Z"/><path class="cls-3" d="M1829,172a71.46,71.46,0,0,0-42-.7s26.73-3.93,44,11.89c0,0,9.81-17.95,27.93-23.3C1859,159.93,1845.11,159.36,1829,172Z"/><path class="cls-3" d="M1922,237.21s-26.32-13.28-60.78-6.92c0,0,39.31-1.93,62.11,23.43,0,0,16.76-24.65,43.78-29.86C1967.11,223.86,1947.1,221.09,1922,237.21Z"/><path class="cls-3" d="M1885.31,196s-24.78-11.34-56.39-4.27c0,0,36.25-3.15,58.2,19.48,0,0,14.62-23.36,39.4-29.11C1926.52,182.12,1907.94,180.25,1885.31,196Z"/><path class="cls-5" d="M1745.49,712.35a4.89,4.89,0,0,1-3.52-2.43c-22.88-40.3-66.2-94.86-142.65-125.91a4.92,4.92,0,0,1,3.71-9.12c79,32.12,123.84,88.52,147.49,130.18a4.91,4.91,0,0,1-5,7.28Z"/><polygon class="cls-5" points="1763.35 743.96 1759.63 682.77 1744.58 704.96 1717.85 702.88 1763.35 743.96"/><path class="cls-6" d="M1075.38,1128.67a4.93,4.93,0,0,1,3.53,2.44c22.88,40.3,66.2,94.86,142.64,125.91a4.92,4.92,0,0,1-3.7,9.12C1138.79,1234,1094,1177.62,1070.35,1136a4.92,4.92,0,0,1,5-7.29Z"/><polygon class="cls-6" points="1057.53 1097.07 1061.25 1158.26 1076.3 1136.07 1103.03 1138.15 1057.53 1097.07"/></g></g></svg>