<svg xmlns="http://www.w3.org/2000/svg" viewBox="0 0 2831.97 1355.86"><defs><style>.cls-1{fill:#fcecdb;}.cls-2{fill:#fff4eb;}.cls-3{fill:#fae7d4;}.cls-4{fill:#f7dfc8;}.cls-5{fill:#efcbab;}.cls-6{fill:#f6dbc3;}.cls-7{fill:#599dad;}.cls-8{fill:#6bb7bf;}.cls-9{fill:#86d1cd;}.cls-10{fill:#e0b594;}.cls-11{fill:#ffebdc;}.cls-12{fill:#2e3552;}.cls-13{fill:#2c3a64;}.cls-14{fill:#ed985f;}.cls-15{fill:#233862;}.cls-16{fill:#163560;}.cls-17{fill:#b5453c;}.cls-18{fill:#f4a269;}.cls-19{fill:#ffb27d;}.cls-20{fill:#1c468a;}.cls-21{fill:#2b478b;}.cls-22{fill:#f99746;}.cls-23{fill:#ed7d2b;}.cls-24{fill:#c6601a;}.cls-25{fill:#f1a34f;}.cls-26{fill:#d3671e;}.cls-27{fill:#b25618;}.cls-28{fill:#d86713;opacity:0.4;}</style></defs><g id="Capa_2" data-name="Capa 2"><g id="_Layer_" data-name="&lt;Layer&gt;"><path class="cls-1" d="M2632.93,1291.12a283.47,283.47,0,0,1-20.47,45q-3.49,6.21-7.35,12.24H125.39s-225.85-517.19,81.83-767.58q5.78-4.69,11.58-9.2,5.35-4.14,10.75-8.13t10.55-7.63c92.74-65.5,194.29-97.89,300.8-118,3.75-.71,7.51-1.39,11.28-2.07q5.37-1,10.74-1.9c86.36-14.89,175.77-22.73,266.24-34.37,31.49-4.06,63.11-8.58,94.77-14,126.69-21.74,254.08-58.24,376.73-138.87C1452,147.12,1608,121.93,1740.56,141.68q13.55,2,26.74,4.63,19.41,3.87,38,9c159.22,43.7,271.94,153.45,278.41,266.94,4.36,76.5,13.43,150,33.52,213.77,9.3,29.53,21,57,35.64,81.67q6,10.1,12.65,19.54c43.86,62.11,110.5,103,212.05,109.84,70.6,4.74,130.06,36.36,175.33,83.17l1.26,1.31C2641.63,1023.05,2675.38,1171.52,2632.93,1291.12Z"/><path class="cls-2" d="M2632.93,1291.12a283.47,283.47,0,0,1-20.47,45H1767.3V146.31q19.41,3.87,38,9c159.22,43.7,271.94,153.45,278.41,266.94,4.36,76.5,13.43,150,33.52,213.77,9.3,29.53,21,57,35.64,81.67q6,10.1,12.65,19.54c43.86,62.11,110.5,103,212.05,109.84,70.6,4.74,130.06,36.36,175.33,83.17l1.26,1.31C2641.63,1023.05,2675.38,1171.52,2632.93,1291.12Z"/><path class="cls-3" d="M1386.64,1021.45c-4.34-2.79-14.39-15.09-21.37-24.06,1-.61,1.56-1,1.56-1-20.31-55.81-37-101.51-50.86-138.94,1.64-2.81,3.2-7.1,4.44-13.53,5-25.73-20.09-35.5-20.09-35.5s-.27-.12-.4-.19c14.95-112.48-21-120.12-21-120.12a78,78,0,0,0-28.56-2.15c-5.3-11.42-15.93-18.45-33.45-19.33a45.26,45.26,0,0,0-17.16,2.94c.82-1.28,1.62-2.57,2.42-3.87,3.67-2.26,34.4-22.05,31.74-45.81a29,29,0,0,0-3.11-10.94,40.14,40.14,0,0,0-1.59-5.42c2.73-12,2.89-21.67-.22-27.22-5.66-10.13-16.26-17.21-24.23-21.4,3.35-.65,7.72,1,7.72,1-4.28-3.48-18.06-5.63-18.06-5.63-49.1-62.45-124.81,18.43-138.6,39.51-7.23,11-15.42,22.71-28.3,31.1-6.89-3.56-12.1-6.73-14.56-9.16-18.32-18.17-40.33-79.16-61-119.42a.16.16,0,0,1,0-.06h.2c-2.53-6.81-19.48-33.25-19.48-33.25h0c-.08-.06-10.79-8.84-40.54-19.28,0,0-2.38-.9-6.35-2.34-1.85-3,.36-13.57,3.44-24.53.86-3,1.78-6.1,2.69-9,.76-2.43,1.52-4.76,2.24-6.93,6.29,1.92,10.58,2.8,10.58,2.8,6,.9,12.81-5.17,19.26-14.27-31.66,5.44-63.28,10-94.77,14-6.2,9.89-12.4,16-16.8,18.08-4.26-.47-9.43-.93-14.37-1.17,0,0-31.85-3.86-50.76,2.32-.49.11-.89.24-1.29.35,0,0-10.58,2.63-17.84,17-3.74,7.35-6.62,17.77-6.75,32.51l.06-.06v.11a58.58,58.58,0,0,0,.17,7.65c.33,7.62,2,16.87,4.49,27,.08,18.53.47,43.81-2.68,70.46A51.68,51.68,0,0,1,714.48,597a56.78,56.78,0,0,1-6.6,7.93c-19.67,19.72-54.55,59-46.89,83.51,0,1.92,1.62,3.88,4.42,5.87-10.52,16.38-22.26,44.69-19.29,87.29,2.52,36.15,7.12,189.78,11.92,235.24,1.74,16.47,3.26,28.2,3.89,32.88a.13.13,0,0,1,0,0,6,6,0,0,1-1.18,4A204.91,204.91,0,0,0,643,1087.19c-30.31,72.21-18.67,155.16-6.47,205.26l-.5-.45c2.1,13.42-6.67,18.46-12.26,29.56-5.84,11.55-3.16,26.79-3.16,26.79H732.45c-2.26-18.93-34.85-17.25-42.16-21.94-6.61-4.26-17.42-19.61-19.39-22.49l-.43,0c10.26-47.94,31.73-143.46,50.12-193.14,4.27-11.55,8.37-20.61,12.13-26,10.94-15.8,21.1-41.6,30.33-72.3,1.32-4.41,2.62-8.94,3.91-13.54,1.24,6.36,2.38,12.19,3.4,17.38,1.07,5.49,2,10.26,2.77,14.24,1.65,8.5,2.6,13.32,2.6,13.32-4.59,16.79-5.3,35-3.18,53.78,8.64,76.57,62.08,160.74,90.53,200.88,2.74,4.53,4.73,8.26,4.73,12.39,0,3.13-1.13,6.5-3.93,10.63-7.33,10.84-3.16,26.79-3.16,26.79H972.55c-2.25-18.93-34.83-17.25-42.14-21.94-6.44-4.14-27-25-31.87-29.93l-.14.08c-9.77-39.64-31.75-134.66-35.5-201.18-1.07-18.81-.69-35.19,1.84-47.21,3.47-16.4,6.26-32.36,8.48-47.82a681.42,681.42,0,0,0,4.58-155.79c-1.22-13.95-2.83-26.82-4.6-38.49-4.26-39.33-8.74-64.94-12.41-81.29,9.33-1.43,14.61-4.09,13.83-8.27,0,0,2.35-10.07,6.11-25.48q5.7,1.4,11.41,2.71c-3.84,21.29-.26,44,7.08,60.47.26.59,45.26,71.82,45.26,71.82a36,36,0,0,1,4.14-5.22c-3.08,29.73-4.55,54.09-9.65,60.92-13,17.43-84.87,140,25.65,157.66,13.86,2.69,31,4.18,51.73,4,3.71,0,7.28-.18,10.71-.41,6.38.33,13.18.48,20.42.41,56.36-.49,90.87-23.62,106.33-44.42,4.1-5.54,19.24-30.81,37.77-64.65-.55,34-.78,58.62-.78,58.62-.58,4.78,1.35,8.34,4.8,11-2.11,4.33-4.74,8.55-6.82,12.65-5.84,11.55-3.16,26.79-3.16,26.79h111.83c-2.25-18.92-35.27-16.75-42.14-21.94a36,36,0,0,1-9.8-10.75c1.85-.14,2.92-.26,2.92-.26q11.82-35.3,20.64-65.57c22.59,34,41.29,59,41.29,59,2.29,5,6.4,7.4,11.37,8.11a17.79,17.79,0,0,1-1.61,4.57c-5.84,11.55-3.16,26.79-3.16,26.79l111.83,7.84C1426.53,1032.31,1394,1026.14,1386.64,1021.45ZM910.12,656c-6.11-3.25-12.19-6.56-18-9.85C898,623.56,904.64,599.23,911,579a353.06,353.06,0,0,0,45.56,54.59C935.61,636.42,920.53,644.69,910.12,656Z"/><path class="cls-4" d="M2632.93,1291.12a281.32,281.32,0,0,1-27.82,57.23H1805.3v.09h-55.81V626.23h95.6V427.86h95.6v268h77.39V636h99.15c9.3,29.53,21,57,35.64,81.67v19.54h12.65c43.86,62.11,110.5,103,212.05,109.84,70.6,4.74,130.06,36.36,175.33,83.17l1.26,1.31C2641.63,1023.05,2675.38,1171.52,2632.93,1291.12Z"/><path class="cls-5" d="M1805.3,155.29V1348.44h-64.74V141.68A547.11,547.11,0,0,1,1805.3,155.29Z"/><path class="cls-5" d="M1749.49,1348.44h55.81v-.09h799.81a281.32,281.32,0,0,0,27.82-57.23H1726.51v57.23Z"/><path class="cls-6" d="M686.4,852.32c-12.87-49.77-93.06-34.22-93.06-34.22s-54.45,87.1-70.29,89.17,32.67-84,32.67-84c-30.69-3.11-108.9,36.3-108.9,36.3s4.95,101.62-10.89,99.54,0-90.21,0-90.21c-29.7,9.33-57.42,45.62-57.42,45.62-34.65,59.11,39.6,102.66,39.6,102.66s1,35.25-19.8,75.7c0,0-26.13,41.57-17.75,95.34h-23c4.41-38.7-14-68-14-68-15.78-30.68-15-57.43-15-57.43s56.32-33,30-77.87c0,0-21-27.53-43.56-34.61,0,0,12,66.86,0,68.43s-8.26-75.51-8.26-75.51-59.34-29.9-82.62-27.54c0,0,36.8,65.29,24.79,63.72s-53.33-67.65-53.33-67.65-60.83-11.8-70.6,26,6,56.64,15,59,66.85,1.57,65.35,9.44-40.56,20.45-62.34,13.37c0,0,24,62.14,55.58,59s41.3-23.6,60.83-25.17,33.8,3.93,24,9.43-42.81,1.81-58.58,15.85-28.54,22.7.75,29,81.87,2.36,92.38-21.24c.46-1,.9-2,1.32-2.95a12.78,12.78,0,0,1-1.32,2.95c5.41,3.3,13.51,19.05,19.13,31.13.8,2,2.07,4.9,3.95,8.76h0c.77,1.75,1.38,3.18,1.8,4.17,6.49,17,6.74,41.76,6,57.82H265.38v4.67h4.86c1.78,62,38.88,114.6,90.92,136.63H286.1c-9.91,0-18,8.41-18,18.79H563.06c0-10.38-8-18.79-17.94-18.79H470.05c52.05-22,89.15-74.67,90.93-136.63h3.38v-4.67h-155c3.52-8.1,7.82-16,12.84-21.89.61-.67,1.5-1.62,2.59-2.77,2.55-2.47,4.34-4.34,5.54-5.72,7.8-7.85,18.58-17.84,23.77-18.81a11,11,0,0,1-.22-2.74c.07.88.14,1.78.22,2.74,1.78,21.87,42.28,41,67.2,44.89s17.22-6.8,8.63-22.7-35.76-23-41.95-30.36,6.61-7.34,21.63-.16,17.07,26.33,41.15,38.42,60.33-29.78,60.33-29.78c-19.2-1-46.61-22.86-45.62-29.54s46.53,11.53,54.32,12.4,25.5-9.27,28.24-42.11-48.67-42-48.67-42-11.85,9.23-25.24,18.52c-2.64-3.58-6.93-7.55-11.94-12,4.42-4.09,8.39-7.62,10.86-9.79a92.74,92.74,0,0,0,16.36,3.1c41.58,4.15,73.26-77.77,73.26-77.77-28.71,9.33-80.19-7.26-82.17-17.63s74.25-9.33,86.13-12.44S699.27,902.09,686.4,852.32ZM475.21,1086.43c-2.36-1.28-2.21-5.57-.69-11.21,3.28.78,6.66,1.45,10.09,2C481.14,1083.76,477.8,1087.82,475.21,1086.43ZM424.5,1158s-13.64,10.58-23.15,30.19h-9.83c-1.22-20.6-1.7-57.34,7.65-81.85.56-1.32,1.37-3.2,2.37-5.5h0c2.49-5.1,4.16-8.85,5.21-11.55,7.42-15.93,18.1-36.68,25.22-41a16.48,16.48,0,0,1-1.73-3.89c.55,1.24,1.12,2.53,1.73,3.89A32.85,32.85,0,0,0,439.8,1059c-13.53,26.4,12.5,58.22,12.5,58.22S445.48,1138.56,424.5,1158Zm109.35-130.56c-21.29-6.15-47-5-56.34-10.29-12.87-7.26,5.94-14.52,31.68-12.44,17.32,1.39,28.82,14,47.14,23.44A219.1,219.1,0,0,0,533.85,1027.48Z"/><path class="cls-7" d="M560.37,1092.12s-41.11-48-2.53-78.42c0,0,28.17-17.06,51.15-15.68,0,0-32.56,54.59-22,60s31.89-63.44,31.89-63.44,64.12-6.22,84.75,3.7c0,0-54.82,44.85-43.27,47.52s70.75-41.35,70.75-41.35,59.67,10.15,56.49,46.56-23.74,47.64-32.78,46.67-61.91-21.15-63.06-13.74,30.67,31.6,53,32.74c0,0-42.08,46.39-70,33s-30.35-34.61-47.78-42.57-32.3-8-25.11.17,38.74,16,48.71,33.65,18.91,29.52-10,25.17-76-25.52-78-49.76Z"/><path class="cls-7" d="M758.25,1052s-162.08-6.25-197.88,40.11c0,0-7.91,23.7-32.27,45.29l-3.8,10.35s28.08-29.61,38.14-31.4C562.44,1116.36,546.72,1058.93,758.25,1052Z"/><path class="cls-7" d="M528.1,1137.41s-34.79,25.73-37.21,71.7l6.31.57s11.11-47.54,31.2-66.12S528.1,1137.41,528.1,1137.41Z"/><path class="cls-8" d="M416.64,1031.8s65.4-36.62,34.88-86.31c0,0-24.41-30.52-50.57-38.37,0,0,13.95,74.11,0,75.86s-9.59-83.7-9.59-83.7-68.88-33.14-95.91-30.52c0,0,42.72,72.37,28.77,70.62s-61.9-75-61.9-75-70.63-13.08-82,28.77,7,62.78,17.44,65.4,77.6,1.74,75.85,10.46-47.08,22.67-72.36,14.82c0,0,27.9,68.88,64.52,65.39s47.95-26.16,70.62-27.9,39.24,4.36,27.9,10.46-49.7,2-68,17.57-33.13,25.16.87,32.13,95,2.62,107.25-23.54Z"/><path class="cls-8" d="M212.62,906.25s183.1,59.29,204,125.55c0,0-.87,29.65,17.44,63.65v13.08s-19.18-44.47-29.64-50.57C404.44,1058,445.42,1000.42,212.62,906.25Z"/><path class="cls-8" d="M434.08,1095.45s28.24,42.88,12.14,95.08l-7.26-2s7.05-57.48-7.73-86.4S434.08,1095.45,434.08,1095.45Z"/><path class="cls-9" d="M520.68,981.3s-86.2-48.27-46-113.78c0,0,32.19-40.23,66.66-50.57,0,0-18.38,97.69,0,100S554,806.6,554,806.6s90.79-43.67,126.42-40.22c0,0-56.31,95.39-37.93,93.09s81.61-98.84,81.61-98.84,93.09-17.24,108,37.93-9.19,82.75-23,86.2-102.29,2.3-100,13.79,62.06,29.88,95.39,19.54c0,0-36.78,90.79-85,86.2s-63.21-34.48-93.1-36.78-51.72,5.75-36.77,13.79,65.51,2.64,89.64,23.16,43.68,33.16-1.15,42.35-125.27,3.45-141.36-31Z"/><path class="cls-8" d="M789.62,815.8S548.26,894,520.68,981.3c0,0,1.15,39.08-23,83.9v17.24s25.29-58.62,39.08-66.66C536.77,1015.78,482.75,939.92,789.62,815.8Z"/><path class="cls-8" d="M497.69,1065.2s-37.22,56.52-16,125.33l9.58-2.58s-9.3-75.78,10.17-113.89S497.69,1065.2,497.69,1065.2Z"/><path class="cls-10" d="M517.77,1339.73a168.85,168.85,0,0,0,168.85-168.85H348.92A168.85,168.85,0,0,0,517.77,1339.73Z"/><path class="cls-11" d="M559.32,1338.44A169,169,0,0,1,369.5,1170.88h41.95A168.88,168.88,0,0,0,559.32,1338.44Z"/><path class="cls-10" d="M689,1348.32H346.59a20.84,20.84,0,0,1,20.83-20.83h300.7A20.83,20.83,0,0,1,689,1348.32Z"/><rect class="cls-10" x="343.37" y="1170.88" width="347.09" height="5.18"/><rect class="cls-12" y="1348.35" width="2831.97" height="7.51" rx="3.21"/><path class="cls-13" d="M1171.91,39.54c-.11-3.2-2.59-37.74-55.19-39.54,0,0,25.86,3.08,30.33,14.46,0,0-17.61-14.06-32-9.54s-22.77,29.65-22.86,37.92,7.89,34.91,17,37.17a27.85,27.85,0,0,0,11,0,122.19,122.19,0,0,0-7.07,12.61c-21,43.08.66,85.19,18.43,80.54,11.39-3,14.62,16.46,14.62,16.46L1257,100S1216.29,15.86,1171.91,39.54Z"/><path class="cls-14" d="M1481.14,537.33c-5.34-5.34-37.56-4.09-37.56-4.09s-17.79-7.12-39.68-16.73c-30.44-13.53-68.7-31.68-77.07-40.94-19.4-21.53-42.71-93.79-64.6-141.48q-2.94-6.68-5.87-12.82a4.42,4.42,0,0,0-.72-1.24c-1.06-2-2-3.74-2.84-5.34,0-.18-.18-.36-.36-.54-4.09-7.83-8.36-14-12.28-18.15v-.18c-4.8-5.16-9.43-7.29-13.7-5.51,0,0-8.37,4.27-16.91,14.41a13.14,13.14,0,0,0-2.49,3,74.26,74.26,0,0,0-13.17,26.34,91.89,91.89,0,0,0-3,29.18c.71,18.34,9.79,41.29,22.78,64.43a29.15,29.15,0,0,0,1.78,3.2c24.92,43.61,63.18,87.21,86.5,101.45,15.3,9.43,53.74,15.13,86.14,18.33,21.53,2.31,40.57,3.38,48.4,3.92,3.39,3.73,28,31.85,37.2,23.67C1483.8,569.55,1486.47,542.67,1481.14,537.33Z"/><path class="cls-15" d="M1767.3,996.29,1648.85,987s-2.84-18,3.35-31.75c5.93-13.14-2.23-22.65-10.34-38.3,7.52,7.75,33.45,6.61,50.57,4.3,2.1,3.41,23.22,34.72,30.23,39.75C1730.4,966.56,1764.92,973.87,1767.3,996.29Z"/><path class="cls-15" d="M1628.19,987H1509.74s-2.84-18,3.35-31.75c5.93-13.14,16.26-27.25,8.14-42.9,7.53,7.75,31.3,6.9,48.43,4.6,2.09,3.4-7.93,25.63,13.89,44C1590.83,967.15,1625.81,964.58,1628.19,987Z"/><path class="cls-16" d="M1608.53,566.06S1569.19,550.3,1515.4,605c-103.3,83.67-236,296.52-248.41,311.46-25,29.92-5.68,71.56,96.44,70.57,59.7-.58,96.24-28,112.61-52.64,4.36-6.56,20.38-36.5,40-76.6-.59,40.27-.83,69.46-.83,69.46-3.07,28.54,61,20.74,61,20.74C1685,584.23,1608.53,566.06,1608.53,566.06Z"/><path class="cls-17" d="M1555.66,433.59c-6-12-17.22-20.4-25.67-25.37,3.54-.76,8.18,1.22,8.18,1.22-4.54-4.13-19.13-6.67-19.13-6.67-52-74-132.2,21.84-146.8,46.81s-32.93,52.68-82.34,50.74c-97.22-3.83-103.41,93.95-83.52,144,.28.71,47.94,85.11,47.94,85.11,11.22-20.57,112.14-107.84,179.32-107.21,22.56-9.1,46.39-35.93,48.25-38.06-17.65,22.11-30.46,32.56-39,37.56C1506.76,611.85,1571.57,465.41,1555.66,433.59Z"/><path class="cls-18" d="M1437.65,622.23c.19.25-8.78,33.4-35.71,18.86-17.68-9.55-46-50.28-35.11-64.08,5.19-6.56,28.08-19,51.92-61.23l2.86,2.47,48.11,41.61s-11,16.37-20.14,32.42C1441.86,605.76,1435.38,619,1437.65,622.23Z"/><path class="cls-17" d="M1419.85,507.82s.89-34.2,11-57.18c7.22-16.41,51.11-65.75,100.48-21.33a89.4,89.4,0,0,1,23,32.26c6.49,15.95,12,44.71-38.9,79.31l-15.71,12.69Z"/><path class="cls-8" d="M1355.18,558.93s17.67,3.37,25.15-6.64,23.74-31.2,27.54-19,39.68,47.5,48,48.43,14.12,3.25,9.42,7.55-2.73,21.52-7.43,23.09S1366,558,1355.18,558.93Z"/><path class="cls-19" d="M1466.31,583.1s-69.39-44.86-40.79-87.64,38.91-77.38,84.42-50.55,43.12,48.85,37,65.45S1485.09,593.66,1466.31,583.1Z"/><path class="cls-8" d="M1469.72,617.8s-117.5-86.59-158.62-54c-60.65,48.11-48.52,210.5-62.61,231.63S1155,968.1,1284.13,983.52s158.84-66,164.71-127S1469.72,617.8,1469.72,617.8Z"/><path class="cls-7" d="M1315.12,616.71s-33.84,187,33.21,238.14S1449.13,610.92,1315.12,616.71Z"/><path class="cls-7" d="M1382.6,586.82s1.29-21.85,20.57-13.5,54.95,20.89,68.77,15.75-22.22,63.95-55.14,40.81S1382.6,586.82,1382.6,586.82Z"/><path class="cls-17" d="M1541.9,464.81s-52.4,37.56-86.21,25.65-41.13-28-41.13-28,33.89-2.75,59-30.34C1473.6,432.1,1543.72,431.44,1541.9,464.81Z"/><path class="cls-19" d="M1631.23,708.62s26.57,11.57,21.29,42.06S1636.67,771,1636.67,771Z"/><path class="cls-17" d="M1534.51,465.76s6.53,20.6,2.66,33.78-17.36,36.62-10.31,40.23c0,0,37-24.6,34-54.54C1557.71,453.47,1534.51,465.76,1534.51,465.76Z"/><path class="cls-20" d="M1234,916.43c15.69-18.79,222.74-380.69,308.86-375.82,129.62,7.32-96.91,368.65-112.8,392.58-16.37,24.65-39.92,53.23-99.62,53.81C1228.33,988,1209,946.35,1234,916.43Z"/><path class="cls-20" d="M1579.27,566.06s5.15,4.8,122.4,365.28c0,0-48.92,35.45-59.81,8.89,0,0-158-237.14-120.79-278.89S1579.27,566.06,1579.27,566.06Z"/><path class="cls-14" d="M1305.4,577.05s-31,47.81,65.3,91.67,107.58,54.57,126.35,58.49c29.24,6.1,141.57,5.24,141.57,5.24s3-17.82-7.39-23.83c-16.57-9.64-112.25-25.28-125.15-30.44S1355.71,525.25,1305.4,577.05Z"/><path class="cls-21" d="M1210.46,1308.86l-23.52,8.76S1084.8,1176,1072.22,1051.3c-2.24-22.25-1.5-43.81,3.36-63.72,0,0-1-5.71-2.74-15.79-.81-4.7-1.81-10.36-2.94-16.85-3.32-19-7.89-45.07-13.12-74.71-12-68.22-27.59-155.43-39.68-219.54l6.34-2L1092,636.54l14.17-45,51-13.44s11.41,22.31,21.6,127.7c1.88,13.82,3.59,29.06,4.88,45.6A902.78,902.78,0,0,1,1178.84,936q-3.51,27.47-9,56.65c-2.69,14.25-3.09,33.66-2,55.95C1173.06,1150.51,1210.46,1308.86,1210.46,1308.86Z"/><path class="cls-15" d="M1183.7,751.4,1072.84,971.79c-.81-4.7-1.81-10.36-2.94-16.85-3.32-19-7.89-45.07-13.12-74.71-12-68.22-27.59-155.43-39.68-219.54l6.34-2L1092,636.54l14.17-45,51-13.44s11.41,22.31,21.6,127.7C1180.7,719.62,1182.41,734.86,1183.7,751.4Z"/><path class="cls-21" d="M1134.93,606.38l-2.57-22c-43,11.42-157.88-31.91-157.88-31.91s-41.65,36.61-36.18,124.38c2.67,42.84,7.55,224.87,12.64,278.74,1.84,19.52,3.45,33.41,4.11,39a.13.13,0,0,1,0,.05,7.68,7.68,0,0,1-1.25,4.77A253.9,253.9,0,0,0,935,1038.89c-50,133.2,7.69,297.23,7.69,297.23l15-6s32.83-182.54,59.5-263.19c4.53-13.67,8.87-24.42,12.84-30.84,11.6-18.72,22.36-49.3,32.13-85.67,18.46-68.77,33.32-158.23,43.21-227.28C1106.72,723.17,1134.93,606.38,1134.93,606.38Z"/><path class="cls-19" d="M1217.07,339.44c-13.5,6.26-29.8,10.52-49.52,11.6-73.92,4-90.7-60.75-93.75-103.76a62.1,62.1,0,0,1,25.36-3.21c5.24.29,10.71.83,15.23,1.39,9-4.73,25.28-27.67,34.67-66.05l3.19,1.48L1205.59,206s-5.67,17.36-9.85,34c-3.27,13-5.61,25.55-3.65,29.07,4.2,1.7,6.72,2.78,6.72,2.78a.15.15,0,0,0,0,.06A367,367,0,0,1,1217.07,339.44Z"/><path class="cls-14" d="M1205.59,206s-5.67,17.34-9.85,34c-31.18-8.7-40.65-41.47-43.5-59Z"/><path class="cls-19" d="M1212.15,224.33s-74.59-17.26-63.12-63.55,9.56-79.68,57.66-70.62,53,29,52.89,45.39S1231.85,227.63,1212.15,224.33Z"/><path class="cls-8" d="M1332.71,556.55s49.17,2,151.73,96.47c0,0,15.69,19.06,23.5,20.33s29,6.83,29.42,12.21-26,72.87-59.79,74.8-191.86-114.25-180.78-153.29S1332.71,556.55,1332.71,556.55Z"/><path class="cls-13" d="M1263.77,109.28c-8-16.78-17.46-15.89-23.36-12.91-35.05-32.43-69.42-5.94-69.42-5.94-13.23,32-41.91,45-41.91,45s11.46,11.73,44.67,11.47c10.14-.07,20.34-4.73,29.62-11.15a178.66,178.66,0,0,1-38.89,29c41.58-8,69.45-56.09,72.31-61.2,3.52,5.2,10.26,16.27,10.83,25.62.77,12.7-3.6,37.38,3.67,38.31C1251.29,167.52,1275.8,134.43,1263.77,109.28Z"/><path class="cls-22" d="M1262.41,334c-2.68-8.06-20.64-39.39-20.64-39.39h0c-.08-.08-11.43-10.47-42.94-22.84a.15.15,0,0,0,0,.06c.5,1.84,14,50.59,9,61-5,10.57-99.48-23.58-104.64-31.38-4.13-6.26-4.24-39.34-4.13-52.22,0-3.21.06-5.17.06-5.17s-35.27-4.78-55.1,3.25c0,0,7.83,17,10.71,35.77.27,1.78.5,3.57.67,5.35a72.12,72.12,0,0,1,.29,11.26c-.29,4.87-2.8,9.19-6.82,13.42-3.64,3.87-8.6,7.7-14.21,11.79-3.66,2.65-7.6,5.43-11.67,8.44h0c-.34,22.08,1.21,58.41-2.88,97.16a66.61,66.61,0,0,1-16.43,37c-20.84,23.37-57.78,70-49.66,98.94.6,27.34,231.21,63.27,226.28,33.24,0,0,34.65-167,53.37-207.34.68-1.48,1.29-2.92,1.85-4.4,6-15.91,5-32.28,3-46.92C1249.08,333.5,1262.41,334,1262.41,334Z"/><path class="cls-23" d="M1118.24,543.56c-45.48-.48-84-47.72-107.54-85.46a65.59,65.59,0,0,0,9.45-27.58c4.09-38.75,2.54-75.08,2.88-97.16h0c4.07-3,8-5.79,11.67-8.44,5.61-4.09,10.57-7.92,14.21-11.79C1086.16,376.07,1179.91,544.21,1118.24,543.56Z"/><path class="cls-19" d="M1372,579s-29.55-21.18-47.17-17.09c-15.66,3.56-49.12-3.56-55.7-5-7.83-4.27-17.26-9.43-27.23-15.13-24-13.52-51.61-30.08-70.48-43.78-10.85-7.83-19-14.77-21.89-19.76-4.45-7.65-9.43-19.75-15-34.7-2.85-7.83-5.87-16.37-8.9-25.45-5.34-14.95-10.67-31.15-16.19-47.34-10-29.54-20.65-59.27-30.79-82.22-6.59-14.42-13-26.34-19-33.64-4.81-5.87-9.44-8.9-13.89-8.19-.71.18-1.24.36-1.78.54,0,0-25.62,7.12-26,58.73a77.71,77.71,0,0,0,.18,9.07c.35,9.08,2.13,20.12,4.8,32.22,4.28,20.29,11.39,43.78,20.29,67.63,2.49,6.41,5,13,7.66,19.57,19.22,47.7,44,92.2,64.78,107.32a21.34,21.34,0,0,0,2.49,1.78c8.72,5.52,21.53,11,36.3,16.2,21,7.12,45.92,13.52,68.17,18.86h.18c13,2.85,24.91,5.52,34.88,7.48,0,0,2.13.53,5.87,1.24,9.43,2.32,28.83,7.3,47.17,14.42,25.62,10.14,41.64-6.59,53-11.39C1375.24,585.74,1372,579,1372,579Z"/><path class="cls-22" d="M1078.68,288.6c-34.27-9.45-60.7,17.31-60.7,17.31.44-51.53,26.08-58.59,26.08-58.59C1054.38,243.05,1066.34,260.92,1078.68,288.6Z"/><path class="cls-15" d="M1029.74,1348.35H911.29s-2.84-18.06,3.35-31.75c5.93-13.15,15.21-19.12,13-35,7.52,7.75,19.79,16.43,36.92,14.13,2.09,3.4,13.54,21.6,20.55,26.64C992.84,1327.91,1027.35,1325.93,1029.74,1348.35Z"/><path class="cls-15" d="M1284.06,1348.35H1165.61s-4.42-18.9,3.35-31.75c6.88-11.38,4.25-17.86-.85-27.27a45.92,45.92,0,0,0,20,3.76c5.9-.34,12.14-3,17.61-6.2,5.1,5.82,26.93,30.56,33.75,35.46C1247.16,1327.91,1281.68,1325.93,1284.06,1348.35Z"/><rect class="cls-24" x="1135.18" y="998.93" width="433.57" height="349.42"/><rect class="cls-25" x="1393.25" y="998.93" width="392.28" height="349.41"/><path class="cls-26" d="M1465.77,1059.18a7,7,0,1,0,7.19,7A7.07,7.07,0,0,0,1465.77,1059.18Z"/><path class="cls-26" d="M1722.42,1066.14a7.19,7.19,0,1,1,7.19,6.95A7.07,7.07,0,0,1,1722.42,1066.14Z"/><path class="cls-26" d="M1465.77,1279.29a7,7,0,1,0,7.19,7A7.08,7.08,0,0,0,1465.77,1279.29Z"/><path class="cls-26" d="M1722.42,1286.25a7.19,7.19,0,1,1,7.19,7A7.08,7.08,0,0,1,1722.42,1286.25Z"/><path class="cls-27" d="M1176,1066.14c0-3.85,2-7,4.45-7s4.45,3.11,4.45,7-2,6.95-4.45,6.95S1176,1070,1176,1066.14Z"/><path class="cls-27" d="M1339.42,1066.14c0-3.85,2-7,4.46-7s4.45,3.11,4.45,7-2,6.95-4.45,6.95S1339.42,1070,1339.42,1066.14Z"/><path class="cls-27" d="M1176,1286.25c0-3.84,2-7,4.45-7s4.45,3.12,4.45,7-2,7-4.45,7S1176,1290.08,1176,1286.25Z"/><ellipse class="cls-27" cx="1343.88" cy="1286.25" rx="4.45" ry="6.95"/><path class="cls-26" d="M1135.18,999.49s58.92-54.41,97.78-37.82c51.17,21.85,172.15,15.76,202.67,10.12s268.95,11.2,349.9,27.14Z"/><path class="cls-28" d="M1785.53,1256.69v91.65H1393.25V998.93h65.81l1.3.56S1495.57,1236.51,1785.53,1256.69Z"/><path class="cls-16" d="M1881.05,1042.43s-79.73-11.3-84.36-24.17c0,0,5.53-11.63-3.22-14.67-2.35-.82-6.29-2.32-8-.09l.11,23.73s8.6,8.38,13.42,15.14c2.66,3.72,54.18,25.29,54.18,25.29Z"/><path class="cls-16" d="M2045.35,1216.52c7.55-10.92-.3-88.08-54.73-64.66-11.56,3.5-25.47,11.86-42.13,27.12,0,0-23.91,56.34,70.39,93.61,0,0,9.34,4,10.67,12.63s2.82,47.37-.38,48.54-7.94-3.28-11.39,1.62-2.24,13-2.24,13h34.27s16.37-87,15.45-93.95S2036.38,1229.49,2045.35,1216.52Z"/><path class="cls-15" d="M1910.92,901.12s18.13,38,8.12,49.44l-28.18-22.63S1890.72,916.73,1910.92,901.12Z"/><path class="cls-21" d="M2105.21,1105.92c-7.4-13.41-18.49-35.84-3.86-45,12.47-7.81,7.7-24.07.48-28-15.18-8.2-30.61,2.17-37.84,12.29-13.76,19.26,4.52,49.37,4.52,49.37,17.27,37.2-18.29,56.56-35.44,63.47a200.4,200.4,0,0,0-28.88-34c-5.91-5.6-11.33-10.17-15.88-14-48.28-41.26-36.58-56.36-48-74.91-2.25-3.67-11.13-13.66-13.49-16.86s-3.18-14.46-3.46-24.4c5.43-4.62,6-9.8,6-9.8a9.86,9.86,0,0,1,0,4.25c5.63-4.57,4.35-15.08,4.35-15.08,1.24,1.52,1.74,4.78,1.74,4.78,2.82-16.36-7.25-29.71-7.32-29.81,1.77-15.36-11-42.09-11-42.09-9.34,7.21-14.33,13.49-17,18.15-8.73-2.64-19-2.46-29.81,8.1-3.31,3.24-13.1,5.87-17.72,5.28-2.55-.33-8.35,12.42-8.57,14.17-2.53,19.29,3.59,28.83,14.61,38.7,1.55,4.35,2.74,10.2,0,14.13,0,0,2.32-1,2.61-1.7-.2,1-1.46,7.09-4.77,9.81a9.61,9.61,0,0,0,2.24-.52c-2.89,3.67-13.89,18.86-13.74,37.57-23.12.2-45.12-1.22-47.25-7.14,0,0,5-9.76-3.22-14.67a18.14,18.14,0,0,0-9-2.08l-.4,26.64s10.05,7.45,14.87,14.21c1.66,2.32,34,16.92,58.22,27.62,14.09,61.09,59.35,96.4,74.32,106.63,2.16,18.66,13.25,42.94,45,71.22,0,0,7.39,7,5.68,15.53s-13.63,45.45-17,45.45-14.77-4.93-19.69-1.52,1.89,16.67,1.89,16.67h34.66s42.8-70.45,44.31-77.26-18.56-33.33-5.68-42.42c5.52-3.9,13.19-25.27,11.59-44.9C2050.17,1177.88,2128.37,1147.91,2105.21,1105.92Z"/><path class="cls-16" d="M1851.75,937.73a3.39,3.39,0,0,1,3.23-.25s-.43,6.42-6.71,6.81C1848.27,944.29,1850.08,938.73,1851.75,937.73Z"/><path class="cls-16" d="M1863.27,952.13c.24.08,23.74,8.84,40.59,28.18h0c-17.14-19.69-40.09-28.87-40.34-28.95Z"/><path class="cls-16" d="M1861.08,953.79c.25.15,24.89,16.92,38.85,44h0c-14.2-27.56-38.08-44.65-38.34-44.81Z"/><path class="cls-16" d="M1858.55,955.79c.17.18,17.5,18.32,24.21,43.07h0c-6.82-25.19-23.47-43.47-23.65-43.65Z"/><path class="cls-15" d="M1917.09,906.1s1.35,29.4,4.24,34.84,6.73,7.26,6.73,7.26C1929.84,932.83,1917.09,906.1,1917.09,906.1Z"/><path class="cls-6" d="M552.18,435.76V694.42H229.55v-131q-5.4,4-10.75,8.13v133.6H562.92V433.86Q557.55,434.79,552.18,435.76Z"/><path class="cls-6" d="M540.9,437.83V683.08H240.1V555.81C332.84,490.31,434.39,457.92,540.9,437.83Z"/></g></g></svg>