<svg xmlns="http://www.w3.org/2000/svg" viewBox="0 0 2724.01 1289.52"><defs><style>.cls-1{fill:#ebf3fa;}.cls-2{fill:#f8fbff;}.cls-3{fill:#e1efff;}.cls-4{fill:#d9e9fc;}.cls-5{fill:#8cb7ea;}.cls-6{fill:#b4d5ef;}.cls-7{fill:#afd295;}.cls-8{fill:#82b378;}.cls-9{fill:#233862;}.cls-10{fill:#e8945b;}.cls-11{fill:#f99f46;}.cls-12{fill:#d86713;opacity:0.4;}.cls-13{fill:#c65447;}.cls-14{fill:#ffb27d;}.cls-15{fill:#b84c42;}.cls-16{fill:#aa3e39;}.cls-17{fill:#2c3a64;}.cls-18{fill:#c0783d;}.cls-19{fill:#2b478b;}.cls-20{fill:#466aa5;}.cls-21{fill:#fff;}.cls-22{fill:#2e3552;}</style></defs><g id="Capa_2" data-name="Capa 2"><g id="Layer_1" data-name="Layer 1"><path class="cls-1" d="M56.22,1287.18l.29,1.42,41.75-.14,647.23-2,427.09-1.3,13,0,30.07-.09,390.71-1.2,900.25-2.77h0l33.06-.09h0l22.92-.08h0l13.23,0,5.85,0s.87-1.44,2.46-4.23c.14-.26.31-.54.47-.83.58-1,1.23-2.2,2-3.53,4.22-7.67,10.85-20.28,18.66-37q3-6.51,6.28-13.84c1.72-3.9,3.48-8,5.25-12.16.59-1.4,1.19-2.82,1.78-4.27s1.24-3,1.86-4.49c3.27-8,6.61-16.56,9.94-25.57h0q4.92-13.29,9.75-27.94c.06-.21.13-.42.21-.64,1.77-5.47,3.54-11.06,5.27-16.76q3.83-12.57,7.37-25.91,3.39-12.74,6.45-26.11c3.61-15.77,6.82-32.18,9.46-49.15a638.35,638.35,0,0,0,7.8-107.94,546.56,546.56,0,0,0-12-107c-19.6-90.9-65.4-184.49-154.26-270.13-326.78-314.9-607.83-140.43-750.42-149.18-25.56-1.57-48-11.72-70.07-27.8-40.43-29.47-79.55-78.86-134.12-131.88-81.81-79.47-198.33-167.1-406-208-257-50.67-610-36.47-762.69,115.82-92.38,92.13-111.47,234.78,8.32,444.17q10.94,19.09,23.41,38.94,10.5,16.68,18.34,31.86c13.18,25.44,21,47.87,24.27,67.87,7.91,48-10.25,82-42.79,110a265.74,265.74,0,0,1-31.37,22.86c-38,24-86.07,44.66-134,68.84-26.45,13.37-52.85,27.8-77.49,44.49-22.89,15.52-44.27,33-62.76,53.29a252.12,252.12,0,0,0-32.18,43.77q-.78,1.35-1.53,2.7a243.49,243.49,0,0,0-26.41,72.26c-.28,1.38-.54,2.76-.79,4.15C44.92,1186.73,45.42,1232.75,56.22,1287.18Z"/><path class="cls-2" d="M395.38,586.33,1838.76,831.77,1942.31,707.6,387.06,142.16C294.68,234.29,275.59,376.94,395.38,586.33Z"/><path class="cls-3" d="M56.5,1288.6l689-2.12,427.09-1.31,13,0,30.06-.09c274.61-152.38,358.3-312.16,358.3-312.16-9.83-2.46-712.6-147.29-1186.7-115-38,24-86.05,44.66-134,68.85-26.45,13.35-52.84,27.79-77.49,44.49C87.94,1030.72,22.37,1118.86,56.5,1288.6Z"/><path class="cls-4" d="M56.5,1288.6l2525.17-7.76s135.43-224.07,82.95-467.46c-31.09,21.13-66.35,36.43-88.75,19-28.27-22-109.22-86.2-170.52-134.9l0,0c-42.17-33.5-75-59.66-75-59.66s-34.45-33.13-57-23.85c-10.43,4.29-20.58,14.55-29.51,23.94l-.09.08c-10.34,10.86-19.06,20.51-24.74,18.39-5.14-1.93-42.94-40.58-86.89-83.52-46.74-45.67-100.42-96.21-129.1-112.6,0,0-26.68-27.34-55.65,4-14.83,16-37.65,57-63.15,106.31C1825.38,684.2,1752.31,842.07,1730.13,840c-31.81-3-81.28-73.68-111.32-80.75S1452,999.38,1393.69,1010s-169.63-79.51-259.75-53S898,1131.91,762.85,1105.41C654.66,1084.19,410,964.59,253.28,926.74,132.58,987.69,12.79,1071.23,56.5,1288.6Z"/><path class="cls-5" d="M52.91,1143.25l4.72-1.61c4.92-1.47,12.94-3.22,20.45-2.1,7.9,1.17,21.2,10.9,29.3,17.36-3.76-6.38-7.23-14.37-8.1-23.11-2.11-21.16,6.19-45.06,19.43-29.28,9.62,11.44,5.3,41.62,2.2,57.38,5.12,2,10.28,4.2,15.43,6.57,6.34-22.34,15.44-48.94,27.87-74.85,5.92-12.36,124.33,9.85,174.53,39.28,80,46.88,328.73-.34,406.48,12s226.91,70.15,371.79,31.28,622-63.61,761.54-88.35c122.84-21.77,565.41-149.69,798.09-167.42a637.31,637.31,0,0,1-7.8,107.94c-22.78,145.94-87.18,252.47-87.18,252.47l-1836.17,5.64-328-3.1L54.84,1280C45,1226.77,45.23,1181.76,52.91,1143.25Z"/><path class="cls-6" d="M55.28,1282.29l362.16,1.09,328.05,3.1,427.08-1.31,13,0,30.06-.1,390.72-1.2,975.31-3s64.39-106.53,87.18-252.47c-185.35,16.05-552.49,50.85-991.53,106.19-630.84,79.52-959.61,132-1302.39,25.84-63.23-19.58-118-37.23-166-52.57q-23.38-7.49-44.68-14.22Q143.14,1087,124,1081.08c-14.53-4.44-29.72-9.62-42.78-13.36-.92,1.53-1.21,2.1-1.87,3.27a244.1,244.1,0,0,0-26.4,72.26C45.23,1181.76,45.47,1229.1,55.28,1282.29Z"/><path class="cls-7" d="M55.28,1282.29l690.21,4.19,427.09-1.31,13,0,30.06-.09,390.72-1.2,975.84-3.88s1.27-2.09,4.37-7.71c4.21-7.66,10.85-20.27,18.66-37-104-36.34-304.13-156.55-482-99.55-265.06,84.93-1315.31,144.68-1503.5,110.22s-359.21-77.11-427.41-13.81C173.84,1249.23,69.81,1202.58,55.28,1282.29Z"/><path class="cls-8" d="M2584.6,1275.78c.57-1,1.23-2.2,2-3.53,4.21-7.66,10.85-20.27,18.66-37,2-4.34,4.13-9,6.28-13.84q2.58-5.84,5.25-12.16c.59-1.41,1.19-2.83,1.78-4.27s1.24-3,1.86-4.49c-44.9-105.19-145.89-314.82-240.27-288.68C2287.08,937.55,2480.94,1163.48,2584.6,1275.78Z"/><path class="cls-8" d="M2645.57,1129.53q3.81-12.55,7.37-25.9,3.38-12.74,6.45-26.11c-18.6-94.29-48.91-209.37-85.48-205.14C2530.55,877.37,2600.33,1035.89,2645.57,1129.53Z"/><path class="cls-8" d="M2292.87,1187.21c31.41,16.75,122.1,58.66,199.28,93.86h0l40.76-.12h0l28.25-.09c-65.82-61.28-181-150.76-282-149.76a20,20,0,0,0-19.6,16.53C2258,1157.68,2263.66,1171.62,2292.87,1187.21Z"/><path class="cls-2" d="M1884.2,570.53c14,4.51,33.45,6.92,35.87-11.86,3.53-27.39,82.16,25.62,122.8,37.1s17.67-35.34,18.55-48.59c.54-8.1,40,10.21,70.68,25.67-46.74-45.67-100.42-96.21-129.1-112.6,0,0-26.68-27.34-55.65,4C1932.52,480.26,1909.7,521.24,1884.2,570.53Z"/><path class="cls-2" d="M2243.82,637.9c.89-.8,8.46-7,22.27.08,14.72,7.55,34.15,11.68,43,9s96.27,50.48,96.27,50.48l0,0c-42.17-33.5-75-59.66-75-59.66s-34.45-33.13-57-23.85C2262.9,618.25,2252.75,628.51,2243.82,637.9Z"/><path class="cls-2" d="M937.58,118.07l752.29,248.2c-40.43-29.47-79.55-78.86-134.12-131.88Z"/><path class="cls-2" d="M960.8,200.87A33.08,33.08,0,1,1,927.73,234,33.08,33.08,0,0,1,960.8,200.87Z"/><path class="cls-9" d="M1687.62,271.37s-46.86-24.68-114-29.61A78.78,78.78,0,0,0,1493,295.63c-.65,2-1.28,4-1.87,6.16-15.77,56.73-7.17,228.48,45.89,273.29S1687.62,601,1687.62,601Z"/><polygon class="cls-8" points="1605.3 195.02 1719.43 214.31 1710.72 253.54 1606.11 278.31 1605.3 195.02"/><path class="cls-10" d="M2017.34,442.13c-5.14-3.67-9.8,9.62-16.23,9.08-1.48-.13,6.44-7.9,8.33-10.62s1.48-4.21.11-5-19.57,9.14-23.29,13.17c-2.28,2.48-7.22,11.59-10.69,18.26,0-.05,0-.07,0-.07s-103.54,7.66-124.44,5.87c-15.16-1.19-22.61-108.34-23.79-108.12-19.74,3.25-58.11,11.33-81.8,27.41a7.35,7.35,0,0,1-2.86,1.43c9,33.15,22.53,72.08,42.14,108.31a68.05,68.05,0,0,0,65.07,35.57c36.14-2.8,89.23-12.12,134.45-40.87,0,0,23.4-11.9,34.3-21.5C2033.47,462,2022.47,445.81,2017.34,442.13Z"/><path class="cls-11" d="M1835.23,655s-7,87.7-13.7,173c-9.09,115.93-43.69,404.79-43.69,404.79s7.34,11.52-28.27,4c0,0-43.63-98.39-52.69-211.56l-.42-5.59c-8.43-115.22-21.54-357.83-21.54-357.83Z"/><path class="cls-12" d="M1835.85,647.12s-7.63,95.53-14.32,180.87l-124.65,197.24-.42-5.59c-8.43-115.22-21.54-357.83-21.54-357.83Z"/><path class="cls-11" d="M1828.51,651.93l-290.69,553.29s-27.06,12.14-30.57,1.6c0,0,25.79-253.5,71-310.36,25.52-32.14,55.5-128.56,56.91-162.28s9.41-105,9.41-105Z"/><path class="cls-9" d="M1587.23,1283.17s-42.19.61-54.41-11.36c-1.44-1.41-6.09-15.55-6.13-15.7-.37-1.15-2.52-6.33-11.22-9.24-5.73-1.92-10.5-1.86-16-4a148.28,148.28,0,0,1-15.68-7.63c-13.07-7.63-10.1-11.66-10.1-11.66s2.88-2.61,6.67-6.42c1-1,2.13-2.17,3.23-3.36,5.67-6,12-13.6,13.57-19a18.46,18.46,0,0,1,6.41-9.54,17.63,17.63,0,0,1,6-3.14s4.61,18.5,13.73,16.2c17.63-4.47,20.93-4,21.54-3.67l.14.1s14.41,27.94,18.43,37.92c7.14,17.76,16.3,24.47,22,30.3a15.91,15.91,0,0,1,3.25,4.78C1591.72,1274.47,1589.51,1281.91,1587.23,1283.17Z"/><path class="cls-13" d="M1587.23,1283.17s-42.19.61-54.41-11.36c-1.44-1.41-6.09-15.55-6.13-15.7-.37-1.15-2.52-6.33-11.22-9.24-5.73-1.92-10.5-1.86-16-4a148.28,148.28,0,0,1-15.68-7.63c-13.07-7.63-10.1-11.66-10.1-11.66s2.88-2.61,6.67-6.42c1-1,2.13-2.17,3.23-3.36,1.38,5.36,5.19,14.93,15.28,18.85,14.4,5.59,29.87,15.19,34.4,22.92s7.47,14.67,16.27,17.6,31.74,3.74,33.34,2.94c1.28-.64,2.55-6.34,5.83-8.38C1591.72,1274.47,1589.51,1281.91,1587.23,1283.17Z"/><path class="cls-9" d="M1744.47,1283.27h17.44c5.84-.92,10.16-2.61,16.15-3.39,9.1-1.2,13.29,2.53,14.13,3.39a1.62,1.62,0,0,1,.16.18h74.1c1.86-2.67.07-8.83-1.68-13.37a10.54,10.54,0,0,0-6.94-6.34c-7.85-2.28-23.35-4.3-37.53-17.15-8-7.21-38.54-26.52-38.54-26.52l-.17,0c-.67,0-3.86,1-17.76,12.73-7.19,6-19.44-8.56-19.44-8.56a17.33,17.33,0,0,0-4,5.45,18.39,18.39,0,0,0-1.59,11.38c1.1,6.67-2.47,19.08-5.31,27.47-1.73,5.09-3.19,8.69-3.19,8.69S1729.46,1281.39,1744.47,1283.27Z"/><path class="cls-13" d="M1744.5,1283.52h17.37c5.84-.92,10.2-2.86,16.19-3.64,9.1-1.2,13.29,2.53,14.13,3.39a1.62,1.62,0,0,1,.16.18h74.1c1.86-2.67.07-8.83-1.68-13.37-2.25-2-2.88,8.69-4.13,10.39s-60.45.63-63.87-1.86-13.67-6.84-28-3.42c-12.45,3-30.79-4.65-35.32-6.68-1.73,5.09-3.19,8.69-3.19,8.69S1729.49,1281.64,1744.5,1283.52Z"/><path class="cls-14" d="M1676.36,261.48s69.44,34.17,109.56,21.5a96.31,96.31,0,0,0-27.09-22.09c1-5.84,1.77-11.17,2.39-15.93a250.77,250.77,0,0,0,2.3-27L1721,183.67l-9.54-7.7a121.86,121.86,0,0,1-1.3,22.63c-.08.55-.16,1.1-.25,1.64C1703,241.52,1676.36,261.48,1676.36,261.48Z"/><path class="cls-15" d="M1636.74,625c-.21,4.42,8.9,9.28,12.86,11,17.55,7.88,34.4,14.33,51.68,18.92a228,228,0,0,0,37.2,6.74c37.18,3.82,81.12-4.56,96.19-4.35a6.54,6.54,0,0,0,4.22-1.61c1-.81,1.8-46.21,1-103.49,0-2.2,0-4.62-.19-6.83v-.8c-.21-22.31-1-45.82-2-69.12-2.21-51.45-6.22-101.08-13.07-128.62-8-32.34-26.51-53.64-43.39-69.31l-12-11.94a3.22,3.22,0,0,0-2.87-.87c-13.42,2.47-28.11,2.27-42.2-4.68-15.87-7.83-33.16-16.28-36-14.26-33,24.62-49.35,97.36-49,180.06,0,2.61,0,5.24.07,7.87.15,8.53.46,17.18,1,25.86,3.59,61-.1,113.91-2.2,144.67C1637.36,613.12,1636.88,620.13,1636.74,625Z"/><path class="cls-16" d="M1636.74,625c-.21,4.42,8.9,9.28,12.86,11,17.55,7.88,34.4,14.33,51.68,18.92,48-154.9-9.46-305.05-9.46-305.05l-52.61,83.84c.15,8.53.46,17.18,1,25.86,3.59,61-.1,113.91-2.2,144.67C1637.36,613.12,1636.88,620.13,1636.74,625Z"/><path class="cls-15" d="M1710.49,374c-17.19-10.19-51.7-28.67-80.22-31.59a9.27,9.27,0,0,1-7.55-12.94c9-20.59,34.47-63.68,65.46-83.7,2.91-1.88,5.1-.25,8.13,1.45,11.44,6.42,36.07,25.4,37.58,47.78,1.35,19.91-5.48,54.44-9.6,73A9.29,9.29,0,0,1,1710.49,374Z"/><path class="cls-10" d="M1709.53,199.61l.35.63c2.68,4.81,21,35.83,51.34,44.72a250.77,250.77,0,0,0,2.3-27L1721,183.67a118.45,118.45,0,0,0-10.84,14.93Z"/><path class="cls-14" d="M1775.8,217s-66.28,11-72.5-30.37-19-67.83,23.09-76.61,52.67,5.77,58.1,19.08S1792.88,213.08,1775.8,217Z"/><path class="cls-17" d="M1794.78,105.13C1781,98.79,1714,67,1685.29,96a81.15,81.15,0,0,1-.43-9.72c-2.09,3.78-3,9.33-3.44,13.29-2.56-3.08-7.31-3.6-7.31-3.6a10.29,10.29,0,0,1,5.43,7.27c-28.46,42.33,14.76,85.4,20.69,92.11,6.14,6.94,9.65,4.89,9.65,4.89s10.82-14.65,5.56-24.27c0,0-8.8-8.89-3.74-14.49s8,2.94,12,2.67,11.21-12,11.74-22.67,39,5.61,54.49.54S1819,116.28,1794.78,105.13Z"/><path class="cls-9" d="M1637.76,471l-2-12.64c30.72-5,55.58-19.75,73.89-43.88,13.81-18.21,23.54-42.07,26.68-65.46,6.1-45.32-5.83-71.11-36.46-78.86-27.44-6.95-59.14,14.49-59.46,14.71l-7.25-10.54c1.48-1,36.74-25,69.85-16.58,25.82,6.53,54.75,28,46,93-2,15-8.49,44.22-29.18,71.49C1699.44,449.08,1671.84,465.49,1637.76,471Z"/><ellipse class="cls-7" cx="1596.05" cy="236.77" rx="40.69" ry="42.87"/><path class="cls-8" d="M1567.15,237.89a37.28,37.28,0,0,1,37.29-37.29c.9,0,1.8,0,2.69.1a37.29,37.29,0,1,0-12.37,73.2A37.3,37.3,0,0,1,1567.15,237.89Z"/><rect class="cls-18" x="1999.87" y="421.85" width="10.71" height="739.05"/><rect class="cls-9" x="1995.26" y="413.88" width="19.93" height="95.17" rx="6.84"/><path class="cls-9" d="M2015.75,1165.57h-21a5.3,5.3,0,0,1-5.31-5.3h0a5.31,5.31,0,0,1,5.31-5.31h21a5.3,5.3,0,0,1,5.31,5.31h0A5.3,5.3,0,0,1,2015.75,1165.57Z"/><path class="cls-18" d="M2005.26,1186.1h0a3.69,3.69,0,0,1-3.67-3.33l-1.72-17.2h10.71l-1.65,17.19A3.69,3.69,0,0,1,2005.26,1186.1Z"/><rect class="cls-18" x="1588.26" y="446.97" width="10.71" height="739.05" transform="translate(837.27 -806.53) rotate(37.89)"/><path class="cls-9" d="M1769.45,595.59l-4.93-3.84a6.84,6.84,0,0,1-1.2-9.6l50-64.31a6.84,6.84,0,0,1,9.6-1.2l4.93,3.83a6.84,6.84,0,0,1,1.2,9.6l-50,64.32A6.84,6.84,0,0,1,1769.45,595.59Z"/><path class="cls-9" d="M1372.13,1118.29l-16.62-12.93a5.31,5.31,0,0,1-.93-7.45h0a5.3,5.3,0,0,1,7.45-.93l16.62,12.93a5.31,5.31,0,0,1,.93,7.45h0A5.31,5.31,0,0,1,1372.13,1118.29Z"/><path class="cls-18" d="M1351.25,1128h0a3.69,3.69,0,0,1-.86-4.88l9.21-14.62,8.45,6.57-11.86,12.55A3.68,3.68,0,0,1,1351.25,1128Z"/><path class="cls-14" d="M1815.36,558c-1.19-4.65-14.47-2.89-22.76-3.78a3.85,3.85,0,0,1-2.65-6.14l4.08-5.41c-6.09-1.23-13.18-2.23-16.06-1.86-3.34.42-13,4.21-19.94,7.07,0,0,0-.08,0-.08s-84.14-60.84-99-75.67c-10.83-10.68,52.5-97.43,51.46-98-17.2-10.23-51.76-28.76-80.23-31.73a7.48,7.48,0,0,1-3.11-.74c-14.44,31.18-29.2,69.65-37.54,110a68,68,0,0,0,26.85,69.11c29.44,21.14,76.06,48.22,129.18,55.36,0,0,28.53,11,43,10.67C1808.56,586.33,1816.92,564.13,1815.36,558Z"/><path class="cls-10" d="M1990.81,445.22s13.44-11,18.69,1.77c3.67,8.93-1.5,15.78-5,19.1a3.64,3.64,0,0,1-5.86-1.08c-.74-1.62-1.09-4-.28-7.31l-12.29,26.57Z"/><path class="cls-10" d="M2015.19,441.51s-8.06-.37-8.86,13.31-2.37,33.18,9.23,22.74S2015.19,441.51,2015.19,441.51Z"/><rect class="cls-18" x="1245.69" y="629.81" width="10.71" height="631.98" transform="translate(643 -499.85) rotate(30.1)"/><path class="cls-11" d="M1021.23,704.75c1.43,3.5,7.69,6.6,16.71,8.84,20.21,5,54.29,5.69,79.15-3.52,26.65-9.86,46-150.73,54.2-222.93,2.87-25.18,4.39-42,4.39-42s-15.31-24-74.57-16-65.24,28-70.56,63.91S1016.57,693.43,1021.23,704.75Z"/><polygon class="cls-16" points="1075.42 381.84 1189.56 401.13 1180.85 440.36 1076.24 465.13 1075.42 381.84"/><ellipse class="cls-15" cx="1066.18" cy="423.58" rx="40.69" ry="42.87"/><path class="cls-16" d="M1037.27,424.7a37.3,37.3,0,0,1,37.29-37.29c.91,0,1.81,0,2.7.11a37.29,37.29,0,1,0-12.37,73.2A37.31,37.31,0,0,1,1037.27,424.7Z"/><path class="cls-10" d="M1403.78,707.73c-.5-6.83-10.41-12.69-16.7-14.47-5-1.43-11.57-8.45-14-11.19-22.47-28.45-55.84-86.62-64.19-96.68-3-3.67-12.32-22.44-24.35-46.62-8.1-16.25-17.44-34.94-27-53.12-14.48,5.26-32,12.46-47.08,21.12,9.09,14.51,21.17,33.89,31.83,51.3,9.8,16,18.39,30.36,22.32,37.63,12,22.35,94.24,97.66,94.24,97.66l4.58,4.6a20.48,20.48,0,0,1,2.41,2.94c2.57,3.8,7.33,11.48,14.68,18.16,4.47,4.05,7.43,6.66,15.72,5.61C1406.78,723.34,1404.27,714.55,1403.78,707.73Z"/><path class="cls-9" d="M1254.77,468.51s41,81.88,46.93,94.74c0,0-21.73,43.14-35.85,42.87S1254.77,468.51,1254.77,468.51Z"/><path class="cls-9" d="M1153.12,285.38c-.64-2.23-8.73-27.35-47.91-19,0,0,19.62-2.47,25,5.09,0,0-15.55-7.12-25.29-1.17s-11.33,26-9.88,32.12,12.21,24.27,19.33,24.27a21.11,21.11,0,0,0,8.12-2,97,97,0,0,0-2.89,10.59c-7.56,35.58,16.11,62.63,28.34,55.95,7.85-4.29,13.79,9.45,13.79,9.45l65.13-86.33S1181.46,259.8,1153.12,285.38Z"/><path class="cls-14" d="M1255.43,711.88c-29.55-94.46,2.83-115-.24-162.26s-39.68-98.1-39.68-98.1-1.86-.19-5-.47c-2.46-1.3-3.11-11.57-3.08-22.42,0-13,1-26.83,1-26.83l-43.89-8.69-2.61-.51c.11,30.55-7.93,50.61-13.76,55.28-5.48.62-28.87,3.57-43.27,9.59-5.44,2.27-9.58,5-11,8.15-12,26.5-24.08,93.39-32.54,141.1-4.72,26.59-15.11,60.2-7.37,67.34l45.5-17.25c1.71-8.09,4.63-24.85,9.52-43,.74-2.74-.22-6.06.54-8.87,8.62,23.38,13,34.2,12.79,44.31-.35,14.37-10.09,27.3-30.47,73C1080.58,747.52,1285.6,808.36,1255.43,711.88Z"/><path class="cls-10" d="M1208.43,401.8s-1,13.82-1,26.83c-24.57-.69-37.55-23.1-42.87-35.52Z"/><path class="cls-9" d="M1160,388.34s-12.87-20.34-16-37.73c-2.21-12.42,4.12-58.44,50.36-51.81a62.8,62.8,0,0,1,26.06,9.85c10,6.78,24.53,21.42,8.33,61.58l-4.21,13.57Z"/><path class="cls-14" d="M1216.64,414.13s-58.11,1-58.16-35.24-7.56-60.46,29.54-62.6S1232.34,328,1235.29,340,1231.75,412.94,1216.64,414.13Z"/><path class="cls-15" d="M1297.72,1257.73l-18.64,4.59a573.81,573.81,0,0,1-53.7-94.94c-15.45-34.72-28.89-74.35-31.6-111.18-1.23-16.67-.26-32.77,3.72-47.59,0,0-5.22-35-12.34-81.8-7.92-52-18.18-118.44-26.22-167.31l4.85-1.44,104.06-30.9s20.36,79.73,11.05,204.68c-1.91,25.63-5.07,53.16-9.91,82.31-8.27,49.8-4.87,99.87,2,141.55C1280.81,1215.3,1297.72,1257.73,1297.72,1257.73Z"/><path class="cls-16" d="M1278.9,931.84l-81.57,150.58c-2.25-13.77-9.44-38.33.17-73.81,0,0-5.22-35-12.34-81.8-7.92-52-18.18-118.44-26.22-167.31l4.85-1.44,104.06-30.9S1288.21,806.89,1278.9,931.84Z"/><path class="cls-15" d="M1187.57,1017c-3.69,6.93-40.26,50.89-77,99.56-3.15,4.17-6.41,8.66-9.75,13.37-21.64,30.49-46.56,70.24-61.46,89.59-13.53,17.59-25.69-4.44-18.87-20.15,10.78-24.8,19.91-68.14,30.34-100a205.44,205.44,0,0,1,7.47-19.93c11.23-25.12,33.12-52.66,59.74-79.9,4.62-4.73-38.61-117.54-35.73-204.53,1.13-34.48,5.93-64.8,16.92-83.27l109.33,5.41S1223.53,949.45,1187.57,1017Z"/><path class="cls-9" d="M1233.57,319.91c-9-10.87-15.75-8.51-19.56-5.25-31.16-17.28-70.34,1.41-70.34,1.41a451.52,451.52,0,0,0-4.52,47.82s10.59,6.54,35,.26c7.45-1.92,14.11-7.2,19.76-13.62A135.5,135.5,0,0,1,1170.6,379c29.17-13.48,40.88-54.05,42.05-58.34,3.55,3.19,10.54,10.11,12.67,16.89,2.9,9.22,4.2,28.2,9.73,27.55C1235.05,365.1,1247,336.23,1233.57,319.91Z"/><path class="cls-19" d="M1078.13,755.26a26.16,26.16,0,0,0,.68,8.74c2.33,7.32,10.32,10.65,29.63,8.66,11.81-1.23,17.07-21,19.41-37.89,7.09,24.14,17,37.7,29.85,40.54,18.72,4.17,113.17,15.65,119.35-29.25,6.8-49.38-13.56-136.81-14.68-184a232.87,232.87,0,0,0,3.43-43.68c-.79-33.59-10.65-52.41-18.23-60-2.14-1.65-4.29-2.68-12.91-4.15-4.4-.75-10.5-1.62-19.15-2.76,0,0-3.72-.48-3.64-.35,1.6,2.86,18.79,28.17,17.12,36.5-1.74,8.71-67.84,7.46-73.07,2.66S1137,449.38,1137,449.38s-26.86,2.94-40,12.49l.14.17a11.1,11.1,0,0,0-3.46,3.64c-14,26.69-28,94.06-37.86,142.11,23.86,13.15,44.71,9.24,51.18,7.5C1098.58,670.63,1079.39,730.05,1078.13,755.26Z"/><path class="cls-11" d="M1215.51,451.52l.12.2c2.58,4.07,42.88,68.49,46.74,110.38a232.87,232.87,0,0,0,3.43-43.68c-5.18-15.83-28.41-51.25-40.52-65.58C1224.42,451.82,1215.51,451.52,1215.51,451.52Z"/><path class="cls-14" d="M1225.38,1167.38a574.21,574.21,0,0,0,53.69,94.94l18.65-4.59s-16.91-42.43-26.74-102C1265.14,1160,1252.49,1165.61,1225.38,1167.38Z"/><path class="cls-9" d="M1264.33,1283.39h12.78c4.28-.67,7.44-1.91,11.83-2.48,6.66-.88,9.73,1.86,10.34,2.48l.12.13h54.27c1.36-2,0-6.46-1.23-9.79a7.71,7.71,0,0,0-5.08-4.64c-5.76-1.67-17.1-3.15-27.49-12.56-5.85-5.28-28.23-19.42-28.23-19.42l-.12,0c-.49,0-2.83.73-13,9.33-5.26,4.43-14.23-6.27-14.23-6.27a12.94,12.94,0,0,0-2.94,4,13.5,13.5,0,0,0-1.17,8.33c.81,4.89-1.8,14-3.88,20.13-1.27,3.72-2.34,6.36-2.34,6.36S1253.34,1282,1264.33,1283.39Z"/><path class="cls-20" d="M1264.33,1283.39h12.78c4.28-.67,7.44-1.91,11.83-2.48,6.66-.88,9.73,1.86,10.34,2.48l.12.13h54.27c1.36-2,0-6.46-1.23-9.79-1.65-1.46-2.11,6.37-3,7.61s-44.27.46-46.78-1.36-10-5-20.49-2.51c-9.11,2.18-22.54-3.4-25.86-4.88-1.27,3.72-2.34,6.36-2.34,6.36S1253.34,1282,1264.33,1283.39Z"/><path class="cls-9" d="M1078.13,755.26c13-4.33,29.62-15.86,49.61-41.69,52.93-68.4,4.5-148.79-2-150.29s-18.72,52-18.72,52c-1.25,11.59-4.22,23.81-6.62,35.7-.24,1.19-.56,2.29-.74,3.47-2.16,13.81-.76,27-3.85,39.81-.06.26-5.66,1.15-5.72,1.41C1084,720.88,1078.77,742.61,1078.13,755.26Z"/><path class="cls-21" d="M1199.94,392.75s1.1,4.46,12.21,3.64c0,0,9.33-.69,9-5.6C1221.14,390.79,1212,387.41,1199.94,392.75Z"/><path class="cls-14" d="M1100.83,1129.89c-21.64,30.49-46.56,70.24-61.46,89.59-13.53,17.59-25.69-4.44-18.87-20.15,10.78-24.8,19.91-68.14,30.34-100C1057.85,1110,1072.17,1123.71,1100.83,1129.89Z"/><path class="cls-9" d="M1068.35,1283.5s-31.84-4-39.78-14.28c-.93-1.21-3-12.35-3-12.47-.16-.9-1.23-5-7.48-8.14-4.11-2-7.71-2.5-11.63-4.71a114.33,114.33,0,0,1-11-7.39c-9-7.12-6.37-9.84-6.37-9.84s2.44-1.67,5.7-4.14c.88-.67,1.83-1.41,2.78-2.19,4.9-3.93,10.44-9,12.23-12.89a14,14,0,0,1,5.83-6.51,13.14,13.14,0,0,1,4.84-1.73s1.53,14.41,8.64,13.64c13.75-1.51,16.17-.77,16.6-.5l.1.09s7.91,22.56,9.89,30.49c3.5,14.13,9.7,20.15,13.42,25.15a11.94,11.94,0,0,1,1.94,3.94C1072.65,1277.42,1070.2,1282.8,1068.35,1283.5Z"/><path class="cls-20" d="M1068.35,1283.5s-31.84-4-39.78-14.28c-.93-1.21-3-12.35-3-12.47-.16-.9-1.23-5-7.48-8.14-4.11-2-7.71-2.5-11.63-4.71a114.33,114.33,0,0,1-11-7.39c-9-7.12-6.37-9.84-6.37-9.84s2.44-1.67,5.7-4.14c.88-.67,1.83-1.41,2.78-2.19.48,4.19,2.34,11.79,9.53,15.8,10.25,5.73,20.89,14.59,23.49,20.89s4.08,11.83,10.4,15,23.51,6.14,24.8,5.71c1-.35,2.59-4.5,5.27-5.69C1072.65,1277.42,1070.2,1282.8,1068.35,1283.5Z"/><path class="cls-11" d="M1117.65,452.59l-19.35,7.31c14,14.14,37.47,42.82,47.42,84.41,14.64,61.24-40.34,81.11-40.34,81.11l-4.84,24.74-.13.83S1169,634.51,1165,557.62C1162.26,504.3,1133.61,468.29,1117.65,452.59Z"/><path class="cls-9" d="M1368.47,749.42l-5.4-3.13a6.84,6.84,0,0,1-2.49-9.35l40.87-70.5a6.84,6.84,0,0,1,9.35-2.49l5.4,3.14a6.83,6.83,0,0,1,2.49,9.34l-40.87,70.51A6.84,6.84,0,0,1,1368.47,749.42Z"/><path class="cls-9" d="M1099.34,1228.52,1081.13,1218a5.31,5.31,0,0,1-1.93-7.26h0a5.3,5.3,0,0,1,7.25-1.93l18.22,10.56a5.3,5.3,0,0,1,1.93,7.25h0A5.32,5.32,0,0,1,1099.34,1228.52Z"/><path class="cls-18" d="M1080,1241h0a3.7,3.7,0,0,1-1.51-4.72l7.14-15.74,9.27,5.37-10,14A3.69,3.69,0,0,1,1080,1241Z"/><rect class="cls-18" x="970.47" y="592.07" width="10.71" height="631.98" transform="translate(1144.79 -414.15) rotate(54.34)"/><path class="cls-9" d="M1163.54,777.23l-3.64-5.07a6.86,6.86,0,0,1,1.57-9.55l66.22-47.5a6.84,6.84,0,0,1,9.54,1.57l3.64,5.07a6.84,6.84,0,0,1-1.57,9.55l-66.21,47.5A6.85,6.85,0,0,1,1163.54,777.23Z"/><path class="cls-9" d="M721.41,1103.53l-12.28-17.1a5.32,5.32,0,0,1,1.22-7.41h0a5.3,5.3,0,0,1,7.41,1.22L730,1097.35a5.3,5.3,0,0,1-1.22,7.4h0A5.3,5.3,0,0,1,721.41,1103.53Z"/><path class="cls-18" d="M698.62,1107h0a3.68,3.68,0,0,1,.56-4.92l13-11.42,6.24,8.7L703.47,1108A3.69,3.69,0,0,1,698.62,1107Z"/><path class="cls-14" d="M1077.88,636.31,1054,674.06c41.33,28.54,88.27,44.17,118.66,63.94,2.94,2.14,11.77,6.34,13.65,11.22,2.36,6.09,7.28,13.89,14.12,13.76s17.13-4.9,18.48-11.75c.58-3-2.09-1.88-8.11-7.75-5-4.88-7.06-8-7.33-11-2.33-1.8-10.88-6.11-10.88-6.11-5.31-3.12-8.75-5.22-8.75-5.22h0S1104.74,659.61,1077.88,636.31Z"/><path class="cls-10" d="M1391.07,707.08c.2-1.79.47-3.66.84-5.37,1.22-5.71-9.33-10.78-9.33-10.78l-6,8.5s9.72,5.85,9.52,10.81a4.46,4.46,0,0,0,1.06,3.41c-2.1,5-2.83,10.57,3.55,11.12,8.67.74,12-20.66,12-20.66S1395.08,703.64,1391.07,707.08Z"/><path class="cls-14" d="M1099.67,654.46a182.79,182.79,0,0,0,7.36-39.17S1095,642,1099.67,654.46Z"/><rect class="cls-22" y="1282.29" width="2724.01" height="7.23" rx="3.09"/></g></g></svg>