<svg xmlns="http://www.w3.org/2000/svg" xmlns:xlink="http://www.w3.org/1999/xlink" viewBox="0 0 2802.74 1514.49"><defs><style>.cls-1{fill:none;}.cls-2{fill:#ebf3fa;}.cls-3{fill:#ddeaf4;}.cls-4{fill:#acd29a;}.cls-5{fill:#88b374;}.cls-6{fill:#7a3909;}.cls-7{clip-path:url(#clip-path);}.cls-8{fill:#a2c5f9;}.cls-9{fill:#afcdfb;}.cls-10{fill:#c7dcf9;}.cls-11{fill:#d2e4f9;}.cls-12{fill:#d3a17f;}.cls-13{fill:#f9d0af;}.cls-14{fill:#1c468a;}.cls-15{fill:#b64c41;}.cls-16{fill:#f7aa74;}.cls-17{fill:#163560;}.cls-18{fill:#2d427c;}.cls-19{fill:#365da4;}.cls-20{fill:#e89258;}.cls-21{fill:#a53934;}.cls-22{fill:#ccbcb2;}.cls-23{fill:#efe5df;}.cls-24{fill:#283250;}</style><clipPath id="clip-path"><path class="cls-1" d="M284.69,1511.12l576.27-.86,39-.13L2166.9,1506l417.89-1.37s158-278,63.81-557.89A543.26,543.26,0,0,0,2613,864.1a559.43,559.43,0,0,0-33-54.26q-1.9-2.76-3.84-5.5a608.34,608.34,0,0,0-61.67-73.87C2335.13,546.65,2169.77,521.7,2034.1,534.21c-108.26,9.95-197.6,43.76-260,39.68-140.69-9.18-185.8-298.65-602-386-83-17.42-176.25-27.55-269.35-27.64C642.48,160,383.09,237.86,348.93,452.88c-4.93,31-5.16,64.88,0,101.78A504.62,504.62,0,0,0,368,637.48c17.08,54.14,44.2,113.7,82.88,179.08,123.49,208.74,22.47,304-123.54,386.76q-9,5.1-17.91,10.46C205.23,1276.61,284.69,1511.11,284.69,1511.12Z"/></clipPath></defs><g id="Capa_2" data-name="Capa 2"><g id="Layer_1" data-name="Layer 1"><path class="cls-2" d="M284.69,1511.12l576.27-.86,39-.13L2166.9,1506l417.89-1.37s158-278,63.81-557.89A543.26,543.26,0,0,0,2613,864.1a559.43,559.43,0,0,0-33-54.26q-1.9-2.76-3.84-5.5a608.34,608.34,0,0,0-61.67-73.87C2335.13,546.65,2169.77,521.7,2034.1,534.21c-108.26,9.95-197.6,43.76-260,39.68-140.69-9.18-185.8-298.65-602-386-83-17.42-176.25-27.55-269.35-27.64C642.48,160,383.09,237.86,348.93,452.88c-4.93,31-5.16,64.88,0,101.78A504.62,504.62,0,0,0,368,637.48c17.08,54.14,44.2,113.7,82.88,179.08,123.49,208.74,22.47,304-123.54,386.76q-9,5.1-17.91,10.46C205.23,1276.61,284.69,1511.11,284.69,1511.12Z"/><polygon class="cls-3" points="719.07 1108.32 719.07 993.12 727.71 993.12 727.71 753.64 860.58 753.64 860.58 993.12 1018.02 993.12 1018.02 838.79 1257.74 838.79 1257.74 550.27 1408.73 550.27 1408.73 925.47 1455.85 925.47 1455.85 606.02 1577.04 606.02 1577.04 925.47 1856.25 925.47 1856.25 1217.7 1997.99 1217.7 1997.99 1020.13 2130.12 1020.13 2130.12 1217.7 2168.37 1217.7 2168.37 806.3 2313.89 806.3 2313.89 1217.7 2366.16 1217.7 2366.16 1509.63 2313.89 1509.63 2168.37 1509.63 1856.25 1509.63 1837.13 1509.63 1577.04 1509.63 1455.85 1509.63 1250.55 1509.63 1250.55 1508.1 1137.57 1508.1 1018.02 1508.1 860.58 1508.1 794.14 1508.1 727.71 1508.1 719.07 1508.1 444.06 1508.1 444.06 1253.83 719.07 1108.32"/><path class="cls-4" d="M2219.33,851a75.12,75.12,0,0,0,2.52-19.42c0-30.52-17.68-55.25-39.47-55.25a28.77,28.77,0,0,0-9.28,1.55c-3.55-82.59-39.71-147.51-83.81-147.51-42,0-76.8,58.89-83.08,135.85-31.24,21.21-52.66,64.65-52.66,114.8a162.38,162.38,0,0,0,13.36,65.47c-29,17.86-47.47,44.8-47.47,74.94,0,53.79,58.8,97.39,131.34,97.39,54.3,0,100.89-24.43,120.9-59.28a74.22,74.22,0,0,0,17.18,2c49.37,0,89.38-48.58,89.38-108.51C2278.24,906.14,2253.69,866.16,2219.33,851Z"/><path class="cls-5" d="M2219.33,851s-87-33.86-153.25,25.8-112.39-34.43-90.27-78.15c-13.9,22.32-22.26,51-22.26,82.37a162.38,162.38,0,0,0,13.36,65.47c-29,17.86-47.47,44.8-47.47,74.94,0,53.79,58.8,97.39,131.34,97.39,54.3,0,100.89-24.43,120.9-59.28a74.22,74.22,0,0,0,17.18,2c49.37,0,89.38-48.58,89.38-108.51C2278.24,906.14,2253.69,866.16,2219.33,851Z"/><path class="cls-6" d="M2117.11,1488.87c-3.42,0-6.19-.91-6.19-4.34v-671a6.2,6.2,0,0,1,12.39,0v671.05C2123.31,1488,2120.53,1488.87,2117.11,1488.87Z"/><path class="cls-6" d="M2117.11,1051.83c-17.58,0-32.44-6.26-44.19-18.61-32.85-34.55-29.69-105.11-29.54-108.1a6.19,6.19,0,0,1,12.37.62h0c0,.68-3,68.28,26.17,99,9.44,9.93,20.95,14.75,35.19,14.75a6.2,6.2,0,1,1,0,12.39Z"/><path class="cls-6" d="M2118,1192.32c-.41,0-.83,0-1.25,0a6.19,6.19,0,0,1,.76-12.36c2.37.14,4.73-.87,7.21-3.1,7.65-6.85,22.18-31,33.47-115.58,6.53-48.91,8.77-94.53,8.8-95a6.19,6.19,0,1,1,12.37.59c0,.46-2.29,46.6-8.89,96-3.89,29.15-8.51,53.77-13.73,73.17-6.84,25.46-14.61,41.82-23.75,50C2128.32,1190.22,2123.29,1192.32,2118,1192.32Z"/><path class="cls-4" d="M680.34,729.63A87.29,87.29,0,0,0,683.27,707c0-35.52-20.57-64.32-45.95-64.32a33.66,33.66,0,0,0-10.8,1.8c-4.13-96.15-46.23-171.72-97.56-171.72-48.89,0-89.41,68.55-96.72,158.15-36.38,24.7-61.31,75.27-61.31,133.65,0,27.83,5.67,53.88,15.55,76.21C352.72,861.59,331.22,893,331.22,928c0,62.62,68.46,113.38,152.9,113.38,63.21,0,117.46-28.44,140.75-69a86.78,86.78,0,0,0,20,2.34c57.47,0,104.06-56.56,104.06-126.33C748.93,793.78,720.35,747.24,680.34,729.63Z"/><path class="cls-5" d="M680.34,729.63s-101.23-39.41-178.4,30-130.85-40.08-105.09-91c-16.18,26-25.92,59.41-25.92,95.89,0,27.83,5.67,53.88,15.55,76.21C352.72,861.59,331.22,893,331.22,928c0,62.62,68.46,113.38,152.9,113.38,63.21,0,117.46-28.44,140.75-69a86.78,86.78,0,0,0,20,2.34c57.47,0,104.06-56.56,104.06-126.33C748.93,793.78,720.35,747.24,680.34,729.63Z"/><path class="cls-6" d="M561.34,1472.17c-4,0-7.21-1.06-7.21-5V685.9a7.22,7.22,0,0,1,14.43,0v781.23C568.56,1471.11,565.33,1472.17,561.34,1472.17Z"/><path class="cls-6" d="M561.34,963.38c-20.46,0-37.77-7.29-51.44-21.66-38.24-40.22-34.57-122.37-34.39-125.84a7.21,7.21,0,1,1,14.4.72h0c0,.79-3.52,79.49,30.46,115.19,11,11.55,24.39,17.17,41,17.17a7.21,7.21,0,1,1,0,14.42Z"/><path class="cls-6" d="M562.35,1126.94c-.48,0-1,0-1.45,0a7.21,7.21,0,1,1,.89-14.4c2.75.17,5.5-1,8.39-3.6,8.91-8,25.81-36.08,39-134.56,7.6-57,10.22-110.05,10.24-110.58a7.21,7.21,0,1,1,14.41.7c0,.53-2.67,54.25-10.35,111.79-4.53,33.94-9.91,62.59-16,85.18-8,29.64-17,48.68-27.66,58.21C574.39,1124.49,568.53,1126.94,562.35,1126.94Z"/><path class="cls-4" d="M2500,723c-18.51-36.24-27.15-76.69-26.24-117.37,2.18-97.39-27.08-231.74-99-231.74-86.57,0-93.43,169.66-66.44,265.15a44.44,44.44,0,0,1-18.78,49.84,7.34,7.34,0,0,1-2.71,1.28c-21.79,0-39.47,23.72-39.47,53a69.27,69.27,0,0,0,2.52,18.62c-34.36,14.5-58.91,52.82-58.91,97.82,0,57.45,40,104,89.38,104,39.59,0,73.17-30,84.91-71.46,15.46,13.68,34.2,21.71,54.4,21.71,53,0,96-55.21,96-123.31C2515.7,765.63,2509.94,742.43,2500,723Z"/><path class="cls-5" d="M2443.54,736.66c-89.64-12.08-103,85.48-103,85.48-106.19-48.32-153.34,27.48-153.34,27.48l-2.65,22.67c2.37,55,48,91.33,95.8,91.33,39.59,0,73.17-30,84.91-71.46,15.46,13.68,34.2,21.71,54.4,21.71,31.86,0,60.08-19.94,77.55-50.63C2497.85,861.31,2532.42,748.63,2443.54,736.66Z"/><path class="cls-6" d="M2369.12,1488.87c-3.42,0-6.71,2.17-6.71-1.25v-671a6.2,6.2,0,1,1,12.39,0v671C2374.8,1491,2372.54,1488.87,2369.12,1488.87Z"/><path class="cls-6" d="M2368.61,1054.92c-19.13,0-35.53-11.26-48.76-33.47-10-16.74-18.23-39.9-24.55-68.84-10.62-48.71-12.18-98.07-12.19-98.57a6.19,6.19,0,1,1,12.38-.36c0,.48,1.55,48.84,12,96.44,9.21,42.15,27.3,92.41,61.17,92.41a6.2,6.2,0,0,1,0,12.39Z"/><path class="cls-6" d="M2369.19,1195.4q-.51,0-1,0A6.19,6.19,0,1,1,2369,1183c.79,0,2.05-.1,3.94-1.9,7.73-7.41,21.53-38.08,27.09-160.26,3.21-70.43,2-137.52,2-138.19a6.2,6.2,0,0,1,12.39-.23c0,.67,1.21,68.16-2,139-1.9,41.7-4.94,76.42-9,103.21-5.37,35.07-12.52,56.47-21.86,65.42C2377,1194.38,2372.46,1195.4,2369.19,1195.4Z"/><g class="cls-7"><path class="cls-4" d="M2414.18,913.74a107.54,107.54,0,0,1-2.52-23.35c0-36.7,17.67-66.45,39.47-66.45a24.51,24.51,0,0,1,9.28,1.86c3.54-99.33,39.71-177.41,83.8-177.41,42,0,76.81,70.83,83.09,163.39,31.24,25.51,52.66,77.76,52.66,138.07,0,28.75-4.88,55.67-13.36,78.74,29,21.48,47.47,53.88,47.47,90.13,0,64.69-58.81,117.14-131.34,117.14-54.3,0-100.9-29.39-120.9-71.3a62.71,62.71,0,0,1-17.18,2.42c-49.37,0-89.39-58.43-89.39-130.51C2355.26,980,2379.82,931.94,2414.18,913.74Z"/><path class="cls-5" d="M2693.1,1055.21A90.28,90.28,0,0,1,2677,988a246.06,246.06,0,0,0,2.95-38.18q0-10.86-.91-21.32c-121.33,8.34-116.5,130-116.5,130s-100.36-42.26-133.81,17.27,33.09,88.77,33.09,88.77c20,41.91,66.6,71.3,120.9,71.3,72.53,0,131.34-52.45,131.34-117.14A107.71,107.71,0,0,0,2693.1,1055.21Z"/><path class="cls-6" d="M2542.9,1488c-3.42,0-6.19,0-6.19-3.42V963.1a6.2,6.2,0,0,1,12.39,0v521.43C2549.1,1488,2546.32,1488,2542.9,1488Z"/><path class="cls-6" d="M2542.9,1137.14c-17.58,0-32.44-6.26-44.19-18.61-32.84-34.55-29.69-105.11-29.54-108.09a6.2,6.2,0,0,1,12.38.62c0,.73-3,68.29,26.16,99,9.44,9.92,20.95,14.74,35.19,14.74a6.2,6.2,0,1,1,0,12.39Z"/><path class="cls-6" d="M2547.88,1339.8c-.41,0-.82,0-1.24,0a6.2,6.2,0,1,1,.76-12.37c2.36.15,4.72-.86,7.21-3.09,7.65-6.85,22.17-31,33.47-115.58,6.53-48.91,8.77-94.53,8.79-95a6.2,6.2,0,0,1,12.38.6c0,.46-2.29,46.6-8.89,96-3.89,29.15-8.51,53.76-13.73,73.17-6.85,25.46-14.62,41.81-23.75,50C2558.23,1337.69,2553.19,1339.8,2547.88,1339.8Z"/></g><path class="cls-5" d="M2233.1,1414c-81.28,27.61-230.9,98.55-402.74,50.37s-375.35-6.19-631,45.89c-1.24.25-2.5.48-3.75.72l1418.71-2C2505.27,1385.75,2358.1,1371.54,2233.1,1414Z"/><path class="cls-8" d="M686.24,40.12h13.9L700,39,695.82,2.09A2.37,2.37,0,0,0,693.47,0,3.25,3.25,0,0,0,693,0,3.75,3.75,0,0,0,691,1a3.69,3.69,0,0,0-1.19,2.39Z"/><path class="cls-9" d="M698.79,31.74h.5L695.82,2.09A2.37,2.37,0,0,0,693.47,0,3.25,3.25,0,0,0,693,0a4,4,0,0,0-.37.34,3.62,3.62,0,0,0-1,2.48l-.21,21.32A7.51,7.51,0,0,0,698.79,31.74Z"/><rect class="cls-8" x="677.39" y="204.52" width="26.79" height="1179.36"/><rect class="cls-9" x="691.81" y="204.52" width="12.37" height="1179.36"/><rect class="cls-8" x="648.12" y="1195.68" width="85.34" height="312.04"/><rect class="cls-9" x="682.59" y="1195.68" width="50.87" height="312.04"/><path class="cls-8" d="M644.15,57.92c0,14.57,22,26.38,49,26.38,2.07,0,4.1-.06,6.1-.2,24.2-1.62,42.94-12.72,42.94-26.18s-18.74-24.56-42.94-26.17c-2-.14-4-.2-6.1-.2C666.1,31.55,644.15,43.35,644.15,57.92Z"/><polygon class="cls-9" points="648.22 227.78 733.55 227.78 763.64 83.36 622.74 83.36 648.22 227.78"/><rect class="cls-8" x="615.13" y="72.48" width="156.13" height="13.85"/><path class="cls-8" d="M719.48,1195.68H665l8-24.13a5.23,5.23,0,0,1,5-3.59h25.55a6.84,6.84,0,0,1,6.32,4.23Z"/><path class="cls-9" d="M669.22,56.65h.37c.84-11.19,12.84-20.72,29.7-24.9,23.44,1.56,41.75,12,42.88,24.9h8l11.15,15.83h10V86.34H673.11V72.48H658.64Z"/><polygon class="cls-10" points="753.56 90.4 633.22 90.4 656.72 220.21 725.82 220.21 753.56 90.4"/><path class="cls-10" d="M739,59.48s-9.17-20-27.27-19.36c0,0,11.52,10.22,10.46,19.36S739,59.48,739,59.48Z"/><polygon class="cls-8" points="625.1 72.48 761.28 72.48 750.13 56.65 635.69 56.65 625.1 72.48"/><polygon class="cls-11" points="745.57 94.93 717.99 94.93 709.96 216.15 717.99 216.15 745.57 94.93"/><polygon class="cls-8" points="1855.09 1509.27 2045.04 1509.27 2073.72 1153.82 1826.41 1153.82 1855.09 1509.27"/><path class="cls-9" d="M2025.92,1488.37h0a3.83,3.83,0,0,0,3.83-3.83V1179.75a3.82,3.82,0,0,0-3.83-3.82h0a3.82,3.82,0,0,0-3.82,3.82v304.79A3.83,3.83,0,0,0,2025.92,1488.37Z"/><path class="cls-9" d="M2005.37,1488.37h0a3.83,3.83,0,0,0,3.83-3.83V1179.75a3.82,3.82,0,0,0-3.83-3.82h0a3.82,3.82,0,0,0-3.82,3.82v304.79A3.83,3.83,0,0,0,2005.37,1488.37Z"/><path class="cls-9" d="M1984.82,1488.37h0a3.84,3.84,0,0,0,3.83-3.83V1179.75a3.83,3.83,0,0,0-3.83-3.82h0a3.82,3.82,0,0,0-3.82,3.82v304.79A3.83,3.83,0,0,0,1984.82,1488.37Z"/><path class="cls-9" d="M1964.27,1488.37h0a3.84,3.84,0,0,0,3.83-3.83V1179.75a3.83,3.83,0,0,0-3.83-3.82h0a3.82,3.82,0,0,0-3.82,3.82v304.79A3.83,3.83,0,0,0,1964.27,1488.37Z"/><path class="cls-9" d="M1943.72,1488.37h0a3.83,3.83,0,0,0,3.82-3.83V1179.75a3.82,3.82,0,0,0-3.82-3.82h0a3.82,3.82,0,0,0-3.82,3.82v304.79A3.83,3.83,0,0,0,1943.72,1488.37Z"/><path class="cls-9" d="M1923.17,1488.37h0a3.83,3.83,0,0,0,3.82-3.83V1179.75a3.82,3.82,0,0,0-3.82-3.82h0a3.82,3.82,0,0,0-3.82,3.82v304.79A3.83,3.83,0,0,0,1923.17,1488.37Z"/><path class="cls-9" d="M1902.62,1488.37h0a3.83,3.83,0,0,0,3.82-3.83V1179.75a3.82,3.82,0,0,0-3.82-3.82h0a3.82,3.82,0,0,0-3.82,3.82v304.79A3.83,3.83,0,0,0,1902.62,1488.37Z"/><path class="cls-9" d="M1882.07,1488.37h0a3.83,3.83,0,0,0,3.82-3.83V1179.75a3.82,3.82,0,0,0-3.82-3.82h0a3.83,3.83,0,0,0-3.83,3.82v304.79A3.84,3.84,0,0,0,1882.07,1488.37Z"/><path class="cls-12" d="M1688.65,1509.27h28.68v-191c0-72.42,58.92-131.34,131.34-131.34S1980,1245.89,1980,1318.31v191h28.67v-191c0-88.23-71.78-160-160-160s-160,71.79-160,160Z"/><path class="cls-12" d="M865.68,1286.12A14.34,14.34,0,0,0,880,1271.78V914a14.34,14.34,0,0,0-28.68,0v357.77A14.34,14.34,0,0,0,865.68,1286.12Z"/><path class="cls-12" d="M1749.36,1286.12a14.34,14.34,0,0,0,14.33-14.34V914a14.34,14.34,0,1,0-28.67,0v357.77A14.34,14.34,0,0,0,1749.36,1286.12Z"/><rect class="cls-13" x="788.68" y="1140.44" width="1056.28" height="88.32" rx="13.08" transform="translate(2633.65 2369.21) rotate(180)"/><path class="cls-13" d="M839.25,1289.74H1971.18a18,18,0,0,0,18-18h0a18,18,0,0,0-18-18H839.25Z"/><rect class="cls-13" x="781.39" y="1036.28" width="1056.28" height="88.32" rx="13.08" transform="translate(2619.07 2160.87) rotate(180)"/><rect class="cls-13" x="771.58" y="928.33" width="1056.28" height="88.32" rx="13.08" transform="translate(2599.44 1944.99) rotate(180)"/><path class="cls-12" d="M824.17,1509.27h28.67v-191c0-72.42,58.92-131.34,131.35-131.34s131.34,58.92,131.34,131.34v191h28.68v-191c0-88.23-71.79-160-160-160s-160,71.79-160,160Z"/><path class="cls-4" d="M1054.57,1471.86c-139.63,43.5-286.34-9-554.82-51s-375.56,90.25-375.56,90.25L1429.7,1511C1389.2,1470.63,1194.21,1428.36,1054.57,1471.86Z"/><path class="cls-14" d="M1355.52,905.41c3.68-5.29,8.4-15,12.81-32.85-.52,1.76-7.29,24.13-18.14,35.67-39.9,18-121.73,86.11-122.75,101.33,0,0-17.8-45.24-18.18-45.55,0,0-35.87-64.36,22.66-88.63,29.75-12.34,33-33.73,34.84-52.48s23.07-97.3,74-67.74c0,0,9.32-2.48,13.13-1.28,0,0-3.28.1-5.17,1.51,6.35.63,15.27,2.53,22.1,8C1388.93,777.86,1390.58,882.13,1355.52,905.41Z"/><path class="cls-15" d="M1348.72,890.43s11,44.6,11.4,60.61c.12,5.12,3.47,18,8.45,33.35,10.57,32.67,28.52,76.6,38.48,81.29,5.28,2.5,10.54,5,15.18,6.58,8.24,2.9,14.54,3.26,15.54-3.17,1.57-10.07-22-140.73-31.34-154.06S1348.72,890.43,1348.72,890.43Z"/><path class="cls-16" d="M1368.12,1440a8.16,8.16,0,0,0-1.45,8.73.06.06,0,0,0,0,0c2.11,5.82,9.07,12.32,17.15,18.81,1,.83,2,1.59,2.75,2.3.21.18.42.36.62.55l.48.43c7.54,7,4.7,8.54,18.24,22.64,15.45,16.07,26.08,16.36,29.1,14.9,2.56-1.25-2.64-9.77-8.4-19.35-.28-.46-.55-.93-.84-1.4-.77-1.27-1.53-2.56-2.29-3.85-6.75-11.52-5-16.93-3.42-34.09,1.3-13.94,21.69-77.89,21.69-77.89l-29.59-5.09s-8.92,50.91-18.74,58.76c-5.25,4.18-11.12,4.23-16.17,7.33q-.54.32-1,.66A38.66,38.66,0,0,0,1368.12,1440Z"/><path class="cls-17" d="M1368.12,1440a8.16,8.16,0,0,0-1.45,8.73.06.06,0,0,0,0,0c2.58,5.81,9.36,12.28,17.18,18.75,1,.85,1.92,1.63,2.72,2.36.21.18.42.36.62.55l.48.43c7.54,7,4.7,8.54,18.24,22.64,15.45,16.07,26.08,16.36,29.1,14.9,2.56-1.25-2.64-9.77-8.4-19.35a65.83,65.83,0,0,1-27.53-20.29c-9.3-11.86-15.5-27.11-21.83-35.94q-.54.32-1,.66A38.66,38.66,0,0,0,1368.12,1440Z"/><path class="cls-16" d="M1606.87,1422.86c1.82,9.14,14.85,7.61,29.39,4.06s11.09.67,31.8-1.62,27-10,27.61-13.09c.56-2.73-9.67-3.7-20.64-5l-4.15-.5c-12.39-1.55-21.47-9.55-32.72-16.11-10.66-6.22-26.57-31.56-26.57-31.56l-28.39,2.25s14.9,22.63,20.66,32.47c3.39,5.79,3.21,13.44,2.79,19.35A36.32,36.32,0,0,0,1606.87,1422.86Z"/><path class="cls-17" d="M1636.26,1426.92c14.55-3.56,11.09.67,31.8-1.62s27-10,27.61-13.09c.56-2.73-9.67-3.7-20.64-5l-.1.21a58.46,58.46,0,0,1-29.66,9.22c-14,.34-28.92-3.69-38.62-3.53a36.32,36.32,0,0,0,.22,9.71C1608.69,1432,1621.72,1430.47,1636.26,1426.92Z"/><path class="cls-18" d="M1498.05,1241.29l-61.2,164.7a56,56,0,0,1-18.42-1.69c-8.29-2.39-17.79-8.67-17.79-8.67s15.18-158.13,43-191S1498.05,1241.29,1498.05,1241.29Z"/><path class="cls-19" d="M1256,1174.66s175.85-59.46,215.07-46.8,157,246.92,157,246.92-2.66,3.54-9.91,6.26c-6.75,2.53-23.08,2.36-23.08,2.36s-106.27-91.08-118.92-117.65-17.71-51.87-30.36-49.34-163.2,62-197.36,26.57-25.22-81.45-25.22-81.45Z"/><path class="cls-16" d="M1314.47,911.82c12.54,6.57,32.31,1.52,32.15,1.4-2.07-1.57-.58-11.08,1.67-20.93.14-.62.28-1.24.43-1.86,2.62-11.16,6-22.16,6-22.16l-38.63-16.93-2.3-1c-.2.9-.4,1.79-.6,2.65-6.71,28.49-14.88,33.51-18.55,37.44C1289.56,895.81,1302.68,905.63,1314.47,911.82Z"/><path class="cls-20" d="M1313.15,853c4.27,13.72,13.24,30.3,35.85,36.25,2.62-11.15,5.68-21,5.68-21l-38.63-16.93-2.3-1C1313.55,851.23,1313.35,852.12,1313.15,853Z"/><path class="cls-14" d="M1310.8,844.34s-8.8-20.46-9.1-36.81c-.21-11.67,12.28-52.83,53.59-40a58.07,58.07,0,0,1,22.39,12.8c8.19,7.66,19.31,23.15-1.35,57.51l-5.83,11.79Z"/><path class="cls-21" d="M1368.57,984.39c10.57,32.67,28.52,76.6,38.48,81.29,5.28,2.5,10.54,5,15.18,6.58-1.25-26-51-96.88-51-96.88Z"/><path class="cls-16" d="M1358.82,876.17s-53.27-7.59-48-40.69,1.89-56.37,36.12-52.92,38.83,17.11,39.77,28.59S1372.81,877.29,1358.82,876.17Z"/><path class="cls-14" d="M1371.23,785.6s-20.73,36.51-44,38.69-32-5.34-32-5.34a201.44,201.44,0,0,1,8.64-42.43S1363.2,765.37,1371.23,785.6Z"/><path class="cls-14" d="M1367.12,788.18s9.48,10.4,10.79,19.25-.27,26.38,4.88,26.6c0,0,15.17-24.64,5.23-41.53C1377.48,774.58,1367.12,788.18,1367.12,788.18Z"/><path class="cls-15" d="M1213.6,1166.73q0,1.15,0,2.25a21.63,21.63,0,0,0,1.15,6.61c2.56,7.11,9.77,9.56,19.61,9.07,1.33-.06,2.7-.18,4.11-.34,22.74-2.65,56.52-17.92,80.86-28.48,37.11-16.09,54-1,65.79-11.21a8.7,8.7,0,0,0,2.76-4.25,10.71,10.71,0,0,0,.29-1.18c2.43-13.11-13.38-42.84,5.38-133.28,7.44-35.85-44.83-115.49-44.83-115.49s-5.24,22.55-50.89-3.23c-.29-.16-12.48,26.84-29.57,59.24-18.84,35.74-36.9,78.92-31.58,101.17,5.87,24.63-5.32,55.92-14.08,82.41C1217.9,1144.22,1213.9,1157.05,1213.6,1166.73Z"/><path class="cls-21" d="M1213.6,1166.73q0,1.15,0,2.25a21.63,21.63,0,0,0,1.15,6.61c2.56,7.11,9.77,9.56,19.61,9.07,1.33-.06,2.7-.18,4.11-.34,22.74-2.65,56.52-17.92,80.86-28.48,37.11-16.09,53.39-1.31,66.11-10.4,3.5-2.5,2.7-9,3.19-10.63-20.28-11.2-70.6-2.11-47.3-51.64,11.89-25.26-47.88-97-64.17-69.53-24.6,36.11-43.66,11.9-36.72,34.38,7.54,24.49-6.5,55.51-17.84,82C1217.9,1144.22,1213.9,1157.05,1213.6,1166.73Z"/><polygon class="cls-14" points="1437.77 1069.08 1402.42 1137.77 1331.84 1134.44 1365.32 1061.08 1437.77 1069.08"/><path class="cls-21" d="M1451.88,1086.33s8,22.53,5.55,32.67c-1.81,7.6-15,8.21-30.72,10.15-6.34,1.18-11.5,1.7-11.5,1.7Z"/><polygon class="cls-17" points="1474.45 1043.74 1437.77 1069.08 1402.42 1137.77 1443.11 1115.77 1474.45 1043.74"/><polygon class="cls-22" points="1468.5 1047.85 1464.03 1043.74 1435.27 1063.66 1437.77 1069.08 1468.5 1047.85"/><polygon class="cls-23" points="1437.77 1069.08 1435.27 1063.66 1371.25 1056.41 1371.25 1061.73 1437.77 1069.08"/><polygon class="cls-22" points="1371.25 1056.41 1367.61 1061.33 1371.25 1061.73 1371.25 1056.41"/><path class="cls-16" d="M1331.44,1112.54s8.38-11.74,19.29-12.79,18.07,4.51,18.62,7.87-2.18,14.07-9.82,17.23-31.76,4.19-31.76,4.19Z"/><path class="cls-16" d="M1457.48,1111.79s-6.08-11.41-15.19-12.27-15.6,4.72-16.36,8,.36,14.6,6.84,16.79C1462.73,1134.45,1457.48,1111.79,1457.48,1111.79Z"/><path class="cls-15" d="M1297.83,887.2s-37,4.21-52.16,25.38c-21.37,29.8-58.27,199.51-34,216.46,28.61,20,123.5,1.94,123.5,1.94s.75-11.13-3.75-18.44-79.37-13.74-82.74-17.12,42-114.81,42-124.93S1297.83,887.2,1297.83,887.2Z"/><rect class="cls-24" y="1505.55" width="2802.74" height="8.94" rx="3.34"/></g></g></svg>