<svg xmlns="http://www.w3.org/2000/svg" viewBox="0 0 2552.38 1659.81"><defs><style>.cls-1{fill:#fcecdb;}.cls-2{fill:#2c3a64;}.cls-3{fill:#ffb27d;}.cls-4{fill:#ed985f;}.cls-5{fill:#f99746;}.cls-6{fill:#ed7d2b;}.cls-7{fill:#233862;}.cls-8{fill:#f8a871;}.cls-9{fill:#2b478b;}.cls-10{fill:#ffe8dc;}.cls-11{fill:#db8952;}.cls-12{fill:#699dee;}.cls-13{fill:#82b378;}.cls-14{fill:#a8d29f;}.cls-15{fill:#2e3552;}</style></defs><g id="Capa_2" data-name="Capa 2"><g id="Слой_2" data-name="Слой 2"><path class="cls-1" d="M2264,1656.42s51.45-562.05-475.63-562.05c-569.43,0-237-327.76-613.47-422.48-332.23-83.61-544.47,278.39-406.19,505.85,99.52,163.72-306.73,254.46-258.15,482.06Z"/><path class="cls-1" d="M2265.32,821.33c0,80.37-58.29,131.14-135.62,161.85a481.78,481.78,0,0,1-55.44,18c-40.9,10.73-84.2,17.23-125.33,20.58-24.45,2-48.14,2.87-70.11,2.87-47.3,0-88.23-8.5-123.32-23.45-125.84-53.62-176.63-190.32-176.63-316.3,0-161.12,145.89-208.28,300-225.58C2190.68,424.28,2265.32,660.22,2265.32,821.33Z"/><path class="cls-1" d="M1350.71,573.45a365.77,365.77,0,0,1-49.75-6.38c-43.12-8.44-84.8-10.87-124.14-10.81-162.53.23-285.31,42.84-305.83-120.59C850.06,269,1051.68,66.43,1199.05,12.55c173.1-63.28,327.22,125.06,363.59,289.44C1595.92,452.43,1520.77,583.1,1350.71,573.45Z"/><path class="cls-1" d="M685.23,1190.48c0,116.83-103.63,180-230,193.78l-2.54.28q-11.73,1.21-23.7,1.87h0q-13.9.75-28,.75H399.3a411.59,411.59,0,0,1-48.53-3c-180.26-21.94-273.46-161.25-273.46-283.59,0-133.22,175-227.88,323.65-195.87C547.13,936.19,685.23,1057.26,685.23,1190.48Z"/><path class="cls-1" d="M817.08,564c0,157.61-141.34,242-312.44,259.15-21.88,2.19-44.24,3.28-66.86,3.28q-6.39,0-12.68-.14h-.6q-8.94-.21-17.69-.68a519.07,519.07,0,0,1-69.34-8.33,467.33,467.33,0,0,1-55.29-14q-7.49-2.4-14.78-5C94.74,736.1,5.93,582,5.93,444.05,5.93,266.29,239.44,140,437.78,182.7,632.81,224.7,817.08,386.24,817.08,564Z"/><path class="cls-2" d="M1256,843.92c-2.67-4.83-33.28-55.87-115.36-17.81,0,0,42.07-15.35,57.75-1.37,0,0-37.93-7.89-56.42,10.18s-11.91,63.15-5.62,75.89,39.19,47.43,54.91,43.84c6-1.36,11.87-4.79,16.92-8.54a212.1,212.1,0,0,0-1,24.83c1.25,82.39,67.13,130.18,90.78,109.25,15.16-13.43,35.2,13.9,35.2,13.9l100.26-223.43S1305.69,773.15,1256,843.92Z"/><path class="cls-3" d="M1489.74,1308.06c-21,14.58-47.37,26.6-80.45,34.23-124,28.66-171.52-76.15-189.37-148.09,16.91-9.68,32.82-11.81,42-12.91,9-1.06,18.39-1.76,26.19-2.15,13.93-10.66,34.68-54.31,39.27-122.08l5.83,1.56,97.73,26.75s-4.48,31.07-6.67,60.43c-1.7,23-2,44.94,2.39,50.31,7.62,1.65,12.2,2.73,12.2,2.73a.36.36,0,0,0,.05.1A629.46,629.46,0,0,1,1489.74,1308.06Z"/><path class="cls-4" d="M1431,1085.39s-4.49,31-6.67,60.43c-55.36-5.55-81.06-58.26-91.06-87.18Z"/><path class="cls-3" d="M1461.17,1096.14s-127.81,31.42-146.16-48.48S1267.82,918,1348.66,894.57,1452.4,898,1465,923.15,1494,1085.91,1461.17,1096.14Z"/><path class="cls-2" d="M1451,879.58c-25.32-19.51-39.1-10.81-45.85-1.66-78.93-22.54-111.1,44.78-111.1,44.78,4.52,59.3-29.33,101.6-29.33,101.6s26.68,9.1,77.43-17.08c15.5-8,27.52-23.05,36.78-40.1-13.46,41.55-37.14,74.68-37.14,74.68,57.59-44.47,63-139.94,63.41-150,9.44,5.24,28.37,17,36.49,30.9,11,18.89,23.49,60.13,35.38,55.91C1477.11,978.61,1489,908.84,1451,879.58Z"/><path class="cls-5" d="M1489.73,1209.07c-17.85-9.5-40.81-16.54-65.79-21.73,0,0-12.88,33.16-52.12,32.45-37.29-.69-74.18-41.93-77.77-46-42.72-1.37-74.13,0-74.13,0s-90,140.8-78.84,173.41a574.55,574.55,0,0,1,17.62,63.37c20.93,96,14.31,179.71,9,218.88-2,15.15-3.92,23.65-3.92,23.65l283.41,6.58s23.49-83.59,40.89-154.91c.53-2.14,1-4.28,1.56-6.39,11.8,24.32,45.28,60.89,60.43,63.76.92.17,5.16.27,11.28.32,22.69.19,66.59.49,66.59.49C1636.36,1495.69,1526.59,1225.06,1489.73,1209.07Z"/><path class="cls-6" d="M1167.68,1629.39c5.33-39.17,12-122.83-9-218.88.09-1.11.13-1.7.13-1.7s77.53,74.07,90.93,151.52C1258.9,1613.2,1203.08,1627,1167.68,1629.39Z"/><path class="cls-3" d="M1387.49,1560.33c-1.61-5.11-27.34-31.33-41.27-34.55s-59.93,7.37-59.93,7.37h0A1197,1197,0,0,1,1116.43,1497c-13.43-3.9-27.2-8.16-41.19-12.84l116.11-104.68,102.7-205.73s-87.09-6.87-109.13,6.27c-79.31,47.27-226.26,323.17-223.47,380.31,0,0,37.22,2.05,105.21,2.91,52.24.68,122.65.64,208.29-1.55a176.67,176.67,0,0,0,19.3-1.36Z"/><path class="cls-5" d="M1191.35,1379.48,1088.94,1485.4c10.09,3.82,20.62,9.27,27.49,11.6,0,0-9.36,40.28-49.77,66.24-68-.86-105.21-2.91-105.21-2.91-2.79-57.14,144.16-333,223.47-380.31,22-13.14,109.13-6.27,109.13-6.27Z"/><path class="cls-6" d="M1627.92,1562.89c-6.12-.05-77-.64-77.87-.81-15.15-2.87-48.63-39.44-60.43-63.76-.52,2.11,3.75-23,7.71-33.21a289.43,289.43,0,0,1,20-40.61C1558,1418.37,1628,1524.23,1627.92,1562.89Z"/><path class="cls-3" d="M1625.51,1499a2410.48,2410.48,0,0,0-66.21-323.11l-.23,0c-2.23-8.6-19.82-75.77-27.17-83.13-7.86-7.86-49.31-24.33-56.45-26.1a9,9,0,0,0,3.12,8.5,72.13,72.13,0,0,0,6.55,4.7l-9.81,5.28a12.07,12.07,0,0,0,9.17,2.41,69.56,69.56,0,0,0,9.2-2.28c2,1.25,4,2.44,5.87,3.51,3.09,2.92,6.75,6.61,7.06,7.93.38,1.56,1.71,8.44,2.54,12.78a20.63,20.63,0,0,1-3.68-4c-3.93-6.07-12.15-5.45-12.15-5.45s11.25,14.14,12.32,23.3c1.62,14,9.41,21.26,9.41,21.26h0c2.86,3.37,6.89,6.39,10.29,13.46,2.5,5.17,3.48,15.07,4.17,20.77h0c1.68,20.6,7.46,96.54,5.88,152.45-2.12,75.25-9.25,142.7-.79,184.55,2.19,10.84,5.41,20,10,27.06,18.45,28.29,83.28,20,83.28,20S1630.71,1538.42,1625.51,1499Z"/><path class="cls-5" d="M1627.92,1562.89s-64.83,8.26-83.28-20c-4.63-7.1-7.85-16.22-10-27.06,13.9,3.49,52,9.37,90.91-16.78C1630.71,1538.42,1627.92,1562.89,1627.92,1562.89Z"/><path class="cls-3" d="M449,451.14c-9.4-.91-18.28-1.47-26.65-1.74a18,18,0,0,1-16.29-11.71,180.4,180.4,0,0,1-9.71-43.85l-3.28,1-55.28,17.18s3.17,17.63,5,34.36c.23,2,.43,4.11.61,6.13a5.56,5.56,0,0,1-4,5.8c-26.5,7.83-37.43,17.87-37.43,17.87s7.42,96.5,43.48,206.87c3.47,10.63-49.51,74.27-49.51,74.27,12.91,41.34,188.86-17.75,188.86-17.75s-12-36.56,3.67-125.9C506.78,509.5,449,451.14,449,451.14Z"/><path class="cls-3" d="M449,451.14s55.38,6.74,86.76,164.49c0,0,8.53,45.74-8.52,51.17S421.92,569.59,449,451.14Z"/><path class="cls-7" d="M362.62,358.67s35.55,12.67,16.07,52.45c0,0,29.06-.45,35.18-9.62a23.25,23.25,0,0,1-1.65,5.66s27.25-7.27,35.81-19.08S407.29,240.52,337.17,278.81c0,0-64.88,14.6-36.55,86.18s4.39,78.9,4.39,78.9,7.67,1.24,10.88.26c0,0,4.15-3.23,4.29-6.11,0,0,.32,4.37-.49,6,0,0,26.59-5.45,36.52-19.15S370.93,372.69,362.62,358.67Z"/><path class="cls-4" d="M337.79,412.05s3.87,24.69,5.68,41.43c28.94-23.31,32.5-44.15,37.65-60.86Z"/><path class="cls-7" d="M380.13,394.15s13.78-27.92,15.38-50.72c1.14-16.27,10.61-83.94-48-69.09,0,0-41,12.87-56.07,25.56-12,10.1-28.63,30.92-2.3,80.36l7.27,16.88Z"/><path class="cls-3" d="M329,436.57s72.26-20.79,58.62-65.59-13.49-77.66-60.21-66.28S276.94,335.89,277.86,352,309.81,440.82,329,436.57Z"/><path class="cls-7" d="M300.48,316.38s-11.12,16.23-11.22,28.73,5.46,36.47-1.62,37.76c0,0-25.75-31.18-15.25-56.48C283.51,299.57,300.48,316.38,300.48,316.38Z"/><path class="cls-8" d="M510.55,613.7s.19-57.53-10.45-64.43S486,615.11,510.55,613.7Z"/><path class="cls-9" d="M329.12,461.74s46.95,65.33,90,61.84c0,0,16.72-47.9,2-74.26,0,0,11,.36,14.81.6,3.2.2,13.11,1.22,13.11,1.22l40.78,69.74a84.37,84.37,0,0,1,10.79,53.67l-15.76,118.6s-42.64,27.91-139.35-10.07l-27.24-93.8Z"/><path class="cls-3" d="M489.47,542.37a8,8,0,0,1-.51,1.83c-.08.25-.18.52-.28.81-.21.59-.46,1.27-.75,2a2.5,2.5,0,0,1-.09.25c-8.42,22.11-48,111.92-87.79,136.53a26.16,26.16,0,0,1-6.71,4.41l-.83.34c-.3.12-.61.24-.91.34a3,3,0,0,1-.39.14,20.67,20.67,0,0,1-6.43,1c-.54,0-1.1,0-1.66-.06-20.64-1.54-108.88-129.32-110.54-168.17C271.51,497,302,476.21,302,476.21c31.08,16.34,61.19,67.69,82.32,112.07,4.37,9.18,8.35,18.08,11.87,26.3,40.17-38.14,72.15-82.93,72.15-82.93Z"/><path class="cls-5" d="M488.71,752.27c-2.35-8.07-3.91-12.67-3.91-12.67S365.05,746,334.89,706l0,0,0,0c-.36.33-5.69,5.36-13.5,13.93l-.07.08a367.92,367.92,0,0,0-36,46.42,266.05,266.05,0,0,0-17.84,31.78q7.29,2.64,14.78,5a467.33,467.33,0,0,0,55.29,14,519.07,519.07,0,0,0,69.34,8.33c5.83.32,26.71.83,31,.83,22.62,0,45-1.09,66.86-3.28A600.87,600.87,0,0,0,488.71,752.27Z"/><path class="cls-4" d="M396.18,614.58c-19.82,27.62-57.11-26-58.39-28l9.6-8.14s21.46,2.66,36.91,9.85C388.68,597.46,392.65,606.36,396.18,614.58Z"/><path class="cls-10" d="M311.42,413.93s7.79-7.47,25-8.85c0,0-.26,7.37-10,10.91S311.42,413.93,311.42,413.93Z"/><path class="cls-7" d="M336.24,279.75l-40.7,37.33s30.84,50.73,74.34,56.71c0,0-22.36-10.23-41.19-27.87,11.76,8.16,24.78,14.41,36.66,13.87,9.72.47,24,39.58-3.07,49.41,0,0,36.1,3.8,48.83-9.62a23.21,23.21,0,0,1-1.64,5.67s27.26-7.27,35.81-19.09S406.35,241.46,336.24,279.75Z"/><path class="cls-9" d="M329.12,461.74s-49,16.78-59.74,37.42,7.7,73.84,29.87,100.58c0,0,54.92-.58,80.7-40.5C380,559.24,339.15,470.65,329.12,461.74Z"/><path class="cls-9" d="M449,451.14s32.81,2.09,54.16,48.6c0,0,1.21,32.17-24,33S449,451.14,449,451.14Z"/><path class="cls-3" d="M496.11,600.5c-23-6.33-44.68-12.57-64.26-18.36-55.71-16.48-94.06-29.21-94.06-29.21l-.12.16.12-.16S324.28,540.12,323.48,534c-.73-5.51-15-8.37-24.6-11.24a1.57,1.57,0,0,0-1.88,2.17c1.08,2.29,4.95,6,8.82,7.26,6.81,2.25-6.88,6.69-17.56.85-6.61-3.61-18.12-15.66-21.7-11.22s.5,27.48,9.63,37.21c6.07,6.48,36.26,6.59,47.29,12.79h0c87.86,40.7,151.44,114.18,203.76,95C527.24,666.8,538.66,612.22,496.11,600.5Z"/><path class="cls-8" d="M431.85,582.14l-19.73,18.31s-77.27-39.69-74.75-47a1.13,1.13,0,0,1,.42-.54S376.14,565.66,431.85,582.14Z"/><path class="cls-3" d="M468.32,531.65s6.53-17.44,4.58-23.28c-1.89-5.63,12-13.64,19.27-20.46a.57.57,0,0,1,.95.37,11.77,11.77,0,0,1-3.87,9.26c-5.14,5,1.88,6.1,6.59.23s-5.16-17.89,0-15.47,21.57,16.29,19.83,25-19,24.66-26.2,35.07Z"/><path class="cls-6" d="M321.28,720S380,776.9,488.71,752.27l-5.76-21s-93.41,25.58-144.14-31.44Z"/><path class="cls-5" d="M520.13,376.14s26.89-21.52,42.28-3.22S509.67,417,509.67,417s-29.93-54.73-13.36-59.4S520.13,376.14,520.13,376.14Z"/><path class="cls-5" d="M231,252.83s3.56-19.93,17.46-17.79S242.22,275,242.22,275s-34.44-12.63-28.91-21.11S231,252.83,231,252.83Z"/><path class="cls-5" d="M236.55,433s-5-22.4,10.47-26.24S258,451.29,258,451.29s-41.52,1.86-39.46-9.42S236.55,433,236.55,433Z"/><path class="cls-4" d="M489.47,542.37a8,8,0,0,1-.51,1.83c-.08.25-.18.52-.28.81-.21.59-.46,1.27-.75,2a2.5,2.5,0,0,1-.09.25c-8.86,23.48-52.48,123.14-94.5,140.94l-.83.34c-.3.12-.61.24-.91.34a3,3,0,0,1-.39.14,20.67,20.67,0,0,1-6.43,1C369.72,677.44,489.47,542.37,489.47,542.37Z"/><path class="cls-3" d="M441.92,1366.1c-5.84-10.52-9.88-19.67-8.64-25.54v0c.19-.92.44-2.7.75-5.14,1.17-9.06,3.25-27.1,6.72-43,.45-2.11.94-4.18,1.45-6.18h0c.32-1.29.66-2.54,1-3.77a48.85,48.85,0,0,0,1.74-9.61c1.69-20.59-10.2-37.82-22.28-47.77a57.67,57.67,0,0,0-4.76-3.56c-4.59-3.07-8.94-5-12.29-5.52-3.14-2.75-7.31-13.81-10.7-24.18-1.28-3.91-2.44-7.71-3.4-10.94l-.09-.31c-1.06-3.58-1.85-6.42-2.24-7.83h0l-.26-1-.89.56-3.67,2.32h0l-9,5.71-14,8.86a.36.36,0,0,0,0,.1,44.85,44.85,0,0,1,1,4.41c.13.81.25,1.64.35,2.48.31,2.42.5,4.93.6,7.42v0c.08,1.85.11,3.69.11,5.46a6.87,6.87,0,0,1-7.19,6.86H356c-7.8-.35-16.45-.45-20.95,0-8.5.87-17.69,2.16-27.88,3.07l-.21,0a230.72,230.72,0,0,1-38.73.44l1.85-85.74s8.83-8.69,9.35-13.36.86-24.6-2.88-26.65c-1.66-.91-2.09,14.37-3.33,15.18-3.78,2.45-18.36,3.71-16.94,18.74h0c-5,17.49-29.42,104.76-19.23,110.3h0l0,0h0a92.09,92.09,0,0,0,9,5.57c.67.36,1.34.72,2,1.07.39.21.78.41,1.18.6,1.13.58,2.29,1.13,3.45,1.66.65.31,1.3.6,2,.89.91.41,1.83.8,2.76,1.18l1.74.71c1.34.54,2.69,1,4.06,1.54.38.15.76.29,1.15.42.13.06.26.1.4.15l1.33.46h0l2.37.79,2.38.76q2.38.75,4.8,1.42c.6.18,1.2.34,1.8.5l1,.27q1.16.32,2.31.6,2.61.66,5.24,1.26l1.79.4.23,0,2.3.49,2.45.5q2.89.59,5.78,1.08c1.68.29,3.35.57,5,.83,1,.16,2,.32,3,.46l2.78.39c.89.13,1.77.24,2.64.35,1.29.17,2.57.32,3.84.47h0c.56.07,1.11.14,1.66.19l2.19.24,1.47.15c-.41,1.08-.77,2.16-1.07,3.25s-.56,2.11-.76,3.17a.13.13,0,0,0,0,.06,28.9,28.9,0,0,0-.4,8.49c2.82,26.17,23.65,59.68,29.93,81.61a46.66,46.66,0,0,1,1.62,7.72,107.32,107.32,0,0,1,.2,16.39,411.59,411.59,0,0,0,48.53,3H401q14.13,0,28-.75h0q12-.66,23.7-1.87C449,1378.19,445.16,1371.94,441.92,1366.1Z"/><path class="cls-7" d="M375.26,1149.21s21.56,7.68,9.74,31.8c0,0,17.62-.27,21.33-5.83a14.14,14.14,0,0,1-1,3.43s16.53-4.41,21.72-11.57-24.7-89.47-67.22-66.25c0,0-39.34,8.85-22.16,52.25s2.66,47.84,2.66,47.84,4.65.75,6.6.16c0,0,2.52-2,2.6-3.71a10.65,10.65,0,0,1-.3,3.66s16.13-3.31,22.15-11.61S380.3,1157.71,375.26,1149.21Z"/><path class="cls-4" d="M360.21,1181.57s2.34,15,3.44,25.12c20.29-6.49,22.17-24.8,25.29-34.93Z"/><path class="cls-7" d="M385.88,1170.72s8.35-16.93,9.32-30.75c.69-9.87,6.44-50.89-29.08-41.89,0,0-24.86,7.8-34,15.5-7.27,6.12-17.36,18.74-1.4,48.72l4.41,10.23Z"/><path class="cls-3" d="M354.85,1196.44s43.82-12.61,35.55-39.77-8.18-47.08-36.51-40.19-30.58,18.92-30,28.65S343.24,1199,354.85,1196.44Z"/><path class="cls-7" d="M345.33,1119s-14.49,14.41-14.55,22,3.32,22.11-1,22.89c0,0-15.61-18.9-9.25-34.24C327.3,1113.37,345.33,1119,345.33,1119Z"/><path class="cls-7" d="M359.84,1100.79s-.42.09-1.15.31c1.34,3-22.43,24.05-22.43,24.05s18.7,30.76,45.07,34.39a105.76,105.76,0,0,1-25-16.91c7.13,4.95,15,8.74,22.23,8.42,5.9.29,14.58,24-1.86,30,0,0,21.89,2.3,29.61-5.83a13.94,13.94,0,0,1-1,3.43s16.52-4.41,21.71-11.57S402.34,1077.57,359.84,1100.79Z"/><path class="cls-4" d="M332.81,1264.45c-25.38-1.72-60.78-6.74-86.71-20.86l-9-5.57h0s0,0,0,0c.51.2,3.2,1.25,7.44,2.67,16.53,5.53,56.51,16.62,81.5,4.12C343.79,1235.94,339.86,1250,332.81,1264.45Z"/><path class="cls-4" d="M452.71,1384.54q-11.73,1.21-23.7,1.87h0q-13.9.75-28,.75H399.3a263.25,263.25,0,0,1-12.8-30.57c-2-5.78-3-9.35-3-9.35a107.87,107.87,0,0,1,43.59-11.75q3.51-.17,7-.09c-.31,2.44-.56,4.22-.75,5.14v0c-1.24,5.87,2.8,15,8.64,25.54C445.16,1371.94,449,1378.19,452.71,1384.54Z"/><path class="cls-9" d="M446.89,1249.09c-12.17-21.59-41.26-33.1-41.26-33.1-9.08,28.92-48,44.88-48,44.88C346.47,1242.81,356,1216,356,1216h0s-14.82-3.76-29.82-.53-19.25,3.62-19.25,3.62-2.48,38,13.49,47.79a37.33,37.33,0,0,0-1.54,5.4c-4.22,21.72,21.24,87.53,21.24,87.53,55,3,93.18-19.23,93.18-19.23s13.56-36.78,16.36-65.22C450.72,1264.59,450.23,1255,446.89,1249.09Z"/><polygon class="cls-5" points="298.7 1111.86 298.7 1111.86 343.78 982.26 372.2 1018.08 419.47 927.22 419.47 927.22 374.22 1064.83 344.16 1027.96 298.7 1111.86"/><polygon class="cls-5" points="211.5 1162.2 211.5 1162.2 160.42 1090.94 189.6 1089.29 159.56 1031.14 159.56 1031.14 214.75 1105.45 184.43 1107.57 211.5 1162.2"/><polygon class="cls-5" points="464.69 1179.71 464.69 1179.71 518.78 1110.7 528.54 1138.24 575.93 1093.1 575.93 1093.1 520.08 1166.92 509.54 1138.4 464.69 1179.71"/><path class="cls-2" d="M449.65,1275.34c-2.8,28.44-16.36,65.22-16.36,65.22-20.68-6.62-.38-68.48-.38-68.48C441.8,1271.84,444.85,1272.05,449.65,1275.34Z"/><path class="cls-3" d="M504.93,1324.38h0c-25.82-67.94-67.9-104.84-67.9-104.84-22.87-4.79-29.58,10.39-35,32.51-1.41,5.76,47.79,46.83,68.32,69.37h0l-28.42,44.69L429,1386.41q12-.66,23.7-1.87l2.54-.28C478.7,1360.07,508.78,1327.65,504.93,1324.38Z"/><path class="cls-9" d="M405.63,1216s20.06-2.62,30.79,3.66,34.51,34.81,34.51,34.81-15.29,37-43.29,33.76c0,0-43.11-43.31-32.74-53.72S405.63,1216,405.63,1216Z"/><path class="cls-9" d="M1225.45,258.87s-52,7.55-67.67,25.36-24.54,59.06-8.92,83S1225.45,258.87,1225.45,258.87Z"/><path class="cls-4" d="M1297.11,191.38s-7,29.71,20.53,87.15l-76.9,78.79-6-73.09s10-40.94,6.29-66.79Z"/><path class="cls-7" d="M1267.89,148.43s40.91,14.3,18.8,60.11c0,0,33.37-.7,40.34-11.28a27,27,0,0,1-1.86,6.52s31.25-8.54,41-22.16S1318.38,12.44,1238.12,56.89c0,0-74.42,17.2-41.39,99.21s5.58,90.58,5.58,90.58,8.81,1.38,12.49.23c0,0,4.75-3.74,4.88-7,0,0,.4,5-.52,6.93,0,0,30.51-6.44,41.81-22.24S1277.52,164.46,1267.89,148.43Z"/><path class="cls-11" d="M1240.74,202.78s.74,28.7.33,48c39.69-7.23,47.71-41.16,56-59.42Z"/><path class="cls-7" d="M1283.63,191.35s18.81-30.41,23.14-56.29c3.08-18.48,21.32-94.8-47.28-84.24,0,0-48.28,10.21-66.91,23.08-14.81,10.23-36.12,32.2-11.43,91.61l6.47,20.09Z"/><path class="cls-4" d="M1235.8,240.17s81.07-29.76,61.76-79.95-21.85-87.85-74.42-71-55.21,39.87-52.84,58.2S1214.22,246.62,1235.8,240.17Z"/><path class="cls-7" d="M1196.23,100.28s-12.66,18.71-12.69,33.07,6.53,41.84-1.6,43.37c0,0-29.78-35.63-17.9-64.75C1176.63,81.09,1196.23,100.28,1196.23,100.28Z"/><path class="cls-3" d="M1350.71,573.45a365.77,365.77,0,0,1-49.75-6.38c-43.12-8.44-84.8-10.87-124.14-10.81.15-2.13.25-4.16.28-6.09.35-19.13-8.43-47.18-17.58-77.36h192.17c-6.38,22.56-10.87,41.57-12.59,46.48C1335.09,530.69,1341.39,550.54,1350.71,573.45Z"/><path class="cls-9" d="M1339.1,519.28s-.6.28-1.77.76c-11.28,4.75-75.81,29.18-168.7,11.88,0,0-33-124.87-19.77-164.64,13.14-39.45,74.57-100,75.53-100.89-.56,1.11-24.24,48.48-7.91,84.7,0,0,69.57-38.57,93.68-90.67,0,0,53.92,42.6,74.17,84.32,1,2,1.9,4.05,2.71,6.07C1404.61,394.34,1339.1,519.28,1339.1,519.28Z"/><path class="cls-2" d="M1339.1,519.28s-.6.28-1.77.76c-25.08-34-2.68-139.67-2.68-139.67s26.34-31,49.68-35.63c1,2,1.9,4.05,2.71,6.07C1404.61,394.34,1339.1,519.28,1339.1,519.28Z"/><path class="cls-3" d="M1215.78,235.25s-.09,6-.42,16v0c0,.9-.06,1.83-.1,2.79-1.69,50.61-8.65,187.15-34.74,204a9.79,9.79,0,0,1-6.83,1.62l-1.14-.18a48.76,48.76,0,0,1-9.39-2.39l-.56-.21h0a50.56,50.56,0,0,1-30.74-61.59L1193,230c1.1-4.19,1.75-12.53-5.36-23-5-7.38-5.12-20.63-6.74-29.4s-.21-11.47,2-7.71,5.9,16.33,7.5,15.49-4.1-41.36,4-41.06,21.28,45.56,21,59.37S1215.78,235.25,1215.78,235.25Z"/><path class="cls-4" d="M1215.26,254.05c-1.69,50.61-8.65,187.15-34.74,204a9.79,9.79,0,0,1-6.83,1.62l-1.14-.18a48.76,48.76,0,0,1-9.39-2.39l-.56-.21h0C1136.67,431.1,1206.63,273.22,1215.26,254.05Z"/><path class="cls-3" d="M1340.15,273.76c-8.73-1.15-46.05,56.12-78.88,100.77h0l-16.12-149.12-.93-1.52h.14s2.75-24.64,9-31.89,4-20.92,4.92-29.79-1.19-11.5-3.62-7.62-5.5,16.66-7.67,15.89,0-41.64-10.33-40.93-21.59,46.7-19.53,60.52c1.74,11.69,3.14,26.2,3.54,30.41-11.43,63.4-36.7,218.7-13.78,238.06,1.44,1.22,3.08,2.26,4,2.26,77.23.85,142.84-69.45,172.29-106.91,10.67-13.59,16.61-22.86,16.61-22.86C1404.09,287,1382.92,279.39,1340.15,273.76Z"/><path class="cls-4" d="M1383.21,353.9c-29.45,37.46-95.06,107.76-172.29,106.91a24.36,24.36,0,0,0,2.91-.22c14.67-1.77,33.94-13.74,53.57-29.43,43.84-35,89.44-88.65,89.44-88.65Z"/><path class="cls-9" d="M1310.16,260.42s69.58,4.07,83.71,26c16.14,25.05,16.51,49.7,2.63,96,0,0-86.34-17.23-83.31-80.35Z"/><path class="cls-12" d="M1163.73,209.8c-3.55,2.95-4.36,8.11-1.58,9.72,3,1.74,4.6-2.15,5.53-7a14.77,14.77,0,0,1,4-7.06A27.62,27.62,0,0,0,1163.73,209.8Z"/><path class="cls-12" d="M1112.69,242.93c2.83,2,4.76-1.75,6.11-6.49a14.84,14.84,0,0,1,4.63-6.68,27.36,27.36,0,0,0-8.32,3.62C1111.31,236,1110.06,241.08,1112.69,242.93Z"/><path class="cls-12" d="M1141.1,269.82c-2.55,3.85-1.83,9,1.3,9.77,3.37.79,3.78-3.4,3.27-8.3a14.72,14.72,0,0,1,1.81-7.92A27.13,27.13,0,0,0,1141.1,269.82Z"/><path class="cls-12" d="M1103.58,279.9c-2.75,3.71-2.31,8.92.77,9.83,3.32,1,4-3.19,3.71-8.11a14.78,14.78,0,0,1,2.25-7.81A27.37,27.37,0,0,0,1103.58,279.9Z"/><path class="cls-12" d="M1324.56,222.8a28.28,28.28,0,0,0-8.77-3.5,15.29,15.29,0,0,1,5,6.8c1.55,4.89,3.68,8.71,6.57,6.55C1330.06,230.65,1328.6,225.41,1324.56,222.8Z"/><path class="cls-12" d="M1377.69,241.25a28.17,28.17,0,0,0-9-2.73,15.33,15.33,0,0,1,5.6,6.34c2,4.74,4.43,8.36,7.11,6C1383.86,248.59,1381.94,243.49,1377.69,241.25Z"/><path class="cls-12" d="M1347.89,276.18a15.44,15.44,0,0,1,2.84,8c.07,5.13,1,9.41,4.39,8.18,3.14-1.14,3.26-6.59.15-10.25A28.51,28.51,0,0,0,1347.89,276.18Z"/><path class="cls-12" d="M1395.27,287.93a28.15,28.15,0,0,0-7.68-5.48,15.44,15.44,0,0,1,3.27,7.8c.34,5.12,1.51,9.33,4.82,7.92C1398.76,296.86,1398.58,291.42,1395.27,287.93Z"/><path class="cls-7" d="M1238.13,56.88s-33.12,23.21-49,40.26c0,0,1.64,2,4.55,5.11,0,.66.07,1,.07,1s35.77,58.06,85.77,64.62c0,0-25.75-11.59-47.5-31.71,13.56,9.28,28.56,16.37,42.19,15.67,11.17.48,27.88,45.3-3.19,56.77,0,0,41.49,4.12,56-11.38a26.59,26.59,0,0,1-1.84,6.52s31.25-8.54,41-22.16S1318.38,12.43,1238.13,56.88Z"/><path class="cls-3" d="M1890.14,856.07c-4.13,1.57-18.28,27.57-33.5,54.46l8.94-109.45s5.91-12.07,5.89-17.58,7.3-49,3.61-50.32-22.91,19.37-24.82,28.75c-1.15,5.61,1.39,32,1.39,32h0c-4.11,9.69-54,128.1-60.76,181.44-2,15.42-.28,25.42,7.17,25.76,1.88.08,3.76.06,5.66,0a85.84,85.84,0,0,0,22.18-4.69l.2-.07a107.26,107.26,0,0,0,21-9.4l.45-.26c1.91-1.06,3-1.73,3-1.73v-.08c21.66-13.43,39.18-33.22,51.5-50.1A245.68,245.68,0,0,0,1922.5,902C1934.51,859.31,1903.82,850.86,1890.14,856.07Z"/><path class="cls-7" d="M1930.43,760.59s33.31,5.92,22,44c0,0,25.62-4.71,29.67-13.72a21.21,21.21,0,0,1-.62,5.25s23-10.47,28.83-22.19-57.93-124.4-114.23-80.14c0,0-55.2,22.54-19.52,81.61s15.6,69.1,15.6,69.1,7,0,9.65-1.38c0,0,3.2-3.47,2.89-6,0,0,.93,3.81.46,5.41,0,0,22.7-8.77,29.44-22.36S1939.86,771.75,1930.43,760.59Z"/><path class="cls-3" d="M2001,832.85c2,16.6,1.81,42.62-17.39,47.6-12,3.12-20.66,8.12-27.56,11.48-9.51,4.65-15.73,6.21-23.14-4.44-12.76-18.38-7.88-44.09-7.88-44.09l2.53-.85c-5.88-11.63-11.49-23.76-13.71-31.71l43.2-22.27,4-2.09a147.18,147.18,0,0,0,10.81,11.39c8.92,8.58,22.73,20.08,38.82,27.46Z"/><path class="cls-4" d="M1963.76,886.22l-7.76,5.71c-9.51,4.65-15.73,6.21-23.14-4.44-12.76-18.38-7.88-44.09-7.88-44.09l2.53-.85c-5.88-11.63-11.49-23.76-13.71-31.71l43.2-22.27c2.44,2.65,7.17,7.58,13.71,13.57C1974.85,822,1978.77,857.2,1963.76,886.22Z"/><path class="cls-7" d="M1951.18,789.36s8-26.73,6.07-47.12c-1.41-14.56-3.08-75.79-52.68-54,0,0-34.33,17.46-45.78,30.92-9.1,10.71-20.72,31.58,9.91,71.39l8.93,13.84Z"/><path class="cls-3" d="M1930.54,823.22a128.44,128.44,0,0,1-18.3,11.24c-16.3,6.59-54.55-53.16-57.74-67.23s-2.85-32.13,36.76-49.12c27.9-12,38.51-1.09,48.87,19.52,4.35,8.65,8.66,19,14.2,30.14C1966,791.23,1946.7,811.39,1930.54,823.22Z"/><path class="cls-4" d="M1933.45,821c3.28-28.54-36.19-76-36.19-76s23.28-4,42.87-7.43c4.35,8.65,8.66,19,14.2,30.14C1966,791.23,1949.61,809.2,1933.45,821Z"/><path class="cls-7" d="M1869.21,732.44s-7.41,16-5.65,27,10.25,31.44,4.18,33.63c0,0-27.39-23.74-21.87-47.66C1851.72,720.09,1869.21,732.44,1869.21,732.44Z"/><path class="cls-7" d="M1863.34,730.9s1.5,1.3,4.14,3.37c.11.5.19.8.19.8s34.8,40.27,74.14,39.09c0,0-21.28-5.72-40.55-18.51,11.6,5.46,24,9.05,34.46,6.81,8.67-1,27.14,31.43,4.63,44.14,0,0,32.48-2,41.75-15.75a21,21,0,0,1-.61,5.25s23-10.48,28.82-22.19S1922.09,662,1863.34,730.9Z"/><path class="cls-4" d="M1902.08,934.76c-12.32,16.88-29.84,36.67-51.5,50.1v.08s-1.07.67-3,1.73l-.45.26a107.26,107.26,0,0,1-21,9.4l-.2.07a85.84,85.84,0,0,1-22.18,4.69,60.14,60.14,0,0,0,18.53-7c11-6.19,21-15.43,29.63-25.26,19.35-22.09,31.63-47.17,32.31-47.33Z"/><path class="cls-9" d="M2083.57,850.8s0,0,0,0c-1.8-3.48-3.61-6.79-5.44-9.9-7.93-13.52-16-23.41-24-27.87l0,0h0c-4.38-2.43-12.26-2.66-22.29-1.36h0a255.73,255.73,0,0,0-33.28,7.17h0s-7.71,27.6-19.75,46.27c-3.45,5.35-7.26,10-11.36,13a17.2,17.2,0,0,1-9.53,3.74c-8.4.31-15.62-1.81-21.09-5.7-8.33-5.9-12.6-15.92-10.77-27.66v-.06l1.38-5.76v0h0l0-.1h0c-1.12.29-39.57,10.36-46.82,20.85-7.35,10.64-18.22,35.13-18.22,35.13s16.79,45.72,43.94,52.17c0,0,0,.09,0,.14,1.27,13.4,12,32.14,25.78,50.43,5.28,7,11,14,16.8,20.58,41.13-3.35,84.43-9.85,125.33-20.58a481.78,481.78,0,0,0,55.44-18C2118,936.19,2101.37,885.14,2083.57,850.8Z"/><path class="cls-3" d="M2038.2,814c-5.71,2.3-28,47.25-48.89,85l-42.14-136s-.2-24.53-4-30.34-17.7-18.28-22.92-16.83,1.74,13,2.9,19.86,1.74,10.14,1.16,10.45-4.27-11.74-6-11.16,1.19,15.38,2.35,18.28,9.62,7.79,10.79,13.13c.81,35.27,6.87,245.1,36.78,235.41a3,3,0,0,0,.65-.32c1.85-.91,3.68-1.83,5.47-2.78l.07,0,.08-.05c64.16-34,89.42-93.08,97.64-118.37a122.52,122.52,0,0,0,3.36-12C2089,817.52,2053.8,807.71,2038.2,814Z"/><path class="cls-5" d="M1921.25,614.43a12.8,12.8,0,0,0-9.55-3.91,13.39,13.39,0,0,0-9.72,3.91,13.36,13.36,0,0,0,.1,19.16,13.31,13.31,0,0,0,9.62,4,12.83,12.83,0,0,0,9.55-3.91,14.08,14.08,0,0,0,0-19.26Zm22.87-110.3q-12.39-10.5-30.88-10.49a48.93,48.93,0,0,0-22.5,5.43,39.86,39.86,0,0,0-16.59,15.35,23.69,23.69,0,0,0-3.63,12.21,11.08,11.08,0,0,0,3,7.91,9.86,9.86,0,0,0,7.53,3.14c3.56,0,6.67-1.83,9.34-5.52l7.63-10.31q5.54-5.52,14.68-5.52a20,20,0,0,1,13.06,4.29q5.25,4.29,5.25,12.1c0,6-1.85,10.62-5.54,13.93q-4,3.61-13.73,6.67c-4.82,1.53-8,3.08-9.62,4.67s-2.38,4-2.38,7.15v19.07a14.79,14.79,0,0,0,3,9.53,10.37,10.37,0,0,0,8.59,3.82q9,0,11.24-8.77.77-3,.76-15.64,15.64-3,24.7-13.45t9.06-26.21Q1957.09,515.39,1944.12,504.13Z"/><path class="cls-5" d="M1995.49,623.76a9.41,9.41,0,0,0-5.37-5.36,9.94,9.94,0,0,0-7.7-.1,9.84,9.84,0,0,0-5.36,13,9.8,9.8,0,0,0,5.41,5.44,9.41,9.41,0,0,0,7.57.05,10.34,10.34,0,0,0,5.45-13.07Zm46.72-68.4q-5.45-10.62-18-15.85a35.93,35.93,0,0,0-16.81-2.68,29.4,29.4,0,0,0-15.59,5.73,17.39,17.39,0,0,0-5.91,7.26,8.12,8.12,0,0,0-.24,6.2,7.26,7.26,0,0,0,4.23,4.26c2.41,1,5,.64,7.9-1.1l8.09-4.84q5.31-2.18,11.53.41a14.59,14.59,0,0,1,7.64,6.6c1.58,2.93,1.62,6.16.15,9.7q-2.55,6.09-7.7,7.88-3.74,1.34-11.2.65c-3.72-.33-6.33-.18-7.86.44a7.15,7.15,0,0,0-3.63,4.18l-5.4,12.95a10.92,10.92,0,0,0-.63,7.33,7.6,7.6,0,0,0,4.75,5c4.06,1.69,7.42.77,10.12-2.77q1.36-1.86,4.94-10.39,11.46,2.35,20.55-2.14T2042.71,579Q2047.82,566.66,2042.21,555.36Z"/><path class="cls-5" d="M1849.82,644.7a9.74,9.74,0,0,0-6.55-3.89,9.42,9.42,0,0,0-7.3,2,9.84,9.84,0,0,0-3.9,6.65,9.81,9.81,0,0,0,8.67,11.1,9.77,9.77,0,0,0,7.4-2,9.4,9.4,0,0,0,3.79-6.57A9.71,9.71,0,0,0,1849.82,644.7Zm-22.06-67.1q-8.13-10.54-20.74-11.25-11.91-.54-22.69,7.77a35.89,35.89,0,0,0-10.64,13.28,29.26,29.26,0,0,0-2.76,16.38,17.39,17.39,0,0,0,3.38,8.73,8.15,8.15,0,0,0,5.27,3.28,7.33,7.33,0,0,0,5.8-1.55c2.07-1.61,3-4.08,2.95-7.43l-.18-9.42c.48-3.8,2.5-7.06,6-9.81a14.67,14.67,0,0,1,9.53-3.37c3.32.09,6.14,1.66,8.49,4.69q4,5.21,3,10.58-.71,3.91-5,10-3.19,4.59-3.51,7.05a7.18,7.18,0,0,0,1.83,5.23l8.56,11.1a11,11,0,0,0,6.07,4.18,7.58,7.58,0,0,0,6.7-1.64q5.22-4,2.6-10.16-.91-2.12-6.58-9.44,7.74-8.79,8.34-18.92T1827.76,577.6Z"/><path class="cls-4" d="M2072.18,880.28c-8.22,25.29-33.48,84.39-97.64,118.37,34.8-19.5,66.09-116.86,66.09-116.86Z"/><path class="cls-9" d="M2029.31,812.31s36.05-12,49.22,17.62-1.34,79.23-1.34,79.23-63.32-3.48-73.13-49.62Z"/><path class="cls-5" d="M2074.26,1001.18c-40.9,10.73-84.2,17.23-125.33,20.58-24.45,2-48.14,2.87-70.11,2.87-47.3,0-88.23-8.5-123.32-23.45h43.78c.68,0,1.35,0,2,0Z"/><path class="cls-13" d="M2115,1527.67s-52.72-61.52-3.25-100.59c0,0,36.14-21.88,65.61-20.1,0,0-41.75,70-28.25,77s40.91-81.38,40.91-81.38,82.24-8,108.7,4.75c0,0-70.31,57.53-55.5,61s90.75-53,90.75-53,76.54,13,72.46,59.72-30.46,61.11-42,59.87-79.4-27.12-80.88-17.63,39.34,40.54,67.92,42c0,0-54,59.51-89.83,42.33s-38.92-44.4-61.28-54.61-41.44-10.19-32.21.23,49.69,20.53,62.48,43.15,24.25,37.87-12.86,32.29-97.42-32.74-100.07-63.83Z"/><path class="cls-13" d="M2368.84,1476.22s-207.9-8-253.82,51.45c0,0-10.15,30.41-41.39,58.1l-4.87,13.27s36-38,48.91-40.28C2117.67,1558.76,2097.51,1485.1,2368.84,1476.22Z"/><path class="cls-13" d="M2082.3,1585.49c-1.79,2-4.47,4.62-8.28,8.16l-.21.19c-1.23,1.16-2.45,2.4-3.62,3.71-7.41,8.23-13.75,19.37-19,30.76-1,2.25-2,4.52-3,6.77h-12.15c1-2.34,2.09-4.59,3.21-6.77,14.15-27.64,34.29-42.54,34.29-42.54h0C2074.4,1585.29,2092.38,1574.43,2082.3,1585.49Z"/><path class="cls-14" d="M1969.46,1448.91s83.88-47,44.73-110.72c0,0-31.31-39.14-64.86-49.2,0,0,17.89,95.06,0,97.29s-12.3-107.36-12.3-107.36-88.35-42.5-123-39.14c0,0,54.8,92.82,36.9,90.59s-79.4-96.18-79.4-96.18-90.59-16.78-105.13,36.9,8.95,80.53,22.37,83.88,99.53,2.24,97.3,13.42-60.39,29.08-92.83,19c0,0,35.79,88.35,82.76,83.88s61.51-33.55,90.59-35.79,50.33,5.59,35.79,13.42-63.75,2.57-87.23,22.53-42.5,32.27,1.11,41.22,121.91,3.35,137.56-30.2Z"/><path class="cls-13" d="M1707.76,1287.87s234.86,76.05,261.7,161c0,0-1.12,38,22.37,81.64v16.78s-24.61-57-38-64.87C1953.8,1482.46,2006.37,1408.65,1707.76,1287.87Z"/><path class="cls-13" d="M2012.62,1628.31c-.28,2.24-.62,4.49-1,6.77h-12.21c.14-2.09.28-4.36.4-6.77,1.1-22.69.87-58.37-8.8-82.88,0-.11-.09-.22-.14-.32q-1.23-3.1-2.67-5.94c0-.05,0-.09-.07-.14-2.76-5.4-4.63-9.39-5.81-12.29v0c-6.73-16.48,8.82,2.93,9.52,3.8l0,0S2019.65,1572.79,2012.62,1628.31Z"/><path class="cls-14" d="M2070.52,1353s-110.57-61.91-59-145.94c0,0,41.28-51.6,85.5-64.87,0,0-23.58,125.31,0,128.26s16.22-141.53,16.22-141.53,116.46-56,162.16-51.6c0,0-72.23,122.36-48.64,119.42s104.66-126.79,104.66-126.79,119.42-22.11,138.58,48.65-11.79,106.15-29.48,110.57-131.21,2.95-128.26,17.69,79.61,38.33,122.36,25.06c0,0-47.17,116.46-109.09,110.57s-81.08-44.23-119.41-47.18-66.34,7.37-47.18,17.69,84,3.38,115,29.7,56,42.54-1.47,54.33-160.69,4.43-181.33-39.8Z"/><path class="cls-13" d="M2415.48,1140.7s-309.58,100.24-345,212.28c0,0,1.47,50.13-29.49,107.62v22.11s32.44-75.18,50.13-85.5C2091.16,1397.21,2021.87,1299.91,2415.48,1140.7Z"/><path class="cls-13" d="M2041,1460.6s-47.74,72.5-20.52,160.75l12.28-3.3s-11.92-97.2,13.06-146.09S2041,1460.6,2041,1460.6Z"/><path class="cls-2" d="M1873.93,1562.08H754.2a95,95,0,0,0-95,95H1968.93A95,95,0,0,0,1873.93,1562.08Z"/><path class="cls-9" d="M2011.12,1562.08H891.39a95,95,0,0,0-95,95H2106.11A95,95,0,0,0,2011.12,1562.08Z"/><path class="cls-15" d="M2552.38,1655.92v1a2.91,2.91,0,0,1-2.9,2.89H2.89A2.9,2.9,0,0,1,0,1656.92v-1A2.9,2.9,0,0,1,2.89,1653H2549.48A2.9,2.9,0,0,1,2552.38,1655.92Z"/></g></g></svg>