<svg xmlns="http://www.w3.org/2000/svg" viewBox="0 0 2387.29 1697.08"><defs><style>.cls-1{fill:#ebf3fa;}.cls-2{fill:#a8d29f;}.cls-3{fill:#6bb7bf;}.cls-4{fill:#599dad;opacity:0.3;}.cls-5{fill:#f99746;}.cls-6{fill:#f48d3b;}.cls-7{fill:#ffb27d;}.cls-8{fill:#ed985f;}.cls-9{fill:#2c3a64;}.cls-10{fill:#ed7d2b;}.cls-11{fill:#d0dfea;}.cls-12{fill:#202d4c;}.cls-13{fill:#2e3552;}</style></defs><g id="Capa_2" data-name="Capa 2"><g id="Слой_2" data-name="Слой 2"><path class="cls-1" d="M147.82,1694.08s-277.79-298.25-47-621.16C305.63,786.42,544.4,806,719.58,922.27c74.61,49.52,289.72,6.1,472.8-285.43,249.68-397.56,1115.16-156.44,957.36,455.23-76.37,296,232.41,306.76,75.08,602.64Z"/><path class="cls-2" d="M556.16,1691.46s69.4-123.35,227.14-114.06,200.33-114.66,368.07-96.06,198.74,124.65,313.4,125.85,318.39-13.56,278.51,89.89Z"/><path class="cls-3" d="M797.41,519.64,707.79,356.12s-133.69,39.52-305,133.43C385.28,499.11,368.07,509,351.31,519,226.49,593.65,126.13,674.88,126.13,674.88L215.75,838.4c139.06,253.76,418.33,375.95,517.57,316.32l26.1-14.31a114.34,114.34,0,0,0,23.88-17.87C874.58,1035,925.66,753.66,797.41,519.64ZM563.16,689.84a219.62,219.62,0,0,1,109.76-81.78c33.57-11.23,59-10.87,60-10.85a11.36,11.36,0,0,1-.43,22.72h-.26c-2.64,0-24.69.35-53,10-39.88,13.55-72.72,38.16-97.59,73.12a11.37,11.37,0,0,1-18.52-13.18Zm-148.38,85C374.89,788.4,342.05,813,317.18,848a11.37,11.37,0,0,1-18.52-13.18A219.7,219.7,0,0,1,408.43,753,224.07,224.07,0,0,1,433,746.32c20.71-4.38,34.67-4.17,35.46-4.16a11.36,11.36,0,0,1-.42,22.72h-.17a144.49,144.49,0,0,0-23.2,2.36A195.92,195.92,0,0,0,414.78,774.85ZM572.5,1055.66A10.49,10.49,0,0,1,556.34,1045c6.26-34.45,18.09-62.67,35.6-83.91A119.88,119.88,0,0,1,627,932c51.76-28.36,107-11.63,135.63,1.12a10.47,10.47,0,0,1,0,19.13C738.7,963,697.58,982,664.24,999.94c-7.11,3.82-14,7.68-20.74,11.51C614,1028.31,588.76,1044.67,572.5,1055.66Z"/><path class="cls-4" d="M783.3,1122.54a114.34,114.34,0,0,1-23.88,17.87l-26.1,14.31c-99.24,59.63-378.51-62.56-517.57-316.32L126.13,674.88S226.49,593.65,351.31,519c15.93,83.55,45,159.36,81.69,227.27h0A224.07,224.07,0,0,0,408.43,753a219.7,219.7,0,0,0-109.77,81.78A11.37,11.37,0,0,0,317.18,848c24.87-35,57.71-59.57,97.6-73.12a195.92,195.92,0,0,1,29.89-7.61c43,74.68,94.79,139.37,147.27,193.87-17.51,21.24-29.34,49.46-35.6,83.91a10.49,10.49,0,0,0,16.16,10.64c16.26-11,41.46-27.35,71-44.21h0A1261.64,1261.64,0,0,0,783.3,1122.54Z"/><path class="cls-5" d="M1907.85,717.34c-17.17-10.06-34.51-19.74-51.72-29C1728,619.61,1606.74,575.25,1606.74,575.25L1512.5,736.13c-146.27,249.68-107.63,552.05-5.49,606.56l25.69,15a114.08,114.08,0,0,0,27.6,11.3c122,33.34,389.61-67.38,524.5-297.63l94.25-160.89S2076.46,816.1,1907.85,717.34ZM1546,815.84a11.38,11.38,0,0,1,12.22-10.43,219.78,219.78,0,0,1,126.56,52.16,224.47,224.47,0,0,1,18.37,17.66c14.4,15.52,21.39,27.61,21.78,28.28a11.36,11.36,0,0,1-19.71,11.31,121.84,121.84,0,0,0-8.93-12.67c-1.5-1.91-3.19-4-5.08-6.17a197.59,197.59,0,0,0-21.91-21.74c-32.11-27.25-70.08-42.79-112.87-46.17A11.37,11.37,0,0,1,1546,815.84Zm190.46,396.33c-51.25,19.27-96.38,19-133.27-2.56a124.49,124.49,0,0,1-20-14.55c-34.8-31-45.49-75.77-48.74-102.39a10.48,10.48,0,0,1,16.41-9.84c12.8,8.93,31.23,21.6,50.92,34.47,13.4,8.76,27.37,17.61,40.55,25.47,37.44,22.3,73.12,39.88,94.94,50.06A10.49,10.49,0,0,1,1736.42,1212.17Zm244.5-140.7a11.37,11.37,0,0,1-15.5-4.2,119.29,119.29,0,0,0-8.93-12.67,195.52,195.52,0,0,0-27-27.91c-32.12-27.25-70.09-42.78-112.88-46.17a11.1,11.1,0,0,1-4.84-1.52,11.36,11.36,0,0,1,6.64-21.13A219.65,219.65,0,0,1,1945,1010c26.89,23,39.63,45,40.15,45.93A11.37,11.37,0,0,1,1980.92,1071.47Z"/><path class="cls-6" d="M1856.13,688.36c-63.5,56.6-113.58,120.51-153,186.85,0,0,0,0,0,0a224.47,224.47,0,0,0-18.37-17.66,219.78,219.78,0,0,0-126.56-52.16,11.37,11.37,0,0,0-1.79,22.66c42.79,3.38,80.76,18.92,112.87,46.17A197.59,197.59,0,0,1,1691.17,896c-41.12,73.66-69.66,149.64-89.41,221.32-19.69-12.87-38.12-25.54-50.92-34.47a10.48,10.48,0,0,0-16.41,9.84c3.25,26.62,13.94,71.34,48.74,102.39a1259.41,1259.41,0,0,0-22.87,174,114.08,114.08,0,0,1-27.6-11.3l-25.69-15c-102.14-54.51-140.78-356.88,5.49-606.56l94.24-160.88S1728,619.61,1856.13,688.36Z"/><path class="cls-1" d="M1549.25,170c-5.56-3.26-11.18-6.39-16.76-9.38a703.79,703.79,0,0,0-80.8-36.65l-30.54,52.12c-47.39,80.9-34.87,178.86-1.77,196.52l8.32,4.88a36.86,36.86,0,0,0,8.94,3.66c39.53,10.8,126.24-21.83,169.94-96.43l30.54-52.13S1603.88,202,1549.25,170ZM1432,201.94a3.68,3.68,0,0,1,4-3.38,71.17,71.17,0,0,1,41,16.9,72.17,72.17,0,0,1,6,5.72,55.46,55.46,0,0,1,7.06,9.16,3.68,3.68,0,0,1-6.39,3.67,39.66,39.66,0,0,0-2.89-4.11c-.48-.62-1-1.29-1.65-2a64.63,64.63,0,0,0-7.09-7,63.09,63.09,0,0,0-36.57-15,3.71,3.71,0,0,1-1.57-.49A3.67,3.67,0,0,1,1432,201.94Zm61.71,128.41c-10.4,14.38-36.78,7.93-48.27.2-19.39-13.05-24.52-32.71-17.18-38.92C1455,269.07,1504.72,315.1,1493.71,330.35Zm79.21-45.59a3.68,3.68,0,0,1-5-1.36,40.33,40.33,0,0,0-2.89-4.1,64.13,64.13,0,0,0-8.74-9.05,63.09,63.09,0,0,0-36.58-15,3.53,3.53,0,0,1-1.57-.49,3.68,3.68,0,0,1,2.16-6.85,71.3,71.3,0,0,1,41,16.9,63,63,0,0,1,13,14.89A3.67,3.67,0,0,1,1572.92,284.76Z"/><path class="cls-7" d="M1158.12,825.52c-9.93,152.44-20.62,344.88-11.69,370.9,11.69,34.06-5.36,421.23-5.36,421.23l-50.38-3.06s-67.86-337.42-60.46-387.4a325.85,325.85,0,0,0,2.77-64.77,251.9,251.9,0,0,0-2.77-27c-45.94-154.74-60.29-273.24-63.16-353.09s5.78-121.07,5.78-121.07l198.7-26.57S1165,720.67,1158.12,825.52Z"/><path class="cls-7" d="M1242.65,628.47s55.08,187.76-4.52,505.13c-4.23,22.55-5.46,42.09,4.25,91.68s-42.45,389.79-42.45,389.79l-48.69,0s-11.47-349.16-26.36-415.18c-21.56-95.57-51.1-560-51.1-560Z"/><path class="cls-8" d="M1158.12,825.52c-9.93,152.44-20.35,344.78-11.69,370.9,14.64,44.1-5.36,421.23-5.36,421.23l-3.76-3.06c4.41-178.78,2.38-427.5-34.4-519.62-.94-16.62-59.12-95.66-59.12-95.66-45.94-154.74-73.85-137.14-76.72-217h191Z"/><path class="cls-9" d="M1110.3,2.84s-16.46-9-48.7,5-124.23,110.05-123.15,138,34.4,51.59,24.72,76.31-39.46,38.55-24.73,66.78c28,53.76-28.37,35.43,9.12,107.58,10.17,19.58,330.69-13.86,342.11-27.91,32.35-39.82-24.45-71.58-21.76-99.34s-41.18-57.94-33.66-80.51,45.21-48.46-40.51-149.33C1193.74,39.42,1154.3-9.48,1110.3,2.84Z"/><path class="cls-7" d="M1073,188.75s1.47,61.35-14.73,68.71a100.27,100.27,0,0,1-31.41,8.34s92.76,52,166.88,0c0,0-29.45-6.38-34.85-16.19s-4.91-60.86-4.91-60.86Z"/><path class="cls-8" d="M1072.64,207.93s16.36,37.1,42.8,38.41,38.86-33.94,38.86-33.94Z"/><path class="cls-7" d="M1112.9,232.1h0c-22.45,0-67.85-36-67.85-73.34V113.22a68,68,0,0,1,67.85-67.85h0a68.05,68.05,0,0,1,67.86,67.85v45.54C1180.76,196.08,1137.78,232.1,1112.9,232.1Z"/><path class="cls-7" d="M1003.19,267.38s129.28-16,232.47,1.88c0,0,7.63,127.43-9.67,261.39-2.71,21,41.92,130.6,41.92,130.6-9.16,16.42-224.12,59.66-295.06,0,0,0-5.38,5.27,44.07-122C1030.76,503.61,947.16,275.66,1003.19,267.38Z"/><path class="cls-5" d="M1366.26,996.62a435.83,435.83,0,0,1-88.23,38.87c-147.19,46.71-292.29,14.34-292.29,14.34s-18.67-32.25-27.41-199.45,72.56-522.89,72.56-522.89L1237,307.55s25.26,98.48,16.39,150.54-16.94,87.09-7.25,113.92C1317.89,770.89,1366.26,996.62,1366.26,996.62Z"/><path class="cls-9" d="M1158.12,1694.07H1071c-5.63-18.44,1.63-34,8.07-43.18s12.08-34.22,12.08-34.22c16.8-13.05,38.14-8,46.6-5.21,2.35.79,3.7,1.39,3.7,1.39h0c.28.65,9.41,21.69,12.59,38,2.61,13.45,3.64,33.48,3.94,40.57C1158.09,1693.12,1158.12,1694.07,1158.12,1694.07Z"/><path class="cls-5" d="M1340.46,476.29s-22.37,25.75-54.56,42c-17.7,9-38.37,15-59.92,12.35-60.73-7.53-235.93-7.53-235.93-7.53s-10.37-2.56-24.1-7.49c-25.08-9-61.35-25.86-66.2-49.48h0c.69-2,66-186.43,91-198s45-3.92,45-3.92S1105,291.89,1183,262.93c0,0,57.67-3.38,74.4,21.71s82.26,189.71,83,191.63Z"/><path class="cls-10" d="M1366.26,996.62a435.83,435.83,0,0,1-88.23,38.87C1204.14,892.24,1246.14,572,1246.14,572,1317.89,770.89,1366.26,996.62,1366.26,996.62Z"/><path class="cls-9" d="M1150.68,1371.76l-9.18,241.1h0l-.35,9.1-3.71-.39-46.25-4.91L1041,1371.76s30.17-19.72,68.68-14.93A98.86,98.86,0,0,1,1150.68,1371.76Z"/><path class="cls-9" d="M1249.44,1371.75s-54-35.27-109.67,0l9.54,250.21,50-5.29Z"/><path class="cls-1" d="M1119.61,246.51c-4.74-.13-9.47-.16-14.12-.12a518.66,518.66,0,0,0-65,5l-1.24,44.39c-1.93,68.89,40.79,127.6,68.36,127.27l7.09.2a27.37,27.37,0,0,0,7.06-.8c29.29-7,73.62-58.72,75.39-122.25l1.25-44.39S1166.13,247.81,1119.61,246.51Zm-64.27,62a2.71,2.71,0,0,1,1.35-3.58,52.37,52.37,0,0,1,32.41-3.61,54,54,0,0,1,5.85,1.58,40.23,40.23,0,0,1,7.79,3.41,2.71,2.71,0,1,1-2.82,4.62,27,27,0,0,0-3.31-1.62c-.54-.23-1.13-.47-1.77-.71a47,47,0,0,0-7.07-2,46.3,46.3,0,0,0-28.85,3.3,2.79,2.79,0,0,1-1.19.24A2.71,2.71,0,0,1,1055.34,308.55Zm85.18,60.92c-8.49,9.9-17.94,15-28.12,14.74a29.6,29.6,0,0,1-5.84-.75c-10.82-2.5-18.18-10.61-21.91-15.79a2.5,2.5,0,0,1,2.3-3.94c3.7.4,9,.93,14.58,1.36,3.8.3,7.74.54,11.39.68,10.37.36,19.83-.06,25.56-.43A2.5,2.5,0,0,1,1140.52,369.47Zm34.92-57.39a2.71,2.71,0,0,1-3.71.9,27.48,27.48,0,0,0-3.32-1.63,47.37,47.37,0,0,0-8.83-2.73,46.4,46.4,0,0,0-28.86,3.29,2.6,2.6,0,0,1-1.18.24,2.7,2.7,0,0,1-1-5.17,52.34,52.34,0,0,1,32.4-3.61,46,46,0,0,1,13.65,5A2.71,2.71,0,0,1,1175.44,312.08Z"/><path class="cls-11" d="M1105.49,246.39A187.51,187.51,0,0,0,1095,302.94h0a54,54,0,0,0-5.85-1.58,52.37,52.37,0,0,0-32.41,3.61,2.71,2.71,0,0,0,1,5.18,2.79,2.79,0,0,0,1.19-.24,46.3,46.3,0,0,1,28.85-3.3,47,47,0,0,1,7.07,2,237.44,237.44,0,0,0,6.69,56.45c-5.58-.43-10.88-1-14.58-1.36a2.5,2.5,0,0,0-2.3,3.94c3.73,5.18,11.09,13.29,21.91,15.79a300.78,300.78,0,0,0,15.17,39,27.37,27.37,0,0,1-7.06.8l-7.09-.2c-27.57.33-70.29-58.38-68.36-127.27l1.24-44.39A518.66,518.66,0,0,1,1105.49,246.39Z"/><path class="cls-7" d="M1220.6,363.72s-8.33-24.55-4.8-39.05S1200,271,1197.92,271.77s-2.16,46.21-4.18,57.4c-1.71,9.44-7.33,18.62,0,39.43Z"/><path class="cls-7" d="M1014.52,363.72s8.33-24.55,4.8-39.05,15.77-53.68,17.88-52.9,2.16,46.21,4.18,57.4c1.7,9.44,7.33,18.62,0,39.43Z"/><path class="cls-10" d="M966,515.63c-25.08-9-61.35-25.86-66.2-49.48h0c1.43-1.07,93.17-69.42,114.76-69.62C1030.08,396.37,990,472.36,966,515.63Z"/><path class="cls-7" d="M1041.38,368.6s-33.86,196.46-61.82,212.19-46.12,17.64-46.12,17.64-39.57-54.1-8.34-97.51,89.42-137.2,89.42-137.2Z"/><path class="cls-10" d="M1340.46,476.29s-22.37,25.75-54.56,42c-27-37.7-62.39-111.92-48.16-111.34,19.44.78,101.43,68.26,102.71,69.31Z"/><path class="cls-7" d="M1193.74,368.6s33.85,196.46,61.82,212.19,46.12,17.64,46.12,17.64,39.57-54.1,8.34-97.51-89.42-137.2-89.42-137.2Z"/><path class="cls-9" d="M1082.56,60.93s14.89,41.93,47.81,63.88,45.47,20.77,45.47,20.77-13.23-20.38-13.87-34.09c0,0,13.07,44.69,40.5,34.1s-33-116.59-83.71-110.13S1082.56,60.93,1082.56,60.93Z"/><path class="cls-9" d="M1103.72,73.47S1049.25,99,1045.05,134.8c0,0-33.42-22.92-10.49-71.12C1048.69,34,1095.92,29,1104,41.93S1103.72,73.47,1103.72,73.47Z"/><path class="cls-12" d="M1158,1691.46h-48.4c-7.55-18,21-34.72,26.18-55.72a82.93,82.93,0,0,0,1.63-14.16c.16-3,.28-6.44.35-10.12.75-37.9-2.81-106.62-2-163.37,1-71.31-24.67-90.27-26.08-91.26a98.86,98.86,0,0,1,41,14.93l-9.18,241.1h0c.28.65,9.41,21.69,12.59,38C1156.7,1664.34,1157.73,1684.37,1158,1691.46Z"/><path class="cls-9" d="M1149.2,1614.44s-6.25,27.24-12.7,36.45-13.71,24.74-8.06,43.18h87.06s-.8-26.59-4-43.18-11.54-35.82-11.54-35.82S1170.65,1597.78,1149.2,1614.44Z"/><path class="cls-2" d="M2072.05,1690.75H1955c-6.27-5.32,4.35-17.41,15.44-18.22,4.82-.36,10.91.64,17.87,2.11,1.61-21.4,10.81-117.6,45.49-113.74,39,4.33,0,42.37-11,64.89-8.17,16.68-16.78,40.6-20.72,51.89,3.17.69,6.45,1.36,9.79,2,5.17-15.87,24.4-69.25,48.86-66.14,28.71,3.64,17.17,25-3.18,37.75-14.93,9.34-33.27,22.62-42,29a124.15,124.15,0,0,0,22.9,1.84C2058.47,1681.66,2068.26,1687.57,2072.05,1690.75Z"/><path class="cls-2" d="M299.62,1685.34c-6-9.47-24.19-34.06-48.37-30.81-26.34,3.55,29.1,20.92,46.07,30.89a28.14,28.14,0,0,1-9.39-1.1c-11.35-4-30.78,3.71-37,6.43H359a17.15,17.15,0,0,0-7.72-9.88c-1.78-1.08-5.34-1.23-9.94-.88,6.42-7.57,10.88-31.76-7-25.54-13.06,4.55-13,19.33-11.75,28.07-2.78.44-5.59.88-8.38,1.28-5.38-27.41-24.4-107.75-63-109.89-39.08-2.17,33.15,83.31,57.2,110.65C305.33,1684.93,302.36,1685.21,299.62,1685.34Z"/><path class="cls-2" d="M957.68,1567.19s-59.82-266.49-121.8-247.89S957.68,1567.19,957.68,1567.19Z"/><path class="cls-2" d="M925.85,1567.19s-86.76-118.2-119.3-98.06S925.85,1567.19,925.85,1567.19Z"/><path class="cls-2" d="M1443.31,1622c1.55.54,4.65-154.88,37.18-132.94S1443.31,1622,1443.31,1622Z"/><path class="cls-2" d="M1432,1615.11s-7.23-88.81-26.85-84S1432,1615.11,1432,1615.11Z"/><path class="cls-2" d="M1464.77,1615.58s41.47-66.55,51.8-52.76S1464.77,1615.58,1464.77,1615.58Z"/><path class="cls-13" d="M2.7,1690.75H2384.58a2.7,2.7,0,0,1,2.7,2.7v.92a2.7,2.7,0,0,1-2.7,2.7H2.71A2.71,2.71,0,0,1,0,1694.38v-.92a2.7,2.7,0,0,1,2.7-2.7Z"/></g></g></svg>