<svg xmlns="http://www.w3.org/2000/svg" viewBox="0 0 2475.97 1159.64"><defs><style>.cls-1{fill:#d2e4ff;}.cls-2{fill:#c3dafc;}.cls-3{fill:#ebf3fa;}.cls-4{fill:#2e3552;}.cls-5{fill:#233862;}.cls-6{fill:#163560;}.cls-7{fill:#b5453c;}.cls-8{fill:#f4a269;}.cls-9{fill:#f99746;}.cls-10{fill:#ffb27d;}.cls-11{fill:#ed7d2b;}.cls-12{fill:#1c468a;}.cls-13{fill:#ed985f;}.cls-14{fill:#c6601a;}.cls-15{fill:#f1a34f;}.cls-16{fill:#d3671e;}.cls-17{fill:#b25618;}.cls-18{fill:#e78b37;}.cls-19{fill:#bdd8ff;}.cls-20{fill:#9fc1f4;}.cls-21{fill:#6a9ad3;}.cls-22{fill:#5588bc;}.cls-23{fill:#77a4e5;}.cls-24{fill:#afcdfb;}.cls-25{fill:#2b478b;}</style></defs><g id="Capa_2" data-name="Capa 2"><g id="_Layer_" data-name="&lt;Layer&gt;"><path class="cls-1" d="M2476,992.45a329.23,329.23,0,0,1-2.26,40.5,299.65,299.65,0,0,1-15.07,65.17,268.1,268.1,0,0,1-19.44,42.76q-3.33,5.91-7,11.62H75.93s-214.6-491.44,77.76-729.36q5.48-4.45,11-8.74,5.09-3.93,10.22-7.72c3.32-2.47,6.67-4.88,10-7.25,88.12-62.24,184.61-93,285.83-112.11q5.36-1,10.72-2,5.1-.93,10.2-1.81c82.06-14.15,167-21.6,253-32.65,29.91-3.86,60-8.15,90.05-13.32,120.39-20.66,241.44-55.35,358-132a674.66,674.66,0,0,1,110.83-59.17c2.54-1.06,5.08-2.11,7.63-3.13s5-2,7.47-2.94C1391.74,12,1464-.2,1531.94,0q4,0,8,.07,3.81.07,7.61.19a546,546,0,0,1,63.14,5.64q12.88,1.92,25.42,4.42,18.42,3.66,36.1,8.53c151.29,41.52,258.41,145.8,264.54,253.65,4.15,72.69,12.77,142.53,31.86,203.12,8.85,28.06,19.94,54.15,33.88,77.61q5.68,9.59,12,18.57c41.68,59,105,97.9,201.5,104.37,67.07,4.5,123.58,34.55,166.59,79,.39.42.8.83,1.2,1.26C2442.37,817.74,2475.59,905.93,2476,992.45Z"/><path class="cls-2" d="M1221,843.76c-2.55-19.23-32.29-25.57-39-30.39-4-2.89-13.35-15.66-19.82-25,.93-.64,1.44-1,1.44-1-18.83-57.9-34.35-105.31-47.16-144.14,1.52-2.92,3-7.36,4.13-14,4.62-26.7-18.64-36.83-18.64-36.83l-.37-.2c13.86-116.68-19.5-124.62-19.5-124.62a65.06,65.06,0,0,0-26.48-2.22c-4.92-11.86-14.77-19.14-31-20.06a37.86,37.86,0,0,0-15.92,3c.76-1.33,1.5-2.67,2.24-4,3.38-2.34,31.91-22.86,29.45-47.53a33.1,33.1,0,0,0-2.89-11.36,45.52,45.52,0,0,0-1.48-5.62c2.53-12.4,2.68-22.47-.2-28.23-5.25-10.52-15.08-17.86-22.47-22.21,3.1-.66,7.16,1.06,7.16,1.06-4-3.61-16.75-5.83-16.75-5.83-45.53-64.79-115.75,19.12-128.53,41S846.37,411.72,803.1,410C718,406.66,712.57,492.28,730,536.12c.24.61,42,74.51,42,74.51a37.17,37.17,0,0,1,3.84-5.41c-2.86,30.83-4.22,56.11-8.95,63.2C757,683.27,710.21,771.69,750.64,813c-31.89-10.48-77,28.71-82.45,33.59h-.55V1152.5h569.42V846.58C1232.3,845.64,1226.92,844.7,1221,843.76ZM966.08,790c3.82-5.75,17.85-32,35-67.06-.51,35.25-.72,60.81-.72,60.81a12.45,12.45,0,0,0,4.45,11.41c-2,4.51-4.4,8.88-6.32,13.13a43.68,43.68,0,0,0-3.36,14.8c-32.09-1.5-56.45-1.79-64.46-.31-1.41.26-3.06.52-4.9.78C944.89,814.57,958.18,801.94,966.08,790Zm131.33,40c-7.16-13.06-31.58-11.89-37.2-16.63a36.42,36.42,0,0,1-9.08-11.15c1.71-.15,2.71-.27,2.71-.27q11-36.62,19.14-68c21,35.23,38.28,61.25,38.28,61.25a13,13,0,0,0,10.55,8.41,19.86,19.86,0,0,1-1.49,4.74c-3.64,8.06-3.71,17.83-3.37,23.38Q1107.23,830.83,1097.41,830Z"/><path class="cls-3" d="M2476,992.45c-.09,13.57-.83,27.1-2.26,40.5a367.76,367.76,0,0,1-10.66,57.22q-2,7.55-4.41,15a313.33,313.33,0,0,1-19.44,47.36H1636.11V10.32q18.42,3.66,36.1,8.53,21.55,5.92,41.87,13.48c83.76,31.12,150.36,82,188.26,140.64,20.4,31.56,32.47,65.36,34.41,99.53,4.15,72.69,12.77,142.53,31.86,203.12,8.85,28.06,19.94,54.15,33.88,77.61q5.68,9.59,12,18.57c41.68,59,105,97.9,201.5,104.37,67.07,4.5,123.58,34.55,166.59,79,.39.42.8.83,1.2,1.26C2442.37,817.74,2475.59,905.93,2476,992.45Z"/><rect class="cls-4" y="1153.54" width="2475.97" height="6.1" rx="3.05"/><path class="cls-5" d="M1541.4,799.12l-118.89-9.32s-2.85-18.12,3.36-31.87c6-13.19-2.24-22.73-10.38-38.45,7.55,7.78,33.57,6.64,50.76,4.33,2.1,3.41,23.31,34.84,30.34,39.89C1504.36,769.28,1539,776.62,1541.4,799.12Z"/><path class="cls-5" d="M1401.77,789.8h-118.9s-2.85-18.12,3.36-31.87c6-13.19,16.32-27.35,8.18-43.06,7.55,7.78,31.41,6.93,48.6,4.61,2.11,3.42-8,25.73,14,44.22C1364.27,769.87,1399.37,767.29,1401.77,789.8Z"/><path class="cls-6" d="M1382,367.27s-56.62-19.31-78.35,38.21C1200,489.47,1051.72,704,1039.2,719c-25.06,30-5.69,71.84,96.81,70.84,59.92-.59,96.6-28.1,113-52.84,4.38-6.59,20.46-36.64,40.16-76.89-.58,40.43-.83,69.72-.83,69.72-3.08,28.65,61.28,20.82,61.28,20.82C1458.8,385.5,1382,367.27,1382,367.27Z"/><path class="cls-7" d="M1329,234.3c-6-12.05-17.28-20.47-25.76-25.46,3.55-.76,8.21,1.22,8.21,1.22-4.55-4.14-19.21-6.69-19.21-6.69-52.2-74.28-132.7,21.92-147.35,47s-33,52.88-82.65,50.92c-97.59-3.84-97.45,92.24-83.83,144.57,7.2,27.67,51,92.36,51,92.36,11.26-20.64,109.71-115.18,177.14-114.54,22.65-9.14,46.57-36.08,48.44-38.21-17.73,22.19-30.58,32.68-39.15,37.7C1279.88,413.24,1344.93,266.25,1329,234.3Z"/><path class="cls-8" d="M1210.51,423.65c.19.25-8.81,33.53-35.84,18.93-17.75-9.58-46.23-50.46-35.25-64.31,5.21-6.59,28.19-19.1,52.12-61.47l2.87,2.48,48.29,41.77s-11,16.43-20.22,32.54C1214.73,407.12,1208.24,420.44,1210.51,423.65Z"/><path class="cls-7" d="M1192.64,308.81s.9-34.33,11-57.4c7.25-16.47,51.3-66,100.86-21.4a89.64,89.64,0,0,1,23.06,32.38c6.51,16,12.06,44.88-39,79.61l-15.76,12.74Z"/><path class="cls-9" d="M1127.73,360.12s17.74,3.38,25.24-6.67,23.83-31.32,27.64-19.12S1220.45,382,1228.78,383s14.17,3.26,9.46,7.58-2.75,21.6-7.46,23.17S1138.58,359.17,1127.73,360.12Z"/><path class="cls-10" d="M1239.27,384.37s-69.64-45-40.93-88,39.05-77.67,84.73-50.73,43.28,49,37.18,65.7S1258.13,395,1239.27,384.37Z"/><path class="cls-9" d="M1242.7,419.2S1124.76,332.29,1083.48,365c-60.88,48.28-48.7,211.29-62.84,232.5s-93.82,173.3,35.77,188.77,159.44-66.23,165.33-127.5S1242.7,419.2,1242.7,419.2Z"/><path class="cls-11" d="M1087.51,418.11s-34,187.74,33.35,239S1222,412.3,1087.51,418.11Z"/><path class="cls-11" d="M1155.25,388.11s1.29-21.94,20.65-13.55,55.16,21,69,15.81-22.31,64.19-55.35,41S1155.25,388.11,1155.25,388.11Z"/><path class="cls-7" d="M1315.15,265.64s-52.6,37.7-86.53,25.75-41.29-28.13-41.29-28.13,34-2.76,59.26-30.46C1246.59,232.8,1317,232.15,1315.15,265.64Z"/><path class="cls-10" d="M1404.82,510.37s26.67,11.61,21.36,42.21-15.9,20.35-15.9,20.35Z"/><path class="cls-7" d="M1307.74,266.59s6.55,20.68,2.66,33.91-17.42,36.76-10.35,40.39c0,0,37.14-24.7,34.15-54.76C1331,254.26,1307.74,266.59,1307.74,266.59Z"/><path class="cls-12" d="M1352.66,367.27v0c-5.26-15.11-16.76-24.45-36.55-25.57-86.44-4.89-294.27,358.38-310,377.24-25.06,30-5.69,71.84,96.81,70.84,59.92-.59,83.56-29.28,100-54,7.52-11.32,62-97.89,103.9-187,35.12,83.67,108.7,194.09,108.7,194.09,10.93,26.66,60-8.92,60-8.92C1357.83,372.09,1352.66,367.27,1352.66,367.27Z"/><path class="cls-13" d="M1077.76,378.31s-31.07,48,65.54,92,108,54.78,126.83,58.71c29.36,6.12,142.11,5.26,142.11,5.26s3-17.88-7.42-23.92c-16.63-9.67-112.67-25.37-125.62-30.55S1128.26,326.31,1077.76,378.31Z"/><path class="cls-9" d="M1105.18,357.73s49.35,2,152.29,96.83c0,0,15.75,19.13,23.59,20.41s29.07,6.85,29.53,12.25-26.14,73.15-60,75.09-197-118.74-185.88-157.93S1105.18,357.73,1105.18,357.73Z"/><rect class="cls-14" x="906.9" y="801.77" width="435.2" height="350.74"/><rect class="cls-15" x="1165.95" y="801.77" width="393.76" height="350.73"/><path class="cls-16" d="M1231.52,869.23a7.22,7.22,0,1,1,7.21,7A7.1,7.1,0,0,1,1231.52,869.23Z"/><path class="cls-16" d="M1496.35,869.23a7.22,7.22,0,1,1,7.22,7A7.1,7.1,0,0,1,1496.35,869.23Z"/><path class="cls-16" d="M1231.52,1090.17a7.22,7.22,0,1,1,7.21,7A7.1,7.1,0,0,1,1231.52,1090.17Z"/><path class="cls-16" d="M1496.35,1090.17a7.22,7.22,0,1,1,7.22,7A7.1,7.1,0,0,1,1496.35,1090.17Z"/><path class="cls-17" d="M947.88,869.23c0-3.85,2-7,4.47-7s4.47,3.13,4.47,7-2,7-4.47,7S947.88,873.09,947.88,869.23Z"/><path class="cls-17" d="M1111.91,869.23c0-3.85,2-7,4.47-7s4.48,3.13,4.48,7-2,7-4.48,7S1111.91,873.09,1111.91,869.23Z"/><path class="cls-17" d="M947.88,1090.17c0-3.85,2-7,4.47-7s4.47,3.13,4.47,7-2,7-4.47,7S947.88,1094,947.88,1090.17Z"/><path class="cls-17" d="M1111.91,1090.17c0-3.85,2-7,4.47-7s4.48,3.13,4.48,7-2,7-4.48,7S1111.91,1094,1111.91,1090.17Z"/><path class="cls-16" d="M906.9,802.34s59.14-54.62,98.15-38c51.36,21.93,172.79,15.82,203.43,10.16s270,11.24,351.22,27.24Z"/><path class="cls-18" d="M1559.7,1060.5v92H1166V801.77h66l1.3.57S1268.65,1040.24,1559.7,1060.5Z"/><path class="cls-19" d="M481.48,285.35V531.13H174.91V406.67q-5.13,3.79-10.22,7.73V541.34h327V283.55Q486.58,284.42,481.48,285.35Z"/><path class="cls-19" d="M470.76,287.32v233H184.93V399.43C273.05,337.19,369.55,306.4,470.76,287.32Z"/><path class="cls-19" d="M1539.94.07V114.48H1311.15V43.31c-2.55,1-5.09,2.07-7.63,3.13V122.1h244V.26Q1543.76.14,1539.94.07Z"/><path class="cls-19" d="M1531.94,0V106.44H1318.62V40.37C1391.74,12,1464-.2,1531.94,0Z"/><path class="cls-20" d="M2384.63,1117.36s46.75-248.88-13.49-253.72S2384.63,1117.36,2384.63,1117.36Z"/><path class="cls-20" d="M2376.37,1123.2s-88.09-160.81-138.31-154.87S2376.37,1123.2,2376.37,1123.2Z"/><path class="cls-2" d="M597.11,658.56c-12.53-50.25-90.6-34.55-90.6-34.55s-53,88-68.44,90,31.81-84.8,31.81-84.8c-29.88-3.14-106,36.64-106,36.64s4.82,102.6-10.61,100.51,0-91.08,0-91.08c-28.91,9.42-55.9,46.06-55.9,46.06C263.62,781.06,335.9,825,335.9,825s1,35.59-19.27,76.43c0,0-25.45,42-17.29,96.26H277c4.29-39.07-13.68-68.71-13.68-68.71-15.35-31-14.62-58-14.62-58s54.84-33.35,29.25-78.63c0,0-20.48-27.79-42.41-34.94,0,0,11.7,67.51,0,69.1s-8.05-76.25-8.05-76.25-57.76-30.18-80.43-27.8c0,0,35.83,65.92,24.13,64.33s-51.92-68.3-51.92-68.3S60,706.63,50.5,744.75s5.85,57.18,14.62,59.57,65.08,1.59,63.62,9.53-39.49,20.65-60.69,13.5c0,0,23.4,62.74,54.11,59.57s40.21-23.83,59.23-25.42,32.9,4,23.4,9.53-41.68,1.82-57,16S120,910,148.48,916.3s79.7,2.39,89.94-21.44l1.28-3a13.12,13.12,0,0,1-1.28,3c5.26,3.33,13.15,19.23,18.63,31.43.77,2.07,2,4.94,3.84,8.84h0c.75,1.77,1.34,3.21,1.75,4.21,6.32,17.17,6.57,42.16,5.87,58.38h-81.3v4.72h4.73c1.59,57.35,32.08,106.8,76.19,131.77H213.32c-9.3,0-16.85,8.19-16.85,18.29H469.78c0-10.1-7.54-18.29-16.85-18.29H398.81c44.11-25,74.6-74.42,76.19-131.77h3.29v-4.72H327.37c3.42-8.17,7.61-16.19,12.5-22.1.59-.67,1.45-1.63,2.52-2.8,2.47-2.49,4.2-4.35,5.37-5.74,7.59-7.93,18.1-18.05,23.16-19a11.46,11.46,0,0,1-.21-2.76c.07.89.14,1.8.21,2.76,1.74,22.09,41.17,41.37,65.43,45.33s16.76-6.86,8.4-22.92-34.81-23.25-40.84-30.65,6.44-7.42,21.06-.16,16.61,26.58,40.06,38.78,58.74-30.06,58.74-30.06c-18.69-1-45.38-23.08-44.41-29.83s45.3,11.64,52.88,12.52,24.82-9.35,27.49-42.52-47.38-42.41-47.38-42.41-11.54,9.32-24.57,18.7c-2.57-3.62-6.75-7.63-11.63-12.1,4.3-4.14,8.17-7.7,10.58-9.89A88,88,0,0,0,502.65,846c40.49,4.19,71.33-78.52,71.33-78.52-28,9.42-78.07-7.33-80-17.8s72.29-9.42,83.85-12.57S609.64,708.82,597.11,658.56ZM391.5,894.93c-2.31-1.29-2.15-5.62-.67-11.31,3.19.79,6.47,1.46,9.81,2C397.27,892.24,394,896.34,391.5,894.93Zm-49.37,72.31s-13.28,10.68-22.54,30.48H310c-1.18-20.79-1.65-57.9,7.46-82.64.54-1.33,1.32-3.23,2.3-5.56,2.42-5.14,4.05-8.92,5.08-11.66,7.21-16.08,17.61-37,24.55-41.42a17.61,17.61,0,0,1-1.69-3.93l1.69,3.93A33.19,33.19,0,0,0,357,867.2C343.84,893.85,369.19,926,369.19,926S362.55,947.57,342.13,967.24ZM448.59,835.42c-20.72-6.21-45.72-5-54.85-10.39-12.53-7.33,5.78-14.66,30.84-12.56,16.86,1.4,28.06,14.18,45.89,23.66A207.5,207.5,0,0,0,448.59,835.42Z"/><path class="cls-1" d="M2107.55,954.94c-1.75,3-1.16,6.6,1.32,8s5.91.2,7.66-2.79,2.82-15.11,2.82-15.11S2109.3,952,2107.55,954.94Z"/><path class="cls-1" d="M2021.65,900.39c-1.75,3-1.16,6.6,1.32,8.05s5.91.2,7.66-2.79,2.82-15.11,2.82-15.11S2023.41,897.4,2021.65,900.39Z"/><path class="cls-1" d="M2008.74,998.84c-1.75,3-1.16,6.6,1.31,8s5.92.21,7.67-2.79,2.82-15.1,2.82-15.1S2010.49,995.85,2008.74,998.84Z"/><path class="cls-1" d="M2250.12,820.89c-2,3.43-1.33,7.57,1.51,9.23s6.79.24,8.8-3.2,3.23-17.33,3.23-17.33S2252.14,817.46,2250.12,820.89Z"/><path class="cls-1" d="M2242.78,905c-2,3.43-1.34,7.57,1.51,9.24s6.78.23,8.79-3.2,3.23-17.34,3.23-17.34S2244.79,901.55,2242.78,905Z"/><path class="cls-1" d="M2133.29,833.39c-2,3.43-1.33,7.57,1.51,9.23s6.79.24,8.8-3.2,3.23-17.33,3.23-17.33S2135.31,830,2133.29,833.39Z"/><path class="cls-1" d="M2020,782.55c-2.28,3.89-1.52,8.57,1.71,10.46s7.68.27,10-3.62,3.66-19.64,3.66-19.64S2022.32,778.66,2020,782.55Z"/><path class="cls-1" d="M1846.84,769.34c-2.27,3.89-1.51,8.58,1.71,10.46s7.69.27,10-3.62,3.66-19.64,3.66-19.64S1849.12,765.45,1846.84,769.34Z"/><path class="cls-1" d="M1964.06,668.05c-2.28,3.89-1.52,8.58,1.71,10.47s7.68.26,10-3.63,3.66-19.63,3.66-19.63S1966.34,664.16,1964.06,668.05Z"/><path class="cls-1" d="M1868,645.69c-1.78,3-1.18,6.73,1.34,8.21s6,.21,7.82-2.85,2.88-15.41,2.88-15.41S1869.78,642.63,1868,645.69Z"/><path class="cls-1" d="M1876.48,572.37c-1.79,3-1.19,6.73,1.34,8.21s6,.21,7.82-2.84,2.87-15.41,2.87-15.41S1878.26,569.32,1876.48,572.37Z"/><path class="cls-1" d="M1794.39,677.32c-1.79,3.06-1.19,6.73,1.34,8.21s6,.21,7.82-2.84,2.87-15.41,2.87-15.41S1796.18,674.27,1794.39,677.32Z"/><path class="cls-1" d="M1877.24,424.5c2.64-4.51,4.25-22.77,4.25-22.77s-15.15,10.33-17.79,14.84-1.75,9.95,2,12.14S1874.6,429,1877.24,424.5Z"/><path class="cls-1" d="M1793.68,310.17c-2.64,4.52-1.75,9.95,2,12.14s8.91.31,11.55-4.2,4.25-22.78,4.25-22.78S1796.33,305.66,1793.68,310.17Z"/><path class="cls-1" d="M1764.56,527.67c-2.64,4.52-1.76,10,2,12.14s8.92.31,11.56-4.21,4.25-22.77,4.25-22.77S1767.2,523.16,1764.56,527.67Z"/><path class="cls-21" d="M574.18,901.07s-41.57-48.49-2.56-79.29c0,0,28.48-17.25,51.71-15.85,0,0-32.91,55.2-22.27,60.69s32.25-64.15,32.25-64.15,64.82-6.28,85.68,3.74c0,0-55.42,45.35-43.75,48s71.53-41.81,71.53-41.81,60.34,10.27,57.12,47.07-24,48.18-33.14,47.2-62.59-21.38-63.75-13.9,31,32,53.54,33.1c0,0-42.54,46.91-70.81,33.37s-30.69-35-48.31-43-32.67-8-25.39.18,39.17,16.18,49.25,34,19.12,29.85-10.13,25.45-76.8-25.8-78.88-50.31Z"/><path class="cls-22" d="M774.25,860.52s-163.88-6.32-200.07,40.55c0,0-8,24-32.64,45.8l-3.83,10.46s28.39-29.94,38.56-31.75C576.27,925.58,560.37,867.51,774.25,860.52Z"/><path class="cls-22" d="M541.54,946.87s-35.17,26-37.61,72.49l6.38.57s11.23-48.06,31.54-66.85S541.54,946.87,541.54,946.87Z"/><path class="cls-23" d="M428.86,840.09s66.11-37,35.26-87.27c0,0-24.68-30.86-51.13-38.79,0,0,14.1,74.93,0,76.69s-9.7-84.63-9.7-84.63-69.64-33.5-97-30.85c0,0,43.2,73.17,29.09,71.4s-62.59-75.81-62.59-75.81-71.4-13.22-82.86,29.09,7,63.47,17.63,66.12,78.46,1.76,76.69,10.58-47.6,22.92-73.17,15c0,0,28.21,69.65,65.24,66.12s48.48-26.45,71.41-28.21,39.67,4.41,28.2,10.58-50.24,2-68.76,17.76-33.49,25.43.88,32.49,96.09,2.64,108.44-23.8Z"/><path class="cls-21" d="M222.58,713.15S407.7,773.09,428.86,840.09c0,0-.88,30,17.63,64.35v13.23s-19.4-45-30-51.13C416.52,866.54,458,808.35,222.58,713.15Z"/><path class="cls-21" d="M446.49,904.44s28.55,43.36,12.27,96.13l-7.34-2s7.13-58.13-7.81-87.36S446.49,904.44,446.49,904.44Z"/><path class="cls-20" d="M534,789s-87.15-48.81-46.48-115c0,0,32.54-40.67,67.4-51.13,0,0-18.59,98.78,0,101.1s12.78-111.56,12.78-111.56,91.81-44.15,127.83-40.67c0,0-56.94,96.45-38.35,94.13s82.51-99.94,82.51-99.94S833.85,548.48,849,604.26s-9.3,83.67-23.24,87.15-103.42,2.33-101.1,14,62.75,30.21,96.45,19.75c0,0-37.18,91.81-86,87.16S671.17,777.41,641,775.08s-52.29,5.81-37.18,13.95,66.23,2.66,90.64,23.41,44.16,33.53-1.16,42.82-126.67,3.49-142.94-31.37Z"/><path class="cls-20" d="M806,621.69S561.93,700.71,534,789c0,0,1.17,39.51-23.24,84.83v17.43s25.57-59.27,39.51-67.4C550.31,823.89,495.7,747.19,806,621.69Z"/><path class="cls-20" d="M510.8,873.86S473.17,931,494.62,1000.57l9.69-2.6s-9.4-76.62,10.29-115.16S510.8,873.86,510.8,873.86Z"/><path class="cls-23" d="M531.11,1151.43A170.73,170.73,0,0,0,701.83,980.71H360.39A170.72,170.72,0,0,0,531.11,1151.43Z"/><path class="cls-24" d="M573.12,1150.12A170.82,170.82,0,0,1,381.19,980.71h42.42A170.75,170.75,0,0,0,573.12,1150.12Z"/><rect class="cls-23" x="354.77" y="980.71" width="350.94" height="5.24"/><path class="cls-23" d="M695.45,1152.5H365.94a20.32,20.32,0,0,1,20.32-20.31H675.13a20.32,20.32,0,0,1,20.32,20.31Z"/><path class="cls-20" d="M1902.34,173c-21.61,7.27-39.64,16.23-50.25,27.2-47.38,49.09-138,42.77-138,42.77V32.33C1797.84,63.45,1864.44,114.36,1902.34,173Z"/><path class="cls-19" d="M1714.08,1090.17V32.33q-20.3-7.54-41.87-13.48-17.67-4.86-36.1-8.53V1152.5h803.08a313.33,313.33,0,0,0,19.44-47.36q2.38-7.41,4.41-15Z"/><path class="cls-6" d="M1650.1,861.82s-75.77-10.74-80.17-23c0,0,5.26-11.05-3-13.94-2.23-.77-6-2.2-7.65-.08l.1,22.55s8.17,8,12.75,14.38c2.53,3.54,51.49,24,51.49,24Z"/><path class="cls-6" d="M1806.21,1027.25c7.19-10.38-.28-83.71-52-61.45-11,3.32-24.2,11.27-40,25.77,0,0-22.72,53.54,66.88,88.95,0,0,8.88,3.84,10.14,12s2.68,45-.36,46.12-7.54-3.11-10.82,1.54-2.13,12.32-2.13,12.32h32.56s15.56-82.68,14.69-89.26S1797.69,1039.56,1806.21,1027.25Z"/><path class="cls-5" d="M1678.48,727.55s17.23,36.13,7.71,47L1659.42,753S1659.29,742.38,1678.48,727.55Z"/><path class="cls-25" d="M1863.1,922.15c-7-12.75-17.57-34.06-3.67-42.76,11.85-7.41,7.31-22.87.46-26.56-14.43-7.79-29.09,2.06-36,11.68-13.07,18.3,4.29,46.91,4.29,46.91,16.42,35.35-17.38,53.75-33.67,60.31a190.32,190.32,0,0,0-27.44-32.33c-5.62-5.33-10.77-9.66-15.1-13.36-45.87-39.21-34.76-53.55-45.65-71.18-2.14-3.49-10.58-13-12.82-16s-3-13.74-3.29-23.19c5.16-4.39,5.73-9.31,5.73-9.31a9.34,9.34,0,0,1,0,4c5.34-4.34,4.13-14.33,4.13-14.33,1.18,1.45,1.65,4.54,1.65,4.54,2.69-15.54-6.88-28.22-7-28.32,1.69-14.6-10.42-40-10.42-40s.87,18.83,2.7,28.44a38.91,38.91,0,0,0-10.69-7.85c-9.57-4.75-22.64-9.22-36.48,4.36-3.14,3.08-12.45,5.58-16.84,5-2.42-.31-7.93,11.81-8.14,13.47-2.41,18.33,3.42,27.4,13.89,36.78,1.47,4.13,2.59,9.68,0,13.42,0,0,2.21-.9,2.48-1.61-.19,1-1.38,6.74-4.53,9.32a9.33,9.33,0,0,0,2.12-.5c-2.74,3.49-13.19,17.92-13,35.71-22,.18-42.87-1.17-44.9-6.79,0,0,4.74-9.28-3.05-13.95a17.28,17.28,0,0,0-8.54-2l-.38,25.32s9.54,7.08,14.12,13.5c1.58,2.2,32.32,16.08,55.32,26.25,13.39,58,56.4,91.59,70.63,101.32,2,17.73,12.58,40.8,42.77,67.67,0,0,7,6.66,5.4,14.76s-13,43.18-16.19,43.18-14-4.68-18.72-1.44,1.8,15.83,1.8,15.83H1747s40.66-66.93,42.1-73.41-17.63-31.67-5.39-40.3c5.24-3.71,12.52-24,11-42.66C1810.81,990.52,1885.1,962.05,1863.1,922.15Z"/><path class="cls-25" d="M1665.28,757.75l26.79,21.5a12.64,12.64,0,0,0,2.69-7c1.69-14.61-10.42-40-10.42-40C1665.15,747.1,1665.28,757.75,1665.28,757.75Z"/><path class="cls-6" d="M1622.25,762.34a3.21,3.21,0,0,1,3.08-.24s-.41,6.09-6.38,6.47C1619,768.57,1620.67,763.28,1622.25,762.34Z"/><path class="cls-6" d="M1633.2,776c.23.08,22.56,8.41,38.57,26.78h0c-16.28-18.71-38.1-27.43-38.33-27.51Z"/><path class="cls-6" d="M1631.12,777.59c.24.15,23.65,16.08,36.91,41.8h0c-13.49-26.18-36.18-42.42-36.43-42.57Z"/><path class="cls-6" d="M1628.71,779.49c.17.17,16.63,17.41,23,40.93h0c-6.49-23.94-22.31-41.31-22.48-41.48Z"/></g></g></svg>