<svg xmlns="http://www.w3.org/2000/svg" viewBox="0 0 9336.23 4023.42"><defs><style>.cls-1{fill:#c8dff3;}.cls-2{fill:#e8f2f7;}.cls-3{fill:#afd1ed;}.cls-4{fill:#b0d1ed;}.cls-5{fill:#8db8e1;}.cls-6{fill:#393252;}.cls-7{fill:#b9d5ed;}.cls-8{fill:#014184;}.cls-9{fill:#f19d4d;}.cls-10{fill:#0e4386;}.cls-11{fill:#c64238;}.cls-12{fill:#5e99ce;}.cls-13{fill:#e06618;}.cls-14{fill:#f1a57c;}.cls-15{fill:#ea8f5d;}.cls-16{fill:#113760;}.cls-17{fill:#053261;}.cls-18{fill:#d65f14;}.cls-19{fill:#ed8634;}.cls-20{fill:#aed0ec;}.cls-21{fill:#ed8d49;}.cls-22{fill:#4a93c7;}.cls-23{fill:#c4dcf0;}.cls-24{fill:#01305f;}.cls-25{fill:#e97631;}.cls-26{fill:#9fc3e5;}.cls-27{fill:#3485b7;}</style></defs><g id="Capa_2" data-name="Capa 2"><g id="Capa_1-2" data-name="Capa 1"><path class="cls-1" d="M2059,990.54c3.86-3.84,8.28-6.6,13.87-7,17.17-1.18,34.18-.92,51.17-6.59,14.82-4.94,31.65-1.65,46.9-8,5.83-2.44,13.11-1.68,19.74-1.86a120.4,120.4,0,0,0,31.4-4.67c8.77-2.6,18.47-1.86,27.49-3.79,22.1-4.74,44.19-8.94,67-8.26a29,29,0,0,0,11.64-2.38c11.4-4.75,23.38-4.41,35.32-5.18,7.89-.5,15.68-2.35,23.53-3.54,9.14-1.39,18.26-3.42,27.46-3.9,14.61-.77,29.12-.59,43.23-6,5.95-2.3,13.1-1.8,19.72-2,18.56-.66,37.18.39,55.16-6.6,5.9-2.3,13.14-1.23,19.78-1.59,8-.42,16.52,1,23.8-1.42,20.69-6.89,41.9-6.33,63.12-7,5.26-.17,10.89-.47,15.65-2.42,12.77-5.23,26-5,39.33-5.18,10.67-.18,21.07-1.21,31.44-4.47,7.46-2.34,15.64-2.86,23.54-3.21,18.56-.83,37.25.57,55.14-6.7,4.69-1.91,10.5-1.2,15.81-1.4,18.55-.69,37.26.84,55.14-6.51,4.69-1.93,10.5-1.38,15.81-1.51,15.95-.39,31.8-.26,47.18-6.26,5.93-2.31,13.13-1.44,19.76-1.87,27.76-1.8,54.72-10.74,82.85-9.25,16.36-6.92,33.72-6.88,51-7.3,25.08-9.92,53-4,78.05-13.87,25.39.11,49.35-10.38,74.77-10.1,30.89-7.63,63-9.32,93.59-17.47,23.23-6.2,47.83-3.78,70.12-13.58,42.21-5.14,83-17.26,124.35-26.26,29.74-6.47,59.34-13.72,88.74-21.56,47.39-12.63,94.89-24.77,141.8-39.27,43.11-13.31,86.42-25.94,129.06-40.74,50.17-17.42,99.77-36.32,149.05-56.08q88.83-35.61,174.39-78.54c21.31-10.65,42.76-21,63.77-32.29,19.91-10.71,41-19.35,60.42-30.84,45.7-27,92.13-52.77,137.08-81.16,51.61-32.6,102.31-66.64,155.21-97.3,31.12-18,63.09-34.17,94.84-50.86,14.1-7.42,27.67-15.86,41.84-23.13,9.39-4.82,19.61-8,29.15-12.58,21.59-10.37,43.17-20.78,64.38-31.89a94.77,94.77,0,0,1,42-11c.41,16,1.12,31.89,1.16,47.82.15,61.16-.05,122.32.19,183.48.09,21.79,4,25.4,25.46,25.89,9.3.21,18.61.09,27.92.09h741.9c10.63,0,21.27,0,31.9-.34a37.27,37.27,0,0,0,11.63-2.3,12.77,12.77,0,0,0,5.74-5.24,19.18,19.18,0,0,0,2.15-7.61,101.23,101.23,0,0,0,.56-11.94q-.18-197.44-.42-394.88c21.19-1.43,42.07-2.47,63.09,4.06,11,3.43,23.66,1.84,35.58,2.33,17.16.72,34.38-.82,51.17,5.51,7.16,2.7,15.68,2.08,23.6,2.43,13.25.58,26.5.09,39.21,5.38,4.73,2,10.36,2.3,15.61,2.44,14.63.4,28.88,1.64,43.06,6.33,8.57,2.83,18.37,2,27.62,2.66,5.58.42,10,3,13.89,6.85-4.18,3.53-7.56,7.75-7.78,13.33-.48,12-.64,23.94-.64,35.91q0,1247.76,0,2495.52c0,16,.67,31.91,1,47.88-9.12,9.26-21.59,11.36-33,11.08-16.56-.4-23.57,9.08-30.29,21.24-7.87,14.24-12.54,29.3-13.25,45.48-1.44,33.09,6.73,63.15,28.83,88.62,2.61,3,5,6.3,8.13,8.73,13.95,11,16.46,25.92,17.46,42.54,1.09,18-3.28,34.08-11.35,49.59-3.67,7.06-8.09,13.73-11.82,20.76-8.1,15.25-15.9,30.65-19.44,47.77-34.62-1.5-67.19-12.47-99.93-22.27-15.06-4.51-29.6-10.91-44.11-17.1-13.31-5.68-21.75-14.47-17.35-30.77,1.33-4.93.87-10.49.44-15.7a20.75,20.75,0,0,0-13.2-18.19c-7.22-2.95-15.16-4.12-22.79-6.07-4.13-8.6-3.59-17.86-3.76-27-.24-13.11-.17-26.23-.85-39.31-.38-7.3-5.61-11.73-12.09-13.88-3.57-1.18-7.7-.66-11.57-.91l-39.25-8.33c-7.44-30.24-26.39-51.69-52.16-67.72-10.15-6.31-20.53-12.3-31.2-17.66s-21.77-9.88-32.76-14.58c-42.88-18.37-45.45-20.2-74.23-57.38-9.76-12.61-18.93-25.69-28.6-38.39-4-5.24-8.56-10-12.87-15,.87-9.3.8-18.46-2.45-27.45-3.14-8.72-5.81-17.6-8.7-26.41q-84-256.62-167.87-513.28c-2.44-7.48-3.66-15.35-5.45-23a16.36,16.36,0,0,0,2.64-2.91c18.62-34.08,15.51-70.77,12.81-107.4a14.75,14.75,0,0,0-1.08-3.76c-10.33-29.08-25.52-54.42-53.65-69.83l-19.45-16.42c9.58-81.65,14.16-163.52,12-245.78-.88-33.23-4.89-66.06-10.23-98.69-4.48-27.4-11.55-54.38-22.67-80-7.94-18.31-17.49-35.67-31.37-50.28-10.26-10.8-22.32-18.14-37.13-21.59-19.44-4.53-38.91-7.61-58.92-7.6-13.2,0-26.39-.91-39.59-1.41-7.64-27.4-26.35-46-50.67-58-32.64-16.08-67.11-24.62-103.89-14.56-6.31,1.73-13.06,1.86-19.6,2.73l0-11.72c14.53-11.59,29.76-22.42,43.43-35a272.77,272.77,0,0,0,54.3-68.53c13.81-24.82,21.65-51.17,20.46-80.07a144.74,144.74,0,0,0-10.05-46.57,84.18,84.18,0,0,1-3.66-50.84c3.34-14.37,4-28.91,4.14-43.58.2-23.47-6.94-44.41-20.32-63.47a206.93,206.93,0,0,0-41-43.32c-12.55-9.94-24.14-20.53-31.25-33.3l-42.45-13.54c-17-18-29.74-33.55-44.55-46.75-48.07-42.85-103.4-57-166.55-41.15-43.32,10.9-81.95,31-117.65,56.91-69.54,50.49-128.16,111.73-176.3,182.91-9.68,14.3-18.12,29.44-27.26,44.11-17.64,28.32-37.5,54.89-62.09,77.66a246.28,246.28,0,0,1-99.66,56.36c-31,9.07-62.76,11.59-94.7,10.92-26.67-.55-53.08,1-79.6,3.44-46,4.18-87.94,19.3-126.57,44.22-6.66,4.29-13.36,8.5-20.05,12.75-7.17-5.84-14.67-11.32-21.45-17.6-20.9-19.37-44.85-32.7-72.94-38.33a141.37,141.37,0,0,1-19.24-4.83,41,41,0,0,0-27.31-.45c-6.28,2-12.71,4.28-19.21,4.81-28.62,2.35-54.19,13.58-77.9,28.38-24.62,15.37-51.44,28.14-70.09,51.82-2.36,3-6.07,5.34-9.61,7-10,4.61-16.81,12.86-24.82,19.83-26.25,22.84-42.58,54.36-68.34,77.64-2.81,2.54-3.83,7-6.15,10.19-18.64,25.86-32.84,54.5-51.38,80.52-15.67,22-33.54,40.54-55.8,55.89-17.7,12.21-36.72,21.38-55.77,30.78-4.71,2.33-9.79,4.66-14.91,5.31-28.83,3.65-57.11,12.39-86.76,9-9.2-1-18.71.7-27.92-.32-25.75-2.87-50.54,3.08-74.55,10-41.19,11.81-80,29.07-108.56,63.31-4.24,5.09-9.46,9.36-14,14.24-3.61,3.89-7.69,7.67-10.11,12.27-20.43,38.85-40.17,78-43,123-.41,6.51-3,12.86-4.29,19.34s-3.23,13.07-3,19.56c.83,27.73-4.29,55.86,6.19,83,2.29,5.93,1,13.18,1.71,19.78.56,5.25,1.09,10.62,2.6,15.64,13.14,43.41,30,85.14,55.67,122.93,6.71,9.89,12.94,20.22,13.52,32.76-12.64,5.16-22.81,12.79-30,25-8,13.74-17.59,26.6-26.54,39.8-35.05,51.68-72.66,101.53-109.53,151.89a528.51,528.51,0,0,1-40.43,49.23c-22.76,24.3-46.67,47.53-70.35,71-4.66,4.61-10.31,8.3-15.81,11.95-6.7,4.46-17.61-.73-18.58-8.38-1.51-12-1.32-23.79,2.69-35.47,8.65-25.15,16.7-50.45,29-74.23,18.4-35.46,35.84-71.42,54-107,6-11.81,13.5-22.9,19.66-34.65,9.26-17.65,18-35.57,26.82-53.43,1.5-3-1.82-9.31-5-9.5-9.21-.56-18.93-3.06-27.54-1-15.55,3.72-31.52,5.12-46.87,9-38.6,9.76-77.44,18.86-114.86,32.79-17.43,6.49-34.38,14.46-52.11,19.94-54.84,16.94-105.71,43.38-158.37,65.47-30.14,12.64-32.24,14.26-31.6,47.49.11,5.33,0,10.66-.09,16-13.69-3.87-27.34-7.91-41.13-11.42-1.92-.48-4.52,1.69-6.8,2.64l-16.4.43c-3.65-4.08-8-7-13.61-7.2-10.62-.3-21.25-.42-31.88-.43-23.91,0-47.84-.25-71.74.21-15.42.3-28.25,6.16-36.75,19.93-4.18,6.76-9.39,12.86-13.6,19.59-10.53,16.84-20.38,34.11-31.19,50.76-19.47,30-37.65,61.06-59.72,89s-38.15,60.75-65,85.11c-11.08,24.42-32.74,37.55-54.25,50.85-4.27,2.64-12-.75-12.67-5.41-1.81-13.27-1.83-26.16,3-39.15,11.08-29.81,21.42-60,36.35-88.09,13.63-25.69,19.65-55,38-78.4.76-1,.75-2.52,1.08-3.81,3.37-13.07,10.11-24.29,17.87-35.26,5.28-7.48,8.82-16.26,12.65-24.67,2.43-5.33-3.27-14.72-8.81-15.48-11.93-1.63-23.57-1.62-35.43,1.83-38,11.06-77.62,17.08-113.37,35.57-4.63,2.4-10.1,3.15-15.17,4.72a260.57,260.57,0,0,0-44.18,17.87c-8.17,4.29-17,7.33-25.61,10.79-35.79,14.37-69.53,33-103.71,50.62-7.44,3.84-11.2,11.23-11.42,19.79-.36,13.28-.6,26.56-.57,39.85,0,11.54-6.74,16.43-16.94,18.34-5.22-.82-11-.42-15.57-2.64C1586,2368,1558.53,2362.87,1532,2355c-17.67-5.25-36-8.19-54.2-11.73-5.13-1-10.56-.56-15.86-.68-7.37-.16-13.46,2.19-13.34,5.54.13,3.72.52,7.89,2.28,11,9.69,17.29,21.14,33.66,26.64,53.05-1.46,4.89-1.83,10.52-4.58,14.51-8.67,12.58-18.05,24.69-27.51,36.69-4.27,5.41-10.9,6.23-17.36,6.81-3.42-4-7.17-7.75-10.2-12-23.1-32.45-46-65-69.09-97.5-6.14-8.64-12.29-17.35-19.32-25.24-3.33-3.74-8.57-7.65-13.22-8-23.79-2-46.79-8.78-71-8.64-34.89.2-68.38,7.05-102.08,14.71-38.4,8.73-66.9,31.19-90.3,61.34-4,5.11-6.7,11.47-8.84,17.66-9.15,26.41-16.42,53.21-16.43,81.54,0,13.26-1.06,26.53-1.65,39.79-6.53-.92-13.58-.58-19.51-3-19.81-8-40.78-11.72-61.06-17.91-11.8-3.6-23.59-3.32-35.52-1.34-4.08.68-8.91,8.29-7.92,12.43.61,2.56.62,5.42,1.82,7.66,20.74,38.74,35.64,80.19,55.38,119.35,7.85,15.59,13.13,31.95,19,48.17,1.72,4.73,1.12,10.42,1,15.67-.11,6.07-9.28,12-14.69,9.58-3.6-1.58-7.37-3.15-10.43-5.54-16-12.45-26.48-29.5-38.63-45.29-18.62-24.18-37.46-48.22-53.91-73.88-20-31.28-43.13-60.65-59.93-94-1.68-3.34-5-6.94-8.44-8.1-12.5-4.3-25.13-9.65-38.08-10.93-44.49-4.41-84.36,1.5-125.41,16-14.05,5-26.66,11.91-36.81,23.07-5.37,5.9-11.12,11.48-16.9,17a60.62,60.62,0,0,0-15,23.36c-5.89,16.16-12.68,32-12.62,49.9,0,7.78-2.17,15.72-4.28,23.33-4.39,15.82-4.83,31.31.6,47a78.22,78.22,0,0,1,3.84,19.42c2.14,27.77,15.93,50.22,32.21,71.48,4.9,6.39,11.79,10.06,19.92,12.33a224.6,224.6,0,0,0,70.84,8.41c13.3-.57,26.64-.21,40,0,6.64.09,14-1.05,19.78,1.44,17.9,7.79,36.57,6.22,55.12,6.54,9.76.18,18.08,3.93,26.2,8.64,7.07,4.11,8.64,15.85,2.57,20.49-12.67,9.69-25.61,18.16-41.56,22.74-33.14,9.53-65.4,21.13-100.88,20.32-59.06-1.36-56.89-3.59-30.58,51.46,17.36,36.34,40.33,68.63,64,100.57,15.42,20.78,38.37,32.38,60.73,44.23,2.31,1.23,5,2.41,7.55,2.4,15.92-.09,32.29,1.71,47.66-1.36,22-4.39,44.06-9.89,63.59-22.14,15.74-9.87,32.38-18.45,47.45-29.24,17.52-12.53,37.07-20.84,56.17-30.14a38.1,38.1,0,0,1,15.32-3.78c18.64-.44,37.29-.31,55.94-.07,9.66.12,17.9,4.49,25.58,10,4.72,3.39,6.11,12.36,2.82,18.08-3.55,6.21-8.93,10.12-15.87,10.68-15.88,1.28-31.88,1.22-47,7.77-3.46,1.5-7.9,1.16-11.86,1-24.39-.84-46.9,7.52-69.88,13.79-28.95,7.9-54.12,21.71-74.16,44.44-6.16,7-13.15,13.22-19.67,19.89q-4.19,4.27-8,8.9c-10.62,12.93-6.16,32.62,9.3,40.45,5.92,3,12.1,5.5,18.25,8,16.16,6.53,33.85,6.72,50.24,11.52,13.16,3.85,26,5,39.3,5,16,.06,32,.09,48,0,17.24-.11,34.58,1.35,51.13-6,4.63-2.06,10.51-2,15.75-1.78,12.37.64,23.6-3.19,34.86-7.38,30-11.18,59.73-22.83,82-47.46a44.54,44.54,0,0,1,6.13-5.11c7-5.4,20.14-3.89,25.15,3.58,8.87,13.21,17.62,26.55,25.61,40.31,17.42,30,29.54,62.51,42.35,94.55,9.85,24.62,15,51.17,16.92,77.37,2.51,34.44.57,69.21.46,103.85,0,2.62-.76,5.23-1.12,7.86-.63,4.65-5.86,10.24-10.48,10.53-10.6.67-21.21,1.44-31.82,1.47-63.94.13-127.88,0-191.82.1-10.64,0-21.29.45-31.92.9-5.36.23-9.52,7.27-6.38,11.37,5.78,7.56,10.38,15.17,10,25.22a71.28,71.28,0,0,0,4.11,27.45c2.24,6.11,3.94,13,3.5,19.42-1.2,17.72,4.17,34.15,8.29,50.84a625.06,625.06,0,0,0,31.36,94.39c12.47,29.38,27.69,57.5,46.48,83.5,13.2,18.27,24.79,37.93,39.7,54.66,18.47,20.74,36.64,42.12,60.69,57.37,14.51,9.2,27.77,20.39,41.44,30.88,2,1.55,3.35,4.07,4.74,6.3a7.39,7.39,0,0,1,.86,3.62c.08,3.36-1.62,5.05-4.83,5.07q-67.91.34-135.8.67c-36.24.14-36.26.05-66.5,19.76-2.17,1.42-3.83,3.64-7,6.75-3.37,11.19-7.19,23.84-11,36.49-9.29.48-18.57,1.38-27.86,1.38q-187.74.15-375.47,0c-6.62,0-13.25-.79-19.87-1.21-1.09-6.53-.92-13.6-3.48-19.5-17.48-40.24-32-81.55-46.59-122.89-8.84-25-20-49.36-27-74.94-16.38-60.16-37.73-118.76-53.24-179.27-13.48-52.63-28-105-40.54-157.93-4.28-18-9.44-35.9-12.45-54.13-2.8-17-8.7-33.22-10.54-50.62-2.07-19.6-10.59-38.55-12.32-58.13-2.11-23.89-9.39-46.76-10.91-70.7-.91-14.43-5.87-28.58-7.07-43-1.11-13.32-2.73-26.21-6.46-39.15-2.52-8.73-.38-18.72-2.34-27.71a351.1,351.1,0,0,1-8.21-79c-10.3-29.67-6.57-60.52-7.67-91-.24-6.63.45-13.81-1.82-19.76-6.41-16.75-5.65-34-5.67-51.26q-.07-121.83,0-243.66c0-14.61.6-28.94,4.42-43.46,3.31-12.59,2.63-26.31,3.18-39.55.7-17.23-.75-34.58,6.08-51.2,1.93-4.72,1.66-10.48,1.78-15.78.41-17.29-.14-34.62,6.82-51.1,1.48-3.51,1.45-7.91,1.21-11.84-1.45-24.34,7.1-47.16,11.25-70.55,9.49-53.48,23.66-106,37.69-158.45,9.6-35.87,21.94-71.07,34.37-106.11,9.75-27.5,20.61-54.7,32.61-81.3,13.12-29.1,28.29-57.27,42.28-86,22.74-46.7,50.37-90.56,78.84-133.81,18.94-28.76,40.32-55.93,60.89-83.6,9.49-12.77,19.2-25.43,29.65-37.4,9.62-11,20.56-20.87,30.54-31.58a224.3,224.3,0,0,0,17.82-21.38,217.27,217.27,0,0,1,47.62-47.81c6.4-4.71,13.27-9.16,18.52-15,25-27.84,55.79-49.15,83.37-74.07,5.13-4.63,11.21-7,18-7.86.2,14.66.57,29.3.57,44q.07,169.82,0,339.64c0,52.56-2.79,48.94,50.66,49H2033.93c52.91,0,49.73,3.12,49.72-49.88V1037.47c0-8,.07-16-.12-24-.1-4-.15-8.11-1.27-11.86s-3.12-7.5-7.58-8.4C2069.5,992.17,2064.25,991.42,2059,990.54Z"/><path class="cls-2" d="M6975.25,606.86c10.52,3.88,18.16,11.4,23.29,20.89A476.63,476.63,0,0,0,7023,668.81c5.92,8.73,10.45,18.64,14.22,28.55,13.72,35.95,28.36,71.62,38.83,108.72,6.83,24.21,13.37,48.54,19,73.06,2,8.92,1.29,18.53,1.49,27.83.29,13.29.32,26.36,4.76,39.39,2.91,8.55,2.89,18.29,3.11,27.52.45,18.63.17,37.28.19,55.93,0,12-.17,23.94,4.67,35.35,4.3,10.1,3.09,20.94,3.28,31.55.38,21.2-1.82,42.52,6.44,63.1,2.35,5.86,1.37,13.14,1.51,19.78.35,17.25-1,34.57,6.37,51.1,2,4.6,1.5,10.48,1.56,15.79.19,16-.82,32,6.5,47-.78,24.14,7.52,47,10.44,70.66,2.73,22.15,6.68,44.38,11.08,66.41,7.52,37.66,18.08,74.65,26,112.13,7.4,35.12,16.91,69.55,27.54,103.58,10.25,32.87,20.66,65.79,34.5,97.61,16.94,38.94,31.06,79.16,51.29,116.6,23.34,43.2,46.44,86.75,75.68,126.27,15.69,21.21,29.78,44.08,50.46,61.45a77.74,77.74,0,0,1,15.81,17.86c14.35,23,33.27,41.11,56,55.67,6.62,4.23,12.2,10.27,17.76,16,14,14.32,28.62,27.69,46.09,37.81,12.65,7.32,23.46,17.43,35.34,25.71,19.54,13.61,40.77,24.92,61.82,36.22,23.41,12.57,48,22.6,72.5,33,22.05,9.36,43.9,18.81,66.95,25.46s45.45,14.72,68.59,20.38c14.06,3.44,29,3.13,42.7,8.9,21.48-.55,41.05,11.61,62.77,9.41,25.71,8.57,52.32,8.69,78.87,7.5,15.16-.67,28.21,7.62,42.94,7.91s29.85-1.59,43.77,1.77c29.62,7.15,59.76,11.42,89.42,18.17,31.13,7.08,61.14,17.71,91.28,28a187.32,187.32,0,0,1,18.54,7.17c15.66,7.28,30.93,15.25,47.65,20.23,8.81,2.62,17.3,7.2,25.07,12.23,33.42,21.63,69.15,39.52,101.79,62.4,22.78,16,46.23,31.12,65.55,51.52,2.74,2.89,5.43,6.11,8.79,8.11,32.62,19.39,55,49.92,82.16,75.26,5.75,5.37,10.24,12.14,15.08,18.45,3.22,4.2,5.43,9.33,9.14,13,35.35,34.75,60.75,76.89,88.36,117.46,35.32,51.9,63.9,107.54,89.11,164.62,17.64,39.92,35.11,80.28,47,122.58,9.35,33.15,19.68,66.05,28,99.46a461.87,461.87,0,0,1,10,50.56c3,22.27,12,43.69,9.34,66.79-.44,3.72,1,8,2.61,11.56,5,11.39,4.72,23.36,4.74,35.34,0,14.65,0,29.3.07,44,.06,13.3-.08,26.48,5.13,39.31,2.4,5.93,2.44,13,2.58,19.62.34,16,.21,32,.05,47.94-.05,5.3.54,11.17-1.46,15.8-7.69,17.85-6.18,36.53-6.34,55.1-.13,15.95,1,32-6.1,47.09a15.56,15.56,0,0,0-1.37,7.81c2.35,24.34-6.61,47.16-9.72,70.75-2.93,22.19-9.45,43.91-14.63,65.79-2.74,11.59-6,23.07-9,34.59-14.57-.28-29.16-.76-43.74-.79q-105.48-.23-210.95-.27c.28-6.64-.32-13.46,1-19.91,7-35.13,14-70.23,15.41-106.17a56.1,56.1,0,0,1,2.75-15.65c3.93-11.59,4-23.53,4.52-35.49.28-6.65-.46-13.66,1.42-19.85,7.12-23.36,6-47.37,7-71.23.28-6.64-.36-13.68,1.63-19.82,6.32-19.47,5.5-39.46,5.69-59.36.52-57.24,1.07-114.48.93-171.72-.09-38.48,1.81-77.19-8.18-115,0-20.26-7.63-39-11.91-58.41-4.94-22.46-16.46-41.89-29.52-60.58-19.2-27.49-46-34.22-77.22-29a25.45,25.45,0,0,0-10.7,5c-16.12,12.38-29,26.83-34.26,47.5-6.2,24.47-13.77,48.53-13,74.23.41,13.3-.53,26.63-.16,39.93,1.17,42.43-3.45,85.21,7.44,127.09a26.12,26.12,0,0,1,.45,8c-1.73,29.55,5.85,58.19,10.51,86.84,7,43.13,13.48,86.43,22.43,129.24,7.33,35,14.45,70.13,22.6,105,10.58,45.21,19.3,90.85,31.68,135.65,2.1,7.61,2.11,15.8,3.08,23.72l-72-.2c-2.61-11.93-8.81-22.15-15.34-32.19-18.8-28.9-37.4-57.88-57.07-86.25-37.84-54.56-76.25-108.52-121-157.72-17.76-26.86-42.23-47.59-64.3-70.53-15.78-16.41-34.6-29.13-53-41.93a219,219,0,0,0-68.5-31.42c-9.19-2.47-18.38-3.88-27.53-2-23.11,4.87-28.28,13.38-27.2,32.19a74,74,0,0,0,5.14,23,199.27,199.27,0,0,0,35.5,57.37c25.53,28.76,48.33,59.93,76.77,86.17,19.53,18,37.81,37.36,56.69,56.06,5.67,5.61,10.87,12,17.36,16.41,22.14,15.12,39.9,35,59.31,53.06,7.78,7.25,14.84,15.57,23.58,21.39,14.53,9.7,26.63,21.92,39.27,33.65,11.67,10.83,22.7,22.32,36.54,30.71,4.2,2.55,6.62,8,9.86,12.15-25.27.07-50.54.21-75.81.22q-849.94.06-1699.89.09c1.38-14.52,2.57-29.06,4.2-43.56,1-9.24,2.6-18.43,4.17-27.61,2.87-16.88-.9-31.29-13.59-43.59a381.47,381.47,0,0,1-29.58-32.42,222.66,222.66,0,0,1-20.39-29.4c-6.9-11.94-9.37-24.56-2.21-37.93,9.08-17,10.06-35.55,9.61-54.4-.55-22.81-5.76-44.8-10.65-66.88,4.39-2.88,8.53-6.27,13.21-8.56,17.94-8.76,36.28-16.71,54-25.81,27.3-14,53.44-30,77.44-49.2,19.84-15.87,37.95-33.39,51.51-55.25,20.64-33.29,22.49-67.5,5.83-102.75-4.55-9.62-9.93-18.84-14.74-28.35-8.42-16.68-15.6-33.92-20-52.08a146.68,146.68,0,0,1-3.57-27.58c-.73-15.5,5.11-28.65,16.6-39.09,4.92-4.48,10.5-8.25,15.27-12.87,17.78-17.21,21.46-43.41,9.72-66.1a47.44,47.44,0,0,0-22.54-21.66,74,74,0,0,0-54.57-4.05c-44.09,13.28-90.52,56.74-80.6,122a257.29,257.29,0,0,0,22.27,72.21c5.13,10.8,10.67,21.5,14.67,32.73,17.19,48.3,8.78,91.67-26.33,129.43-24,25.82-53.27,43.93-85.54,57.48-1.22.52-2.68,1.28-3.82,1-3.74-.85-7.87-1.39-10.93-3.43s-5.53-5.69-7.82-8.93c-35.62-50.41-78.82-93.62-125.77-133.4-18.28-15.49-35.89-31.8-53.3-48.28a406.83,406.83,0,0,1-50.24-56.81c-21.32-29.49-37.73-61.13-42.54-97.81,4.17-8.62,5-17.87,5-27.24q.12-20,.13-39.92V915.6q0-16,0-31.93c0-5.33,0-10.65.21-16,.57-14.54,5.27-19.74,18.65-20.22,9.31-.33,18.63-.27,27.94-.35,13.3-.12,26.61-.17,39.91-.32,6.88-.08,13-2.11,18.05-7,15.95-.81,32.08-.39,47.81-2.7,23.58-3.46,46.86-9,70.31-13.38,46-8.6,90-23.79,132.43-43a388.55,388.55,0,0,0,117.45-81.41c21.51-21.82,45.92-40.36,73.91-53.66,15.64-7.42,30.73-16.06,46.65-22.79C6939.24,615.66,6955.93,606.68,6975.25,606.86ZM6902.75,1406c-3.09-.34-6-1.61-8.07-.76-22.76,9.49-38.57,27.26-51.26,47.22-6.76,10.62-2.31,24.3,10.37,34.79,7.53,6.23,13.18,6.28,25.27.17,8.66-4.39,14.29-10.46,17.67-19.91C6903.94,1447.31,6907.83,1427.13,6902.75,1406ZM6561,1814.16c-.25-4.47-.42-7.11-.55-9.74-.45-9.39-7.62-13-16.67-9-18.85,8.31-32.54,22.52-43.57,39.12-5.34,8-4.55,18.2,1,26.37,5.92,8.78,13,17.45,25.29,16.24,11.67-1.14,19.57-9.29,23.45-19.12C6555.63,1843.5,6562.71,1828.86,6561,1814.16Zm39.89-725.55c.28,4.88.31,7.52.59,10.14,1.19,11.14,9.74,19.11,21.06,19.72,14,.76,29-9.65,32.93-23.44,3.2-11.36,6.23-22.83,8.29-34.43,1.13-6.35.3-13.1,0-19.65-.22-4.73-8.48-8.52-12.24-5.78-12.71,9.28-25.61,18.33-38,28C6604.72,1070.06,6600,1079.33,6600.87,1088.61ZM6840.5,2646.93c-.41-2.6-.83-5.21-1.22-7.82-.7-4.65-9.36-7.88-12.94-4.45-12.45,11.9-25,23.73-36.81,36.25-6.43,6.81-5.74,21.46,0,30,5.11,7.63,17.6,10.67,24.69,5.33,5.23-3.94,11.65-8.1,14-13.67C6834.39,2678.06,6841.53,2663.49,6840.5,2646.93Zm407.33-355.8c-.48-1.94-.86-3.2-1.1-4.48-.56-3-7-6.51-9.45-5.05-17.43,10.35-31.18,24.75-41.95,41.51-5.17,8.06-3.59,18,2.21,26.36,5.28,7.59,17.38,9.92,24.87,4.86,7.87-5.3,14.6-11.62,17-21.23q4.4-17.29,8.3-34.71C7248.31,2295.86,7247.83,2293.11,7247.83,2291.13Zm192.31,402.67c-.58-2.54-1.26-5.07-1.7-7.65-.54-3.09-7-6.17-9.62-4.55-17.09,10.59-30.65,24.87-41.88,41.29-3,4.39-2.31,10.25.28,15.19,3.77,7.19,9,13.39,16.66,16.21a14.66,14.66,0,0,0,11-1.05c4.43-2.57,9.33-6.18,11.44-10.59C7433.72,2727.26,7441.44,2711.73,7440.14,2693.8Zm791.45,141.07c0-1.11.06-3.74,0-6.37-.19-7.65-6.23-10.44-13.64-7.18-12.57,5.54-21.47,15.16-29.29,25.76-5.88,8-5.86,17.33-1.8,26.25a18.3,18.3,0,0,0,15.11,11.16c7.23.86,13.12-2.15,17.17-7.62C8228,2864.94,8233.31,2851.67,8231.59,2834.87Z"/><path class="cls-3" d="M6433.67,839.77c-5,4.93-11.17,7-18.05,7-13.3.15-26.61.2-39.91.32-9.31.08-18.63,0-27.94.35-13.38.48-18.08,5.68-18.65,20.22-.2,5.32-.2,10.64-.21,16q0,16,0,31.93V2951.52q0,20-.13,39.92c-.06,9.37-.86,18.62-5,27.24-1.53-3.66-3.54-7.19-4.53-11-6.88-26.33-20.69-48.72-38.65-68.78-33-36.83-31-42.53-33.52-90-.07-1.33-.08-2.65-.15-4-.52-9.69,1.81-18.38,8.68-25.59,3.65-3.82,6.85-8.12,10.77-11.62,6.21-5.52,9.73-12.47,12.21-20.13,2-6.3,3.7-12.74,6.08-18.91a40.93,40.93,0,0,0,1.83-23.48c-2.43-11.67-3.53-24.41-9.18-34.46-12.1-21.57-14.92-45-18.55-68.53-3.06-19.79-8.94-38.76-16-57.39-4.25-11.15-7.54-23-13.75-33-4.61-7.41-13.24-12.33-20-18.39-1-.87-1.64-2.17-2.72-2.85-3.65-2.3-7.53-2.27-10.83.42-6.17,5-12.75,9.74-17.95,15.65-13.08,14.88-25.48,30.36-38.6,46.15-1.71.69-4.09,2.26-6.62,2.58-21.86,2.73-40.19,12.66-56.88,26.58-4.94,4.11-11.28,6.53-17,9.72-.37-16-1-31.91-1-47.87q-.09-1247.76,0-2495.52c0-12,.16-24,.64-35.91.22-5.58,3.6-9.8,7.78-13.33,7.88.7,16,.49,23.61,2.29,32,7.57,64.09,15,95.76,23.89,33,9.23,65.47,20.1,98.22,30.1,18.84,5.75,36,16.28,55.93,19.08,2.17.3,4,3.23,5.94,4.94-8.37,1.65-15.29,5-15.58,14.9q-.53,17.94-.51,35.89,0,251.36,0,502.71,0,61.85,0,123.69,0,14,.67,27.9c.32,6.83,6,13,12.31,13.51,6.6.56,13.23,1,19.85,1.11C6385.81,839.4,6409.74,839.55,6433.67,839.77Z"/><path class="cls-3" d="M1019.91,1390.35c3.46-4,6.28-8.89,10.5-11.77,52.67-36.08,106.67-70.17,162.34-101.38,36-20.17,73.66-37.27,110.32-56.26,59.15-30.64,120.67-55.64,182.58-80.09,55.76-22,112.64-40.58,169.7-58.39,54.46-17,109.9-30.9,165.53-43.83,41.35-9.61,82.38-20.93,124.07-28.69,22-4.11,43.57-12.73,66.64-10.72q0,381.22.14,762.46c0,45.87.75,44.9-42.71,44.89q-453.07-.09-906.16,0c-8,0-16,0-23.94-.38-11.64-.47-17.71-5.91-18.11-16.62-.45-12-.49-23.94-.51-35.91Q1020.08,1572,1019.91,1390.35Z"/><path class="cls-4" d="M8553.51,3781.13l72,.2,46.44,0q105.47.12,210.95.27c14.58,0,29.17.51,43.74.79-7.79,29.13-15.88,58.08-26,86.61-11.87,33.52-26.8,65.71-39.46,98.85-3.74,9.79-9.28,18.89-14,28.31-14.61.53-29.22,1.51-43.83,1.51q-1045.32.12-2090.63,0c-16,0-32-.51-47.94-.78.52-6.61.49-13.31,1.63-19.81q15.95-90.32,32.33-180.53c.93-5.12,3.39-10,5.14-14.93q849.94,0,1699.89-.09c25.27,0,50.54-.15,75.81-.22Z"/><path class="cls-5" d="M6433.67,839.77c-23.93-.22-47.86-.37-71.79-.7-6.62-.09-13.25-.55-19.85-1.11-6.32-.54-12-6.68-12.31-13.51q-.65-13.94-.67-27.9-.11-61.84,0-123.69,0-251.35,0-502.71,0-17.94.51-35.89c.29-9.91,7.21-13.25,15.58-14.9,8.73,3.08,17.62,5.75,26.15,9.31,53.87,22.48,107.15,46,158.51,74.15,52.51,28.72,103.8,59.24,152.45,93.92,33.45,23.85,65.8,49.21,97.37,75.71A1086.37,1086.37,0,0,1,6872,460.07a986,986,0,0,1,99.58,124c4.88,7.23,5.51,14.68,3.64,22.75-19.33-.18-36,8.8-53,16-15.92,6.73-31,15.37-46.65,22.79-28,13.3-52.4,31.84-73.91,53.66a388.55,388.55,0,0,1-117.45,81.41c-42.39,19.18-86.42,34.37-132.43,43-23.45,4.39-46.73,9.92-70.31,13.38C6465.75,839.38,6449.62,839,6433.67,839.77Z"/><path class="cls-4" d="M4953.72,143.32c2-1.74,3.64-4.22,5.94-5.12A1898.05,1898.05,0,0,1,5190.46,64c27-6.81,54-13.62,81.2-19.28,23.29-4.83,46.17-11.53,70.1-13.62,19.73-1.71,38.75-9,58.85-8.93,16.4-6.86,33.8-6.3,51-6.94,4-.14,8.21.12,11.86-1.15,21.87-7.61,44.57-6.14,67.09-6.77,14.58-.41,29-.38,43.41-4.7,8.68-2.6,18.38-2.39,27.63-2.47,29.24-.27,58.49-.08,87.73-.07,7.53,11.76,8.19,24.83,8.16,38.35q-.31,141.69-.08,283.39c.05,47.27,1.47,45.68-45.93,45.66q-325.31-.09-650.62-.05c-10.63,0-21.28-.18-31.91-.64-8.13-.35-14.2-7-14.54-15.94-.42-10.63-.52-21.27-.53-31.91Q4953.76,231.14,4953.72,143.32Z"/><path class="cls-6" d="M6664.81,3996.9c16,.27,32,.78,47.95.78q1045.31.06,2090.63,0c14.61,0,29.22-1,43.83-1.51,14.61.56,29.22,1.6,43.83,1.61q199.85.2,399.69.12c12,0,24,.44,35.91,1,6.2.31,10.74,7.58,9.32,14.91-.44,2.24-2.12,5-4,6a27.07,27.07,0,0,1-11.18,3.27c-14.65.41-29.31.31-44,.31H1143q-545.58,0-1091.16-.07c-14.61,0-29.24-.67-43.81-1.75a8.55,8.55,0,0,1-8-7.55c-.61-4.44,2.68-12.34,6.16-13.49,2.47-.82,4.95-2.17,7.46-2.25,12-.35,24-.45,36-.46q271.8,0,543.59-.07c14.62,0,29.24-.88,43.87-1.35,6.63.42,13.26,1.2,19.88,1.21q187.74.1,375.47,0c9.29,0,18.57-.9,27.86-1.38,10.61.51,21.22,1.46,31.84,1.47q261.6.14,523.2,0c11.94,0,23.87-1.2,35.81-1.84,15.91.51,31.81,1.45,47.72,1.46q527.91.12,1055.83,0c13.26,0,26.52-.6,39.78-.92,13.28.41,26.56,1.18,39.84,1.18q327.23.12,654.45,0c12,0,23.93-.42,35.89-.64,13.26.48,26.54,1.39,39.81,1.39q407,.13,814,0c13.27,0,26.54-.9,39.81-1.38l8.13,0c13.25.55,26.5,1.57,39.76,1.57q643.93.13,1287.87,0c13.25,0,26.5-1.12,39.74-1.72,6.65.29,13.3.83,19.95.84q109.88.09,219.76,0c8,0,15.92-.91,23.87-1.39,3.94.46,7.88,1.33,11.81,1.33q127.13-.11,254.24-.4,61.05-.68,122.09-1.38a551.72,551.72,0,0,0,103.37-.2C6587.47,3999.37,6626.15,3997.45,6664.81,3996.9Z"/><path class="cls-1" d="M1019.91,1390.35q.18,181.64.39,363.26c0,12,.06,24,.51,35.91.4,10.71,6.47,16.15,18.11,16.62,8,.33,16,.38,23.94.38q453.09,0,906.16,0c43.46,0,42.73,1,42.71-44.89q-.18-381.24-.14-762.46c4.84-1.21,10-1.81,14.46-3.78,8.3-3.63,16.85-4.55,25.7-4.21q-.06,25.95-.1,51.9,0,379.23,0,758.46c0,45.81.73,44.88-42.74,44.88q-489-.09-978,0c-8,0-16-.05-23.94-.37-11.64-.48-17.78-5.94-18.18-16.58-.46-12-.52-23.94-.52-35.92q-.07-189.61-.06-379.23c3.13-7.1,8.58-11.84,15.37-15.3C1009.07,1396.22,1014.47,1393.25,1019.91,1390.35Z"/><path class="cls-4" d="M988.22,1414.32q0,189.62.06,379.23c0,12,.06,24,.52,35.92.4,10.64,6.54,16.1,18.18,16.58,8,.32,16,.37,23.94.37q489,0,978,0c43.47,0,42.76.93,42.74-44.88q-.13-379.23,0-758.46,0-26,.1-51.9a52.43,52.43,0,0,1,7.29-.69c5.21.88,10.46,1.63,15.64,2.69,4.46.9,6.48,4.71,7.58,8.4s1.17,7.89,1.27,11.86c.19,8,.12,16,.12,24v791.17c0,53,3.19,49.88-49.72,49.88H999c-53.45,0-50.69,3.61-50.66-49q.06-169.82,0-339.64c0-14.65-.37-29.29-.57-44,6.23-11.42,16.15-19.37,26.38-26.74C978,1416.45,983.48,1415.89,988.22,1414.32Z"/><path class="cls-1" d="M4953.72,143.32q.09,87.81.2,175.63c0,10.64.11,21.28.53,31.91.34,8.94,6.41,15.59,14.54,15.94,10.63.46,21.28.64,31.91.64q325.32.06,650.62.05c47.4,0,46,1.61,45.93-45.66q-.16-141.69.08-283.39c0-13.52-.63-26.59-8.16-38.35l40.14.14c-5.28,9.44-8.77,19.25-8.14,30.4.53,9.29.09,18.64.09,28q0,151.85,0,303.69c-.05,36.77-.29,37-38.54,37q-357.65.12-715.28,0c-8,0-16-.41-23.91-.94-6.5-.43-12.65-6.46-12.85-13-.51-17.29-.84-34.6-.9-51.89q-.24-77.92-.16-155.84c0-11.4-6.12-16.84-16.59-18.66C4925,149.24,4939.49,146.67,4953.72,143.32Z"/><path class="cls-4" d="M4913.19,159c10.47,1.82,16.6,7.26,16.59,18.66q-.07,77.91.16,155.84c.06,17.29.39,34.6.9,51.89.2,6.56,6.35,12.59,12.85,13,8,.53,15.94.94,23.91.94q357.64.07,715.28,0c38.25,0,38.49-.24,38.54-37q.19-151.85,0-303.69c0-9.33.44-18.68-.09-28-.63-11.15,2.86-21,8.14-30.4l23.34.83q.21,197.46.41,394.89a101.23,101.23,0,0,1-.56,11.94,19.18,19.18,0,0,1-2.15,7.61,12.77,12.77,0,0,1-5.74,5.24,37.27,37.27,0,0,1-11.63,2.3c-10.63.37-21.27.33-31.9.34h-741.9c-9.31,0-18.62.12-27.92-.09-21.48-.49-25.37-4.1-25.46-25.89-.24-61.16,0-122.32-.19-183.48,0-15.93-.75-31.87-1.16-47.82Q4908.91,162.52,4913.19,159Z"/><path class="cls-7" d="M3524.67,3997c-12,.23-23.93.65-35.89.65q-327.22.06-654.45,0c-13.28,0-26.56-.77-39.83-1.18-.77-12.36-7.34-22.56-12.33-33.37-6.56-14.24-18.09-22.74-32.24-27.93-16.29-6-33-9.95-50.58-9.41q0-58.65-.12-117.3c0-7.81-.16-15.65-.9-23.41-.52-5.4-4.18-9.32-8.44-12.54,2.13-4.8,3.37-10.31,6.52-14.31,43.34-55,73.4-116.83,93.6-183.4,11.14-36.72,21.08-74.07,21.33-112.92.11-16.34,2.34-31.49,12.43-44.92,2.53-3.38-2.87-10.92-7.74-11.08-13.27-.44-26.55-.93-39.83-.93q-263.19,0-526.37.17c-11.94,0-23.92,0-35.79-1.06-3.23-.28-6.12-4.29-9.18-6.58q230.22,0,460.45.06c9.26,0,18.52-.15,27.77-.39,5.57-.15,10-2.87,13.76-6.83,2.14-1.57,4.35-3.07,6.42-4.73,8.23-6.61,11.15-15.17,6.8-24.79-7.11-15.74-14.95-31.16-22.7-46.6-13.49-26.85-34-47-58.81-63.69-23.32-15.7-48.87-26.94-73.51-40-12.89-6.84-25.74-13.85-38.09-21.6a25.78,25.78,0,0,1-11.46-15.74c-1.09-4.35,2.4-12.28,6.72-12.93,5.18-.77,10.59-1.84,15.66-1.12,7.85,1.11,15.4,4.16,23.24,5.46,40.18,6.69,71.07,28.24,96.12,59.33,3.34,4.14,6.61,8.34,9.68,12.67,17.07,24,37.91,44.53,59.51,64.3,21.12,19.34,46.38,30.79,73.91,37.48,5.07,1.24,10.77,2.16,15.73,1.1,15.53-3.32,31.4-6.24,46.13-11.93,23.56-9.09,45.46-21.7,66.91-35.27,23.81-15.07,42.38-36.32,65.16-52.52,6.28-4.46,14.23-10,13.46-18.59-1.06-11.93-13.2-11.87-21.32-13.93-49-12.46-89.19-40.51-127.82-71.32a63.7,63.7,0,0,1-20.93-28.61c-1.66-4.66,1.78-12.42,6.42-12.34,9.22.14,18.81-.62,27.59,1.6,32.17,8.11,64.51,15.57,96,26.39,22.58,7.75,46.27,12.33,68.64,20.59,19.37,7.14,36.09,4,53.38-5.2,15.67-8.3,28.27-19.61,38.91-33.58,14.74-19.35,24.65-41.46,30.77-64.39,5.76-21.57,12.22-43.63,10.87-66.55a153.08,153.08,0,0,0-3.34-23.53c-6.61-30.13-24.37-52.79-48.88-70.48-41.65-30-88.35-48.38-138.4-58.71,6.87-8.88,17.47-11.75,26.84-16.51,17.84-9.06,35.35-19.06,50-32.49,34.25-31.48,66.38-64.94,91.93-104.33,19.53-30.12,36-62,54.05-92.89,6.7-11.45,12-23.75,17.65-35.77,1.68-3.54,2.61-7.43,3.84-11.17.84-2.58-4.33-8.58-7.16-8.1-11.68,2-23.37,6-35,5.86-37-.52-74.38,5.08-110.94-6.42-9.91-3.12-21.23-1.47-31.49-3.83-32.34-7.43-64-17.54-95.08-29a121.38,121.38,0,0,1-46.14-30.21c-7.07-7.37-4.25-19.63,5.31-22.91,3.74-1.29,7.69-2,11.45-3.22,19-6.35,39.36-6,58.52-10.57,15.84-3.76,31.35-5,47.27-5.14s31.95,0,47.91-.35c8-.16,16.55.74,23.71-1.92,16.81-6.25,34-5.57,51.23-5.69,18.63-.13,37.29-.91,55.88-.06,17.72.8,34.19-3.64,50.69-8.75,18.47-5.72,33-17.14,44.49-32.29,29.71-39.32,46.59-83,44.63-133.09-.63-15.94-1.17-32,.12-47.88,2.09-25.75-3.95-50.32-10.09-74.61-8.94-35.32-24.47-67.47-53.8-91.11a53.62,53.62,0,0,1-5.69-5.59c-7.37-7.93-16.24-13.63-26-18.23-7.21-3.42-14.11-7.54-21.42-10.69-35.59-15.33-72.1-26.28-111.5-25.83-49.23.57-98.47.21-147.71.25-.58-12.54-6.81-22.87-13.52-32.76-25.65-37.79-42.53-79.52-55.67-122.93-1.51-5-2-10.39-2.6-15.64-.71-6.6.58-13.85-1.71-19.78-10.48-27.15-5.36-55.28-6.19-83-.19-6.49,1.76-13.08,3-19.56s3.88-12.83,4.29-19.34c2.83-45.08,22.57-84.19,43-123,2.42-4.6,6.5-8.38,10.11-12.27,4.52-4.88,9.74-9.15,14-14.24,28.55-34.24,67.37-51.5,108.56-63.31,24-6.88,48.8-12.83,74.55-10,9.21,1,18.72-.73,27.92.32,29.65,3.4,57.93-5.34,86.76-9,5.12-.65,10.2-3,14.91-5.31,19-9.4,38.07-18.57,55.77-30.78,22.26-15.35,40.13-33.89,55.8-55.89,18.54-26,32.74-54.66,51.38-80.52,2.32-3.22,3.34-7.65,6.15-10.19,25.76-23.28,42.09-54.8,68.34-77.64,8-7,14.86-15.22,24.82-19.83,3.54-1.64,7.25-4,9.61-7,18.65-23.68,45.47-36.45,70.09-51.82,23.71-14.8,49.28-26,77.9-28.38,6.5-.53,12.93-2.78,19.21-4.81a41,41,0,0,1,27.31.45,141.37,141.37,0,0,0,19.24,4.83c28.09,5.63,52,19,72.94,38.33,6.78,6.28,14.28,11.76,21.45,17.6-4.24,5-8.12,10.43-12.79,15-25,24.68-43,54-56.37,86.19a346.39,346.39,0,0,0-25.7,104.11c-6,71.83-3.45,143.32,13,214,6.05,26.08,14.16,51.17,25.41,75.33,5.61,12,11.24,24.09,17.31,35.9,38.9,75.79,84.15,147.79,130.92,218.87,2.83,4.31,7.31,7.52,11,11.25-1.94,17.12-5.29,34.22-5.53,51.37-.47,33.34-6.52,66-10.43,98.91a179.5,179.5,0,0,1-23.93,70.93c-47.36,80.45-82.72,165.93-105.09,256.93-13.16,53.53-17.36,107.3-14,161.89,2.51,40.52,15.28,77.9,37.82,111.79a17.24,17.24,0,0,0,13,8.08q2.8,5.45,5.64,10.91c-1,4.18-3.85,8.36-7.62,7.6-36.42-7.36-71.44-1-105.7,10.8a511.36,511.36,0,0,0-55.22,22.43c-50.54,24.35-95.93,56.69-138.92,92.48-1.93,1.61-3,4.29-4.42,6.47-7,2.26-11.72,7.5-12.31,14.2-1.17,13.2-1,26.54-1,39.83q-.06,560.4-.07,1120.82C3525.55,3965.08,3525,3981,3524.67,3997Z"/><path class="cls-5" d="M2963.1,1958.45c49.24,0,98.48.32,147.71-.25,39.4-.45,75.91,10.5,111.5,25.83,7.31,3.15,14.21,7.27,21.42,10.69,9.72,4.6,18.59,10.3,26,18.23a53.62,53.62,0,0,0,5.69,5.59c29.33,23.64,44.86,55.79,53.8,91.11,6.14,24.29,12.18,48.86,10.09,74.61-1.29,15.86-.75,31.94-.12,47.88,2,50.08-14.92,93.77-44.63,133.09-11.45,15.15-26,26.57-44.49,32.29-16.5,5.11-33,9.55-50.69,8.75-18.59-.85-37.25-.07-55.88.06-17.25.12-34.42-.56-51.23,5.69-7.16,2.66-15.75,1.76-23.71,1.92-16,.32-31.94.2-47.91.35s-31.43,1.38-47.27,5.14c-19.16,4.55-39.47,4.22-58.52,10.57-3.76,1.26-7.71,1.93-11.45,3.22-9.56,3.28-12.38,15.54-5.31,22.91a121.38,121.38,0,0,0,46.14,30.21c31.13,11.46,62.74,21.57,95.08,29,10.26,2.36,21.58.71,31.49,3.83,36.56,11.5,73.92,5.9,110.94,6.42,11.63.16,23.32-3.86,35-5.86,2.83-.48,8,5.52,7.16,8.1-1.23,3.74-2.16,7.63-3.84,11.17-5.69,12-11,24.32-17.65,35.77-18.1,30.92-34.52,62.77-54.05,92.89-25.55,39.39-57.68,72.85-91.93,104.33-14.61,13.43-32.12,23.43-50,32.49-9.37,4.76-20,7.63-26.84,16.51l-24.51,8.92c-1.77-1.84-3.23-4.65-5.38-5.35-13.43-4.42-26.33-11-41.05-10.5-10.52.39-20.41-2-30.31-5.71-5.88-2.18-12.75-1.7-19.17-2.42-9.93-3.64-20.46-6.16-29.68-11.13-27.61-14.89-27.77-12.34-65.19-12.72-10.57-.11-21.14,0-32,0,.75,3.34.5,6.55,1.86,7.55,12.83,9.4,30,10.14,42,22,7.43,7.37,16.94,12.61,25,19.45,7.78,6.63,16.67,7.42,26.1,7-.59,11.44,6.51,18.8,14,25.74,10,9.28,17.83,22.1,33.92,22.12,0,5.29-.77,10.7.07,15.86,3.79,23.13-5.2,38.36-27.21,46.27-8.69,3.13-17,7.4-25.81,10.07-26.53,8-53.47,14.12-81.25,16-7.87.54-16,1-23.43,3.3-11.64,3.66-23.39,4.09-35.3,4.11-29.13,0-58.25.14-87.37,0-7.93,0-16.42.91-23.67-1.53-23.29-7.86-47-6-70.8-5.48a20.62,20.62,0,0,0-16.75-8.42c-7.8-.06-15.61.14-23.41.23-3.12-2.32-5.94-5.94-9.42-6.76-37.11-8.78-73.48-19.19-105-41.94-3.15-2.27-6.93-3.72-10.48-5.4-6.2-2.94-12.74-2.56-19.3-1.8-.94-6.49-.44-13.67-3.14-19.31-5.19-10.81-13.82-19.38-24.21-25.44-2.7-1.58-8.22-1.14-10.91.66-5.36,3.61-10.81,8.08-14.2,13.47-16.82,26.8-33.73,53.59-49.21,81.17-23.94,42.65-43,87.74-62,132.73-12.74,30.29-21.79,62.21-21,95.88.13,5.28-.19,10.57-.3,15.86-6.58,5.74-7.3,13.48-7.32,21.46q-.15,78.53-.22,157c0,6.52.93,13,1.44,19.56l-50.17.76q.29-47.92.59-95.85c.2-29.17-2-58.56,7.94-86.84,12.93-71.21,35.59-138.74,75.15-200,4.3-6.67,8.75-13.75,10.79-21.28,4.25-15.62,12.57-29.3,18.61-44,5.53-13.49,10.39-27.29,14.75-41.21,4-12.63,6.74-25.63,10.24-38.42,1.75-6.39,4.5-12.55,5.81-19,3.17-15.55,7.51-31.16,8.11-46.87.67-17.47,4.22-34.1,7.7-51,1.68-8.16-1.48-15.85-7.49-21.81a108.16,108.16,0,0,0-12.15-10.25c-16-11.77-33.83-21.67-47.94-35.39-28.52-27.71-60.25-52.66-81.32-87.37-28.38-28.8-36.38-67.23-48.75-103.57-1.25-3.67-.94-7.9-1.16-11.88-2.83-50.74-.59-67.06,16.34-113.23,8.3-22.67,19.32-43.52,37.57-60.31,17.61-16.22,33.9-33.89,51-50.7,28.54-28.11,60.93-51.13,95.32-71.47,8-4.73,16-9.48,23.63-14.78s18.78-3.53,23.83-13.1l16.39-.43-1.53,39.88c-11.05,24.86-2.65,53.22-14,78-.33,13.3.16,26.7-1.23,39.9s-6.3,26-6.79,39.05c-1.09,29.26-1.29,58.62-.11,87.86.76,18.65,6.87,36.46,16.66,52.68,3.79,6.27,14.88,7.87,21.36,3.19a49.79,49.79,0,0,0,16.95-21.55c8.49-19.84,7.72-41.67,14.4-61.93,2.82-8.54,1.64-18.45,1.92-27.74.72-23.84-2.14-48,6.73-71.09.92-2.39.82-5.26.82-7.9q0-63.91-.19-127.83c0-5.59-3-10-7-13.76,0-5.33.2-10.66.09-16-.64-33.23,1.46-34.85,31.6-47.49,52.66-22.09,103.53-48.53,158.37-65.47,17.73-5.48,34.68-13.45,52.11-19.94,37.42-13.93,76.26-23,114.86-32.79,15.35-3.89,31.32-5.29,46.87-9,8.61-2.06,18.33.44,27.54,1,3.14.19,6.46,6.47,5,9.5-8.83,17.86-17.56,35.78-26.82,53.43-6.16,11.75-13.62,22.84-19.66,34.65-18.2,35.57-35.64,71.53-54,107-12.34,23.78-20.39,49.08-29,74.23-4,11.68-4.2,23.44-2.69,35.47,1,7.65,11.88,12.84,18.58,8.38,5.5-3.65,11.15-7.34,15.81-11.95,23.68-23.42,47.59-46.65,70.35-71a528.51,528.51,0,0,0,40.43-49.23c36.87-50.36,74.48-100.21,109.53-151.89,8.95-13.2,18.5-26.06,26.54-39.8C2940.29,1971.24,2950.46,1963.61,2963.1,1958.45Zm-189.66,815.77c-4.23-6-5.18-8.64-7-9.8-23.59-14.73-46.83-30.12-71.11-43.62-38.62-21.49-79.2-35.43-124.66-35.17-26.91.16-52.43,6.64-78.59,10-10.25,1.3-20,6.83-27.69,14.76-5.12,5.29-4.74,17.7,1.18,21.47,15.78,10.06,32.16,16.89,51.56,18.81,26.25,2.6,52.1,9,78.78,8a27.88,27.88,0,0,1,11.64,2.19c12.64,5.39,26.07,4,39.18,5.53s25.91,5,38.91,7.33c3.88.7,7.94.54,11.92.54C2721.41,2774.24,2745.28,2774.22,2773.44,2774.22Z"/><path class="cls-8" d="M3850.8,2634.49l-5.64-10.9c-1.32-5.15-2.23-10.44-4-15.41-9.66-26.89-4.19-52.4,7.28-77.12,4.43-9.56,10.2-18.59,16-27.41,16.12-24.31,33.2-48,48.83-72.63q113.07-178.09,225.47-356.62c3.48-5.51,5.87-11.7,8.77-17.58,6.42-8.35,13.27-16.41,19.19-25.11q81.86-120.29,163.54-240.68c9.66-14.16,18.39-29.21,31.76-40.53,41.95,32.52,85,63.59,129.28,92.79,42.11,27.73,84.71,54.74,130.27,76.54,19.09,9.14,38.79,17.11,58.55,24.73a111.79,111.79,0,0,0,27,6.28c28,3.32,52.12-7.1,74.1-23.17,28.14-20.56,51.45-45.62,68.58-76.17l5.66-5.25,2.37-1c61.1,3.48,122.11,8.43,183.38,8.56,77.19.16,154.38.87,231.56,1.34q15.73,47.17,31.44,94.34c2.08,6.25,3.23,12.92,8.6,17.54,1.79,7.68,3,15.55,5.45,23q83.82,256.68,167.87,513.28c2.89,8.81,5.56,17.69,8.7,26.41,3.25,9,3.32,18.15,2.45,27.46-21.14-.07-38.39,11-54.77,21.8-17,11.21-36.6,15.32-54.17,24.56-4.4,2.32-10.32,2.09-15.58,2.39-14.58.85-29.19,1.37-43.8,2-11.45-.45-20.05-6.34-27.11-14.68a110,110,0,0,1-9-13q-67.43-107.73-134.82-215.49c-5.59-8.91-12.09-17.26-18.16-25.88-2-6.29-3.18-13-6.22-18.78-5.56-10.53-12-20.65-18.5-30.65-13.8-21.15-24.42-44.15-37.52-65.62-21.44-35.13-40.65-71.49-60.13-107.64-25.85-48-49.09-97.32-73.49-146-5.94-11.88-12.11-23.54-15.52-36.61-1.61-6.15-6.21-11.55-9.61-17.19-1.67-2.78-8.77-2.42-10.42.52-5.85,10.4-11.94,20.68-17.29,31.33-28.67,57-56.74,114.31-85.81,171.11-19.35,37.8-40,74.93-60.12,112.34a74.71,74.71,0,0,1-4.19,6.77c-18,26.33-31.32,55.38-48.05,82.48-13.93,22.55-25.45,46.61-39.75,68.91-25,39.07-46.13,80.59-73.75,118a25.22,25.22,0,0,0-1.74,3.58c-18.71,36.87-44.52,69.05-68.77,102.14-11.64,15.87-26.42,29.56-43.16,41-21.84,14.88-42.69,31.19-64,46.88-7.89.8-15.77,2.18-23.68,2.31-46.39.75-92.79,2-139.18,1.59-82.24-.7-164.24-5.36-245.55-18.88a768.34,768.34,0,0,1-100.38-24C3875.93,2657.23,3861.59,2648.77,3850.8,2634.49Z"/><path class="cls-9" d="M5768.32,2776.29c3.87.25,8-.27,11.57.91,6.48,2.15,11.71,6.58,12.09,13.88.68,13.08.61,26.2.85,39.31.17,9.16-.37,18.42,3.75,27-1.86,3.45-5.13,6.82-5.31,10.35-1.12,22.1-3.27,44.28,1.87,66.22-.88,24.39-2.05,48.78-2.48,73.18-.14,7.61,1.72,15.26,2.66,22.89-.17,14.57-.5,29.14-.5,43.71q0,280.18-.1,560.38c0,14.52-1.21,29-1.85,43.57-21.15-.75-42.48,1.34-63-6.87-5.84-2.35-13.2-1.8-19.76-1.3-29.59,2.24-57.36-9.6-86.49-10.65-9.89-4.58-20.4-5.34-31.13-5.72-6.53-.23-13.06-1.87-19.49-3.36-18-4.2-36.13-8.22-54-13.08-34.47-9.39-68.92-18.84-103.11-29.17-17.72-5.36-34.75-13-52.28-19-36.43-12.53-71.07-29.3-106.4-44.44-24.5-10.5-46.29-25.94-69.71-38.34-17.64-9.34-35.24-18.72-51.3-30.43-21.41-15.62-44-29.46-65.3-45.35s-39.56-35.4-62.79-48.55c-34.38-36.84-75-67.75-103.86-109.85a58.45,58.45,0,0,0-10.55-11.9c-18.68-15.53-28.79-38.07-45.64-55.06-32.87-51.35-68.35-101.08-94.9-156.34-10.35-21.55-19.41-43.61-29.15-65.39-9.23-20.66-17.12-41.65-24.69-62.92-16-45-28.31-91-38.83-137.47,17.31-.19,34.63-.55,51.94-.55q503.6-.12,1007.18-.18c12,0,24,.38,35.95-.42C5758.58,2781,5763.41,2778.06,5768.32,2776.29Zm-174.54,261.33c16.25.25,21.63-3.43,27.39-16.37,3.66-8.23,1-15.84-8.48-24-1-.86-2.06-1.64-3.13-2.42-7.94-5.74-17.79-5.56-25.44,1.11a60.57,60.57,0,0,0-10.47,11.69c-5.91,8.76-1.63,22.6,8.28,26.75C5586.68,3036.39,5592,3037.15,5593.78,3037.62Z"/><path class="cls-7" d="M1651.16,3995.84c-11.94.64-23.87,1.83-35.81,1.84q-261.6.18-523.2,0c-10.62,0-21.23-1-31.84-1.47,3.81-12.65,7.63-25.3,11-36.49,3.19-3.11,4.85-5.33,7-6.75,30.24-19.71,30.26-19.62,66.5-19.76q67.9-.26,135.8-.67c3.21,0,4.91-1.71,4.83-5.07a7.39,7.39,0,0,0-.86-3.62c-1.39-2.23-2.72-4.75-4.74-6.3-13.67-10.49-26.93-21.68-41.44-30.88-24.05-15.25-42.22-36.63-60.69-57.37-14.91-16.73-26.5-36.39-39.7-54.66-18.79-26-34-54.12-46.48-83.5a625.06,625.06,0,0,1-31.36-94.39c-4.12-16.69-9.49-33.12-8.29-50.84.44-6.4-1.26-13.31-3.5-19.42a71.28,71.28,0,0,1-4.11-27.45c.36-10-4.24-17.66-10-25.22-3.14-4.1,1-11.14,6.38-11.37,10.63-.45,21.28-.88,31.92-.9,63.94-.08,127.88,0,191.82-.1,10.61,0,21.22-.8,31.82-1.47,4.62-.29,9.85-5.88,10.48-10.53.36-2.63,1.11-5.24,1.12-7.86.11-34.64,2-69.41-.46-103.85-1.91-26.2-7.07-52.75-16.92-77.37-12.81-32-24.93-64.56-42.35-94.55-8-13.76-16.74-27.1-25.61-40.31-5-7.47-18.2-9-25.15-3.58a44.54,44.54,0,0,0-6.13,5.11c-22.24,24.63-52,36.28-82,47.46-11.26,4.19-22.49,8-34.86,7.38-5.24-.27-11.12-.28-15.75,1.78-16.55,7.35-33.89,5.89-51.13,6-16,.09-32,.06-48,0-13.3,0-26.14-1.18-39.3-5-16.39-4.8-34.08-5-50.24-11.52-6.15-2.49-12.33-5-18.25-8-15.46-7.83-19.92-27.52-9.3-40.45q3.81-4.62,8-8.9c6.52-6.67,13.51-12.91,19.67-19.89,20-22.73,45.21-36.54,74.16-44.44,23-6.27,45.49-14.63,69.88-13.79,4,.13,8.4.47,11.86-1,15.08-6.55,31.08-6.49,47-7.77,6.94-.56,12.32-4.47,15.87-10.68,3.29-5.72,1.9-14.69-2.82-18.08-7.68-5.52-15.92-9.89-25.58-10-18.65-.24-37.3-.37-55.94.07a38.1,38.1,0,0,0-15.32,3.78c-19.1,9.3-38.65,17.61-56.17,30.14-15.07,10.79-31.71,19.37-47.45,29.24-19.53,12.25-41.63,17.75-63.59,22.14-15.37,3.07-31.74,1.27-47.66,1.36-2.52,0-5.24-1.17-7.55-2.4C744.4,3062.58,721.45,3051,706,3030.2c-23.7-31.94-46.67-64.23-64-100.57-26.31-55.05-28.48-52.82,30.58-51.46,35.48.81,67.74-10.79,100.88-20.32,15.95-4.58,28.89-13,41.56-22.74,6.07-4.64,4.5-16.38-2.57-20.49-8.12-4.71-16.44-8.46-26.2-8.64-18.55-.32-37.22,1.25-55.12-6.54-5.73-2.49-13.14-1.35-19.78-1.44-13.32-.17-26.66-.53-40,0a224.6,224.6,0,0,1-70.84-8.41c-8.13-2.27-15-5.94-19.92-12.33-16.28-21.26-30.07-43.71-32.21-71.48a78.22,78.22,0,0,0-3.84-19.42c-5.43-15.72-5-31.21-.6-47,2.11-7.61,4.3-15.55,4.28-23.33-.06-17.86,6.73-33.74,12.62-49.9a60.62,60.62,0,0,1,15-23.36c5.78-5.52,11.53-11.1,16.9-17,10.15-11.16,22.76-18.09,36.81-23.07,41-14.54,80.92-20.45,125.41-16,12.95,1.28,25.58,6.63,38.08,10.93,3.39,1.16,6.76,4.76,8.44,8.1,16.8,33.38,39.88,62.75,59.93,94,16.45,25.66,35.29,49.7,53.91,73.88,12.15,15.79,22.67,32.84,38.63,45.29,3.06,2.39,6.83,4,10.43,5.54,5.41,2.38,14.58-3.51,14.69-9.58.09-5.25.69-10.94-1-15.67-5.87-16.22-11.15-32.58-19-48.17-19.74-39.16-34.64-80.61-55.38-119.35-1.2-2.24-1.21-5.1-1.82-7.66-1-4.14,3.84-11.75,7.92-12.43,11.93-2,23.72-2.26,35.52,1.34,20.28,6.19,41.25,9.91,61.06,17.91,5.93,2.4,13,2.06,19.53,3,3.19,16.88,3.93,34,9.62,50.68a155.54,155.54,0,0,0,29.64,51.44c13.3,15.5,32,23.62,52.45,25.6,13.19,1.28,26.56.67,39.85,1,12,.28,24.45-1.49,35.73,1.44,24.91,6.46,50.09,6.29,75.21,5.8,25.62-.5,49.81,7.06,74.71,10.49,5,.68,9.57,4.32,14.25,6.79,4.19,2.21,5.48,10.21,2.89,14-7.85,11.66-19.77,17.58-32.12,22.53-44.63,17.88-91.69,26-138.88,33-11.58,1.72-23.79-.51-35.68-1.4-3.89-.29-7.62-2.33-11.51-3.08s-7.89-.91-11.84-1.28c-7.69-.73-13.35,5.62-10.66,12.07,21.67,51.79,50,99.72,85.91,142.81,18.77,22.5,40.55,42.09,66.33,56.68,6.77,3.83,15.76,3.72,20.37,11.42-.44,8.36-2.92,15.94-10.41,20.45-9.17,5.51-17.87,11.4-25.34,19.21-7.71,8.06-11.65,16.89-12.46,28.33-2,28.43,5.26,55.64,12.29,82.24,10.5,39.76,24.13,78.78,44.43,115.06,19.72,35.22,28,74.18,36.62,113.12,3.81,17.28,2.15,34.44,2.73,51.66.4,12,0,24,.29,36,.09,3.94.31,8.27,2,11.66,1.61,3.2,4.88,7.09,8,7.74a124.9,124.9,0,0,0,51.41,0c3.15-.66,7.1-4.53,8-7.68,1.75-6.28,2.14-13.09,2.2-19.68.23-25.32,0-50.63.19-75.94.07-7.95-.65-16.53,2-23.72,8.31-22.74,4.48-47.66,13.6-70.09.35-19.08,8.33-36,14.76-53.44a624.85,624.85,0,0,1,36.07-79.91c6.6-12.3,4.91-22.83-2.38-33.55,11.52-2.63,21.8,1,31.75,6.3,1.46,12.51-3,23.55-8.88,34.09-10.35,18.67-15.78,39.26-23.66,58.87-8,20-5.75,42-14.35,61.66-1,2.31-.73,5.23-.82,7.88-.61,18.48,1.07,37.14-6.78,54.88-2,4.56-1.3,10.46-1.32,15.75q-.13,51.77,0,103.52a103.09,103.09,0,0,0,1.16,11.85c.5,4.23,6,9.6,10.74,10.34a67.83,67.83,0,0,0,7.92.77c8.38.37,15.59-1.54,20.32-9.45,8.15-13.63,16-27.49,25.13-40.45,6-8.57,13.92-15.86,21.29-23.42,1.67-1.72,4.56-2.37,7-3.15,1.17-.38,3.3-.42,3.8.26,1.45,2,3.81,5.14,3.13,6.48-7.13,14.07-15,27.76-22.18,41.8-2.35,4.6-3.46,9.87-4.84,14.91-1.12,4.12,4.15,11.61,8.38,12.06a153.29,153.29,0,0,0,15.84,1.21c26.54,0,53.08-.2,79.62-.32,1.9,4.83,4.81,9.53,5.5,14.54,1.63,11.81.55,24.2,3.51,35.59,10,38.43,19.19,76.91,34.08,114.17,26.51,66.27,65.19,124.35,111.06,178.09,13.74,16.1,28.79,31.71,45.58,44.46,29.52,22.41,57.65,47,90.91,64.22a12.73,12.73,0,0,1,5.66,5.38c.84,1.86.44,6.13-.69,6.68-5.88,2.84-12.15,6.71-18.34,6.82-35.75.63-71.54,3.82-107.25-2.53-26.27-4.67-53-2.45-79.53-1.57-6.44.22-12.72,3.6-19.21,4.86-18.42,3.6-29.49,17-40.86,30C1651.32,3971.68,1651.39,3983.84,1651.16,3995.84Z"/><path class="cls-10" d="M5793.32,3030.06c-.94-7.63-2.8-15.28-2.66-22.89.43-24.4,1.6-48.79,2.48-73.18,8.19,0,15.13,3.66,22.34,7,12.11,5.55,18.05,14.45,18,27.82,0,5.09,1.38,10.19,1.76,12.79,20,24.27,46.58,28.43,72.3,31.43,22,2.56,44.6.09,66.93-.49,2.28-.06,4.5-2.39,7.26-4,3.85-13.41,7.81-27.23,11.78-41,3.54-17.12,11.34-32.52,19.44-47.77,3.73-7,8.15-13.7,11.82-20.76,8.07-15.51,12.44-31.59,11.35-49.59-1-16.62-3.51-31.59-17.46-42.54-3.09-2.43-5.52-5.72-8.13-8.73-22.1-25.47-30.27-55.53-28.83-88.62.71-16.18,5.38-31.24,13.25-45.48,6.72-12.16,13.73-21.64,30.29-21.24,11.45.28,23.92-1.82,33-11.08,5.71-3.2,12.05-5.62,17-9.73,16.69-13.92,35-23.85,56.88-26.58,2.53-.32,4.91-1.89,6.62-2.58,13.12-15.79,25.52-31.27,38.6-46.15,5.2-5.91,11.78-10.64,17.95-15.65,3.3-2.69,7.18-2.72,10.83-.42,1.08.68,1.74,2,2.72,2.85,6.81,6.06,15.44,11,20,18.39,6.21,10,9.5,21.8,13.75,33,7.1,18.63,13,37.6,16,57.39,3.63,23.49,6.45,47,18.55,68.53,5.65,10.05,6.75,22.79,9.18,34.46a40.93,40.93,0,0,1-1.83,23.48c-2.38,6.17-4.05,12.61-6.08,18.91-2.48,7.66-6,14.61-12.21,20.13-3.92,3.5-7.12,7.8-10.77,11.62-6.87,7.21-9.2,15.9-8.68,25.59.07,1.33.08,2.65.15,4,2.56,47.51.55,53.21,33.52,90,18,20.06,31.77,42.45,38.65,68.78,1,3.8,3,7.33,4.53,11,4.8,36.68,21.21,68.32,42.53,97.81a406.83,406.83,0,0,0,50.24,56.81c17.41,16.48,35,32.79,53.3,48.28,46.95,39.78,90.15,83,125.77,133.4,2.29,3.24,4.64,6.8,7.82,8.93s7.19,2.58,10.93,3.43c1.14.26,2.6-.5,3.82-1,32.27-13.55,61.52-31.66,85.54-57.48,35.11-37.76,43.52-81.13,26.33-129.43-4-11.23-9.54-21.93-14.67-32.73a257.29,257.29,0,0,1-22.27-72.21c-9.92-65.24,36.51-108.7,80.6-122a74,74,0,0,1,54.57,4.05,47.44,47.44,0,0,1,22.54,21.66c11.74,22.69,8.06,48.89-9.72,66.1-4.77,4.62-10.35,8.39-15.27,12.87-11.49,10.44-17.33,23.59-16.6,39.09a146.68,146.68,0,0,0,3.57,27.58c4.4,18.16,11.58,35.4,20,52.08,4.81,9.51,10.19,18.73,14.74,28.35,16.66,35.25,14.81,69.46-5.83,102.75-13.56,21.86-31.67,39.38-51.51,55.25-24,19.2-50.14,35.2-77.44,49.2-17.76,9.1-36.1,17.05-54,25.81-4.68,2.29-8.82,5.68-13.21,8.56-9.43-.26-18.2,1.5-26.26,6.93-5.86,3.95-10.2,8.73-9.9,15.89,1,23.92-2.58,47.28-9.34,70s-12,46.08-30.72,63c-3.78,3.42-6.2,8.46-8.84,13-7,11.94-9.54,24.29-3.94,37.75,4.55,10.91,7.61,22.47,12.61,33.15,11.35,24.29,18.64,49.21,15.67,76.34-.14,1.31-.06,2.64-.09,4-5.77.87-9.42,4.75-12.05,9.38-23.65,41.46-47,83.12-70.77,124.5-18.51,32.16-37.56,64-56.37,96l-122.1,1.38c-1-5.18-1.81-10.39-3-15.53-1.44-6.44-3.45-12.76-4.67-19.24-1.94-10.35,7.33-21.06,18.34-21.23a128.89,128.89,0,0,1,19.76.74c7.82,1.09,15.48,3.33,23.24,4.87,6.72,1.33,13-1.82,16.61-8,1.35-2.28,3.07-4.38,4.11-6.77,17.4-40.09,31.07-81.48,42.49-123.6,2.4-8.88,3.4-18.25-.14-27.34a7.32,7.32,0,0,0-1.09-7.45c.88-4.7-1.2-7.75-5.37-9.64-3.59-5.36-6.25-11.77-10.92-15.92-30.4-27-56.7-57.82-83.84-87.87-1.58-3.6-2.53-7.7-4.85-10.73-27.1-35.29-46.73-74-55.26-118-.51-2.6-1.51-5.09-2.16-7.67a33.23,33.23,0,0,0-13.31-19.22q-6.47-4.67-12.71-9.63c-66.41-52.47-122.4-114-163.85-188.23-5.78-10.35-12.51-20.18-18.79-30.25q-3.06-7.51-6.11-15c1.06-4.14-.88-6.78-4.32-8.68-2.42-15.95-10.44-30.07-14.82-45.36s-8.69-30.54-14.33-45.62c-13.88-6.51-27.06-12.76-40.28-18.89q-59.76-27.71-119.58-55.31c-15.9-7.29-30.09-16.38-41.79-29.88C5817.31,3046.81,5807.47,3035.62,5793.32,3030.06Z"/><path class="cls-11" d="M3953.3,1863.7c-3.71-3.73-8.19-6.94-11-11.25-46.77-71.08-92-143.08-130.92-218.87-6.07-11.81-11.7-23.86-17.31-35.9-11.25-24.16-19.36-49.25-25.41-75.33-16.41-70.7-18.92-142.19-13-214a346.39,346.39,0,0,1,25.7-104.11c13.36-32.2,31.34-61.51,56.37-86.19,4.67-4.6,8.55-10,12.79-15,6.69-4.25,13.39-8.46,20.05-12.75,38.63-24.92,80.55-40,126.57-44.22,26.52-2.41,52.93-4,79.6-3.44,31.94.67,63.67-1.85,94.7-10.92a246.28,246.28,0,0,0,99.66-56.36c24.59-22.77,44.45-49.34,62.09-77.66,9.14-14.67,17.58-29.81,27.26-44.11,48.14-71.18,106.76-132.42,176.3-182.91,35.7-25.91,74.33-46,117.65-56.91,63.15-15.9,118.48-1.7,166.55,41.15,14.81,13.2,27.53,28.74,44.55,46.75L4908,715.16c7.11,12.77,18.7,23.36,31.25,33.3a206.93,206.93,0,0,1,41,43.32c13.38,19.06,20.52,40,20.32,63.47-.13,14.67-.8,29.21-4.14,43.58a84.18,84.18,0,0,0,3.66,50.84,144.74,144.74,0,0,1,10.05,46.57c1.19,28.9-6.65,55.25-20.46,80.07a272.77,272.77,0,0,1-54.3,68.53c-13.67,12.53-28.9,23.36-43.43,34.94-7-7.14-10.4-15.25-7.05-25.29,1.68-5,2.9-10.25,4.79-15.22,10.35-27.31,20.88-54.56,31.25-81.87,2.82-7.44,7-14.88,7.6-22.55,2.45-31.71,5.51-63.7-9.48-93.75-1.71,0-3.21-.42-4.33.07-6,2.59-12.3,4.84-17.86,8.23a514.7,514.7,0,0,1-115.77,52.76c-28.13,8.77-56.42,14-86.05,14-25.79,0-50.22-3.92-73.41-15.23-2.39-1.16-4.89-2.09-7.37-3.06-51.08-19.81-39.59-25.55-70.83,21.37-.74,1.11-1.39,2.28-2.22,3.32-14.55,18.12-21.1,39.65-26.49,61.73-2.82,11.56-6.09,23-9.16,34.5-10.12,9.11-16.19,21.17-23.53,32.3-3.92-.64-8.11-.61-11.7-2.07-6.81-2.78-13-1.78-19,1.61-4.6,2.59-9.56,5.06-13.2,8.74-15.87,16-33.35,30.5-45.53,50-4.86,7.78-11.64,14.5-18.2,21.05-8.69,8.68-19.74,14.59-31.64,15.69-23.81,2.22-48.26,4.49-71.42-2.06-22.48-6.35-44.91-5.76-67.27-4.27-21.3,1.43-42.73,7.61-58.95,21.83-20.92,18.35-41.44,37.9-58.44,59.8-22.84,29.41-39.42,63-52.16,98.23-23.22,64.13-31.72,89.6-45.35,160.57-8,41.49-18.32,82.87-18.94,125.57-6,26-8.46,52.32-8.54,79a33.8,33.8,0,0,1-2.47,11.64c-4.37,11.5-4.1,23.48-4.46,35.44C3954.41,1842.44,3953.79,1853.07,3953.3,1863.7Z"/><path class="cls-12" d="M1507.92,3101.59c-10-5.29-20.23-8.93-31.75-6.31-18.21-3.66-36.68-6.35-54.54-11.3-11.34-3.14-22-9.22-32.52-14.74-7.92-4.13-9.94-11.94-9.66-20.39.23-6.79,1.58-13.53,6.36-18.46,10.14-10.48,20.59-20.7,31.36-30.54,6.85-6.25,15-11.07,21.68-17.51,15.67-15.2,34.66-24.44,54.75-31.76,10-3.63,20.3-6.28,30.46-9.37,2.65.05,5.49.74,7.93,0,20.55-5.86,41.51-8.21,62.84-8.32,5.2,0,10.38-1.92,15.61-2.74,9.13-1.44,18.28-2.87,27.45-4,5.26-.65,10.65-.33,15.89-1.09,12-1.76,23-6.15,32.43-14,3.29-2.72,6.46-10.54,4.59-14.25-1.71-3.37-4.17-7.57-7.31-8.79-12.32-4.75-24.58-10-38.28-9.92-19.92.18-39.93-1.28-59.72.29-22.5,1.77-44.46,7-62,23.07-14.81,8.33-30,16.09-44.37,25.1a356.77,356.77,0,0,1-123.42,48.62l-47.13.23-16.42-1.61c-4.61-7.7-13.6-7.59-20.37-11.42-25.78-14.59-47.56-34.18-66.33-56.68-36-43.09-64.24-91-85.91-142.81-2.69-6.45,3-12.8,10.66-12.07,4,.37,8,.53,11.84,1.28s7.62,2.79,11.51,3.08c11.89.89,24.1,3.12,35.68,1.4,47.19-7,94.25-15.14,138.88-33,12.35-5,24.27-10.87,32.12-22.53,2.59-3.84,1.3-11.84-2.89-14-4.68-2.47-9.28-6.11-14.25-6.79-24.9-3.43-49.09-11-74.71-10.49-25.12.49-50.3.66-75.21-5.8-11.28-2.93-23.78-1.16-35.73-1.44-13.29-.31-26.66.3-39.85-1-20.46-2-39.15-10.1-52.45-25.6a155.54,155.54,0,0,1-29.64-51.44c-5.69-16.67-6.43-33.8-9.62-50.68.57-13.26,1.63-26.53,1.63-39.79,0-28.33,7.28-55.13,16.43-81.54,2.14-6.19,4.87-12.55,8.84-17.66,23.4-30.15,51.9-52.61,90.3-61.34,33.7-7.66,67.19-14.51,102.08-14.71,24.25-.14,47.25,6.68,71,8.64,4.65.38,9.89,4.29,13.22,8,7,7.89,13.18,16.6,19.32,25.24,23.09,32.46,46,65.05,69.09,97.5,3,4.27,6.78,8,10.2,12,15.17,28.32,39,50.13,57.63,75.84,7.71,10.61,18.24,19.28,28,28.21,7.88,7.18,17,12.56,27.8,14.67,5.64,1.11,14.06-6.37,12.68-12-1.88-7.71-4-15.4-6.31-23-14.75-47.19-38.84-90-62.11-133.27-1.8-3.34-5.49-5.67-8.29-8.47-5.5-19.39-17-35.76-26.64-53.05-1.76-3.14-2.15-7.31-2.28-11-.12-3.35,6-5.7,13.34-5.54,5.3.12,10.73-.32,15.86.68,18.15,3.54,36.53,6.48,54.2,11.73,26.56,7.89,54,13,79.25,25.33,4.54,2.22,10.35,1.82,15.58,2.63,2,1.67,3.83,4,6.16,4.92,36.87,15.12,74.24,29.13,110.63,45.32,39.25,17.48,35.57,12.38,35.63,56.09.09,54.59.79,109.19.66,163.78-.05,21.65,6.56,41.92,11.16,62.59,1.39,6.27,5.63,12,8.83,17.76,2.23,4.06,9.83,7.76,13.66,6.17a24.6,24.6,0,0,0,9.41-6.53c2.43-2.94,3.65-7,5-10.68,11.28-31.05,7.48-63,5.33-94.79-5.75-15.33-4.73-31.45-5.62-47.37a220.06,220.06,0,0,0-2.16-23.81c-3.67-22.2-7.81-44.32-11.72-66.48-.92-5.19,5.52-10.16,10.48-8.23,31.27,12.17,60.4,28.34,85.2,50.88,24.61,22.37,47.59,46.54,71.32,69.87,7.7,7.56,12.89,16.74,18.31,26,11.07,18.82,15,39.89,18.91,60.61,2.41,12.73,1.57,26.76-.92,39.6-8.28,42.69-26.15,80.76-58.26,111.2-13.53,12.83-26.6,26.14-40.18,38.9-14.59,13.71-30.55,25.51-49.48,32.74-5-9.44-9.47-19.13-14.92-28.26-10.2-17.07-19.73-34.65-34-48.9-18.88-18.8-37.27-38.12-56.73-56.3-10.6-9.9-22.53-18.57-34.62-26.64-20.92-14-38.74-32.42-62.44-42.42-6-2.52-10.76-7.75-16.35-11.33-19-12.18-38-24.42-58.55-34-19.26-9-38-18.86-55.78-30.87-11.94-8.06-26.27-12.62-39.61-18.57-8.49-3.78-17.54-6.46-25.62-10.94-39.66-22-82.23-37.55-123.09-56.88-2.26-1.07-5.14-1.13-7.73-1.09-1,0-2.3,1.44-2.92,2.53a5.35,5.35,0,0,0-.5,3.62c2,7.46,9.09,9.13,14.69,12.05,61.32,32,124.81,59.73,184,95.84,14.7,9,30.21,16.63,44.51,26.41,24.12,16.48,49.21,31.59,72.78,48.81,22.44,16.39,46.16,31.42,64.77,52.62,8.88,10.12,21.19,16.11,30.87,24.94,10.64,9.71,17.22,23.24,27.48,33.92,27,28.13,48.77,59.63,54.69,99.57,6.29,12.67,7.09,25.38.91,38.43-4.14,8.76-3,18.26-2.85,27.56-8.58,8.1-17.06,16.31-25.77,24.27-5.81,5.31-11.39,11.2-18.06,15.19-37.68,22.56-78.51,36.95-122,42.05-17,2-33.77,4.42-50.32,8.66Zm-202.78-565.27c-.9-2.25-1.17-5.34-2.83-6.56a4,4,0,0,0-6.39,2.45,7.86,7.86,0,0,0,2.58,6.51C1300.92,2540.52,1303.6,2539.08,1305.14,2536.32Z"/><path class="cls-7" d="M1869.15,2911.46c18.92-7.24,34.88-19,49.47-32.75,13.58-12.76,26.65-26.07,40.18-38.9,32.11-30.44,50-68.51,58.26-111.2,2.49-12.84,3.33-26.87.92-39.6-3.94-20.72-7.84-41.79-18.91-60.61-5.42-9.23-10.61-18.41-18.31-26-23.73-23.33-46.71-47.5-71.32-69.87-24.8-22.54-53.93-38.71-85.2-50.88-5-1.93-11.4,3-10.48,8.23,3.91,22.16,8,44.28,11.72,66.48a220.06,220.06,0,0,1,2.16,23.81c.89,15.92-.13,32,5.62,47.37,2.15,31.82,6,63.74-5.33,94.79-1.34,3.7-2.56,7.74-5,10.68a24.6,24.6,0,0,1-9.41,6.53c-3.83,1.59-11.43-2.11-13.66-6.17-3.2-5.81-7.44-11.49-8.83-17.76-4.6-20.67-11.21-40.94-11.16-62.59.13-54.59-.57-109.19-.66-163.78-.06-43.71,3.62-38.61-35.63-56.09-36.39-16.19-73.76-30.2-110.63-45.32-2.33-1-4.12-3.25-6.16-4.92,10.19-1.9,17-6.79,16.93-18.33,0-13.29.21-26.57.57-39.85.22-8.56,4-16,11.42-19.79,34.18-17.66,67.92-36.25,103.71-50.62,8.6-3.46,17.44-6.5,25.61-10.79a260.57,260.57,0,0,1,44.18-17.87c5.07-1.57,10.54-2.32,15.17-4.72,35.75-18.49,75.34-24.51,113.37-35.57,11.86-3.45,23.5-3.46,35.43-1.83,5.54.76,11.24,10.15,8.81,15.48-3.83,8.41-7.37,17.19-12.65,24.67-7.76,11-14.5,22.19-17.87,35.26-.33,1.29-.32,2.85-1.08,3.81-18.39,23.36-24.41,52.71-38,78.4-14.93,28.14-25.27,58.28-36.35,88.09-4.83,13-4.81,25.88-3,39.15.63,4.66,8.4,8.05,12.67,5.41,21.51-13.3,43.17-26.43,54.25-50.85,26.84-24.36,42.87-57.06,65-85.11s40.25-59.06,59.72-89c10.81-16.65,20.66-33.92,31.19-50.76,4.21-6.73,9.42-12.83,13.6-19.59,8.5-13.77,21.33-19.63,36.75-19.93,23.9-.46,47.83-.24,71.74-.21,10.63,0,21.26.13,31.88.43,5.6.16,10,3.12,13.61,7.2-5,9.57-16.31,7.87-23.83,13.1s-15.63,10.05-23.63,14.78c-34.39,20.34-66.78,43.36-95.32,71.47-17.08,16.81-33.37,34.48-51,50.7-18.25,16.79-29.27,37.64-37.57,60.31-16.93,46.17-19.17,62.49-16.34,113.23.22,4-.09,8.21,1.16,11.88,12.37,36.34,20.37,74.77,48.75,103.57,21.07,34.71,52.8,59.66,81.32,87.37,14.11,13.72,31.91,23.62,47.94,35.39a108.16,108.16,0,0,1,12.15,10.25c6,6,9.17,13.65,7.49,21.81-3.48,16.88-7,33.51-7.7,51-.6,15.71-4.94,31.32-8.11,46.87-1.31,6.46-4.06,12.62-5.81,19-3.5,12.79-6.28,25.79-10.24,38.42-4.36,13.92-9.22,27.72-14.75,41.21-6,14.73-14.36,28.41-18.61,44-2,7.53-6.49,14.61-10.79,21.28-39.56,61.22-62.22,128.75-75.15,200-10,28.28-7.74,57.67-7.94,86.84q-.35,47.92-.58,95.86l-23,.41c-4.78-4.94-10.78-6.82-17.48-6.87l-46.61-.34c.09-14.55-.18-29.12.32-43.66,1.74-49.61-7.43-97.41-25.08-143.46-8.49-22.15-19.72-43.25-29.77-64.8-11.16-23.94-23.75-47.33-33.28-71.91a435.33,435.33,0,0,1-26.51-103.31C1871,2950.68,1866.58,2931.43,1869.15,2911.46Z"/><path class="cls-8" d="M4892,1191.51c6.54-.87,13.29-1,19.6-2.73,36.78-10.06,71.25-1.52,103.89,14.56,24.32,12,43,30.6,50.67,58,7.28,15.64,15.71,30.86,21.63,47,15.05,41,29,82.42,43.35,123.68,3.49,10,7,20,10.38,30.06q50.1,150.83,100.14,301.68c-25.6-7.14-51-15.27-76.85-21.21-60.93-14-122.07-27-183.2-40.12-16.87-3.62-34-6-51-9-6.36-10.81-16.48-17-27.49-21.85a263.09,263.09,0,0,0-60.5-18.89c-23-4-42.26-14.88-58.56-31.26-10.28-10.32-20.21-21-30.44-31.35s-20.08-21.13-31-30.67c-37.92-33.07-76.29-65.63-114.37-98.54-4.94-4.26-9.14-9.38-13.69-14.1,21.94-24.18,44-48.3,65.76-72.6,4.29-4.77,7.83-10.22,11.72-15.36,9.12-5.69,15.27-14.19,21.41-22.69,4.36-2.9,9.16-5.31,13-8.78,14.82-13.34,29.09-27.28,44-40.51,38.93-34.59,80.77-64.91,128.2-87C4883.29,1197.59,4887.5,1194.3,4892,1191.51Z"/><path class="cls-13" d="M5768.32,2776.29c-4.91,1.77-9.74,4.74-14.74,5.08-11.94.8-24,.42-35.95.42q-503.6.09-1007.18.18c-17.31,0-34.63.36-51.95.55l-232.29-.56q-418.89,0-837.78,0-18,0-35.89-.42c-5.61-.14-10-3.1-13.61-7.22,1.45-2.18,2.49-4.86,4.42-6.47,43-35.79,88.38-68.13,138.92-92.48a511.36,511.36,0,0,1,55.22-22.43c34.26-11.81,69.28-18.16,105.7-10.8,3.77.76,6.65-3.42,7.62-7.6,10.78,14.26,25.12,22.72,42.18,28a768.34,768.34,0,0,0,100.38,24c81.31,13.52,163.31,18.18,245.55,18.88,46.39.4,92.79-.84,139.18-1.59,7.91-.13,15.79-1.51,23.69-2.31,9.24.3,18.53,1.39,27.71.75,30.37-2.1,60.68-5.28,91.06-7.14a200.91,200.91,0,0,0,50.55-9.38c55.64-4.07,111.3-2.73,167-1.4,30.48.73,61,.85,91.44,1.25,7,4.25,14.63,5.84,22.66,6.15q25.74,1,51.47,2.09c19.79.83,39.62,1.25,59.37,2.65,59.24,4.21,118.46,8.75,177.68,13.28,21.05,1.61,42.07,3.53,63.1,5.36,10.49.91,21,2.8,31.16-1.88,25.57,6.07,51.69,5,77.65,6,5.13,4.89,11.62,5.87,18.28,6.4,14.53,1.15,29.08,2.09,43.57,3.58,39.5,4.07,79,8.38,118.48,12.59,32.91,3.51,65.9,6.45,98.73,10.65,42,5.37,83.88,11.82,125.85,17.51,3.69.51,7.69-1.2,11.54-1.88Z"/><path class="cls-14" d="M4892,1191.51c-4.46,2.79-8.67,6.08-13.4,8.29-47.43,22.11-89.27,52.43-128.2,87-14.9,13.23-29.17,27.17-44,40.51-3.84,3.47-8.64,5.88-13,8.78-8.21-4.11-16.66-7.82-24.57-12.44-8.38-4.89-17.17-6.07-26.52-5.14-.44-8.34-3.86-15.19-9.8-21.08-17-16.81-33.76-33.79-50.66-50.68-8.44-8.45-15.19-18.17-22.41-27.64-20.38-26.69-33.54-56.72-45.24-87.68-.93-2.45-1.55-5.14-3-7.26s-3.71-3.64-5.62-5.42c3.07-11.5,6.34-22.94,9.16-34.5,5.39-22.08,11.94-43.61,26.49-61.73.83-1,1.48-2.21,2.22-3.32,31.24-46.92,19.75-41.18,70.83-21.37,2.48,1,5,1.9,7.37,3.06,23.19,11.31,47.62,15.23,73.41,15.23,29.63,0,57.92-5.21,86.05-14a514.7,514.7,0,0,0,115.77-52.76c5.56-3.39,11.83-5.64,17.86-8.23,1.12-.49,2.62-.07,4.33-.07,15,30,11.93,62,9.48,93.75-.6,7.67-4.78,15.11-7.6,22.55-10.37,27.31-20.9,54.56-31.25,81.87-1.89,5-3.11,10.17-4.79,15.22-3.35,10,.06,18.15,7.05,25.29C4891.94,1183.7,4892,1187.6,4892,1191.51Z"/><path class="cls-15" d="M4930.55,1693.42c17,3,34.15,5.38,51,9,61.13,13.09,122.27,26.16,183.2,40.12,25.88,5.94,51.25,14.07,76.85,21.21l12.43,3,19.45,16.42c1.27,7.45,1.39,15.34,4.05,22.26,4.75,12.38,4.53,24.82,3.29,37.5-.53,5.39-4,9.11-8.1,12.26-77.18-.47-154.37-1.18-231.56-1.34-61.27-.13-122.28-5.08-183.38-8.56,1.66-4.9,2.17-10.73,5.21-14.53,8.32-10.39,13.88-22.19,19.75-33.91C4899.8,1762.86,4917.79,1729.35,4930.55,1693.42Z"/><path class="cls-16" d="M5729.07,2768c-3.85.68-7.85,2.39-11.54,1.88-42-5.69-83.84-12.14-125.85-17.51-32.83-4.2-65.82-7.14-98.73-10.65-39.5-4.21-79-8.52-118.48-12.59-14.49-1.49-29-2.43-43.57-3.58-6.66-.53-13.15-1.51-18.28-6.4.5-32.77,4-64.94,16.53-95.71,1.78-4.39,0-10.24-.2-15.41,14.59-.65,29.2-1.17,43.78-2,5.26-.3,11.18-.07,15.58-2.39,17.57-9.24,37.2-13.35,54.17-24.56,16.38-10.83,33.63-21.87,54.77-21.8,4.31,5,8.88,9.77,12.87,15,9.67,12.7,18.84,25.78,28.6,38.39,28.78,37.18,31.35,39,74.23,57.38,11,4.7,22.09,9.21,32.76,14.58s21.05,11.35,31.2,17.66C5702.68,2716.27,5721.63,2737.72,5729.07,2768Z"/><path class="cls-17" d="M5254.05,1766.72l-12.43-3q-50.05-150.84-100.14-301.68c-3.34-10.06-6.89-20-10.38-30.06-14.37-41.26-28.3-82.67-43.35-123.68-5.92-16.13-14.35-31.35-21.63-47,13.2.5,26.39,1.41,39.59,1.41,20,0,39.48,3.07,58.92,7.6,14.81,3.45,26.87,10.79,37.13,21.59,13.88,14.61,23.43,32,31.37,50.28,11.12,25.65,18.19,52.63,22.67,80,5.34,32.63,9.35,65.46,10.23,98.69C5268.21,1603.2,5263.63,1685.07,5254.05,1766.72Z"/><path class="cls-7" d="M2347.74,2174.33c4,3.72,7,8.17,7,13.76q.24,63.91.19,127.83c0,2.64.1,5.51-.82,7.9-8.87,23.1-6,47.25-6.73,71.09-.28,9.29.9,19.2-1.92,27.74-6.68,20.26-5.91,42.09-14.4,61.93a49.79,49.79,0,0,1-16.95,21.55c-6.48,4.68-17.57,3.08-21.36-3.19-9.79-16.22-15.9-34-16.66-52.68-1.18-29.24-1-58.6.11-87.86.49-13.08,5.4-25.94,6.79-39.05s.9-26.6,1.23-39.9c11.38-24.8,3-53.16,14-78l1.53-39.88c2.29-1,4.89-3.12,6.81-2.64C2320.4,2166.42,2334.05,2170.46,2347.74,2174.33Z"/><path class="cls-17" d="M5993.53,2967.51c-4,13.82-7.93,27.64-11.78,41-2.76,1.56-5,3.89-7.26,4-22.33.58-44.93,3-66.93.49-25.72-3-52.31-7.16-72.3-31.43-.38-2.6-1.77-7.7-1.76-12.79,0-13.37-5.91-22.27-18-27.82-7.21-3.31-14.15-7-22.34-7-5.14-21.94-3-44.12-1.87-66.22.18-3.53,3.45-6.9,5.31-10.35,7.64,1.94,15.58,3.11,22.8,6.06a20.75,20.75,0,0,1,13.2,18.19c.43,5.21.89,10.77-.44,15.7-4.4,16.3,4,25.09,17.35,30.77,14.51,6.19,29.05,12.59,44.11,17.1C5926.34,2955,5958.91,2966,5993.53,2967.51Z"/><path class="cls-4" d="M1477.49,2412.19c2.8,2.8,6.49,5.13,8.29,8.47,23.27,43.22,47.36,86.08,62.11,133.27,2.36,7.57,4.43,15.26,6.31,23,1.38,5.65-7,13.13-12.68,12-10.8-2.11-19.92-7.49-27.8-14.67-9.81-8.93-20.34-17.6-28-28.21-18.67-25.71-42.46-47.52-57.63-75.84,6.46-.58,13.09-1.4,17.36-6.81,9.46-12,18.84-24.11,27.51-36.69C1475.66,2422.71,1476,2417.08,1477.49,2412.19Z"/><path class="cls-14" d="M5272.74,1855.16c4.12-3.15,7.57-6.87,8.1-12.26,1.24-12.68,1.46-25.12-3.29-37.5-2.66-6.92-2.78-14.81-4.05-22.26,28.13,15.41,43.32,40.75,53.65,69.83a14.75,14.75,0,0,1,1.08,3.76c2.7,36.63,5.81,73.32-12.81,107.4a16.36,16.36,0,0,1-2.64,2.91c-5.37-4.62-6.52-11.29-8.6-17.54Q5288.5,1902.31,5272.74,1855.16Z"/><path class="cls-5" d="M8672,3781.31l-46.44,0c-1-7.92-1-16.11-3.06-23.72-12.38-44.8-21.1-90.44-31.68-135.65-8.15-34.84-15.27-69.93-22.6-105-9-42.81-15.41-86.11-22.43-129.24-4.66-28.65-12.24-57.29-10.51-86.84a26.12,26.12,0,0,0-.45-8c-10.89-41.88-6.27-84.66-7.44-127.09-.37-13.3.57-26.63.16-39.93-.8-25.7,6.77-49.76,13-74.23,5.24-20.67,18.14-35.12,34.26-47.5a25.45,25.45,0,0,1,10.7-5c31.24-5.26,58,1.47,77.22,29,13.06,18.69,24.58,38.12,29.52,60.58,4.28,19.39,11.87,38.15,11.91,58.41,10,37.82,8.09,76.53,8.18,115,.14,57.24-.41,114.48-.93,171.72-.19,19.9.63,39.89-5.69,59.36-2,6.14-1.35,13.18-1.63,19.82-1,23.86.13,47.87-7,71.23-1.88,6.19-1.14,13.2-1.42,19.85-.51,12-.59,23.9-4.52,35.49a56.1,56.1,0,0,0-2.75,15.65c-1.41,35.94-8.38,71-15.41,106.17C8671.63,3767.85,8672.23,3774.67,8672,3781.31Z"/><path class="cls-5" d="M8553.51,3781.13l-73.89.19c-3.24-4.13-5.66-9.6-9.86-12.15-13.84-8.39-24.87-19.88-36.54-30.71-12.64-11.73-24.74-23.95-39.27-33.65-8.74-5.82-15.8-14.14-23.58-21.39-19.41-18.07-37.17-37.94-59.31-53.06-6.49-4.44-11.69-10.8-17.36-16.41-18.88-18.7-37.16-38-56.69-56.06-28.44-26.24-51.24-57.41-76.77-86.17a199.27,199.27,0,0,1-35.5-57.37,74,74,0,0,1-5.14-23c-1.08-18.81,4.09-27.32,27.2-32.19,9.15-1.93,18.34-.52,27.53,2a219,219,0,0,1,68.5,31.42c18.39,12.8,37.21,25.52,53,41.93,22.07,22.94,46.54,43.67,64.3,70.53,44.73,49.2,83.14,103.16,121,157.72,19.67,28.37,38.27,57.35,57.07,86.25C8544.7,3759,8550.9,3769.2,8553.51,3781.13Z"/><path class="cls-17" d="M6584.67,3765.89c0-1.32-.05-2.65.09-4,3-27.13-4.32-52-15.67-76.34-5-10.68-8.06-22.24-12.61-33.15-5.6-13.46-3-25.81,3.94-37.75,2.64-4.52,5.06-9.56,8.84-13,18.76-16.95,24-40.44,30.72-63s10.32-46.1,9.34-70c-.3-7.16,4-11.94,9.9-15.89,8.06-5.43,16.83-7.19,26.26-6.93,4.89,22.08,10.1,44.07,10.65,66.88.45,18.85-.53,37.44-9.61,54.4-7.16,13.37-4.69,26,2.21,37.93a222.66,222.66,0,0,0,20.39,29.4,381.47,381.47,0,0,0,29.58,32.42c12.69,12.3,16.46,26.71,13.59,43.59-1.57,9.18-3.13,18.37-4.17,27.61-1.63,14.5-2.82,29-4.2,43.56-1.75,5-4.21,9.81-5.14,14.93q-16.39,90.21-32.33,180.53c-1.14,6.5-1.11,13.2-1.63,19.81-38.67.55-77.35,2.47-116-1.33,1-9.14,1.42-18.39,3.16-27.39,2.34-12.16,9.47-18,21.69-18.95,5.2-.4,10.7.65,15.55-.74a13.47,13.47,0,0,0,7.88-7.78,65.4,65.4,0,0,0,2.82-19.38c-.13-32.93-.22-65.87-1.34-98.76-.44-13.08-2.89-26.2-5.63-39C6591.66,3777.34,6587.53,3771.75,6584.67,3765.89Z"/><path class="cls-1" d="M6902.75,1406c5.08,21.14,1.19,41.32-6,61.51-3.38,9.45-9,15.52-17.67,19.91-12.09,6.11-17.74,6.06-25.27-.17-12.68-10.49-17.13-24.17-10.37-34.79,12.69-20,28.5-37.73,51.26-47.22C6896.73,1404.38,6899.66,1405.65,6902.75,1406Z"/><path class="cls-1" d="M6561,1814.16c1.73,14.7-5.35,29.34-11.09,43.89-3.88,9.83-11.78,18-23.45,19.12-12.26,1.21-19.37-7.46-25.29-16.24-5.51-8.17-6.3-18.34-1-26.37,11-16.6,24.72-30.81,43.57-39.12,9.05-4,16.22-.41,16.67,9C6560.56,1807.05,6560.73,1809.69,6561,1814.16Z"/><path class="cls-1" d="M6600.87,1088.61c-.83-9.28,3.85-18.55,12.61-25.41,12.39-9.7,25.29-18.75,38-28,3.76-2.74,12,1,12.24,5.78.32,6.55,1.15,13.3,0,19.65-2.06,11.6-5.09,23.07-8.29,34.43-3.88,13.79-18.92,24.2-32.93,23.44-11.32-.61-19.87-8.58-21.06-19.72C6601.18,1096.13,6601.15,1093.49,6600.87,1088.61Z"/><path class="cls-1" d="M6840.5,2646.93c1,16.56-6.11,31.13-12.29,45.62-2.37,5.57-8.79,9.73-14,13.67-7.09,5.34-19.58,2.3-24.69-5.33-5.71-8.52-6.4-23.17,0-30,11.81-12.52,24.36-24.35,36.81-36.25,3.58-3.43,12.24-.2,12.94,4.45C6839.67,2641.72,6840.09,2644.33,6840.5,2646.93Z"/><path class="cls-1" d="M7247.83,2291.13c0,2,.48,4.73-.09,7.26q-3.89,17.42-8.3,34.71c-2.43,9.61-9.16,15.93-17,21.23-7.49,5.06-19.59,2.73-24.87-4.86-5.8-8.35-7.38-18.3-2.21-26.36,10.77-16.76,24.52-31.16,41.95-41.51,2.45-1.46,8.89,2,9.45,5.05C7247,2287.93,7247.35,2289.19,7247.83,2291.13Z"/><path class="cls-1" d="M7440.14,2693.8c1.3,17.93-6.42,33.46-13.79,48.85-2.11,4.41-7,8-11.44,10.59a14.66,14.66,0,0,1-11,1.05c-7.67-2.82-12.89-9-16.66-16.21-2.59-4.94-3.29-10.8-.28-15.19,11.23-16.42,24.79-30.7,41.88-41.29,2.62-1.62,9.08,1.46,9.62,4.55C7438.88,2688.73,7439.56,2691.26,7440.14,2693.8Z"/><path class="cls-1" d="M8231.59,2834.87c1.72,16.8-3.63,30.07-12.46,42-4,5.47-9.94,8.48-17.17,7.62a18.3,18.3,0,0,1-15.11-11.16c-4.06-8.92-4.08-18.27,1.8-26.25,7.82-10.6,16.72-20.22,29.29-25.76,7.41-3.26,13.45-.47,13.64,7.18C8231.65,2831.13,8231.59,2833.76,8231.59,2834.87Z"/><path class="cls-18" d="M3538.93,2774.29c3.63,4.12,8,7.08,13.61,7.22q17.94.43,35.89.42,418.89,0,837.78,0,0,577.65-.08,1155.29c0,17.32-.16,34.64-.25,52l-7.62,7.76c-13.27.49-26.54,1.39-39.81,1.39q-407,.13-814,0c-13.27,0-26.55-.91-39.81-1.39.31-15.95.88-31.89.88-47.83q.07-560.41.07-1120.82c0-13.29-.17-26.63,1-39.83C3527.21,2781.79,3532,2776.55,3538.93,2774.29Z"/><path class="cls-19" d="M4425.88,3989.21c.09-17.32.24-34.64.25-52q0-577.65.08-1155.29l232.29.56C4669,2829,4681.33,2875,4697.34,2920c7.57,21.27,15.46,42.26,24.69,62.92,9.74,21.78,18.8,43.84,29.15,65.39,26.55,55.26,62,105,94.9,156.34,16.85,17,27,39.53,45.64,55.06a58.45,58.45,0,0,1,10.55,11.9c28.84,42.1,69.48,73,103.86,109.85,23.23,13.15,41.56,32.73,62.79,48.55s43.89,29.73,65.3,45.35c16.06,11.71,33.66,21.09,51.3,30.43,23.42,12.4,45.21,27.84,69.71,38.34,35.33,15.14,70,31.91,106.4,44.44,17.53,6,34.56,13.65,52.28,19,34.19,10.33,68.64,19.78,103.11,29.17,17.86,4.86,36,8.88,54,13.08,6.43,1.49,13,3.13,19.49,3.36,10.73.38,21.24,1.14,31.13,5.72,29.13,1,56.9,12.89,86.49,10.65,6.56-.5,13.92-1.05,19.76,1.3,20.51,8.21,41.84,6.12,63,6.87.62,13.25,1.74,26.51,1.77,39.76.16,79.82,0,159.63.13,239.45,0,13.28.65,26.57,1,39.86-13.24.6-26.49,1.72-39.74,1.72q-643.94.13-1287.87,0c-13.26,0-26.51-1-39.76-1.57C4426.29,3994.36,4426.13,3991.79,4425.88,3989.21Z"/><path class="cls-12" d="M2051.89,3404.71l23-.41q25.07-.39,50.15-.76c6.49.4,13,.63,19.48,1.2,9.76.87,17.75-3,25.1-8.83,13.42,11.92,15.47,11.81,27.74-1.19,1.76-1.87,3.85-3.44,5.78-5.15q.89,3.91,1.75,7.83c3.05,2.3,5.94,6.31,9.17,6.59,11.87,1,23.85,1.07,35.79,1.06q263.19,0,526.37-.17c13.28,0,26.56.49,39.83.93,4.87.16,10.27,7.7,7.74,11.08-10.09,13.43-12.32,28.58-12.43,44.92-.25,38.85-10.19,76.2-21.33,112.92-20.2,66.57-50.26,128.43-93.6,183.4-3.15,4-4.39,9.51-6.51,14.32q-29.67,29.43-59.38,58.8a513,513,0,0,1-51,44.33c-20.18,15.22-41.51,28.51-62.33,42.67-1.24.84-.64,4.4-1.09,8.45,61.21-.7,122.22,1.05,183.24-1,17.54-.54,34.29,3.45,50.58,9.41,14.15,5.19,25.68,13.69,32.24,27.93,5,10.81,11.56,21,12.33,33.37-13.27.32-26.53.92-39.79.92q-527.91.07-1055.83,0c-15.91,0-31.81-1-47.72-1.46.23-12,.16-24.16,8.71-34,11.37-13,22.44-26.45,40.86-30,6.49-1.26,12.77-4.64,19.21-4.86,26.53-.88,53.26-3.1,79.53,1.57,35.71,6.35,71.5,3.16,107.25,2.53,6.19-.11,12.46-4,18.34-6.82,1.13-.55,1.53-4.82.69-6.68a12.73,12.73,0,0,0-5.66-5.38c-33.26-17.2-61.39-41.81-90.91-64.22-16.79-12.75-31.84-28.36-45.58-44.46-45.87-53.74-84.55-111.82-111.06-178.09-14.89-37.26-24.12-75.74-34.08-114.17-3-11.39-1.88-23.78-3.51-35.59-.69-5-3.6-9.71-5.51-14.54-.1-3.88-.42-7.78-.24-11.65.64-13.58-1.65-25.48-14.87-33.18-2.19-1.28-1.67-7.21-2.41-11l335.32.06,39.88.21Zm-275.76,17.38c0-.34,0-.67,0-1-21.25.55-42.51,1-63.75,1.72-6.3.22-11.79,7.41-11.13,14.13.52,5.23,1.51,10.43,2.37,15.63,1.28,7.83,3.38,15.6,3.82,23.47,1.71,30.66,8.88,60.26,17.5,89.46,6.37,21.62,14.92,42.6,21.79,64.09,7,21.7,17.09,42,28.85,61.15,13.85,22.55,26.34,46.09,43.85,66.33,19.06,22.05,35.38,46.35,55.81,67.35,11.24,11.57,25.16,19.59,36.84,30.3,26.59,24.39,56.33,44.06,87.15,62.5,9.61,5.75,19.1,8.65,30,8.61,37.24-.12,74.49,0,111.73-.23a8.47,8.47,0,0,0,6.07-3c1.75-2.47.12-4.68-2.77-6.31-30.17-17-58.73-36.7-84.29-59.71-34.51-31.06-68-63.49-94.89-101.88-20.58-29.38-41.41-58.61-56.29-91.45-6.57-14.5-12.45-29.32-18.17-44.18-21.52-55.95-37.72-113.12-39.11-173.62-.06-2.66-.26-5.31-.47-8-.71-8.83-6.58-15.22-15.07-15.33C1816,3421.92,1796.08,3422.09,1776.13,3422.09Z"/><path class="cls-1" d="M5793.76,3996.79c-.34-13.29-1-26.58-1-39.86-.1-79.82,0-159.63-.13-239.45,0-13.25-1.15-26.51-1.77-39.76.64-14.52,1.84-29,1.85-43.57q.18-280.18.1-560.38c0-14.57.33-29.14.5-43.71,14.15,5.56,24,16.75,33.45,27.65,11.7,13.5,25.89,22.59,41.79,29.88q59.88,27.47,119.58,55.31c13.22,6.13,26.4,12.38,40.28,18.89,5.64,15.08,10,30.34,14.33,45.62s12.4,29.41,14.82,45.36l4.32,8.68q3.06,7.52,6.1,15c-4.65,2.83-8.9,6.47-9.47,12a273.29,273.29,0,0,0-1.25,27.75q0,340,.07,680c-7.95.48-15.91,1.37-23.87,1.39q-109.87.15-219.76,0C5807.06,3997.62,5800.41,3997.08,5793.76,3996.79Z"/><path class="cls-20" d="M6057.34,3996.22q-.06-340-.07-680a273.29,273.29,0,0,1,1.25-27.75c.57-5.51,4.82-9.15,9.47-12,6.29,10.07,13,19.9,18.8,30.25,41.45,74.23,97.44,135.76,163.85,188.23q6.26,5,12.71,9.63a33.23,33.23,0,0,1,13.31,19.22c.65,2.58,1.65,5.07,2.16,7.67,8.53,44,28.16,82.7,55.26,118,2.32,3,3.27,7.13,4.85,10.72-6.1,3.63-9.53,9.07-9.57,16.07-.18,28.91-.12,57.82-.12,86.73,0,1.31.19,2.62.3,3.92.6,6.75,6,12.89,12.14,13.43,6.52.58,13.07,1.15,19.61,1.15,26.29,0,52.58-.26,78.86-.41,3.54,9.09,2.54,18.46.14,27.34-11.42,42.12-25.09,83.51-42.49,123.6-1,2.39-2.76,4.49-4.11,6.77-3.63,6.15-9.89,9.3-16.61,8-7.76-1.54-15.42-3.78-23.24-4.87a128.89,128.89,0,0,0-19.76-.74c-11,.17-20.28,10.88-18.34,21.23,1.22,6.48,3.23,12.8,4.67,19.24,1.16,5.14,2,10.35,3,15.53q-127.1.23-254.23.39C6065.22,3997.55,6061.28,3996.68,6057.34,3996.22Z"/><path class="cls-20" d="M6584.67,3765.89c2.86,5.86,7,11.45,8.31,17.64,2.74,12.84,5.19,26,5.63,39,1.12,32.89,1.21,65.83,1.34,98.76a65.4,65.4,0,0,1-2.82,19.38,13.47,13.47,0,0,1-7.88,7.78c-4.85,1.39-10.35.34-15.55.74-12.22.95-19.35,6.79-21.69,18.95-1.74,9-2.16,18.25-3.16,27.39a551.72,551.72,0,0,1-103.37.2c18.81-32,37.86-63.84,56.37-96,23.8-41.38,47.12-83,70.77-124.5C6575.25,3770.64,6578.9,3766.76,6584.67,3765.89Z"/><path class="cls-13" d="M4425.88,3989.21c.25,2.58.41,5.15.51,7.73l-8.13,0Z"/><path class="cls-21" d="M4930.55,1693.42c-12.76,35.93-30.75,69.44-47.79,103.4-5.87,11.72-11.43,23.52-19.75,33.91-3,3.8-3.55,9.63-5.21,14.53l-2.36,1a19.89,19.89,0,0,0-5.67,5.26c-17.13,30.55-40.44,55.61-68.58,76.17-22,16.07-46.09,26.49-74.1,23.17a111.79,111.79,0,0,1-27-6.28c-19.76-7.62-39.46-15.59-58.55-24.73-45.56-21.8-88.16-48.81-130.27-76.54C4447,1814.09,4404,1783,4362,1750.5q-19.15-17.19-38.33-34.36c-4-3.54-7.53-8-12.14-10.23-14.71-7.29-25.08-19.5-36.55-30.51-5.75-5.52-10.78-12.48-17.57-16.11-18.06-9.68-31-24.9-45.15-38.83-18-17.71-35.69-35.77-53.67-53.51a67.62,67.62,0,0,0-12.44-9.75c-1.2-.72-5.83,1.22-6.08,2.49-1.52,7.76-.64,16.34-3.55,23.42-6.85,16.65-5.92,33.82-6.19,51-.37,23.81,2.06,47.79-6.61,71-2.22,5.93-1.23,13.16-1.24,19.79-.08,46.54-.21,93.08.09,139.62.06,9.19.47,18.86,3.31,27.45,4.31,13,4.14,26.12,4.48,39.37.3,12-1.2,24.5,2,35.66a166.09,166.09,0,0,1,6.27,43.1c.14,6.51,2.19,13,3.45,19.46,1.77,9.09,3.61,18.16,5.42,27.24-2.9,5.88-5.29,12.07-8.77,17.58Q4026.2,2252.81,3913.3,2431c-15.63,24.63-32.71,48.32-48.83,72.63-5.85,8.82-11.62,17.85-16,27.41-11.47,24.72-16.94,50.23-7.28,77.12,1.79,5,2.7,10.26,4,15.41a17.2,17.2,0,0,1-13-8.07c-22.54-33.89-35.31-71.27-37.82-111.79-3.39-54.59.81-108.36,14-161.89,22.37-91,57.73-176.48,105.09-256.93a179.5,179.5,0,0,0,23.93-70.93c3.91-32.89,10-65.57,10.43-98.91.24-17.15,3.59-34.25,5.53-51.37.48-10.63,1.1-21.26,1.41-31.89.36-12,.09-23.94,4.46-35.44a33.8,33.8,0,0,0,2.47-11.64c.08-26.63,2.59-53,8.54-79,.62-42.7,11-84.08,18.94-125.57,13.63-71,22.13-96.44,45.35-160.57,12.74-35.18,29.32-68.82,52.16-98.23,17-21.9,37.52-41.45,58.44-59.8,16.22-14.22,37.65-20.4,58.95-21.83,22.36-1.49,44.79-2.08,67.27,4.27,23.16,6.55,47.61,4.28,71.42,2.06,11.9-1.1,22.95-7,31.64-15.69,6.56-6.55,13.34-13.27,18.2-21.05,12.18-19.52,29.66-34,45.53-50,3.64-3.68,8.6-6.15,13.2-8.74,6-3.39,12.22-4.39,19-1.61,3.59,1.46,7.78,1.43,11.7,2.07-.61,18.26,6.78,33.23,18.77,46.46,7.07,7.8,14.81,15.3,20.31,24.14,5.7,9.16,13.07,16.5,20.1,24.36,23,25.67,49.75,47.12,77,67.9,5.07,3.86,11.56,6.06,17.68,8.17,1.53.53,4.21-2.29,6.36-3.57,9.35-.93,18.14.25,26.52,5.14,7.91,4.62,16.36,8.33,24.57,12.44-6.13,8.5-12.28,17-21.4,22.69-22.78,1-43.76-9.37-66.19-10.63-45.86-12.67-91.94-24.79-134.55-46.7-17.63-9.07-35.81-7.55-54.28-4.72a6.49,6.49,0,0,0-3.53,1.65c-2.65,2.8-5.75,5.49-7.37,8.85-1.93,4,.39,7.91,3.69,10.21,9.73,6.83,19.49,13.68,29.7,19.75,27.28,16.21,53.78,33.42,78.79,53.1,24.84,19.55,50.8,37.69,76.26,56.45,4.55,4.72,8.75,9.84,13.69,14.1,38.08,32.91,76.45,65.47,114.37,98.54,10.94,9.54,20.81,20.32,31,30.67s20.16,21,30.44,31.35c16.3,16.38,35.56,27.21,58.56,31.26a263.09,263.09,0,0,1,60.5,18.89C4914.07,1676.42,4924.19,1682.61,4930.55,1693.42Z"/><path class="cls-22" d="M2500.39,2974.54c23.77-.51,47.51-2.38,70.8,5.48,7.25,2.44,15.74,1.5,23.67,1.53,29.12.14,58.24,0,87.37,0,11.91,0,23.66-.45,35.3-4.11,7.43-2.34,15.56-2.76,23.43-3.3,27.78-1.9,54.72-8,81.25-16,8.81-2.67,17.12-6.94,25.81-10.07,22-7.91,31-23.14,27.21-46.27-.84-5.16-.09-10.57-.07-15.86,28.26-16.37,54.27-35.94,79.93-56l24.51-8.92c50.05,10.33,96.75,28.67,138.4,58.71,24.51,17.69,42.27,40.35,48.88,70.48a153.08,153.08,0,0,1,3.34,23.53c1.35,22.92-5.11,45-10.87,66.55-6.12,22.93-16,45-30.77,64.39-10.64,14-23.24,25.28-38.91,33.58-17.29,9.15-34,12.34-53.38,5.2-22.37-8.26-46.06-12.84-68.64-20.59-31.48-10.82-63.82-18.28-96-26.39-8.78-2.22-18.37-1.46-27.59-1.6-4.64-.08-8.08,7.68-6.42,12.34a63.7,63.7,0,0,0,20.93,28.61c38.63,30.81,78.78,58.86,127.82,71.32,8.12,2.06,20.26,2,21.32,13.93.77,8.56-7.18,14.13-13.46,18.59-22.78,16.2-41.35,37.45-65.16,52.52-21.45,13.57-43.35,26.18-66.91,35.27-14.73,5.69-30.6,8.61-46.13,11.93-5,1.06-10.66.14-15.73-1.1-27.53-6.69-52.79-18.14-73.91-37.48-21.6-19.77-42.44-40.29-59.51-64.3-3.07-4.33-6.34-8.53-9.68-12.67-25.05-31.09-55.94-52.64-96.12-59.33-7.84-1.3-15.39-4.35-23.24-5.46-5.07-.72-10.48.35-15.66,1.12-4.32.65-7.81,8.58-6.72,12.93a25.78,25.78,0,0,0,11.46,15.74c12.35,7.75,25.2,14.76,38.09,21.6,24.64,13.09,50.19,24.33,73.51,40,24.82,16.7,45.32,36.84,58.81,63.69,7.75,15.44,15.59,30.86,22.7,46.6,4.35,9.62,1.43,18.18-6.8,24.79-2.07,1.66-4.28,3.16-6.41,4.72-17.16-1-34.5-.75-51.43-3.26-36.76-5.45-72.31-16.15-106.76-29.82-38.21-15.17-75.25-33.06-108.4-57.7-29.21-21.72-53.5-47.5-61.09-85-2.08-27,9.65-49.48,25.67-69.22a188.91,188.91,0,0,1,44.48-39.52c20.3-13.14,41.92-22.29,64-31.67,48-20.44,91.28-32.08,156.25-44.7,18.16-3.53,36.46-6.83,54.19-12,21.82-6.31,45.36-.14,66.6-10.36,4.42-2.13,10.48-1,15.79-1.12,6.65-.18,13.34.29,19.95-.27,7.89-.68,16.07-1.06,23.46-3.56,10.36-3.51,20.78-4.18,31.43-4.22,13.31-.05,26.62.1,39.92-.2,6.62-.15,13.86.46,19.7-2,16.66-7,33.91-5.56,51.13-6,6.38-.16,13.38,1.85,18.67-3.84-3.68-4.71-8.95-3.9-13.87-3.91-29.27-.08-58.54-.22-87.82,0-22.49.16-45.14-1.95-67,6.41-5.92,2.26-13.15,1.28-19.79,1.37-14.63.2-29.27.1-43.91.18-10.63.06-21,.68-31.47,3.94-8.7,2.71-18.22,2.9-27.4,3.92-6.6.73-13.93-.65-19.74,1.78-15.3,6.41-31.17,6-47.08,6.63a59.71,59.71,0,0,0-11.76,1.9c-30.8,7.64-62,13.32-92.74,21.53-60.93,16.3-117.95,40.18-166.44,81.75-3.84,3.29-9.36,4.63-14.1,6.88-9.53-8.55-16.43-19-22.74-30-3.71-6.5-8.4-12.43-12.64-18.61-3.6-9.74-7.58-19.36-10.71-29.24-4.71-14.87-10.9-29.68-12.74-45-3.43-28.57-3.62-57.41,7.64-84.91,6.56-.76,13.1-1.14,19.3,1.8,3.55,1.68,7.33,3.13,10.48,5.4,31.53,22.75,67.9,33.16,105,41.94,3.48.82,6.3,4.44,9.41,6.75-.26,9.2-1,18.42-.5,27.57.2,3.35,3.06,7,5.64,9.63,2.9,2.95,11.15,2,14.85-.69C2490.06,2995.63,2497.62,2986.8,2500.39,2974.54Z"/><path class="cls-23" d="M2379.17,3214.45c7.59,37.51,31.88,63.29,61.09,85,33.15,24.64,70.19,42.53,108.4,57.7,34.45,13.67,70,24.37,106.76,29.82,16.93,2.51,34.27,2.26,51.43,3.26-3.76,4-8.2,6.69-13.77,6.84-9.25.24-18.51.39-27.77.39q-230.23,0-460.45-.06-.86-3.93-1.73-7.84c20.73-40.25,46.71-76.51,81.08-106.38,17.92-15.58,35.49-31.58,53.85-46.62,9.13-7.49,19.49-13.55,29.67-19.62C2370.91,3215.05,2375.32,3215.22,2379.17,3214.45Z"/><path class="cls-23" d="M2699.35,3925.69c-61,2.06-122,.31-183.24,1,.45-4-.15-7.61,1.09-8.45,20.82-14.16,42.15-27.45,62.33-42.67a513,513,0,0,0,51-44.33q29.78-29.31,59.38-58.8c4.25,3.21,7.91,7.13,8.43,12.53.74,7.76.88,15.6.9,23.41Q2699.4,3867,2699.35,3925.69Z"/><path class="cls-7" d="M2316,2910.45c-11.26,27.5-11.07,56.34-7.64,84.91,1.84,15.28,8,30.09,12.74,45,3.13,9.88,7.11,19.5,10.7,29.24-1.81,1.86-4.71,3.43-5.28,5.62-3.94,15.15-8.95,30.25-10.7,45.7-3.86,34.11-20.38,61.95-40.49,88.28-3.11,4.07-7.6,7.32-12,10.15-17.67,11.45-36.86,13.49-56.73,7.37-17.57-5.41-34.78-12-52.37-17.35-7.42-2.25-15.42-2.63-23.16-3.86.11-5.29.43-10.58.3-15.86-.84-33.67,8.21-65.59,21-95.88,18.93-45,38-90.08,62-132.73,15.48-27.58,32.39-54.37,49.21-81.17,3.39-5.39,8.84-9.86,14.2-13.47,2.69-1.8,8.21-2.24,10.91-.66,10.39,6.06,19,14.63,24.21,25.44C2315.58,2896.78,2315.08,2904,2316,2910.45Z"/><path class="cls-23" d="M2131.13,3205.47c7.74,1.23,15.74,1.61,23.16,3.86,17.59,5.34,34.8,11.94,52.37,17.35,19.87,6.12,39.06,4.08,56.73-7.37,4.36-2.83,8.85-6.08,12-10.15,20.11-26.33,36.63-54.17,40.49-88.28,1.75-15.45,6.76-30.55,10.7-45.7.57-2.19,3.47-3.76,5.28-5.62,4.25,6.18,8.94,12.11,12.65,18.61,6.31,11,13.21,21.5,22.73,30,.84,13.7-3.55,25.94-9.37,38.18-23.21,48.85-57.25,89.24-96.52,125.72-14.6,13.56-29.32,27.06-42.94,41.58-20.06,21.38-37.84,44.55-48.77,72.21-7.35,5.85-15.34,9.7-25.1,8.83-6.48-.57-13-.8-19.48-1.2-.5-6.53-1.43-13.05-1.43-19.57q0-78.51.22-157C2123.83,3219,2124.55,3211.21,2131.13,3205.47Z"/><path class="cls-23" d="M2773.44,2774.22c-28.16,0-52,0-75.91,0-4,0-8,.16-11.92-.54-13-2.33-25.83-5.81-38.91-7.33s-26.54-.14-39.18-5.53a27.88,27.88,0,0,0-11.64-2.19c-26.68,1-52.53-5.37-78.78-8-19.4-1.92-35.78-8.75-51.56-18.81-5.92-3.77-6.3-16.18-1.18-21.47,7.7-7.93,17.44-13.46,27.69-14.76,26.16-3.32,51.68-9.8,78.59-10,45.46-.26,86,13.68,124.66,35.17,24.28,13.5,47.52,28.89,71.11,43.62C2768.26,2765.58,2769.21,2768.2,2773.44,2774.22Z"/><path class="cls-7" d="M2955.09,2829.91c-25.66,20.07-51.67,39.64-79.93,56-16.09,0-23.89-12.84-33.92-22.12-7.52-6.94-14.62-14.3-14-25.75,11.8-9.57,24.38-18.35,32-32.12,6.42.72,13.29.24,19.17,2.42,9.9,3.68,19.79,6.1,30.31,5.71,14.72-.54,27.62,6.08,41.05,10.5C2951.86,2825.26,2953.32,2828.07,2955.09,2829.91Z"/><path class="cls-22" d="M2859.18,2805.93c-7.59,13.77-20.17,22.55-32,32.12-9.43.41-18.32-.38-26.1-7-8-6.84-17.53-12.08-25-19.45-11.92-11.84-29.13-12.58-42-22-1.36-1-1.11-4.21-1.86-7.55,10.84,0,21.41-.09,32,0,37.42.38,37.58-2.17,65.19,12.72C2838.72,2799.77,2849.25,2802.29,2859.18,2805.93Z"/><path class="cls-7" d="M2500.39,2974.54c-2.77,12.26-10.33,21.09-20.18,28.31-3.7,2.71-11.95,3.64-14.85.69-2.58-2.61-5.44-6.28-5.64-9.63-.55-9.15.24-18.37.5-27.57,7.81-.08,15.62-.28,23.42-.22A20.62,20.62,0,0,1,2500.39,2974.54Z"/><path class="cls-24" d="M4571.11,2685.65a200.91,200.91,0,0,1-50.55,9.38c-30.38,1.86-60.69,5-91.06,7.14-9.18.64-18.47-.45-27.71-.75,21.27-15.69,42.12-32,64-46.88,16.74-11.41,31.52-25.1,43.16-41,24.25-33.09,50.06-65.27,68.77-102.14a25.22,25.22,0,0,1,1.74-3.58c27.62-37.44,48.71-79,73.75-118,14.3-22.3,25.82-46.36,39.75-68.91,16.73-27.1,30.05-56.15,48.05-82.48a74.71,74.71,0,0,0,4.19-6.77c20.11-37.41,40.77-74.54,60.12-112.34,29.07-56.8,57.14-114.11,85.81-171.11,5.35-10.65,11.44-20.93,17.29-31.33,1.65-2.94,8.75-3.3,10.42-.52,3.4,5.64,8,11,9.61,17.19,3.41,13.07,9.58,24.73,15.52,36.61,24.4,48.73,47.64,98.09,73.49,146,19.48,36.15,38.69,72.51,60.13,107.64,13.1,21.47,23.72,44.47,37.52,65.62,6.52,10,12.94,20.12,18.5,30.65,3,5.75,4.21,12.49,6.22,18.78-3.3,10-6.95,20-9.83,30.14q-28.12,99.24-56,198.53c-2.88,10.17-6,20.31-9.89,30.12-1.31,3.32-5.27,5.6-8,8.35-17.14.49-34,.21-51.13,5.09-17.79,5.06-35.63-9-54.51-5.12-2.54.53-5.3-.06-7.95.08-12.14.63-23.4-2.49-34.95-6.13-13.76-4.34-27-11.53-42.23-10.26,0-6.57.85-13.22-3.67-19-9.49-12.15-11.7-26.11-11.46-41.27,1-59.83,1.31-119.67,1.92-179.5.1-10.63.43-21.27.53-31.9.06-6.37-2.44-11.28-4.69-9.85-2,1.25-4.35,2.59-5.38,4.52-5.61,10.55-10.74,21.37-16.25,32q-47.81,92-95.74,183.83c-27.1,51.82-66.52,92.56-114.26,125.6-12,8.31-24.7,15.6-36.88,23.65C4576.25,2679.81,4573.85,2683,4571.11,2685.65Z"/><path class="cls-25" d="M4147.54,2056.82c-1.81-9.08-3.65-18.15-5.42-27.24-1.26-6.47-3.31-12.95-3.45-19.46a166.09,166.09,0,0,0-6.27-43.1c-3.2-11.16-1.7-23.71-2-35.66-.34-13.25-.17-26.34-4.48-39.37-2.84-8.59-3.25-18.26-3.31-27.45-.3-46.54-.17-93.08-.09-139.62,0-6.63-1-13.86,1.24-19.79,8.67-23.19,6.24-47.17,6.61-71,.27-17.22-.66-34.39,6.19-51,2.91-7.08,2-15.66,3.55-23.42.25-1.27,4.88-3.21,6.08-2.49a67.62,67.62,0,0,1,12.44,9.75c18,17.74,35.66,35.8,53.67,53.51,14.17,13.93,27.09,29.15,45.15,38.83,6.79,3.63,11.82,10.59,17.57,16.11,11.47,11,21.84,23.22,36.55,30.51,4.61,2.28,8.18,6.69,12.14,10.23q19.2,17.14,38.33,34.36c-13.38,11.32-22.11,26.37-31.77,40.53q-82,120.17-163.54,240.68C4160.81,2040.41,4154,2048.47,4147.54,2056.82Z"/><path class="cls-23" d="M5056,2606c2.75-2.75,6.71-5,8-8.35,3.87-9.81,7-20,9.89-30.12q28.1-99.24,56-198.53c2.88-10.16,6.53-20.1,9.83-30.14,6.07,8.62,12.57,17,18.16,25.88q67.54,107.67,134.82,215.49a110,110,0,0,0,9,13c7.06,8.34,15.66,14.23,27.11,14.68.17,5.18,2,11,.22,15.42-12.51,30.77-16,62.94-16.53,95.71-26-1-52.08.11-77.64-6-9.35-15.42-23.8-24.75-39.8-31.57a244.16,244.16,0,0,0-33.88-11.15c-15.36-4-31.12-6.49-46.46-10.58C5086.05,2652.19,5066.3,2634.19,5056,2606Z"/><path class="cls-15" d="M4849.77,1851.5a19.89,19.89,0,0,1,5.67-5.26Z"/><path class="cls-13" d="M5593.78,3037.62c-1.83-.47-7.1-1.23-11.85-3.23-9.91-4.15-14.19-18-8.28-26.75a60.57,60.57,0,0,1,10.47-11.69c7.65-6.67,17.5-6.85,25.44-1.11,1.07.78,2.14,1.56,3.13,2.42,9.45,8.15,12.14,15.76,8.48,24C5615.41,3034.19,5610,3037.87,5593.78,3037.62Z"/><path class="cls-1" d="M1292.16,2973.85l16.42,1.6c17,9.12,30.36,9.06,47.13-.22a356.77,356.77,0,0,0,123.42-48.62c14.39-9,29.56-16.77,44.37-25.1,6.47,1.34,13.27,2.34,15.12,10.27,1.91,8.13,1.24,15.55-6.16,21.19-3.09,2.35-5.62,5.47-8.4,8.24-10.16,3.09-20.49,5.74-30.46,9.37-20.09,7.32-39.08,16.56-54.75,31.76-6.64,6.44-14.83,11.26-21.68,17.51-10.77,9.84-21.22,20.06-31.36,30.54-4.78,4.93-6.13,11.67-6.36,18.46-.28,8.45,1.74,16.26,9.66,20.39,10.56,5.52,21.18,11.6,32.52,14.74,17.86,4.95,36.33,7.64,54.54,11.3,7.29,10.73,9,21.26,2.38,33.56a624.85,624.85,0,0,0-36.07,79.91c-6.43,17.46-14.41,34.36-14.76,53.44-9.12,22.43-5.29,47.35-13.6,70.09-2.64,7.19-1.92,15.77-2,23.72-.22,25.31,0,50.62-.19,75.94-.06,6.59-.45,13.4-2.2,19.68-.88,3.15-4.83,7-8,7.68a124.9,124.9,0,0,1-51.41,0c-3.15-.65-6.42-4.54-8-7.74-1.7-3.39-1.92-7.72-2-11.66-.27-12,.11-24-.29-36-.58-17.22,1.08-34.38-2.73-51.66-8.59-38.94-16.9-77.9-36.62-113.12-20.3-36.28-33.93-75.3-44.43-115.06-7-26.6-14.31-53.81-12.29-82.24.81-11.44,4.75-20.27,12.46-28.33,7.47-7.81,16.17-13.7,25.34-19.21C1289.24,2989.79,1291.72,2982.21,1292.16,2973.85Z"/><path class="cls-1" d="M1611.92,3405.32c.74,3.77.22,9.7,2.41,11,13.22,7.7,15.51,19.6,14.87,33.18-.18,3.87.14,7.77.24,11.65-26.53.12-53.07.32-79.61.32a153.29,153.29,0,0,1-15.84-1.21c-4.23-.45-9.5-7.94-8.38-12.06,1.38-5,2.49-10.31,4.84-14.91,7.18-14,15-27.73,22.18-41.8.68-1.34-1.68-4.52-3.13-6.48-.5-.68-2.63-.64-3.8-.26-2.45.78-5.34,1.43-7,3.15-7.37,7.56-15.26,14.85-21.29,23.42-9.13,13-17,26.82-25.13,40.45-4.73,7.91-11.94,9.82-20.32,9.45a67.83,67.83,0,0,1-7.92-.77c-4.7-.74-10.24-6.11-10.74-10.34a103.09,103.09,0,0,1-1.16-11.85q-.14-51.76,0-103.52c0-5.29-.7-11.19,1.32-15.75,7.85-17.74,6.17-36.4,6.78-54.88.09-2.65-.19-5.57.82-7.88,8.6-19.64,6.31-41.66,14.35-61.66,7.88-19.61,13.31-40.2,23.66-58.87,5.85-10.54,10.34-21.58,8.88-34.09l104,.08c-1.18,14.93,1.44,28.94,8.8,42.21,6.43,11.62,11.76,23.84,18,35.54,6.21,11.55,13,22.79,19,33.17-4.84,23.93-14.63,43.66-28,62.38-13.88,19.37-25.54,40.29-43.2,56.8a17,17,0,0,0-5.6,14.34,9.8,9.8,0,0,0,1.21,3.58c1.39,2.56,4.14,3.57,6.61,1.52,6.12-5.08,12.38-10.18,17.53-16.17,13.22-15.36,30.22-25.73,46.69-36.84,4.74-3.2,11.22-1.63,13.35,3.49,13.65,32.79,34.65,59.17,65.71,77.18,3.25,1.89,5.46,5.65,8,8.68.78.94,1.69,2.74,1.3,3.49-1.09,2.05-2.69,5.17-4.35,5.34-7.88.83-15.86,1-23.8,1.06-27.92.13-55.83.08-83.74.14C1622.48,3397.6,1616.41,3399.7,1611.92,3405.32Z"/><path class="cls-2" d="M6440.15,3781.09c-26.28.15-52.57.4-78.86.41-6.54,0-13.09-.57-19.61-1.15-6.17-.54-11.54-6.68-12.14-13.43-.11-1.3-.3-2.61-.3-3.92,0-28.91-.06-57.82.12-86.73,0-7,3.47-12.44,9.57-16.07,27.14,30.06,53.44,60.9,83.84,87.88,4.67,4.15,7.33,10.56,10.92,15.92-.45,4.46,1.41,7.64,5.37,9.64A7.32,7.32,0,0,1,6440.15,3781.09Z"/><path class="cls-20" d="M6439.06,3773.64c-4-2-5.82-5.18-5.37-9.64C6437.86,3765.89,6439.94,3768.94,6439.06,3773.64Z"/><path class="cls-20" d="M6061.89,3261.45l-4.32-8.68C6061,3254.67,6063,3257.31,6061.89,3261.45Z"/><path class="cls-15" d="M4642.27,1318.53c-2.15,1.28-4.83,4.1-6.36,3.57-6.12-2.11-12.61-4.31-17.68-8.17-27.28-20.78-54-42.23-77-67.9-7-7.86-14.4-15.2-20.1-24.36-5.5-8.84-13.24-16.34-20.31-24.14-12-13.23-19.38-28.2-18.77-46.46,7.34-11.13,13.41-23.19,23.53-32.3,1.91,1.78,4.19,3.31,5.62,5.42s2.06,4.81,3,7.26c11.7,31,24.86,61,45.24,87.68,7.22,9.47,14,19.19,22.41,27.64,16.9,16.89,33.69,33.87,50.66,50.68C4638.41,1303.34,4641.83,1310.19,4642.27,1318.53Z"/><path class="cls-7" d="M1611.92,3405.32c4.49-5.62,10.56-7.72,17.49-7.74,27.91-.06,55.82,0,83.74-.14,7.94,0,15.92-.23,23.8-1.06,1.66-.17,3.26-3.29,4.35-5.34.39-.75-.52-2.55-1.3-3.49-2.52-3-4.73-6.79-8-8.68-31.06-18-52.06-44.39-65.71-77.18-2.13-5.12-8.61-6.69-13.35-3.49-16.47,11.11-33.47,21.48-46.69,36.84-5.15,6-11.41,11.09-17.53,16.17-2.47,2.05-5.22,1-6.61-1.52a9.8,9.8,0,0,1-1.21-3.58,17,17,0,0,1,5.6-14.34c17.66-16.51,29.32-37.43,43.2-56.8,13.42-18.72,23.21-38.45,28-62.38-6-10.38-12.77-21.62-19-33.17-6.28-11.7-11.61-23.92-18-35.54-7.36-13.27-10-27.28-8.8-42.21,16.55-4.24,33.29-6.67,50.32-8.66,43.52-5.1,84.35-19.49,122-42.05,6.67-4,12.25-9.88,18.06-15.19,8.71-8,17.19-16.17,25.76-24.26,10.63,8.17,18.6,18.4,25.79,29.76,22,34.72,40,71.46,58,108.29a357.31,357.31,0,0,1,36.44,148.84c.65,23.79,1,47.6,1,71.41,0,11.86-1.34,23.71-2.08,35.57Z"/><path class="cls-22" d="M1947.24,3405.38c.74-11.86,2-23.71,2.08-35.57.06-23.81-.33-47.62-1-71.41a357.31,357.31,0,0,0-36.44-148.84c-18-36.83-36-73.57-58-108.29-7.19-11.36-15.16-21.59-25.79-29.76-.1-9.31-1.28-18.81,2.86-27.57,6.18-13.05,5.38-25.76-.91-38.43-5.92-39.94-27.69-71.44-54.69-99.57-10.26-10.68-16.84-24.21-27.48-33.92-9.68-8.83-22-14.82-30.87-24.94-18.61-21.2-42.33-36.23-64.77-52.62-23.57-17.22-48.66-32.33-72.78-48.81-14.3-9.78-29.81-17.45-44.51-26.41-59.22-36.11-122.71-63.86-184-95.84-5.6-2.92-12.71-4.59-14.69-12.05a5.35,5.35,0,0,1,.5-3.62c.62-1.09,1.91-2.51,2.92-2.53,2.59,0,5.47,0,7.73,1.09,40.86,19.33,83.43,34.92,123.09,56.88,8.08,4.48,17.13,7.16,25.62,10.94,13.34,5.95,27.67,10.51,39.61,18.57,17.77,12,36.52,21.86,55.78,30.87,20.56,9.63,39.52,21.87,58.55,34,5.59,3.58,10.37,8.81,16.35,11.33,23.7,10,41.52,28.45,62.44,42.42,12.09,8.07,24,16.74,34.62,26.64,19.46,18.18,37.85,37.5,56.73,56.3,14.3,14.25,23.83,31.83,34,48.9,5.45,9.13,10,18.82,14.92,28.26-2.56,20,1.87,39.23,4.34,58.91A435.33,435.33,0,0,0,1900,3073.67c9.53,24.58,22.12,48,33.28,71.91,10,21.55,21.28,42.65,29.77,64.8,17.65,46,26.82,93.85,25.08,143.46-.5,14.54-.23,29.11-.32,43.66q-.33,4-.68,8.09Z"/><path class="cls-4" d="M1524.06,2941.21c2.78-2.77,5.31-5.89,8.4-8.24,7.4-5.64,8.07-13.06,6.16-21.19-1.85-7.93-8.65-8.93-15.12-10.27,17.53-16.06,39.49-21.3,62-23.07,19.79-1.57,39.8-.11,59.72-.29,13.7-.12,26,5.17,38.28,9.92,3.14,1.22,5.6,5.42,7.31,8.79,1.87,3.71-1.3,11.53-4.59,14.25-9.46,7.84-20.42,12.23-32.43,14-5.24.76-10.63.44-15.89,1.09-9.17,1.13-18.32,2.56-27.45,4-5.23.82-10.41,2.71-15.61,2.74-21.33.11-42.29,2.46-62.84,8.32C1529.55,2942,1526.71,2941.26,1524.06,2941.21Z"/><path class="cls-7" d="M1355.71,2975.23c-16.77,9.28-30.09,9.34-47.13.22Z"/><path class="cls-22" d="M1305.13,2536.32c-1.53,2.76-4.21,4.2-6.63,2.4a7.86,7.86,0,0,1-2.58-6.51,4,4,0,0,1,6.39-2.45C1304,2531,1304.24,2534.07,1305.13,2536.32Z"/><path class="cls-5" d="M1987.12,3405.59q.35-4,.68-8.09l46.61.34c6.7,0,12.7,1.93,17.48,6.87Z"/><path class="cls-25" d="M4594.48,1446.76c-25.46-18.76-51.42-36.9-76.26-56.45-25-19.68-51.51-36.89-78.79-53.1-10.21-6.07-20-12.92-29.7-19.75-3.3-2.3-5.62-6.22-3.69-10.21,1.62-3.36,4.72-6,7.37-8.85a6.49,6.49,0,0,1,3.53-1.65c18.47-2.83,36.65-4.35,54.28,4.72,42.61,21.91,88.69,34,134.55,46.7,22.43,1.26,43.41,11.58,66.19,10.63-3.89,5.14-7.43,10.59-11.72,15.36C4638.43,1398.46,4616.42,1422.58,4594.48,1446.76Z"/><path class="cls-23" d="M4571.11,2685.65c2.74-2.67,5.14-5.84,8.28-7.91,12.18-8,24.88-15.34,36.88-23.65,47.74-33,87.16-73.78,114.26-125.6q48-91.83,95.74-183.83c5.51-10.6,10.64-21.42,16.25-32,1-1.93,3.4-3.27,5.38-4.52,2.25-1.43,4.75,3.48,4.69,9.85-.1,10.63-.43,21.27-.53,31.9-.61,59.83-1,119.67-1.92,179.5-.24,15.16,2,29.12,11.46,41.27,4.52,5.79,3.7,12.44,3.67,19-1.8,1.77-4.13,3.24-5.32,5.35-15.91,28.19-27.83,57.76-30.42,90.44-30.48-.4-61-.52-91.44-1.25C4682.41,2682.92,4626.75,2681.58,4571.11,2685.65Z"/><path class="cls-16" d="M4829.53,2685.5c2.59-32.68,14.51-62.25,30.42-90.44,1.19-2.11,3.52-3.58,5.32-5.35,15.19-1.28,28.47,5.91,42.23,10.25,11.55,3.64,22.81,6.76,34.95,6.13,2.65-.14,5.41.45,7.95-.08,18.88-3.92,36.72,10.18,54.51,5.12,17.17-4.88,34-4.6,51.13-5.09,10.26,28.15,30,46.15,58.8,53.82,15.34,4.09,31.1,6.58,46.46,10.58a244.16,244.16,0,0,1,33.88,11.15c16,6.82,30.45,16.15,39.8,31.57-10.15,4.67-20.68,2.78-31.17,1.87-21-1.83-42.05-3.75-63.1-5.36-59.22-4.53-118.44-9.07-177.68-13.28-19.75-1.4-39.58-1.82-59.37-2.65q-25.72-1.08-51.47-2.09C4844.16,2691.34,4836.49,2689.75,4829.53,2685.5Z"/><path class="cls-26" d="M1776.13,3422.09c19.95,0,39.9-.17,59.84.08,8.49.11,14.36,6.5,15.07,15.33.21,2.65.41,5.3.47,8,1.39,60.5,17.59,117.67,39.11,173.62,5.72,14.86,11.6,29.68,18.17,44.18,14.88,32.84,35.71,62.07,56.29,91.45,26.88,38.39,60.38,70.82,94.89,101.88,25.56,23,54.12,42.73,84.29,59.71,2.89,1.63,4.52,3.84,2.77,6.31a8.47,8.47,0,0,1-6.07,3c-37.24.2-74.49.11-111.73.23-10.91,0-20.4-2.86-30-8.61-30.82-18.44-60.56-38.11-87.15-62.5-11.68-10.71-25.6-18.73-36.84-30.3-20.43-21-36.75-45.3-55.81-67.35-17.51-20.24-30-43.78-43.85-66.33-11.76-19.17-21.9-39.45-28.85-61.15-6.87-21.49-15.42-42.47-21.79-64.09-8.62-29.2-15.79-58.8-17.5-89.46-.44-7.87-2.54-15.64-3.82-23.47-.86-5.2-1.85-10.4-2.37-15.63-.66-6.72,4.83-13.91,11.13-14.13,21.24-.74,42.5-1.17,63.75-1.72C1776.12,3421.42,1776.13,3421.75,1776.13,3422.09Z"/><path class="cls-27" d="M2169.6,3395.91c10.93-27.66,28.71-50.83,48.77-72.21,13.62-14.52,28.34-28,42.94-41.58,39.27-36.48,73.31-76.87,96.52-125.72,5.82-12.24,10.21-24.48,9.37-38.18,4.75-2.25,10.27-3.59,14.11-6.88,48.49-41.57,105.51-65.45,166.44-81.75,30.7-8.21,61.94-13.89,92.74-21.53a59.71,59.71,0,0,1,11.76-1.9c15.91-.65,31.78-.22,47.08-6.63,5.81-2.43,13.14-1.05,19.74-1.78,9.18-1,18.7-1.21,27.4-3.92,10.44-3.26,20.84-3.88,31.47-3.94,14.64-.08,29.28,0,43.91-.18,6.64-.09,13.87.89,19.79-1.37,21.9-8.36,44.55-6.25,67-6.41,29.28-.21,58.55-.07,87.82,0,4.92,0,10.19-.8,13.87,3.91-5.29,5.69-12.29,3.68-18.67,3.84-17.22.44-34.47-1-51.13,6-5.84,2.43-13.08,1.82-19.7,2-13.3.3-26.61.15-39.92.2-10.65,0-21.07.71-31.43,4.22-7.39,2.5-15.57,2.88-23.46,3.56-6.61.56-13.3.09-19.95.27-5.31.14-11.37-1-15.79,1.12-21.24,10.22-44.78,4-66.6,10.36-17.73,5.12-36,8.42-54.19,12-65,12.62-108.24,24.26-156.25,44.7-22,9.38-43.66,18.53-64,31.67a188.91,188.91,0,0,0-44.48,39.52c-16,19.74-27.75,42.22-25.67,69.22-3.85.77-8.26.6-11.44,2.5-10.18,6.07-20.54,12.13-29.67,19.62-18.36,15-35.93,31-53.85,46.62-34.37,29.87-60.35,66.13-81.08,106.38-1.94,1.71-4,3.28-5.79,5.15C2185.07,3407.72,2183,3407.83,2169.6,3395.91Z"/></g></g></svg>