<svg xmlns="http://www.w3.org/2000/svg" viewBox="0 0 183.93 198.98">
    <defs>
        <style>
            .cls-1{fill:none;}.cls-2{fill:#e7afae;}.cls-3{fill:#342d28;}.cls-4{fill:#e9b46f;}.cls-5{fill:#39322d;}.cls-6{fill:#3a332e;}.cls-7{fill:#352e29;}.cls-8{fill:#39332e;}.cls-9{fill:#352f2a;}.cls-10{fill:#fdfdfd;}.cls-11{fill:#39302b;}.cls-12{fill:none;}.cls-13{fill:#f6f6f6;}.cls-14{fill:#f7f7f7;}.cls-15{fill:none;}.cls-16{fill:#fdfbf9;}.cls-17{fill:#fdfafa;}.cls-18{fill:#fdfbfb;}.cls-19{fill:#fdfcfc;}.cls-20{fill:none;}.cls-21{fill:#3c3631;}.cls-22{fill:#37302b;}.cls-23{fill:#3b3530;}.cls-24{fill:#3b342f;}.cls-25{fill:#3a342f;}
        </style>
    </defs>
    <g id="Capa_2" data-name="Capa 2">
        <g id="Capa_1-2" data-name="Capa 1">
            <path class="cls-1"
                  d="M183.93,199H0V0H183.93ZM42.88,96.3v0a16.74,16.74,0,0,0,1.28-2.67,63.19,63.19,0,0,0,2.09-17.37,82.25,82.25,0,0,0-2-17.76c-.62-2.63-1.36-5.25-2.19-7.83-.7-2.19-2.26-3.38-4.5-3.11A96.68,96.68,0,0,0,27,49.42,138.89,138.89,0,0,0,3.89,57.33c-1,.43-2.36.64-2.86,1.41S.8,60.86.87,62A71.25,71.25,0,0,0,4.52,79.53,128.91,128.91,0,0,0,9.67,92.21a23.6,23.6,0,0,0,6.06,8.41c.82.69,1.76,1.23,2.64,1.84-.07.28-.13.56-.21.84-1.23,4.16-2.57,8.3-3.66,12.5a149.74,149.74,0,0,0-4.39,25,155.57,155.57,0,0,0-.31,24.8,42.41,42.41,0,0,0,2.63,12.94,22.77,22.77,0,0,0,5.16,8.23,22.38,22.38,0,0,0,12.19,6,31.44,31.44,0,0,0,11.76-.31,31.68,31.68,0,0,0,11.6-4.93c-.13,1.62-.26,3.24-.38,4.87-.21,3.06,2,4.69,4.74,4.76,8,.23,16.1.31,24.15.46,3.12.05,6.24.14,9.36.21l12.73.24,14.8.23a6.35,6.35,0,0,1,.87,0c2.29.32,2.71.46,2.85-2.37a12.82,12.82,0,0,0,0-1.64c-.13-1.91-.28-3.82-.42-5.73.28.23.57.45.84.68,5.25,4.61,11.1,7.9,18.15,8.95a25.07,25.07,0,0,0,14.55-1.89c5.65-2.61,9.22-7.24,11.56-12.88a73.88,73.88,0,0,0,4.26-17.15A131.19,131.19,0,0,0,173,147.09c0-5.92.13-11.85-.3-17.74s-1.41-11.95-2.26-17.91c-.38-2.64-1-5.25-1.57-7.88a25.43,25.43,0,0,0,2.23-3.06c1.67-3.13,3.24-6.32,4.8-9.51a108.73,108.73,0,0,0,7-17c.86-2.88.54-4-1.74-5-4.19-1.92-8.38-3.82-12.63-5.58A63.47,63.47,0,0,0,150.31,59c-3.1-.3-6.2-.58-9.29-1-1.71-.21-2.29.14-3,1.76a65.92,65.92,0,0,0-3.32,12.81,84.57,84.57,0,0,0-1.86,16.93c.06,4,.32,7.92,2.2,11.53,2.53,4.85,6.18,8.46,11.51,10.13,0,6.42.14,12.84,0,19.26-.15,5.94-.44,11.9-1,17.81-.49,5.08-1.4,10.12-2.25,15.16a32.57,32.57,0,0,1-1.55,5.73,1.77,1.77,0,0,1-3.08.51,16.58,16.58,0,0,1-2.32-3c-1.13-2-2.17-4-3.11-6.08-.86-1.91-1.53-3.9-2.29-5.85l-.2-.72a.08.08,0,0,1-.05-.1,8.18,8.18,0,0,0,0-1.4c-.55-3.09-1.12-6.18-1.69-9.27-1.18-6.35-2.77-12.57-5.84-18.33-2.49-4.67-5.8-8.46-10.83-10.49a41.65,41.65,0,0,0-11-2.91,5.74,5.74,0,0,1,.25-1.26,1.09,1.09,0,0,1,.74-.54c2-.15,4.07-.15,6.08-.38,2.78-.31,5.56-.82,7.84-2.61,4.37-3.43,5.2-7.42,3.89-12.42-.82-3.16-2.41-6.11-3.73-9.13a22.58,22.58,0,0,1-2.18-6.34c-.21-1.85-.63-3.7-.66-5.56a24.25,24.25,0,0,1,.71-4.17c.81-4.72,1.8-9.42,1.41-14.25-.44-5.3-2.83-9.39-7.56-11.93a21.51,21.51,0,0,0-9.67-2.2c-3.37-.12-6.75-.15-10.12-.23-2.4-.06-4.8-.28-7.19-.16a8.05,8.05,0,0,1-3.86-.7,11.89,11.89,0,0,0-3.48-1.2c-6.17-.71-11.85.43-16.56,4.8-6.09,5.66-7.53,16,.51,22.25a1.08,1.08,0,0,1,.28.79c-.3,4.35-.68,8.69-.91,13A7.27,7.27,0,0,1,56,83a21.52,21.52,0,0,0-3.54,10.16c-.35,6.39,2.68,12.4,10,13.48,4,.59,8.15.85,12.22,1.25,1.28.13,2.57.21,3.89.32v3.38a18.64,18.64,0,0,0-7.66,2.88,20,20,0,0,0-6.49,7.07c-4.25,7.16-8.32,14.43-12.32,21.74a12.72,12.72,0,0,0-1.32,8.85c-1.14,1.88-2.17,3.84-3.43,5.62-1.76,2.48-3.6,4.91-5.57,7.22-1.29,1.51-3.09,1.05-3.69-.83a12.56,12.56,0,0,1-.56-3c-.11-1.77,0-3.55-.11-5.33-.59-12.34.81-24.54,2.57-36.73C41,111.74,41.84,104.35,42.75,97ZM88.54.38,88.48.11c-2.43.53-4.92.9-7.28,1.65A7.54,7.54,0,0,0,76.82,5a3.58,3.58,0,0,0,2.1,5.39A1.59,1.59,0,0,0,80.25,10,10.7,10.7,0,0,1,87.8,6.69a2.54,2.54,0,0,1,2.61,3.62,5.24,5.24,0,0,1-1.78,2.11,43.78,43.78,0,0,1-5,2.57,7.45,7.45,0,0,0-3.81,3.4,4,4,0,0,0,.35,4.41,3.22,3.22,0,0,0,3.28,1.3A3.34,3.34,0,0,0,86,21.05a2.94,2.94,0,0,1,2.34-2.53A16.77,16.77,0,0,1,90.12,18c4-.7,6.36-4.34,6.73-7.73C97.43,5,93.76,0,88.54.38ZM41.43,20.74c-2.59,2.52-2.76,6.77,1.11,8.67a1.61,1.61,0,0,1,.62.81,5.5,5.5,0,0,0,3.39,3.29c2.94,1,8.92-1,10.43-3.67a.9.9,0,0,0,0-.77.83.83,0,0,0-.72-.28,4,4,0,0,0-1,.59,16.65,16.65,0,0,1-5.31,2.86,4.72,4.72,0,0,1-5.07-2.14A8.16,8.16,0,0,0,50,29a9.44,9.44,0,0,0,4.84-6.61c.13-.67.07-1.25-.8-1.34-4.59-.49-9.84,2.51-10.94,6.8a3.18,3.18,0,0,1-1.84-3.75,3.79,3.79,0,0,1,3.07-3.06,8.82,8.82,0,0,0,2.31-.91,1.22,1.22,0,0,0,.39-1c0-.16-.56-.43-.84-.4-.79.08-1.56.36-2.35.41a3.92,3.92,0,0,1-2-.24,3.32,3.32,0,0,1-1.63-3.71c.1-.59.08-1.13-.65-1.25s-.88.49-.94,1A5.67,5.67,0,0,0,41.43,20.74Zm72.88,4.54a19.55,19.55,0,0,0,2.73-.93,3.08,3.08,0,0,0,.91-3.86,4.78,4.78,0,0,0-5.49-1.73l-1.26.48a1.37,1.37,0,0,1-.06-.3c0-2.34,2.14-5,4.89-4.79.58,0,1.24,0,1.23-.84s-.62-.73-1.17-.73a6.52,6.52,0,0,0-6.53,7.09,4.37,4.37,0,0,1-.33,1.95c-1.14,2.72,0,6.1,2.79,6.76a7,7,0,0,1,3.52,2.29L116,31c.41.34.88.66,1.32.14s.12-1-.34-1.37a2.76,2.76,0,0,1-.57-.5,21.94,21.94,0,0,1-1.58-2.39A7.07,7.07,0,0,1,114.31,25.28Zm-32.21.2c-2.11.19-3.61,1.51-3.5,3.21a4,4,0,0,0,5.85,3.49A3.56,3.56,0,0,0,86.57,29,2.64,2.64,0,0,0,85,26.45,21.08,21.08,0,0,0,82.1,25.48Z"/>
            <path class="cls-2"
                  d="M101.37,111.56a41.65,41.65,0,0,1,11,2.91c5,2,8.34,5.82,10.83,10.49,3.07,5.76,4.66,12,5.84,18.33.57,3.09,1.14,6.18,1.69,9.27a8.18,8.18,0,0,1,0,1.4,10.37,10.37,0,0,0-.65-1.69,5.14,5.14,0,0,0-1-1l-.72,1.07c-4.73,2-9.45,4-14.19,6-1.59.67-3.22,1.26-4.83,1.88-.49-1.81-1-3.62-1.45-5.44-1-4-2-8.09-3-12.14-.15-.62-.46-1.21-1.14-.94-.28.12-.31.87-.44,1.34,0,.09.05.21.08.32q1.81,7.15,3.62,14.33c.52,2.06,1,4.13,1.53,6.18.21.77.58,1.48.85,2.23,1.44,3.91,2.67,7.91,4.34,11.71,1.84,4.19,4.84,7.63,8.09,10.84.14,1.91.29,3.82.42,5.73a12.82,12.82,0,0,1,0,1.64c-.14,2.83-.56,2.69-2.85,2.37a6.35,6.35,0,0,0-.87,0l-14.8-.23L91,197.87c-3.12-.07-6.24-.16-9.36-.21-8.05-.15-16.1-.23-24.15-.46-2.74-.07-5-1.7-4.74-4.76.12-1.63.25-3.25.38-4.87.07-.61.15-1.22.22-1.84.08-.82.12-1.66.24-2.48.55-3.6,1-7.22,1.73-10.79.57-2.89,1.26-5.78.83-8.7-.54-3.61-2.84-6.43-4.82-9.37l-.57-2.28a12.72,12.72,0,0,1,1.32-8.85c4-7.31,8.07-14.58,12.32-21.74a20,20,0,0,1,6.49-7.07,18.64,18.64,0,0,1,7.66-2.88c.12,1,.21,2.09.36,3.13A7.74,7.74,0,0,0,85,121.25a21.76,21.76,0,0,0,8,.33c2.73-.38,5.13-1.42,6.25-4.21C100,115.46,100.68,113.5,101.37,111.56ZM90.88,127.2a13.08,13.08,0,0,0,12.59-8.76c.12-.27-.18-.72-.29-1.09a8.91,8.91,0,0,0-1.13.52c-.14.1-.15.4-.23.6-1.73,4-4.77,6.61-9.11,7a16.44,16.44,0,0,1-15.46-7.05c-.19-.26-.34-.61-.6-.76a1.1,1.1,0,0,0-.93-.06,1,1,0,0,0-.22.88,7.69,7.69,0,0,0,1,1.77C80.18,124.73,85,126.82,90.88,127.2Z"/>
            <path class="cls-3"
                  d="M101.37,111.56c-.69,1.94-1.33,3.9-2.09,5.81-1.12,2.79-3.52,3.83-6.25,4.21a21.76,21.76,0,0,1-8-.33,7.74,7.74,0,0,1-6.11-6.55c-.15-1-.24-2.09-.36-3.13v-3.38c-1.32-.11-2.61-.19-3.89-.32-4.07-.4-8.17-.66-12.22-1.25-7.3-1.08-10.33-7.09-10-13.48A21.52,21.52,0,0,1,56,83a7.27,7.27,0,0,0,1.15-3.63c.23-4.34.61-8.68.91-13a1.08,1.08,0,0,0-.28-.79c-8-6.2-6.6-16.59-.51-22.25,4.71-4.37,10.39-5.51,16.56-4.8a11.89,11.89,0,0,1,3.48,1.2,8.05,8.05,0,0,0,3.86.7c2.39-.12,4.79.1,7.19.16,3.37.08,6.75.11,10.12.23a21.51,21.51,0,0,1,9.67,2.2c4.73,2.54,7.12,6.63,7.56,11.93.39,4.83-.6,9.53-1.41,14.25a24.25,24.25,0,0,0-.71,4.17c0,1.86.45,3.71.66,5.56a22.58,22.58,0,0,0,2.18,6.34c1.32,3,2.91,6,3.73,9.13,1.31,5,.48,9-3.89,12.42-2.28,1.79-5.06,2.3-7.84,2.61-2,.23-4,.23-6.08.38a1.09,1.09,0,0,0-.74.54A5.74,5.74,0,0,0,101.37,111.56ZM77,48.83c-.43.19-.84.32-1.21.53A35.73,35.73,0,0,0,61.69,62.71c-.44.75-.94,1.46-1.37,2.22a4,4,0,0,0-.67,1.49c-.43,6.15-.92,12.31-1.17,18.47a51.7,51.7,0,0,0,.4,9.64,8.42,8.42,0,0,0,6.36,7.16A58.51,58.51,0,0,0,78.39,104c1.49.06,1.55.16,1.6,1.65.11,2.86.13,5.74.45,8.58s1.75,5.07,4.88,5.46A36.52,36.52,0,0,0,93,120a6.27,6.27,0,0,0,5.55-4.41,47.85,47.85,0,0,0,2.34-11.14c.41-3.67.59-7.38.9-11.06a4.52,4.52,0,0,1,2.08-3.86c1.35-.77,2.74-1.44,4.14-2.12A6.26,6.26,0,0,0,111.43,84a3.25,3.25,0,0,0-3-4.46,7,7,0,0,1-1.29-.12,39,39,0,0,1-20.3-11.53A38.27,38.27,0,0,1,77,48.83Zm9.6,1.54c.13.76.22,1.29.33,1.82A19.5,19.5,0,0,0,97.12,65.81c.56.31,1.14.29,1.34-.36.08-.26-.25-.8-.55-1-1.38-1-2.89-1.91-4.23-3-2.68-2.2-4-5.29-5.07-8.45-.26-.73-.18-1.59-.42-2.33-.1-.34-.6-.6-1-.75C87.08,49.85,86.78,50.24,86.63,50.37Zm8.56-.2c.15,5.64,4.58,11.45,9.65,13,.21.06.45.2.63.15a6.24,6.24,0,0,0,1-.48,6.09,6.09,0,0,0-.51-.86,1.49,1.49,0,0,0-.58-.28c-5.19-2-8-5.86-8.6-11.36-.07-.63-.34-1-.92-.87C95.5,49.55,95.29,50.05,95.19,50.17ZM66.59,48c0-.74-.62-1-1.27-.71a13.74,13.74,0,0,0-6.95,7.28c-.14.35.11.87.18,1.31.39-.22,1-.34,1.14-.67A13.86,13.86,0,0,1,66,48.55C66.28,48.42,66.45,48.1,66.59,48Zm37.77,5.75a11.52,11.52,0,0,0,.45,2.11A7.79,7.79,0,0,0,110,60.68c.51.15,1,.4,1.23-.31s-.16-.9-.68-1.1c-2.92-1.17-4.63-3.2-4.66-6.47,0-.26-.45-.72-.68-.71s-.59.38-.81.65S104.36,53.16,104.36,53.7ZM60.45,47.89c-.24-.36-.36-.73-.55-.78s-.83,0-1,.15a10.74,10.74,0,0,0-1.19,2.05,1,1,0,0,0,.29.85.76.76,0,0,0,.76,0C59.37,49.43,59.89,48.66,60.45,47.89Z"/>
            <path class="cls-4"
                  d="M146.6,111.22c-5.33-1.67-9-5.28-11.51-10.13-1.88-3.61-2.14-7.55-2.2-11.53a84.57,84.57,0,0,1,1.86-16.93,65.92,65.92,0,0,1,3.32-12.81c.66-1.62,1.24-2,3-1.76,3.09.39,6.19.67,9.29,1a63.47,63.47,0,0,1,18.22,4.35C172.78,65.14,177,67,181.16,69c2.28,1.05,2.6,2.16,1.74,5a108.73,108.73,0,0,1-7,17c-1.56,3.19-3.13,6.38-4.8,9.51a25.43,25.43,0,0,1-2.23,3.06c-.58-2-1.1-4.11-1.77-6.13a6,6,0,0,0-1.34-2.18,1.8,1.8,0,0,0-2.83.18A22.36,22.36,0,0,0,161.5,98c-1.62-2.86-3.1-3.19-4.58-1,0-1.33,0-2.66,0-4-.13-2.71-2.57-5.43-5-5.66-3.63-.35-8.43,2.59-9.71,6a1.18,1.18,0,0,0,.3,1c.13.13.69,0,.91-.17a6.09,6.09,0,0,0,1-1.16,11.23,11.23,0,0,1,4.27-3.76c2.15-1,6.09-.09,6.55,3.19.17,1.24.13,2.51.18,3.77-2.12.19-2.63.85-3.08,4A10.5,10.5,0,0,0,151.07,98a2.93,2.93,0,0,0-1.82-.87c-.78-.06-1.3.55-1.49,1.34a13.07,13.07,0,0,0-.42,2C147.07,104.05,146.84,107.63,146.6,111.22Zm-2.31-37.11a11.75,11.75,0,0,0,7.72-2.7c.26-.23.23-.79.33-1.19a3.07,3.07,0,0,0-1.24,0,13.78,13.78,0,0,0-1.41,1,9.78,9.78,0,0,1-6.6,1.06c-.68-.11-1.21,0-1.32.75s.41.89,1,.93S143.79,74.05,144.29,74.11ZM168,81.69c.38-.31.85-.54.83-.71a1.31,1.31,0,0,0-.57-1,7,7,0,0,1-4.85-5.88c0-.26-.52-.45-.79-.67-.18.3-.53.6-.52.9a7.37,7.37,0,0,0,2.69,5.39A17.15,17.15,0,0,0,168,81.69Z"/>
            <path class="cls-2"
                  d="M18.37,102.46c-.88-.61-1.82-1.15-2.64-1.84a23.6,23.6,0,0,1-6.06-8.41A128.91,128.91,0,0,1,4.52,79.53,71.25,71.25,0,0,1,.87,62C.8,60.86.53,59.52,1,58.74s1.86-1,2.86-1.41A138.89,138.89,0,0,1,27,49.42a96.68,96.68,0,0,1,10.55-1.88c2.24-.27,3.8.92,4.5,3.11.83,2.58,1.57,5.2,2.19,7.83a82.25,82.25,0,0,1,2,17.76,63.19,63.19,0,0,1-2.09,17.37,16.74,16.74,0,0,1-1.28,2.67c0-.72,0-1.44-.09-2.16a2.18,2.18,0,0,0-1.5-2.27A2.61,2.61,0,0,0,38.79,93c-.28.45-.52.94-.86,1.57,0-3.9-1-4.74-4.06-3.64a2.21,2.21,0,0,0-1.77-1.85c-1.75-.4-2.17,1.18-3,2.09a6.5,6.5,0,0,0-.46-1.94,4.6,4.6,0,0,0-1.75-1.87,2.05,2.05,0,0,0-2.52,1A13.78,13.78,0,0,0,22.94,91C21.38,94.78,19.89,98.62,18.37,102.46Zm11-18.57a6,6,0,0,0,6.1-5.25c.11-.74.24-1.75-.77-1.86s-.88.9-.9,1.59a4.08,4.08,0,0,1-5.06,3.79,5.74,5.74,0,0,1-2.68-2.06c-.3-.34-1-.75-1.28-.62-.72.33-.36,1-.06,1.49A5.79,5.79,0,0,0,29.36,83.89Zm1.11-18,.27.07a3.24,3.24,0,0,0,0,1.08,6,6,0,0,0,.72,1.14A4.15,4.15,0,0,0,32.23,67a12.66,12.66,0,0,0,0-2,3.29,3.29,0,0,1,2.29-3.09c1-.17,2,.59,2.62,2.15a6.33,6.33,0,0,0,.68,1.35,1,1,0,0,0,.87.35c.19,0,.41-.56.37-.81a7.33,7.33,0,0,0-1.88-3.57,3.58,3.58,0,0,0-5.66.92A30.82,30.82,0,0,0,30.47,65.88ZM11.74,70.51l.71.76c.28-.28.75-.53.82-.87.37-1.81,1.28-3.12,3.2-3.33a3.6,3.6,0,0,1,3.65,2c.15.24.72.23,1.09.33.08-.37.33-.82.2-1.11-.84-1.93-3.44-3.1-5.78-2.66C13.83,65.94,11.88,68.23,11.74,70.51Z"/>
            <path class="cls-5"
                  d="M146.6,111.22c.24-3.59.47-7.17.74-10.75a13.07,13.07,0,0,1,.42-2c.19-.79.71-1.4,1.49-1.34a2.93,2.93,0,0,1,1.82.87,10.5,10.5,0,0,1,1.21,2.26c.45-3.11,1-3.77,3.08-4,.37.31.74.63,1.12.93a.26.26,0,0,0,.21.07,1,1,0,0,0,.23-.22c1.48-2.22,3-1.89,4.58,1A22.36,22.36,0,0,1,163,95.43a1.8,1.8,0,0,1,2.83-.18,6,6,0,0,1,1.34,2.18c.67,2,1.19,4.08,1.77,6.13.53,2.63,1.19,5.24,1.57,7.88.85,6,1.83,11.92,2.26,17.91s.34,11.82.3,17.74a131.19,131.19,0,0,1-1.83,19.27,73.88,73.88,0,0,1-4.26,17.15c-2.34,5.64-5.91,10.27-11.56,12.88a25.07,25.07,0,0,1-14.55,1.89c-7-1.05-12.9-4.34-18.15-8.95-.27-.23-.56-.45-.84-.68-3.25-3.21-6.25-6.65-8.09-10.84-1.67-3.8-2.9-7.8-4.34-11.71-.27-.75-.64-1.46-.85-2.23-.54-2.05-1-4.12-1.53-6.18q-1.8-7.17-3.62-14.33c0-.11-.1-.23-.08-.32.13-.47.16-1.22.44-1.34.68-.27,1,.32,1.14.94,1,4.05,2,8.1,3,12.14.46,1.82,1,3.63,1.45,5.44a6.45,6.45,0,0,0,.16,1.18c.76,2.38,1.55,4.74,2.33,7.11a56,56,0,0,0,4.91,11.58,40.33,40.33,0,0,0,9.21,9.94,32.71,32.71,0,0,0,11.93,6.05,27.92,27.92,0,0,0,9.83.85A19,19,0,0,0,159,192.21a24.23,24.23,0,0,0,7.4-12c1.42-5.09,2.47-10.29,3.39-15.49a131.18,131.18,0,0,0,1.86-23A155.87,155.87,0,0,0,167.33,104c-.53-2.15-1.12-4.28-1.8-6.38-.16-.51-.75-.88-1.14-1.31-.34.43-.87.82-1,1.31a33.82,33.82,0,0,0-.77,4.59c-.12,1.33,0,2.68,0,4,0,.26-.37.5-.56.75-.27-.22-.68-.39-.78-.67a8.09,8.09,0,0,1-.21-1.5c-.34-2-.63-4-1.06-6a8.34,8.34,0,0,0-1.06-1.95c-1.1,1.67-.81,3.16-.8,4.62,0,2-.1,3.91-.22,5.86a1,1,0,0,1-.7.66c-.23,0-.59-.31-.74-.58a2,2,0,0,1-.11-.95c0-1.49.18-3,.07-4.46a5.69,5.69,0,0,0-1.67-4.22,3.3,3.3,0,0,0-.9,2.66c-.13,2.54-.2,5.08-.36,7.61,0,.32-.46.6-.7.9a5.68,5.68,0,0,1-.81-.73c-.12-.15-.07-.42-.11-.63-.47-2.57-.92-5.14-1.44-7.7a4.91,4.91,0,0,0-.74-1.36l-.32.11a4.09,4.09,0,0,0-.31.89,41.73,41.73,0,0,0-.61,4.85c-.15,5.26-.27,10.53-.25,15.79,0,11.77,0,23.54-2,35.19-.75,4.46-1.6,8.91-2.62,13.32-.76,3.29-4,4.08-6.42,1.67a9.2,9.2,0,0,1-1.71-2.23q-2.73-5.49-5.29-11.07c-.71-1.54-1.21-3.17-1.81-4.76l.72-1.07a5.14,5.14,0,0,1,1,1,10.37,10.37,0,0,1,.65,1.69.08.08,0,0,0,.05.1l.2.72c.76,1.95,1.43,3.94,2.29,5.85.94,2.07,2,4.11,3.11,6.08a16.58,16.58,0,0,0,2.32,3,1.77,1.77,0,0,0,3.08-.51,32.57,32.57,0,0,0,1.55-5.73c.85-5,1.76-10.08,2.25-15.16.58-5.91.87-11.87,1-17.81C146.74,124.06,146.61,117.64,146.6,111.22Z"/>
            <path class="cls-6"
                  d="M18.37,102.46c1.52-3.84,3-7.68,4.57-11.5a13.78,13.78,0,0,1,1.41-2.55,2.05,2.05,0,0,1,2.52-1,4.6,4.6,0,0,1,1.75,1.87,6.5,6.5,0,0,1,.46,1.94c.85-.91,1.27-2.49,3-2.09A2.21,2.21,0,0,1,33.87,91c3-1.1,4-.26,4.06,3.64.34-.63.58-1.12.86-1.57a2.61,2.61,0,0,1,2.49-1.19,2.18,2.18,0,0,1,1.5,2.27c0,.72.06,1.44.09,2.16v0c0,.22-.09.45-.13.68-.91,7.37-1.71,14.76-2.77,22.11-1.76,12.19-3.16,24.39-2.57,36.73.08,1.78,0,3.56.11,5.33a12.56,12.56,0,0,0,.56,3c.6,1.88,2.4,2.34,3.69.83,2-2.31,3.81-4.74,5.57-7.22,1.26-1.78,2.29-3.74,3.43-5.62.19.76.38,1.52.58,2.28-2.35,3.4-4.68,6.82-7.07,10.19a9.15,9.15,0,0,1-1.92,1.91,3.51,3.51,0,0,1-5.4-1A8.38,8.38,0,0,1,36.2,163c-.23-2.16-.41-4.33-.46-6.51a214.24,214.24,0,0,1,2.91-39.25c1.07-6.47,1.66-13,2.46-19.53.12-1,.21-2.09.24-3.14A3.2,3.2,0,0,0,41,93.51a4,4,0,0,0-.9.64,4.32,4.32,0,0,0-.65,1.24c-.76,2.18-1.49,4.38-2.24,6.57a2.86,2.86,0,0,1-.52,1c-.15.15-.7.18-.79.06a1.67,1.67,0,0,1-.31-1c.23-2.86.53-5.71.74-8.57A6.26,6.26,0,0,0,36,91.79l-.44-.12a8.71,8.71,0,0,0-.68,1A10.56,10.56,0,0,0,33.34,97c-.06,1.19-.27,2.38-.43,3.57-.07.56-.24,1.1-1,1s-.55-.69-.57-1.16a35.11,35.11,0,0,1,1-7.63,8.36,8.36,0,0,0-.22-2.19l-.43,0a4.79,4.79,0,0,0-.89,1.16c-.78,2.17-1.5,4.36-2.23,6.54-.22.63,0,1.71-1.07,1.55s-.68-1.18-.54-1.85a19.57,19.57,0,0,0,.28-7.77,4.45,4.45,0,0,0-.77-1.29,5,5,0,0,0-1.08.89,15.73,15.73,0,0,0-1.27,2.4,158.18,158.18,0,0,0-10.65,35.73c-.87,5.26-1.64,10.55-2,15.86s-.3,10.89-.33,16.34A51.44,51.44,0,0,0,13.83,178a20.63,20.63,0,0,0,18.71,13.65,29.45,29.45,0,0,0,13.71-2.22c2.44-1.07,4.75-2.46,7.11-3.71-.07.62-.15,1.23-.22,1.84a31.68,31.68,0,0,1-11.6,4.93,31.44,31.44,0,0,1-11.76.31,22.38,22.38,0,0,1-12.19-6,22.77,22.77,0,0,1-5.16-8.23A42.41,42.41,0,0,1,9.8,165.63a155.57,155.57,0,0,1,.31-24.8,149.74,149.74,0,0,1,4.39-25c1.09-4.2,2.43-8.34,3.66-12.5C18.24,103,18.3,102.74,18.37,102.46Z"/>
            <path class="cls-7"
                  d="M88.54.38C93.76,0,97.43,5,96.85,10.31c-.37,3.39-2.69,7-6.73,7.73a16.77,16.77,0,0,0-1.78.48A2.94,2.94,0,0,0,86,21.05a3.34,3.34,0,0,1-2.56,3.05,3.22,3.22,0,0,1-3.28-1.3,4,4,0,0,1-.35-4.41A7.45,7.45,0,0,1,83.62,15a43.78,43.78,0,0,0,5-2.57,5.24,5.24,0,0,0,1.78-2.11A2.54,2.54,0,0,0,87.8,6.69,10.7,10.7,0,0,0,80.25,10a1.59,1.59,0,0,1-1.33.32A3.58,3.58,0,0,1,76.82,5a7.54,7.54,0,0,1,4.38-3.2C83.56,1,86.05.64,88.48.11Z"/>
            <path class="cls-8"
                  d="M41.43,20.74A5.67,5.67,0,0,1,38.55,15c.06-.54.14-1.16.94-1s.75.66.65,1.25a3.32,3.32,0,0,0,1.63,3.71,3.92,3.92,0,0,0,2,.24c.79-.05,1.56-.33,2.35-.41.28,0,.83.24.84.4a1.22,1.22,0,0,1-.39,1,8.82,8.82,0,0,1-2.31.91,3.79,3.79,0,0,0-3.07,3.06,3.18,3.18,0,0,0,1.84,3.75c1.1-4.29,6.35-7.29,10.94-6.8.87.09.93.67.8,1.34A9.44,9.44,0,0,1,50,29a8.16,8.16,0,0,1-5.12,1.06,4.72,4.72,0,0,0,5.07,2.14,16.65,16.65,0,0,0,5.31-2.86,4,4,0,0,1,1-.59.83.83,0,0,1,.72.28.9.9,0,0,1,0,.77c-1.51,2.63-7.49,4.69-10.43,3.67a5.5,5.5,0,0,1-3.39-3.29,1.61,1.61,0,0,0-.62-.81C38.67,27.51,38.84,23.26,41.43,20.74Zm11.69,2c-4.12-.2-8.41,2.77-8.44,5.78C49.09,29.35,52.43,25.9,53.12,22.7Z"/>
            <path class="cls-5"
                  d="M114.31,25.28a7.07,7.07,0,0,0,.47,1.63,21.94,21.94,0,0,0,1.58,2.39,2.76,2.76,0,0,0,.57.5c.46.38.8.83.34,1.37s-.91.2-1.32-.14l-.41-.36A7,7,0,0,0,112,28.38c-2.79-.66-3.93-4-2.79-6.76a4.37,4.37,0,0,0,.33-1.95,6.52,6.52,0,0,1,6.53-7.09c.55,0,1.17-.08,1.17.73s-.65.89-1.23.84c-2.75-.23-4.87,2.45-4.89,4.79a1.37,1.37,0,0,0,.06.3l1.26-.48A4.78,4.78,0,0,1,118,20.49a3.08,3.08,0,0,1-.91,3.86A19.55,19.55,0,0,1,114.31,25.28Zm-2.76-4.23c.89,1.43,1.89,2.54,3.71,2.44.8,0,1.38-.49,1.38-1.24a2.21,2.21,0,0,0-.67-1.59A3.42,3.42,0,0,0,111.55,21.05Zm1.08,6c-.72-1.58-.72-1.58.66-2.3-.5-.31-1-.59-1.46-.93a17.17,17.17,0,0,1-1.28-1.17C110,24.75,110.84,26.52,112.63,27.06Z"/>
            <path class="cls-9"
                  d="M82.1,25.48a21.08,21.08,0,0,1,2.94,1A2.64,2.64,0,0,1,86.57,29a3.56,3.56,0,0,1-2.12,3.18,4,4,0,0,1-5.85-3.49C78.49,27,80,25.67,82.1,25.48Z"/>
            <path class="cls-2" d="M42.75,97c0-.23.09-.46.13-.68C42.83,96.52,42.79,96.75,42.75,97Z"/>
            <path class="cls-2" d="M131,154.78l-.2-.72Z"/>
            <path class="cls-10"
                  d="M128.35,152.34c.6,1.59,1.1,3.22,1.81,4.76q2.55,5.58,5.29,11.07a9.2,9.2,0,0,0,1.71,2.23c2.38,2.41,5.66,1.62,6.42-1.67,1-4.41,1.87-8.86,2.62-13.32,2-11.65,2-23.42,2-35.19,0-5.26.1-10.53.25-15.79a41.73,41.73,0,0,1,.61-4.85,4.09,4.09,0,0,1,.31-.89l.32-.11a4.91,4.91,0,0,1,.74,1.36c.52,2.56,1,5.13,1.44,7.7,0,.21,0,.48.11.63a5.68,5.68,0,0,0,.81.73c.24-.3.68-.58.7-.9.16-2.53.23-5.07.36-7.61a3.3,3.3,0,0,1,.9-2.66,5.69,5.69,0,0,1,1.67,4.22c.11,1.48,0,3-.07,4.46a2,2,0,0,0,.11.95c.15.27.51.61.74.58a1,1,0,0,0,.7-.66c.12-1.95.22-3.9.22-5.86,0-1.46-.3-3,.8-4.62A8.34,8.34,0,0,1,160,98.85c.43,2,.72,4,1.06,6a8.09,8.09,0,0,0,.21,1.5c.1.28.51.45.78.67.19-.25.55-.49.56-.75,0-1.34-.07-2.69,0-4a33.82,33.82,0,0,1,.77-4.59c.11-.49.64-.88,1-1.31.39.43,1,.8,1.14,1.31.68,2.1,1.27,4.23,1.8,6.38a155.87,155.87,0,0,1,4.36,37.75,131.18,131.18,0,0,1-1.86,23c-.92,5.2-2,10.4-3.39,15.49a24.23,24.23,0,0,1-7.4,12,19,19,0,0,1-11.34,4.72,27.92,27.92,0,0,1-9.83-.85A32.71,32.71,0,0,1,125.94,190a40.33,40.33,0,0,1-9.21-9.94,56,56,0,0,1-4.91-11.58c-.78-2.37-1.57-4.73-2.33-7.11a6.45,6.45,0,0,1-.16-1.18c1.61-.62,3.24-1.21,4.83-1.88C118.9,156.36,123.62,154.34,128.35,152.34Zm14.1,28.07c-.23-1.67-.41-3.14-.66-4.6a1,1,0,0,0-.67-.6c-.17,0-.61.36-.6.53.12,1.58.29,3.16.53,4.73,0,.23.57.51.87.52S142.34,180.55,142.45,180.41Zm5.69-1.41c0-.23,0-.33-.08-.37-1.09-1.14-2.17-2.29-3.32-3.38-.13-.13-.74,0-.91.22a1,1,0,0,0,0,.92c.94,1.05,1.94,2.05,3,3a1,1,0,0,0,.86.1C147.91,179.44,148,179.12,148.14,179Z"/>
            <path class="cls-10"
                  d="M53.36,185.73c-2.36,1.25-4.67,2.64-7.11,3.71a29.45,29.45,0,0,1-13.71,2.22A20.63,20.63,0,0,1,13.83,178a51.44,51.44,0,0,1-2.73-17.87c0-5.45-.06-10.91.33-16.34s1.15-10.6,2-15.86A158.18,158.18,0,0,1,24.1,92.21a15.73,15.73,0,0,1,1.27-2.4,5,5,0,0,1,1.08-.89,4.45,4.45,0,0,1,.77,1.29A19.57,19.57,0,0,1,26.94,98c-.14.67-.63,1.68.54,1.85s.85-.92,1.07-1.55c.73-2.18,1.45-4.37,2.23-6.54a4.79,4.79,0,0,1,.89-1.16l.43,0a8.36,8.36,0,0,1,.22,2.19,35.11,35.11,0,0,0-1,7.63c0,.47-.25,1.1.57,1.16s.91-.49,1-1c.16-1.19.37-2.38.43-3.57a10.56,10.56,0,0,1,1.51-4.37,8.71,8.71,0,0,1,.68-1l.44.12a6.26,6.26,0,0,1,.36,1.66c-.21,2.86-.51,5.71-.74,8.57a1.67,1.67,0,0,0,.31,1c.09.12.64.09.79-.06a2.86,2.86,0,0,0,.52-1c.75-2.19,1.48-4.39,2.24-6.57a4.32,4.32,0,0,1,.65-1.24,4,4,0,0,1,.9-.64,3.2,3.2,0,0,1,.35,1.07c0,1-.12,2.1-.24,3.14-.8,6.51-1.39,13.06-2.46,19.53a214.24,214.24,0,0,0-2.91,39.25c0,2.18.23,4.35.46,6.51a8.38,8.38,0,0,0,.76,2.48,3.51,3.51,0,0,0,5.4,1,9.15,9.15,0,0,0,1.92-1.91c2.39-3.37,4.72-6.79,7.07-10.19,2,2.94,4.27,5.76,4.81,9.37.43,2.92-.26,5.81-.83,8.7-.7,3.57-1.18,7.19-1.73,10.79C53.48,184.07,53.44,184.91,53.36,185.73ZM35.6,166.62c-.25-.32-.42-.74-.62-.76s-.88.11-1,.35A6.66,6.66,0,0,1,31.46,169c-.23.13-.18.73-.26,1.12.4,0,.89.27,1.17.12a7.12,7.12,0,0,0,1.86-1.45A16.26,16.26,0,0,0,35.6,166.62Zm-.18,7.72.56.81c.29-.31.72-.57.84-.94a10.13,10.13,0,0,0,.47-2.44c0-.37-.32-.77-.5-1.15-.33.31-.83.57-.94.94A19.77,19.77,0,0,0,35.42,174.34Z"/>
            <path class="cls-11"
                  d="M90.88,127.2c-5.85-.38-10.7-2.47-14.34-7a7.69,7.69,0,0,1-1-1.77,1,1,0,0,1,.22-.88,1.1,1.1,0,0,1,.93.06c.26.15.41.5.6.76a16.44,16.44,0,0,0,15.46,7.05c4.34-.35,7.38-2.93,9.11-7,.08-.2.09-.5.23-.6a8.91,8.91,0,0,1,1.13-.52c.11.37.41.82.29,1.09a13.08,13.08,0,0,1-12.59,8.76Z"/>
            <path class="cls-10"
                  d="M77,48.83a38.27,38.27,0,0,0,9.84,19,39,39,0,0,0,20.3,11.53,7,7,0,0,0,1.29.12,3.25,3.25,0,0,1,3,4.46A6.26,6.26,0,0,1,108,87.39c-1.4.68-2.79,1.35-4.14,2.12a4.52,4.52,0,0,0-2.08,3.86c-.31,3.68-.49,7.39-.9,11.06a47.85,47.85,0,0,1-2.34,11.14A6.27,6.27,0,0,1,93,120a36.52,36.52,0,0,1-7.67-.33c-3.13-.39-4.57-2.72-4.88-5.46s-.34-5.72-.45-8.58c0-1.49-.11-1.59-1.6-1.65a58.51,58.51,0,0,1-13.15-2.27,8.42,8.42,0,0,1-6.36-7.16,51.7,51.7,0,0,1-.4-9.64c.25-6.16.74-12.32,1.17-18.47a4,4,0,0,1,.67-1.49c.43-.76.93-1.47,1.37-2.22A35.73,35.73,0,0,1,75.82,49.36C76.19,49.15,76.6,49,77,48.83Zm-10,33a5.57,5.57,0,0,1,.27-1.34q1.74-3.41,3.56-6.79c.24-.45.63-1,.06-1.28a1.4,1.4,0,0,0-1.31.43,55.66,55.66,0,0,0-3.19,5.28,8.33,8.33,0,0,0-.86,3.2,1.84,1.84,0,0,0,2.62,1.88,12.3,12.3,0,0,0,5-4.69c.13-.23-.13-.69-.2-1-.34.08-.78,0-1,.25-.41.39-.63,1-1,1.37C69.84,80.18,68.94,81.54,67,81.87Zm3.4,7a4.3,4.3,0,0,0-3.15,1.4c-.34.31-1,.53-.47,1.18s.84.44,1.38,0a3.87,3.87,0,0,1,6.19,1.43c.11.3.71.42,1.08.63.13-.37.45-.79.36-1.09A5.23,5.23,0,0,0,70.43,88.88Zm-6-18.7c-.61-.52-1-1.1-1.34-1.11-1.2,0-.57,1.17-.92,1.74,0,.09.5.55.77.84ZM79,74.08a4.18,4.18,0,0,0,.6.88.85.85,0,0,0,.65,0,8.71,8.71,0,0,0,.38-2.4c0-.43-1.07-.33-1.29.18A8.17,8.17,0,0,0,79,74.08Z"/>
            <path class="cls-12"
                  d="M86.63,50.37c.15-.13.45-.52.58-.47.38.15.88.41,1,.75.24.74.16,1.6.42,2.33,1.11,3.16,2.39,6.25,5.07,8.45,1.34,1.09,2.85,2,4.23,3,.3.22.63.76.55,1-.2.65-.78.67-1.34.36A19.5,19.5,0,0,1,87,52.19C86.85,51.66,86.76,51.13,86.63,50.37Z"/>
            <path class="cls-13"
                  d="M95.19,50.17c.1-.12.31-.62.64-.71.58-.16.85.24.92.87.6,5.5,3.41,9.33,8.6,11.36a1.49,1.49,0,0,1,.58.28,6.09,6.09,0,0,1,.51.86,6.24,6.24,0,0,1-1,.48c-.18,0-.42-.09-.63-.15C99.77,61.62,95.34,55.81,95.19,50.17Z"/>
            <path class="cls-14"
                  d="M66.59,48c-.14.15-.31.47-.57.6a13.86,13.86,0,0,0-6.33,6.61c-.16.33-.75.45-1.14.67-.07-.44-.32-1-.18-1.31a13.74,13.74,0,0,1,6.95-7.28C66,46.93,66.58,47.21,66.59,48Z"/>
            <path class="cls-14"
                  d="M104.36,53.7c0-.54-.08-.82,0-1s.53-.64.81-.65.67.45.68.71c0,3.27,1.74,5.3,4.66,6.47.52.2.93.45.68,1.1s-.72.46-1.23.31a7.79,7.79,0,0,1-5.17-4.87A11.52,11.52,0,0,1,104.36,53.7Z"/>
            <path class="cls-15"
                  d="M60.45,47.89c-.56.77-1.08,1.54-1.68,2.24a.76.76,0,0,1-.76,0,1,1,0,0,1-.29-.85,10.74,10.74,0,0,1,1.19-2.05c.16-.2.68-.22,1-.15S60.21,47.53,60.45,47.89Z"/>
            <path class="cls-16"
                  d="M156.92,97.07a1,1,0,0,1-.23.22.26.26,0,0,1-.21-.07c-.38-.3-.75-.62-1.12-.93-.05-1.26,0-2.53-.18-3.77-.46-3.28-4.4-4.17-6.55-3.19a11.23,11.23,0,0,0-4.27,3.76,6.09,6.09,0,0,1-1,1.16c-.22.18-.78.3-.91.17a1.18,1.18,0,0,1-.3-1c1.28-3.4,6.08-6.34,9.71-6,2.44.23,4.88,3,5,5.66C157,94.41,156.92,95.74,156.92,97.07Z"/>
            <path class="cls-16"
                  d="M144.29,74.11c-.5-.06-1-.16-1.5-.2s-1.14-.21-1-.93.64-.86,1.32-.75a9.78,9.78,0,0,0,6.6-1.06,13.78,13.78,0,0,1,1.41-1,3.07,3.07,0,0,1,1.24,0c-.1.4-.07,1-.33,1.19A11.75,11.75,0,0,1,144.29,74.11Z"/>
            <path class="cls-16"
                  d="M168,81.69a17.15,17.15,0,0,1-3.21-1.92,7.37,7.37,0,0,1-2.69-5.39c0-.3.34-.6.52-.9.27.22.75.41.79.67A7,7,0,0,0,168.26,80a1.31,1.31,0,0,1,.57,1C168.85,81.15,168.38,81.38,168,81.69Z"/>
            <path class="cls-17"
                  d="M29.36,83.89A5.79,5.79,0,0,1,24.71,81c-.3-.48-.66-1.16.06-1.49.29-.13,1,.28,1.28.62a5.74,5.74,0,0,0,2.68,2.06,4.08,4.08,0,0,0,5.06-3.79c0-.69-.17-1.71.9-1.59s.88,1.12.77,1.86A6,6,0,0,1,29.36,83.89Z"/>
            <path class="cls-18"
                  d="M30.47,65.88a30.82,30.82,0,0,1,1.08-3.58,3.58,3.58,0,0,1,5.66-.92A7.33,7.33,0,0,1,39.09,65c0,.25-.18.77-.37.81a1,1,0,0,1-.87-.35,6.33,6.33,0,0,1-.68-1.35c-.66-1.56-1.58-2.32-2.62-2.15A3.29,3.29,0,0,0,32.26,65a12.66,12.66,0,0,1,0,2,4.15,4.15,0,0,1-.75,1.22A6,6,0,0,1,30.76,67a3.24,3.24,0,0,1,0-1.08Z"/>
            <path class="cls-19"
                  d="M11.74,70.51c.14-2.28,2.09-4.57,3.89-4.9,2.34-.44,4.94.73,5.78,2.66.13.29-.12.74-.2,1.11-.37-.1-.94-.09-1.09-.33a3.6,3.6,0,0,0-3.65-2c-1.92.21-2.83,1.52-3.2,3.33-.07.34-.54.59-.82.87Z"/>
            <path class="cls-20" d="M53.12,22.7c-.69,3.2-4,6.65-8.44,5.78C44.71,25.47,49,22.5,53.12,22.7Z"/>
            <path class="cls-12"
                  d="M111.55,21.05a3.42,3.42,0,0,1,4.42-.39,2.21,2.21,0,0,1,.67,1.59c0,.75-.58,1.19-1.38,1.24C113.44,23.59,112.44,22.48,111.55,21.05Z"/>
            <path class="cls-15"
                  d="M112.63,27.06c-1.79-.54-2.61-2.31-2.08-4.4a17.17,17.17,0,0,0,1.28,1.17c.45.34,1,.62,1.46.93C111.91,25.48,111.91,25.48,112.63,27.06Z"/>
            <path class="cls-21"
                  d="M142.45,180.41c-.11.14-.33.58-.53.58s-.83-.29-.87-.52c-.24-1.57-.41-3.15-.53-4.73,0-.17.43-.56.6-.53a1,1,0,0,1,.67.6C142,177.27,142.22,178.74,142.45,180.41Z"/>
            <path class="cls-22"
                  d="M148.14,179c-.1.12-.23.44-.44.51a1,1,0,0,1-.86-.1c-1-1-2-2-3-3a1,1,0,0,1,0-.92c.17-.2.78-.35.91-.22,1.15,1.09,2.23,2.24,3.32,3.38C148.1,178.67,148.09,178.77,148.14,179Z"/>
            <path class="cls-23"
                  d="M35.6,166.62a16.26,16.26,0,0,1-1.37,2.13,7.12,7.12,0,0,1-1.86,1.45c-.28.15-.77-.07-1.17-.12.08-.39,0-1,.26-1.12A6.66,6.66,0,0,0,34,166.21c.13-.24.67-.37,1-.35S35.35,166.3,35.6,166.62Z"/>
            <path class="cls-23"
                  d="M35.42,174.34a19.77,19.77,0,0,1,.43-2.78c.11-.37.61-.63.94-.94.18.38.52.78.5,1.15a10.13,10.13,0,0,1-.47,2.44c-.12.37-.55.63-.84.94Z"/>
            <path class="cls-24"
                  d="M67,81.87c1.91-.33,2.81-1.69,3.91-2.73.42-.38.64-1,1-1.37.22-.21.66-.17,1-.25.07.35.33.81.2,1a12.3,12.3,0,0,1-5,4.69,1.84,1.84,0,0,1-2.62-1.88,8.33,8.33,0,0,1,.86-3.2,55.66,55.66,0,0,1,3.19-5.28,1.4,1.4,0,0,1,1.31-.43c.57.29.18.83-.06,1.28Q69,77.13,67.3,80.53A5.57,5.57,0,0,0,67,81.87Z"/>
            <path class="cls-25"
                  d="M70.43,88.88a5.23,5.23,0,0,1,5.39,3.59c.09.3-.23.72-.36,1.09-.37-.21-1-.33-1.08-.63a3.87,3.87,0,0,0-6.19-1.43c-.54.4-1,.5-1.38,0s.13-.87.47-1.18A4.3,4.3,0,0,1,70.43,88.88Z"/>
            <path class="cls-21"
                  d="M64.4,70.18l-1.49,1.47c-.27-.29-.82-.75-.77-.84.35-.57-.28-1.76.92-1.74C63.43,69.08,63.79,69.66,64.4,70.18Z"/>
            <path class="cls-21"
                  d="M79,74.08a8.17,8.17,0,0,1,.34-1.35c.22-.51,1.27-.61,1.29-.18a8.71,8.71,0,0,1-.38,2.4.85.85,0,0,1-.65,0A4.18,4.18,0,0,1,79,74.08Z"/>
        </g>
    </g>
</svg>