<svg xmlns="http://www.w3.org/2000/svg" viewBox="0 0 301.96 295.85">
    <defs>
        <style>
            .cls-0{fill:none;}.cls-1{fill:#fefefe;}.cls-2{fill:#342d28;}.cls-3{fill:#37302b;}.cls-4{fill:#e9b46f;}.cls-5{fill:#e7afae;}.cls-6{fill:#d7bba6;}.cls-7{fill:#37302c;}.cls-8{fill:#3b342f;}.cls-9{fill:#d6bba6;}.cls-10{fill:#d6baa6;}.cls-11{fill:#d5baa5;}.cls-12{fill:#39312c;}.cls-13{fill:#f2f1f1;}.cls-14{fill:#fbfbfb;}.cls-15{fill:#fcfcfc;}.cls-16{fill:none;}.cls-17{fill:#fdfdfd;}.cls-18{fill:#362e29;}.cls-19{fill:#3c3530;}
        </style>
    </defs>
    <g id="Capa_2" data-name="Capa 2">
        <g id="Capa_1-2" data-name="Capa 1">
            <path class="cls-0"
                  d="M302,264v31.83H0V0H302V261.63a4.83,4.83,0,0,0-2.3-3.21c-.67-.34-1.36-.65-2.05-1-3.63-1.7-7.34-3.26-10.86-5.16a12.74,12.74,0,0,1-6.9-9.13c-.39-2.13-.93-4.24-1.32-6.38-.73-4-1.4-8-2.1-12a6.27,6.27,0,0,0,.08-1c-.29-3.17-.63-6.33-.91-9.49-.33-3.56-.42-7.16-1-10.68-.95-6.28-2.15-12.51-3.25-18.76a16.87,16.87,0,0,0,2.94-.62c1.67-.66,2.67-2.42,2.09-3.67a7,7,0,0,0-1.48-1.62,16.39,16.39,0,0,0,1.71-2,9.74,9.74,0,0,0,.75-9.28c-2.71-6.91-7.46-12.47-12.39-17.85a6,6,0,0,0-6.17-1.51c-3.44.84-4.07,3.92-2,6.1a8,8,0,0,1,.52.68l-1.08.54a1.1,1.1,0,0,1-.2-.22c-3.12-7.8-6.31-15.57-9.34-23.4-2.24-5.78-4.19-11.67-7.68-16.87l.94-.27c2.61-.8,5.18-1.66,7.1-3.79a7.33,7.33,0,0,0,2-5.46c-.27-4.84-5.44-8.21-10.18-7.56a33.57,33.57,0,0,0-5.07,1.51,1.93,1.93,0,0,1-.28-.61c-.22-1-.37-2-.58-3.06-.38-1.84-.87-3.65-1.16-5.5-.52-3.43-1.33-4-4.69-3.28-3.81.84-7.65,1.62-11.48,2.37-1.11.22-2.24.27-3.24.38,0-1.18,0-2.15,0-3.13a8.63,8.63,0,0,0-7.85-8.21c-5.78-.22-8.29,5.63-8,9.54.15,1.75.46,3.49.7,5.25a2.63,2.63,0,0,1-.45.17,59.2,59.2,0,0,0-11.32,3.06c-1,.33-1.24.84-1,1.8s.55,2.17.81,3.26a4.91,4.91,0,0,1-.51-.39q-6.72-6.72-13.42-13.45a4.38,4.38,0,0,1-.49-.7,7.07,7.07,0,0,0,8.93-4.52c1-2.67,1.86-5.41,2.64-8.15s1.38-5.53,2.07-8.3c.87.21,1.75.46,2.63.61a3.68,3.68,0,0,0,3.75-1.14c1.19-1.49,1-2.83-.39-4.59a38.13,38.13,0,0,0-8.7-7.68,27.05,27.05,0,0,0-6.11-3,7,7,0,0,0-7.36,1.18A4.94,4.94,0,0,1,165,52.71a9.28,9.28,0,0,0-7.84,4.14,17.06,17.06,0,0,0-2.8,7.65c-2.68.24-4.33,1.43-4.57,3.38-.22,1.76.22,3.64,3.37,4.65l-2.32,6.53a3.16,3.16,0,0,0-.75,0c-3,.68-6,1.34-9,2a13.5,13.5,0,0,0-10,9.23c-1.83,5.29-3.41,10.68-5,16-.66,2.21-1.06,4.5-1.58,6.75l-17.64.7a27.26,27.26,0,0,1,1.62-2.78c1.66-2.17,4.06-3.45,6.24-5a54.71,54.71,0,0,0,7.06-5.59c3.17-3.15,3.85-7,2-11.2-.52-1.2-1.13-2.36-1.66-3.55-1.08-2.4-1.69-4.87-.08-7.24a33.61,33.61,0,0,1,3.51-4.13c3.09-3.23,4.46-6.8,2.67-11.18q-1.27-3.12-2.43-6.29c-.55-1.49-1.15-3-.65-4.64.38-1.24.92-2.44,1.23-3.69A11.22,11.22,0,0,0,127,44.4c-.38-2.44-3.26-3.34-5.66-2-3.58,2-5.21,5.3-5.71,9.13-.44,3.41-.42,6.86-.71,10.29s-1.31,6.86-4.07,9.33c-1.88,1.69-3.9,3.24-5.83,4.88-2.2,1.88-4,4-4.31,7a8,8,0,0,1-.37,1.31c-1.46-1.93-1.39-4-.71-6.21.48-1.55,1.08-3.07,1.53-4.63a5.35,5.35,0,0,0-.48-4.31c-1-1.81-2.74-2.88-4.38-4a5.89,5.89,0,0,1-2.81-6.69,36.07,36.07,0,0,0,.7-5,4.53,4.53,0,0,0-1.68-4c-1.57-1.2-4-.5-5.07,1.53-2.62,4.9-3.52,10-1.44,15.36.87,2.23,1.65,4.49,2.47,6.73a3.13,3.13,0,0,1-.49.41,15.31,15.31,0,0,0-6.16,6.87,28.75,28.75,0,0,0-1.59-9.91c-1-2.65-2.09-5.23-3.08-7.86A6.88,6.88,0,0,1,77,60.84c.9-.68,1.83-1.31,2.67-2.05,3.14-2.77,5.72-5.87,6.1-10.29a3.44,3.44,0,0,0-1.21-3.16,2.8,2.8,0,0,0-3.7.17,14.61,14.61,0,0,0-5,9.15c-.15,1-.26,1.91-.38,2.87-.24-2.62-.68-5.25-.69-7.88,0-5,.2-10,.35-15a11.62,11.62,0,0,1,.44-2,3.34,3.34,0,0,0,.64,0,21.91,21.91,0,0,0,7.69-3.92,6.14,6.14,0,0,0,2.48-3.32A4.12,4.12,0,0,0,85,21.08a3.36,3.36,0,0,0-4,.24,17.67,17.67,0,0,0-5.33,6.89,2.14,2.14,0,0,0-.06.63l-.23.38-.25.41h0l-.14.27v0l-.46-.28a22.61,22.61,0,0,0-2.9-7.9c-1.51-2.36-3.07-4.68-5.64-6.06.37-.4.72-.8,1.1-1.19a23.47,23.47,0,0,0,5.42-8.93A4.16,4.16,0,0,0,72.78,4c-.15-2.27-2.14-3.84-4-3.08a7.28,7.28,0,0,0-1.58,1.28,5.48,5.48,0,0,0-5-.82c-5.08,1.19-8.6,4.48-11.34,8.7a12.94,12.94,0,0,0-1,3.24l-.58.29a3,3,0,0,0-.27,5.19,5.07,5.07,0,0,0,2.37.62c4.55.15,9-.21,13.08-2.6a1.07,1.07,0,0,1,.32-.06,10.8,10.8,0,0,1,4.7,4c3,4.23,4,9.07,4.29,14.13a3.89,3.89,0,0,1-.65-.7,16.57,16.57,0,0,0-4.8-5,8.11,8.11,0,0,0-9.08-.55,3.93,3.93,0,0,0-1.43,4.87,5.07,5.07,0,0,0,4.36,3c3.58.42,7.2.49,10.81.71A1.54,1.54,0,0,1,73.9,39c-.18,3.65-.31,7.3-.46,10.95-1.08-2.36-2.18-4.64-4.94-5.55a4.12,4.12,0,0,0-5.18,2.12A3.45,3.45,0,0,0,65,51.26c2.67,1.25,5.5,2.18,8.26,3.24.28.89.56,1.78.83,2.67.66,2.21,1.3,4.42,2,6.62.21.68.49,1.34.74,2-.42-.29-.87-.55-1.27-.87-1.3-1.09-2.56-2.24-4.34-2.5a3.19,3.19,0,0,0-3.15,1,2.94,2.94,0,0,0-.31,3.35,9,9,0,0,0,3.18,3.6A12.32,12.32,0,0,0,79,73a4,4,0,0,1,1.12,2.58c0,3.47.11,6.94,0,10.41a24.5,24.5,0,0,1-.53,3.6,61,61,0,0,0-3-6.2c-1-1.67-3-1.79-4.67-.69-2.87-1.68-5.32-.65-5.68,2.52a39.12,39.12,0,0,0,1,15.15,16.55,16.55,0,0,1,.3,2.13c-2.54-1.91-5-3.9-7.64-5.7-2.25-1.56-4.65-2.9-7-4.33.25-1.89.37-3.82.8-5.67.61-2.68,1.52-5.28,2.15-8,.51-2.1.73-4.25-.69-6.16a3,3,0,0,0-4.28-.75,8.39,8.39,0,0,0-2.74,5.27c-.63,3.16,0,6.27.56,9.37.26,1.3.64,2.58,1,3.87C48,89,46.16,87.72,44.58,86.16a18.13,18.13,0,0,1-4.72-6.79,5.21,5.21,0,0,0,2.83-3.76,19.6,19.6,0,0,0-1.75-13.68c-1-1.92-1.09-2.39-3.19-1.92a15.07,15.07,0,0,0-1.62-1.27,1.94,1.94,0,0,0-3,.85,12.5,12.5,0,0,0-.48,1.2c-.73-.57-1.38-1.34-2.49-.88A2,2,0,0,0,29,61.83c-.11,4.28-.11,8.59,2,12.5,1.57,3,3.49,5.6,7.44,5.28a48.42,48.42,0,0,0,3.06,5,36,36,0,0,0,8.93,7.81c.45.3.83.68,1.25,1-.36,0-.73,0-1.09,0-2.23-.12-4.47-.29-6.71-.38a5.15,5.15,0,0,0-4,1.71,2.94,2.94,0,0,0,1.65,4.73,17.29,17.29,0,0,0,4.91.64,31,31,0,0,0,10.8-2.09,4.56,4.56,0,0,0,1-.74,36.56,36.56,0,0,1,12.62,11.05A15.05,15.05,0,0,1,72,111.12a13.41,13.41,0,0,1-1.92-1.29c-3.85-3.61-8.55-4.91-13.65-4.89-2.3,0-4,1.23-3.68,3.91a6.18,6.18,0,0,1,0,.86l-1.16-.93a11,11,0,0,0-7-2.87,22.54,22.54,0,0,0-6,.86,25.14,25.14,0,0,1-11.81.82,13.8,13.8,0,0,0-3.46-.18,13.28,13.28,0,0,0-8.18,3.9c-1.84,1.7-3.51,3.58-5.37,5.25-2.29,2-4.75,3.82-8.07,3.77-.77,0-1,.43-.64,1.18a9.23,9.23,0,0,0,6.91,5.4c4.25.9,8-.31,11.43-2.85,1.57-1.17,3.07-2.44,4.66-3.58,1.94-1.39,4-2.35,6.49-1.41C28.22,122.71,26,126.4,23.6,130s-6,6-9.24,8.69c-2.74,2.31-5.56,4.5-7.76,7.41C3.72,149.9,2.3,154,3.29,158.79c.08.38.51.68.77,1A11.54,11.54,0,0,0,5,159a24.5,24.5,0,0,1,2.75-3c2.2-1.66,4.91-1.84,7.54-2.06,2.89-.24,5.8-.19,8.68-.5a11.75,11.75,0,0,0,9.21-5.84,51.32,51.32,0,0,0,3.48-8.41c.79-2.21,1.23-4.55,2-6.77.49-1.38,1.19-2.75,2.86-3.15-.24,2.46-.55,4.91-.7,7.37-.69,10.84-1.28,21.68-2,32.52a80.55,80.55,0,0,1-3.32,18.26c-2.61,8.56-6.84,16-14.1,21.58a12.3,12.3,0,0,0-3.22,4,3.3,3.3,0,0,0,2.95,4.88,57.28,57.28,0,0,0,6.42,0c3-.18,6-.51,9.07-.78,0,.37,0,.77,0,1.16-.14,5.63-.33,11.26-.4,16.89a24.71,24.71,0,0,0,7.86,18.5c4.83,4.72,10.88,7.25,17.41,8.63a73.35,73.35,0,0,0,19.85,1l5.09-.3a52.58,52.58,0,0,0-.47,5.3c.11,8.5.29,17,.48,25.49,0,1.44.22,1.56,1.62,1.51l47.25-2q22.38-.91,44.75-1.78c.88,0,1.16-.42,1.13-1.2,0-1.16-.07-2.32-.1-3.49a329.79,329.79,0,0,1,1.12-39.51c.57-6.37,1-12.75,1.88-19.07s1.84-12.95,3.3-19.29c1.39-6,3.49-11.88,5.24-17.82a97.39,97.39,0,0,0,3.76-18.86,124,124,0,0,0-1.33-32c.36-.07.71-.12,1.06-.21l15.92-4c1.59-.39,1.6-.41.86-1.81-1.23-2.3-2.66-4.53-3-7.18-.33-2.46.27-4.71,2.36-6.15s4.16-1,6.18.12a8.14,8.14,0,0,1,4.18,7.17c.08,1.71.41,3.46-.53,5.1-.3.52.3,1,1.06.86l5.12-1c.75,2,1.51,4,2.25,6,2.81,7.67,5.59,15.35,9.59,22.52,1.14,2,2.31,4.08,3.47,6.12l0,2.23a6.32,6.32,0,0,1-.25.6c-1.77,3.4-1.11,6.58,1.46,9.29a32,32,0,0,0,4.46,3.35c-.12.84-.27,1.95-.43,3.06-3.13-.21-6.29-.28-9.41-.65-4.22-.51-8.42-1.23-12.62-1.92-1.66-.28-3.29-.74-4.93-1.12a1.59,1.59,0,0,0-.23-.36,14.41,14.41,0,0,1-4.87-6.66c-2-4.9-2.36-10.07-2.62-15.25-.19-4-.15-8-.28-12a44.57,44.57,0,0,0-.49-5.41c-.34-2.14-1.47-2.51-3-1.25-.43-.46-.78-1.09-1.3-1.33a2.17,2.17,0,0,0-2.71.74,1.3,1.3,0,0,1-.91.51c-1.65-.19-3,.17-3.5,1.89-1.62-.11-2.18.2-2.73,1.64a7.34,7.34,0,0,0-.5,2c-.14,1.7-.21,3.4-.27,5.11a148.12,148.12,0,0,0,2.62,32.49,16.26,16.26,0,0,0,5.79,10.06c2.9,2.34,6.34,3.41,9.86,4.32.25.18.48.45.75.51,5.25,1.19,10.51,2.34,15.76,3.54a1.26,1.26,0,0,1,.73.84c.15,1.08.1,2.18.26,3.25q1.16,7.71,2.41,15.42c.2,1.26.62,2.49.93,3.73.19,2,.45,4,.53,6a183.83,183.83,0,0,0,1.76,20.82,116.25,116.25,0,0,0,5.11,21.78c.58,1.58,1.28,3.11,1.84,4.7.5,1.43.9,2.9,1.31,4.36a4.29,4.29,0,0,1,.12,1.29,2.73,2.73,0,0,1-1.42,2.16q-3.28,2.31-6.47,4.74a1.76,1.76,0,0,0-.61,2.33c.46.79,1.39.79,2.26.63,2.48-.47,5-.82,7.45-1.42,3.4-.83,6.76-1.84,10.13-2.78a1.11,1.11,0,0,0,.91-1.28c-.24-3.94-.45-7.89-.68-11.84a3.89,3.89,0,0,0-.18-.95,7.07,7.07,0,0,1-.48-1.66c0-7.33,0-14.67.13-22,.05-4.65.19-9.3.3-14h.3c.09.19.2.39.28.59,2.1,5.08,4.14,10.19,6.3,15.25,1.88,4.4,5,7.5,9.78,8.68,2.57.63,5.17,1.1,7.76,1.65a4.3,4.3,0,0,1,.92.3,8.38,8.38,0,0,0,1.53.76c2.16.49,4.33.89,6.49,1.35.92.19,1.2.79,1.25,1.74.12,2.27.35,4.54.64,6.8a2.13,2.13,0,0,0,1.88,2,2.1,2.1,0,0,0,2.26-1.34,19.37,19.37,0,0,0,.83-3.12C300.52,270.7,301.24,267.36,302,264Z"/>
            <path class="cls-2"
                  d="M302,264c-.72,3.34-1.44,6.68-2.19,10a19.37,19.37,0,0,1-.83,3.12,2.1,2.1,0,0,1-2.26,1.34,2.13,2.13,0,0,1-1.88-2c-.29-2.26-.52-4.53-.64-6.8-.05-.95-.33-1.55-1.25-1.74-2.16-.46-4.33-.86-6.49-1.35a8.38,8.38,0,0,1-1.53-.76,4.3,4.3,0,0,0-.92-.3c-2.59-.55-5.19-1-7.76-1.65-4.75-1.18-7.9-4.28-9.78-8.68-2.16-5.06-4.2-10.17-6.3-15.25-.08-.2-.19-.4-.28-.59a4.29,4.29,0,0,1,.8-.62c1.93-.92,3.87-1.8,5.81-2.71.5-.24,1.26-.45.92-1.2s-1-.37-1.5-.12l-5.81,2.7c-1.33.63-1.37.79-.52,1.95-.11,4.65-.25,9.3-.3,14-.09,7.34-.12,14.68-.13,22a7.07,7.07,0,0,0,.48,1.66,3.89,3.89,0,0,1,.18.95c.23,4,.44,7.9.68,11.84a1.11,1.11,0,0,1-.91,1.28c-3.37.94-6.73,1.95-10.13,2.78-2.46.6-5,.95-7.45,1.42-.87.16-1.8.16-2.26-.63a1.76,1.76,0,0,1,.61-2.33q3.18-2.43,6.47-4.74a2.73,2.73,0,0,0,1.42-2.16,4.29,4.29,0,0,0-.12-1.29c-.41-1.46-.81-2.93-1.31-4.36-.56-1.59-1.26-3.12-1.84-4.7a116.25,116.25,0,0,1-5.11-21.78,183.83,183.83,0,0,1-1.76-20.82c-.08-2-.34-4-.53-6,2.73,0,5.45.05,8.17,0,10.26-.14,20.56.34,30.72-1.73.7,4,1.37,8,2.1,12,.39,2.14.93,4.25,1.32,6.38a12.74,12.74,0,0,0,6.9,9.13c3.52,1.9,7.23,3.46,10.86,5.16.69.33,1.38.64,2.05,1a4.83,4.83,0,0,1,2.3,3.21Zm-54,15.29c.43,1.31.52,2.95,1.38,3.83a8,8,0,0,1,2,3.35c2.36-.64,4.69-1.24,7-1.92.22-.06.46-.55.45-.83-.08-1.83-.23-3.67-.36-5.52Zm48.62-14.84c.18-1.72.38-3.41.51-5.1a1,1,0,0,0-.43-.84c-1.2-.55-2.44-1-3.56-1.48l-4.12,8.67c1,.19,2,.35,3,.61a1.06,1.06,0,0,0,1.33-.53C294,264.73,295,264,296.54,264.47ZM263.9,239.39c-.16.15-.49.31-.51.5a1,1,0,0,0,.3.82,8.93,8.93,0,0,0,2.1.86c.27.07.64-.29,1-.46-.16-.29-.24-.73-.49-.85C265.56,239.92,264.79,239.71,263.9,239.39Z"/>
            <path class="cls-3"
                  d="M53,92.47c2.33,1.43,4.73,2.77,7,4.33,2.61,1.8,5.1,3.79,7.64,5.7l1.5,1.42c-.1-1.22-.26-2.4-.26-3.58,0-2.5,0-5,.11-7.49,0-.56.22-1.18.94-1,.21,0,.39.73.38,1.12,0,1.92-.3,3.85-.17,5.75.16,2.44.63,4.85,1,7.28.3.56.57,1.14.9,1.68a18.7,18.7,0,0,1,2.92,7.64L80.5,115c-2.55-6.28-2.32-12.67-1.61-18.8l-5-2.24a30.26,30.26,0,0,1-2-2.39c-1.66-2.47-2.53-6.27.09-8.82,1.64-1.1,3.65-1,4.67.69a61,61,0,0,1,3,6.2,24.5,24.5,0,0,0,.53-3.6c.06-3.47,0-6.94,0-10.41A4,4,0,0,0,79,73a4.16,4.16,0,0,0-.17-.63,8.52,8.52,0,0,0-5.64-4.69c-.32-.08-.55-.57-.82-.87.35-.12.75-.42,1-.34a23.21,23.21,0,0,1,2.9,1.13,14.93,14.93,0,0,1,1.47.91l.19-.18-.87-2-.33-.46h0c-.25-.68-.53-1.34-.74-2-.67-2.2-1.31-4.41-2-6.62-.27-.89-.55-1.78-.83-2.67-.15-.36-.27-.74-.45-1.08a10.9,10.9,0,0,0-4.87-4.34c-.26-.13-.37-.58-.54-.88.34-.08.76-.33,1-.21A12.89,12.89,0,0,1,71,49.37a31.5,31.5,0,0,1,2.46,2.2V49.91c.15-3.65.28-7.3.46-10.95A1.54,1.54,0,0,0,73,37.29a13.77,13.77,0,0,0-9.55-3.79c-.39,0-1.07-.33-1.11-.59-.12-.77.6-.85,1.11-.77a24.72,24.72,0,0,1,4.88.9,52.56,52.56,0,0,1,5.51,2.65l-.05-.79c-.27-5.06-1.3-9.9-4.29-14.13a10.8,10.8,0,0,0-4.7-4l1.22-1c2.57,1.38,4.13,3.7,5.64,6.06a22.61,22.61,0,0,1,2.9,7.9l.19.64.27-.36v0l.14-.27h0l.25-.41.23-.38a2.67,2.67,0,0,0,.38-.37,14.32,14.32,0,0,1,5.18-4.38c.32-.18.83,0,1.25,0a9.38,9.38,0,0,1-.61,1.18c-.13.19-.43.26-.65.38a11.27,11.27,0,0,0-5.64,7,11.62,11.62,0,0,0-.44,2c-.15,5-.36,10-.35,15,0,2.63.45,5.26.69,7.88a.65.65,0,0,0,.05.2s.06,0,.09.06c.12-.29.27-.57.37-.86A11.26,11.26,0,0,1,80.24,51c.27-.18.74-.07,1.12-.1A5.11,5.11,0,0,1,81,52.05a2.83,2.83,0,0,1-.72.65A9.43,9.43,0,0,0,77,60.84a6.88,6.88,0,0,0,.12,1.83c1,2.63,2.13,5.21,3.08,7.86a28.75,28.75,0,0,1,1.59,9.91v.69l2-1.86a11.86,11.86,0,0,1,5.1-2.54c.3-.08.7.26,1.06.41a3.39,3.39,0,0,1-.65.79,3.74,3.74,0,0,1-1,.36,11.68,11.68,0,0,0-6.12,4.95,4.43,4.43,0,0,0-.58,1.23c-.52,4.31-1,8.62-1.47,12.94-.22,2.19-.21,4.39-.31,6.59v2.39a2.28,2.28,0,0,0,.63-.87A12.1,12.1,0,0,1,87,99.14c.26-.11.66.1,1,.16a2.7,2.7,0,0,1-.42.94,5.13,5.13,0,0,1-1.12.65,10.84,10.84,0,0,0-5.25,6.62c-1,2.49-.37,4.82.75,7.08a.79.79,0,0,0,.61.26c2.57-.11,5.13-.26,7.73-.4.6-3.46,1.31-6.86-.89-10,.38-.42.75-.87,1.15-1.28a8.57,8.57,0,0,0,2.3-3.6c.72-2.49-.88-4.61-3.46-4.33a21.83,21.83,0,0,0-3.4.89,41.66,41.66,0,0,1,.56-5c.62-2.85,1.46-5.64,2.21-8.46.42-.28.82-.58,1.25-.83a7.84,7.84,0,0,0,3.81-4.9,3,3,0,0,0-2.9-4,22.56,22.56,0,0,0-2.44.22c-.82-2.24-1.6-4.5-2.47-6.73C83.88,61.06,84.78,56,87.4,51.07c1.08-2,3.5-2.73,5.07-1.53a4.53,4.53,0,0,1,1.68,4,36.07,36.07,0,0,1-.7,5,5.89,5.89,0,0,0,2.81,6.69c1.64,1.11,3.35,2.18,4.38,4a5.35,5.35,0,0,1,.48,4.31c-.45,1.56-1.05,3.08-1.53,4.63-.68,2.17-.75,4.28.71,6.21a7.68,7.68,0,0,1,.35,1c.41,1.94.79,3.9,1.2,5.85a11.92,11.92,0,0,1-.84,8.37c-1.65,3-3.51,5.92-5.24,8.9a14.56,14.56,0,0,0-2.1,5.72c1.09,0,2.09,0,3.1,0a1,1,0,0,0,1.17-.82,18.48,18.48,0,0,1,3.79-6.17c1.54-1.69,3.07-3.4,4.49-5.19,1.83-2.31,3.31-4.81,3-7.93a23.78,23.78,0,0,0-.74-3.72,9.93,9.93,0,0,1,1.68-9.15,25,25,0,0,1,1.76-2.07c3.14-3.33,5.87-6.92,7.34-11.32a24,24,0,0,0,1.18-11c-.26-1.93-.81-3.82-1.19-5.74a2.82,2.82,0,0,1,.23-1,9,9,0,0,1,1,.62c.12.09.13.33.18.5A25.7,25.7,0,0,1,121.39,65,27.23,27.23,0,0,1,116,76.42c-1.62,2-3.32,3.85-4.93,5.82a7.36,7.36,0,0,0-1.54,6.43c.22,1.07.46,2.13.69,3.19a10.44,10.44,0,0,1-1,7.9,55.91,55.91,0,0,1-3.82,5.26c-1.58,2-3.3,4-4.84,6A19.69,19.69,0,0,0,99,114.16l7.81-.35,17.64-.7,10.66-.23a11.17,11.17,0,0,0,1.16-.17l.06.34.34,1.14-.44,0q-28.74,1.11-57.5,2.24c-1.42.06-2.95-.26-4.29.64-.12.08-.4-.07-.6-.13a3,3,0,0,0-.79-.22q-7.12.35-14.26.74c-.22,0-.54.1-.63.26-.35.63-.75.49-1.27.23a2.27,2.27,0,0,0-1.1-.27c-2.76.17-5.51.35-8.26.6a1.76,1.76,0,0,0-1.14.74,23,23,0,0,0-3.46,10.1c-.65,7.38-1.18,14.77-1.73,22.16-.59,8-.93,16-1.81,24a60.47,60.47,0,0,1-6.47,22,37,37,0,0,1-9.55,11.73,29.42,29.42,0,0,0-3.54,3.52,2.41,2.41,0,0,0-.48,2.92,2.63,2.63,0,0,0,2.62,1.2c3.84-.2,7.68-.41,11.52-.66,1-.07,1.93-.34,2.9-.41,1.4-.09,1.43-.05,1.41,1.33-.08,5.23-.27,10.46-.23,15.69a34.78,34.78,0,0,0,.74,8.55c2,7.74,7.07,13.2,14.2,16.69,6.39,3.13,13.28,4.16,20.3,4.2,4.82,0,9.65-.39,14.47-.58.33,0,.82,0,.95.23s0,.64-.14,1a7.52,7.52,0,0,0-.41,1.33c-.2,2.38-.48,4.78-.48,7.17,0,4.54.13,9.08.25,13.62.08,3,.25,6,.38,9.08l91.86-3.78c0-.25.07-.39.07-.53-.07-4-.26-8-.2-12,.12-7,.25-14,.63-20.92s1-13.76,1.66-20.63c.57-5.74,1.26-11.48,2.1-17.18a133.49,133.49,0,0,1,5.62-22.44,113.24,113.24,0,0,0,5.72-27.19,121.27,121.27,0,0,0-1.59-28.54c-.2-1.2-.37-2.41-.55-3.61.31.66.58,1.34.94,2a10.15,10.15,0,0,0,.94,1.16,124,124,0,0,1,1.33,32,97.39,97.39,0,0,1-3.76,18.86c-1.75,5.94-3.85,11.79-5.24,17.82-1.46,6.34-2.44,12.82-3.3,19.29s-1.31,12.7-1.88,19.07a329.79,329.79,0,0,0-1.12,39.51c0,1.17.07,2.33.1,3.49,0,.78-.25,1.17-1.13,1.2q-22.36.87-44.75,1.78l-47.25,2c-1.4.05-1.59-.07-1.62-1.51-.19-8.49-.37-17-.48-25.49a52.58,52.58,0,0,1,.47-5.3l-5.09.3a73.35,73.35,0,0,1-19.85-1c-6.53-1.38-12.58-3.91-17.41-8.63a24.71,24.71,0,0,1-7.86-18.5c.07-5.63.26-11.26.4-16.89,0-.39,0-.79,0-1.16-3.08.27-6.07.6-9.07.78a57.28,57.28,0,0,1-6.42,0A3.3,3.3,0,0,1,18.16,213a12.3,12.3,0,0,1,3.22-4c7.26-5.55,11.49-13,14.1-21.58a80.55,80.55,0,0,0,3.32-18.26c.71-10.84,1.3-21.68,2-32.52.15-2.46.46-4.91.7-7.37l2.16-8,.08-.22-.23,0c-1,.48-2,1-2.91,1.46a4.82,4.82,0,0,0-.93.7c-1.19,1-2.31,2.16-3.58,3.08s-3,1.81-4.44,2.75a7.67,7.67,0,0,0-3.55,5.47c-.2,1.26-.49,2.5-.64,3.76-.54,4.29-2.89,6.82-7.13,7.82-2.32.55-4.81,1.1-5.9,3.74-.08.2-.51.25-.78.37-.11-.31-.39-.65-.32-.9a4.3,4.3,0,0,1,2.46-2.9,46.38,46.38,0,0,1,5-1.83c2.46-.74,4.32-2,4.91-4.69.26-1.16.55-2.33.71-3.51.47-3.41,1.48-6.53,4.57-8.51,1.22-.79,2.54-1.4,3.75-2.2s2.36-1.73,3.54-2.6c-1.39-.68-2.6-1.22-3.76-1.83-1.34-.7-2.64-1.47-4-2.21-2.47-.94-4.55,0-6.49,1.41-1.59,1.14-3.09,2.41-4.66,3.58-3.41,2.54-7.18,3.75-11.43,2.85A9.23,9.23,0,0,1,1,121.51c-.33-.75-.13-1.19.64-1.18,3.32,0,5.78-1.72,8.07-3.77,1.86-1.67,3.53-3.55,5.37-5.25a13.28,13.28,0,0,1,8.18-3.9,13.8,13.8,0,0,1,3.46.18,25.14,25.14,0,0,0,11.81-.82,22.54,22.54,0,0,1,6-.86,11,11,0,0,1,7,2.87l1.16.93v0l.24.44v0l.24.24,0,0,.23.24v0l.22.24,0,0,.24.45h0c.29.84.62,1.68.86,2.54A3.84,3.84,0,0,0,58,116.24c3.25-.17,6.51-.34,9.76-.53,1.87-.1,3.74-.24,5.58-.36.15-1-.44-1.36-1.18-1.56-.47-.28-.91-.59-1.4-.82A24.1,24.1,0,0,0,61,110.48c-.35,0-.68-.45-1-.7.33-.22.65-.63,1-.62a26.2,26.2,0,0,1,9.66,2.26c.65.27,1.26.64,2.16,1.11l-.45-1.12-.33-.25,0,0a15.05,15.05,0,0,0-1.16-2.69A36.56,36.56,0,0,0,58.22,97.38,4.81,4.81,0,0,0,57,97.09c-2.47,0-4.94,0-7.4-.07-1.38,0-2.76,0-4.14-.06-.28,0-.54-.43-.8-.66.23-.23.43-.56.71-.67a2.92,2.92,0,0,1,1.07-.06h9.09l-3.89-2.08c-.42-.34-.8-.72-1.25-1a36,36,0,0,1-8.93-7.81,48.42,48.42,0,0,1-3.06-5l1.46-.24a18.13,18.13,0,0,0,4.72,6.79C46.16,87.72,48,89,49.72,90.45l1.08.71c-.06-2.28-.26-4.48-.15-6.67a34.59,34.59,0,0,1,.84-5.12c.06-.29.49-.51.74-.76.13.36.27.71.38,1.07a.91.91,0,0,1-.06.32,28.35,28.35,0,0,0-.18,11.53A3.16,3.16,0,0,0,53,92.47Z"/>
            <path class="cls-4"
                  d="M195,140.24a10.15,10.15,0,0,1-.94-1.16c-.36-.64-.63-1.32-.94-2l-.63-1.51c.66-.15,1.31-.31,2-.44,2.42-.45,3.3-1.51,2.92-3.55,1.67-.82,2.15-2.26,1.33-4.08.66-.64,1.33-1.19,1.23-2.35s-.82-1.63-1.79-1.93c1.06-1.63.69-2.88-.94-2.89-2.78,0-5.57.13-8.35.26-1.47.08-2.93.3-4.39.41-2.65.22-5.3.41-7.95.61a11.63,11.63,0,0,1,1.54-6.52c.29-.52.6-1,.9-1.56l1.53-1.48a.15.15,0,0,1,.15-.06l.28-.12a7.34,7.34,0,0,1,6.3-.55c-.47-2.49-.88-4.7-1.3-6.9l-.62-2.83c-.26-1.09-.49-2.19-.81-3.26s0-1.47,1-1.8a59.2,59.2,0,0,1,11.32-3.06,2.63,2.63,0,0,0,.45-.17c-.24-1.76-.55-3.5-.7-5.25-.33-3.91,2.18-9.76,8-9.54a8.63,8.63,0,0,1,7.85,8.21c0,1,0,2,0,3.13,1-.11,2.13-.16,3.24-.38,3.83-.75,7.67-1.53,11.48-2.37,3.36-.73,4.17-.15,4.69,3.28.29,1.85.78,3.66,1.16,5.5.21,1,.36,2,.58,3.06a1.93,1.93,0,0,0,.28.61,33.57,33.57,0,0,1,5.07-1.51c4.74-.65,9.91,2.72,10.18,7.56a7.33,7.33,0,0,1-2,5.46c-1.92,2.13-4.49,3-7.1,3.79l-.94.27-1.13.2.41,1.39c0,.29.08.57.15.85.91,3.81,1.79,7.62,2.75,11.41.22.88-.09,1.21-.86,1.38-1,.22-2,.43-3,.68-2.64.64-5.26,1.3-7.89,2l-1.26.22-5.12,1c-.76.13-1.36-.34-1.06-.86.94-1.64.61-3.39.53-5.1a8.14,8.14,0,0,0-4.18-7.17c-2-1.15-4.2-1.48-6.18-.12s-2.69,3.69-2.36,6.15c.36,2.65,1.79,4.88,3,7.18.74,1.4.73,1.42-.86,1.81l-15.92,4C195.75,140.12,195.4,140.17,195,140.24Z"/>
            <path class="cls-5"
                  d="M276.43,224.79c-10.16,2.07-20.46,1.59-30.72,1.73-2.72,0-5.44,0-8.17,0-.31-1.24-.73-2.47-.93-3.73q-1.26-7.71-2.41-15.42c-.16-1.07-.11-2.17-.26-3.25a1.26,1.26,0,0,0-.73-.84c-5.25-1.2-10.51-2.35-15.76-3.54-.27-.06-.5-.33-.75-.51l.21-1.39a76.25,76.25,0,0,1,4-14.46l1-.66c1.64.38,3.27.84,4.93,1.12,4.2.69,8.4,1.41,12.62,1.92,3.12.37,6.28.44,9.41.65h1.42a6.15,6.15,0,0,0,1,.19c1.91.1,3.82.11,5.73.26,2.84.23,5.66.55,8.5.84l1.33.16c.24-.59.42-1.14.67-1.65.76-1.57,1.21-1.79,2.91-1.49.35.06.71.07,1.07.1,1.1,6.25,2.3,12.48,3.25,18.76.54,3.52.63,7.12,1,10.68.28,3.16.62,6.32.91,9.49A6.27,6.27,0,0,1,276.43,224.79Z"/>
            <path class="cls-5"
                  d="M185.34,101.61c.21.94.42,1.88.62,2.83l-4.57,5.67-1.52,1.9H172c.36-2.17.77-4.45,1.12-6.73a20.22,20.22,0,0,0,.22-3c0-.22-.37-.56-.63-.64s-.58.31-.62.53c-.2,1.12-.3,2.26-.47,3.39-.29,2-.58,4-1,5.91a1.18,1.18,0,0,1-.88.66c-2.58.09-5.16.1-7.74.17-1.22,0-2.45.08-3.67.21-3.23.34-3.7.12-4.76-2.43-.08-.2-.12-.41-.19-.61-1.2-3.71-2.42-7.42-3.61-11.13-.17-.53-.47-.77-1-.65-.73.15-.41.61-.28,1q2.49,7.17,5,14.34c.15.42.33.78-.21,1l-3.74,1.33-1.1.64-8,2.62c-.25-.23-.66-.41-.74-.7-.72-2.39-1.38-4.79-2.07-7.19s-1.27-4.5-2-6.73c-.11-.31-.64-.49-1-.74-.1.37-.34.77-.27,1.1.23,1,.59,2.07.89,3.11.24.84.45,1.69.69,2.58-1.33,0-1.92-2-3.58-.82l1.43,1.3,2.49,2.19h0a11.17,11.17,0,0,1-1.16.17l-10.66.23c.52-2.25.92-4.54,1.58-6.75,1.6-5.37,3.18-10.76,5-16a13.5,13.5,0,0,1,10-9.23c3-.71,6-1.37,9-2a3.16,3.16,0,0,1,.75,0c-.31,1.52-.68,3-.9,4.57a9.31,9.31,0,0,0,5.91,9.94,6.35,6.35,0,0,0,7.27-2.47,21.74,21.74,0,0,0,1.56-3.22c.42-1,.73-2,1.1-3l5.18,2.23a4.38,4.38,0,0,0,.49.7q6.71,6.74,13.42,13.45A4.91,4.91,0,0,0,185.34,101.61Z"/>
            <path class="cls-6"
                  d="M106.82,113.81l-7.81.35a19.69,19.69,0,0,1,1.56-3.12c1.54-2.06,3.26-4,4.84-6a55.91,55.91,0,0,0,3.82-5.26,10.44,10.44,0,0,0,1-7.9c-.23-1.06-.47-2.12-.69-3.19a7.36,7.36,0,0,1,1.54-6.43c1.61-2,3.31-3.86,4.93-5.82A27.23,27.23,0,0,0,121.39,65a25.7,25.7,0,0,0-.77-13.83c-.05-.17-.06-.41-.18-.5a9,9,0,0,0-1-.62,2.82,2.82,0,0,0-.23,1c.38,1.92.93,3.81,1.19,5.74a24,24,0,0,1-1.18,11c-1.47,4.4-4.2,8-7.34,11.32a25,25,0,0,0-1.76,2.07,9.93,9.93,0,0,0-1.68,9.15,23.78,23.78,0,0,1,.74,3.72c.33,3.12-1.15,5.62-3,7.93-1.42,1.79-3,3.5-4.49,5.19a18.48,18.48,0,0,0-3.79,6.17,1,1,0,0,1-1.17.82c-1-.05-2,0-3.1,0a14.56,14.56,0,0,1,2.1-5.72c1.73-3,3.59-5.88,5.24-8.9a11.92,11.92,0,0,0,.84-8.37c-.41-2-.79-3.91-1.2-5.85a7.68,7.68,0,0,0-.35-1,8,8,0,0,0,.37-1.31c.3-3,2.11-5.16,4.31-7,1.93-1.64,4-3.19,5.83-4.88,2.76-2.47,3.78-5.77,4.07-9.33s.27-6.88.71-10.29c.5-3.83,2.13-7.14,5.71-9.13,2.4-1.34,5.28-.44,5.66,2a11.22,11.22,0,0,1-.59,4.12c-.31,1.25-.85,2.45-1.23,3.69-.5,1.64.1,3.15.65,4.64q1.15,3.16,2.43,6.29c1.79,4.38.42,8-2.67,11.18A33.61,33.61,0,0,0,122,78.45c-1.61,2.37-1,4.84.08,7.24.53,1.19,1.14,2.35,1.66,3.55,1.81,4.18,1.13,8.05-2,11.2a54.71,54.71,0,0,1-7.06,5.59c-2.18,1.55-4.58,2.83-6.24,5A27.26,27.26,0,0,0,106.82,113.81Z"/>
            <path class="cls-6"
                  d="M30.52,119.07c1.32.74,2.62,1.51,4,2.21,1.16.61,2.37,1.15,3.76,1.83-1.18.87-2.32,1.8-3.54,2.6s-2.53,1.41-3.75,2.2c-3.09,2-4.1,5.1-4.57,8.51-.16,1.18-.45,2.35-.71,3.51-.59,2.66-2.45,3.95-4.91,4.69a46.38,46.38,0,0,0-5,1.83,4.3,4.3,0,0,0-2.46,2.9c-.07.25.21.59.32.9.27-.12.7-.17.78-.37,1.09-2.64,3.58-3.19,5.9-3.74,4.24-1,6.59-3.53,7.13-7.82.15-1.26.44-2.5.64-3.76a7.67,7.67,0,0,1,3.55-5.47c1.47-.94,3-1.74,4.44-2.75s2.39-2,3.58-3.08a4.82,4.82,0,0,1,.93-.7c1-.51,1.94-1,2.91-1.46l.15.17-2.16,8c-1.67.4-2.37,1.77-2.86,3.15-.78,2.22-1.22,4.56-2,6.77a51.32,51.32,0,0,1-3.48,8.41,11.75,11.75,0,0,1-9.21,5.84c-2.88.31-5.79.26-8.68.5-2.63.22-5.34.4-7.54,2.06A24.5,24.5,0,0,0,5,159a11.54,11.54,0,0,1-.9.81c-.26-.34-.69-.64-.77-1-1-4.77.43-8.89,3.31-12.71,2.2-2.91,5-5.1,7.76-7.41,3.23-2.74,6.85-5.09,9.24-8.69S28.22,122.71,30.52,119.07Z"/>
            <path class="cls-7"
                  d="M271.39,184.81c-.36,0-.72,0-1.07-.1-1.7-.3-2.15-.08-2.91,1.49-.25.51-.43,1.06-.67,1.65l-1.33-.16a8.68,8.68,0,0,1,2.18-3.95,1.74,1.74,0,0,1,2.2-.52,4.56,4.56,0,0,0,4.44-.6c.46-.31.64-1,.95-1.57a7.82,7.82,0,0,0-1.64-.76c-1.2-.24-2.44-.3-3.64-.54a1.27,1.27,0,0,1-.82-.81,10.59,10.59,0,0,1-.09-2.81c.28-2.1.69-4.18,1-6.26-4-.75-6-3.24-6-7.34a5.49,5.49,0,0,1-5.15-6.75,17.64,17.64,0,0,0-2,1.18c-4.91,3.92-8.49,9-12.18,14a5.47,5.47,0,0,0-.34,6.17,8.25,8.25,0,0,0,5.46,4.46c.84.19,1,.69.86,1.46-.19,1.1-.3,2.22-.45,3.34h-1.42c.16-1.11.31-2.22.43-3.06a32,32,0,0,1-4.46-3.35c-2.57-2.71-3.23-5.89-1.46-9.29a6.32,6.32,0,0,0,.25-.6c.93-.76.78-1.5,0-2.23-1.16-2-2.33-4.08-3.47-6.12-4-7.17-6.78-14.85-9.59-22.52-.74-2-1.5-4-2.25-6l1.26-.22c1,2.74,2.12,5.47,3.14,8.22,2.6,7,5.2,14,8.9,20.52,1.16,2,2.39,4,3.73,6.26a2.74,2.74,0,0,1,.32-.58c3-3.5,6.1-7,9.12-10.52a1.26,1.26,0,0,0,.11-1.11c-4.1-10.37-8.19-20.75-12.41-31.08-1.13-2.76-2.72-5.33-4.1-8l-.41-1.39,1.13-.2c3.49,5.2,5.44,11.09,7.68,16.87,3,7.83,6.22,15.6,9.34,23.4a1.1,1.1,0,0,0,.2.22l1.08-.54a8,8,0,0,0-.52-.68c-2-2.18-1.4-5.26,2-6.1a6,6,0,0,1,6.17,1.51c4.93,5.38,9.68,10.94,12.39,17.85a9.74,9.74,0,0,1-.75,9.28,16.39,16.39,0,0,1-1.71,2,7,7,0,0,1,1.48,1.62c.58,1.25-.42,3-2.09,3.67A16.87,16.87,0,0,1,271.39,184.81ZM259.6,153.57c1.1-.13,2-.18,2.81-.37.33-.07.6-.45.9-.68-.36-.21-.71-.59-1.07-.59a12.54,12.54,0,0,0-2.58.31c-.26,0-.66.47-.63.65S259.45,153.41,259.6,153.57Zm7.34,7.78h0a3.12,3.12,0,0,0,1.07-.1,1,1,0,0,0,.5-.72c0-.19-.32-.59-.49-.59a9.55,9.55,0,0,0-2.13.26c-.18,0-.35.51-.33.77s.38.34.62.41A2.48,2.48,0,0,0,266.94,161.35ZM263.46,157l.09-.25a3.47,3.47,0,0,0,1,0,3,3,0,0,0,.75-.57c-.22-.19-.42-.5-.68-.56a2.72,2.72,0,0,0-1.17,0c-.56.12-1.5-.36-1.49.66C261.93,156.53,262.92,156.76,263.46,157Zm5.49,8.37,1.76-1.09c-.32-.23-.65-.65-.95-.63-.61,0-1.52-.17-1.59.84C268.15,164.73,268.6,165,269,165.37Zm4.54,4c.5-.42,1.08-.67,1.11-1,.08-.82-.64-.67-1.17-.7s-1.15,0-1.08.69C272.39,168.73,273,169,273.49,169.4Z"/>
            <path class="cls-3"
                  d="M170.92,87.07l-5.18-2.23c-.37,1-.68,2-1.1,3a21.74,21.74,0,0,1-1.56,3.22,6.35,6.35,0,0,1-7.27,2.47,9.31,9.31,0,0,1-5.91-9.94c.22-1.53.59-3,.9-4.57.77-2.18,1.54-4.35,2.32-6.53-3.15-1-3.59-2.89-3.37-4.65.24-1.95,1.89-3.14,4.57-3.38a17.06,17.06,0,0,1,2.8-7.65A9.28,9.28,0,0,1,165,52.71a4.94,4.94,0,0,0,3.42-1.22,7,7,0,0,1,7.36-1.18,27.05,27.05,0,0,1,6.11,3,38.13,38.13,0,0,1,8.7,7.68c1.43,1.76,1.58,3.1.39,4.59a3.68,3.68,0,0,1-3.75,1.14c-.88-.15-1.76-.4-2.63-.61-.69,2.77-1.29,5.56-2.07,8.3s-1.64,5.48-2.64,8.15A7.07,7.07,0,0,1,170.92,87.07ZM168.41,57.2c-1.67,1.84-3.23,3.71-5,5.41A67.71,67.71,0,0,1,158,67.4c-1.25,1-2.47.59-3.28-.76A1.38,1.38,0,0,0,154,66a2.48,2.48,0,0,0-2.91,2c-.28,1.81.88,3.07,2.93,3.19.32,0,.8.14.9.36s-.11.64-.23,1-.34.56-.45.86c-.77,2.18-1.65,4.34-2.23,6.58a19.86,19.86,0,0,0-.74,5.46A7.24,7.24,0,0,0,155.52,92a5.27,5.27,0,0,0,7.09-2.77c.8-1.74,1.44-3.55,2.11-5.35.3-.82.7-1,1.47-.53a41.36,41.36,0,0,0,3.89,1.93c4,1.73,7.35.25,8.76-3.93,1-3,2-6.05,2.89-9.11.62-2.14,1-4.34,1.56-6.56A36.76,36.76,0,0,1,168.41,57.2Zm13.41,5c1.3-.21,2.38-.34,3.44-.58.25-.06.42-.48.63-.74-.26-.15-.52-.44-.77-.43a26.85,26.85,0,0,0-3.23.38c-.29,0-.5.48-.74.74Zm4.6,2.19c1-.45,1.77-.79,2.53-1.24.21-.12.22-.57.33-.87a3.94,3.94,0,0,0-1.12-.09c-.59.13-1.13.46-1.72.54s-1.15,0-1.07.7C185.4,63.81,186,64.07,186.42,64.44ZM176.28,55.6v0a7,7,0,0,0-1.51-.07c-.29,0-.52.38-.78.58.24.22.47.61.73.63a23.72,23.72,0,0,0,3,0c.22,0,.42-.38.62-.58-.22-.19-.43-.48-.68-.53A7.46,7.46,0,0,0,176.28,55.6Zm3.32,4,.11-.28a3.87,3.87,0,0,0,1.18,0c.31-.1.53-.44.8-.68-.29-.23-.54-.57-.86-.66a3.16,3.16,0,0,0-1.18.06c-.63.09-1.59-.21-1.5.84C178.18,59.1,179.09,59.31,179.6,59.56Zm-6.88-6.32-.72.94a9.79,9.79,0,0,0,1.43,1c.11.06.47-.36.71-.56Z"/>
            <path class="cls-5"
                  d="M66.05,15.69l-1.22,1a1.07,1.07,0,0,0-.32.06c-4.06,2.39-8.53,2.75-13.08,2.6a5.07,5.07,0,0,1-2.37-.62,3,3,0,0,1,.27-5.19l.58-.29,2.78-.41a4.16,4.16,0,0,1,1.37-4.26c1.84-1.53,3.57-1,5,.39.2-1.35.35-2.64.6-3.9A2.85,2.85,0,0,1,61.9,2.67,2.69,2.69,0,0,1,64.69,4a26.66,26.66,0,0,1,1.46,2.26l1.1-4.06A7.28,7.28,0,0,1,68.83.89c1.81-.76,3.8.81,4,3.08a4.16,4.16,0,0,1-.21,1.6,23.47,23.47,0,0,1-5.42,8.93C66.77,14.89,66.42,15.29,66.05,15.69Z"/>
            <path class="cls-4"
                  d="M39.86,79.37l-1.46.24c-3.95.32-5.87-2.32-7.44-5.28-2.08-3.91-2.08-8.22-2-12.5a2,2,0,0,1,1.19-1.92c1.11-.46,1.76.31,2.49.88.19.22.37.45.57.65,1.08,1.08,1.88,2.19.84,3.78a5.48,5.48,0,0,0-.65,1.83Q32.78,70,32.26,72.9c0,.26.24.57.37.86a5.51,5.51,0,0,0,.88-.61c.12-.13.11-.41.14-.62A41.56,41.56,0,0,1,37.75,60c2.1-.47,2.15,0,3.19,1.92a19.6,19.6,0,0,1,1.75,13.68A5.21,5.21,0,0,1,39.86,79.37Z"/>
            <path class="cls-8"
                  d="M216.91,197.82l-.21,1.39c-3.52-.91-7-2-9.86-4.32a16.26,16.26,0,0,1-5.79-10.06,148.12,148.12,0,0,1-2.62-32.49c.06-1.71.13-3.41.27-5.11a7.34,7.34,0,0,1,.5-2c.55-1.44,1.11-1.75,2.73-1.64.54-1.72,1.85-2.08,3.5-1.89a1.3,1.3,0,0,0,.91-.51,2.17,2.17,0,0,1,2.71-.74c.52.24.87.87,1.3,1.33,1.54-1.26,2.67-.89,3,1.25a44.57,44.57,0,0,1,.49,5.41c.13,4,.09,8,.28,12,.26,5.18.65,10.35,2.62,15.25a14.41,14.41,0,0,0,4.87,6.66,1.59,1.59,0,0,1,.23.36l-1,.66a13.37,13.37,0,0,1-5-6.38c-2.14-4.94-2.78-10.2-3-15.5-.29-5.87-.44-11.76-.66-17.64a8.07,8.07,0,0,0-.3-1.36c-.36.24-.53.45-.57.68-.21,1.53-.36,3.07-.61,4.6-.06.34-.43.63-.65.94-.23-.3-.64-.58-.67-.89-.14-1.56-.22-3.12-.25-4.68,0-.7-.07-1.48-.82-1.53-.36,0-1,.72-1.12,1.22-.23,1-.14,2-.29,3a3.43,3.43,0,0,1-.62,1.09c-.28-.35-.71-.66-.81-1.06-.15-.58,0-1.24-.09-1.84-.06-.38-.29-1-.51-1-.39,0-1.09.18-1.19.46a10.29,10.29,0,0,0-.37,2.38c-.07.6.69,1.52-.33,1.74s-.72-.89-1-1.45a8.47,8.47,0,0,0-.76-1.15c-.31.38-.84.73-.9,1.15-.23,1.54-.33,3.1-.42,4.65A127.52,127.52,0,0,0,200.6,173c.45,3.71,1.06,7.4,1.68,11.08,1.07,6.24,4.37,10.65,10.57,12.59C214.19,197.05,215.56,197.42,216.91,197.82Z"/>
            <path class="cls-9"
                  d="M53,92.47a3.16,3.16,0,0,1-.58-.94A28.35,28.35,0,0,1,52.55,80a.91.91,0,0,0,.06-.32c-.11-.36-.25-.71-.38-1.07-.25.25-.68.47-.74.76a34.59,34.59,0,0,0-.84,5.12c-.11,2.19.09,4.39.15,6.67l-1.08-.71c-.33-1.29-.71-2.57-1-3.87-.6-3.1-1.19-6.21-.56-9.37a8.39,8.39,0,0,1,2.74-5.27,3,3,0,0,1,4.28.75c1.42,1.91,1.2,4.06.69,6.16-.63,2.67-1.54,5.27-2.15,8C53.32,88.65,53.2,90.58,53,92.47Z"/>
            <path class="cls-10"
                  d="M72,82.7c-2.62,2.55-1.75,6.35-.09,8.82a30.26,30.26,0,0,0,2,2.39c-.59,3-1.15,6-1.81,8.9A28.89,28.89,0,0,1,71,106c-.33-2.43-.8-4.84-1-7.28-.13-1.9.14-3.83.17-5.75,0-.39-.17-1.07-.38-1.12-.72-.16-.92.46-.94,1-.06,2.49-.12,5-.11,7.49,0,1.18.16,2.36.26,3.58l-1.5-1.42a16.55,16.55,0,0,0-.3-2.13,39.12,39.12,0,0,1-1-15.15C66.68,82.05,69.13,81,72,82.7Z"/>
            <path class="cls-9"
                  d="M72.29,111.41l.45,1.12c-.9-.47-1.51-.84-2.16-1.11a26.2,26.2,0,0,0-9.66-2.26c-.32,0-.64.4-1,.62.35.25.68.69,1,.7A24.1,24.1,0,0,1,70.8,113c.49.23.93.54,1.4.82-.19,0-.37,0-.55,0-3.73-.3-7.48-.53-11.2-.93a45.88,45.88,0,0,1-5.16-1.07,10.62,10.62,0,0,1-1.46-.59h0l-.24-.45,0,0-.22-.24v0l-.23-.24,0,0L53,110.1v0l-.24-.44v0a6.18,6.18,0,0,0,0-.86c-.31-2.68,1.38-3.9,3.68-3.91,5.1,0,9.8,1.28,13.65,4.89A13.41,13.41,0,0,0,72,111.12l0,0Z"/>
            <path class="cls-9"
                  d="M73.82,34.9l.05.79A52.56,52.56,0,0,0,68.36,33a24.72,24.72,0,0,0-4.88-.9c-.51-.08-1.23,0-1.11.77,0,.26.72.58,1.11.59A13.77,13.77,0,0,1,73,37.29c-3.61-.22-7.23-.29-10.81-.71a5.07,5.07,0,0,1-4.36-3,3.93,3.93,0,0,1,1.43-4.87,8.11,8.11,0,0,1,9.08.55,16.57,16.57,0,0,1,4.8,5A3.89,3.89,0,0,0,73.82,34.9Z"/>
            <path class="cls-9"
                  d="M77,60.84A9.43,9.43,0,0,1,80.3,52.7a2.83,2.83,0,0,0,.72-.65,5.11,5.11,0,0,0,.34-1.11c-.38,0-.85-.08-1.12.1A11.26,11.26,0,0,0,76,56.93c-.1.29-.25.57-.37.86,0,0-.08,0-.09-.06a.65.65,0,0,1-.05-.2c.12-1,.23-1.92.38-2.87a14.61,14.61,0,0,1,5-9.15,2.8,2.8,0,0,1,3.7-.17,3.44,3.44,0,0,1,1.21,3.16c-.38,4.42-3,7.52-6.1,10.29C78.82,59.53,77.89,60.16,77,60.84Z"/>
            <path class="cls-10"
                  d="M51.64,93.49l3.89,2.08H46.44a2.92,2.92,0,0,0-1.07.06c-.28.11-.48.44-.71.67.26.23.52.65.8.66,1.38.08,2.76.05,4.14.06,2.46,0,4.93,0,7.4.07a4.81,4.81,0,0,1,1.22.29,4.56,4.56,0,0,1-1,.74,31,31,0,0,1-10.8,2.09,17.29,17.29,0,0,1-4.91-.64,2.94,2.94,0,0,1-1.65-4.73,5.15,5.15,0,0,1,4-1.71c2.24.09,4.48.26,6.71.38C50.91,93.53,51.28,93.5,51.64,93.49Z"/>
            <path class="cls-11"
                  d="M88.43,73.16a22.56,22.56,0,0,1,2.44-.22,3,3,0,0,1,2.9,4A7.84,7.84,0,0,1,90,81.81c-.43.25-.83.55-1.25.83a18.41,18.41,0,0,1-6.56.6,11.68,11.68,0,0,1,6.12-4.95,3.74,3.74,0,0,0,1-.36,3.39,3.39,0,0,0,.65-.79c-.36-.15-.76-.49-1.06-.41a11.86,11.86,0,0,0-5.1,2.54l-2,1.86v-.69a15.31,15.31,0,0,1,6.16-6.87A3.13,3.13,0,0,0,88.43,73.16Z"/>
            <path class="cls-9"
                  d="M75.59,32.66a11.27,11.27,0,0,1,5.64-7c.22-.12.52-.19.65-.38a9.38,9.38,0,0,0,.61-1.18c-.42,0-.93-.2-1.25,0a14.32,14.32,0,0,0-5.18,4.38,2.67,2.67,0,0,1-.38.37,2.14,2.14,0,0,1,.06-.63,17.67,17.67,0,0,1,5.33-6.89,3.36,3.36,0,0,1,4-.24,4.12,4.12,0,0,1,1.38,4.3,6.14,6.14,0,0,1-2.48,3.32,21.91,21.91,0,0,1-7.69,3.92A3.34,3.34,0,0,1,75.59,32.66Z"/>
            <path class="cls-9"
                  d="M77.09,66.28l.87,2-.19.18a14.93,14.93,0,0,0-1.47-.91,23.21,23.21,0,0,0-2.9-1.13c-.29-.08-.69.22-1,.34.27.3.5.79.82.87a8.52,8.52,0,0,1,5.64,4.69A4.16,4.16,0,0,1,79,73a12.32,12.32,0,0,1-8.08-2.63,9,9,0,0,1-3.18-3.6A2.94,2.94,0,0,1,68,63.42a3.19,3.19,0,0,1,3.15-1c1.78.26,3,1.41,4.34,2.5.4.32.85.58,1.27.87h0Z"/>
            <path class="cls-9"
                  d="M73.44,49.91v1.66A31.5,31.5,0,0,0,71,49.37,12.89,12.89,0,0,0,68.42,48c-.26-.12-.68.13-1,.21.17.3.28.75.54.88a10.9,10.9,0,0,1,4.87,4.34c.18.34.3.72.45,1.08-2.76-1.06-5.59-2-8.26-3.24a3.45,3.45,0,0,1-1.68-4.78,4.12,4.12,0,0,1,5.18-2.12C71.26,45.27,72.36,47.55,73.44,49.91Z"/>
            <path class="cls-12"
                  d="M67.25,2.17l-1.1,4.06A26.66,26.66,0,0,0,64.69,4a2.69,2.69,0,0,0-2.79-1.3,2.85,2.85,0,0,0-2.19,2.44c-.25,1.26-.4,2.55-.6,3.9-1.48-1.41-3.21-1.92-5-.39a4.16,4.16,0,0,0-1.37,4.26l-2.78.41a12.94,12.94,0,0,1,1-3.24c2.74-4.22,6.26-7.51,11.34-8.7A5.48,5.48,0,0,1,67.25,2.17Z"/>
            <path class="cls-3"
                  d="M37.75,60a41.56,41.56,0,0,0-4.1,12.52c0,.21,0,.49-.14.62a5.51,5.51,0,0,1-.88.61c-.13-.29-.42-.6-.37-.86q.52-2.94,1.17-5.85a5.48,5.48,0,0,1,.65-1.83c1-1.59.24-2.7-.84-3.78-.2-.2-.38-.43-.57-.65a12.5,12.5,0,0,1,.48-1.2,1.94,1.94,0,0,1,3-.85A15.07,15.07,0,0,1,37.75,60Z"/>
            <path class="cls-13"
                  d="M259.55,239.39c-.85-1.16-.81-1.32.52-1.95l5.81-2.7c.53-.25,1.18-.61,1.5.12s-.42,1-.92,1.2c-1.94.91-3.88,1.79-5.81,2.71a4.29,4.29,0,0,0-.8.62Z"/>
            <path class="cls-5" d="M243.54,167.86c.81.73,1,1.47,0,2.23Z"/>
            <path class="cls-9" d="M75.05,29.93l-.27.36-.19-.64Z"/>
            <path class="cls-9" d="M75.45,29.22l-.25.41Z"/>
            <path class="cls-9" d="M75.2,29.64l-.14.27Z"/>
            <path class="cls-14"
                  d="M247.92,279.31l10.48-1.09c.13,1.85.28,3.69.36,5.52,0,.28-.23.77-.45.83-2.31.68-4.64,1.28-7,1.92a8,8,0,0,0-2-3.35C248.44,282.26,248.35,280.62,247.92,279.31Z"/>
            <path class="cls-14"
                  d="M296.54,264.47c-1.57-.52-2.54.26-3.31,1.33a1.06,1.06,0,0,1-1.33.53c-1-.26-2-.42-3-.61l4.12-8.67c1.12.46,2.36.93,3.56,1.48a1,1,0,0,1,.43.84C296.92,261.06,296.72,262.75,296.54,264.47Z"/>
            <path class="cls-13"
                  d="M263.9,239.39c.89.32,1.66.53,2.37.87.25.12.33.56.49.85-.33.17-.7.53-1,.46a8.93,8.93,0,0,1-2.1-.86,1,1,0,0,1-.3-.82C263.41,239.7,263.74,239.54,263.9,239.39Z"/>
            <path class="cls-1"
                  d="M192.53,135.59l.63,1.51c.18,1.2.35,2.41.55,3.61a121.27,121.27,0,0,1,1.59,28.54,113.24,113.24,0,0,1-5.72,27.19A133.49,133.49,0,0,0,184,218.88c-.84,5.7-1.53,11.44-2.1,17.18-.67,6.87-1.28,13.75-1.66,20.63s-.51,13.94-.63,20.92c-.06,4,.13,8,.2,12,0,.14,0,.28-.07.53L87.84,293.9c-.13-3.08-.3-6.08-.38-9.08-.12-4.54-.26-9.08-.25-13.62,0-2.39.28-4.79.48-7.17a7.52,7.52,0,0,1,.41-1.33c.09-.33.28-.77.14-1s-.62-.25-.95-.23c-4.82.19-9.65.61-14.47.58-7,0-13.91-1.07-20.3-4.2-7.13-3.49-12.15-8.95-14.2-16.69a34.78,34.78,0,0,1-.74-8.55c0-5.23.15-10.46.23-15.69,0-1.38,0-1.42-1.41-1.33-1,.07-1.93.34-2.9.41-3.84.25-7.68.46-11.52.66a2.63,2.63,0,0,1-2.62-1.2,2.41,2.41,0,0,1,.48-2.92,29.42,29.42,0,0,1,3.54-3.52,37,37,0,0,0,9.55-11.73,60.47,60.47,0,0,0,6.47-22c.88-8,1.22-16,1.81-24,.55-7.39,1.08-14.78,1.73-22.16a23,23,0,0,1,3.46-10.1,1.76,1.76,0,0,1,1.14-.74c2.75-.25,5.5-.43,8.26-.6a2.27,2.27,0,0,1,1.1.27c.52.26.92.4,1.27-.23.09-.16.41-.24.63-.26q7.13-.39,14.26-.74a3,3,0,0,1,.79.22c.2.06.48.21.6.13,1.34-.9,2.87-.58,4.29-.64q28.76-1.17,57.5-2.24l.44,0a22.14,22.14,0,0,0,.63,2.15c.34.84.77,1.64,1.17,2.46.58,1.3,1.15,2.61,1.74,3.92,1,2.13,1.88,4.29,2.95,6.37a14.38,14.38,0,0,0,5.86,6,19.9,19.9,0,0,0,7.71,2.18,79.6,79.6,0,0,0,8.88.25q6.13,0,12.27-.23c2.22-.08,4.44-.3,6.65-.57C187.21,136.42,189.87,136,192.53,135.59ZM62.7,182.66a20.12,20.12,0,0,0,2.68-.39c4.76-1.32,7.83-4.79,10.66-8.54.14-.18,0-.57,0-.87a3.51,3.51,0,0,0-1,.08c-.2.08-.3.39-.48.57a65.64,65.64,0,0,1-5.11,5.17A9.66,9.66,0,0,1,60.75,181a5.26,5.26,0,0,1-3.86-4.11,7.24,7.24,0,0,1,1.77-6.56c.21-.21.11-.73.15-1.1-.36.06-.85,0-1.05.19a8.42,8.42,0,0,0-1.91,8.78C57,181.21,59.45,182.58,62.7,182.66Z"/>
            <path class="cls-0"
                  d="M71,106a28.89,28.89,0,0,0,1.08-3.17c.66-3,1.22-5.93,1.81-8.9l5,2.24c-.71,6.13-.94,12.52,1.61,18.8l-5.65.35a18.7,18.7,0,0,0-2.92-7.64C71.6,107.12,71.33,106.54,71,106Z"/>
            <path class="cls-0"
                  d="M82.15,83.24a18.41,18.41,0,0,0,6.56-.6c-.75,2.82-1.59,5.61-2.21,8.46a41.66,41.66,0,0,0-.56,5c-.26.24-.53.48-.77.73A38.45,38.45,0,0,0,82,100.2a36.56,36.56,0,0,0-2.21,3.8c.1-2.2.09-4.4.31-6.59.42-4.32,1-8.63,1.47-12.94A4.43,4.43,0,0,1,82.15,83.24Z"/>
            <path class="cls-11"
                  d="M79.79,104A36.56,36.56,0,0,1,82,100.2a38.45,38.45,0,0,1,3.17-3.35c.24-.25.51-.49.77-.73a21.83,21.83,0,0,1,3.4-.89c2.58-.28,4.18,1.84,3.46,4.33a8.57,8.57,0,0,1-2.3,3.6c-.4.41-.77.86-1.15,1.28-.35.17-.72.32-1,.51a17.83,17.83,0,0,1-7.15,2.56,10.84,10.84,0,0,1,5.25-6.62,5.13,5.13,0,0,0,1.12-.65,2.7,2.7,0,0,0,.42-.94c-.33-.06-.73-.27-1-.16a12.1,12.1,0,0,0-6.53,6.38,2.28,2.28,0,0,1-.63.87Z"/>
            <path class="cls-0"
                  d="M81.15,107.51A17.83,17.83,0,0,0,88.3,105c.33-.19.7-.34,1-.51,2.2,3.15,1.49,6.55.89,10-2.6.14-5.16.29-7.73.4a.79.79,0,0,1-.61-.26C80.78,112.33,80.2,110,81.15,107.51Z"/>
            <path class="cls-16"
                  d="M53.83,111.21a10.62,10.62,0,0,0,1.46.59,45.88,45.88,0,0,0,5.16,1.07c3.72.4,7.47.63,11.2.93.18,0,.36,0,.55,0,.74.2,1.33.53,1.18,1.56-1.84.12-3.71.26-5.58.36-3.25.19-6.51.36-9.76.53a3.84,3.84,0,0,1-3.35-2.49C54.45,112.89,54.12,112.05,53.83,111.21Z"/>
            <path class="cls-5"
                  d="M138.48,118.8c-.4-.82-.83-1.62-1.17-2.46a22.14,22.14,0,0,1-.63-2.15c-.11-.38-.23-.76-.34-1.14a.47.47,0,0,0,.15-.13c.13.06.34.08.36.16C137.41,115,137.94,116.89,138.48,118.8Z"/>
            <path class="cls-1" d="M77.09,66.28l-.33-.46Z"/>
            <path class="cls-16" d="M53.6,110.76l.24.45Z"/>
            <path class="cls-16" d="M52.73,109.68l.24.44Z"/>
            <path class="cls-6" d="M43.5,121.1l.23,0-.08.22Z"/>
            <path class="cls-5" d="M136.34,113.05l-.06-.34h0l.23.2A.47.47,0,0,1,136.34,113.05Z"/>
            <path class="cls-1" d="M72.29,111.41l-.33-.25Z"/>
            <path class="cls-16" d="M53.4,110.54l.22.24Z"/>
            <path class="cls-16" d="M53,110.1l.24.24Z"/>
            <path class="cls-16" d="M53.18,110.32l.23.24Z"/>
            <path class="cls-17"
                  d="M238.3,116.73c1.38,2.66,3,5.23,4.1,8,4.22,10.33,8.31,20.71,12.41,31.08a1.26,1.26,0,0,1-.11,1.11c-3,3.53-6.08,7-9.12,10.52a2.74,2.74,0,0,0-.32.58c-1.34-2.24-2.57-4.23-3.73-6.26-3.7-6.52-6.3-13.52-8.9-20.52-1-2.75-2.09-5.48-3.14-8.22,2.63-.66,5.25-1.32,7.89-2,1-.25,2-.46,3-.68.77-.17,1.08-.5.86-1.38-1-3.79-1.84-7.6-2.75-11.41C238.38,117.3,238.35,117,238.3,116.73Z"/>
            <path class="cls-18"
                  d="M136.49,112.92l-.23-.2-2.49-2.19-1.43-1.3c1.66-1.18,2.25.82,3.58.82-.24-.89-.45-1.74-.69-2.58-.3-1-.66-2.06-.89-3.11-.07-.33.17-.73.27-1.1.34.25.87.43,1,.74.71,2.23,1.33,4.48,2,6.73s1.35,4.8,2.07,7.19c.08.29.49.47.74.7a35.13,35.13,0,0,0,3.86,9.75,15.07,15.07,0,0,0,8.17,6.73c3,1.08,6.14,1,9.22,1.1,5.36.14,10.73-.07,16.09-.16,1.22,0,2.46-.08,3.67-.23,3.14-.4,6.28-.79,9.39-1.32a44.84,44.84,0,0,0,4.94-1.29c.2-.06.49-.41.46-.58s-.33-.46-.56-.52c-.47-.12-1-.07-1.46-.22-.3-.09-.53-.42-.78-.64.26-.22.5-.59.79-.64a16.8,16.8,0,0,1,1.74,0c1.51-.06,1.94-.58,1.73-2.19-1.12,0-2.26,0-3.39,0-.22,0-.43-.36-.64-.54.24-.25.45-.65.73-.71.77-.16,1.58-.08,2.33-.28.93-.23,2-.48,2.17-1.66-.07-.1-.1-.18-.16-.21-1.43-.86-2.92-.13-4.38-.14-.72,0-1.45.11-2.16.06-.25,0-.47-.41-.7-.63.21-.22.39-.54.65-.65a6.17,6.17,0,0,1,1.15-.23,10.78,10.78,0,0,0,4.55-1.67c-.7,0-1.12-.08-1.53-.07-1.55.06-3.1.14-4.64.23-1.3.07-2.6.12-3.89.24-3.89.34-7.78.83-11.68,1A38.36,38.36,0,0,1,164,122.08c-3.21-.87-6.24-2.08-8.43-4.78-.6-.74-1.23-1.46-1.85-2.19h0l-.48-1.09c.54-.24.36-.6.21-1q-2.5-7.17-5-14.34c-.13-.38-.45-.84.28-1,.56-.12.86.12,1,.65,1.19,3.71,2.41,7.42,3.61,11.13.07.2.11.41.19.61,1.06,2.55,1.53,2.77,4.76,2.43,1.22-.13,2.45-.18,3.67-.21,2.58-.07,5.16-.08,7.74-.17a1.18,1.18,0,0,0,.88-.66c.37-2,.66-3.93,1-5.91.17-1.13.27-2.27.47-3.39,0-.22.47-.57.62-.53s.64.42.63.64a20.22,20.22,0,0,1-.22,3c-.35,2.28-.76,4.56-1.12,6.73h7.91l.66.06L179,113.55c-1.78,0-3.56,0-5.33,0-1.33,0-2.74-.28-2.78,1.76,0,.15-.55.28-.84.42-.11-.28-.33-.57-.31-.84a5.37,5.37,0,0,1,.33-1.16H155.42c.08.65,0,1.24.22,1.59a12.39,12.39,0,0,0,1.92,2.17,16.53,16.53,0,0,0,8.67,3.69,46.94,46.94,0,0,0,5.28.63c1.68.07,3.37-.13,5.05-.21,2.65-.2,5.3-.39,7.95-.61,1.46-.11,2.92-.33,4.39-.41,2.78-.13,5.57-.27,8.35-.26,1.63,0,2,1.26.94,2.89,1,.3,1.68.71,1.79,1.93s-.57,1.71-1.23,2.35c.82,1.82.34,3.26-1.33,4.08.38,2-.5,3.1-2.92,3.55-.66.13-1.31.29-2,.44-2.66.39-5.32.83-8,1.16-2.21.27-4.43.49-6.65.57q-6.13.21-12.27.23a79.6,79.6,0,0,1-8.88-.25,19.9,19.9,0,0,1-7.71-2.18,14.38,14.38,0,0,1-5.86-6c-1.07-2.08-2-4.24-2.95-6.37-.59-1.31-1.16-2.62-1.74-3.92-.54-1.91-1.07-3.81-1.63-5.72C136.83,113,136.62,113,136.49,112.92Z"/>
            <path class="cls-17"
                  d="M176.56,121.63c-1.68.08-3.37.28-5.05.21a46.94,46.94,0,0,1-5.28-.63,16.53,16.53,0,0,1-8.67-3.69,12.39,12.39,0,0,1-1.92-2.17c-.24-.35-.14-.94-.22-1.59h14.65a5.37,5.37,0,0,0-.33,1.16c0,.27.2.56.31.84.29-.14.83-.27.84-.42,0-2,1.45-1.78,2.78-1.76,1.77,0,3.55,0,5.33,0-.3.52-.61,1-.9,1.56A11.63,11.63,0,0,0,176.56,121.63Z"/>
            <path class="cls-15"
                  d="M180.53,112.07l-.66-.06,1.52-1.9,4.57-5.67c.42,2.2.83,4.41,1.3,6.9a7.34,7.34,0,0,0-6.3.55l-.28.12A.15.15,0,0,0,180.53,112.07Z"/>
            <path class="cls-5" d="M180.68,112l.28-.12Z"/>
            <path class="cls-17"
                  d="M216.91,197.82c-1.35-.4-2.72-.77-4.06-1.2-6.2-1.94-9.5-6.35-10.57-12.59-.62-3.68-1.23-7.37-1.68-11.08a127.52,127.52,0,0,1-.72-22.19c.09-1.55.19-3.11.42-4.65.06-.42.59-.77.9-1.15a8.47,8.47,0,0,1,.76,1.15c.25.56-.09,1.68,1,1.45s.26-1.14.33-1.74a10.29,10.29,0,0,1,.37-2.38c.1-.28.8-.51,1.19-.46.22,0,.45.66.51,1,.09.6-.06,1.26.09,1.84.1.4.53.71.81,1.06a3.43,3.43,0,0,0,.62-1.09c.15-1,.06-2,.29-3,.12-.5.76-1.24,1.12-1.22.75.05.8.83.82,1.53,0,1.56.11,3.12.25,4.68,0,.31.44.59.67.89.22-.31.59-.6.65-.94.25-1.53.4-3.07.61-4.6,0-.23.21-.44.57-.68a8.07,8.07,0,0,1,.3,1.36c.22,5.88.37,11.77.66,17.64.26,5.3.9,10.56,3,15.5a13.37,13.37,0,0,0,5,6.38A76.25,76.25,0,0,0,216.91,197.82Z"/>
            <path class="cls-15"
                  d="M250.23,186.4c.15-1.12.26-2.24.45-3.34.13-.77,0-1.27-.86-1.46a8.25,8.25,0,0,1-5.46-4.46,5.47,5.47,0,0,1,.34-6.17c3.69-5,7.27-10.09,12.18-14a17.64,17.64,0,0,1,2-1.18,5.49,5.49,0,0,0,5.15,6.75c.07,4.1,2.06,6.59,6,7.34-.35,2.08-.76,4.16-1,6.26a10.59,10.59,0,0,0,.09,2.81,1.27,1.27,0,0,0,.82.81c1.2.24,2.44.3,3.64.54a7.82,7.82,0,0,1,1.64.76c-.31.54-.49,1.26-.95,1.57a4.56,4.56,0,0,1-4.44.6,1.74,1.74,0,0,0-2.2.52,8.68,8.68,0,0,0-2.18,3.95c-2.84-.29-5.66-.61-8.5-.84-1.91-.15-3.82-.16-5.73-.26A6.15,6.15,0,0,1,250.23,186.4Zm.13-16.68c-.29-.13-.83-.24-.86-.42a1.51,1.51,0,0,1,.37-1,2.69,2.69,0,0,1,.9-.58c1.38-.71,2.78-1.39,4.14-2.15.24-.13.3-.59.45-.9-.31-.09-.7-.35-.91-.25-1.82.89-3.63,1.79-5.38,2.8a2.07,2.07,0,0,0,1.66,3.76c.67-.14,1.32-.36,2-.52s.91-.47.61-1a1.21,1.21,0,0,0-1-.33A12.24,12.24,0,0,0,250.36,169.72Zm2,6.51.69-.63c-.24-.25-.45-.65-.74-.73a5.66,5.66,0,0,1-3.57-2.2c-.12-.18-.54-.15-.81-.21-.06.35-.28.81-.14,1A6.06,6.06,0,0,0,252.37,176.23ZM252,162.5c.55.4.86.81,1.12.78s.79-.52.76-.73a1.36,1.36,0,0,0-.77-.87C252.93,161.62,252.56,162.08,252,162.5Zm9.44,6c-.56-.43-.87-.84-1.18-.85s-.58.42-.88.66c.26.3.48.79.79.87S260.84,168.84,261.45,168.49Z"/>
            <path class="cls-17"
                  d="M153.7,115.11c.62.73,1.25,1.45,1.85,2.19,2.19,2.7,5.22,3.91,8.43,4.78a38.36,38.36,0,0,0,12.07,1.07c3.9-.2,7.79-.69,11.68-1,1.29-.12,2.59-.17,3.89-.24,1.54-.09,3.09-.17,4.64-.23.41,0,.83,0,1.53.07a10.78,10.78,0,0,1-4.55,1.67,6.17,6.17,0,0,0-1.15.23c-.26.11-.44.43-.65.65.23.22.45.61.7.63.71,0,1.44-.07,2.16-.06,1.46,0,2.95-.72,4.38.14.06,0,.09.11.16.21-.22,1.18-1.24,1.43-2.17,1.66-.75.2-1.56.12-2.33.28-.28.06-.49.46-.73.71.21.18.42.53.64.54,1.13.05,2.27,0,3.39,0,.21,1.61-.22,2.13-1.73,2.19a16.8,16.8,0,0,0-1.74,0c-.29.05-.53.42-.79.64.25.22.48.55.78.64.46.15,1,.1,1.46.22.23.06.54.32.56.52s-.26.52-.46.58a44.84,44.84,0,0,1-4.94,1.29c-3.11.53-6.25.92-9.39,1.32-1.21.15-2.45.2-3.67.23-5.36.09-10.73.3-16.09.16-3.08-.07-6.23,0-9.22-1.1a15.07,15.07,0,0,1-8.17-6.73,35.13,35.13,0,0,1-3.86-9.75l8-2.62a2.6,2.6,0,0,0,2.37,2.25C152.59,118.3,153.58,117.24,153.7,115.11Z"/>
            <path class="cls-19"
                  d="M153.7,115.11c-.12,2.13-1.11,3.19-2.93,3.14A2.6,2.6,0,0,1,148.4,116c.36-.22.73-.43,1.1-.64.13.33.19.75.43,1s.86.68,1.24.62a1.47,1.47,0,0,0,1-.94c.18-1,.72-1.13,1.54-.88Z"/>
            <path class="cls-17"
                  d="M153.72,115.12c-.82-.25-1.36-.14-1.54.88a1.47,1.47,0,0,1-1,.94c-.38.06-.9-.31-1.24-.62s-.3-.63-.43-1l3.74-1.33Z"/>
            <path class="cls-13"
                  d="M259.6,153.57c-.15-.16-.51-.39-.57-.68s.37-.6.63-.65a12.54,12.54,0,0,1,2.58-.31c.36,0,.71.38,1.07.59-.3.23-.57.61-.9.68C261.57,153.39,260.7,153.44,259.6,153.57Z"/>
            <path class="cls-13"
                  d="M266.94,161.35a2.48,2.48,0,0,1-.76,0c-.24-.07-.61-.25-.62-.41s.15-.72.33-.77A9.55,9.55,0,0,1,268,160c.17,0,.51.4.49.59a1,1,0,0,1-.5.72,3.12,3.12,0,0,1-1.07.1Z"/>
            <path class="cls-13"
                  d="M263.46,157c-.54-.24-1.53-.47-1.53-.71,0-1,.93-.54,1.49-.66a2.72,2.72,0,0,1,1.17,0c.26.06.46.37.68.56a3,3,0,0,1-.75.57,3.47,3.47,0,0,1-1,0Z"/>
            <path class="cls-13" d="M269,165.37c-.35-.38-.8-.64-.78-.88.07-1,1-.79,1.59-.84.3,0,.63.4.95.63Z"/>
            <path class="cls-13"
                  d="M273.49,169.4c-.51-.42-1.1-.67-1.14-1-.07-.67.54-.72,1.08-.69s1.25-.12,1.17.7C274.57,168.73,274,169,273.49,169.4Z"/>
            <path class="cls-17"
                  d="M168.41,57.2a36.76,36.76,0,0,0,14.88,8.5c-.52,2.22-.94,4.42-1.56,6.56-.88,3.06-1.87,6.09-2.89,9.11-1.41,4.18-4.72,5.66-8.76,3.93a41.36,41.36,0,0,1-3.89-1.93c-.77-.42-1.17-.29-1.47.53-.67,1.8-1.31,3.61-2.11,5.35A5.27,5.27,0,0,1,155.52,92a7.24,7.24,0,0,1-4.22-6.62,19.86,19.86,0,0,1,.74-5.46c.58-2.24,1.46-4.4,2.23-6.58.11-.3.33-.56.45-.86s.34-.72.23-1-.58-.34-.9-.36c-2.05-.12-3.21-1.38-2.93-3.19A2.48,2.48,0,0,1,154,66a1.38,1.38,0,0,1,.65.62c.81,1.35,2,1.74,3.28.76a67.71,67.71,0,0,0,5.49-4.79C165.18,60.91,166.74,59,168.41,57.2Zm10.91,19.28c-.33-1.93-.6-3.68-1-5.41-.07-.36-.49-.94-.72-.93-.72,0-.6.65-.52,1.16.25,1.57.57,3.14.71,4.72,0,.51-.36,1.06-.57,1.59a8.52,8.52,0,0,1-1.07-1.19c-.31-.52-.42-1.15-.71-1.69a.9.9,0,0,0-.71-.32.67.67,0,0,0-.38.53,5.65,5.65,0,0,0,1.73,3.75,1.7,1.7,0,0,0,2.42-.38A10.58,10.58,0,0,0,179.32,76.48Zm-4.54,4.85.65-.53c-.23-.25-.45-.72-.67-.72-1.64,0-2.82-.88-4-1.81-.22-.17-.66-.07-1-.1,0,.33,0,.76.13,1A6.34,6.34,0,0,0,174.78,81.33Zm-3-12c.41-.55.89-.92.83-1.15s-.56-.61-.86-.91c-.27.29-.71.56-.74.88S171.35,68.74,171.74,69.29Zm8.86.16c-.36.62-.75,1-.7,1.29a1.13,1.13,0,0,0,.82.74c.29,0,.8-.51.78-.77S181.05,70,180.6,69.45Z"/>
            <path class="cls-13"
                  d="M181.82,62.25l-.67-.63c.24-.26.45-.69.74-.74a26.85,26.85,0,0,1,3.23-.38c.25,0,.51.28.77.43-.21.26-.38.68-.63.74C184.2,61.91,183.12,62,181.82,62.25Z"/>
            <path class="cls-13"
                  d="M186.42,64.44c-.43-.37-1-.63-1-1-.08-.66.55-.62,1.07-.7s1.13-.41,1.72-.54a3.94,3.94,0,0,1,1.12.09c-.11.3-.12.75-.33.87C188.19,63.65,187.37,64,186.42,64.44Z"/>
            <path class="cls-16"
                  d="M176.28,55.6a7.46,7.46,0,0,1,1.42,0c.25.05.46.34.68.53-.2.2-.4.56-.62.58a23.72,23.72,0,0,1-3,0c-.26,0-.49-.41-.73-.63.26-.2.49-.54.78-.58a7,7,0,0,1,1.51.07Z"/>
            <path class="cls-16"
                  d="M179.6,59.56c-.51-.25-1.42-.46-1.45-.75-.09-1.05.87-.75,1.5-.84a3.16,3.16,0,0,1,1.18-.06c.32.09.57.43.86.66-.27.24-.49.58-.8.68a3.87,3.87,0,0,1-1.18,0Z"/>
            <path class="cls-13" d="M172.72,53.24l1.42,1.36c-.24.2-.6.62-.71.56a9.79,9.79,0,0,1-1.43-1Z"/>
            <path class="cls-8"
                  d="M62.7,182.66c-3.25-.08-5.68-1.45-6.85-4.5a8.42,8.42,0,0,1,1.91-8.78c.2-.2.69-.13,1.05-.19,0,.37.06.89-.15,1.1a7.24,7.24,0,0,0-1.77,6.56A5.26,5.26,0,0,0,60.75,181a9.66,9.66,0,0,0,8.72-2.28,65.64,65.64,0,0,0,5.11-5.17c.18-.18.28-.49.48-.57a3.51,3.51,0,0,1,1-.08c0,.3.14.69,0,.87-2.83,3.75-5.9,7.22-10.66,8.54A20.12,20.12,0,0,1,62.7,182.66Z"/>
            <path class="cls-8"
                  d="M250.36,169.72a12.24,12.24,0,0,1,1.93-.62,1.21,1.21,0,0,1,1,.33c.3.53-.07.86-.61,1s-1.32.38-2,.52a2.07,2.07,0,0,1-1.66-3.76c1.75-1,3.56-1.91,5.38-2.8.21-.1.6.16.91.25-.15.31-.21.77-.45.9-1.36.76-2.76,1.44-4.14,2.15a2.69,2.69,0,0,0-.9.58,1.51,1.51,0,0,0-.37,1C249.53,169.48,250.07,169.59,250.36,169.72Z"/>
            <path class="cls-8"
                  d="M252.37,176.23a6.06,6.06,0,0,1-4.57-2.74c-.14-.22.08-.68.14-1,.27.06.69,0,.81.21a5.66,5.66,0,0,0,3.57,2.2c.29.08.5.48.74.73Z"/>
            <path class="cls-19"
                  d="M252,162.5c.55-.42.92-.88,1.11-.82a1.36,1.36,0,0,1,.77.87c0,.21-.46.69-.76.73S252.56,162.9,252,162.5Z"/>
            <path class="cls-8"
                  d="M261.45,168.49c-.61.35-1,.75-1.27.68s-.53-.57-.79-.87c.3-.24.6-.66.88-.66S260.89,168.06,261.45,168.49Z"/>
            <path class="cls-19"
                  d="M179.32,76.48a10.58,10.58,0,0,1-.78,1.83,1.7,1.7,0,0,1-2.42.38,5.65,5.65,0,0,1-1.73-3.75.67.67,0,0,1,.38-.53.9.9,0,0,1,.71.32c.29.54.4,1.17.71,1.69a8.52,8.52,0,0,0,1.07,1.19c.21-.53.62-1.08.57-1.59-.14-1.58-.46-3.15-.71-4.72-.08-.51-.2-1.13.52-1.16.23,0,.65.57.72.93C178.72,72.8,179,74.55,179.32,76.48Z"/>
            <path class="cls-19"
                  d="M174.78,81.33a6.34,6.34,0,0,1-4.92-2.21c-.18-.19-.09-.62-.13-1,.34,0,.78-.07,1,.1,1.21.93,2.39,1.84,4,1.81.22,0,.44.47.67.72Z"/>
            <path class="cls-19"
                  d="M171.74,69.29c-.39-.55-.8-.89-.77-1.18s.47-.59.74-.88c.3.3.77.55.86.91S172.15,68.74,171.74,69.29Z"/>
            <path class="cls-19"
                  d="M180.6,69.45c.45.59.88.91.9,1.26s-.49.76-.78.77a1.13,1.13,0,0,1-.82-.74C179.85,70.44,180.24,70.07,180.6,69.45Z"/>
        </g>
    </g>
</svg>