<svg xmlns="http://www.w3.org/2000/svg" viewBox="0 0 395 395">
    <defs>
        <style>
            .cls-1{fill:#332c27;}.cls-2{fill:#332c27;}.cls-3{fill:none;stroke:#332c27;stroke-miterlimit:10;stroke-width:5px;}
        </style>
    </defs>
    <g id="Capa_2" data-name="Capa 2">
        <g id="OBJECTS">
            <path class="cls-1"
                  d="M130.3,218.77c15.55,4,33.55-.15,46.9,8.81a38.13,38.13,0,0,1,10.4,11.13v21c-9.61,5.13-22.44,4.73-33.17,3.1-16.89-2.57-33.53-6.67-50.62-7.82C88.5,254,72,255.93,58,262.43a3.31,3.31,0,0,0-.8-.64,56.59,56.59,0,0,0-34.67-6.5c-3.78.5-3.83,6.51,0,6a51.23,51.23,0,0,1,29.21,4.46,54.59,54.59,0,0,0-19.32,19.43c-1.94,3.34,3.24,6.37,5.18,3,16.56-28.53,53.49-29.79,82.35-25.34,3.93.6,8.33,1.49,13,2.45,2.91,2.75,7,4.32,10.9,5.46a75.4,75.4,0,0,0,20.49,3.15,121.28,121.28,0,0,1-14.61,1.18c-9.18-.41-18.35-1.14-27.52-.4-5.67-.09-11.24,0-16.61.39a91.17,91.17,0,0,0-38.5,11.67,90,90,0,0,0-15.83,11.62c-4.18,3.84-9.8,8.65-11,14.44-.81,3.76,5,5.37,5.79,1.59,1.28-5.93,9.14-11.74,13.69-15.38a83.33,83.33,0,0,1,17.42-10.71,80.51,80.51,0,0,1,20.54-6.12A50.87,50.87,0,0,0,84.2,294.6a128.49,128.49,0,0,0-21.12,41.94c-1.1,3.71,4.68,5.3,5.78,1.6,4.74-16,12.55-32.43,24.08-44.68,8.16-8.66,18.92-11.86,30.15-12.79,5.23.07,10.55.22,15.89.28,8.67,4.81,20.29.46,29.72,4.06.52.2,1,.42,1.57.6-4.77,3.35-9.76,6.43-14.7,9.45-3.29,2-.28,7.21,3,5.18,11.63-7.12,23.38-14.59,32.36-24.81,0,4.27,1.6,8.38,2.13,12.62a33.72,33.72,0,0,1,.22,3.76c0,.1-.08.21-.11.31-.12.34-.26.66-.39,1a44.37,44.37,0,0,1-5.43,8.63c-4,4.14-9.4,6.57-15.95,7.58-5,.76-11,1.59-15.77-.45-4.22-1.83-7.75-5-11.82-7.17-8.14-4.27-17.36-6.24-26.26-3.34-3.66,1.19-2.09,7,1.59,5.79,6-1.94,12-1.32,17.74.93a51.29,51.29,0,0,1,9.32,5.26,23.36,23.36,0,0,0-4.67,1.19c-5.85,2.19-10.44,6.39-15.2,10.29a36.94,36.94,0,0,1-10.07,6.4c-3.81,1.45-7.92,1.94-11.86,2.93-6.53,1.64-12.34,4.69-16.44,10.16-3,4-6.67,10.5-2.81,14.92,2.55,2.91,6.78-1.34,4.24-4.24-1.31-1.51,4.29-8.32,5.27-9.29,3.17-3.14,7.06-4.69,11.34-5.76,6.81-1.71,13.37-2.72,19.28-6.79,5.26-3.62,9.66-8.48,15.27-11.59,6.83-3.79,14.59-2.84,22-2.3a65.07,65.07,0,0,0,10,.16c-3.1,2.11-6.25,4.12-9.3,6.12-19.39,12.74-40.82,28.51-41.85,53.92-.15,3.86,5.85,3.86,6,0,1.16-28.51,30.63-42.35,50.79-56.77,9.06-6.48,17.17-13.94,21.43-24.47.22-.54.42-1.09.62-1.64a1,1,0,0,0,.39.18c-.66,2.19-1.33,4.38-1.94,6.57a84.24,84.24,0,0,0-3.16,17.59c-.42,6.92.13,14-1.72,20.77-6,22-36.11,24-43.78,45.3-1.32,3.64,4.48,5.21,5.78,1.6,4.09-11.35,16.88-16.93,26.14-23.38l0,0a22.2,22.2,0,0,0,.52,4.71c1.65,8,2.79,14.39-1.19,22-1.79,3.42,3.39,6.46,5.18,3a31.21,31.21,0,0,0,3.83-15.56c-.17-5.51-5-14.17-.73-18.8a2.89,2.89,0,0,0,.8-2.26,33.32,33.32,0,0,0,9.62-16.67,69.28,69.28,0,0,0,1.27-12.85,34.76,34.76,0,0,0,3.87,6.82c3.48,4.81,8.18,7.82,13.26,10.27a1.17,1.17,0,0,1,.05.11c5.09,10.09-2.77,20.47-6.63,29.51-1.51,3.52-6.87,17.59,0,18.82,3.4.6,5-4,2.57-5.43.59,0,.71-.56.34-1.82a23.67,23.67,0,0,1,.85-4.5,46.56,46.56,0,0,1,3.06-7.68c1.67-3.49,3.53-6.88,5-10.48a28.34,28.34,0,0,0,2-15.37,104,104,0,0,1,10.5,4.79,70.65,70.65,0,0,1,10.25,6.94,42.86,42.86,0,0,0-4,13.74c-.36,3.42-1,9.55.91,12.82a2.15,2.15,0,0,0,.46.65c1.29,1.51,4,2,5-.16l.11-.22a3.2,3.2,0,0,0-.62-3.82c-.93-2.74-.12-7.85.21-10.08a35.11,35.11,0,0,1,2.59-8.75A73.4,73.4,0,0,1,262,375.41a2.71,2.71,0,0,0,.59,1.47l1.51,2c2.25,3,7.11.43,5.18-3a78.71,78.71,0,0,0-22.93-25.7,77,77,0,0,0-14.89-8.24c-6.4-2.7-13.42-4.82-18.63-9.63-10.36-9.58-9-25.55-5.77-37.84v0c.86-1.31,1.78-2.59,2.69-3.87,3.21-4.47,6.35-9.14,7.77-14.46a21,21,0,0,0,.62-3.45l.79-.13c3.33,7.27,4.2,15.4,4.59,24.2.48,10.77,1.87,21.73,9.58,29.9,2.65,2.81,6.89-1.44,4.24-4.25-9.31-9.86-7.15-24.43-8.48-36.83a50.74,50.74,0,0,0-1-6.12c4,3.6,8.07,7.08,11,11.66,3.48,5.49,5.35,11.8,7.51,17.87,7.55,21.2,22.45,38.58,43,48.08,3.48,1.61,6.53-3.56,3-5.18a76.79,76.79,0,0,1-26.21-19.66c-7.51-8.73-11.88-18.69-15.66-29.45-3.64-10.33-8.29-18.4-16.45-25.8-3.66-3.32-7.53-6.59-10.23-10.76,3.43.79,6.94,1.34,10.44,1.9l3.13.8c5.39,1.37,10.88,2.72,15.93,5.13a33.8,33.8,0,0,1,6.67,4.25,55,55,0,0,1,7.87,11.05c6.25,10.91,10.63,22.72,17.74,33.16a117.24,117.24,0,0,0,24.72,26.36c3,2.36,7.28-1.86,4.24-4.24A112.69,112.69,0,0,1,288.56,316,186.09,186.09,0,0,1,279,297.7l.37.29c5.08,3.72,11.08,5.66,17.11,7.19,6.6,1.67,13.31,3,19.39,6.17a46.5,46.5,0,0,1,15.42,13.15c2.3,3.05,7.51.06,5.18-3a53.75,53.75,0,0,0-28.74-19.67c-6.58-1.86-13.54-2.81-19.8-5.7s-10.76-8.15-15.19-13.41a60.22,60.22,0,0,0-8.52-8.41,39,39,0,0,0-19.77-10.46c-1-.23-2.1-.43-3.16-.62,1.15-.15,2.3-.28,3.43-.37,15.25-1.17,30.11,1.54,45,4.61a37.93,37.93,0,0,0,16.28.33c4.57,7.19,13,9.25,20.33,13,9.56,4.92,15.12,16.27,21.06,24.83,2.19,3.15,7.39.15,5.18-3-5.52-7.94-10.64-17.8-18.32-23.88-6.62-5.23-16.74-6.3-22.17-12.82,5.09-1.84,10.05-4,15.52-4.62a42.07,42.07,0,0,1,34.65,12.62c2.69,2.78,6.93-1.46,4.24-4.24a48.08,48.08,0,0,0-29.9-14.39,45.78,45.78,0,0,0-17.15,1.58c-7.22,2.1-13.91,6.15-21.66,5.76s-15.46-3-23.1-4.18a143,143,0,0,0-21.47-1.89,115.78,115.78,0,0,0-20.77,2c-2,.36-4.09.73-6.15,1-1.47-.54-2.92-1.13-4.33-1.79-.27-2.2-.59-4.4-.89-6.59V231.22c1.62-4.43,3.64-8.68,6.84-12.1,8.36-8.93,21.94-9.72,34.08-11.17a180.37,180.37,0,0,0,50.16-13.53c7.32-3.17,15.61-6.87,22.91-3.64,4.29,1.89,7.25,5.84,10.05,9.61,3.61,4.86,7.64,10,14.36,10.37a7.69,7.69,0,0,0,7.78-5.12,2.67,2.67,0,0,0,.15-1.42c-.29-1.49-2.11-2-3.59-2.36A25.5,25.5,0,0,1,346.13,186a2.42,2.42,0,0,1-.19-1.37,2.28,2.28,0,0,1,1.12-1.25c4.67-2.92,10.64-2.08,16.12-2.66s11.78-4.17,11.29-9.65c-11.14,5.45-25.81-2.05-36.4,4.42-4.36,2.65-8.51,7.67-13.38,6.11.37-11.16,10.19-19.23,17.56-27.62a76.64,76.64,0,0,0,18.21-39.83,2,2,0,0,0-.88-2c-1.15-.68-2.17.33-2.81,1.27-3.14,4.6-4.45,10.16-6.52,15.32a54.06,54.06,0,0,1-13.84,19.88c-6,5.39-13.25,9.6-17.48,16.44-2.77,4.49-4,9.81-6.94,14.2-4.37,6.55-11.88,10.18-19,13.5-1.23.58-2.67,1.16-3.86.07a3.32,3.32,0,0,1-1-2.58c.2-7.45,6.29-14.76,3.61-21.74-7.19,3.21-8.82,12.46-13.07,19.08a24.6,24.6,0,0,1-12.64,9.9c-6.65,2.27-13.89,1.57-20.91,1.41s-14,.32-20.17,3.34c3.3-8.52,8.47-16.34,15.76-21.78,5.34-4,11.6-6.56,17.25-10.12,9.75-6.13,17.43-15,26.53-22.09,15.7-12.2,35.57-19,49.13-33.5a59.27,59.27,0,0,0,13.46-23.69c-12.2,15.91-27.24,31.11-46.64,36.17a173.67,173.67,0,0,1,16-24.06c4.38-5.53,9.16-10.88,12.17-17.27s4-14.19.63-20.4c-3.75,16.58-19,27.64-28.43,41.74-4.51,6.72-7.79,14.28-13,20.43-6.84,8-16.47,13-25.33,18.8-9.31,6-17.94,13.05-26.47,20.15a72,72,0,0,0-.18-14q-.41-5-.79-9.93a14.08,14.08,0,0,0-1-4.86,4.76,4.76,0,0,0-3.75-2.92,207.78,207.78,0,0,1-6.09,28.68c-1.41,4.92-3,10-2.08,15a86.18,86.18,0,0,0-7.92,8.57c-6.9-17.7-6.11-37.68-3.73-56.84,3-8.68,8.29-16.37,16.12-21,.33-.2.67-.37,1-.55,1.65,2.43,5.36,3.44,8.51,3.89,11.32,1.64,23.12,2.8,34-.79,5.52-1.83,11.27-5.87,11.44-11.69-8.4,1.69-17.83,2.11-25.22-1.73A29.5,29.5,0,0,0,261.72,95c4.7-3.78,8-9.12,12.77-12.8,8.93-6.88,22.38-7.54,29-16.67,4.79-6.61,4.34-15.55,3.39-23.66l-.14-.18L297.19,54a10.92,10.92,0,0,1-3.53,3.34,14.54,14.54,0,0,1-4.55,1c-7.58,1-14,6.12-19.08,11.83-5.65,6.34-10.16,13.68-16.55,19.33a6.84,6.84,0,0,1-5,1.79c-3.41-.28-4.31-3-4.49-5.47-.55-7.28,3.71-14.06,8.53-19.55s10.47-10.44,13.76-17,3.48-15.4-1.94-20.29c-.87-.79-1.93-1.48-3.43-.61a4.62,4.62,0,0,0-2.1,3.44c-2.22,17.09-14.64,30.54-26.48,42.88L212.09,95.73c-.07-.31-.13-.61-.2-.91-1.23-4.75-3.32-9.33-3.69-14.22-.6-7.91,3.39-15.51,8.51-21.57s11.39-11,16.66-17S243,28.82,243,20.9a96.42,96.42,0,0,0-29.24,35c-2-2.55-1.39-6.21-.9-9.43.74-4.94.86-10.07-.62-14.84s-4.72-9.16-9.29-11.16c4.09,7.76,3.62,17.2,1.3,25.67-1.84,6.71-4.74,13.06-7.29,19.54a17,17,0,0,0-4-4.74c-3.4-2.74-7.87-4.19-10.62-7.58-3.81-4.71-3.11-11.52-2.06-17.5s2.14-12.62-1.17-17.7c.72,9.74-7.47,18.52-6.62,28.25.18,2.06.54,4.65-1.22,5.74a4.84,4.84,0,0,1-2.2.51c-3.59.22-7.5.23-10.37-1.93-1.86-1.4-3-3.51-4.34-5.44-7.63-11.1-22.9-16.27-35.7-12.08a35.19,35.19,0,0,1,19.6,12.1c3.27,4,5.65,8.78,9.43,12.32C158.54,67.79,177.43,65,188.1,75.4c1.34,1.31,3.16,2.89,4.81,2.9-1.34,6.09-1.64,12.37.15,18.29a28.4,28.4,0,0,0,2.25,5.33c0,2,0,4-.19,5.88A112.42,112.42,0,0,1,193,119.87c-.18.94-.34,1.88-.49,2.82a59.66,59.66,0,0,0-2.13,7.09,30.23,30.23,0,0,1-14.76-18.45c-1.46-5.41-1.38-11.15-3-16.51s-5.72-10.64-11.31-11l-1.09.35c3.69,2.11,5.53,6.52,5.82,10.76s-.7,8.44-1.37,12.64a59.58,59.58,0,0,0-.68,6.1,48,48,0,0,1-4.29-4.39c-6-7.12-9-16.29-13.89-24.25a58.11,58.11,0,0,0-18.4-18.68c-2.77-1.76-5.73-3.31-8.07-5.61s-4-5.59-3.42-8.81a19,19,0,0,0,2.46,17.62c3,4.09,7.53,6.75,11.58,9.83a63,63,0,0,1,19,23.51c2.18,4.68,3.82,9.69,7,13.78a25.94,25.94,0,0,0,4.36,4.34q6.26,11.53,13.59,22.42a48.33,48.33,0,0,0,4.9,6.14c2.26,2.39,5,4.7,8.23,5.52.31.08.63.14,1,.19,0,2.57,0,5.14,0,7.68l.21,23.58a112.09,112.09,0,0,1-8.21-11.41c-2.62-4.21-5-8.59-7.82-12.66a128,128,0,0,0-10.29-12.39c-5.54-6.14-11.14-12.32-17.8-17.22-3.7-2.72-7.7-5-11.29-7.89-12.77-10.2-19.08-26.26-27.45-40.43A68.19,68.19,0,0,0,94.77,70.07l-.6-.63a67.53,67.53,0,0,0-11.7-9.63,16.74,16.74,0,0,0,.92,11.13c2.93,5.92,10,8.82,13.16,14.63,2.48,4.58,2.08,10.21,4,15.08,2.28,6,7.64,10.08,12.56,14.15a6.75,6.75,0,0,1,2.44,3,2.71,2.71,0,0,1-.35,2.27,2.14,2.14,0,0,1-2.33.77,39.34,39.34,0,0,1-19.07-7.77c-8.26-6.33-13.61-15.62-20.22-23.65-3.78-4.6-9.62-9.21-15.12-6.92,7.81,9.69,15.64,19.41,22.34,29.9,2.61,4.1,5.11,8.38,8.71,11.64,7.33,6.63,17.83,8,27.53,9.89,5.78,1.14,11.59,2.63,16.67,5.62,4.11,2.42,7.61,5.74,11.07,9L158,161.18c2.39,2.27,4.82,4.59,6.32,7.53s1.91,6.63.2,9.45L148,170.72c-5.66-2.56-11.37-5.14-16.39-8.8a90.11,90.11,0,0,1-10.14-9.11C119,160.66,125,168.89,132.16,173s15.53,5.51,22.87,9.23C164.64,187,172,195.52,181.26,201a15.36,15.36,0,0,0,6.64,2.4h0c-.06,3.34-.13,6.69-.17,10h-.15v.77c-4-2.45-9-3.64-13.67-4.44a157,157,0,0,0-19.22-2.05c-7.19-.32-14.44-.15-21.5-1.54s-14.07-4.57-18.43-10.29c-4.07-5.35-5.41-12.32-9.08-18-4.49-6.9-12.39-11.73-14.64-19.66-1.74-6.13.34-12.93-1.69-19-3.68.54-5.59,4.79-5.8,8.51s.57,7.58-.7,11.08a4.25,4.25,0,0,1-1.73,2.36,4.72,4.72,0,0,1-3.09.25,18.7,18.7,0,0,1-14.4-12.93c-1.3-4.48-.84-9.3-1.83-13.86-2.3-10.56-11.79-17.89-21.15-23.3-1-.56-2.07-1.14-3.26-.39a2.75,2.75,0,0,0-1.08,3c.59,2.3,2.73,3.37,4.59,4.56A25.78,25.78,0,0,1,51.86,133.5c.47,1.77.73,3.79-1.11,5.13a4.48,4.48,0,0,1-3,.78c-2.63-.22-4.62-1.95-6.81-3.23a19.39,19.39,0,0,0-11.22-2.56c-1,1.86.86,4,2.64,5.14,6,3.93,13,6.43,17.94,11.63,3.93,4.16,6.15,9.74,10.24,13.74,6.23,6.08,15.71,7.55,22.56,12.92,4.54,3.56,7.63,8.6,10.95,13.32.8,1.14,1.63,2.27,2.48,3.39a52.68,52.68,0,0,0-11.14.33c-8.48.77-17.29.34-25.09-3.07-7.57-3.3-13.68-9.16-20.55-13.74s-15.44-8-23.3-5.43c4.29,6.1,14.43,7.69,15.88,15a16.34,16.34,0,0,0-14.27,5.85c-.46.57-.92,1.24-.44,2.08a2.23,2.23,0,0,0,2.08,1c8.09-.49,16.47-1.74,24.21.73,7.2,2.3,13.3,7.66,20.75,8.91,7.16,1.21,14.34-1.58,21.59-2A33.54,33.54,0,0,1,108,209.93c-5.6,8.15-16.07,11.11-25.73,13.2,2.34,3.31,6.93,4,11,4A51.2,51.2,0,0,0,119,219.69h0a9.1,9.1,0,0,1,5.43-1.34Z"/>
            <path class="cls-2"
                  d="M240.82,153.64c-2.57-3.38-3-8.09-1.72-12.15a24.88,24.88,0,0,1,7-10.48c2.67,1.93,4.17,5.09,5.21,8.22a14.88,14.88,0,0,1,.94,6.52c-.54,4.19-4.07,7.52-8,9a3.82,3.82,0,0,1-1.85.32,1.57,1.57,0,0,1-1.37-1.13"/>
            <path class="cls-2"
                  d="M254.37,195.77c-1.42-4-.37-8.61,2-12.1a25,25,0,0,1,9.84-7.87c2,2.65,2.44,6.11,2.48,9.41a15.07,15.07,0,0,1-1.07,6.5c-1.79,3.82-6.16,5.93-10.37,6.13a3.89,3.89,0,0,1-1.86-.25,1.57,1.57,0,0,1-1-1.5"/>
            <path class="cls-2"
                  d="M300.77,203.78c3.07-2.94,7.7-3.85,11.88-3.09a25,25,0,0,1,11.21,5.76c-1.62,2.87-4.58,4.73-7.58,6.11a14.78,14.78,0,0,1-6.37,1.68c-4.22-.06-7.93-3.18-9.83-7a3.89,3.89,0,0,1-.54-1.8,1.59,1.59,0,0,1,1-1.49"/>
            <path class="cls-2"
                  d="M346.29,99.24c3.06-2.94,7.69-3.85,11.87-3.09a25,25,0,0,1,11.21,5.76c-1.62,2.87-4.58,4.73-7.58,6.11a14.92,14.92,0,0,1-6.37,1.68c-4.22-.06-7.93-3.18-9.83-7a3.79,3.79,0,0,1-.53-1.8,1.56,1.56,0,0,1,1-1.49"/>
            <path class="cls-2"
                  d="M308.89,67.34c.09-4.25,2.71-8.17,6.21-10.59a25,25,0,0,1,12-3.86c.9,3.18.11,6.59-1,9.68a14.9,14.9,0,0,1-3.31,5.7c-3,2.94-7.86,3.36-11.87,2a3.92,3.92,0,0,1-1.65-.9,1.59,1.59,0,0,1-.38-1.74"/>
            <path class="cls-2"
                  d="M294.33,181c-.35-4.23,1.85-8.4,5.08-11.16a25,25,0,0,1,11.53-5.08c1.22,3.06.79,6.53,0,9.73a15,15,0,0,1-2.71,6c-2.71,3.23-7.47,4.15-11.6,3.25a3.85,3.85,0,0,1-1.73-.72,1.58,1.58,0,0,1-.55-1.69"/>
            <path class="cls-2"
                  d="M269.7,133c-1.46-4-.43-8.59,2-12.11a25,25,0,0,1,9.79-7.93c2,2.64,2.48,6.1,2.53,9.4a14.78,14.78,0,0,1-1,6.5c-1.76,3.84-6.11,6-10.33,6.2a4,4,0,0,1-1.86-.24,1.58,1.58,0,0,1-1-1.49"/>
            <path class="cls-2"
                  d="M284,51.7c-1.45-4-.43-8.6,2-12.11a25.05,25.05,0,0,1,9.79-7.93c2,2.63,2.48,6.1,2.54,9.4a14.93,14.93,0,0,1-1,6.5c-1.76,3.84-6.11,6-10.33,6.19a3.78,3.78,0,0,1-1.86-.24,1.55,1.55,0,0,1-1-1.48"/>
            <path class="cls-2"
                  d="M232.14,130.41a10.09,10.09,0,0,1,2-8.8,18.42,18.42,0,0,1,7.53-5.38,11.64,11.64,0,0,1,1.44,7,10.92,10.92,0,0,1-1,4.72c-1.46,2.73-4.75,4.11-7.85,4.08a2.74,2.74,0,0,1-1.36-.26,1.16,1.16,0,0,1-.65-1.13"/>
            <path class="cls-2"
                  d="M285.46,166.42a10.09,10.09,0,0,1-.89-9A18.48,18.48,0,0,1,290,150a11.71,11.71,0,0,1,3.57,6.19,11,11,0,0,1,.49,4.82c-.52,3-3.21,5.39-6.16,6.34a2.94,2.94,0,0,1-1.37.18,1.14,1.14,0,0,1-1-.87"/>
            <path class="cls-2"
                  d="M338.18,168.42a10.08,10.08,0,0,1,4.77-7.65,18.42,18.42,0,0,1,8.89-2.59c.59,2.35-.06,4.83-.95,7.09a11,11,0,0,1-2.55,4.11c-2.28,2.1-5.84,2.31-8.76,1.26a2.9,2.9,0,0,1-1.19-.69,1.16,1.16,0,0,1-.24-1.29"/>
            <path class="cls-2"
                  d="M359,194.28a10.08,10.08,0,0,1,4.77-7.65,18.42,18.42,0,0,1,8.89-2.59c.59,2.35-.06,4.84-.95,7.09a11,11,0,0,1-2.55,4.11c-2.28,2.1-5.84,2.31-8.76,1.26a2.79,2.79,0,0,1-1.19-.69,1.14,1.14,0,0,1-.24-1.28"/>
            <path class="cls-2"
                  d="M342.7,204.35a10,10,0,0,1,6.9,5.8,18.32,18.32,0,0,1,1.32,9.16c-2.41.26-4.78-.74-6.89-1.94a10.94,10.94,0,0,1-3.71-3.1c-1.76-2.56-1.46-6.11,0-8.85a2.76,2.76,0,0,1,.85-1.09,1.15,1.15,0,0,1,1.3-.05"/>
            <path class="cls-2"
                  d="M321.88,193a10,10,0,0,1,9,0,18.42,18.42,0,0,1,6.93,6.14,11.69,11.69,0,0,1-6.51,3,11,11,0,0,1-4.84,0c-3-.81-5.06-3.71-5.73-6.74a2.93,2.93,0,0,1-.05-1.38,1.17,1.17,0,0,1,1-.88"/>
            <path class="cls-2"
                  d="M248.73,117.83a10,10,0,0,1,9,0,18.42,18.42,0,0,1,6.93,6.14,11.69,11.69,0,0,1-6.51,3,11.14,11.14,0,0,1-4.84,0c-3-.82-5.06-3.72-5.73-6.75a2.93,2.93,0,0,1-.05-1.38,1.16,1.16,0,0,1,1-.88"/>
            <path class="cls-2"
                  d="M359.34,128.79a10.08,10.08,0,0,1,5.36-7.24,18.47,18.47,0,0,1,9.07-1.87,11.72,11.72,0,0,1-1.52,7,10.87,10.87,0,0,1-2.87,3.89c-2.44,1.91-6,1.84-8.83.56a2.9,2.9,0,0,1-1.13-.78,1.16,1.16,0,0,1-.14-1.3"/>
            <path class="cls-2"
                  d="M272.26,40.68a10.07,10.07,0,0,1,.14-9,18.34,18.34,0,0,1,6.26-6.81,11.59,11.59,0,0,1,2.85,6.56,11,11,0,0,1-.05,4.84c-.88,3-3.81,5-6.85,5.6a2.81,2.81,0,0,1-1.38,0,1.15,1.15,0,0,1-.87-1"/>
            <path class="cls-2"
                  d="M331.27,95.81A10.05,10.05,0,0,1,333.33,87a18.4,18.4,0,0,1,7.58-5.31,11.68,11.68,0,0,1,1.38,7,11,11,0,0,1-1.09,4.71c-1.49,2.72-4.79,4.06-7.89,4A3,3,0,0,1,332,97.2a1.16,1.16,0,0,1-.63-1.14"/>
            <path class="cls-2"
                  d="M334.89,138.71a10.06,10.06,0,0,1-1.54-8.89,18.36,18.36,0,0,1,4.9-7.85,11.76,11.76,0,0,1,4,5.92,10.88,10.88,0,0,1,.84,4.76c-.3,3.09-2.81,5.62-5.69,6.78a2.78,2.78,0,0,1-1.35.28,1.16,1.16,0,0,1-1-.8"/>
            <path class="cls-2"
                  d="M233.75,65.82a10.07,10.07,0,0,1-1.54-8.88,18.33,18.33,0,0,1,4.9-7.86,11.69,11.69,0,0,1,4,5.92,10.91,10.91,0,0,1,.84,4.76c-.3,3.09-2.81,5.62-5.69,6.78a2.76,2.76,0,0,1-1.35.28,1.15,1.15,0,0,1-1-.8"/>
            <path class="cls-2"
                  d="M265.58,67.3A10,10,0,0,1,264,58.42a18.43,18.43,0,0,1,4.89-7.86,11.71,11.71,0,0,1,4,5.92,11.07,11.07,0,0,1,.84,4.77c-.3,3.08-2.81,5.61-5.69,6.77a2.78,2.78,0,0,1-1.35.28,1.13,1.13,0,0,1-1-.8"/>
            <path class="cls-2"
                  d="M315.7,157.22c-2.38-3.41-2.56-8-1.18-11.95a24.44,24.44,0,0,1,7.26-10c2.54,2,3.87,5.14,4.75,8.25a14.44,14.44,0,0,1,.66,6.41c-.7,4.06-4.28,7.18-8.21,8.44a3.8,3.8,0,0,1-1.82.24,1.55,1.55,0,0,1-1.3-1.16"/>
            <path class="cls-2"
                  d="M361,169c-2.37-3.4-2.56-8-1.18-11.94a24.46,24.46,0,0,1,7.26-10c2.54,2,3.88,5.14,4.76,8.25a14.58,14.58,0,0,1,.65,6.41c-.7,4.06-4.28,7.17-8.21,8.44a3.8,3.8,0,0,1-1.82.24,1.53,1.53,0,0,1-1.29-1.16"/>
            <path class="cls-2"
                  d="M295,103.41c-2.37-3.41-2.56-8-1.18-11.94a24.49,24.49,0,0,1,7.26-10c2.54,2,3.88,5.15,4.76,8.25a14.61,14.61,0,0,1,.65,6.41c-.7,4.07-4.28,7.18-8.21,8.45a3.93,3.93,0,0,1-1.82.24,1.53,1.53,0,0,1-1.29-1.16"/>
            <path class="cls-2"
                  d="M213.16,83.85c-2.37-3.41-2.56-8-1.18-11.94A24.37,24.37,0,0,1,219.24,62c2.54,2,3.87,5.14,4.76,8.25a14.55,14.55,0,0,1,.65,6.4c-.7,4.07-4.28,7.18-8.21,8.45a3.8,3.8,0,0,1-1.82.24,1.55,1.55,0,0,1-1.3-1.16"/>
            <path class="cls-2"
                  d="M227.11,128.49a7.59,7.59,0,0,1-5.53-4,13.87,13.87,0,0,1-1.51-6.83,8.87,8.87,0,0,1,5.3,1.07,8.42,8.42,0,0,1,3,2.12,6.62,6.62,0,0,1,.52,6.67,2.17,2.17,0,0,1-.59.87.88.88,0,0,1-1,.11"/>
            <path class="cls-2"
                  d="M278.67,177.38a7.59,7.59,0,0,1-5.53-4,13.81,13.81,0,0,1-1.52-6.82,8.84,8.84,0,0,1,5.3,1.07,8.25,8.25,0,0,1,3,2.12,6.62,6.62,0,0,1,.51,6.67,2.15,2.15,0,0,1-.58.86.87.87,0,0,1-1,.12"/>
            <path class="cls-2"
                  d="M376.45,178.06a7.56,7.56,0,0,1,3.83-5.63,13.82,13.82,0,0,1,6.78-1.7,8.82,8.82,0,0,1-.93,5.33,8.41,8.41,0,0,1-2,3,6.62,6.62,0,0,1-6.65.69,2.08,2.08,0,0,1-.88-.56.86.86,0,0,1-.15-1"/>
            <path class="cls-2"
                  d="M344.81,122.13a7.59,7.59,0,0,1-1.24-6.7,14,14,0,0,1,3.64-6,8.78,8.78,0,0,1,3.08,4.44,8.44,8.44,0,0,1,.68,3.59,6.62,6.62,0,0,1-4.25,5.17,2.26,2.26,0,0,1-1,.22.85.85,0,0,1-.78-.59"/>
            <path class="cls-2"
                  d="M272,93.92a7.63,7.63,0,0,1,3.88-5.6,14,14,0,0,1,6.8-1.63,8.88,8.88,0,0,1-1,5.32,8.41,8.41,0,0,1-2.07,3,6.61,6.61,0,0,1-6.66.63,2.24,2.24,0,0,1-.87-.57.85.85,0,0,1-.13-1"/>
            <path class="cls-2"
                  d="M250.33,83.17a7.57,7.57,0,0,1,1.09-6.72A13.85,13.85,0,0,1,256.85,72a8.89,8.89,0,0,1,1.41,5.22,8.34,8.34,0,0,1-.57,3.61A6.63,6.63,0,0,1,252,84.31a2.24,2.24,0,0,1-1-.13.87.87,0,0,1-.54-.83"/>
            <path class="cls-2"
                  d="M246.52,46.35a7.62,7.62,0,0,1-1.12-6.72,13.89,13.89,0,0,1,3.73-5.91,8.84,8.84,0,0,1,3,4.49,8.43,8.43,0,0,1,.62,3.6,6.63,6.63,0,0,1-4.33,5.1,2.14,2.14,0,0,1-1,.2.87.87,0,0,1-.78-.61"/>
            <path class="cls-2"
                  d="M237.81,193.1a7.65,7.65,0,0,1,3.83-5.64,14,14,0,0,1,6.79-1.69,8.86,8.86,0,0,1-.93,5.32,8.22,8.22,0,0,1-2.05,3,6.62,6.62,0,0,1-6.65.7,2.33,2.33,0,0,1-.88-.56.87.87,0,0,1-.14-1"/>
            <path class="cls-2"
                  d="M313.78,112.22a7.61,7.61,0,0,1,3.83-5.63,13.88,13.88,0,0,1,6.79-1.7,9,9,0,0,1-.93,5.33,8.31,8.31,0,0,1-2.05,3,6.62,6.62,0,0,1-6.65.69,2.21,2.21,0,0,1-.88-.56.87.87,0,0,1-.14-1"/>
            <path class="cls-2"
                  d="M367.33,210.5a7.56,7.56,0,0,1,4.79-5.18,14.23,14.23,0,0,1,7.31-.44,9.19,9.19,0,0,1-1.73,5.44,8.29,8.29,0,0,1-2.57,2.79c-2.07,1.24-4.88.76-7-.6a2.45,2.45,0,0,1-.84-.76,1,1,0,0,1,0-1.06"/>
            <path class="cls-2"
                  d="M220.08,150.35c-3.81-1.88-6.26-5.91-7-10.1a25,25,0,0,1,1.58-12.5c3.25.53,6,2.68,8.33,5a14.81,14.81,0,0,1,3.76,5.4c1.38,4-.28,8.55-3.17,11.63a3.83,3.83,0,0,1-1.51,1.11,1.56,1.56,0,0,1-1.73-.4"/>
            <path class="cls-2"
                  d="M141.08,124.25c2.57-3.38,2.95-8.09,1.71-12.15a24.92,24.92,0,0,0-7-10.48c-2.68,1.93-4.18,5.09-5.21,8.22a14.92,14.92,0,0,0-.94,6.52c.54,4.19,4.06,7.52,8,9a3.86,3.86,0,0,0,1.85.32,1.58,1.58,0,0,0,1.38-1.13"/>
            <path class="cls-2"
                  d="M134.11,200c1.43-4,.37-8.6-2-12.1a24.89,24.89,0,0,0-9.84-7.87c-2,2.65-2.44,6.11-2.47,9.41a14.75,14.75,0,0,0,1.07,6.5c1.79,3.83,6.15,5.94,10.37,6.13a3.9,3.9,0,0,0,1.86-.25,1.58,1.58,0,0,0,1-1.49"/>
            <path class="cls-2"
                  d="M96.66,209.86C93.6,206.92,89,206,84.79,206.77a24.86,24.86,0,0,0-11.21,5.75c1.61,2.88,4.58,4.73,7.58,6.11a14.78,14.78,0,0,0,6.37,1.68c4.22-.06,7.93-3.18,9.83-6.95a3.76,3.76,0,0,0,.53-1.8,1.56,1.56,0,0,0-1-1.49"/>
            <path class="cls-2"
                  d="M124.73,144.64A11.43,11.43,0,0,0,116,139.3a20.91,20.91,0,0,0-10.33,1.88c.59,2.69,2.51,4.88,4.56,6.71a12.39,12.39,0,0,0,4.68,2.88c3.38,1,7.09-.62,9.52-3.16a3.15,3.15,0,0,0,.86-1.31,1.28,1.28,0,0,0-.41-1.42"/>
            <path class="cls-2"
                  d="M48.32,101.52a12.15,12.15,0,0,0-8.85-6.37,22.11,22.11,0,0,0-11.14,1.17c.42,2.9,2.28,5.39,4.32,7.5a13.47,13.47,0,0,0,4.74,3.44c3.52,1.3,7.6-.1,10.39-2.61a3.52,3.52,0,0,0,1-1.32,1.42,1.42,0,0,0-.32-1.55"/>
            <path class="cls-2"
                  d="M79.48,68.19a10.41,10.41,0,0,0-4.71-8,19,19,0,0,0-9.11-2.93c-.68,2.41-.09,5,.78,7.35A11.25,11.25,0,0,0,69,68.89c2.3,2.24,6,2.55,9,1.55a2.78,2.78,0,0,0,1.25-.68,1.18,1.18,0,0,0,.29-1.32"/>
            <path class="cls-2"
                  d="M95.24,61.74c2.72-3.09,3.41-7.61,2.5-11.61a24.32,24.32,0,0,0-6-10.61c-2.72,1.68-4.38,4.63-5.6,7.58a14.59,14.59,0,0,0-1.36,6.23c.24,4.08,3.41,7.54,7.13,9.23a3.92,3.92,0,0,0,1.76.44,1.54,1.54,0,0,0,1.41-1"/>
            <path class="cls-2"
                  d="M81.13,188.3c.36-4.23-1.85-8.4-5.08-11.16a24.92,24.92,0,0,0-11.53-5.08c-1.21,3.06-.78,6.53,0,9.73a15,15,0,0,0,2.71,6C70,191,74.73,192,78.85,191.05a3.89,3.89,0,0,0,1.74-.72,1.59,1.59,0,0,0,.55-1.69"/>
            <path class="cls-2"
                  d="M116.08,91.12a11.88,11.88,0,0,0,3.65-10,21.66,21.66,0,0,0-4-10.15c-2.61,1.16-4.45,3.57-5.89,6a13,13,0,0,0-2,5.35c-.29,3.65,2.1,7.11,5.19,9.06a3.47,3.47,0,0,0,1.51.61,1.38,1.38,0,0,0,1.37-.71"/>
            <path class="cls-2"
                  d="M157.77,81c1.45-4,.42-8.6-2-12.11A24.92,24.92,0,0,0,146,61c-2,2.64-2.47,6.1-2.53,9.4a14.94,14.94,0,0,0,1,6.51c1.76,3.83,6.12,6,10.33,6.19a3.78,3.78,0,0,0,1.86-.24,1.58,1.58,0,0,0,1-1.49"/>
            <path class="cls-2"
                  d="M112.06,64.23a10.12,10.12,0,0,0-2-8.8,18.42,18.42,0,0,0-7.53-5.38,11.62,11.62,0,0,0-1.44,7,10.93,10.93,0,0,0,1,4.73c1.46,2.73,4.75,4.11,7.85,4.08a2.85,2.85,0,0,0,1.36-.26,1.16,1.16,0,0,0,.65-1.13"/>
            <path class="cls-2"
                  d="M108.61,170.62a10.09,10.09,0,0,0,.89-9,18.36,18.36,0,0,0-5.46-7.48,11.7,11.7,0,0,0-3.57,6.2,11,11,0,0,0-.49,4.81c.53,3.06,3.21,5.39,6.17,6.34a2.67,2.67,0,0,0,1.36.18,1.17,1.17,0,0,0,1-.87"/>
            <path class="cls-2"
                  d="M98,149.81a8.83,8.83,0,0,0,4.88-6.74,16.58,16.58,0,0,0-1.25-8.55,10.83,10.83,0,0,0-5.9,3.25,9.59,9.59,0,0,0-2.63,3.61c-1,2.69.29,5.82,2.38,8a2.83,2.83,0,0,0,1.09.79,1.12,1.12,0,0,0,1.23-.23"/>
            <path class="cls-2"
                  d="M55.89,172.61A10.11,10.11,0,0,0,51.12,165a18.38,18.38,0,0,0-8.89-2.59,11.73,11.73,0,0,0,1,7.09,10.85,10.85,0,0,0,2.54,4.11c2.29,2.1,5.84,2.31,8.76,1.26a2.69,2.69,0,0,0,1.19-.69,1.12,1.12,0,0,0,.24-1.28"/>
            <path class="cls-2"
                  d="M142.11,156.62a10.07,10.07,0,0,0-5.92-6.8,18.48,18.48,0,0,0-9.18-1.15c-.22,2.42.82,4.77,2.06,6.85a11,11,0,0,0,3.17,3.66c2.59,1.71,6.13,1.35,8.85-.15a2.92,2.92,0,0,0,1.07-.87,1.18,1.18,0,0,0,0-1.31"/>
            <path class="cls-2"
                  d="M92.51,131.18a10,10,0,0,0-5.93-6.79,18.37,18.37,0,0,0-9.18-1.15,11.77,11.77,0,0,0,2.06,6.85,11,11,0,0,0,3.17,3.65c2.59,1.71,6.13,1.36,8.85-.14a2.94,2.94,0,0,0,1.07-.87,1.18,1.18,0,0,0,0-1.31"/>
            <path class="cls-2"
                  d="M43.23,200.91a10.08,10.08,0,0,0-6.9,5.81A18.42,18.42,0,0,0,35,215.88a11.73,11.73,0,0,0,6.89-1.95,10.94,10.94,0,0,0,3.71-3.1c1.76-2.55,1.46-6.1,0-8.85a2.85,2.85,0,0,0-.86-1.08,1.15,1.15,0,0,0-1.3-.05"/>
            <path class="cls-2"
                  d="M67.19,209.27a10.06,10.06,0,0,0-9,0,18.34,18.34,0,0,0-6.93,6.14,11.71,11.71,0,0,0,6.51,3,10.84,10.84,0,0,0,4.84,0c3-.82,5.06-3.72,5.73-6.74a2.94,2.94,0,0,0,0-1.38,1.16,1.16,0,0,0-1-.89"/>
            <path class="cls-2"
                  d="M140.73,95a10,10,0,0,0-6.21-6.53,18.35,18.35,0,0,0-9.22-.75,11.66,11.66,0,0,0,2.36,6.75A10.86,10.86,0,0,0,131,98c2.66,1.59,6.18,1.08,8.83-.53a2.86,2.86,0,0,0,1-.92,1.14,1.14,0,0,0,0-1.3"/>
            <path class="cls-2"
                  d="M161.24,130.43a10.06,10.06,0,0,0-6.21-6.54,18.39,18.39,0,0,0-9.23-.75c-.11,2.42,1,4.73,2.36,6.75a11.08,11.08,0,0,0,3.32,3.52c2.66,1.6,6.19,1.09,8.84-.53a2.91,2.91,0,0,0,1-.91,1.18,1.18,0,0,0,0-1.31"/>
            <path class="cls-2"
                  d="M46.62,154a10,10,0,0,0-5.36-7.24,18.36,18.36,0,0,0-9.07-1.88,11.7,11.7,0,0,0,1.52,7,10.82,10.82,0,0,0,2.87,3.9c2.44,1.91,6,1.83,8.83.55a2.8,2.8,0,0,0,1.13-.78,1.16,1.16,0,0,0,.14-1.3"/>
            <path class="cls-2"
                  d="M153.57,29.22a10.08,10.08,0,0,0-4.25-7.95,18.43,18.43,0,0,0-8.7-3.18c-.75,2.31-.26,4.83.48,7.14a10.94,10.94,0,0,0,2.27,4.27c2.14,2.25,5.67,2.69,8.66,1.84a2.91,2.91,0,0,0,1.23-.61,1.15,1.15,0,0,0,.33-1.26"/>
            <path class="cls-2"
                  d="M62.8,100a10.07,10.07,0,0,0-2.06-8.78,18.4,18.4,0,0,0-7.58-5.31c-1.32,2-1.5,4.6-1.38,7a11,11,0,0,0,1.09,4.72c1.49,2.72,4.79,4.06,7.89,4a2.75,2.75,0,0,0,1.36-.27,1.18,1.18,0,0,0,.64-1.14"/>
            <path class="cls-2"
                  d="M64.27,124.09a10,10,0,0,0,1.54-8.88,18.33,18.33,0,0,0-4.89-7.86c-2,1.36-3.18,3.65-4,5.92a11.07,11.07,0,0,0-.84,4.77c.31,3.09,2.82,5.61,5.69,6.78a3,3,0,0,0,1.35.28,1.18,1.18,0,0,0,1-.8"/>
            <path class="cls-2"
                  d="M77.73,87.81A8.6,8.6,0,0,0,79,80.25a15.57,15.57,0,0,0-4.16-6.68,10,10,0,0,0-3.42,5,9.28,9.28,0,0,0-.71,4c.25,2.62,2.39,4.77,4.83,5.76a2.46,2.46,0,0,0,1.15.24,1,1,0,0,0,.88-.68"/>
            <path class="cls-2"
                  d="M163.9,45.46a10.06,10.06,0,0,0,1.53-8.88,18.24,18.24,0,0,0-4.89-7.85c-2,1.35-3.18,3.64-4,5.92a11,11,0,0,0-.84,4.76c.31,3.09,2.82,5.61,5.69,6.78a2.9,2.9,0,0,0,1.35.28,1.18,1.18,0,0,0,1-.8"/>
            <path class="cls-2"
                  d="M130.41,62.62A10.1,10.1,0,0,0,132,53.74a18.33,18.33,0,0,0-4.9-7.86,11.69,11.69,0,0,0-4,5.92,10.91,10.91,0,0,0-.84,4.76c.3,3.09,2.81,5.62,5.69,6.78a2.76,2.76,0,0,0,1.35.28,1.17,1.17,0,0,0,1-.8"/>
            <path class="cls-2"
                  d="M78.24,155c2.37-3.41,2.56-8,1.18-11.94a24.46,24.46,0,0,0-7.26-9.95c-2.54,2-3.88,5.14-4.76,8.25a14.55,14.55,0,0,0-.65,6.4c.7,4.07,4.28,7.18,8.21,8.45a3.8,3.8,0,0,0,1.82.24,1.53,1.53,0,0,0,1.29-1.16"/>
            <path class="cls-2"
                  d="M25,167.43c2.38-3.41,2.56-8,1.18-12a24.44,24.44,0,0,0-7.26-9.95c-2.54,2-3.87,5.14-4.75,8.25a14.58,14.58,0,0,0-.66,6.41c.7,4.06,4.28,7.18,8.21,8.44a3.8,3.8,0,0,0,1.82.24,1.54,1.54,0,0,0,1.3-1.16"/>
            <path class="cls-2"
                  d="M93.5,101.68c2.37-3.41,2.55-8,1.18-11.94a24.43,24.43,0,0,0-7.27-10c-2.53,2-3.87,5.15-4.75,8.25A14.58,14.58,0,0,0,82,94.44c.71,4.07,4.29,7.18,8.22,8.45a3.78,3.78,0,0,0,1.82.23A1.51,1.51,0,0,0,93.33,102"/>
            <path class="cls-2"
                  d="M189.8,113c2.37-3.41,2.56-8,1.18-12a24.44,24.44,0,0,0-7.26-10c-2.54,2-3.87,5.14-4.75,8.25a14.44,14.44,0,0,0-.66,6.41c.7,4.06,4.28,7.18,8.21,8.44a3.8,3.8,0,0,0,1.82.24,1.55,1.55,0,0,0,1.3-1.16"/>
            <path class="cls-2"
                  d="M112.54,50.35a7.59,7.59,0,0,0,5.53-4,14,14,0,0,0,1.52-6.83,8.84,8.84,0,0,0-5.3,1.07,8.27,8.27,0,0,0-3,2.13,6.62,6.62,0,0,0-.51,6.67,2.12,2.12,0,0,0,.58.86.87.87,0,0,0,1,.12"/>
            <path class="cls-2"
                  d="M115.41,181.58a7.61,7.61,0,0,0,5.52-4,13.85,13.85,0,0,0,1.52-6.83,8.85,8.85,0,0,0-5.3,1.07,8.23,8.23,0,0,0-3,2.13,6.6,6.6,0,0,0-.52,6.66,2.26,2.26,0,0,0,.58.87.87.87,0,0,0,1,.11"/>
            <path class="cls-2"
                  d="M17.62,182.25a7.59,7.59,0,0,0-3.82-5.63A13.77,13.77,0,0,0,7,174.93a8.79,8.79,0,0,0,.93,5.32,8.41,8.41,0,0,0,2,3,6.61,6.61,0,0,0,6.66.69,2.21,2.21,0,0,0,.88-.56.87.87,0,0,0,.14-1"/>
            <path class="cls-2"
                  d="M31.87,131.64A7.58,7.58,0,0,0,33.11,125a14,14,0,0,0-3.64-6,8.82,8.82,0,0,0-3.08,4.44,8.45,8.45,0,0,0-.68,3.6A6.62,6.62,0,0,0,30,132.17a2,2,0,0,0,1,.22.85.85,0,0,0,.78-.59"/>
            <path class="cls-2"
                  d="M37.26,171.48a7.61,7.61,0,0,0,1.24-6.7,14,14,0,0,0-3.64-6,8.87,8.87,0,0,0-3.08,4.45,8.25,8.25,0,0,0-.67,3.59A6.62,6.62,0,0,0,35.35,172a2.26,2.26,0,0,0,1,.22.89.89,0,0,0,.79-.6"/>
            <path class="cls-2"
                  d="M202.83,34.1A7.6,7.6,0,0,0,199,28.51a13.8,13.8,0,0,0-6.8-1.63,8.86,8.86,0,0,0,1,5.31,8.23,8.23,0,0,0,2.07,3,6.61,6.61,0,0,0,6.66.63,2.11,2.11,0,0,0,.87-.56.87.87,0,0,0,.14-1"/>
            <path class="cls-2"
                  d="M162.21,98.19a7.6,7.6,0,0,0-1.08-6.72,13.93,13.93,0,0,0-5.43-4.41,8.86,8.86,0,0,0-1.41,5.22,8.19,8.19,0,0,0,.57,3.61,6.59,6.59,0,0,0,5.73,3.44,2.1,2.1,0,0,0,1-.13.9.9,0,0,0,.55-.83"/>
            <path class="cls-2"
                  d="M199.26,52.11a7.6,7.6,0,0,0-1.08-6.72A14,14,0,0,0,192.74,41a8.93,8.93,0,0,0-1.41,5.22,8.34,8.34,0,0,0,.57,3.61,6.61,6.61,0,0,0,5.74,3.44,2.12,2.12,0,0,0,1-.13.87.87,0,0,0,.54-.83"/>
            <path class="cls-2"
                  d="M169.61,147.37a7.62,7.62,0,0,0-1.08-6.73,13.9,13.9,0,0,0-5.43-4.4,8.81,8.81,0,0,0-1.41,5.21,8.09,8.09,0,0,0,.57,3.62,6.61,6.61,0,0,0,5.73,3.44,2.1,2.1,0,0,0,1-.14.87.87,0,0,0,.55-.82"/>
            <path class="cls-2"
                  d="M176.41,91a10.8,10.8,0,0,0,3.84-8.9,19.64,19.64,0,0,0-3.14-9.45c-2.45.91-4.25,3-5.69,5.18a11.74,11.74,0,0,0-2.08,4.78c-.46,3.3,1.54,6.58,4.25,8.52a3.18,3.18,0,0,0,1.34.63,1.25,1.25,0,0,0,1.29-.58"/>
            <path class="cls-2"
                  d="M188.16,25.28a7.47,7.47,0,0,0,5.8-5.76c.63-2.74,0-5.84-1.12-8.81A11.32,11.32,0,0,0,186,12.78a7.91,7.91,0,0,0-3.13,3.07c-1.17,2.5.12,5.89,2.43,8.48a4.24,4.24,0,0,0,1.21,1,1.37,1.37,0,0,0,1.41,0"/>
            <path class="cls-2"
                  d="M187.42,52.08a7.6,7.6,0,0,0,1.12-6.71,13.86,13.86,0,0,0-3.73-5.92,8.92,8.92,0,0,0-3,4.49,8.31,8.31,0,0,0-.61,3.61,6.6,6.6,0,0,0,4.32,5.09,2.19,2.19,0,0,0,1,.21.87.87,0,0,0,.77-.61"/>
            <path class="cls-2"
                  d="M157.49,201.62c-.37-4.26-3.28-8-7-10.23a25.14,25.14,0,0,0-12.32-3.07c-.69,3.25.33,6.62,1.69,9.66a14.88,14.88,0,0,0,3.71,5.5c3.24,2.76,8.13,2.85,12.07,1.26a3.94,3.94,0,0,0,1.6-1,1.58,1.58,0,0,0,.26-1.77"/>
            <path class="cls-2"
                  d="M157.59,168a7.59,7.59,0,0,0-3.83-5.64,13.94,13.94,0,0,0-6.78-1.69,8.79,8.79,0,0,0,.93,5.32,8.24,8.24,0,0,0,2,3,6.62,6.62,0,0,0,6.65.7,2.18,2.18,0,0,0,.88-.56.88.88,0,0,0,.15-1"/>
            <path class="cls-2"
                  d="M106.39,112.2a7.65,7.65,0,0,0-3.83-5.64,14,14,0,0,0-6.79-1.69,8.86,8.86,0,0,0,.93,5.32,8.22,8.22,0,0,0,2,3,6.62,6.62,0,0,0,6.65.7,2.33,2.33,0,0,0,.88-.56.89.89,0,0,0,.14-1"/>
            <path class="cls-2"
                  d="M169.17,202.72a7.59,7.59,0,0,0-3.83-5.64,13.94,13.94,0,0,0-6.78-1.69,8.79,8.79,0,0,0,.93,5.32,8.12,8.12,0,0,0,2,3,6.62,6.62,0,0,0,6.65.7,2.18,2.18,0,0,0,.88-.56.87.87,0,0,0,.14-1"/>
            <path class="cls-2"
                  d="M185,166.52a9.55,9.55,0,0,0-2.73-8.13,17.36,17.36,0,0,0-7.64-4.37,11.16,11.16,0,0,0-.69,6.77,10.29,10.29,0,0,0,1.45,4.37c1.64,2.45,4.89,3.43,7.82,3.1a2.64,2.64,0,0,0,1.26-.37,1.1,1.1,0,0,0,.5-1.14"/>
            <path class="cls-2"
                  d="M80.29,116.41a7.6,7.6,0,0,0-3.83-5.63,13.85,13.85,0,0,0-6.79-1.7,9,9,0,0,0,.93,5.33,8.31,8.31,0,0,0,2.05,3,6.59,6.59,0,0,0,6.65.69,2.14,2.14,0,0,0,.88-.56.86.86,0,0,0,.14-1"/>
            <path class="cls-2"
                  d="M50.19,133a7.58,7.58,0,0,0-3.83-5.63,13.84,13.84,0,0,0-6.78-1.7,8.81,8.81,0,0,0,.93,5.33,8.28,8.28,0,0,0,2,3,6.59,6.59,0,0,0,6.65.69,2.08,2.08,0,0,0,.88-.56.86.86,0,0,0,.15-1"/>
            <path class="cls-2"
                  d="M28.49,141.73a7.65,7.65,0,0,0-3.83-5.64,14,14,0,0,0-6.79-1.69,8.86,8.86,0,0,0,.93,5.32,8.14,8.14,0,0,0,2.05,3,6.62,6.62,0,0,0,6.65.7,2.21,2.21,0,0,0,.88-.56.89.89,0,0,0,.14-1"/>
            <path class="cls-2"
                  d="M28,197.66a7.57,7.57,0,0,0-6.73,2.15,14.13,14.13,0,0,0-3.49,6.44,9.3,9.3,0,0,0,5.65.73A8.21,8.21,0,0,0,27,205.83c2-1.35,2.76-4.1,2.44-6.61a2.49,2.49,0,0,0-.34-1.08,1,1,0,0,0-1-.46"/>
            <path class="cls-2"
                  d="M169.27,29.06c3.81-1.88,6.26-5.92,7-10.1a25.19,25.19,0,0,0-1.57-12.51c-3.26.54-6,2.69-8.34,5a15.06,15.06,0,0,0-3.76,5.41c-1.38,4,.28,8.54,3.17,11.62a4,4,0,0,0,1.51,1.12,1.58,1.58,0,0,0,1.73-.4"/>
            <path class="cls-2"
                  d="M222.29,35.82c3.81-1.87,6.25-5.91,7-10.1a24.93,24.93,0,0,0-1.57-12.5c-3.26.53-6,2.69-8.33,5a14.65,14.65,0,0,0-3.76,5.41c-1.39,4,.28,8.54,3.16,11.62a4,4,0,0,0,1.51,1.11A1.59,1.59,0,0,0,222,36"/>
            <circle class="cls-3" cx="197.5" cy="197.5" r="195"/>
        </g>
    </g>
</svg>