<svg xmlns="http://www.w3.org/2000/svg" viewBox="0 0 760.48 760.54">
    <defs>
        <style>.cls-1{fill:#dfae4f;}.cls-2{fill:none;}.cls-3{fill:#332c27;}</style>
    </defs>
    <g id="Capa_2" data-name="Capa 2">
        <g id="Capa_1-2" data-name="Capa 1">
            <path class="cls-1"
                  d="M380,733.31c-196-.89-353.89-159.39-352.66-354.67C28.52,184.8,184.43,26.92,381.34,27.5S735.14,187.2,733.1,384.24C731.08,579,573.15,733.17,380,733.31ZM727.89,380.52C727.85,188,571.9,32,378.63,32.81,188.78,33.6,32.69,186.12,32.81,380.38,32.93,575.24,189,727,378.71,727.78,571.92,728.56,727.94,572.69,727.89,380.52Z"/>
            <path class="cls-1"
                  d="M10.44,385C3.9,384.93-.1,382.31,0,378.14.09,374.55,4.39,372,10.53,372c6-.06,11,3,10.9,6.57S16.55,385,10.44,385Z"/>
            <path class="cls-1"
                  d="M749.94,385c-6.2-.05-10.85-3-10.64-6.66s5-6.52,11-6.37c6.23.15,10.18,2.64,10.18,6.42C760.48,382.46,756.34,385.06,749.94,385Z"/>
            <path class="cls-1"
                  d="M65.58,559.74c4.73-.08,6.9,3,4.66,7.16-2.73,5-7.29,7.68-12.91,8.28a5.41,5.41,0,0,1-5.5-2.74c-1.34-2.28-.32-4.21,1-6A15.44,15.44,0,0,1,65.58,559.74Z"/>
            <path class="cls-1"
                  d="M336.48,744.77c-.08,4.4-.85,7.94-3.55,10.75-2.84,3-6.2,2.45-8.14-1.14-2.21-4.1-1.46-12,1.56-15.72,1.3-1.59,2.89-2.89,5.12-2.53,2.41.39,3.73,2.12,4.31,4.34A38,38,0,0,1,336.48,744.77Z"/>
            <path class="cls-1"
                  d="M749.78,425.45a16.68,16.68,0,0,1-9.22-2.42c-1.93-1.14-3.43-2.68-3.21-5.17s2-3.8,4.09-4.48a16.37,16.37,0,0,1,13,.75c2.45,1.26,4.64,2.88,4.17,6.06-.41,2.87-2.65,4-5.19,4.62C752,425.16,750.52,425.33,749.78,425.45Z"/>
            <path class="cls-1"
                  d="M10.81,351.85c6.35,0,11.12,3,11,6.85s-5.38,6.5-11.53,5.93c-5.94-.54-10-3.52-9.78-7.23C.7,353.91,4.56,351.83,10.81,351.85Z"/>
            <path class="cls-1"
                  d="M39.28,539.37c-2.48.12-4.86-.3-6-2.75s-.23-4.56,1.44-6.45a15.65,15.65,0,0,1,13.42-5.32c4.66.35,6.37,3.88,3.81,7.8C49.06,537.15,44.56,539.11,39.28,539.37Z"/>
            <path class="cls-1"
                  d="M387.5,10.49c0,5.68-3.13,11-6.58,11-3.63.06-6.86-5.51-6.6-11.39S377.47-.08,381.15,0,387.49,4.57,387.5,10.49Z"/>
            <path class="cls-1"
                  d="M196,51.24c0-2.08.6-3.91,2.5-5.1s3.89-.48,5.58.64c4.81,3.21,7,7.95,7,13.56,0,4.59-3.57,6.56-7.52,4.16C198.69,61.53,196.33,56.92,196,51.24Z"/>
            <path class="cls-1"
                  d="M228.89,725.27c.18-5.33,1.79-9.71,5.8-13,1.65-1.36,3.43-2.16,5.5-1.22s2.81,2.72,2.9,4.86a16.9,16.9,0,0,1-5,13.1c-1.76,1.76-3.92,2.71-6.34,1.82C229.17,729.83,229,727.36,228.89,725.27Z"/>
            <path class="cls-1"
                  d="M11.12,392.35c6.12,0,10.4,2.51,10.47,6.13S17.39,405,11.5,405.4s-10.86-2.18-11.15-6C.05,395.45,4.77,392.34,11.12,392.35Z"/>
            <path class="cls-1"
                  d="M564.58,51.73a16.42,16.42,0,0,1-6.64,12.32c-1.79,1.35-4,2-6.07.88s-2.66-3.37-2.38-5.62c.6-4.72,2.08-9.07,6.17-12,2-1.41,4.07-2.45,6.46-1.14S564.49,49.92,564.58,51.73Z"/>
            <path class="cls-1"
                  d="M738.29,305.71c-2.72-.26-6.84,0-7.54-4.5-.66-4.22,2.77-5.94,6.12-7.32,3.66-1.52,7.38-2,11.13-.59,4,1.51,4.74,5.11,1.86,8.26C747.57,304.06,743.31,305.69,738.29,305.71Z"/>
            <path class="cls-1"
                  d="M23.39,305.67c-5.51.09-9.15-1-12.17-3.58-3.8-3.31-2.84-7.54,2-9a15.25,15.25,0,0,1,10.7,1c3.37,1.42,6.86,3.14,6,7.4C29.09,305.42,25.24,305.55,23.39,305.67Z"/>
            <path class="cls-1"
                  d="M343.42,749.66c-.06-6.11,3.46-11.75,7.19-11.53s6.5,6.19,5.67,12.3c-.75,5.52-4,9.58-7.36,9.27C345.73,759.4,343.47,755.27,343.42,749.66Z"/>
            <path class="cls-1"
                  d="M633,661.82c.1,3.86-2.37,6-6,5.26-5.32-1.15-11-8.08-11-13.44,0-3.74,2-5.1,5.41-4.7C626.62,649.56,632.85,656.61,633,661.82Z"/>
            <path class="cls-1"
                  d="M147.16,679.92c-2.28-.07-3.89-1.38-4.23-4.16-.69-5.72,6-14,11.62-14.31,2.49-.14,4.16.85,4.78,3.38C160.71,670.56,153.46,679.91,147.16,679.92Z"/>
            <path class="cls-1"
                  d="M617.8,675c-.13,3.87-3.07,5.79-6.95,4.52-4.63-1.51-9.54-7.95-9.76-12.82-.18-4,2-5.92,5.86-5.16C612.21,662.61,618,669.77,617.8,675Z"/>
            <path class="cls-1"
                  d="M750.2,351.83c6,.1,9.66,2.23,9.79,5.65.13,3.62-3.68,6.49-9.44,7.12-6.22.67-11.57-1.93-11.77-5.71C738.56,354.8,743.55,351.72,750.2,351.83Z"/>
            <path class="cls-1"
                  d="M412.19,9.94a17,17,0,0,1-2.47,9.52c-1.11,1.7-2.59,3.14-4.86,2.87a5.16,5.16,0,0,1-4.3-3.66c-1.66-4.33-2-8.67-.06-13C401.63,3,403.22.9,406.28,1c3.43.09,4.69,2.7,5.41,5.58A28.44,28.44,0,0,1,412.19,9.94Z"/>
            <path class="cls-1"
                  d="M14.66,344.67c-4.2,0-7.38-.84-10.06-2.95-3.6-2.84-2.95-7.33,1.36-9A16,16,0,0,1,20.26,334c2.09,1.22,3.83,2.91,3.38,5.55s-2.52,3.78-4.87,4.38A40.15,40.15,0,0,1,14.66,344.67Z"/>
            <path class="cls-1"
                  d="M750,405.43c-6-.05-11.16-3.37-11.05-7s4.78-6.23,11-6.05h.49c5.53.31,9.68,3.14,9.75,6.65C760.24,402.73,755.88,405.48,750,405.43Z"/>
            <path class="cls-1"
                  d="M746.57,344.71c-3.8-.63-8.36-.25-9.58-5.31-.77-3.18,3.16-6.46,8.65-7.33,4.14-.66,8.38-.92,11.54,2.69a4.07,4.07,0,0,1,.45,5.13C755,343.62,750.92,344.46,746.57,344.71Z"/>
            <path class="cls-1"
                  d="M672.3,139.81c0,4.8-9.57,12.25-15.36,10.72-2.94-.78-3.37-2.94-2.91-5.45.92-5,7.7-11.08,12.74-11.3C670,133.63,672.35,134.76,672.3,139.81Z"/>
            <path class="cls-1"
                  d="M47.38,557.46c-1.76-.08-4-.22-5.16-2.46s-.35-4.51,1.15-6.46c3.18-4.09,7.53-5.84,12.56-6.07,2.07-.09,4.09.42,5.12,2.4s.5,3.83-.64,5.65C58,554.34,52.47,557.44,47.38,557.46Z"/>
            <path class="cls-1"
                  d="M705.29,542.47c5.19.57,9.7,2.49,12.57,7,2.54,4,.5,7.81-4.27,7.94-5.34.14-9.62-2.29-13-6.29-1.56-1.86-2.41-4.16-1-6.46C700.81,542.62,703.05,542.38,705.29,542.47Z"/>
            <path class="cls-1"
                  d="M718.71,218.05c3.3,0,5.69.19,6.95,2.63,1.39,2.67.11,5-1.63,6.82a15.4,15.4,0,0,1-13.53,5c-4.42-.53-6-3.76-3.54-7.52A15.52,15.52,0,0,1,718.71,218.05Z"/>
            <path class="cls-1"
                  d="M696.44,169.7c0,6.74-10.76,13.93-16.37,11.52-3.2-1.38-3.12-4-2.12-6.69,1.73-4.71,8.89-9.26,13.89-8.92C694.78,165.81,696.38,167.35,696.44,169.7Z"/>
            <path class="cls-1"
                  d="M721.32,539.36a15.72,15.72,0,0,1-11.85-5.54c-1.58-1.79-2.68-3.85-1.49-6.37,1.11-2.35,3.31-2.76,5.47-2.71a16.35,16.35,0,0,1,12.06,5.13c1.79,1.93,3.06,4.1,1.78,6.75C726.11,539.07,723.76,539.43,721.32,539.36Z"/>
            <path class="cls-1"
                  d="M68.2,592c-5.11.06-7.26-3.06-5.58-7.27,1.77-4.46,8.67-8.81,13.65-8.6,4.49.19,6.37,3.07,4.33,7.08A15.37,15.37,0,0,1,68.2,592Z"/>
            <path class="cls-1"
                  d="M685.53,576.12a15.92,15.92,0,0,1,12.15,8.23c2.41,4.46-.18,8.32-5.12,7.67A15.47,15.47,0,0,1,680,583.3C678,579.12,680.14,576.07,685.53,576.12Z"/>
            <path class="cls-1"
                  d="M645.05,109.59c0,5.45-7.13,12.67-12.67,12.89-3.42.14-4.87-1.74-4.8-4.88.11-5.16,6.4-12.09,11.59-12.95C642.63,104.08,645.07,106.13,645.05,109.59Z"/>
            <path class="cls-1"
                  d="M531.79,724.71c-.18,2.15,0,4.82-2.93,6s-5.13-.33-7.05-2.33A16.42,16.42,0,0,1,517.46,717c-.07-2.4.53-4.7,2.9-5.93,2.58-1.33,4.57.28,6.25,1.82A16,16,0,0,1,531.79,724.71Z"/>
            <path class="cls-1"
                  d="M456.71,745.64c-.19,1.31-.34,2.63-.57,3.93-.37,2.12-1.44,3.77-3.58,4.34a5,5,0,0,1-5.65-2.17,16.18,16.18,0,0,1-2.18-15.58c1.31-3.77,5.24-4.44,7.87-1.45A15,15,0,0,1,456.71,745.64Z"/>
            <path class="cls-1"
                  d="M11.62,425.54c-4.14-.71-8.68-.41-9.63-5.64-.59-3.3,3.43-6.54,8.69-7.34a12.68,12.68,0,0,1,3.48-.08c3.77.48,8.42.45,8.84,5.42s-4.14,5.8-7.72,7A19.2,19.2,0,0,1,11.62,425.54Z"/>
            <path class="cls-1"
                  d="M194.18,69.56c.06,2.1-.19,4.07-2.26,5.18s-3.89.47-5.64-.66a16.26,16.26,0,0,1-7.66-12.23c-.25-2,0-4.11,1.92-5.33a5.31,5.31,0,0,1,6.12.27A16,16,0,0,1,194.18,69.56Z"/>
            <path class="cls-1"
                  d="M566.41,68.16A16.35,16.35,0,0,1,574,56.74a5.25,5.25,0,0,1,5.68-.42c2,1.13,2.42,3.17,2.24,5.2a15.48,15.48,0,0,1-8.72,13C569,76.72,566.08,74.21,566.41,68.16Z"/>
            <path class="cls-1"
                  d="M437,749.64a21.6,21.6,0,0,1-1,4.29c-1.71,4.08-5.79,4.58-8.7,1.21-3.21-3.72-4.12-11.7-1.83-16,1.91-3.6,5.25-4.08,8.1-1.16C435.55,740,437.08,744.73,437,749.64Z"/>
            <path class="cls-1"
                  d="M93.19,133.76c5.3,0,12.78,6.48,13.34,11.74.35,3.21-1,5.1-4.43,5.19-5.28.15-12.66-5.55-13.74-10.62C87.53,136.18,89.35,133.8,93.19,133.76Z"/>
            <path class="cls-1"
                  d="M567.91,707.41c0,2.25-.47,4.34-2.71,5.49-2,1-3.93.48-5.63-.74a16,16,0,0,1-7-13.14c-.1-5.12,3.85-7,8.18-4.21C564.55,697.27,567.78,702.94,567.91,707.41Z"/>
            <path class="cls-1"
                  d="M13.87,312.1a14.84,14.84,0,0,1,10,3.22c1.63,1.27,2.78,3,2.32,5.18s-2.15,3.27-4.18,3.81A16.68,16.68,0,0,1,9.49,323c-2.56-1.37-5-3.16-4.29-6.53s3.64-4,6.5-4.37A13.27,13.27,0,0,1,13.87,312.1Z"/>
            <path class="cls-1"
                  d="M170.91,673c2.67,0,4.16,1.78,4.18,4.94,0,5.17-4.64,11.82-9.47,13.54-2.92,1-5.32.54-6.42-2.61C157.22,683.16,164.24,673.18,170.91,673Z"/>
            <path class="cls-1"
                  d="M16.26,464.59c-1.61-.14-3.43,0-5.13-.92C7.64,461.83,7,459,9.57,456c3.49-4.07,12.37-5.74,17.06-3.2,3.17,1.72,3.61,5.14.75,7.83A15.33,15.33,0,0,1,16.26,464.59Z"/>
            <path class="cls-1"
                  d="M31.06,521c-2.12.08-4.62-.42-5.66-3.13s.55-4.72,2.51-6.45a16.65,16.65,0,0,1,12.8-4.23c2,.15,4,.81,4.74,3a5.3,5.3,0,0,1-1.51,5.45A17.09,17.09,0,0,1,31.06,521Z"/>
            <path class="cls-1"
                  d="M582.62,80.39c0-4.75,4.31-11.17,8.73-13s7.66.38,7.2,5.26a15,15,0,0,1-8.68,12.43C585.82,87.15,582.62,85,582.62,80.39Z"/>
            <path class="cls-1"
                  d="M304,746.69a16.89,16.89,0,0,1,3.31-11.16c1.26-1.73,2.78-2.9,5-2.53s3.32,2,3.89,4a16.18,16.18,0,0,1-.38,10.75c-1.34,3.22-2.94,6.89-7.3,6.21C304,753.28,304.27,749.18,304,746.69Z"/>
            <path class="cls-1"
                  d="M228.61,50.23c-.17,2.35-.28,4.82-2.74,6s-4.56-.07-6.32-1.68c-3.72-3.4-6-7.55-5.57-12.73s4.17-7,8.32-4S228.21,45.22,228.61,50.23Z"/>
            <path class="cls-1"
                  d="M348.33,9.92c.1-.72.18-1.89.42-3,.63-3,2.07-5.54,5.31-5.87s5,2.16,6.06,5a16.21,16.21,0,0,1-.05,12.64c-.81,1.95-2.14,3.48-4.37,3.66s-3.75-1.1-4.88-2.9A16.72,16.72,0,0,1,348.33,9.92Z"/>
            <path class="cls-1"
                  d="M282.59,28.2c-.12,3.36-.26,6.5-3.48,7.57-3.51,1.17-5.56-1.39-7.23-4a17.58,17.58,0,0,1-2.75-10.47c.12-2.67,1-5,3.82-5.83,2.62-.79,4.46.6,6,2.51A16.37,16.37,0,0,1,282.59,28.2Z"/>
            <path class="cls-1"
                  d="M742.48,324.92c-2.94-.33-7.37-.09-8.07-4.69s3.38-6.12,6.82-7.35a15,15,0,0,1,10.74,0c4.15,1.67,4.72,5.72,1.37,8.68C751.12,323.53,746.93,324.91,742.48,324.92Z"/>
            <path class="cls-1"
                  d="M192.58,707.49c.63-5.63,3.11-10.2,8.07-13.06,3.86-2.23,7.19-.44,7.26,4a15.91,15.91,0,0,1-7.32,14,4.87,4.87,0,0,1-5.64.29C193,711.49,192.67,709.54,192.58,707.49Z"/>
            <path class="cls-1"
                  d="M695.34,559.73c5.48.5,10.06,2.6,12.85,7.43,2.47,4.25,0,8.34-4.89,8a15.71,15.71,0,0,1-12.66-7.72c-1.06-1.71-1.62-3.67-.49-5.66S693.42,559.82,695.34,559.73Z"/>
            <path class="cls-1"
                  d="M433.38,12.08a16,16,0,0,1-2.89,9.43c-1.17,1.7-2.66,3.14-4.93,2.78s-3.72-2.14-4.33-4.35c-1.19-4.3-1.2-8.56.93-12.63,1.28-2.44,2.82-4.72,6-4.37s4,3.13,4.78,5.7A20.47,20.47,0,0,1,433.38,12.08Z"/>
            <path class="cls-1"
                  d="M128.63,122.45c-5.75.08-13.23-7.28-13.18-13,0-3.62,2.77-5.62,6.47-4.71,4.89,1.19,10.5,7.44,11,12.44C133.3,120.38,132.1,122.4,128.63,122.45Z"/>
            <path class="cls-1"
                  d="M41.29,218c4.75.41,9.38,2.41,12.36,7.14,2.25,3.58.8,6.64-3.38,7.24a15.17,15.17,0,0,1-13.93-5.09c-1.61-1.75-2.74-3.88-1.62-6.38S38.19,218.09,41.29,218Z"/>
            <path class="cls-1"
                  d="M99.62,607.36c3.94.17,5.58,2.52,4.47,6.4-1.28,4.5-7.82,10-12.43,10.46-4.1.41-6.23-2-5.49-6.1C87.11,612.81,94.2,607.14,99.62,607.36Z"/>
            <path class="cls-1"
                  d="M139.87,648.85c2.9.12,4.67,1.28,4.69,4.51,0,5.67-5.68,12.83-11.25,13.67-3.35.51-5.51-.91-5.8-4.46C127.07,657.06,134.34,649,139.87,648.85Z"/>
            <path class="cls-1"
                  d="M656.34,611.85c0-3.94,2.61-4.66,5.69-4.53,4.86.2,11.42,6,12.51,10.81.72,3.18-.41,5.25-3.58,5.94C665.32,625.31,656.25,617.67,656.34,611.85Z"/>
            <path class="cls-1"
                  d="M601.65,686.6c0,4.59-3.08,6.66-7.3,4.6a15.24,15.24,0,0,1-8.75-12.94c-.4-4.23,2.78-6.31,6.85-4.79C597.19,675.25,601.61,681.54,601.65,686.6Z"/>
            <path class="cls-1"
                  d="M702.38,215.09c-4.45.06-6.65-3.41-4.13-7.55a15.1,15.1,0,0,1,13.27-7.48c2,0,4,.34,5.07,2.47a5.63,5.63,0,0,1-.83,6.09C712.6,213,708.08,214.78,702.38,215.09Z"/>
            <path class="cls-1"
                  d="M50.35,200a15.67,15.67,0,0,1,12.1,7.88c2.13,3.75.13,7.18-4.16,7.22a15.67,15.67,0,0,1-13.07-6c-1.5-1.92-2.38-4-1.23-6.44S47.55,200,50.35,200Z"/>
            <path class="cls-1"
                  d="M191.22,689.14c-.58,5.37-2.95,9.92-7.8,12.94a5.1,5.1,0,0,1-5.64.33,5.05,5.05,0,0,1-2.32-5.13,15.22,15.22,0,0,1,7.87-12.5C187.66,682.25,191.23,684.24,191.22,689.14Z"/>
            <path class="cls-1"
                  d="M603,97.18c-3.16.2-4.49-1.52-4.7-4.45-.4-5.42,5.28-13,10.6-14.09,2.94-.6,4.83.62,5.6,3.47C616,87.74,608.94,97,603,97.18Z"/>
            <path class="cls-1"
                  d="M162.28,92.31c0,3.87-2.44,5.64-6.27,4.65-4.91-1.28-10.08-7.9-10.14-13,0-4.17,2.54-6.29,6.33-5.19C157.3,80.28,162.33,87,162.28,92.31Z"/>
            <path class="cls-1"
                  d="M178,80.69c-.13,4.3-3.26,6.49-7.07,4.48-5.06-2.67-8.51-6.85-8.93-12.82-.33-4.57,2.81-6.7,7.09-5C173.52,69,178.14,76,178,80.69Z"/>
            <path class="cls-1"
                  d="M404.23,748.56c0-6,2.44-10.54,5.62-10.35,5.09.31,6,4.62,6.86,8.45.94,4.3.78,8.62-2.8,11.93a3.88,3.88,0,0,1-5.05.35C404.92,756.35,404.52,752.19,404.23,748.56Z"/>
            <path class="cls-1"
                  d="M721.23,507a16.73,16.73,0,0,1,12.83,5.83,4.7,4.7,0,0,1,1,5.12,5.11,5.11,0,0,1-4.82,3,16.94,16.94,0,0,1-12.81-4.55c-1.92-1.81-3.29-4-2.12-6.65C716.41,507.33,718.94,507.16,721.23,507Z"/>
            <path class="cls-1"
                  d="M684.74,154.28c-.19,6-9.59,13-15.32,11.4-3-.84-3.77-3-3.13-5.82,1.19-5.31,8.49-10.77,13.88-10.34C683.24,149.77,684.83,151.42,684.74,154.28Z"/>
            <path class="cls-1"
                  d="M733.76,286.63c-3.56,0-6.67-.08-7.71-3.33-1.13-3.5,1.52-5.43,4-7.14a15.86,15.86,0,0,1,11.33-2.57c2.39.32,4.53,1.24,5.15,3.91.55,2.41-.66,4.11-2.44,5.55A15,15,0,0,1,733.76,286.63Z"/>
            <path class="cls-1"
                  d="M376.43,750c-.13,6.59-2.77,10.71-6.75,10.51s-6.36-4.59-6-11c.34-6.18,3.11-10.34,6.77-10.15S376.55,743.88,376.43,750Z"/>
            <path class="cls-1"
                  d="M535.23,709c.17-2.24.08-4.51,2.33-5.77,2.4-1.34,4.51-.42,6.43,1.08,4.08,3.18,5.83,7.58,6.12,12.56.13,2.19-.39,4.35-2.83,5.33a5.72,5.72,0,0,1-6-1.15C537.37,718,535.77,713.72,535.23,709Z"/>
            <path class="cls-1"
                  d="M225.27,709.17a16.26,16.26,0,0,1-5.57,11.57c-1.89,1.64-3.95,2.5-6.39,1.45s-3-3.55-2.84-5.86a16,16,0,0,1,5.78-11.71c1.79-1.5,3.89-2.78,6.38-1.65S225.17,706.6,225.27,709.17Z"/>
            <path class="cls-1"
                  d="M81,149.48c5.22-.06,12.07,5.26,13.31,10.35.88,3.6-.85,6-4.37,6.11-5.36.12-12.25-4.84-13.74-9.89C75,152,76.8,149.52,81,149.48Z"/>
            <path class="cls-1"
                  d="M743.41,432.26a16.22,16.22,0,0,1,9.93,2.8c1.9,1.28,3.09,3.15,2.62,5.5-.43,2.12-2.06,3.33-4.1,3.93a16.61,16.61,0,0,1-12.56-1.19c-2.62-1.31-5-3.13-4.33-6.5.61-3.09,3.34-3.83,6-4.32A23.74,23.74,0,0,1,743.41,432.26Z"/>
            <path class="cls-1"
                  d="M585.12,697.91c-.1,4.18-3.2,6.15-7.18,4.58-4.85-1.93-9.26-9.45-8.53-14.56.5-3.52,3.51-5,7.07-3.61C580.87,686.11,585.24,693,585.12,697.91Z"/>
            <path class="cls-1"
                  d="M478.05,28.68a17.23,17.23,0,0,1,4-11.21,5.11,5.11,0,0,1,5.26-2.12,4.82,4.82,0,0,1,3.82,4.17,16.55,16.55,0,0,1-4.84,15.06c-1.49,1.49-3.51,2.18-5.48,1C478.22,34,477.84,31.31,478.05,28.68Z"/>
            <path class="cls-1"
                  d="M147.36,104.72c0,3.62-2.74,5.54-6.47,4.55-4.81-1.27-10-7.25-10.51-12.2-.45-4.1,2-6.46,5.91-5.67C141.57,92.48,147.39,99.48,147.36,104.72Z"/>
            <path class="cls-1"
                  d="M327.24,11.37c.41-2.9.16-7.59,4.95-8.31s6.09,3.71,7.31,7.37A14.57,14.57,0,0,1,339,20.71c-1.74,4.24-5.67,4.77-8.65,1.32C328.48,19.82,327.24,16,327.24,11.37Z"/>
            <path class="cls-1"
                  d="M20.57,483.89c-2.78-.44-6.47-.11-7.53-3.93s1.89-5.69,4.64-7.28a16.65,16.65,0,0,1,12-1.7c4.42.94,5.5,5,2.32,8.2S25.12,483.61,20.57,483.89Z"/>
            <path class="cls-1"
                  d="M734.36,470.65c4.49,0,8.57,1.16,11.7,4.5,3,3.16,2,6.69-2.09,8.1-4.91,1.7-12.6-.5-15.92-4.49-1.27-1.53-1.88-3.21-1-5C728.59,470.72,731.48,470.63,734.36,470.65Z"/>
            <path class="cls-1"
                  d="M681.79,608.32c-5.19,0-11.73-4.87-13.22-9.85-1.2-4,.71-6.49,4.94-6.39,5.1.12,11.32,4.54,13.13,9.32C688.18,605.48,686.18,608.31,681.79,608.32Z"/>
            <path class="cls-1"
                  d="M92.29,596.44c.06,6-9.68,13.52-15.39,11.67-3.35-1.08-4.05-3.64-3-6.77,1.73-4.86,8.47-9.44,13.64-9.33C90.48,592.07,92.39,593.2,92.29,596.44Z"/>
            <path class="cls-1"
                  d="M106.62,118.91c5.59.09,12.59,7.06,12.73,12.7.09,3.44-1.81,4.73-5,4.57-5.39-.26-12-6.3-12.81-11.59C101,121.12,103.07,118.86,106.62,118.91Z"/>
            <path class="cls-1"
                  d="M67.64,198.06c-5.67-.53-9.55-2.51-12.45-6.25-1.59-2.05-2.67-4.38-1.19-6.87s4-2.79,6.58-2.27a16.44,16.44,0,0,1,10.91,7.16c1.15,1.78,2.32,3.73.87,6A5.43,5.43,0,0,1,67.64,198.06Z"/>
            <path class="cls-1"
                  d="M384.1,749.82c0-6.22,2.41-10.37,6.1-10.48s6.47,4.18,6.83,10.11c.38,6.17-2.13,10.85-5.95,11.08C386.85,760.78,384.1,756.57,384.1,749.82Z"/>
            <path class="cls-1"
                  d="M630.27,96.28c0,5.22-6.12,12.27-11.29,13.09-3.85.61-6-1.43-5.66-5.39.44-5.21,5.7-11.37,10.7-12.52C627.74,90.6,630.3,92.57,630.27,96.28Z"/>
            <path class="cls-1"
                  d="M656.25,639.22c-5.59-.48-12-6.89-12.63-12.23-.33-3,1-4.71,4.08-5,5.73-.49,13.48,6.26,13.82,12.08C661.75,638.1,659.42,639.32,656.25,639.22Z"/>
            <path class="cls-1"
                  d="M495,737.59c-.09,2.72-.36,5.51-3.36,6.58-3.2,1.13-5.33-.82-7.08-3.22a16.58,16.58,0,0,1-2.93-12.22c.28-2.21,1.06-4.25,3.55-4.86s4.22.57,5.64,2.31A17.83,17.83,0,0,1,495,737.59Z"/>
            <path class="cls-1"
                  d="M693.35,198.07c-5-.12-7.12-3.79-4.6-7.85a15.8,15.8,0,0,1,12.68-7.65c5-.39,7.3,3.39,4.77,7.84C703.34,195.42,698.67,197.61,693.35,198.07Z"/>
            <path class="cls-1"
                  d="M279.08,731c-.15,4.62-1.37,8.32-4.28,11.37-1.62,1.7-3.53,2.6-5.83,1.8-2.13-.74-3-2.56-3.26-4.65a16.52,16.52,0,0,1,2.41-11c1.66-2.82,3.64-5.62,7.42-4.53S278.86,728.51,279.08,731Z"/>
            <path class="cls-1"
                  d="M26.74,286.64a15.21,15.21,0,0,1-9.4-2.87c-2.3-1.63-4.12-3.64-3.23-6.68s3.74-3.48,6.43-3.64a15.23,15.23,0,0,1,9.08,2.2c2.71,1.68,5.78,3.5,4.87,7.31C33.53,287,29.86,286.53,26.74,286.64Z"/>
            <path class="cls-1"
                  d="M297.81,736.47a18.25,18.25,0,0,1-3.7,11,5.24,5.24,0,0,1-5.24,2.2c-2.21-.43-3.26-2.08-3.79-4.17A15.53,15.53,0,0,1,286.65,734c1.54-2.82,3.36-5.84,7.19-4.9S297.27,733.82,297.81,736.47Z"/>
            <path class="cls-1"
                  d="M647.65,649.31c-.14,2.88-2,4.42-5.52,4.09-5.42-.53-11.65-7.14-12-12.54-.18-3.4,1.49-4.92,4.73-5C640.48,635.81,647.73,643.09,647.65,649.31Z"/>
            <path class="cls-1"
                  d="M745,464.57c-4.69.08-8.48-1-11.56-3.75-3.61-3.22-2.63-7.23,2-8.59a16.22,16.22,0,0,1,11.17.76c3.16,1.33,6.35,3.18,5.68,7.13C751.54,464.25,747.79,464.42,745,464.57Z"/>
            <path class="cls-1"
                  d="M116.79,653.45c-1.92-.12-3.54-1.36-3.8-4.21-.53-5.81,7.17-13.73,13-13.34,2.74.17,4.25,1.45,4.33,4.36C130.53,646.07,123.3,653.6,116.79,653.45Z"/>
            <path class="cls-1"
                  d="M440.07,18.31a14.94,14.94,0,0,1,2.55-9c1.3-2.06,3.05-3.68,5.69-3.23,2.88.48,3.94,2.73,4.45,5.33a16.75,16.75,0,0,1-2.43,12.39c-1.27,2.07-3,3.72-5.64,3.33-3-.43-3.78-2.94-4.38-5.4A19.79,19.79,0,0,1,440.07,18.31Z"/>
            <path class="cls-1"
                  d="M659.11,123.34c0,6-8.3,13.4-14,12.84-3.22-.31-4.13-2.32-3.87-5.17.49-5.36,7-11.71,12.31-12C656.89,118.76,658.93,120.15,659.11,123.34Z"/>
            <path class="cls-1"
                  d="M320.37,18.14a12.7,12.7,0,0,1-.79,5.66c-1.81,4-5.41,4.8-8.24,1.49a15.36,15.36,0,0,1-3.11-15.38c1.45-4.5,5.77-5.23,8.83-1.63A13.89,13.89,0,0,1,320.37,18.14Z"/>
            <path class="cls-1"
                  d="M16.94,432.27a22.05,22.05,0,0,1,3.47.32c2.48.62,4.95,1.57,5.36,4.48.37,2.64-1.4,4.34-3.47,5.59a16.43,16.43,0,0,1-13.4,1.89c-2.22-.62-3.92-1.86-4.27-4.31s.93-4.2,2.85-5.4A15.71,15.71,0,0,1,16.94,432.27Z"/>
            <path class="cls-1"
                  d="M77.25,181.57A15.57,15.57,0,0,1,64.71,173c-2.08-3.94.35-7.46,4.74-7.44,4.84,0,11.56,4.74,13.24,9.28C84.25,179.06,82.42,181.62,77.25,181.57Z"/>
            <path class="cls-1"
                  d="M513.39,732.48c-.09,1.85-.23,4.27-2.84,5.33s-4.84-.13-6.63-2.07c-3.62-4-4.67-8.73-3.89-13.87.62-4.09,4-5.42,7.32-2.92C511.62,722.18,513.36,726.71,513.39,732.48Z"/>
            <path class="cls-1"
                  d="M532.09,49.09a14.54,14.54,0,0,1,5.77-11c1.73-1.37,3.74-2.33,6-1.24s3.06,3.36,2.88,5.84a17.6,17.6,0,0,1-5.28,11.49c-1.91,1.93-4.1,3-6.71,2S532.16,52.63,532.09,49.09Z"/>
            <path class="cls-1"
                  d="M27.19,254.62c4.72.54,8.89,2.11,11.84,5.81,2.77,3.48,1.43,6.93-2.93,7.66a16.2,16.2,0,0,1-12.74-3c-2.34-1.75-4.48-3.84-3.19-7.09S24.38,254.62,27.19,254.62Z"/>
            <path class="cls-1"
                  d="M247.13,731.4c.34-4.62,1.77-9,5.58-12.13,3.6-3,7.25-1.64,7.9,3a16,16,0,0,1-3.59,13c-1.79,2.13-4,3.78-6.9,2.61C247.33,736.75,247.26,734.08,247.13,731.4Z"/>
            <path class="cls-1"
                  d="M25.32,502.55c-2.74-.07-5.56-.34-6.57-3.4s.88-5.06,3.14-6.71a17,17,0,0,1,12.24-3.28c2.33.25,4.31,1.16,5,3.5s-.54,4.16-2.31,5.66A16.77,16.77,0,0,1,25.32,502.55Z"/>
            <path class="cls-1"
                  d="M727.13,268.3c-2.52-.17-5.81.12-6.78-3.3-.9-3.15,1.34-5.27,3.74-7a16.34,16.34,0,0,1,11.22-3.33c2.39.23,4.62,1.11,5.35,3.77.66,2.41-.58,4.2-2.3,5.65A16.45,16.45,0,0,1,727.13,268.3Z"/>
            <path class="cls-1"
                  d="M103.34,639.21c-2.94-.18-4.75-2-4.26-5.74C99.79,628,107,621.91,112.44,622c3.43.07,4.76,2,4.52,5.11C116.56,632.39,109.22,639.16,103.34,639.21Z"/>
            <path class="cls-1"
                  d="M264.22,34.19c-.07,3.32,0,6.27-3,7.43-3.23,1.25-5.44-.95-7.14-3.25-2.75-3.73-4.2-8-3.26-12.65s4.45-5.88,8.07-2.82A15.31,15.31,0,0,1,264.22,34.19Z"/>
            <path class="cls-1"
                  d="M476.05,741.91c-.49,3-.28,6.69-4.11,7.67-4.07,1-5.89-2.14-7.39-5.16a15.55,15.55,0,0,1-1.17-12c1.3-4,5.17-4.88,8.11-1.8S475.69,737.63,476.05,741.91Z"/>
            <path class="cls-1"
                  d="M734.8,502.58a16.38,16.38,0,0,1-11.68-4.91c-1.48-1.43-2.42-3.35-1.57-5.42a5.09,5.09,0,0,1,4.29-3,16.75,16.75,0,0,1,12.32,2.83c2.42,1.67,4.59,3.77,3.6,7S737.67,502.5,734.8,502.58Z"/>
            <path class="cls-1"
                  d="M496.33,34.28c.24-4.52,1.82-8.66,5.57-11.61,3.47-2.74,6.83-1.47,7.85,2.85,1.11,4.72-.56,8.92-3.18,12.65-1.59,2.26-3.7,4.67-7,3.46S496.38,37.31,496.33,34.28Z"/>
            <path class="cls-1"
                  d="M40.78,250.41c-5-.18-9.49-1.68-12.69-5.74-3-3.78-1.31-7.7,3.45-8.16s9.13,1.36,12.78,4.48c1.92,1.65,3.52,3.74,2.34,6.51C45.58,250,43.17,250.3,40.78,250.41Z"/>
            <path class="cls-1"
                  d="M726.9,236.46c3.22,0,5.72.29,6.83,3.08,1,2.58-.51,4.56-2.17,6.16a16.43,16.43,0,0,1-12.66,4.69c-2.09-.11-4-.67-4.87-2.79-.94-2.29,0-4.22,1.58-5.85A16.55,16.55,0,0,1,726.9,236.46Z"/>
            <path class="cls-1"
                  d="M472.22,18.78a14,14,0,0,1-4.05,10.31c-3.38,3.5-7.37,2.46-8.48-2.25A16.82,16.82,0,0,1,461.77,14c1.42-2.36,3.3-4.41,6.37-3.76s3.75,3.39,4.06,6.1A20.51,20.51,0,0,1,472.22,18.78Z"/>
            <path class="cls-1"
                  d="M246.37,41.15c0,3.35,0,5.87-2.54,7s-4.84-.08-6.71-2a15.49,15.49,0,0,1-4.73-13.09c.2-1.89.72-3.68,2.73-4.36a5.24,5.24,0,0,1,5.56,1.1A17.29,17.29,0,0,1,246.37,41.15Z"/>
            <path class="cls-1"
                  d="M301.23,23.7c-.24,2.62,0,6.33-3.94,7.19s-5.79-2.38-7.3-5.45a15.89,15.89,0,0,1-1.32-11.17c1.15-4.48,4.89-5.57,8.3-2.41S301.3,18.84,301.23,23.7Z"/>
            <path class="cls-1"
                  d="M528.29,34.85A16.39,16.39,0,0,1,523,46.7a5.41,5.41,0,0,1-5.89,1.54c-2.2-.78-2.61-2.78-2.76-4.85a16.66,16.66,0,0,1,4.27-12.33c1.76-2.09,3.9-3.34,6.53-2.38S528.47,32.13,528.29,34.85Z"/>
            <path class="cls-2"
                  d="M727.89,380.52c.05,192.17-156,348-349.18,347.26C189,727,32.93,575.24,32.81,380.38c-.12-194.26,156-346.78,345.82-347.57C571.9,32,727.85,188,727.89,380.52Zm-250.71,7.83-.33-.56c0,.12-.06.29,0,.33a1.9,1.9,0,0,0,.44.15c1.23,4.51,6.1,7.42,5.79,13.25-3.17-3.39-5.62-6.78-9.18-9-2.27-1.42-3.61-1.29-3.9,1.78a17.65,17.65,0,0,0,3.92,13c6.46,8.2,15.44,12.39,25,15.69,1.88.65,2.95.43,3.43-2C505,407.84,490.9,389.43,477.18,388.35Zm31.34-39.77c8.94-6.59,13.75-15.5,14.85-26.47A26.11,26.11,0,0,0,521,309c-1.19-2.73-2.42-3.58-5.08-1.29-6.35,5.48-12.25,11.31-16.14,18.84-3,5.84-4.2,11.92-1.74,18.3.47,1.22.73,2.89,2.23,3,1.35.1,2.18-1.26,2.95-2.35,2.44-3.48,3.6-7.61,5.63-12.33,1.49,5.8-.66,10.19-1.06,14.74-.09.39-.17.78-.26,1.17Zm24.82-185.12c4.72-2.13,8.12-7.09,14.71-7-4,3.52-7.74,6.31-10,10.54-1.53,2.85-.68,3.92,2.32,4a19.32,19.32,0,0,0,12.17-3.71c9.52-6.93,13.78-17.17,17.67-27.71,1.29-3.49,0-4.29-3.23-4.43-13.31-.61-22.35,6.27-29.16,16.74-2.26,3.47-5.11,7-4.43,11.64l-.68-.19-.1.41ZM263.48,436.06c4.14,0,8.29.18,12.43.06,1.58-.05,3.61-.19,4.24-2,.57-1.62-1.12-2.61-2.07-3.68a19.7,19.7,0,0,0-12.14-6.25c-11.67-1.76-22.24,2-32.8,6.22-4.51,1.81-3.82,3.71-1.25,6.74,12.06,14.18,36.43,12.34,46.77,4.83-5.49-1.54-11.49-1-15.67-5.43ZM601,278.11l.34.35c-3.29,5.29-9.71,5.62-15.25,9.25,12.42,2.79,23.52,2.5,34.12-3.27a29.94,29.94,0,0,0,12.64-13c1.37-2.66,1.34-4-2-4.85a74.18,74.18,0,0,0-27.21-2c-8,1-15.11,4.08-19.25,11.7-1.45,2.69-1.12,4.18,2.47,4.32C591.83,280.81,596.34,279.05,601,278.11ZM281.32,135.26c6.08,3.09,7.61,9.8,11.67,15.48a50.15,50.15,0,0,0-1.35-23c-3.32-11.07-9.67-19.5-20.73-23.93-3.38-1.36-4.73-.6-5.11,3.1-.91,8.82-1.21,17.64.72,26.3,1.85,8.27,5.06,15.93,13.43,19.88,1.71.81,3.77,2.59,5.44,1.17s.34-3.71.18-5.67c-.38-4.83-4.09-8.59-4.19-13.47Zm-95.1,247.08c1.43-.78,2.91-.29,4.39-.16a43.33,43.33,0,0,0,11.93-.33c4.24-.84,4.68-2.3,1.74-5.5A24.11,24.11,0,0,0,187,368.6c-12.37-.6-23.45,3.76-34.44,8.78-4,1.83-2.79,3.5-.89,5.84,11.15,13.69,38.8,16.55,53,5.23-3-.52-5.78-.83-8.48-1.53-3.58-.93-7.64-1-9.94-4.65Zm-6-65.9h.14l-.22,0c.66-5.41-2-10.34-2.22-15.67-.24-5.77,0-8.15,2.09-11.11,2,7.68,3.89,15.28,8.54,21.78,2,2.86,3.73,3.37,5.75-.2,4.47-7.89,5-16.09,2.47-24.61-4.12-14-12.95-25-23.14-35-8.4-8.27-9.29-8-13.55,3.35C152.58,274.8,161.37,301.63,180.18,316.44ZM324.78,174c7.73,6.07,7.7,15.92,11.67,25,5.48-15.31,6.68-29.78,2.53-44.45-3.34-11.82-10.05-21.24-20.92-27.39-1.73-1-3.37-2.4-4.57.83-5,13.51-8.53,27.33-7.92,41.84.46,10.94,3.35,21.07,12.53,28.2,2,1.55,4.3,4.3,6.83,3,2.15-1.11,1.65-4.46,1.83-6.91.5-6.73-1.8-13.11-2.59-19.68C324.37,174.24,324.57,174.09,324.78,174Zm-94.53,43.32c13.4,11.66,23.91,25.73,33.72,40.39l-1,.94c-9.85-3.86-20.51-3.75-30.79-6.64.46,2.58,2.4,3.12,3.87,4,6.87,4.08,13.84,8,20.71,12.06,11.57,6.84,20.83,15.64,26.51,28.27A295.23,295.23,0,0,1,300,342.21c1,3.92,2.67,7.83,2.16,12.14a8,8,0,0,1-1.71-.2c-25.37-9.5-51.88-14.53-78.3-19.95-22.54-4.61-44-12.06-63.17-25.09-5.25-3.57-10.36-7.34-15.53-11,9,12.67,20.5,22.3,33.93,29.74,18.09,10,37.75,15.71,57.53,21.12,5.18,1.41,10.36,2.8,17,4.58-14.29,7.8-28.87,11.55-42.63,20.11,5.1,1.17,8.42.06,11.7-.82,14.63-3.93,29.22-8,43.86-11.92,2.85-.77,5.95-2.09,8.8-.83,8.87,3.92,17.61,8.16,26.4,12.28-3.36,1-6.48.71-9.53,1.07-9.47,1.1-17.21,5.08-21.46,14.14-.82,1.73-2.05,4.06,1.43,4.4,8.15.79,16.3,1.36,24.13-2a14.44,14.44,0,0,0,7.87-7.28c.47-1,1.34-2.14.53-3.26s-2.09-.83-3.23-.54c-2.77.72-5.53,1.5-8.82,2.4,6.61-7.43,10.4-8.28,18.22-4.5l5,2.35c5.45,2.62,5.56,2.88.84,6.62-11.49,9.1-23.08,18.07-34.58,27.14-1.32,1-2.95,2-3.47,4.63,4.83-1.65,8.58-4,12.37-6.32,12.16-7.24,24.25-14.6,36.4-21.85,1.78-1.06,3.69-2.8,5.95-1.38,10.76,6.77,21.24,13.88,27.41,25.57,7.49,14.2,7.72,29.86,6.29,44.94-2,21-6,41.79-17.52,60.38-3.6,5.83-7.39,10.55-13.93,12.67-10.95,3.55-22,7.12-33.65,4a46.63,46.63,0,0,0-17.25-1.62c-17.35,1.78-33.11,8.58-48.85,15.41a98.53,98.53,0,0,1-24.9,7.06c-17.91,2.68-35.14-.74-52.28-5.42-7.06-1.93-14.11-4.07-21.56-3.76-4.57.18-8.7,1.36-11.68,5.13.79,1.18,1.69.88,2.43.77,15.14-2.07,29.49.94,43.42,6.67,1.29.53,3.44.28,3.55,2.17.11,1.72-1.37,3-2.74,3.93-3.84,2.71-8.26,3.31-12.81,3.57-3.64.21-7.41.07-11.14,2.58a30.3,30.3,0,0,0,12.27,2.11c8.53-.15,16.9-1.65,25.21-3.43,27.71-5.93,54.48-15.26,81.79-22.62,6.62-1.78,13.19-4,20.89-4.12-3.42,5.23-8.15,7.93-11.77,11.73-11.11,11.65-24,19.05-40.82,19a57,57,0,0,0-23.36,4.71c-2.9,1.3-6,2.64-7.3,7,4.74-1.7,8.78-3.11,12.79-4.62,8.5-3.2,17.31-3,26.15-2.39,1.64.12,3.55.4,4.12,2.29.69,2.27-1.29,3.22-2.73,4.24a22.43,22.43,0,0,1-4,2.13c-6.41,2.8-12.86,5.5-19.25,8.32-8.53,3.77-17.25,7.21-24.24,13.67-1.7,1.57-3.69,3.1-3.74,6.42,3.07-1.51,5.64-2.65,8.1-4,10.68-5.86,21.64-11.07,33.33-14.61,1.68-.51,3.72-1.91,5.12-.31,1.66,1.88-.18,3.81-1.23,5.35a56.74,56.74,0,0,1-18.62,17.75c-3.58,2.07-7,4.4-7.21,10.22,5-2.94,9.33-5.7,13.85-8,7.68-3.93,13-9.82,17.29-17.33,7-12.3,15.24-23.84,25.58-33.69,13.67-13,29.24-21.42,48.86-19.66,1.18.11,3.06-.61,3.33,1.21.19,1.25-.9,2.42-2,3.3-3.63,3-8.09,3.8-12.5,4.65-5.06,1-10.24,1.45-15.15,3.13-3.79,1.3-6.92,3.38-7.87,7.62a48,48,0,0,0-1,12.42c.05,1.33.17,3.11,1.5,3.41,1.75.39,1.82-1.63,2.21-2.75a25,25,0,0,0,1.23-5.33c1.18-10.77,1.87-11.44,12.81-11.61,1.5,0,3,.12,4.5,0,2.87-.19,3,1.09,2,3.29-1.84,4.19-5.49,6.59-8.82,9.34-5,4.1-6.37,8.56-4.58,14.32,1.85-.34,2.58-2,3.62-3.19q7.49-8.72,14.85-17.52c12.38-14.8,29.18-21.59,47.2-26.2,3.16-.81,4.26.2,3.87,3.47-.72,5.94-3.66,10.6-7.75,14.72-6.77,6.81-15.38,11.08-23,16.7-8.24,6.06-14.82,13.27-17.9,23.33-3.43,11.22-10.13,19.29-21.27,24.24-9.87,4.38-19,10.44-25.61,19.41-1.69,2.29-3,4.73-1.77,8.16a100.86,100.86,0,0,1,6.73-7.65c11-10.18,23.75-17.64,37.56-23.34,1.35-.55,3-1.78,4.2-.77,1.44,1.19.47,3.19.11,4.71-1.18,4.9-4,9.12-6,13.7-3.34,7.8-4.87,15.89-2.74,24.34.32,1.28.87,2.86,2.4,2.85,1.78,0,1.56-1.81,1.84-3,1-4.61.57-9.29.45-13.94a7.72,7.72,0,0,1,2.3-6.3c4.75-4.43,6.73-10.17,8-16.31,1.49-7.33,1.86-14.89,4.62-22,2-5.1,4.64-9.64,10-11.83,5.05-2.05,6.77-1.19,7.21,4.2A105.09,105.09,0,0,1,335.61,649c-1.41,3.72-4.36,6.65-5.53,10.57-2.38,7.93.65,15.46,7.75,18.15-.24-1.76-.39-3.39-.71-5-.79-3.92-1.66-7.85-1.19-11.87.5-4.24,3.37-6.18,7.18-7.34s4.89,1.63,6.44,4c1.25,1.9,2.19,4.08,4.41,5.59,2.27-4,1.34-8,0-11.56-4.63-11.93-4.4-24.1-2.63-36.43,1.16-8.08,2.2-16.18,5.36-23.8,1.23-3,2.62-3.63,4.64-.46,2.22,3.52,4.65,6.91,7.1,10.27,2.25,3.11,2.26,6-.15,9-2.2,2.82-4.62,5.61-5.05,9.68,10.39-6.28,12.6-12.91,7.75-22.9a24.22,24.22,0,0,1-2.24-14.06c1.38-11,6.36-20.72,10.86-30.6a1.67,1.67,0,0,1,2.87-.58c1.39,1.15,2.82,2.15,3.67,3.91,3.78,7.82,7.16,15.79,8.81,24.34,1.08,5.61,1.16,11.16-1.54,16.58-5.17,10.4-2.92,17.13,8,23.54a24.1,24.1,0,0,0-3.61-7.46c-4.95-7.07-4.95-7.1-.25-14a28.94,28.94,0,0,1,3.11-4.47c1.83-1.82,2.38-6,5.06-5.5,3.62.71,5.81,4.29,7.09,7.81a21,21,0,0,1,1.35,6.82,77.85,77.85,0,0,0,1.08,11.41c2.26,13.84,1.76,26.9-9.83,37.23-3.22,2.87-2.92,6.87-.9,11.48l4-6.13c3.32-5.08,9.51-5,12.6.18,1.76,2.94,1.28,6.14.86,9.27-.46,3.52-1.11,7-1.73,10.89,7.63-3.32,10.4-11,7.36-19.16-.81-2.18-2.38-4.14-2.83-6.36-3.23-15.9-5-31.93-3-48.15.82-6.71,3.93-7.92,9.69-4a17,17,0,0,1,4.31,4.09c3.26,4.55,4.91,9.78,5.86,15.25,1.17,6.72.88,14.19,4.38,19.88,5.56,9.06,9.66,18.14,9.45,28.91,0,1,.34,2.53,1.8,2.59s2-1.22,2.33-2.29a15.43,15.43,0,0,0,.77-4.36,43.56,43.56,0,0,0-5.51-21.54A47.38,47.38,0,0,1,449.69,630c-.77-3.61,0-4.6,3.63-3.08,14.5,6.07,27.26,14.54,37.73,26.36,1.2,1.36,1.41,3.67,3.75,4.32,1.05-4.69-1.1-8.11-3.61-11.23-5.51-6.84-12.26-12.58-20.26-15.91-11.2-4.66-17.39-13-20.83-24a41.42,41.42,0,0,0-15.18-21.14c-6.13-4.59-12.63-8.67-18.86-13.12-6.45-4.6-12.3-9.75-14.34-17.92-1.6-6.37-.74-7.32,5.46-5.65C426.94,554,443.52,564.05,455.6,581c3.65,5.12,7.91,9.81,12.4,15.33,1.4-8-.59-13.34-6.49-17.15a19.72,19.72,0,0,1-4.42-4c-1.46-1.77-3.42-4-2.37-6.19.86-1.77,3.6-.73,5.51-.81a33.74,33.74,0,0,1,4.49.2c6.95.61,8.27,2,8.59,8.89.18,3.9.47,7.8,3.33,11.22,2.52-3.58,1.73-7.14,1.43-10.54-.87-10.09-3.15-12.64-13-14.78-4.72-1-9.49-1.8-14.21-2.83a16.15,16.15,0,0,1-8.31-4.33c-.75-.77-1.64-1.88-1.06-3.11s1.76-.61,2.68-.72c13.67-1.53,25.62,2.85,36.39,10.92,14.73,11,24.91,25.92,33.34,41.88,4.79,9.07,10.91,16.13,20,20.68,3.57,1.79,6.58,4.73,10.91,5.62-.47-5.25-4-7.57-7.58-9.66-7.39-4.25-12.11-10.8-15.79-18.21-.85-1.72-2.07-3.86-.62-5.64s3.72-.67,5.57-.09c11.5,3.59,22.21,8.93,32.54,15.05,1.88,1.11,3.66,2.34,6,1.32a7.24,7.24,0,0,0-2.2-3.73c-6.83-6.95-15.79-10.22-24.37-14.13-7.27-3.31-14.64-6.39-21.86-9.79-1.84-.87-4.48-2.06-3.92-4.56s3.24-2.5,5.42-2.63c8.36-.51,16.62-.26,24.66,2.61,2.69,1,5.38,2.44,8.95,2.12a13.62,13.62,0,0,0-8.18-6.59,61.31,61.31,0,0,0-21.17-3.07c-11.14.19-20.53-3.93-28.7-11-6-5.21-11.64-10.92-17.39-16.45-.66-.63-1.58-1.37-.76-2.66,2.45-.39,4.85.28,7.27.84,14.61,3.39,28.81,8.19,43.13,12.56,21.5,6.54,42.89,13.57,65.35,16.14,5.69.66,11.52,1.27,17.31-2.06-3.91-2.11-7.78-2-11.52-2.35-4.15-.43-8.3-.8-11.63-3.78s-3.07-4.06.87-5.76c13.23-5.71,26.92-8.6,41.4-6.84.83.1,1.94.71,2.76-.66-3.9-4.8-9.23-5.39-14.82-5-8.22.54-15.92,3.49-23.8,5.54-16.48,4.31-33,6.19-49.9,2.43-10.5-2.34-19.89-7.52-29.79-11.4-16.91-6.63-33.82-13.81-52.68-8.09a7,7,0,0,1-2-.05c-23.12-.3-38.19-12.57-43.21-35.21-4.21-19-2-37.7,1.58-56.49a66,66,0,0,1,17-33.83A128.06,128.06,0,0,1,456,391.23c22.53-14.72,47.18-25.34,71.27-37.09,10.26-5,21.06-7.06,32.25-8,13.88-1.13,27.59.86,41.35,2,1.92.16,4.12,1,6-.82-1.58-1.73-3.49-1.78-5.24-2.1-9.34-1.7-18.7-3.25-28-5.06-2.14-.42-5.42,0-6-2.38-.5-1.94,2.31-3.39,3.79-4.9,9.51-9.63,19.15-19.13,29.81-28.23a3.53,3.53,0,0,0-3.22,1.06c-6.82,5.33-13.58,10.73-20.47,16-8.23,6.27-16.8,12-26.88,15-1.9.57-4,1.46-5.58-.33-1.36-1.55.13-3.11.71-4.61,4.31-11.12,8.72-22.21,12.9-33.39,3-8,6.41-15.78,8.18-24.18a83.81,83.81,0,0,0-4.66,9.82c-6.32,15.57-12.1,31.39-20.91,45.82-2.69,4.42-5.66,8.63-10.48,11.08-29.7,15.11-59.89,29.13-91,41.05-2.66,1-5.4,1.85-9.22,3.16,5.05-9.44,9.41-17.64,13.82-25.81,16-29.57,32-59.17,48.09-88.67,5.67-10.36,9.79-21.91,21.8-27.52,5.22-2.45,9.82-6.23,14.67-9.46,5.74-3.83,11.44-7.72,17.52-11.82-2.28-.59-3.45.59-4.72,1.23-9.34,4.71-18.62,9.51-28,14.24-1.7.86-3.59,2.86-5.34,1.58-1.41-1-.52-3.48-.3-5.26,2.52-20.32,5.17-40.63,7.63-61,.58-4.76,1.64-9.57.37-14.51a14.13,14.13,0,0,0-2.23,4.82c-5.5,19.92-9.23,40.24-13.57,60.41-2.36,11-5.75,21.39-11.73,31.06-6.82,11-12.85,22.56-19.24,33.86-3.31,5.84-6.67,11.64-10,17.47-2-29.1-.66-58-2.94-86.73a5.24,5.24,0,0,0-1.23,2.83c-1.35,10.74-2.78,21.46-3.9,32.23-.38,3.61-1.41,4.53-4.48,2.34s-5.91-4.33-9-6.28c-3.81-2.41-7.07-5.86-12.24-7a13,13,0,0,0,3.26,5.5Q438,258.89,447.14,269c2.1,2.3,3.4,4.67,3,8-1.46,13.58-2.71,27.18-4,40.77a19.63,19.63,0,0,1-3.86,9.59,462.31,462.31,0,0,0-30.9,50.71c-6.68,12.66-12.54,25.69-18.49,39.19-2.59-4.17-3.67-8.33-4.67-12.47-5.3-21.88-5.72-44.2-5.89-66.54-.31-43.3,2.53-86.6,0-129.9a8.75,8.75,0,0,1,1.13-4.77q9.22-17.16,18.35-34.35,8.42-15.78,16.8-31.58l-.91-.53c-12.21,19.11-24.41,38.22-37,57.86-5.37-6.49-9.25-13.26-13.45-19.81-9-14-16.58-28.87-27-42l-.27-.1.35,0c.34,7,4,12.94,6.85,19,6.48,13.67,14.63,26.54,19.71,40.89,4.48,12.66,6,25.56,2.94,38.78-.36,1.58-.09,4.77-3.43,2.16-15-11.76-32.17-20.06-48.55-29.61-18.63-10.87-34.84-24.44-47.41-42.12-2.5-3.52-4.87-7.14-7.26-10.75-.6-.9-1.31-1.73-2.39-1.25s-.54,1.32-.19,2.13c5.57,13.12,12.73,25.15,22.87,35.38,12.92,13,28.46,22.41,43.66,32.28,13.57,8.8,26.85,17.93,37.92,29.91a7.92,7.92,0,0,1,2.31,6.23c-.36,8.31-.56,16.63-.77,25q-1.31,50.44-2.61,100.88c-.06,2.25.88,5.42-3.76,3.53C333,374.46,312,351.15,311,318c-.49-16.15-.37-32.3-.62-48.45-.06-3.41.41-6.93-1.81-11.65-4,17.34-3.66,34-7.8,50-5.16-21.2-13.2-40.93-26.76-58.1s-30.2-30.15-50.84-40.5c1.87,4.65,5.39,5.53,7.21,8.07-1.9.6-3.14-.82-4.54-1.57-14.15-7.59-29.19-11-45.22-9.44-13.27,1.3-24.54,6.75-33.47,16.84-2,2.27-2.62,3.75.58,5.71,13,8,26.65,14.41,41.73,17.15,12.58,2.28,24.94,2,35.56-6.6,2.5-2,6.61-4.28,5.73-7.41s-5.46-3.11-8.68-3.85c-7.59-1.73-15.31-.89-23.59-.67,3.59-3.54,7.44-5,11.46-6,5.51-1.4,11.19-1.49,16.81-2C228.25,219.32,230.23,219.88,230.25,217.27Zm201.24-24.14c-2,.78-4,1.53-6,2.36-6.94,2.87-13.74,6-19.23,11.33-4.3,4.17-4.11,5.26,1.28,7.46,9.82,4,19.59,3.28,29.11-.91,20-8.83,33.29-25,45.31-42.39,1.7-2.47.07-3.12-1.68-4a47.51,47.51,0,0,0-25.64-5.07c-24.12,2.21-41.71,15.19-55.46,34.28-.4.56-1.18,1.27-.12,2.27C409.58,195.24,419.72,189.21,431.49,193.13Zm-42.15-60.31c4.61,12.05-.71,22.25-2.52,33a9.78,9.78,0,0,0,2.06-.7,27.11,27.11,0,0,0,2.7-2.21c10-9.35,17.87-20.2,22.21-33.28,5-15,4.9-29.73-3.16-43.89-1.54-2.7-2.63-3.67-5.49-1.32-10.75,8.82-20.66,18.39-28.18,30.16-7.36,11.5-12.32,23.68-8.76,37.72,1,3.86,2.19,9.58,5.43,10,3.88.48,5.92-4.93,8-8.49C385.27,147.64,386.75,140.64,389.34,132.82ZM169.79,333.29a55,55,0,0,0-19.73-9.3c-19.13-5.14-37.57-4.9-53.81,8.49-8.72,7.19-8.64,7.62.8,13.18.43.25.85.53,1.29.76,15.3,8.1,31,14.55,48.9,13a31.59,31.59,0,0,0,21-10.2c2.91-3.11,2.22-4.5-1.4-5.9-5.24-2-10.69-2.26-16.18-2.32-3.36,0-6.71,0-11.4,0C148.86,333.72,159.18,334.88,169.79,333.29Zm436.73,19.24c8.36,9.66,28.58,16.75,44.53,15.87a42.63,42.63,0,0,0,27.11-11.19c2.13-1.93,2.77-3.18,0-5.34-10.75-8.33-22.19-15.33-35.36-19-10.55-3-21-3.51-30.69,3-2.12,1.43-5.58,2.82-5,5.5.48,2.41,4,3,6.51,3.95,6.39,2.39,13.18,2.48,20.84,3.21C625.22,354.53,615.87,351.74,606.52,352.53ZM554.6,243.32a61.33,61.33,0,0,0,29.3,6.77c14.15-.23,26.32-5,35.14-16.66,2.1-2.78,1.89-4.26-1.56-5.81-10.09-4.52-20.47-8-31.49-9s-21.68.18-29.76,9.15c-1.31,1.45-3.49,3.07-2.89,5,.71,2.22,3.53,2.1,5.62,2.43,6.31,1,12.55-.21,19.88-1.23C572,241.05,563.47,240.82,554.6,243.32Zm-108.45,37.4a44,44,0,0,0-7.08-16.33c-9.25-13.82-21.24-22.78-39-21.3-3.06.25-3.62,1.34-2.76,4.1,2.87,9.26,6.44,18.2,12.07,26.16,4.77,6.76,10.39,12.7,18.6,15.15,3.91,1.16,9.41,2.86,11.61-.52,1.89-2.93-2.51-6.66-5.06-9.4s-5.75-5.44-9.36-8.81C434.15,270.84,439.4,276.6,446.15,280.72ZM258,210.75c2.92-14.91,1.47-28-5.79-40.18a33.64,33.64,0,0,0-16-13.79c-2.64-1.14-4.45-1.28-5.16,2.56-1.67,9.08-2.54,18.2-1.52,27.34,1,8.7,3.15,17.11,10.41,23,2.66,2.17,6.14,5.78,9,3.84,2.64-1.82.78-6.48,0-9.89-.66-3.06-2.95-5.75-2.24-9.88C252.82,197.85,254.23,204.47,258,210.75Zm70.91,108.88c-2.24,5.49-4.93,9.66-5.07,14.62-.05,1.62-1.14,3.53.22,4.76,1.59,1.45,3.46.07,5.12-.52,7.07-2.55,11.32-7.91,14.18-14.56,4.81-11.16,5.1-22.91,4.65-34.8-.15-4.05-1.32-5.08-5.38-3.91-17.57,5.11-30.92,29.57-26.25,49.11C320.28,329.59,321.93,323.17,328.87,319.63ZM508.44,164.19c-.53-13.36-4.71-24.3-13.05-33.5a32.66,32.66,0,0,0-21.22-11c-2.12-.23-3.45-.06-3.29,2.73.73,12.28,3,24.14,9.38,34.82,3.33,5.56,7.9,9.9,14.32,11.77,2,.59,4.56,2,6.15.31,1.82-1.9.24-4.48-.82-6.42-2.37-4.33-5.08-8.48-8.12-13.47C499.33,152.47,502.69,158.74,508.44,164.19Zm56.34,204.42a47.28,47.28,0,0,0,11.83,18.91c9.49,9.23,20.47,14.7,34.26,11.81,2-.42,3.51-.72,2.38-3.5-4.52-11.05-10.24-21.29-19.43-29.16-5.18-4.43-11.13-7.32-18.2-6.72-2.06.17-5.14-.43-5.73,1.91-.51,2,1.34,4,3.24,5.67a125.67,125.67,0,0,0,12.46,9.54C577,376.79,571.77,372.4,564.78,368.61ZM329,224.53a42.71,42.71,0,0,0-18-5c-14.35-1.07-27.1,2.18-36.19,14.47-1.87,2.52-2.05,4.16,1.41,5.48,7.79,3,15.63,5.79,24,6.56,10.92,1,21.37.21,28.87-9.51,2.06-2.66,1.73-3.83-1.65-4.63-6.22-1.46-12.19.16-18.79,1.09C314,226.92,321.36,226.86,329,224.53Zm153.55,21.26c9.24-11.47,14.54-24.08,11.75-39.07a31.74,31.74,0,0,0-6.77-14.26c-1.7-2.09-2.94-2.21-4.65-.09-7.51,9.26-13.82,19.18-16.34,31-1.38,6.5-.95,13,2.9,18.71,1,1.46,1.76,3.71,3.81,3.45s2.51-2.48,3.2-4.13c2-4.82,2.12-10.1,3.28-15.9C483.65,232.44,481.72,239.18,482.53,245.79ZM626.76,319c12.89,4.25,24.43,4.21,35.83-.55a29.72,29.72,0,0,0,15.82-14.54c.72-1.46,1.71-2.93-1-3.8-11.71-3.8-23.56-6.07-35.86-3.53A23.47,23.47,0,0,0,627.23,305c-1.21,1.57-3.07,3.44-2.3,5.24,1,2.21,3.7,1.56,5.79,1.62,4.76.15,9.2-1.89,14.68-2.54C640.26,315.12,633.62,316.13,626.76,319ZM233.32,280.1c5.35,1.27,9.75,3.4,14.59,3.49,1.65,0,3.69.65,4.69-.77,1.23-1.76-.5-3.41-1.36-4.89-2.91-5-7.5-7.88-12.89-9.57-11.87-3.72-23.66-1.93-35.44.67-3,.67-1.89,2.32-1.1,4,7.35,16,31.5,24.74,47.85,17.11C244.18,287.23,237.56,286.35,233.32,280.1Zm2.45,108c4.4-2.94,7.93-5.15,10.74-8.21,1.29-1.41,3.56-3,2.55-5-.88-1.74-3.46-1.57-5.46-1.64-6-.22-11.06,2-15.59,5.68-8.07,6.58-13.21,15.26-17.66,24.48-1.55,3.19-.71,4.27,2.61,5,18.09,4,36.63-13,39.9-26.25C247.35,384,243.1,388.93,235.77,388.12ZM518.6,289c10.55.52,19.22-1.44,27.1-6.18,7.22-4.34,12.56-10.36,14.54-18.84.4-1.71,1.29-3.66-1.94-3.77-11.26-.38-22.33.3-32.6,5.61A20.5,20.5,0,0,0,515.78,276c-.77,1.8-2.33,4-1.11,5.6,1.52,2,4.09.62,6-.14,3.71-1.46,7.28-3.24,11.7-5.24C529.24,282.36,523.52,284.43,518.6,289ZM188,184.59c4.2,3.25,7.48,5.94,10.92,8.39,1.44,1,3.24,1.88,5,.62,1.62-1.13.49-2.63.43-4-.2-5-2.68-8.78-6.21-12.05-9.42-8.72-21.35-11-33.39-12.86-3.15-.5-2.39,2-2.3,3.65.85,15.52,19.78,31.78,36,30.52C194.94,194.4,189.91,191.3,188,184.59Zm76.39,139.24c2.77,4.5,4,9,7.35,12.12,2.27,2.11,3.76,2.45,4.78-1.14,1.87-6.58.42-12.56-3-18.15-4.64-7.54-11.47-12.88-18.6-17.85-4.41-3.07-5.28-2.73-6.57,2.39-3.65,14.47,4.63,31.6,19.06,39C267,334.79,262.91,330.3,264.42,323.83ZM581.08,191.3a36.29,36.29,0,0,0,17.36,12.22c8.32,2.85,16.65,3,24.66-1.42,2.51-1.39,3.48-2.71,1-5.18-5.38-5.26-10.92-10.31-17.73-13.65-6.11-3-12.48-4.76-19.25-2.16-1.66.65-4.1,1.12-4.26,3-.18,2.24,2.33,3.05,4.08,3.81,3.18,1.39,6.5,2.45,10.55,3.92C591.52,193.47,586.7,191.7,581.08,191.3ZM509,382.31c1.88,3.55,4.47,5.19,6.89,6.8,10.73,7.1,22,10.24,34.33,4,2.84-1.44,3.64-2.82.94-5.49-5.36-5.31-11-10.15-17.79-13.56-6-3-12.23-4.35-18.82-2-1.72.61-4.17,1.28-4.37,2.91-.27,2.13,2.32,2.9,4,3.91,3,1.84,6.89,1.6,10.19,4C519,384.53,514.32,382.6,509,382.31Zm-102.42-50.7c-.46,5.7-4.08,8.27-6.31,11.65-.49.75-1.74,1.45-.69,2.48.76.75,1.71.44,2.71-.08,2.93-1.53,6.09-2.65,8.91-4.35,10-6,16.55-14.27,16.86-26.47.05-2.19-.09-4.11-3.24-3.28-9.57,2.51-18.81,5.78-26.17,12.72-3.95,3.72-6.64,8.2-6.58,14,0,3.39,1.35,3.66,3.94,2.31C399.86,338.58,402.89,335.55,406.57,331.61ZM427,150.8c5.82-1.47,10.35-3.38,14.34-6.39,7.94-6,13.51-13.26,13.09-23.89-.12-2.8-1-3.4-3.67-2.7A59.39,59.39,0,0,0,432.06,126c-5.75,3.95-10.41,8.8-10.63,16.54-.12,4.24,1.88,4.21,4.41,2.38,3-2.19,5.72-4.86,9.34-8C433.75,142.67,430.07,146,427,150.8ZM323.9,417.39c3.89-2.12,7-3.61,9.9-5.46s2.82-3.53-.64-4.69c-6.37-2.14-12.13-.56-17.55,2.87-5.84,3.69-10.39,8.74-14.72,14.06-2.43,3-1.64,4.51,1.74,5.66,9.53,3.24,18,.77,25.91-4.69a27.52,27.52,0,0,0,9.33-9.81C332.83,416.3,329,418.32,323.9,417.39ZM541.46,219.26a36.66,36.66,0,0,0,15.15-14.48c3.65-6.38,4.82-13,2.58-20.11-.59-1.88-1.37-2.94-3.53-1.65-7.33,4.39-14.1,9.37-18.79,16.74a18.16,18.16,0,0,0-2.69,12.38c.17,1.46.17,3.35,1.65,3.9s2.77-1,3.64-2.12c1.95-2.53,3.66-5.25,5.84-8.42C545.8,210.7,543,214.28,541.46,219.26Zm-27.6-66.34c.79-4.5.73-9.06,4.26-13.8,0,4.94-.47,8.45.28,11.9.24,1.11.33,2.48,1.54,2.93s2.11-.7,2.89-1.52a16.07,16.07,0,0,0,4.63-8.65c1.71-10.45-2.11-19.62-6.58-28.63-1.51-3.06-3.15-1.14-4.65.13C506.81,123.26,505.44,142.57,513.86,152.92ZM348.19,112.36A32.54,32.54,0,0,0,337.9,93.54c-4.66-4.28-10-7.08-16.69-6.66-2,.12-3.39.42-2.71,2.8,2.47,8.71,5.37,17.22,12.36,23.55a14.76,14.76,0,0,0,8.41,4.06c1.54.15,3.53,1,4.54-.82.83-1.51-.47-2.9-1.35-4-1.8-2.3-3.82-4.43-6.46-7.45C341.28,106.33,344.28,109.52,348.19,112.36ZM138.29,262.74a22.72,22.72,0,0,0-2.92-8.58c-4.94-9-11.68-15.71-22.69-16.43-3.08-.2-4.79.41-3.6,4.18,2.1,6.68,4.32,13.28,8.75,18.84,3.31,4.16,7.34,7.23,12.9,7.59,1.12.08,2.54.42,3.28-.58,1-1.33-.28-2.68-.92-3.6-1.82-2.63-4-5-6.18-7.6C132,256.2,133.54,262,138.29,262.74ZM103.94,309c4.07.31,7,1,10,.5,2.6-.43,3-1.68,1.46-3.74a15,15,0,0,0-10.07-5.85c-8-1.22-15.52.67-23,3.29-3.08,1.08-2.13,2.57-.88,4.47,6,9.16,23.86,12.59,33.21,6.24C111.37,312.43,107.51,312.35,103.94,309Zm25.77-15.59c.59.73,1.08,1.39,1.62,2,2,2.26,4.49,6.76,6.95,4.91,2.81-2.11,1-6.72-.89-10a14.82,14.82,0,0,0-1.09-1.66c-4.28-5.61-10.25-8.78-16.47-11.71-3.87-1.83-5-.36-5.23,3.26-.49,7.21,6.46,18.47,13.28,21.49,1,.42,1.64.92,2.65.08,1.18-1,.88-1.79.24-3C129.94,297.22,128.87,295.61,129.71,293.39Zm70.65,65.25c.44.47.75.82,1.07,1.14,2,2.06,3.25,7.12,6.46,5.12,2.92-1.82,1.06-6.4-.15-9.7a2.7,2.7,0,0,0-.24-.44c-3.81-6.88-10.14-10.78-16.87-14.18-2.51-1.27-2.75.74-3.09,2.34-2.24,10.6,6.93,22.87,15.42,24.64C202.61,364.47,199.45,362.24,200.36,358.64ZM240.1,144.38c.4-9.51-7.73-19.23-16.72-20.34-2.55-.31-3.76,0-3.3,3A41.46,41.46,0,0,0,225,142a14.11,14.11,0,0,0,9.18,7.11c2.91.66,3.85-.63,2.59-3.19a65,65,0,0,0-3.91-6.15C236.34,140.11,237.29,143.64,240.1,144.38Zm192.74-38.06c7.94-2.55,13.46-6.29,14.94-14.11.32-1.72.71-4.12-2.46-3.29-5,1.33-9.79,3.2-13.29,7.31-1.59,1.86-2.7,4.26-1.78,6.41,1.19,2.78,3.07-1.7,4.94-.07Zm-210.65,103-.76.59a5.13,5.13,0,0,0,1.18.57c.16,0,.42-.32.63-.5Z"/>
            <path class="cls-3"
                  d="M340.34,133.28c10.39,13.09,18,28,27,42,4.2,6.55,8.08,13.32,13.45,19.81,12.56-19.64,24.76-38.75,37-57.86l.91.53q-8.4,15.79-16.8,31.58-9.15,17.17-18.35,34.35a8.75,8.75,0,0,0-1.13,4.77c2.53,43.3-.31,86.6,0,129.9.17,22.34.59,44.66,5.89,66.54,1,4.14,2.08,8.3,4.67,12.47,5.95-13.5,11.81-26.53,18.49-39.19a462.31,462.31,0,0,1,30.9-50.71,19.63,19.63,0,0,0,3.86-9.59c1.3-13.59,2.55-27.19,4-40.77.36-3.36-.94-5.73-3-8q-9.21-10.12-18.33-20.35a13,13,0,0,1-3.26-5.5c5.17,1.15,8.43,4.6,12.24,7,3.09,2,6,4.16,9,6.28s4.1,1.27,4.48-2.34c1.12-10.77,2.55-21.49,3.9-32.23a5.24,5.24,0,0,1,1.23-2.83c2.28,28.77.92,57.63,2.94,86.73,3.33-5.83,6.69-11.63,10-17.47,6.39-11.3,12.42-22.83,19.24-33.86,6-9.67,9.37-20.07,11.73-31.06,4.34-20.17,8.07-40.49,13.57-60.41a14.13,14.13,0,0,1,2.23-4.82c1.27,4.94.21,9.75-.37,14.51-2.46,20.33-5.11,40.64-7.63,61-.22,1.78-1.11,4.22.3,5.26,1.75,1.28,3.64-.72,5.34-1.58,9.33-4.73,18.61-9.53,28-14.24,1.27-.64,2.44-1.82,4.72-1.23-6.08,4.1-11.78,8-17.52,11.82-4.85,3.23-9.45,7-14.67,9.46-12,5.61-16.13,17.16-21.8,27.52-16.14,29.5-32.08,59.1-48.09,88.67-4.41,8.17-8.77,16.37-13.82,25.81,3.82-1.31,6.56-2.14,9.22-3.16,31.13-11.92,61.32-25.94,91-41.05,4.82-2.45,7.79-6.66,10.48-11.08,8.81-14.43,14.59-30.25,20.91-45.82a83.81,83.81,0,0,1,4.66-9.82c-1.77,8.4-5.2,16.22-8.18,24.18-4.18,11.18-8.59,22.27-12.9,33.39-.58,1.5-2.07,3.06-.71,4.61,1.56,1.79,3.68.9,5.58.33,10.08-3,18.65-8.71,26.88-15,6.89-5.25,13.65-10.65,20.47-16a3.53,3.53,0,0,1,3.22-1.06c-10.66,9.1-20.3,18.6-29.81,28.23-1.48,1.51-4.29,3-3.79,4.9.61,2.38,3.89,2,6,2.38,9.31,1.81,18.67,3.36,28,5.06,1.75.32,3.66.37,5.24,2.1-1.85,1.81-4.05,1-6,.82-13.76-1.17-27.47-3.16-41.35-2-11.19.91-22,3-32.25,8-24.09,11.75-48.74,22.37-71.27,37.09a128.06,128.06,0,0,0-23.17,18.9,66,66,0,0,0-17,33.83c-3.58,18.79-5.79,37.52-1.58,56.49,5,22.64,20.09,34.91,43.21,35.21a7,7,0,0,0,2,.05c18.86-5.72,35.77,1.46,52.68,8.09,9.9,3.88,19.29,9.06,29.79,11.4,16.87,3.76,33.42,1.88,49.9-2.43,7.88-2,15.58-5,23.8-5.54,5.59-.37,10.92.22,14.82,5-.82,1.37-1.93.76-2.76.66-14.48-1.76-28.17,1.13-41.4,6.84-3.94,1.7-4.12,2.85-.87,5.76s7.48,3.35,11.63,3.78c3.74.38,7.61.24,11.52,2.35-5.79,3.33-11.62,2.72-17.31,2.06-22.46-2.57-43.85-9.6-65.35-16.14-14.32-4.37-28.52-9.17-43.13-12.56-2.42-.56-4.82-1.23-7.27-.84-.82,1.29.1,2,.76,2.66,5.75,5.53,11.36,11.24,17.39,16.45,8.17,7.07,17.56,11.19,28.7,11a61.31,61.31,0,0,1,21.17,3.07,13.62,13.62,0,0,1,8.18,6.59c-3.57.32-6.26-1.16-8.95-2.12-8-2.87-16.3-3.12-24.66-2.61-2.18.13-4.88.22-5.42,2.63s2.08,3.69,3.92,4.56c7.22,3.4,14.59,6.48,21.86,9.79,8.58,3.91,17.54,7.18,24.37,14.13A7.24,7.24,0,0,1,565,614c-2.34,1-4.12-.21-6-1.32-10.33-6.12-21-11.46-32.54-15.05-1.85-.58-4-1.79-5.57.09s-.23,3.92.62,5.64c3.68,7.41,8.4,14,15.79,18.21,3.63,2.09,7.11,4.41,7.58,9.66-4.33-.89-7.34-3.83-10.91-5.62-9.13-4.55-15.25-11.61-20-20.68-8.43-16-18.61-30.83-33.34-41.88-10.77-8.07-22.72-12.45-36.39-10.92-.92.11-2.16-.38-2.68.72s.31,2.34,1.06,3.11a16.15,16.15,0,0,0,8.31,4.33c4.72,1,9.49,1.81,14.21,2.83,9.82,2.14,12.1,4.69,13,14.78.3,3.4,1.09,7-1.43,10.54-2.86-3.42-3.15-7.32-3.33-11.22-.32-6.86-1.64-8.28-8.59-8.89a33.74,33.74,0,0,0-4.49-.2c-1.91.08-4.65-1-5.51.81-1.05,2.18.91,4.42,2.37,6.19a19.72,19.72,0,0,0,4.42,4c5.9,3.81,7.89,9.15,6.49,17.15-4.49-5.52-8.75-10.21-12.4-15.33-12.08-16.93-28.66-27-48.42-32.31-6.2-1.67-7.06-.72-5.46,5.65,2,8.17,7.89,13.32,14.34,17.92,6.23,4.45,12.73,8.53,18.86,13.12A41.42,41.42,0,0,1,450.1,606.5c3.44,11,9.63,19.3,20.83,24,8,3.33,14.75,9.07,20.26,15.91,2.51,3.12,4.66,6.54,3.61,11.23-2.34-.65-2.55-3-3.75-4.32-10.47-11.82-23.23-20.29-37.73-26.36-3.64-1.52-4.4-.53-3.63,3.08a47.38,47.38,0,0,0,5.07,12.44A43.56,43.56,0,0,1,460.27,664a15.43,15.43,0,0,1-.77,4.36c-.34,1.07-1,2.35-2.33,2.29s-1.82-1.55-1.8-2.59c.21-10.77-3.89-19.85-9.45-28.91-3.5-5.69-3.21-13.16-4.38-19.88-1-5.47-2.6-10.7-5.86-15.25a17,17,0,0,0-4.31-4.09c-5.76-3.89-8.87-2.68-9.69,4-2,16.22-.19,32.25,3,48.15.45,2.22,2,4.18,2.83,6.36,3,8.15.27,15.84-7.36,19.16.62-3.87,1.27-7.37,1.73-10.89.42-3.13.9-6.33-.86-9.27-3.09-5.18-9.28-5.26-12.6-.18l-4,6.13c-2-4.61-2.32-8.61.9-11.48,11.59-10.33,12.09-23.39,9.83-37.23a77.85,77.85,0,0,1-1.08-11.41,21,21,0,0,0-1.35-6.82c-1.28-3.52-3.47-7.1-7.09-7.81-2.68-.53-3.23,3.68-5.06,5.5a28.94,28.94,0,0,0-3.11,4.47c-4.7,6.91-4.7,6.94.25,14a24.1,24.1,0,0,1,3.61,7.46c-10.88-6.41-13.13-13.14-8-23.54,2.7-5.42,2.62-11,1.54-16.58-1.65-8.55-5-16.52-8.81-24.34-.85-1.76-2.28-2.76-3.67-3.91a1.67,1.67,0,0,0-2.87.58c-4.5,9.88-9.48,19.58-10.86,30.6A24.22,24.22,0,0,0,370.93,597c4.85,10,2.64,16.62-7.75,22.9.43-4.07,2.85-6.86,5.05-9.68,2.41-3.08,2.4-5.93.15-9-2.45-3.36-4.88-6.75-7.1-10.27-2-3.17-3.41-2.52-4.64.46-3.16,7.62-4.2,15.72-5.36,23.8-1.77,12.33-2,24.5,2.63,36.43,1.39,3.58,2.32,7.56,0,11.56-2.22-1.51-3.16-3.69-4.41-5.59-1.55-2.35-2.63-5.14-6.44-4s-6.68,3.1-7.18,7.34c-.47,4,.4,8,1.19,11.87.32,1.6.47,3.23.71,5-7.1-2.69-10.13-10.22-7.75-18.15,1.17-3.92,4.12-6.85,5.53-10.57a105.09,105.09,0,0,0,6.52-46.11c-.44-5.39-2.16-6.25-7.21-4.2-5.38,2.19-8,6.73-10,11.83-2.76,7.06-3.13,14.62-4.62,22-1.26,6.14-3.24,11.88-8,16.31a7.72,7.72,0,0,0-2.3,6.3c.12,4.65.59,9.33-.45,13.94-.28,1.23-.06,3-1.84,3-1.53,0-2.08-1.57-2.4-2.85-2.13-8.45-.6-16.54,2.74-24.34,2-4.58,4.81-8.8,6-13.7.36-1.52,1.33-3.52-.11-4.71-1.22-1-2.85.22-4.2.77-13.81,5.7-26.55,13.16-37.56,23.34a100.86,100.86,0,0,0-6.73,7.65c-1.2-3.43.08-5.87,1.77-8.16,6.62-9,15.74-15,25.61-19.41,11.14-4.95,17.84-13,21.27-24.24,3.08-10.06,9.66-17.27,17.9-23.33,7.63-5.62,16.24-9.89,23-16.7,4.09-4.12,7-8.78,7.75-14.72.39-3.27-.71-4.28-3.87-3.47-18,4.61-34.82,11.4-47.2,26.2q-7.37,8.8-14.85,17.52c-1,1.21-1.77,2.85-3.62,3.19-1.79-5.76-.39-10.22,4.58-14.32,3.33-2.75,7-5.15,8.82-9.34,1-2.2.84-3.48-2-3.29-1.49.11-3,0-4.5,0-10.94.17-11.63.84-12.81,11.61a25,25,0,0,1-1.23,5.33c-.39,1.12-.46,3.14-2.21,2.75-1.33-.3-1.45-2.08-1.5-3.41a48,48,0,0,1,1-12.42c1-4.24,4.08-6.32,7.87-7.62,4.91-1.68,10.09-2.14,15.15-3.13,4.41-.85,8.87-1.65,12.5-4.65,1.07-.88,2.16-2,2-3.3-.27-1.82-2.15-1.1-3.33-1.21-19.62-1.76-35.19,6.63-48.86,19.66-10.34,9.85-18.57,21.39-25.58,33.69-4.29,7.51-9.61,13.4-17.29,17.33-4.52,2.31-8.81,5.07-13.85,8,.23-5.82,3.63-8.15,7.21-10.22a56.74,56.74,0,0,0,18.62-17.75c1.05-1.54,2.89-3.47,1.23-5.35-1.4-1.6-3.44-.2-5.12.31-11.69,3.54-22.65,8.75-33.33,14.61-2.46,1.34-5,2.48-8.1,4,0-3.32,2-4.85,3.74-6.42,7-6.46,15.71-9.9,24.24-13.67,6.39-2.82,12.84-5.52,19.25-8.32a22.43,22.43,0,0,0,4-2.13c1.44-1,3.42-2,2.73-4.24-.57-1.89-2.48-2.17-4.12-2.29-8.84-.62-17.65-.81-26.15,2.39-4,1.51-8,2.92-12.79,4.62,1.35-4.34,4.4-5.68,7.3-7a57,57,0,0,1,23.36-4.71c16.77,0,29.71-7.36,40.82-19,3.62-3.8,8.35-6.5,11.77-11.73-7.7.1-14.27,2.34-20.89,4.12-27.31,7.36-54.08,16.69-81.79,22.62-8.31,1.78-16.68,3.28-25.21,3.43A30.3,30.3,0,0,1,146.37,572c3.73-2.51,7.5-2.37,11.14-2.58,4.55-.26,9-.86,12.81-3.57,1.37-1,2.85-2.21,2.74-3.93-.11-1.89-2.26-1.64-3.55-2.17-13.93-5.73-28.28-8.74-43.42-6.67-.74.11-1.64.41-2.43-.77,3-3.77,7.11-4.95,11.68-5.13,7.45-.31,14.5,1.83,21.56,3.76,17.14,4.68,34.37,8.1,52.28,5.42a98.53,98.53,0,0,0,24.9-7.06c15.74-6.83,31.5-13.63,48.85-15.41a46.63,46.63,0,0,1,17.25,1.62c11.65,3.17,22.7-.4,33.65-4,6.54-2.12,10.33-6.84,13.93-12.67,11.49-18.59,15.53-39.39,17.52-60.38,1.43-15.08,1.2-30.74-6.29-44.94-6.17-11.69-16.65-18.8-27.41-25.57-2.26-1.42-4.17.32-5.95,1.38-12.15,7.25-24.24,14.61-36.4,21.85-3.79,2.27-7.54,4.67-12.37,6.32.52-2.67,2.15-3.6,3.47-4.63,11.5-9.07,23.09-18,34.58-27.14,4.72-3.74,4.61-4-.84-6.62l-5-2.35c-7.82-3.78-11.61-2.93-18.22,4.5,3.29-.9,6.05-1.68,8.82-2.4,1.14-.29,2.44-.54,3.23.54s-.06,2.22-.53,3.26a14.44,14.44,0,0,1-7.87,7.28c-7.83,3.36-16,2.79-24.13,2-3.48-.34-2.25-2.67-1.43-4.4,4.25-9.06,12-13,21.46-14.14,3.05-.36,6.17-.06,9.53-1.07-8.79-4.12-17.53-8.36-26.4-12.28-2.85-1.26-5.95.06-8.8.83-14.64,3.91-29.23,8-43.86,11.92-3.28.88-6.6,2-11.7.82,13.76-8.56,28.34-12.31,42.63-20.11-6.59-1.78-11.77-3.17-17-4.58-19.78-5.41-39.44-11.11-57.53-21.12-13.43-7.44-25-17.07-33.93-29.74,5.17,3.68,10.28,7.45,15.53,11,19.19,13,40.63,20.48,63.17,25.09,26.42,5.42,52.93,10.45,78.3,19.95a8,8,0,0,0,1.71.2c.51-4.31-1.12-8.22-2.16-12.14a295.23,295.23,0,0,0-16.68-45.93c-5.68-12.63-14.94-21.43-26.51-28.27-6.87-4.06-13.84-8-20.71-12.06-1.47-.87-3.41-1.41-3.87-4,10.28,2.89,20.94,2.78,30.79,6.64.52.6,1.1,1.12,1.82.39.09-.08-.54-.87-.84-1.33-9.81-14.66-20.32-28.73-33.72-40.39l.08.08c-1.82-2.54-5.34-3.42-7.21-8.07,20.64,10.35,37.33,23.4,50.84,40.5s21.6,36.9,26.76,58.1c4.14-16,3.77-32.66,7.8-50,2.22,4.72,1.75,8.24,1.81,11.65.25,16.15.13,32.3.62,48.45,1,33.17,22,56.48,49.35,67.65,4.64,1.89,3.7-1.28,3.76-3.53q1.33-50.44,2.61-100.88c.21-8.32.41-16.64.77-25a7.92,7.92,0,0,0-2.31-6.23c-11.07-12-24.35-21.11-37.92-29.91-15.2-9.87-30.74-19.25-43.66-32.28-10.14-10.23-17.3-22.26-22.87-35.38-.35-.81-.74-1.72.19-2.13s1.79.35,2.39,1.25c2.39,3.61,4.76,7.23,7.26,10.75,12.57,17.68,28.78,31.25,47.41,42.12,16.38,9.55,33.52,17.85,48.55,29.61,3.34,2.61,3.07-.58,3.43-2.16,3.08-13.22,1.54-26.12-2.94-38.78-5.08-14.35-13.23-27.22-19.71-40.89-2.88-6.09-6.51-12-6.85-19Z"/>
            <path class="cls-1"
                  d="M431.49,193.13c-11.77-3.92-21.91,2.11-32.43,5.36-1.06-1-.28-1.71.12-2.27,13.75-19.09,31.34-32.07,55.46-34.28A47.51,47.51,0,0,1,480.28,167c1.75.85,3.38,1.5,1.68,4-12,17.43-25.28,33.56-45.31,42.39-9.52,4.19-19.29,4.91-29.11.91-5.39-2.2-5.58-3.29-1.28-7.46,5.49-5.32,12.29-8.46,19.23-11.33C427.47,194.66,429.49,193.91,431.49,193.13Z"/>
            <path class="cls-3"
                  d="M389.34,132.82c-2.59,7.82-4.07,14.82-7.7,21-2.09,3.56-4.13,9-8,8.49-3.24-.41-4.45-6.13-5.43-10-3.56-14,1.4-26.22,8.76-37.72,7.52-11.77,17.43-21.34,28.18-30.16,2.86-2.35,3.95-1.38,5.49,1.32,8.06,14.16,8.13,28.89,3.16,43.89-4.34,13.08-12.2,23.93-22.21,33.28a27.11,27.11,0,0,1-2.7,2.21,9.78,9.78,0,0,1-2.06.7C388.63,155.07,394,144.87,389.34,132.82Z"/>
            <path class="cls-3"
                  d="M230.25,217.27c0,2.61-2,2-3.55,2.2-5.62.54-11.3.63-16.81,2-4,1-7.87,2.47-11.46,6,8.28-.22,16-1.06,23.59.67,3.22.74,7.84.83,8.68,3.85s-3.23,5.39-5.73,7.41c-10.62,8.57-23,8.88-35.56,6.6-15.08-2.74-28.72-9.18-41.73-17.15-3.2-2-2.58-3.44-.58-5.71,8.93-10.09,20.2-15.54,33.47-16.84,16-1.59,31.07,1.85,45.22,9.44,1.4.75,2.64,2.17,4.54,1.57Z"/>
            <path class="cls-3"
                  d="M169.79,333.29c-10.61,1.59-20.93.43-30.53,7.68,4.69,0,8,0,11.4,0,5.49.06,10.94.29,16.18,2.32,3.62,1.4,4.31,2.79,1.4,5.9a31.59,31.59,0,0,1-21,10.2c-17.86,1.57-33.6-4.88-48.9-13-.44-.23-.86-.51-1.29-.76-9.44-5.56-9.52-6-.8-13.18,16.24-13.39,34.68-13.63,53.81-8.49A55,55,0,0,1,169.79,333.29Z"/>
            <path class="cls-3"
                  d="M324.17,174.39c.79,6.57,3.09,13,2.59,19.68-.18,2.45.32,5.8-1.83,6.91-2.53,1.31-4.83-1.44-6.83-3-9.18-7.13-12.07-17.26-12.53-28.2-.61-14.51,2.93-28.33,7.92-41.84,1.2-3.23,2.84-1.81,4.57-.83,10.87,6.15,17.58,15.57,20.92,27.39,4.15,14.67,2.95,29.14-2.53,44.45-4-9.09-3.94-18.94-11.68-25-.24-.48-.38-1.4-1-1S323.55,174.05,324.17,174.39Z"/>
            <path class="cls-3"
                  d="M606.52,352.53c9.35-.79,18.7,2,27.88-4-7.66-.73-14.45-.82-20.84-3.21-2.48-.92-6-1.54-6.51-3.95-.54-2.68,2.92-4.07,5-5.5,9.64-6.55,20.14-6,30.69-3,13.17,3.71,24.61,10.71,35.36,19,2.79,2.16,2.15,3.41,0,5.34a42.63,42.63,0,0,1-27.11,11.19C635.1,369.28,614.88,362.19,606.52,352.53Z"/>
            <path class="cls-3"
                  d="M180.19,316.45c-18.82-14.82-27.61-41.65-20.15-61.52,4.26-11.36,5.15-11.62,13.55-3.35,10.19,10,19,21,23.14,35,2.51,8.52,2,16.72-2.47,24.61-2,3.57-3.71,3.06-5.75.2-4.65-6.5-6.55-14.1-8.54-21.78-2.13,3-2.33,5.34-2.09,11.11.21,5.33,2.88,10.26,2.22,15.67Z"/>
            <path class="cls-3"
                  d="M554.6,243.32c8.87-2.5,17.39-2.27,24.24-9.41-7.33,1-13.57,2.22-19.88,1.23-2.09-.33-4.91-.21-5.62-2.43-.6-1.88,1.58-3.5,2.89-5,8.08-9,18.69-10.17,29.76-9.15s21.4,4.49,31.49,9c3.45,1.55,3.66,3,1.56,5.81-8.82,11.71-21,16.43-35.14,16.66A61.33,61.33,0,0,1,554.6,243.32Z"/>
            <path class="cls-3"
                  d="M446.15,280.72c-6.75-4.12-12-9.88-20.94-11,3.61,3.37,6.67,5.92,9.36,8.81s6.95,6.47,5.06,9.4c-2.2,3.38-7.7,1.68-11.61.52-8.21-2.45-13.83-8.39-18.6-15.15-5.63-8-9.2-16.9-12.07-26.16-.86-2.76-.3-3.85,2.76-4.1,17.72-1.48,29.71,7.48,39,21.3A44,44,0,0,1,446.15,280.72Z"/>
            <path class="cls-3"
                  d="M258,210.75c-3.73-6.28-5.14-12.9-11.32-17-.71,4.13,1.58,6.82,2.24,9.88.74,3.41,2.6,8.07,0,9.89-2.82,1.94-6.3-1.67-9-3.84-7.26-5.93-9.43-14.34-10.41-23-1-9.14-.15-18.26,1.52-27.34.71-3.84,2.52-3.7,5.16-2.56a33.64,33.64,0,0,1,16,13.79C259.43,182.74,260.88,195.84,258,210.75Z"/>
            <path class="cls-3"
                  d="M328.87,319.63c-6.94,3.54-8.59,10-12.53,14.7-4.67-19.54,8.68-44,26.25-49.11,4.06-1.17,5.23-.14,5.38,3.91.45,11.89.16,23.64-4.65,34.8-2.86,6.65-7.11,12-14.18,14.56-1.66.59-3.53,2-5.12.52-1.36-1.23-.27-3.14-.22-4.76C323.94,329.29,326.63,325.12,328.87,319.63Z"/>
            <path class="cls-3"
                  d="M508.44,164.19c-5.75-5.45-9.11-11.72-16.65-14.76,3,5,5.75,9.14,8.12,13.47,1.06,1.94,2.64,4.52.82,6.42-1.59,1.66-4.15.28-6.15-.31-6.42-1.87-11-6.21-14.32-11.77-6.42-10.68-8.65-22.54-9.38-34.82-.16-2.79,1.17-3,3.29-2.73a32.66,32.66,0,0,1,21.22,11C503.73,139.89,507.91,150.83,508.44,164.19Z"/>
            <path class="cls-3"
                  d="M564.78,368.61c7,3.79,12.24,8.18,20.81,8.46a125.67,125.67,0,0,1-12.46-9.54c-1.9-1.65-3.75-3.64-3.24-5.67.59-2.34,3.67-1.74,5.73-1.91,7.07-.6,13,2.29,18.2,6.72,9.19,7.87,14.91,18.11,19.43,29.16,1.13,2.78-.37,3.08-2.38,3.5-13.79,2.89-24.77-2.58-34.26-11.81A47.28,47.28,0,0,1,564.78,368.61Z"/>
            <path class="cls-3"
                  d="M186.3,382.27c2.3,3.69,6.36,3.72,9.94,4.65,2.7.7,5.51,1,8.48,1.53-14.23,11.32-41.88,8.46-53-5.23-1.9-2.34-3.11-4,.89-5.84,11-5,22.07-9.38,34.44-8.78a24.11,24.11,0,0,1,17.26,7.75c2.94,3.2,2.5,4.66-1.74,5.5a43.33,43.33,0,0,1-11.93.33c-1.48-.13-3-.62-4.39.16-.06-.21-.11-.41-.16-.62l-.36.18Z"/>
            <path class="cls-3"
                  d="M329,224.53c-7.62,2.33-15,2.39-20.36,8.5,6.6-.93,12.57-2.55,18.79-1.09,3.38.8,3.71,2,1.65,4.63-7.5,9.72-17.95,10.52-28.87,9.51-8.34-.77-16.18-3.6-24-6.56-3.46-1.32-3.28-3-1.41-5.48,9.09-12.29,21.84-15.54,36.19-14.47A42.71,42.71,0,0,1,329,224.53Z"/>
            <path class="cls-3"
                  d="M482.53,245.79c-.81-6.61,1.12-13.35-2.82-20.28-1.16,5.8-1.27,11.08-3.28,15.9-.69,1.65-1.26,3.88-3.2,4.13s-2.84-2-3.81-3.45c-3.85-5.76-4.28-12.21-2.9-18.71,2.52-11.83,8.83-21.75,16.34-31,1.71-2.12,2.95-2,4.65.09a31.74,31.74,0,0,1,6.77,14.26C497.07,221.71,491.77,234.32,482.53,245.79Z"/>
            <path class="cls-3"
                  d="M626.76,319c6.86-2.84,13.5-3.85,18.64-9.63-5.48.65-9.92,2.69-14.68,2.54-2.09-.06-4.84.59-5.79-1.62-.77-1.8,1.09-3.67,2.3-5.24a23.47,23.47,0,0,1,14.32-8.47c12.3-2.54,24.15-.27,35.86,3.53,2.71.87,1.72,2.34,1,3.8a29.72,29.72,0,0,1-15.82,14.54C651.19,323.18,639.65,323.22,626.76,319Z"/>
            <path class="cls-3"
                  d="M281.38,135.16c.1,4.88,3.81,8.64,4.19,13.47.16,2,1.41,4.33-.18,5.67s-3.73-.36-5.44-1.17c-8.37-3.95-11.58-11.61-13.43-19.88-1.93-8.66-1.63-17.48-.72-26.3.38-3.7,1.73-4.46,5.11-3.1,11.06,4.43,17.41,12.86,20.73,23.93a50.15,50.15,0,0,1,1.35,23c-4.06-5.68-5.59-12.39-11.67-15.48A2,2,0,0,0,281,135s-.13.09-.2.14Z"/>
            <path class="cls-3"
                  d="M233.32,280.1c4.24,6.25,10.86,7.13,16.34,10.08-16.35,7.63-40.5-1.11-47.85-17.11-.79-1.72-1.94-3.37,1.1-4,11.78-2.6,23.57-4.39,35.44-.67,5.39,1.69,10,4.57,12.89,9.57.86,1.48,2.59,3.13,1.36,4.89-1,1.42-3,.8-4.69.77C243.07,283.5,238.67,281.37,233.32,280.1Z"/>
            <path class="cls-3"
                  d="M601,278.11c-4.7.94-9.21,2.7-14.15,2.5-3.59-.14-3.92-1.63-2.47-4.32,4.14-7.62,11.25-10.67,19.25-11.7a74.18,74.18,0,0,1,27.21,2c3.35.82,3.38,2.19,2,4.85a29.94,29.94,0,0,1-12.64,13c-10.6,5.77-21.7,6.06-34.12,3.27,5.54-3.63,12-4,15.25-9.25.4-.09.94-.26.56-.73S601.2,277.64,601,278.11Z"/>
            <path class="cls-3"
                  d="M235.77,388.12c7.33.81,11.58-4.08,17.09-5.9-3.27,13.29-21.81,30.28-39.9,26.25-3.32-.74-4.16-1.82-2.61-5,4.45-9.22,9.59-17.9,17.66-24.48,4.53-3.7,9.62-5.9,15.59-5.68,2,.07,4.58-.1,5.46,1.64,1,2-1.26,3.56-2.55,5C243.7,383,240.17,385.18,235.77,388.12Z"/>
            <path class="cls-3"
                  d="M263,436.57c4.18,4.41,10.18,3.89,15.67,5.43-10.34,7.51-34.71,9.35-46.77-4.83-2.57-3-3.26-4.93,1.25-6.74,10.56-4.22,21.13-8,32.8-6.22a19.7,19.7,0,0,1,12.14,6.25c.95,1.07,2.64,2.06,2.07,3.68-.63,1.79-2.66,1.93-4.24,2-4.14.12-8.29,0-12.43-.06-.31-.56-.7-.69-1.11-.13C262.34,436,262.77,436.35,263,436.57Z"/>
            <path class="cls-3"
                  d="M518.6,289c4.92-4.57,10.64-6.64,13.79-12.83-4.42,2-8,3.78-11.7,5.24-1.93.76-4.5,2.1-6,.14-1.22-1.56.34-3.8,1.11-5.6a20.5,20.5,0,0,1,9.92-10.13c10.27-5.31,21.34-6,32.6-5.61,3.23.11,2.34,2.06,1.94,3.77-2,8.48-7.32,14.5-14.54,18.84C537.82,287.56,529.15,289.52,518.6,289Z"/>
            <path class="cls-3"
                  d="M188,184.59c1.88,6.71,6.91,9.81,10.46,14.22-16.19,1.26-35.12-15-36-30.52-.09-1.68-.85-4.15,2.3-3.65,12,1.89,24,4.14,33.39,12.86,3.53,3.27,6,7,6.21,12.05.06,1.42,1.19,2.92-.43,4-1.8,1.26-3.6.41-5-.62C195.51,190.53,192.23,187.84,188,184.59Z"/>
            <path class="cls-3"
                  d="M264.42,323.83c-1.51,6.47,2.55,11,3,16.33-14.43-7.36-22.71-24.49-19.06-39,1.29-5.12,2.16-5.46,6.57-2.39,7.13,5,14,10.31,18.6,17.85,3.44,5.59,4.89,11.57,3,18.15-1,3.59-2.51,3.25-4.78,1.14C268.39,332.79,267.19,328.33,264.42,323.83Z"/>
            <path class="cls-3"
                  d="M533.4,163.57c-.69-4.7,2.16-8.18,4.42-11.65,6.81-10.47,15.85-17.35,29.16-16.74,3.21.14,4.52.94,3.23,4.43-3.89,10.54-8.15,20.78-17.67,27.71A19.32,19.32,0,0,1,540.37,171c-3-.07-3.85-1.14-2.32-4,2.26-4.23,6-7,10-10.54-6.59-.13-10,4.83-14.71,7Z"/>
            <path class="cls-3"
                  d="M581.08,191.3c5.62.4,10.44,2.17,16.38.53-4.05-1.47-7.37-2.53-10.55-3.92-1.75-.76-4.26-1.57-4.08-3.81.16-1.87,2.6-2.34,4.26-3,6.77-2.6,13.14-.82,19.25,2.16,6.81,3.34,12.35,8.39,17.73,13.65,2.51,2.47,1.54,3.79-1,5.18-8,4.42-16.34,4.27-24.66,1.42A36.29,36.29,0,0,1,581.08,191.3Z"/>
            <path class="cls-3"
                  d="M509,382.31c5.33.29,10,2.22,15.35.57-3.3-2.42-7.19-2.18-10.19-4-1.66-1-4.25-1.78-4-3.91.2-1.63,2.65-2.3,4.37-2.91,6.59-2.34,12.85-1,18.82,2,6.76,3.41,12.43,8.25,17.79,13.56,2.7,2.67,1.9,4.05-.94,5.49-12.33,6.25-23.6,3.11-34.33-4C513.46,387.5,510.87,385.86,509,382.31Z"/>
            <path class="cls-3"
                  d="M406.57,331.61c-3.68,3.94-6.71,7-10.57,9-2.59,1.35-3.91,1.08-3.94-2.31-.06-5.8,2.63-10.28,6.58-14,7.36-6.94,16.6-10.21,26.17-12.72,3.15-.83,3.29,1.09,3.24,3.28-.31,12.2-6.89,20.46-16.86,26.47-2.82,1.7-6,2.82-8.91,4.35-1,.52-1.95.83-2.71.08-1.05-1,.2-1.73.69-2.48C402.49,339.88,406.11,337.31,406.57,331.61Z"/>
            <path class="cls-3"
                  d="M507.81,347.89c.4-4.55,2.55-8.94,1.06-14.74-2,4.72-3.19,8.85-5.63,12.33-.77,1.09-1.6,2.45-2.95,2.35-1.5-.11-1.76-1.78-2.23-3-2.46-6.38-1.27-12.46,1.74-18.3,3.89-7.53,9.79-13.36,16.14-18.84,2.66-2.29,3.89-1.44,5.08,1.29a26.11,26.11,0,0,1,2.35,13.13c-1.1,11-5.91,19.88-14.85,26.47Z"/>
            <path class="cls-3"
                  d="M477.18,388.35C490.9,389.43,505,407.84,502.32,421c-.48,2.4-1.55,2.62-3.43,2-9.54-3.3-18.52-7.49-25-15.69a17.65,17.65,0,0,1-3.92-13c.29-3.07,1.63-3.2,3.9-1.78,3.56,2.23,6,5.62,9.18,9,.31-5.83-4.56-8.74-5.79-13.25Z"/>
            <path class="cls-3"
                  d="M427,150.8c3.11-4.82,6.79-8.13,8.22-13.87-3.62,3.13-6.31,5.8-9.34,8-2.53,1.83-4.53,1.86-4.41-2.38.22-7.74,4.88-12.59,10.63-16.54a59.39,59.39,0,0,1,18.66-8.18c2.65-.7,3.55-.1,3.67,2.7.42,10.63-5.15,17.92-13.09,23.89C437.31,147.42,432.78,149.33,427,150.8Z"/>
            <path class="cls-3"
                  d="M323.9,417.39c5.12.93,8.93-1.09,14-2.06a27.52,27.52,0,0,1-9.33,9.81c-7.9,5.46-16.38,7.93-25.91,4.69-3.38-1.15-4.17-2.67-1.74-5.66,4.33-5.32,8.88-10.37,14.72-14.06,5.42-3.43,11.18-5,17.55-2.87,3.46,1.16,3.43,2.91.64,4.69S327.79,415.27,323.9,417.39Z"/>
            <path class="cls-3"
                  d="M541.46,219.26c1.49-5,4.34-8.56,3.85-13.76-2.18,3.17-3.89,5.89-5.84,8.42-.87,1.12-2.05,2.72-3.64,2.12s-1.48-2.44-1.65-3.9a18.16,18.16,0,0,1,2.69-12.38c4.69-7.37,11.46-12.35,18.79-16.74,2.16-1.29,2.94-.23,3.53,1.65,2.24,7.11,1.07,13.73-2.58,20.11A36.66,36.66,0,0,1,541.46,219.26Z"/>
            <path class="cls-3"
                  d="M513.86,152.92c-8.42-10.35-7.05-29.66,2.37-37.64,1.5-1.27,3.14-3.19,4.65-.13,4.47,9,8.29,18.18,6.58,28.63a16.07,16.07,0,0,1-4.63,8.65c-.78.82-1.57,2-2.89,1.52s-1.3-1.82-1.54-2.93c-.75-3.45-.29-7-.28-11.9C514.59,143.86,514.65,148.42,513.86,152.92Z"/>
            <path class="cls-3"
                  d="M348.19,112.36c-3.91-2.84-6.91-6-12.19-7.37,2.64,3,4.66,5.15,6.46,7.45.88,1.13,2.18,2.52,1.35,4-1,1.83-3,1-4.54.82a14.76,14.76,0,0,1-8.41-4.06c-7-6.33-9.89-14.84-12.36-23.55-.68-2.38.72-2.68,2.71-2.8,6.66-.42,12,2.38,16.69,6.66A32.54,32.54,0,0,1,348.19,112.36Z"/>
            <path class="cls-3"
                  d="M138.29,262.74c-4.75-.79-6.25-6.54-11.38-6.18,2.16,2.6,4.36,5,6.18,7.6.64.92,1.9,2.27.92,3.6-.74,1-2.16.66-3.28.58-5.56-.36-9.59-3.43-12.9-7.59-4.43-5.56-6.65-12.16-8.75-18.84-1.19-3.77.52-4.38,3.6-4.18,11,.72,17.75,7.4,22.69,16.43A22.72,22.72,0,0,1,138.29,262.74Z"/>
            <path class="cls-3"
                  d="M103.94,309c3.57,3.37,7.43,3.45,10.74,4.91-9.35,6.35-27.17,2.92-33.21-6.24-1.25-1.9-2.2-3.39.88-4.47,7.45-2.62,15-4.51,23-3.29a15,15,0,0,1,10.07,5.85c1.58,2.06,1.14,3.31-1.46,3.74C111,310,108,309.29,103.94,309Z"/>
            <path class="cls-3"
                  d="M129.71,293.39c-.84,2.22.23,3.83,1.06,5.38.64,1.18.94,2-.24,3-1,.84-1.7.34-2.65-.08-6.82-3-13.77-14.28-13.28-21.49.25-3.62,1.36-5.09,5.23-3.26,6.22,2.93,12.19,6.1,16.47,11.71a14.82,14.82,0,0,1,1.09,1.66c1.85,3.29,3.7,7.9.89,10-2.46,1.85-4.92-2.65-6.95-4.91C130.79,294.78,130.3,294.12,129.71,293.39Z"/>
            <path class="cls-3"
                  d="M200.36,358.64c-.91,3.6,2.25,5.83,2.6,8.92-8.49-1.77-17.66-14-15.42-24.64.34-1.6.58-3.61,3.09-2.34,6.73,3.4,13.06,7.3,16.87,14.18a2.7,2.7,0,0,1,.24.44c1.21,3.3,3.07,7.88.15,9.7-3.21,2-4.43-3.06-6.46-5.12C201.11,359.46,200.8,359.11,200.36,358.64Z"/>
            <path class="cls-3"
                  d="M240.1,144.38c-2.81-.74-3.76-4.27-7.24-4.58a65,65,0,0,1,3.91,6.15c1.26,2.56.32,3.85-2.59,3.19A14.11,14.11,0,0,1,225,142a41.46,41.46,0,0,1-4.92-15c-.46-3,.75-3.28,3.3-3C232.37,125.15,240.5,134.87,240.1,144.38Z"/>
            <path class="cls-3"
                  d="M432.84,106.32l2.35-3.75c-1.87-1.63-3.75,2.85-4.94.07-.92-2.15.19-4.55,1.78-6.41,3.5-4.11,8.27-6,13.29-7.31,3.17-.83,2.78,1.57,2.46,3.29C446.3,100,440.78,103.77,432.84,106.32Z"/>
            <path class="cls-3" d="M222.19,209.29l1.05.66c-.21.18-.47.54-.63.5a5.13,5.13,0,0,1-1.18-.57Z"/>
            <polygon class="cls-3" points="180.1 316.4 180.32 316.43 180.19 316.44 180.1 316.4"/>
            <path class="cls-3" d="M533.34,163.46l-.73.32.1-.41.69.19Z"/>
            <path class="cls-3" d="M508.52,348.58l-1,.48c.09-.39.17-.78.26-1.17Z"/>
            <path class="cls-3" d="M477.28,388.27a1.9,1.9,0,0,1-.44-.15s0-.21,0-.33l.33.56Z"/>
            <path class="cls-3" d="M340.41,133.21l-.35,0,.27.1Z"/>
            <path class="cls-3" d="M264,257.66c.3.46.93,1.25.84,1.33-.72.73-1.3.21-1.82-.39Z"/>
            <path class="cls-3"
                  d="M324.17,174.39c-.62-.34-1-1.07-.45-1.41s.81.5,1,1C324.57,174.09,324.37,174.24,324.17,174.39Z"/>
            <path class="cls-3" d="M186.3,382.27l-.6-.37.36-.18c.05.21.1.41.16.62Z"/>
            <path class="cls-3" d="M281.38,135.16h-.62c.07,0,.16-.16.2-.14a2,2,0,0,1,.36.23Z"/>
            <path class="cls-3" d="M601,278.11c.16-.47.57-.79.9-.38s-.16.64-.56.73Z"/>
            <path class="cls-3" d="M263,436.57c-.22-.22-.65-.6-.62-.64.41-.56.8-.43,1.11.13Z"/>
        </g>
    </g>
</svg>