<svg xmlns="http://www.w3.org/2000/svg" viewBox="0 0 2290.02 1896.75">
    <defs>
        <style>
            .cls-1{fill:#ffd2d2;}.cls-2{fill:#fcb4b4;}.cls-3{fill:#163260;}.cls-4{fill:#f99370;}.cls-5{fill:#3a72aa;}.cls-6{fill:#23659b;}.cls-7{fill:#e57d61;}.cls-8{fill:#c16256;}.cls-9{fill:#f9f8f3;}.cls-10{fill:#eb5648;}
        </style>
    </defs>
    <g id="Capa_2" data-name="Capa 2">
        <g id="_ÎÓÈ_1" data-name="—ÎÓÈ_1">
            <g id="_7" data-name="7">
                <path class="cls-1"
                      d="M1497.14,745.44c-156.86,0-292.2-102.84-337.41-248a354.43,354.43,0,0,1,11.76-243.07c76.16-180,283.9-263.92,463.24-188.06a353.49,353.49,0,0,1-137.59,679.08Z"/>
                <path class="cls-2"
                      d="M1817.53,392c0,163.2-122.09,297.72-278.9,317.73-122.55,16.74-250.75-41.41-317.69-155.25A319,319,0,0,1,1176.74,392c0-176.94,143.45-320.39,320.4-320.39S1817.53,215.06,1817.53,392Z"/>
                <path class="cls-3"
                      d="M1358.3,300.11c20.36-18.21,44.61-54.45,44.61-54.45,19.29-31.58,36.49-64.79,65-83.27,31.08-18.86,56.32-3.63,56.32-3.63s50.16-20.06,91.18,31.9c41.83,53,25.45,100.51,40.15,134.84,32.84,83.72,32.1,140.48-26.29,176.88s-302,35.88-327.88-75.78C1293.73,393.58,1297.2,354.78,1358.3,300.11Z"/>
                <path class="cls-4"
                      d="M1429.67,397.25l0-.13c-42,76.33-107.19,130.25-198.57,109.56-30.28-5.36-60-14.84-88.58-26.31-17.82-8.58-33.13,16.7-17.29,28.43,57.79,42,130.42,73.5,203.34,61.62,75.24-14.6,137.88-71.59,170.16-139.68C1521.71,384,1452,350.09,1429.67,397.25Z"/>
                <path class="cls-5"
                      d="M1513.12,484.47c-24.5,55.52-71,89.91-124.47,107.91-95.08,32.74-216.29,5.68-227-59.57,32.58-25.16-8.27-64.86,70.78-33.76,134.24,37.05,164.89-129.07,248.36-138.5,1.29,7.18,4.92,10.78,9.74,12C1492.35,381.37,1510.81,473.05,1513.12,484.47Z"/>
                <polygon class="cls-4"
                         points="1529.97 316.57 1529.97 373.88 1502.68 420.94 1480.83 373.88 1480.83 316.57 1529.97 316.57"/>
                <path class="cls-6"
                      d="M1412.66,439.11l-2.09,144.79c-7.17,3.18-14.5,6-21.92,8.48q-3.81,1.27-7.65,2.42c.64-8.75.85-19.65-.94-27.84-3.51-16.15-9.83-44.22-7.72-69.49S1412.66,439.11,1412.66,439.11Z"/>
                <path class="cls-7" d="M1530,316.57V338.8c-28.79,13.91-49.15,6.42-49.15,6.42V316.57Z"/>
                <path class="cls-4"
                      d="M1572.56,273.17c-8.74,28.89-27.3,62.27-60.7,64.57-1.26.15-2.57.22-3.87.28-54.51,6.33-106.52-63.41-59.47-100.7A65.84,65.84,0,0,0,1463,222.68h0C1505,133.52,1596.21,189.91,1572.56,273.17Z"/>
                <path class="cls-7"
                      d="M1511.22,177.74l-1,6.85c-16.38-.39-40.3,23.46-46.9,37.6C1472,203.7,1487.6,181.42,1511.22,177.74Z"/>
                <path class="cls-7"
                      d="M1565.36,292.16C1557,311,1543.13,330.06,1523,335.6c25-9.76,32.87-42.34,32.87-42.34Z"/>
                <path class="cls-7"
                      d="M1572.56,273.17l-17.17,4.59c-18.62-12.28-33.1-47.67-33.1-47.67l49.87-10.47C1577.44,235.53,1577.88,254.37,1572.56,273.17Z"/>
                <path class="cls-3"
                      d="M1571.81,275.72s-79.07-50.65-61.21-97.89c0,0,21.3-10.51,42,.79C1574.9,190.86,1595.9,226.71,1571.81,275.72Z"/>
                <path class="cls-4"
                      d="M1585.12,286.57c-9.2,24.34-39.25,13-30.3-11.41C1564,250.82,1594.07,262.16,1585.12,286.57Z"/>
                <path class="cls-8"
                      d="M1576.16,290.49a1.3,1.3,0,0,1-.85-1.8c6.78-12.61,1.69-19.21-8-16.9a1.29,1.29,0,0,1-.6-2.51c11.36-2.66,19.06,5.43,11,20.53A1.28,1.28,0,0,1,1576.16,290.49Z"/>
                <path class="cls-8"
                      d="M1564.47,286.86c-3.42-1.32,5.39-11.71,15.37-11,.71.06.59.87.53,1.58s0,1-.73,1C1569.44,277.85,1567.11,287.09,1564.47,286.86Z"/>
                <path class="cls-8" d="M1489.27,246.26c-1.48-4.15,5.11-6.31,6.48-2.1S1490.64,250.48,1489.27,246.26Z"/>
                <path class="cls-8" d="M1461.53,237.11c-1.49-4.16,5.11-6.32,6.47-2.1S1462.89,241.33,1461.53,237.11Z"/>
                <path class="cls-8"
                      d="M1466.28,267.58c-5.69-1.63-12.84-6.68-4.85-10.54,6.9-2.44,13.51-14.85,13.58-15a1.3,1.3,0,0,1,2.3,1.21c-.29.55-7.15,13.41-15,16.18-.89.32-1.91.85-1.72,1.58,2.79,5.69,11.83,3.32,12.3,5.49C1472.67,269.31,1468.32,267.88,1466.28,267.58Z"/>
                <path class="cls-8"
                      d="M1502.51,245a1.14,1.14,0,0,1-.87-1c-1.39-9.88-10.6-15.15-10.7-15.2a1.15,1.15,0,0,1,1.12-2c.42.24,10.3,5.86,11.85,16.9a1.15,1.15,0,0,1-1,1.29A1.18,1.18,0,0,1,1502.51,245Z"/>
                <path class="cls-8"
                      d="M1463.43,228.32a1.14,1.14,0,0,1-1-1.94,16.13,16.13,0,0,1,16.13-3.38,1.14,1.14,0,1,1-.75,2.16A13.85,13.85,0,0,0,1464,228,1.08,1.08,0,0,1,1463.43,228.32Z"/>
                <path class="cls-9" d="M1461.94,281.49l28.42-2.12C1486.72,294.32,1468.12,297.14,1461.94,281.49Z"/>
                <path class="cls-8"
                      d="M1461.94,282.84a1.35,1.35,0,0,1-.1-2.7l28.42-2.12a1.35,1.35,0,0,1,.2,2.7L1462,282.83Z"/>
                <path class="cls-5"
                      d="M1650.81,673.19c-82.06,45.17-183.76,52.71-274.74,15.53,12.28-32.09,12.4-75.52,12.58-96.34.78-31.39-12.09-60.55-8.46-90.17,2.56-21.49,12.65-40.71,32.44-63.07l0,0c15.6-18.8,37.46-59.7,68.09-78.56h0l0,0h0c3.73,16.56,18.15,14.76,33.19,6.75,7.55-3.77,15.91-10.5,16-10.57,90.37.93,107.19,123.39,107.11,213.79,0,32.74-2.55,12.08,8.78,74.26C1647.58,653.78,1649.28,663.4,1650.81,673.19Z"/>
                <path class="cls-6"
                      d="M1655.53,595.73l-9.61,49-6.77,34.54c-2.7,1.34-5.42,2.63-8.17,3.9a317.22,317.22,0,0,1-81.55,25q-5.36.89-10.8,1.59a305,305,0,0,1,52-81.7c17.94-20.31,21.49-46.43,0-91.25-3.12-6.53-6.07-12.79-8.82-18.72h0c-16-34.47-25.32-58.06-25.53-58.59,0,0,0,0,0,0l40.32,55.37,40.5,55.61Z"/>
                <path class="cls-5"
                      d="M1731.5,610.46a319.58,319.58,0,0,1-182.07,97.68c10.8-25.39,25.12-52.26,40.62-66.64,23.84-22.14,25.94-51.79,18.87-77.32-9.75-35.23-33.72-68.46-52.6-104.68,0,0,0,0,0,0-13.3-25.49-24.2-52.62-26.2-83.34a153.91,153.91,0,0,1-.06-19.43s9.53-2.59,25.14-2.28c27.86.54,75.1,10.32,122.15,60.46a287.81,287.81,0,0,1,24.4,30C1721.66,472.85,1746.84,545,1731.5,610.46Z"/>
                <path class="cls-6"
                      d="M1555.17,354.41c-1.62,2-3.38,3.91-5.27,5.82a113.22,113.22,0,0,1-19.81,15.89c-11.85,7.51-24.87,12.72-36.12,13.29a33.38,33.38,0,0,1-9.32-.74c-12.21-2.85-16.53-10.92-18-17.2a24,24,0,0,1-.72-7.46c6-2,11.1-3.31,14.84-3.46l0,0v0c1.29,7.18,4.92,10.78,9.74,12C1502,375.43,1520,365,1530,356.74l.06-.05S1539.56,354.1,1555.17,354.41Z"/>
                <path class="cls-4"
                      d="M1152.48,527.15s-37.68-6.48-44-18.93c-10.06-19.78,8.61-44.82,16.28-44.11,12,1.13,32,16.3,36.24,22.81C1161,486.92,1163.6,513.28,1152.48,527.15Z"/>
                <path class="cls-4"
                      d="M1140.32,471.4c9.69-3.39,9.49-24.1,17.44-23.55,7.46.52,3.08,15.65,2.22,21.76-.78,5.57-1.43,18.13-1.43,18.13C1151.44,495.64,1128.64,475.49,1140.32,471.4Z"/>
                <path class="cls-4"
                      d="M1110.94,510.46a13.15,13.15,0,0,1-1.24-.69c-.31-.18-.6-.36-.87-.55-.56-.36-1.07-.75-1.58-1.15a17.8,17.8,0,0,1-2.72-2.7,13.07,13.07,0,0,1-2-3.18,11.19,11.19,0,0,1-.87-3.28c-.37-3.16,2.63-5.46,6.71-5.13a9.76,9.76,0,0,1,6.95,3.66l2.17,3c0,.06,0-.07,0-.05l.11.11.11.08h0l-.31-.16c4,2,5.78,5.82,4,8.59S1114.93,512.42,1110.94,510.46Z"/>
                <path class="cls-4"
                      d="M1113,499c-.53-.39-.68-.52-1-.75l-.71-.61c-.46-.4-.89-.82-1.31-1.25a19.81,19.81,0,0,1-2.3-2.81,13.51,13.51,0,0,1-1.67-3.41,9.85,9.85,0,0,1-.45-3.8c.33-3.28,4.13-5.21,8.51-4.31s7.65,4.29,7.32,7.57c0-.14-.07-.22.12.09a5.09,5.09,0,0,0,.46.55c.1.1.21.21.33.31l.16.14s.16.13,0,0c3.52,2.51,4.27,6.41,1.66,8.7S1116.56,501.51,1113,499Z"/>
                <path class="cls-4"
                      d="M1114.79,486.9l-4.61-5.65c-2.53-3.11-1.68-6.75,1.89-8.15a10.43,10.43,0,0,1,11.07,3.1l4.61,5.65c2.53,3.11,1.68,6.75-1.89,8.14A10.41,10.41,0,0,1,1114.79,486.9Z"/>
                <path class="cls-4"
                      d="M1118.21,476.75l-4.62-5.65c-2.53-3.1-1.68-6.75,1.9-8.14a10.4,10.4,0,0,1,11.06,3.1l4.61,5.65c2.53,3.1,1.69,6.75-1.89,8.14A10.39,10.39,0,0,1,1118.21,476.75Z"/>
                <path class="cls-7"
                      d="M1114.87,512.78a12.58,12.58,0,0,1-4.55-1.26,1.48,1.48,0,0,1,1.3-2.65c3.29,1.62,7.23,1.18,8.6-.94a3,3,0,0,0,.5-2.48c-.31-1.15-1.46-2.26-3.23-3.13a1.48,1.48,0,0,1,1.3-2.65c2.57,1.27,4.22,3,4.78,5a5.93,5.93,0,0,1-.87,4.86C1121.18,511.88,1118.14,513,1114.87,512.78Z"/>
                <path class="cls-7"
                      d="M1118.37,502.45a12.39,12.39,0,0,1-6.19-2.25c-.48-.35-.67-.5-.9-.68l-.89-.76c-.51-.44-1-.88-1.41-1.33a47.39,47.39,0,0,1-3.44-4.79l-.32-.48a1.47,1.47,0,0,1,2.45-1.64l.33.49a51.4,51.4,0,0,0,3.1,4.36c.39.4.79.78,1.22,1.17l.81.68c.2.15.36.29.77.58,2.93,2.09,7.18,2.32,9.26.48a3,3,0,0,0,1-2.41,5.66,5.66,0,0,0-2.6-4,1.47,1.47,0,1,1,1.71-2.4,8.42,8.42,0,0,1,3.83,6.23,5.87,5.87,0,0,1-2,4.78A9.12,9.12,0,0,1,1118.37,502.45Z"/>
                <path class="cls-7"
                      d="M1121.89,492a12,12,0,0,1-8.24-4.15l-5.22-5.35a1.47,1.47,0,1,1,2.11-2.06l5.31,5.45c2.2,2.69,6.5,3.91,9.47,2.75a3.58,3.58,0,0,0,2.32-2.31,4.05,4.05,0,0,0-1-3.53,1.47,1.47,0,0,1,2.28-1.86,6.94,6.94,0,0,1,1.6,6.14,6.42,6.42,0,0,1-4.1,4.31A10.3,10.3,0,0,1,1121.89,492Z"/>
                <path class="cls-7"
                      d="M1125.3,481.84a12,12,0,0,1-8.24-4.16l-4.61-5.65a1.48,1.48,0,0,1,2.29-1.86l4.61,5.65a9,9,0,0,0,9.38,2.66,3.58,3.58,0,0,0,2.32-2.31,4,4,0,0,0-1-3.53l-4.61-5.65a1.47,1.47,0,1,1,2.28-1.87l4.61,5.66a6.94,6.94,0,0,1,1.6,6.14,6.46,6.46,0,0,1-4.1,4.31A10.28,10.28,0,0,1,1125.3,481.84Z"/>
            </g>
            <g id="_6" data-name="6">
                <path class="cls-3"
                      d="M1488.86,1304.88c-11.37-60.25-27.16-167.12-41.9-221.52-21.73-80.18-50.4-159.14-104.46-212.83-59.63-55.72-122.1-33.87-122.1-33.87s-101-67.14-215,28.16C889.12,962,903.26,1074,855.17,1142.61,744.52,1311.47,744,1416.16,831.59,1543.35c43.3,62.86,291.46,206.28,441,134C1341.06,1644.24,1546.58,1610.63,1488.86,1304.88Z"/>
                <path class="cls-5"
                      d="M1615.72,1896.75H1394.25c-26.44-68.2-57.09-152-82.94-235.26-37.77-121.69-65.26-242.25-54.25-311.36h0c2.79-17.53,8.07-31.75,16.27-41.84a46.47,46.47,0,0,1,10.72-9.71s118.47,54.7,208.61,173.17q10,13.13,19.47,27.3c91.45,137.39,29.29,261.68,98.68,388.54Q1613.35,1892.23,1615.72,1896.75Z"/>
                <polygon class="cls-4"
                         points="1140.51 1193.59 1140.51 1322.24 1201.76 1427.89 1250.82 1322.24 1250.82 1193.59 1140.51 1193.59"/>
                <path class="cls-6"
                      d="M1498,1896.75h-82.18c.85-52.89-.37-100-7.26-103l-2.63-181.53-2.06-143.49s37.88,32.8,64.68,71.45c13.53,19.51,24.24,40.51,25.82,59.54,4.73,56.72-14.28,119-17.33,156C1473.14,1802.73,1484.16,1852,1498,1896.75Z"/>
                <path class="cls-7" d="M1140.51,1193.59v49.91c64.61,31.23,110.31,14.42,110.31,14.42v-64.33Z"/>
                <path class="cls-4"
                      d="M1061.53,1065.79c5.92,67.5,31.37,149.38,103.68,169.8,2.7.9,5.56,1.65,8.39,2.39,116.84,39,263.2-90.34,177-193.92-10-11-20.07-26.81-25-38.81h0C1274.24,790,1047.86,872,1061.53,1065.79Z"/>
                <path class="cls-7"
                      d="M1240.19,884.32l-.94,15.51C1293.18,923.7,1325,1004,1325,1004,1313.8,954.61,1290.41,903.29,1240.19,884.32Z"/>
                <path class="cls-7"
                      d="M1068.63,1110.84c9.66,45.18,31.41,93.49,73.16,114.93-50.46-33-52.74-108.15-52.74-108.15Z"/>
                <path class="cls-7"
                      d="M1061.53,1065.79l35.62,18c46.57-18.43,94.65-89.53,94.65-89.53l-104.75-45.93C1068.12,980.85,1058.5,1022.06,1061.53,1065.79Z"/>
                <path class="cls-3"
                      d="M1062,1071.74s197-74.93,179.48-186.92c0,0-42-32.91-92.53-17.57C1094.24,883.86,1031.63,953,1062,1071.74Z"/>
                <path class="cls-4"
                      d="M1027.78,1089.46c9,57.71,80.26,46.62,71.82-11.12C1090.59,1020.63,1019.34,1031.72,1027.78,1089.46Z"/>
                <path class="cls-8"
                      d="M1045.66,1102.2a2.91,2.91,0,0,0,2.71-3.56c-9.1-30.83,5.1-43,25.37-33.46,3.39,1.6,5.92-3.74,2.46-5.23-23.72-11.08-44.37,3.15-33.5,40.07A2.88,2.88,0,0,0,1045.66,1102.2Z"/>
                <path class="cls-8"
                      d="M1073,1099.6c8.12-1.34-6.46-28.21-28.69-31.3a2.94,2.94,0,0,0-3.27,2.51,2.86,2.86,0,0,0,2.53,3.19C1066.25,1077.52,1067.12,1098.89,1073,1099.6Z"/>
                <path class="cls-8"
                      d="M1256.91,1045c5.17-8.45-8.32-16.23-13.27-7.6C1238.47,1045.83,1252,1053.62,1256.91,1045Z"/>
                <path class="cls-8"
                      d="M1322.09,1037.62c5.17-8.45-8.33-16.23-13.27-7.59C1303.65,1038.48,1317.15,1046.26,1322.09,1037.62Z"/>
                <path class="cls-8"
                      d="M1297.62,1102.4c13.25-1,31.3-8.79,15.52-20.93-14-8.54-22.87-38.84-23-39.15-1-3.57-6.7-2-5.62,1.6.39,1.34,9.56,32.76,25.48,42.44,1.82,1.11,3.82,2.74,3,4.26-8.73,11.23-27.51,1.87-29.54,6.42C1282.8,1103.26,1293,1102.1,1297.62,1102.4Z"/>
                <path class="cls-8"
                      d="M1226.57,1032.28a2.58,2.58,0,0,0,2.68-1.11c12.27-18.75,36-20.64,36.27-20.65a2.58,2.58,0,0,0-.35-5.14c-1.08.08-26.53,2-40.23,23a2.58,2.58,0,0,0,.75,3.56A2.41,2.41,0,0,0,1226.57,1032.28Z"/>
                <path class="cls-4"
                      d="M1298.09,1129.94a2.59,2.59,0,0,0-2.54-1.41c-22.32,2.07-38.58-15.35-38.74-15.53a2.57,2.57,0,0,0-3.8,3.47c.73.8,18.1,19.49,43,17.18a2.57,2.57,0,0,0,2.07-3.71Z"/>
                <path class="cls-8"
                      d="M1323.86,1014.56a2.57,2.57,0,0,0,2.36-4.32c-.61-.62-15.18-15-36.12-8a2.57,2.57,0,1,0,1.62,4.88c17.86-5.94,30.33,6.26,30.85,6.78A2.57,2.57,0,0,0,1323.86,1014.56Z"/>
                <path class="cls-5"
                      d="M1457.74,1812.74c.21,25.83,5.33,53,14.63,84H875.83c2.33-7.33,4.7-14.47,7-21.38,9.4-27.85,17.91-51.61,17.72-65.79q-.63-22.93-.67-46c0-52.78,2.44-105.53,8.38-155.74h0c18.61-157.29,71.09-289.42,185.42-318.33a198.66,198.66,0,0,1,46.64-5.85l.15.11a245.9,245.9,0,0,0,34.76,23.1l1.32.69c19.36,10.25,40.46,17,55.55,10.71l0,0c8.7-3.68,15.41-11.73,18.63-26h0l.1,0a213.87,213.87,0,0,1,22.4,16c3.18,2.58,6.33,5.25,9.41,8,52.45,46.7,91.7,117,121.1,152.39l0,0c26.36,29.75,45.05,57,57.1,84.36a198.35,198.35,0,0,1,15.78,57.24C1484.86,1676.8,1456,1742.35,1457.74,1812.74Z"/>
                <path class="cls-6"
                      d="M1004.32,1687.92c-48.24,100.61-36.25,156,0,204.83q1.48,2,3.07,4H892.26l-9.39-21.38-24.23-55.1,41.28-56.68,83.69-114.92,97.8-134.3c-.66,1.68-24.69,62.16-65.1,148.26Q1010.54,1674.94,1004.32,1687.92Z"/>
                <path class="cls-5"
                      d="M1140.53,1322.29c-.07,1.66-.18,3.33-.29,5-4.5,69-29,129.88-58.83,187.1-23.17,44.4-49.57,86.58-72.36,128.56q-3.75,6.87-7.33,13.75c-16,30.64-29.73,61.29-38.45,92.75-13.22,47.71-12.16,101.85,19.48,147.32H701.22c-58.94-157,4.48-346.08,53.75-415.25q13.14-18.42,26.42-34.73,14.11-17.38,28.34-32.5c105.61-112.58,211.66-134.51,274.21-135.73,35-.7,56.42,5.12,56.42,5.12.05.91.11,1.83.15,2.73A341.23,341.23,0,0,1,1140.53,1322.29Z"/>
                <path class="cls-6"
                      d="M1083.94,1278.54c3.63,4.4,7.58,8.78,11.81,13.07a255.28,255.28,0,0,0,44.49,35.67c26.6,16.84,55.81,28.55,81.08,29.82a75.21,75.21,0,0,0,20.92-1.65c27.41-6.41,37.09-24.52,40.38-38.6a58.16,58.16,0,0,0,1.42-18.28,123.07,123.07,0,0,0-33.11-6.24l-.11-.08s0,0,0,.08c-2.9,16.1-11,24.2-21.87,26.93-25.56,6.46-66.13-16.91-88.43-35.48l-.15-.13S1119,1277.84,1083.94,1278.54Z"/>
            </g>
            <g id="_5" data-name="5">
                <path class="cls-1"
                      d="M353.44,1550.3a353.3,353.3,0,1,1,170.05-43.54A353.81,353.81,0,0,1,353.44,1550.3Z"/>
                <path class="cls-2"
                      d="M673.84,1196.86c0,121.07-67.16,226.46-166.27,280.94a320.85,320.85,0,0,1-310-1C99.42,1422.1,33,1317.23,33,1196.86c0-177,143.45-320.4,320.4-320.4S673.84,1019.9,673.84,1196.86Z"/>
                <path class="cls-3"
                      d="M485.73,1111.52c-1-1.67-1.92-3.35-2.79-5-9.55-19-12.65-45.1-12.65-45.1-3.89-36.8-5.19-74.18-23-103.08C427.3,928,398,930.9,398,930.9s-36.71-39.63-96-10.28c-60.52,29.94-59.59,88.44-87.59,113.14-65.56,61.56-57.3,116.57-20.16,174.49s309.28,57.3,321.86,2.26S497.48,1130.52,485.73,1111.52Z"/>
                <path class="cls-4"
                      d="M336.68,1104.32V1140a17.09,17.09,0,0,0,2.3,8.57l8.54,14.72a17.07,17.07,0,0,0,30.25-1.37l6.46-13.91a17,17,0,0,0,1.59-7.19v-36.46a17.08,17.08,0,0,0-17.07-17.08h-15A17.08,17.08,0,0,0,336.68,1104.32Z"/>
                <path class="cls-7" d="M336.68,1087.24v22.24c28.78,13.91,49.14,6.42,49.14,6.42v-28.66Z"/>
                <path class="cls-5"
                      d="M507.57,1477.8a320.85,320.85,0,0,1-310-1C213.18,1369.3,281,1309.66,271.35,1152c13.51-7.93,49.21-18.57,65.32-23,10.31,52,48.3,47.71,49.15-.16,12.67,4.07,47.47,14.91,59.42,20a25.36,25.36,0,0,1,11.86,10.45c20.6,32.63,4.25,121.93,22,161.75C495.57,1360.24,506.92,1421,507.57,1477.8Z"/>
                <path class="cls-4" d="M404.88,1357.51s36.38-17.34,59.57,0c0,0-14.29,29.1-39.47,29.42Z"/>
                <path class="cls-6"
                      d="M505.79,1444.47c-37,12.74-88.33,12.29-155.2-8.74h0c-25.23,8.41-81.79,19.1-120.75,16.18a72.72,72.72,0,0,1-13.19-2.23c-4.55-1.2-9.21-2.58-12.91-3.94,8.45-41,51.63-82.76,63.55-77.59,29.45,12.79,137.6-5.8,137.6-5.8,22.32,5.8,20,27.53,20,27.57C455.76,1381.89,504.06,1402.19,505.79,1444.47Z"/>
                <path class="cls-5"
                      d="M218.65,1445.35a54.21,54.21,0,0,0,8.39,1.49c39,3.67,97.7-7.34,123.53-15.95,54.43-17.6,74.35-45.81,74.35-45.81s2.3-21.76-20-27.57c0,0-108.15,18.59-137.6,5.81-11.92-5.18-19.6-40.87-13.1-57.13,25.78-64.55,28.1-159.42,28.1-159.42C142,1198.6,72.83,1407.61,218.65,1445.35Z"/>
                <path class="cls-5"
                      d="M350.56,1430.88c286,90,288.39-196.49,94.68-282.07,0,0,5.25,89.1,20.36,133.28,23,67.27-9.84,95-40.69,103Z"/>
                <path class="cls-4"
                      d="M231.14,1352.86c5.23-9.31,19.4-20.69,39.29-13.74h0c29.35,11.69,35.93,29.1,35.93,29.1-10.3.14-23.13,2.86-31.78.69-4.42,1.5-7.93,5.35-10.24,14.46-2.2,9.6-10.94,4.7-9.48-3.84-3.45,9-12.17,4-8.92-5.5-12.45,6.85-5.81-15.48-1.58-20.89a23,23,0,0,0-4.82,5.19C233,1367.89,226.1,1361.84,231.14,1352.86Z"/>
                <path class="cls-7"
                      d="M254.86,1380.62c2.32-.3,2.38-13.81,11.2-19.71,2.94-2.93,8.35-.53,9.43-2.42-1.57-3.42-8.11-1-10.68.62C256.79,1364.9,251.9,1380.49,254.86,1380.62Z"/>
                <path class="cls-7"
                      d="M245.94,1375.11c2.13.42,5.56-25.87,18.57-24.71a1.1,1.1,0,0,0,1.22-1C254.36,1341.4,241.6,1376.39,245.94,1375.11Z"/>
                <path class="cls-7"
                      d="M243.91,1354.22c2.19-.45,4.32-11.88,16.28-10.44a1.09,1.09,0,1,0,.33-2.15C248.41,1339.81,240.31,1354,243.91,1354.22Z"/>
                <path class="cls-4"
                      d="M305.22,1013.52c-4.49,29.84-2,68,27.15,84.36,1.08.67,2.24,1.3,3.39,1.91,46.52,29.09,123.41-11.61,96.89-65.48a66.19,66.19,0,0,1-6.78-19.42h0C426.15,916.33,319.56,928.16,305.22,1013.52Z"/>
                <path class="cls-7"
                      d="M401.55,953.6l-2,6.62c15,6.67,23.72,38.69,26.25,54.08C423.66,990.82,421.32,967.06,401.55,953.6Z"/>
                <path class="cls-7"
                      d="M303.58,1033.76c-.53,20.58,3.84,43.77,19.68,57.42-18.41-19.54-11.54-52.34-11.54-52.34Z"/>
                <path class="cls-7"
                      d="M305.22,1013.52,318.76,1025c22.1-3.11,50.35-28.88,50.35-28.88l-40.56-30.84C317,977.42,308.48,994.26,305.22,1013.52Z"/>
                <path class="cls-3"
                      d="M304.81,1016.15S398,1004.29,402.07,954c0,0-14.73-18.64-38.23-17.28C338.4,938.15,304.06,961.54,304.81,1016.15Z"/>
                <path class="cls-4"
                      d="M288.13,1020.24c-2.12,25.93,29.89,28.57,32.27,2.69C322.52,997,290.51,994.35,288.13,1020.24Z"/>
                <path class="cls-8"
                      d="M294.54,1027.62a1.3,1.3,0,0,0,1.55-1.26c-.72-14.29,6.7-18.08,14.48-11.83,1.3,1,2.95-1,1.61-2-9.11-7.28-19.54-3.27-18.69,13.85A1.28,1.28,0,0,0,294.54,1027.62Z"/>
                <path class="cls-8"
                      d="M306.66,1029.36c3.66.27.15-12.89-9.15-16.56a1.32,1.32,0,0,0-1.68.75,1.28,1.28,0,0,0,.76,1.65C306,1019.09,304.18,1028.43,306.66,1029.36Z"/>
                <path class="cls-8" d="M392,1024.92c3.13-3.12-1.91-7.9-4.95-4.67S389,1028.15,392,1024.92Z"/>
                <path class="cls-8" d="M421,1028.55c3.12-3.12-1.91-7.9-4.95-4.68S418,1031.77,421,1028.55Z"/>
                <path class="cls-8"
                      d="M403.63,1054c5.84,1,14.48-.53,8.91-7.44-5.19-5.17-5.85-19.21-5.85-19.35a1.3,1.3,0,0,0-2.6.11c0,.61.71,15.18,6.6,21,.67.66,1.36,1.58.87,2.16-4.95,4-12.11-2.07-13.46-.31C397.12,1052.87,401.67,1053.43,403.63,1054Z"/>
                <path class="cls-6"
                      d="M253,1337a2,2,0,0,1-2-1.72c-.1-.62-2.32-15.44,2.64-35.25,4.88-19.48,14.23-48.61,14.33-48.9a2,2,0,1,1,3.87,1.24c-.09.29-9.4,29.3-14.25,48.65-4.75,19-2.59,33.49-2.57,33.64a2,2,0,0,1-1.7,2.32Z"/>
                <path class="cls-6"
                      d="M465.35,1358a2,2,0,0,1-1.62-3.26c.1-.13,10.36-14.37,6.62-44.76-3.21-26.13-14.6-58.35-14.71-58.67a2,2,0,1,1,3.83-1.37c.11.33,11.65,33,14.92,59.54,3.95,32.19-6.94,47.09-7.41,47.71A2,2,0,0,1,465.35,1358Z"/>
                <path class="cls-6"
                      d="M348,1436a2,2,0,0,1-.74-3.93c.41-.16,41.33-16.14,74.28-46.64a2,2,0,1,1,2.76,3c-33.54,31-75.16,47.29-75.57,47.45A2.08,2.08,0,0,1,348,1436Z"/>
                <path class="cls-6"
                      d="M362.63,1182.46c-39.37,0-38.46-49.91-38.46-49.91,7.43-2.2,12.5-3.58,12.5-3.58,10.31,52,48.3,47.71,49.15-.16,0,0,6.59,2,15.61,4.92C403.35,1150.09,394.29,1182.43,362.63,1182.46Z"/>
                <path class="cls-6"
                      d="M308.89,1369.78a2,2,0,0,1-.25-4.06c.59-.07,59.69-7.43,94.4-10.24a2,2,0,1,1,.33,4c-34.62,2.81-93.63,10.16-94.22,10.23Z"/>
                <path class="cls-8"
                      d="M384.62,1015.67a31.56,31.56,0,0,1-3.21-.15,1.22,1.22,0,1,1,.29-2.43c.09,0,9.28,1.07,17.26-3.09a1.23,1.23,0,0,1,1.65.52,1.21,1.21,0,0,1-.52,1.64A34.27,34.27,0,0,1,384.62,1015.67Z"/>
                <path class="cls-8"
                      d="M425,1020.39a1.32,1.32,0,0,1-.39-.06c-8.34-2.84-12.13-7.32-12.28-7.51a1.22,1.22,0,1,1,1.87-1.56c.05.06,3.57,4.17,11.19,6.76a1.22,1.22,0,0,1-.39,2.37Z"/>
                <path class="cls-8"
                      d="M400,1066.08a1.22,1.22,0,0,1-1.16-.84,8,8,0,0,0-4-5c-4-2-9.3-.15-9.35-.13a1.23,1.23,0,0,1-1.56-.74,1.21,1.21,0,0,1,.74-1.56c.25-.09,6.27-2.2,11.23.23a10.35,10.35,0,0,1,5.26,6.39,1.22,1.22,0,0,1-.78,1.54A1.31,1.31,0,0,1,400,1066.08Z"/>
            </g>
            <g id="_4" data-name="4">
                <path class="cls-1"
                      d="M663.68,811.3a353,353,0,0,1-288-148.6C302,559.36,292.08,428.92,338,320.28A354.35,354.35,0,0,1,526.1,132.21c179-75.7,386.92,7.64,463.24,188.07,46.17,109.17,36.49,242.26-41.25,347.45A352.88,352.88,0,0,1,663.68,811.3Z"/>
                <circle class="cls-2" cx="663.68" cy="457.86" r="320.4"/>
                <path class="cls-3"
                      d="M756.37,365.92q-2.08-2-4-4.12c-14.14-15.86-23.92-40.27-23.92-40.27-13.3-34.53-24.26-70.29-49-93.59-27.19-24.13-54.76-13.68-54.76-13.68s-45.74-28.75-95.42,15c-50.67,44.62-34.6,100.87-55.23,132-47.35,76.46-40.14,162.8,17.48,200.4,135.21,88.22,345-19.23,342.91-75.65C834.5,410.52,772.64,381.22,756.37,365.92Z"/>
                <path class="cls-4"
                      d="M847.38,513c-28.86-60.46-59.83-131.63-131-153.86-6.22-1.94-14.14,3.31-3.81,8,7.54,3.46,13,6.07,19.59,10.71-6.07,1.12-11,5.22-7.47,9.68-6.45,2.14-10.37,6.8-6.11,11.91-7.75,3,10.71,27.06,16.52,16.45-.37.67,10.79,19.91,24.56,24.7,17.43,6.07,17.16,88.28,17.16,88.28s-20.31-38.47-38.75-68.27c-66.1-61.16-93.09,18.9-63.69,51.46,36.55,40.47,97.18,146.16,150.22,158.41C924.27,683.29,877.84,564.33,847.38,513Z"/>
                <path class="cls-7"
                      d="M748.6,383.2c-5.91-4.66-15.31-5.1-15.34-4.8-4.63-2.94,9.46-2.42,15.89,3.25A.88.88,0,0,1,748.6,383.2Z"/>
                <path class="cls-7"
                      d="M742.77,391.33c-10.64-7.58-16.08-2.11-17.76-3.5-.69-2,8.19-5.34,18.28,1.94A.87.87,0,0,1,742.77,391.33Z"/>
                <path class="cls-7"
                      d="M735.81,400.32c-10.3-4.44-15.59-.88-15.39-.7-.81.79-2-.5-1.2-1.26.2-.2,5.13-4.69,16.92.29A.87.87,0,0,1,735.81,400.32Z"/>
                <path class="cls-5"
                      d="M850.2,687.8c-37.82,2.9-74.68-20.24-101.87-43.83a335.61,335.61,0,0,1-35.88-36.47c-5.14-6.1-8-10-8-10L662.3,420.32s75.1,0,111.54,94.73c-.3-1.29-11.62-48.76-4.29-58.55,0,0,27.38-2.27,38.22-19.83,0,0,25.9,11.21,55.1,62.32S924.93,682.06,850.2,687.8Z"/>
                <polygon class="cls-4"
                         points="597.54 373.84 597.54 431.15 624.83 478.21 646.68 431.15 646.68 373.84 597.54 373.84"/>
                <path class="cls-7" d="M597.54,373.84v22.23c28.78,13.91,49.14,6.42,49.14,6.42V373.84Z"/>
                <path class="cls-6"
                      d="M757.43,572c-1.56,34.41-8.86,50.42-9.1,72a335.61,335.61,0,0,1-35.88-36.47l6.49-119.89S759.36,529.59,757.43,572Z"/>
                <path class="cls-5"
                      d="M762.53,762.72c-69.95,23.38-149.34,19.83-218.16-7.39a306,306,0,0,1-45.66-22.55q-11.83-7.15-22.93-15.38c29.19-81.85,66-178.16,56.43-278.82,10.64-6.25,35.06-14.18,52.83-19.43,4.21-1.26,8.42-2.46,12.49-3.59,10.29,52,48.31,47.75,49.15-.16l15.62,4.92c27.93,25.93,82.33,90.8,87.16,136.74,3.4,32.31-22.29,82-10.83,110.4C756.09,713.45,766.59,736.88,762.53,762.72Z"/>
                <path class="cls-4"
                      d="M556.61,318.11c3.41,30,15.68,66.17,48.12,74.43,1.21.37,2.49.67,3.76,1,52.48,16,116.18-43.24,76.59-88.38a65.58,65.58,0,0,1-11.59-17h0C648.18,192.88,548.31,232,556.61,318.11Z"/>
                <path class="cls-7"
                      d="M634.1,235.26l-.24,6.91c16.19,2.56,35.69,30.26,39.38,45.42C667.86,265.5,656.68,243.13,634.1,235.26Z"/>
                <path class="cls-7"
                      d="M560.29,338.09c4.82,20,15.05,41.28,33.89,50.35-22.85-14.1-24.72-47.56-24.72-47.56Z"/>
                <path class="cls-7"
                      d="M556.61,318.11l16.07,7.61c20.53-8.74,41.13-41,41.13-41L566.63,265.5C558.58,280.21,554.76,298.67,556.61,318.11Z"/>
                <path class="cls-6"
                      d="M544.37,755.33a306,306,0,0,1-45.66-22.55c6.64-50.73,27.26-173.88,73.42-200.85-.47,1.16-30.69,74.87-34,112C535.49,672.85,541.48,730.44,544.37,755.33Z"/>
                <path class="cls-3"
                      d="M556.9,320.76s86.88-35.63,77.79-85.3c0,0-19.06-14.17-41.4-6.76C569.1,236.72,542,268.22,556.9,320.76Z"/>
                <path class="cls-4"
                      d="M541.85,329c4.68,25.6,36.28,19.84,31.86-5.78C569,297.67,537.44,303.42,541.85,329Z"/>
                <path class="cls-8"
                      d="M550,334.51a1.31,1.31,0,0,0,1.17-1.62c-4.41-13.62,1.78-19.2,10.91-15.19,1.53.67,2.6-1.73,1-2.36-10.69-4.66-19.73,1.91-14.46,18.23A1.29,1.29,0,0,0,550,334.51Z"/>
                <path class="cls-8"
                      d="M562.12,333c3.6-.69-3.2-12.49-13.14-13.62a1.33,1.33,0,0,0-1.43,1.16,1.27,1.27,0,0,0,1.16,1.39C558.85,323.28,559.48,332.79,562.12,333Z"/>
                <path class="cls-8" d="M643.38,306.61c2.21-3.82-3.89-7.13-6-3.23S641.28,310.51,643.38,306.61Z"/>
                <path class="cls-8" d="M672.32,302.59c2.21-3.83-3.89-7.14-6-3.23S670.22,306.49,672.32,302.59Z"/>
                <path class="cls-8"
                      d="M662.17,331.71c5.89-.58,13.84-4.27,6.67-9.49-6.35-3.65-10.63-17-10.67-17.17a1.3,1.3,0,0,0-2.48.77c.18.59,4.62,14.48,11.83,18.61.82.47,1.73,1.18,1.4,1.86-3.76,5.1-12.23,1.15-13.08,3.2C655.58,332.27,660.11,331.64,662.17,331.71Z"/>
                <path class="cls-5"
                      d="M589.28,443.52h0c.14,48.13-11.79,78.33-25.27,106.35-22.87,47.56-50.23,88.83-30.73,200.73A321.38,321.38,0,0,1,411.07,655c3.56-65.35,19.5-123.29,50.64-165.58,28.06-38.13,68.49-63.55,123.31-70.22h0A149,149,0,0,1,589.28,443.52Z"/>
                <path class="cls-6"
                      d="M623.49,469.05c-39.37,0-38.45-49.9-38.45-49.9,7.43-2.21,12.5-3.59,12.5-3.59,10.31,52,48.3,47.72,49.14-.16,0,0,6.59,2,15.61,4.92C664.21,436.69,655.15,469,623.49,469.05Z"/>
                <path class="cls-8"
                      d="M628.94,302.23a1.26,1.26,0,0,1-.9-.37,1.27,1.27,0,0,1,0-1.79l.26-.25a35.32,35.32,0,0,1,18.57-10.38,1.26,1.26,0,0,1,.48,2.48,32.78,32.78,0,0,0-17.24,9.65l-.3.3A1.24,1.24,0,0,1,628.94,302.23Z"/>
                <path class="cls-8"
                      d="M671.68,291.94h-.08a35.28,35.28,0,0,1-15.07-4.51,2.36,2.36,0,0,0-.3-.16,1.27,1.27,0,0,1,.88-2.37,4.34,4.34,0,0,1,.65.33,33,33,0,0,0,14,4.19,1.26,1.26,0,0,1-.08,2.52Z"/>
                <path class="cls-8"
                      d="M660.58,346.86a1.33,1.33,0,0,1-.57-.14,1.25,1.25,0,0,1-.56-1.68c.15-.3,3.68-7.25,11.43-8.2a1.26,1.26,0,0,1,.3,2.5c-6.37.79-9.44,6.76-9.47,6.82A1.28,1.28,0,0,1,660.58,346.86Z"/>
            </g>
            <g id="_3" data-name="3">
                <path class="cls-1"
                      d="M1936.58,1413.71a349.68,349.68,0,0,1-158.8-37.61,353.87,353.87,0,1,1,158.8,37.61Z"/>
                <path class="cls-2"
                      d="M2257,1060.27c0,114-59.49,214-149.1,270.81a320.8,320.8,0,0,1-315.23,15.51c-104.66-52.7-176.47-161.13-176.47-286.32,0-176.95,143.45-320.4,320.4-320.4S2257,883.32,2257,1060.27Z"/>
                <path class="cls-3"
                      d="M1982.12,815.87s-48.39-58-105.84-5.21c-32.69,30-57.44,102.59-81,149.67-79.25,158.56,13.6,237.95,51.32,233.77,31.32-3.47,147.88-3.66,178.89.09,32.39,3.91,133.56-24.39,97.94-168.15-13.22-53.4-72.94-93.14-82.48-126S2021.73,810.66,1982.12,815.87Z"/>
                <path class="cls-4" d="M1969.66,970.13v57.48l-3,10.69c-6.79,24.13-41,24.13-47.79,0l-3-10.69V970.13Z"/>
                <path class="cls-7" d="M1969.66,970.13v25.81c-30.33,9.57-53.81,0-53.81,0V970.13Z"/>
                <path class="cls-5"
                      d="M2107.88,1331.08a320.8,320.8,0,0,1-315.23,15.51c2.18-22.1,5.74-54.21,10.44-83.53q.9-5.54,1.84-10.91c3.56-20.19,7.67-38.16,12.28-49.32,1.91-4.52,3.79-9.29,5.64-14.25,15.89-42.66,29-100.08,30.88-142.85.17-3.84.25-7.57.23-11.15q2.08-1,4.46-2.07c6.65-3,14.85-6.2,22.93-9.23,2.46-.92,4.92-1.83,7.32-2.7,4.42-1.6,8.65-3.09,12.4-4.4,8.66-3,14.78-5,14.78-5,5.18,21.63,48.76,22.39,53.81,1,0,0,6.34,1.74,15.14,4.44,2.83.86,5.9,1.84,9.1,2.87s6.61,2.18,10,3.35c10.58,3.69,21.17,7.86,27.76,11.73-4.14,53,24.16,99.27,41.9,148.23.12.37.25.74.37,1.11,6.57,19.37,13.89,46.23,20.3,74.37q1.48,6.53,2.9,13.12C2101.52,1291.94,2105.31,1312.62,2107.88,1331.08Z"/>
                <path class="cls-7" d="M1969.66,970.13v33.71c-17,6.31-36.79,5.92-53.81-.67v-33Z"/>
                <path class="cls-4"
                      d="M2008.62,941.11c-2.76,66.4-83.48,75.58-117.47,38.37-11.24-12.29-17.37-29.65-13.9-51.69,1.94-17.59,8.24-29.29,11.19-57.34,0-.14,0-.28,0-.42,7.19-64.51,99-67.8,107.33-.06C1999.07,896.75,2008.83,916.49,2008.62,941.11Z"/>
                <path class="cls-8" d="M1960.17,901.35c-2.13-4,4.26-7.27,6.27-3.18S1962.17,905.45,1960.17,901.35Z"/>
                <path class="cls-8" d="M1918.05,901.44c-2.13-4,4.26-7.28,6.26-3.19S1920.05,905.53,1918.05,901.44Z"/>
                <path class="cls-8"
                      d="M1939.32,929c-6.43-.08-16.43-4.42-8.3-10.14,6.64-3.59,11.52-17.35,11.57-17.49a1.33,1.33,0,0,1,2.51.88c-.22.6-5.27,14.87-12.81,18.95-5.21,3.19,5.64,6.28,10.12,4.71a1.32,1.32,0,0,1,1.67.86C1944.46,929.13,1941,928.8,1939.32,929Z"/>
                <path class="cls-7"
                      d="M1887.53,896.28A119.47,119.47,0,0,1,1928,871.56a164,164,0,0,0,43.26-24.12s-2.34,35.85,27.6,58.58l-13.25-51-8.71-22.42-15.67-5.9-30,25.8-41.5,21.15Z"/>
                <path class="cls-7"
                      d="M1884.63,914.73c-4.48,18.52.42,53.23,6.52,64.75-11.24-12.29-17.37-29.65-13.9-51.69,1.94-17.59,8.24-29.29,11.19-57.34,0-.14,0-.28,0-.42l8.48-2.12,4.09,17.54C1899.55,886.5,1889.12,896.21,1884.63,914.73Z"/>
                <path class="cls-7"
                      d="M2001.4,914.73c4.48,18.52-.41,53.23-6.52,64.75,11.24-12.29,17.37-29.65,13.9-51.69-1.94-17.59-8.23-29.29-11.19-57.34,0-.14,0-.28,0-.42l-8.48-2.12L1985,885.45C1986.48,886.5,1996.91,896.21,2001.4,914.73Z"/>
                <path class="cls-3"
                      d="M1976.87,832.59s2.83,6.72-61,38.4c-31.5,15.64-39.57,50.48-39.57,50.48l-8.13-28s-3.44-41.62,26.75-68.25S1968.25,812.91,1976.87,832.59Z"/>
                <path class="cls-3" d="M1976.87,832.59s-11.48,44,30.59,82.14l14-9.21S2010.76,830.79,1976.87,832.59Z"/>
                <path class="cls-4"
                      d="M1884.54,901.14c1-3.75-1.06-5.86-4.21-3.6-10.56,7.86-28.45,44.52-27.94,51.41-1.13,7.43,2.52,23-10.61,52.26,0,0,12.57,16.09,39.34,5.33C1896.39,967.38,1867.43,949.68,1884.54,901.14Z"/>
                <path class="cls-6"
                      d="M1888.67,1020.58s-.4,131.12-33.66,195.71c-12.76,24.79-32.47,38.85-51.92,46.77q.9-5.54,1.84-10.91c3.56-20.19,7.67-38.16,12.28-49.32,1.91-4.52,3.79-9.29,5.64-14.25,15.89-42.66,29-100.08,30.88-142.85l4.69-13.22c6.65-3,14.85-6.2,22.93-9.23C1883.81,1022.36,1886.27,1021.45,1888.67,1020.58Z"/>
                <path class="cls-6"
                      d="M2097.11,1271.41c-21.85-8.47-58.46-32.51-80.61-85.49-24.59-58.81-22.62-166.42-22.62-166.42h0c3.23,1,6.61,2.18,10,3.35,10.58,3.69,21.17,7.86,27.76,11.73-4.14,53,24.16,99.27,41.9,148.23.12.37.25.74.37,1.11,6.57,19.37,13.89,46.23,20.3,74.37Q2095.69,1264.82,2097.11,1271.41Z"/>
                <path class="cls-4"
                      d="M2001,901.14c-1-3.75,1.06-5.86,4.21-3.6,10.56,7.86,28.45,44.52,28,51.41,1.12,7.43-2.92,23,10.2,52.26,0,0-12.57,16.09-39.34,5.33C1989.45,967.45,2018,949.24,2001,901.14Z"/>
                <path class="cls-5"
                      d="M1811.59,1248.14c-69.19,45.09-113.26-33.9-74.12-104,34.71-61,72.06-133,107.19-149.83,0,0,12.5,14.63,36.81,11.53C1881.41,1051.77,1880.58,1200,1811.59,1248.14Z"/>
                <path class="cls-5"
                      d="M2073.64,1248.14c69.19,45.09,113.27-33.9,74.13-104-34.71-61-81.14-145.45-107.2-149.83,0,0-12.49,14.63-36.8,11.53C2003.82,1051.77,2004.66,1200,2073.64,1248.14Z"/>
                <path class="cls-8"
                      d="M1933.73,891.8a1.32,1.32,0,0,1-.44-.08L1912.36,884a1.26,1.26,0,1,1,.87-2.37l20.93,7.73a1.26,1.26,0,0,1-.43,2.45Z"/>
                <path class="cls-8"
                      d="M1951.67,891.8a1.26,1.26,0,0,1-.38-2.47l20.62-6.44a1.26,1.26,0,0,1,1.58.83,1.28,1.28,0,0,1-.83,1.58L1952,891.74A1.19,1.19,0,0,1,1951.67,891.8Z"/>
                <path class="cls-8"
                      d="M1942.29,953.09c-3.3,0-6-1.33-7.09-3.79h0c-1.65-3.83,1.44-8.72,7-11.14a14,14,0,0,1,7.66-1.12,6,6,0,0,1,4.3,10,14,14,0,0,1-6.07,4.81A14.93,14.93,0,0,1,1942.29,953.09Zm-4.77-4.79c1.06,2.44,5.46,3,9.61,1.2a11.43,11.43,0,0,0,5-3.9,3.56,3.56,0,0,0-2.62-6.07,11.5,11.5,0,0,0-6.25,1c-4.15,1.79-6.77,5.37-5.72,7.82Z"/>
                <path class="cls-6"
                      d="M1901.06,1016.18s11.88,26.18,44.13,24.68,39.23-24.35,39.23-24.35-8.15-5.28-14.76-4.32c0,0-8,13.16-24.47,13-21.87-.21-29.34-14-29.34-14A24.58,24.58,0,0,0,1901.06,1016.18Z"/>
            </g>
            <g id="_2" data-name="2">
                <path class="cls-10"
                      d="M801.4,223.06c-.24,23.15-34.66,23.38-35.21.24C766.43,200.15,800.85,199.92,801.4,223.06Z"/>
                <path class="cls-10"
                      d="M733.16,70.32C725.89,27.25,764-7.87,806.43,1.53,862.17,15,863,89.52,825.17,123c-17.88,14.2-36,40.49-37.74,60.85-1.46,12-11.16,9.79-13.39-1.35-6.29-51.11,22.8-60.78,39.43-98.2,17.12-61.74-53.58-60.79-71.56-13.09C740.08,75.27,733.79,74.92,733.16,70.32Z"/>
                <path class="cls-10"
                      d="M876.32,294.18c-5.51,17.18-31.19,9.41-26.27-7.94C855.57,269.06,881.25,276.83,876.32,294.18Z"/>
                <path class="cls-10"
                      d="M860.74,164.74c4.53-33.75,41-51.11,70.42-34.32,38.4,22.85,21.83,78.55-14.07,94.76C900.51,231.63,881,247,875,261.77c-3.85,8.6-10.56,4.72-9.66-4.09,7.11-39.5,31-40,52-64,27-42-25.87-57.61-50.26-26.25C864.76,170,860.16,168.3,860.74,164.74Z"/>
            </g>
            <g id="_1" data-name="1">
                <path class="cls-10"
                      d="M2117.24,659.93q-32.86-1.23-65.77-.9c23.62-34.95,46.23-70.59,64.54-108.74-40.05,34.83-75.15,74.78-108.7,115.66-8.59,9.93-.47,26.67,12.81,25.9q32.7.95,65.4.42c-21.51,32.25-42,65.25-58.81,100.32,28.2-24.23,53.54-51.44,78.08-79.24,8.74-12.43,24-22.2,27.37-37.37A15.5,15.5,0,0,0,2117.24,659.93Z"/>
                <path class="cls-10"
                      d="M2225.89,755.75q-24.32-7.38-49-13.6c24.52-21.47,48.42-43.66,69.6-68.58-36.77,18.16-70.86,41.12-104,65.07-8.37,5.74-5.59,19.84,4.48,21.88q24.26,7.13,48.79,13.16c-22.41,19.87-44.25,40.5-63.66,63.41,25.83-12.57,50.12-27.92,73.91-43.87,9-7.57,22.28-11.88,27.81-22.55A12,12,0,0,0,2225.89,755.75Z"/>
            </g>
        </g>
    </g>
</svg>