<svg xmlns="http://www.w3.org/2000/svg" xmlns:xlink="http://www.w3.org/1999/xlink" viewBox="0 0 576.66 392.96">
    <defs>
        <style>
            .cls-1{fill:#e9f2fa;}.cls-2{fill:#102658;}.cls-3{fill:#7eaaec;}.cls-4{fill:#366da5;}.cls-5{fill:#dd5252;}.cls-6{fill:#fd5e5a;}.cls-7{fill:#fc7575;}.cls-8{fill:#0e1b29;}.cls-9{fill:#29527c;}.cls-10{fill:#1b3753;}.cls-11{fill:#ff9797;}
        </style>
    </defs>
    <g id="Capa_2" data-name="Capa 2">
        <g id="_Layer_" data-name="&lt;Layer&gt;">
            <path class="cls-1"
                  d="M153.68,324.86c31.21,18.48,67.19,27.92,102.49,34.75,37.56,7.26,72.77,5.38,111.37,6,53,.79,109.6,1.83,161.65-2.52,9.83-.82,26.69-.64,34.31-8.3,17-17,36.44-100.09-73.93-127.44-11.58-2.87-26.15-6.75-34.14-16.36C431,181.64,501.2,144.3,524.48,94.35c7.17-15.4,7.23-29.13-17.68-45-47.14-30-109.88-40.56-164.62-46.7C288.76-3.34,230.3-1,183.84,29.22c-56,36.44-79.21,118.18-42.46,176.07,3.6,5.67,7.74,11.18,9.53,17.66,5.3,19.09-18.82,30.05-26,44.87C113.82,290.68,134,313.21,153.68,324.86Z"/>
            <path class="cls-2"
                  d="M31.23,365.16c-.07.24,336.31,62.16,336.31.41C367.54,364.45,31.23,365.16,31.23,365.16Z"/>
            <path class="cls-3"
                  d="M503.93,146c-9.87-37.32-64-40.87-102.52-28.72l-32.85,43.8,16.35,23.22L342,226.63l19.42,80.83-33.73-77,22.49-38.21-22.49-18,31-37.14c-9.85-12.42-34.57-37.89-69.57-34.27C169.27,115.16,274.54,344.3,274.54,344.3L97.75,351.06,84,365.57l283.51.37S530,244.69,503.93,146Z"/>
            <polygon class="cls-4" points="97.75 351.06 84.03 365.57 367.54 365.94 274.55 344.3 97.75 351.06"/>
            <polygon class="cls-5" points="84.03 234.62 91.13 273.23 159.47 229.74 98.23 222.64 84.03 234.62"/>
            <path class="cls-6"
                  d="M155.47,218.65s11.44-26.79,36.83-11.13c9.62,5.93,8.71,14.18,5.21,25.63-4.22,13.79-85.08,67.59-93.95,85.34s-10.19,27-3.09,30.13,9.09,10.25,6,10.25-20.82-1.15-20.82-1.15l-7.37-46.33s47.48-62.12,66.56-69.22S155.47,218.65,155.47,218.65Z"/>
            <path class="cls-7"
                  d="M98.23,222.64S128,209.77,147,203.12s32.56-.51,36,5.77c4.34,8.05,9.83,22.93-7.48,35.36S90.24,301.19,87.14,311s-3.33,41.93,0,45.26,12.42,1.33,12.42,6.66-23.56,2.64-26.21,0-4-22.19-9.73-28-17.23-12.52-9.47-20.28,27.22-22.32,36.54-50.72,58.57-33.72,58.57-33.72Z"/>
            <polygon class="cls-5"
                     points="102.45 166.73 156.54 211.3 165.31 206.22 173.29 199.67 137.87 137.02 102.45 166.73"/>
            <path class="cls-8"
                  d="M130.49,176.76l9.75,3,5-19.53v24.56L158,186.55s5.77-76.66,5.77-89.38,11.05-25.43,0-36.48-9.62-9.92-9.62-9.92L143.79,78.28Z"/>
            <path class="cls-4"
                  d="M116.87,109S94.68,92.63,76.49,94.84,53.94,168.6,30.65,191.9-3.56,230.49,1,262c7.92,54.41,119.55-7.81,119.55-7.81l26.06-52.88s-57.28,8.44-57.28-2.65,50.14-34.61,50.14-55S116.87,109,116.87,109Z"/>
            <path class="cls-9"
                  d="M89.36,198.68c0-11.09,50.14-34.61,50.14-55S116.87,109,116.87,109a95.7,95.7,0,0,0-14.69-8.56c1.36,11.4,1.31,27.58-7.64,36.54-14.81,14.81-50.1,44.48-50.1,69.23s18.4,12.2,32.19,12.2c13,0,48.5-14,69.3-15.67l.71-1.45S89.36,209.77,89.36,198.68Z"/>
            <path class="cls-7"
                  d="M130.5,234.1l-9.92,20.11a319.41,319.41,0,0,1-32.25,15.9,65.88,65.88,0,0,0,2.35-6.19C96.18,247.18,115.54,238.45,130.5,234.1Z"/>
            <path class="cls-7"
                  d="M130.5,234.1l-9.92,20.11a319.41,319.41,0,0,1-32.25,15.9,65.88,65.88,0,0,0,2.35-6.19C96.18,247.18,115.54,238.45,130.5,234.1Z"/>
            <path class="cls-6"
                  d="M91.44,123.75l14.37-27.47s19.44,18.27,15.94,24.74c-5.87,10.84-8.06,37.73-8.06,37.73S91.44,152,91.44,123.75Z"/>
            <path class="cls-5"
                  d="M105.81,96.28l-4.94,9.45a44.1,44.1,0,0,0-.72,15c1.88,14.16,8.48,18.3,16.36,17.37l5.24-17.1Z"/>
            <path class="cls-7"
                  d="M146.36,62.56s6.32.36,11.78,8.47,3,31.71-9.24,42.65c-11,9.9-32.23,26.2-36.33-5C108.76,79.73,132.92,56.91,146.36,62.56Z"/>
            <path class="cls-10" d="M124,86.91s2,6.6,8.35,7.73Z"/>
            <path class="cls-10" d="M137.87,102.75s2,6.6,8.34,7.73Z"/>
            <path class="cls-10"
                  d="M131.48,117.87c0,.21.67,1.48-.62,1.84a1.09,1.09,0,0,1-1.35-1.31c.76-3.16-3.66-6.21-6.51-5.73-1.8.3-1.59-2.74.18-2.11S130.46,114.21,131.48,117.87Z"/>
            <path class="cls-10"
                  d="M128.15,80.72s5.19.8,7.32,5.37,1.28,4.78,0,4.78-1.35-5-3.14-6.77A31.76,31.76,0,0,0,128.15,80.72Z"/>
            <path class="cls-10"
                  d="M154.71,106s-.6-5.21-5.09-7.51-4.74-1.46-4.78-.19,4.92,1.55,6.64,3.4A32.8,32.8,0,0,1,154.71,106Z"/>
            <path class="cls-10"
                  d="M134.71,102.75a73.89,73.89,0,0,0-5.43,5.63c.21.19,1.12,1.14,3.47,3.06-.91-1.06-1.85-2.09-2.83-3.07A66,66,0,0,0,134.71,102.75Z"/>
            <path class="cls-11"
                  d="M78.26,102.39s13.31-3.55,13.31,26.18S92,186.7,93.79,186.7s28.38-32.51,28.38-41.83-.42-9.2-.42-18.74c0-9.8,1-12.87,3-10.87s-.2,10.07,1.39,11.14c4.92,3.3,3.21-26.2,5.52-31.76s3.42,3.75,2.31,10-2.3,20.15-.54,18.39,4.75-13,4.75-23.56,2-10.33,3.34-4.8-3,23-1.11,27.72c.47,1.18,2.15-26.17,4.88-24,1.37,1.12-1.93,24.13-1.41,24.35,1,.45,3.49-18.72,5.62-17.24,3,2-19.87,71.9-27.73,86.75-8.32,15.72-20,32.61-30.62,34.17s-16.86-5.55-22.63-17.75S45,115.92,78.26,102.39Z"/>
            <path class="cls-5"
                  d="M149.93,161.7s-1.19,32,3,44.08,18.64,9.76,20.71-8.58-5-61.79-5-73.28c0-9.94,3.29-10,4.62-18.87s-4.21-25.27-8-28.65c-2.71-2.44,5.8,23.36,3.36,25.8s-1.85-26-6.07-28.24,2.21,31.6-1.12,30.56,2.65-28.53-2-30.31-.77,28.14-3.91,31.28,2.79-24.8.79-26.79-5.07,30.28-3.58,39.94S149.93,161.7,149.93,161.7Z"/>
            <path class="cls-10"
                  d="M72.5,110.24l-18.08,28-5-2.6S56,102.2,80,90.87c17.71-8.35,24.19-39.81,47.85-42.47s26.33,2.37,26.33,2.37c6.41,6.4,8.19,18.81,4,20.26C150.43,73.71,143.22,76.88,135,78c-4,.53-10.24.36-12.86,4-1.86,2.61-6,16.85-6.78,22.09-.69,4.89-.9,25.72-1.45,30.13-1.7,13.55.41,12.92.11,20.78-3.88.63-17.6-3.64-17.6-3.64l-.59-22.78-4.13,26.34-5.92-1.79c-1.19,9.77.59,26.63.59,26.63h-21C59.09,161.4,72.47,110.44,72.5,110.24Z"/>
            <path class="cls-6" d="M92.13,215s-8.51,1.36-7.15,4.43,7.07,5.52,9.37,3.22S97.24,215,92.13,215Z"/>
        </g>
    </g>
</svg>