<svg xmlns="http://www.w3.org/2000/svg" viewBox="0 0 2160.3 1747.87">
    <defs>
        <style>
            .cls-1{fill:#dce6ff;}.cls-2{fill:#d4e8ff;}.cls-3{fill:#eef7ff;}.cls-4{fill:#cfddf9;}.cls-5{fill:#f99370;}.cls-6{fill:#1d3f70;}.cls-7{fill:#395b96;}.cls-8{fill:#5871db;}.cls-9{fill:#662948;}.cls-10{fill:#eb5648;}.cls-11{fill:#ce3932;}.cls-12{fill:#e57d61;}.cls-13{fill:#c16256;}.cls-14{fill:#f4d4be;}.cls-15{fill:#163356;}.cls-16{fill:#f49f9f;}.cls-17{fill:#3a72aa;}.cls-18{fill:#7689d6;}
        </style>
    </defs>
    <g id="Capa_2" data-name="Capa 2">
        <g id="_ÎÓÈ_1" data-name="—ÎÓÈ_1">
            <g id="_5" data-name="5">
                <path class="cls-1"
                      d="M182.25,1436.87c-4.26-13.63-8.49-27.75-12.55-42l10-3.1c4,14.13,8.23,28.16,12.47,41.7Zm1790.7-17.6-10.37-1.33c1.72-14.51,3.36-29.12,4.86-43.43l10.38,1.19C1976.31,1390.06,1974.67,1404.72,1973,1419.27ZM158.17,1352.62c-3.65-14-7.2-28.37-10.54-42.55l10.15-2.59c3.31,14.1,6.84,28.33,10.47,42.3Zm1823.93-20.57-10.4-1c1.32-14.57,2.55-29.22,3.64-43.55l10.41.86C1984.65,1302.72,1983.42,1317.43,1982.1,1332.05Zm-1844-64.78c-3-14.32-5.88-28.8-8.53-43l10.26-2.07c2.62,14.15,5.48,28.54,8.47,42.77Zm1850.65-22.7-10.42-.69c.89-14.55,1.66-29.24,2.31-43.64l10.43.51C1990.41,1215.21,1989.63,1230,1988.74,1244.57ZM122.08,1181c-2.32-14.5-4.47-29.11-6.39-43.45L126,1136c1.91,14.24,4,28.76,6.35,43.16Zm1870.57-24.1-10.44-.31c.41-14.62.69-29.32.84-43.69l10.44.12C1993.34,1127.44,1993.06,1142.21,1992.65,1156.89Zm-1882.2-63c-1.56-14.64-2.91-29.36-4-43.76l10.41-.88c1.11,14.3,2.45,28.91,4,43.45Zm1872.64-24.72c-.12-14.63-.39-29.32-.79-43.67l10.44-.32c.4,14.42.67,29.19.79,43.9ZM103.68,1006.28c-.69-14.73-1.15-29.51-1.36-43.95l10.44-.16c.21,14.31.67,29,1.35,43.58ZM1980.62,981.9c-.72-14.62-1.6-29.28-2.62-43.58l10.41-.81c1,14.39,1.92,29.14,2.64,43.83ZM112.86,918.57l-10.44-.23c.29-14.76.85-29.55,1.66-44l10.43.64C113.7,889.29,113.15,903.94,112.86,918.57Zm1861.52-23.74c-1.4-14.61-3-29.2-4.7-43.37L1980,850.1c1.73,14.26,3.32,28.95,4.73,43.65ZM117.82,831.6l-10.39-1.09c1.42-14.71,3.15-29.41,5.14-43.7l10.33,1.57C120.93,802.51,119.22,817.05,117.82,831.6Zm1846-23.34c-2.18-14.52-4.56-29-7.09-43l10.26-2c2.55,14.12,5,28.69,7.14,43.32ZM728.78,806.72c-14.51-2.38-25-9.26-39.54-21.14l6.6-8.43c12.73,10.38,21.93,16.61,34,18.76ZM765,780.84l-9.3-4.94c4.78-9.75,9-23.29,12.56-40.22L778.48,738C774.68,756.1,770.27,770.11,765,780.84ZM658.59,754.38c-8.32-9.65-17.21-20.76-27.18-34l8.21-6.73c9.82,13,18.57,23.94,26.74,33.41Zm-528.71-8.92-10.25-2.07c2.7-14.52,5.76-29,9.1-43L138.86,703C135.57,716.82,132.55,731.12,129.88,745.46Zm1818.43-22.89c-3.1-14.36-6.43-28.61-9.92-42.33l10.1-2.78c3.52,13.85,6.88,28.23,10,42.73ZM785.5,694.22l-10.35-1.39c1.6-13,3-27.2,4.39-43.47l10.4.94C788.58,666.72,787.13,681.09,785.5,694.22Zm-179.67-8.84c-8.49-11.94-17.29-24.56-24.88-35.46l8.46-6.39c7.57,10.88,16.35,23.47,24.82,35.38Zm764.55-.9c-8.14,0-16.11-2.53-23.72-7.52l5.57-9.2c11.42,7.51,22.66,7.53,34.79,1.54l4.5,9.82A47.6,47.6,0,0,1,1370.38,684.48ZM150,661.05l-10-3.18c4.15-14.14,8.71-28.2,13.54-41.78l9.79,3.77C158.55,633.26,154.06,647.11,150,661.05Zm1275.69-10.37L1418,643.3a364,364,0,0,0,26-33.69l8.46,6.38A374.53,374.53,0,0,1,1425.66,650.68ZM1317,643.2a340.53,340.53,0,0,1-20.48-39.1l9.44-4.66a330.67,330.67,0,0,0,19.8,37.84Zm609.88-4.82c-4.2-14.09-8.69-28-13.34-41.24l9.81-3.73c4.71,13.44,9.25,27.48,13.51,41.74ZM556.2,614.46c-9.55-13.6-17.51-24.77-25.05-35.14l8.32-6.57c7.58,10.42,15.57,21.63,25.16,35.28Zm236.89-8.09-10.43-.7c.8-12.75,1.6-27.07,2.47-43.79l10.42.58C794.69,579.23,793.88,593.59,793.09,606.37ZM179,579.59l-9.55-4.39q8.59-20.28,18.33-39.79l9.26,5Q187.42,559.61,179,579.59Zm1297.36,0-8.72-6c7.42-11.75,15.08-24.2,22.84-36.78l8.79,5.88C1491.45,555.32,1483.78,567.79,1476.32,579.59ZM1279.68,563.5c-4.73-12.36-9.61-25.84-14.94-41.22l9.82-3.69c5.29,15.27,10.14,28.64,14.82,40.89Zm618.47-6.78c-5.62-13.62-11.55-26.86-17.65-39.33l9.3-4.94c6.21,12.69,12.24,26.14,18,40ZM505.36,544.85c-9.47-12.26-18.29-23.16-27-33.34l7.81-7.22C495,514.6,503.91,525.63,513.5,538Zm292.37-26.27L787.3,518c.7-14.53,1.4-29.07,2.14-43.86l10.43.57C799.13,489.52,798.43,504.06,797.73,518.58ZM1522.12,506l-8.71-6c8.73-13.75,16.53-25.64,23.86-36.36l8.5,6.31C1538.52,480.53,1530.78,492.33,1522.12,506ZM217.71,502.9l-8.8-5.85a337.24,337.24,0,0,1,25.15-35.94l8,7A325.15,325.15,0,0,0,217.71,502.9ZM1250.8,480.77c-4.79-14.62-9.49-29.25-13.45-41.63l9.9-3.44c4,12.37,8.65,27,13.43,41.56ZM449.69,480a363.4,363.4,0,0,0-31.2-28.42l6.37-8.62A373.73,373.73,0,0,1,457,472.22Zm1410.53-.47c-7.48-12.71-15.33-24.74-23.32-35.75l8.33-6.56c8.2,11.29,16.24,23.61,23.9,36.63Zm-1588.89-41L265,429.89c12.47-9.91,25.45-17.06,38.58-21.24l3.05,10.4C294.69,422.85,282.81,429.41,271.33,438.53ZM1571,435.21l-8.11-6.85a417.84,417.84,0,0,1,28.37-33.11l7.39,7.68A412.47,412.47,0,0,0,1571,435.21Zm-768.75-4.28-10.42-.65c.9-15.81,1.8-30.17,2.74-43.89l10.42.77C804,400.85,803.12,415.16,802.21,430.93ZM384,428.65c-13-6.75-25.85-11.06-38.1-12.81l1.42-10.78c13.37,1.91,27.28,6.57,41.33,13.85ZM1810,411.07a248.89,248.89,0,0,0-30.94-28.15l6.15-8.79a259.46,259.46,0,0,1,32.26,29.34Zm-586-13.55c-5.19-16.19-9.47-29.38-13.47-41.53l9.88-3.53c4,12.18,8.3,25.4,13.5,41.61Zm405.84-22.35-6-8.92c12.84-9.36,25.81-16.29,38.55-20.6l3.23,10.35C1653.9,360,1641.86,366.42,1629.86,375.17Zm114-13.33a127.64,127.64,0,0,0-38.92-10.45l1-10.83a137.37,137.37,0,0,1,42,11.26ZM808.29,343.49l-10.4-1c1.3-15.27,2.72-30,4.21-43.81l10.37,1.21C811,313.66,809.58,328.31,808.29,343.49Zm388.37-28.88c-5.05-14.67-9.8-28.08-14.54-41l9.76-3.88c4.76,13,9.54,26.47,14.61,41.22ZM817.79,256.56,807.46,255c2.11-15.23,4.43-29.88,6.9-43.53l10.26,2C822.18,227,819.88,241.48,817.79,256.56ZM1166.61,233c-5.62-14.06-11.27-27.51-16.82-40l9.48-4.57c5.6,12.6,11.31,26.18,17,40.37ZM833.49,170.91l-10.14-2.64c3.65-15.19,7.66-29.49,11.94-42.52l9.88,3.52C841,142,837.06,156,833.49,170.91ZM1131.25,154c-6.87-13.48-13.89-26.13-20.86-37.6l8.83-5.82c7.11,11.71,14.26,24.6,21.25,38.32ZM860.85,89.41l-9.36-4.81a218.4,218.4,0,0,1,22.6-38l8.2,6.74A207.33,207.33,0,0,0,860.85,89.41Zm225.61-8.31a261.14,261.14,0,0,0-28-31.37l7-8.07a271.25,271.25,0,0,1,29.15,32.66Zm-175-56-5.63-9.16A101.57,101.57,0,0,1,946.31,0l1.59,10.75A91.62,91.62,0,0,0,911.43,25.1Zm114.09,0a122.82,122.82,0,0,0-37.66-13.88L989.69.5a133,133,0,0,1,40.78,15Z"/>
                <path class="cls-2"
                      d="M381.26,1495.72S126.92,845.08,310,700.2c122.34-96.84,252,116.64,406.78,3.71,137.79-100.55,94-406.44,313.74-448.72,247.08-47.54,301.49,523,504.25,445,246-94.62,490.79,97.47,279.29,796.76Z"/>
                <path class="cls-3"
                      d="M2039.13,1271.41c-86.66-13.38-72.52,107.51-196.05,107.51-112.93,0-149.07-460.35-231.24-328.76C1190.57,1724.79,1435.2,763.26,1100.17,751c-151.49-5.52-252.44,162.74-289.66,460.66-54,269.33-179.1-205.42-307.88-161.28-81.85,28-72.48,328.5-185.42,328.5-123.52,0-109.38-120.89-196-107.51C27.87,1285.82,0,1499.78,0,1499.78H2160.3S2132.43,1285.82,2039.13,1271.41Z"/>
                <path class="cls-1"
                      d="M1962.39,1402.26c-79.73-5.71-66.72,45.91-180.36,45.91-103.9,0-101-115.69-170.57-140.27-128-45.28-233.61,183.87-283.25,68.87-94.28-305.17-369.26-458.2-496.12,0-49.64,115-165.73-90.21-283.25-68.87-72.33,13.13-66.67,140.27-170.57,140.27-113.64,0-100.63-51.62-180.36-45.91-85.83,6.16-111.47,97.52-111.47,97.52H2073.86S2048.22,1408.42,1962.39,1402.26Z"/>
                <path class="cls-4"
                      d="M1.61,1499.78s-15.16,57.57,47.63,72c85.88,19.72,590,71.51,467.54,110.87-69.14,22.22,35.29,52.39,372,63.5s914.54-32.42,720.23-96.82,597.36-15.56,549.14-149.53Z"/>
            </g>
            <g id="_4" data-name="4">
                <path class="cls-5"
                      d="M1231.87,708.29s4.28,13.69,31.63,12.54l5.5-25.45a200.58,200.58,0,0,0-13.91-18c-6.34-7-21.35,1.95-21.35,1.95S1236.34,702.51,1231.87,708.29Z"/>
                <path class="cls-5"
                      d="M1329.66,1503.44l-78-64c2.08-5.25,21.41-20.94,26.37-28.51,2.36-3,27-31.65,29.14-34.82l29.09-27.77,34.38,28.23-54.6,51.72a18.62,18.62,0,0,0-2.88,23.52c9.9,17.29,28.38,28.08,28.48,46.91A7.37,7.37,0,0,1,1329.66,1503.44Z"/>
                <path class="cls-6"
                      d="M1255.48,1429.94a25.59,25.59,0,0,0-3.8,9.45l78.74,64.68a7.24,7.24,0,0,0,11.39-3c3.94-10.9,3.62-31.67-31.11-63.38,0,0-15.37-6.47-32.65-26.81C1278.05,1410.88,1263,1418.18,1255.48,1429.94Z"/>
                <path class="cls-7"
                      d="M1341.87,1500.9l-86.39-71a25.59,25.59,0,0,0-3.8,9.45l78.74,64.68A7.24,7.24,0,0,0,1341.87,1500.9Z"/>
                <path class="cls-8"
                      d="M1649,1528.51H403.81a9.38,9.38,0,0,1-9.38-9.37V892.64c0-98.27,16.65-193.61,49.5-283.38,31.75-86.78,77.21-164.73,135.14-231.69S704.66,257.84,779.94,221c78-38.16,161-57.51,246.46-57.51s168.41,19.35,246.46,57.51c75.28,36.81,142.87,89.48,200.88,156.54s103.39,144.91,135.14,231.69c32.84,89.77,49.49,185.11,49.49,283.38v626.5A9.37,9.37,0,0,1,1649,1528.51ZM413.19,1509.76H1639.62V892.64c0-391.7-275.09-710.36-613.22-710.36S413.19,500.94,413.19,892.64Z"/>
                <path class="cls-8"
                      d="M1026.4,1528.69a9.56,9.56,0,0,1-9.56-9.55V172.9a9.56,9.56,0,1,1,19.12,0V1519.14A9.56,9.56,0,0,1,1026.4,1528.69Z"/>
                <path class="cls-8"
                      d="M786.44,1528.69a9.56,9.56,0,0,1-9.56-9.55c0-62.45-.22-122.47-.44-180.51-1.17-321.37-2.09-575.21,37.2-746.4,37.61-163.9,90.16-270.83,127.63-331.67,41-66.56,72.9-93.84,74.24-95a9.56,9.56,0,0,1,12.34,14.61h0c-.31.26-31.49,27.09-71,91.5-36.5,59.51-87.73,164.18-124.6,324.81-38.8,169-37.87,421.91-36.71,742.05.22,58.06.44,118.09.44,180.58A9.56,9.56,0,0,1,786.44,1528.69Z"/>
                <path class="cls-8"
                      d="M588.17,1528.46a9.33,9.33,0,0,1-9.33-9.32c0-244.39,0-437.42,12.07-601,13-176.49,39.25-302.55,85-408.73,28-64.84,63.33-123.33,105.13-173.84A608,608,0,0,1,893,230.18c69.72-50.37,123.9-65.65,126.17-66.28a9.33,9.33,0,1,1,5,18c-.52.15-53.83,15.29-121,64-61.9,44.89-148.61,128.34-210.11,271C597.5,738.47,597.5,1032.31,597.5,1519.14A9.33,9.33,0,0,1,588.17,1528.46Z"/>
                <path class="cls-8"
                      d="M1026.4,155.84a58.65,58.65,0,1,1,58.65-58.65A58.71,58.71,0,0,1,1026.4,155.84Zm0-98.17a39.53,39.53,0,1,0,39.53,39.52A39.57,39.57,0,0,0,1026.4,57.67Z"/>
                <path class="cls-8"
                      d="M1026.4,184.37a9.56,9.56,0,0,1-9.56-9.56V149.15a9.56,9.56,0,1,1,19.12,0v25.66A9.56,9.56,0,0,1,1026.4,184.37Z"/>
                <path class="cls-9"
                      d="M1730.27,505.56s20-4.56,35.44,14.64c18.32,22.81,5.54,45.48,14,61.61s19.53,26.56,16.27,45.1,10.09,27,7.16,42.3-11.72,16.6-7.48,35.47-9.12,38.4-26.69,30.27-21,18.22-48.6,7.81-32.24-28.31-61.63-27.66-26.13-41-53.14-50.77-29.62-33.27-12.7-53.06,29.19-26.34,36.13-67.21C1636.84,498.07,1694.54,467.16,1730.27,505.56Z"/>
                <path class="cls-5"
                      d="M1700.6,670.28c54.48,46.61,49.25,125.7,54.94,190.44,7.57,52.79,28,110.4,53,158.18,8.59,15.26-4.76,32.24-16.08,19-41.4-46-81.09-102.49-100.49-162.51-14.18-46.17-13.44-99.36-41.27-140.15a24.73,24.73,0,0,0,3.49,2.74C1610,707.43,1656.2,640.11,1700.6,670.28Z"/>
                <path class="cls-10"
                      d="M1687.23,898.29c73.28,139.37,90.27,122.45,90.27,122.45,7.09-12,24.76-14.2,24.76-14.2,16.85-19.48-28.65-96.62-38.5-201.19-5.06-53.71-23-112.53-61-133.76C1705.37,712.54,1668.83,853.43,1687.23,898.29Z"/>
                <path class="cls-11"
                      d="M1673.25,875c.45,1,.89,1.93,1.34,2.88,5.84,7.11,10.33,19.36,15.49,23.63,2.26-12.83,9.35-32.53,17.78-44.4,14.65-20.67,25.51-35.69,27.27-49.27s-5.16-38.66-5.16-38.66Z"/>
                <path class="cls-5"
                      d="M1707.63,658.85l-5.2,12.86c-12.42,20.5-37.59-4.34-40.27-14.38,0,0,5.85-12,7.85-17.74Z"/>
                <path class="cls-5"
                      d="M1717.17,1527.52l-100.91.16c-1.74-5.37,3.2-29.77,2.21-38.77-.07-3.79-1.3-24.54-1.7-28.32l6.84-57,44.48-.07-9.24,74.64a18.61,18.61,0,0,0,12.74,20c18.62,7.05,39.75,3.61,51.8,18.09A7.37,7.37,0,0,1,1717.17,1527.52Z"/>
                <path class="cls-6"
                      d="M1613.18,1518a25.4,25.4,0,0,0,3.08,9.71l101.89-.16A7.24,7.24,0,0,0,1725,1518c-3.88-10.91-17.34-26.74-64.31-29.12,0,0-16,4.78-42.25.07C1618.47,1488.91,1611.46,1504.14,1613.18,1518Z"/>
                <path class="cls-7"
                      d="M1725,1517.79l-111.79.18a25.4,25.4,0,0,0,3.08,9.71l101.89-.16A7.24,7.24,0,0,0,1725,1517.79Z"/>
                <path class="cls-12"
                      d="M1681.63,597.73c-.17.72-.31,1.45-.41,2.18,1.15-.26-5.75,25.45-12.59,43.4,13.94,14.12,34,17.93,37.75,18.54,9.06-22.59,14.88-44.1,16.51-58.38C1724.47,578.84,1686.83,573.65,1681.63,597.73Z"/>
                <path class="cls-5"
                      d="M1658.57,576.9c-1.38,19-.07,41.1,11.54,56.62h0c32.25,44.87,124.77,8.88,95.18-45.57-9.48-14.07-7.37-34.54-14.41-48C1723.55,488.63,1659.76,527.89,1658.57,576.9Z"/>
                <path class="cls-5" d="M1737.64,615.29l-14.73-8.09C1721.27,616.24,1730.57,622.32,1737.64,615.29Z"/>
                <path class="cls-13" d="M1731.12,582.11c2.43-2.79-2-6.53-4.35-3.68S1728.78,585,1731.12,582.11Z"/>
                <path class="cls-13" d="M1755.35,583.7c2.43-2.79-2-6.54-4.35-3.68S1753,586.55,1755.35,583.7Z"/>
                <path class="cls-5"
                      d="M1737.7,615.94c-.39.14-14.75-8.09-15.11-8.17a.66.66,0,0,1-.26-.89c0-1.62,15.27,8,15.63,7.83A.66.66,0,0,1,1737.7,615.94Z"/>
                <path class="cls-6"
                      d="M1703.13,1433.76c-1.59,11.87-2.66,18.37-2.66,18.37-42.56,14.15-99.42,17.24-137.32,2.79,31.15-108,18.47-401.64-3.63-437.85,0,0-77.44,259.49-155.2,404.5q-4.93,9.2-9.86,17.7s-88.46,1-134-77.61c0,0,4.83-5.7,12.46-16,22.88-31,71-94.14,90.06-180.23,42.47-191.85,92-279.24,128.23-312.76,50.15-46.34,153.89,9.07,187.34,75.5C1725.3,1075.6,1721.45,1312.8,1703.13,1433.76Z"/>
                <path class="cls-13"
                      d="M1742.47,606c-1.71-.39-5.61-.64-5-2.93a1.09,1.09,0,0,1,1.48-.37c3.25,2,8.65,1.37,9.7-.06.38-.5-.25-1.23-.84-1.76-5.18-4.34-8.89-22.68-4.43-17.56,0,.12,1.3,11.88,5.87,15.95C1754.21,604.74,1747.32,606.43,1742.47,606Z"/>
                <path class="cls-12"
                      d="M1658.57,576.9c-1.38,19-.07,41.1,11.54,56.62h0c-5.67-11.84-5.41-35.28-5.41-35.28l6.13-9c68.43-5.51,75-57.84,75-57.84C1712.18,492.72,1660.11,533,1658.57,576.9Z"/>
                <path class="cls-9"
                      d="M1740.2,525.26s-6.77,51.55-68.56,58.78L1653.88,568C1643.19,524.16,1692.81,475.33,1740.2,525.26Z"/>
                <path class="cls-5"
                      d="M1644.75,583.4c-.75,21.68,26.63,22.33,26.89.64C1672.4,562.35,1645,561.71,1644.75,583.4Z"/>
                <path class="cls-13"
                      d="M1650.47,589.28c-3.24-5.54.6-14.23,3.23-15.26,4.92-2.31,11.9,1.22,10.86,3.19-1.81,1.76-5-3.66-9.8-1.31C1649.88,578,1653.35,588.13,1650.47,589.28Z"/>
                <path class="cls-13"
                      d="M1660.61,590.13c-2.12-.62-1.07-8.61-9.11-11.39a1.06,1.06,0,0,1-.71-1.34C1657.6,574.41,1664.42,591.49,1660.61,590.13Z"/>
                <path class="cls-14" d="M1654,595.71c-.77,3,4,4.17,4.71,1.11S1654.63,592.64,1654,595.71Z"/>
                <path class="cls-10"
                      d="M1687.23,909.28c.69,13.91-8.67,18.87-8.67,18.86-68,5.18-140.2-36.33-187.35-75.49-8.85-16.07,1.53-33.19,10.83-47.29,42.2-86.49,99.87-164.1,162.83-153.74.06,68.85,2.72,146.2,37.93,20,4.5,17.78,15.66,58.69,22.11,78.14C1754.19,838.86,1683.53,834.07,1687.23,909.28Z"/>
                <path class="cls-15"
                      d="M1404.32,1421.57q-4.93,9.2-9.86,17.7s-88.46,1-134-77.61c0,0,4.83-5.7,12.46-16C1272.92,1345.63,1312.81,1412,1404.32,1421.57Z"/>
                <path class="cls-13"
                      d="M1721.36,572.31a1.32,1.32,0,0,0,1.28-.37c5.58-5.9,11.15-6,11.2-6a1.32,1.32,0,0,0,0-2.64c-.27,0-6.71.06-13.11,6.84a1.31,1.31,0,0,0,0,1.86A1.29,1.29,0,0,0,1721.36,572.31Z"/>
                <path class="cls-13"
                      d="M1757.06,572.5a1.32,1.32,0,0,0,1.06-2.37c-.13-.09-3.3-2.17-11.43-5a1.32,1.32,0,0,0-.88,2.48c7.76,2.73,10.82,4.72,10.85,4.74A1.59,1.59,0,0,0,1757.06,572.5Z"/>
                <path class="cls-11"
                      d="M1598.54,733.22s-33.35,6.94-57.62,26.35-27,34.79-38.88,45.78c3.79-5.74,7.39-11,9.44-15.45,13.7-29.73,27.63-53.17,41.24-71.64Z"/>
                <path class="cls-5"
                      d="M1648.59,689.41c-6.4,40.84-49.87,28.14-80,34a466.47,466.47,0,0,0-84.35,19.17c-54.15,13.16-143.81,17.66-220.75-21.78l5.5-25.45c72.34,11.75,123.27,9.43,183.23-1.18,46.91-21.35,107.12-43.39,158.51-48.91C1635.81,643.89,1652,666.65,1648.59,689.41Z"/>
                <path class="cls-10"
                      d="M1643.57,633.12s-53.81-20-109.2,12.2-225.58,17.36-237.93,54c0,0,3.35,19,0,36.11,0,0,9.42,54.29,200.13,18.07,30.19-5.73,92.79-21.6,121.36-21.5S1668.87,681.19,1643.57,633.12Z"/>
                <path class="cls-11"
                      d="M1702.81,671.6s19.38,5.3,22.9,19.48c0,0-28.34,64.08-57.34,70.95,0,0-17.5-19.92-19.11-53.36s-.08-61.57-5.69-75.55c0,0,16.16,5.55,21.31,18.5,0,0,3.74,18.18,4.34,44.53s5.61,40.2,5.61,40.2S1693.37,702.46,1702.81,671.6Z"/>
                <path class="cls-5"
                      d="M1848.89,1037.85c-1.27,5-13.86-2.31-18.62-1.63a80.68,80.68,0,0,0,10.76,15.1c9.12,6.65,18.59,12.8,28.33,18.53,3.17,1.75.64,6.85-2.7,5.32-10.12-4.36-20.08-9.18-29.76-14.49l-.11.13a255.84,255.84,0,0,0,25.31,24.84c6,17.56-29.83-16.45-32.9-19l-.07,0a147.48,147.48,0,0,0,21.23,26.29c4.13,18.11-29.06-19.06-31.26-22.71l-.13,0a151.43,151.43,0,0,0,13.35,23.32c1.33,17.18-22.22-18.16-24-21.7-3-3.17-11.25-15.85-17.88-36-2.08-6.28,13.47-16.29,19.84-15.05,6,1.15,13.41,4.86,16.13,6.12C1831.42,1028.2,1849.68,1031.62,1848.89,1037.85Z"/>
                <path class="cls-11"
                      d="M1491.21,852.65s95.14,76.46,187.35,75.49a5.91,5.91,0,0,1,2.17,7.64s-93.32,8.18-194.8-78.16C1485.93,857.62,1486.06,852.65,1491.21,852.65Z"/>
                <path class="cls-15"
                      d="M1583.65,1460.66c-13.25-2.66-20.5-5.74-20.5-5.74,15.95-87.14,18.95-161.34,18.49-226-1-130.4-22.12-211.87-22.12-211.87s13.82-7.28,19.22-19.85C1578.74,997.23,1638.84,1247.13,1583.65,1460.66Z"/>
                <path class="cls-15"
                      d="M1703.13,1433.76c-1.59,11.86-2.67,18.37-2.67,18.37-42.54,14.15-99.41,17.24-137.31,2.79q1.47-8.06,2.82-16S1637.19,1454.59,1703.13,1433.76Z"/>
                <path class="cls-8"
                      d="M1481.73,1528.69a9.56,9.56,0,0,1-9.56-9.55c0-486.74,0-780.53-100.35-1002.07-64.77-143-156.18-226.55-221.45-271.45-70.45-48.46-125.84-63.33-126.39-63.48a9.56,9.56,0,1,1,4.85-18.49c2.38.63,59.2,15.88,132.37,66.22a626.83,626.83,0,0,1,117.57,105.4c43.92,50.52,81.08,109,110.47,173.91,48.12,106.25,75.68,232.36,89.37,408.93,12.68,163.58,12.68,356.63,12.68,601A9.56,9.56,0,0,1,1481.73,1528.69Z"/>
                <path class="cls-8"
                      d="M1261.64,1528.69a9.56,9.56,0,0,1-9.56-9.55c0-62.49.22-122.52.43-180.58,1.17-320.14,2.09-573-36.71-742-36.86-160.63-88.1-265.3-124.59-324.81-39.49-64.41-70.67-91.24-71-91.5a9.56,9.56,0,0,1,12.33-14.61c1.34,1.13,33.26,28.41,74.25,95,37.46,60.84,90,167.77,127.63,331.67,39.29,171.19,38.36,425,37.19,746.4-.21,58-.43,118.06-.43,180.51A9.56,9.56,0,0,1,1261.64,1528.69Z"/>
                <path class="cls-5"
                      d="M1227.26,674.28c-5.3,1.79-8.73,13.51-2.81,14.83,3.21.72,6-4.6,7.46-6.57l-.21.1C1238.46,679.54,1233.52,671.22,1227.26,674.28Z"/>
                <path class="cls-5"
                      d="M1228.63,683.44c-14,11.09,3.66,19.68,5.77,8,0,.12-.06.17.08-.06a3.44,3.44,0,0,1,.67-.72s.11-.09,0,0C1241.18,686.21,1233.85,679.41,1228.63,683.44Z"/>
                <path class="cls-5"
                      d="M1229.75,693.09l-3.07,3.53c-2.77,8.23,5.32,10.5,8.78,5.47l3.25-4.13C1243,692.05,1233.21,688.05,1229.75,693.09Z"/>
                <path class="cls-5"
                      d="M1232.09,702l-2.38,2.31c-2.78,6.88,5.41,8.85,5.41,8.85a20.29,20.29,0,0,1,4.53-6.58c3.7-3.51,1-6.77-2.92-6.63A7.12,7.12,0,0,0,1232.09,702Z"/>
                <path class="cls-5"
                      d="M1251.28,686.62c-1.5-6-3.53-7.67-8.67-11.7-4.91-3.85-3.12-6.65-2.34-7.43,2.33-2.32,10.49,1.7,13,4.25,4.52,4.7,8.63,12.51,5.59,24.26Z"/>
            </g>
            <path id="_3" data-name="3" class="cls-16"
                  d="M575.76,1321.93c-9.47-10-115.29,69-124.32,85.83a292.85,292.85,0,0,0-13.31-60.16c14.77-.85,115-104.78,105.17-114.83-11.08-8.33-102.74,89.49-107.82,107.16a347,347,0,0,0-25.79-55.36c12.62,2,97.41-125.78,85.07-132.71-12.16-7.07-89.62,113.06-87.7,128.21a409.37,409.37,0,0,0-28.21-41.43c14.44-6.45,82.89-130,71-137.5-12.84-5.09-75.51,112-76.29,130.82-9.36-11.72-20.45-24.09-31.71-35.73,13.34-9.3,61.81-140.61,49-146.3-13.37-3-56.79,119.79-55.49,139.49q-17.46-18.53-32.53-35.49c13.41-10.65,61-139.67,48.38-145.55-13.22-2.87-55.75,116.93-55.32,137.7-12-13.68-22.82-26.55-32.61-38.64,13.37-9.91,61.47-140.2,48.74-146-13.23-2.87-55.8,117.07-55.33,137.79-10.79-13.58-20.2-26.08-28.42-37.54,13.13-5.94,63.55-142.63,50.4-147.71-13.44-3-57.38,121.4-55.56,140.44-11-15.71-19.62-29.25-26.35-40.67,12.41-7,47.68-148.92,34-152.46-13.37-1.39-42.33,121.18-39.91,142.19-21.66-36.16-11.62-48.08-28-97-28.92-98.72-50.21-92.46-20.84,6.15,15,50.76,22.84,59.14,38.25,90.15C165,985.34,65.94,920.54,57.93,930.5c-8.64,11.21,120.65,95,131.09,87.74,6.42,10.92,14.56,23.73,24.8,38.45C197.2,1042.46,83.07,995.42,76.65,1007c-6.19,12.72,136,69.94,145.28,61.16,8,11.08,17.11,23.12,27.47,36.13-20-10.47-138.91-33.22-142.75-20.77-1.81,13.94,138.28,39.46,151.84,32q14.07,17.22,31,36.55c-18.91-8.44-145.91-15.73-148.27-2.44-.36,14.08,145.18,20.69,155.74,10.87q15.15,17,32.66,35.55c-21.35-4.72-144.21,7.64-144.41,20.87,2.78,13.68,139.2-1.47,152.91-11.93,11.15,11.57,21.48,23.4,30.52,34.84-14.38-7.89-153.32,5.41-152.94,19.4.71,14.12,152.13-2.42,156.81-14.45a400.84,400.84,0,0,1,26.76,39.32c-15.86-7.26-151.86,5.79-151.74,19.71,1.89,14,146.28-2,155.44-13.33A336.59,336.59,0,0,1,428,1345c-13.94-8.94-153-6.83-153.83,7.13.78,14.07,145.89,9.71,156-.8a283.44,283.44,0,0,1,12.67,58.24c-16.89-9-148.5-16.79-150.8-3.24.86,13.84,135,19.94,151.6,12.29,3.55,50-8.65,82.48-8.81,82.87l8.17,3.17c.56-1.44,13.35-35.14,9.27-88.14C467.1,1418.07,583.66,1333.58,575.76,1321.93Z"/>
            <path id="_2" data-name="2" class="cls-16"
                  d="M546.9,1345.34c4.54-7.85,84.3,26.61,92.64,36a192.73,192.73,0,0,1-.65-40.53c-9.58,1.71-89.57-49.54-84.79-57.47,5.82-7,79.38,41.62,85.32,52.16a228.44,228.44,0,0,1,8.07-39.36c-7.76,3.22-81.49-65.66-74.65-72s74.57,58.71,75.65,68.7a268.71,268.71,0,0,1,11.75-30.81c-10.23-1.93-72.85-70.6-66.39-77.18,7.44-5.22,65.39,60.18,68.75,72.1,4.2-8.93,9.42-18.53,14.85-27.69-10-3.92-61-80.58-53.65-86.17,8.11-3.93,54.59,68,56.75,80.82q8.37-14.51,15.42-27.66c-10.2-4.78-60.32-80.1-53.13-85.79,8-3.85,53.49,66.35,56.38,79.7q8.38-15.86,15-29.69c-10.07-4.31-60.69-80.37-53.42-86,8-3.85,53.54,66.43,56.39,79.76,4.84-10.33,9-19.77,12.47-28.35-9.31-1.81-62.39-81.61-54.75-86.86,8.14-4,55.22,69,57,81.42,4.64-11.73,8.1-21.71,10.67-30-9-2.59-53.2-88.05-45-92.39,8.35-2.93,45.55,71.11,47.19,84.92,8.37-26.44.12-32.54,3.14-66.31,3.47-67.58,18-66.82,14.27.76-1.85,34.77-5.61,41.32-10.75,63.52,7.18-13.53,60.69-70.09,67.33-64.93,7.24,5.85-62.74,79.17-70.53,76.11-2.45,8-5.7,17.4-10,28.39,8.46-11.64,74.34-59.13,80.21-52.7,5.9,7.2-76.36,65.47-83.66,61.27-3.43,8.3-7.43,17.4-12.08,27.3,11.19-9.74,83.84-42.42,88.2-35,3.28,8.65-82.49,46.31-92.3,43.63q-6.37,13.15-14.28,28.11c10.81-8.28,91-32.29,94.52-24.14,2.38,9-89.76,35.35-98,30.67q-7.11,13.19-15.49,27.73c13-6.27,93.46-17.07,95.61-8.64.3,9.18-89.32,20.26-99.68,15.66-5.38,9.1-10.18,18.24-14.23,26.94,8-7.24,98.95-19.89,100.83-10.87,1.7,9.14-97.72,21.61-102.56,14.62a265.21,265.21,0,0,0-11.13,29.25c9-7.07,98.07-19.42,100.11-10.5.92,9.23-93.93,21-101.51,15.14a220.6,220.6,0,0,0-7.7,38.7c7.56-7.85,96.9-27.68,99.53-18.86,1.65,9.12-91.88,28.42-99.95,23.24a186,186,0,0,0,.76,39.2c9.44-8.35,92.48-33.36,96-25,1.56,9-83.32,33.31-95.14,30.95,5.34,32.58,18.1,51.47,18.25,51.7l-4.74,3.27c-.58-.84-13.9-20.46-19.36-55C631.08,1390.32,543.62,1354,546.9,1345.34Z"/>
            <g id="_1" data-name="1">
                <path class="cls-17"
                      d="M568.56,1572.3s97.89-148.81,299.49-160.63C868.05,1411.67,754.1,1550.81,568.56,1572.3Z"/>
                <path class="cls-18"
                      d="M570.83,1572s28.82-145.29,236.57-257.17C807.4,1314.84,757.12,1471.07,570.83,1572Z"/>
                <path class="cls-17"
                      d="M570.83,1572s-8.51-177.91,147.47-306.17C718.3,1265.84,708.13,1445.39,570.83,1572Z"/>
                <path class="cls-18"
                      d="M570.83,1572s-54.9-180.79,56.8-351.14C627.63,1220.87,691.59,1459.11,570.83,1572Z"/>
                <path class="cls-17"
                      d="M570.83,1572s-93.76-198-38.59-347.77C532.24,1224.24,618.32,1409.83,570.83,1572Z"/>
                <path class="cls-17"
                      d="M572,1572.11s-221.29,16.11-335.58-95.36C236.43,1476.75,443.29,1462.61,572,1572.11Z"/>
                <path class="cls-18"
                      d="M572,1572.11s-187.46-23.59-297.46-195C274.55,1377.06,518.17,1415.8,572,1572.11Z"/>
                <path class="cls-17" d="M572,1572.11s-168.52-78.59-222-273.32C350,1298.79,512.38,1395.11,572,1572.11Z"/>
                <path class="cls-18"
                      d="M572,1572.11s-120.91-85.56-138.35-320.88C433.66,1251.23,555.8,1360.84,572,1572.11Z"/>
            </g>
        </g>
    </g>
</svg>