<svg xmlns="http://www.w3.org/2000/svg" xmlns:xlink="http://www.w3.org/1999/xlink" viewBox="0 0 534.59 502.06">
    <defs>
        <style>
            .cls-1{fill:#e9f2fa;}.cls-2{fill:#0e1b29;}.cls-3{fill:#102658;}.cls-4{fill:#1b3753;}.cls-5{fill:#42527a;}.cls-6{fill:#dd5252;}.cls-7{fill:#fd5e5a;}.cls-8{fill:#132759;}.cls-9{fill:#fc7575;}.cls-10{fill:#97c9fd;}.cls-11{fill:#7197be;opacity:0.76;}.cls-12{fill:#d5e9fe;}.cls-13{fill:#14293e;}.cls-14{fill:#08132c;}.cls-15{fill:#4c657f;}.cls-16{fill:#f5fcff;}
        </style>
    </defs>
    <g id="Capa_2" data-name="Capa 2">
        <g id="_Layer_" data-name="&lt;Layer&gt;">
            <path class="cls-1"
                  d="M165.5,460.7c37.63,37.63,105.16,36.81,161.06,29.46,48.74-6.42,100.58-14.43,147.75-28.74,35.29-10.72,65-33.07,59.64-73.71-4.11-30.9-30.57-51.41-57.17-63.8-24.29-11.32-64-12.2-81.87-33.58-28.09-33.6,52.71-76.39,79.51-133.63,8.26-17.65,8.33-33.39-20.36-51.58C399.79,70.72,327.55,58.63,264.53,51.6,203,44.73,135.72,47.38,82.24,82.05,17.8,123.81-38,250.59,33.34,283.84,204.66,363.7,139.54,434.74,165.5,460.7Z"/>
            <path class="cls-2"
                  d="M252.35,12.7s19.44,9.19,19.44,23.68S253.85,55.73,262.07,64s14.67-5.3,17.5,14.84S262.25,95.4,266,112s-.53,37.11-7.95,37.11-16.15-4.48-18.5,6.24-11.9,31.58-40.88,17.44c0,0,18.73,2.47,18.73-13.79s-36.05-17.32-30.4-31.1,24.39-24,24.39-35.34-31.24-32.17-25-47.37S252.35,12.7,252.35,12.7Z"/>
            <path class="cls-3"
                  d="M.17,474.27a3.31,3.31,0,0,0-.17,1c0,14.81,106.12,26.81,237,26.81s237-12,237-26.81a3,3,0,0,0-.18-1Z"/>
            <path class="cls-4"
                  d="M344,144.84A19.69,19.69,0,0,1,343,139a.95.95,0,0,1,1.89-.12,18.75,18.75,0,0,0,.94,5.31c1.76,4.6,6.22,5.77,10,2,6.54-6.48,8.11-17.55,10.1-26.41a1,1,0,0,1,1.14-.72.94.94,0,0,1,.71,1.13c-.25,1.13-.49,2.29-.75,3.48-1.76,8.35-3.76,17.82-9.86,23.87C352.52,152.11,346.33,150.89,344,144.84Z"/>
            <path class="cls-5"
                  d="M345.9,137.52c0,1.57-.88,2.85-2,2.85s-2-1.28-2-2.85.89-2.84,2-2.84S345.9,136,345.9,137.52Z"/>
            <path class="cls-5"
                  d="M368.82,118.1c0,1.57-.89,2.84-2,2.84s-2-1.27-2-2.84.88-2.84,2-2.84S368.82,116.53,368.82,118.1Z"/>
            <path class="cls-6"
                  d="M383.89,100.49s5.76,13,6.23,17.05.4,10.19,1.82,9.48.71-20.45,0-23.22S383.89,100.49,383.89,100.49Z"/>
            <path class="cls-6"
                  d="M389.57,100.49s4.74,7.66,5.14,12.71-.24,15.48,2.44,16.43,1.58-17.53,1.58-20.06S389.57,100.49,389.57,100.49Z"/>
            <path class="cls-7"
                  d="M361.11,106.91c-1.34-.08-3.41-.15-6.08-.25-25.61-.81-105.78-2.1-112.22-8.55-7.54-7.54-4.95-11.2-4.95-11.2s1.42-9.78,12-9.78c8.15,0,71.28,9.35,104.43,13.65,2,.26,3.85.51,5.57.72A26.22,26.22,0,0,0,361.11,106.91Z"/>
            <path class="cls-8"
                  d="M376.39,111.53c-5.13,9.18-17.25,9.48-21.36-4.87-3.44-11.72,0-30.3,11.66-30.3,7.14,0,11.35,9,12.56,17.38a20.37,20.37,0,0,0-5.49-.82c-1.92-13.06-10.88-15.29-13.88-1.42-2.89,13.24,5.24,27.69,11.47,17.23A13.65,13.65,0,0,1,376.39,111.53Z"/>
            <path class="cls-9"
                  d="M240.34,344.58s-9.43,12.73-9.19,26.16c.25,14.42,20.5,93.66,20.5,103.91s-6.72,19.21,0,22.74h44.07s1.43,0-5.9-3.74c-5.19-2.65-14.4-.54-20-10.51-1.88-3.33-6.48-138.56-6.48-138.56Z"/>
            <path class="cls-7"
                  d="M347.08,339.64s-6.72,17.31,9.19,42.06,37.82,52.66,39.58,58.32-2.45,14.26,3.18,17c6.42,3.08,15.3,22.21,19.8,26.71s17.24,1.69,15.55,0a39.35,39.35,0,0,1-12.73-20c-3.53-12.73-60.44-136.79-60.44-136.79Z"/>
            <path class="cls-10"
                  d="M240.87,76.25c-15.09-1.32-44.05-3-46.13,3.25,0,0,4,35.58,55.14,86.71,0,0-11.78,9.43-11.78,24s1.41,107.91-9.9,128.65-16.49,25.92-16.49,25.92,17,18.38,63.15,16.49,73.51-14.13,97.55-33c0,0-17.44-13.2-29.69-49.49s-61.27-137.61-68.34-144.68c0,0,3.07-22.85-7.07-33a103.6,103.6,0,0,1-13.26-17A17.41,17.41,0,0,0,240.87,76.25Z"/>
            <path class="cls-11"
                  d="M267.31,353.43c-10.72-7.73,33.42-7.11,12.53-10.9s-38.34-46-17.68-61.12-6.45-48.33-10.71-72.5,14.33-44.06,14.33-44.06-25.3-29.78-39.43-43.91C214.92,109.51,212.52,84.27,212,75.06c-9,.25-16.26,1.42-17.27,4.44,0,0,4,35.58,55.14,86.71,0,0-11.78,9.43-11.78,24s1.41,107.91-9.9,128.65-16.49,25.92-16.49,25.92,17,18.38,63.15,16.49,73.51-14.13,97.55-33C321.36,358.18,278,361.16,267.31,353.43Z"/>
            <path class="cls-12"
                  d="M335.75,256.17C321.6,221,287.05,148.59,275.4,133.86c1-10.4-.47-25.31-8.09-32.68,9.84,11,6,32.88,6,33.2.57,1,2.93,3,13.31,24.13,59.35,119,59.62,149.77,85.75,169.82C351.86,309.26,345.1,278.93,335.75,256.17Z"/>
            <path class="cls-7"
                  d="M368,122.68s6.87,9,8.41,11.84,2.14,13.37-.71,14.86-1.58-12.19-3.3-13.91-10-13.39-10-13.39Z"/>
            <path class="cls-7" d="M356.64,113.2s6.16,25.72,8.65,25.72,1.24-17.43,1.24-17.43Z"/>
            <path class="cls-7"
                  d="M402.53,131.36c-2.35,0-1.48-15.88-4.78-19.18s-7.54-6-8.26-6c-1.5,0,8.05,5,8.05,7.35s4.08,18.08.8,16.81c-.67-.26-4.15-14.65-5.44-15.25s-10.33-7.93-11.51-7.93,2.88,6,7.24,10.32-5.63,4.68-9.62-2.62c-3.29-6-10.15-7.43-17.9-7.94a26.22,26.22,0,0,1-1.23-15.41c16.6,2.1,15,1,19.37,2.24,10.52,2.76,22.71,12.11,23.54,15.16S404.88,131.36,402.53,131.36Z"/>
            <path class="cls-9" d="M221.6,55l-16.94,25.1,28,8.13s4.23-16.73,8.23-20.74S221.6,55,221.6,55Z"/>
            <path class="cls-7"
                  d="M221.6,55l-.93,1.38C222.61,64.45,227,78.24,235,80.43c1.6-4.94,3.81-10.79,6-13C244.93,63.48,221.6,55,221.6,55Z"/>
            <path class="cls-9"
                  d="M258.36,9.52s6.13,14.13,2.83,26.15-10.51,31-17.88,34.85c-5.73,3-14.4,7.33-21.71-15.53s1-36.52,9.2-40.76S257.42,7,258.36,9.52Z"/>
            <path class="cls-13"
                  d="M239,10.26s22.38,8.45,22.38,24.61c0,1.25,7.24-5.76,7.24-17.62,0-4.55-2.67-6.1-4.27-7.7-8.54-8.54-21.08-6.4-21.08-6.4L239,9.55Z"/>
            <path class="cls-14"
                  d="M256.8,22.74s-18-6.32-30.8,13c-3.6,5.46-16.73-3.71-14.12-8.39S256.8,22.74,256.8,22.74Z"/>
            <path class="cls-4"
                  d="M262.16,11.64s.91,8.72-9.45,13.66-25.54-.08-34.72,2.75-4.63,8.8-4.63,8.8-9.9-4.48-4.48-15.32S220.9,7.83,225.14,6,257.72-9.33,262.16,11.64Z"/>
            <path class="cls-9" d="M220.42,36.85s-3.18-8.37-5.42-6.13-.47,13.43,2.71,13.43S220.42,36.85,220.42,36.85Z"/>
            <path class="cls-15" d="M237.43,129.16s2.91,1.59,7.85-1.24S244.4,83,244.4,83l-14.85,5-1.23,18.34Z"/>
            <path class="cls-9"
                  d="M211.88,83c5.13,2.48,64.15,9,88.72,12.9s48.95,9.19,52.31,12.55,12.59,8,17.18,12.6c1.65,1.66,15.16,24.16,15.16,28.75s-3.54.71-6.89-6.18-8.84-15.91-11.49-16.79,2.09,3.56,5.54,7.78S381.36,153,378.89,153s-8.13-14.5-10.61-17-7.95-8.31-7.95-6.89,6.72,6,7.6,8.48,5.14,9.48,3.16,11.45-6.36-12.49-13.6-15.85S343,117,338.77,117s-113.1-5.3-119.64-6.18S211.88,83,211.88,83Z"/>
            <path class="cls-8"
                  d="M349.64,126.77c-1.85,6.37-5.83,12.15-11.72,12.15-17.31,0-17.31-41.64,0-41.64,5.21,0,8.85,3.79,10.91,9.08a89.56,89.56,0,0,0-8.75-2.64c-5.35-3.9-9.56,6.68-9.56,14.37,0,9,3.91,15.16,7.4,15.16,2.93,0,6.14-4.92,7.08-11.63C346.55,123.3,348.05,124.91,349.64,126.77Z"/>
            <path class="cls-12"
                  d="M244.4,83S205.29,75.51,199,76.62s-6.69,6.41-4.22,15.07,42.69,37.47,42.69,37.47S225.31,91.52,244.4,83Z"/>
            <path class="cls-7" d="M218.86,36.32s-1.58-3.61-2.47-2.72.74,9.56,1.89,8.41S218.86,36.32,218.86,36.32Z"/>
            <path class="cls-16" d="M219.65,45.45a1.9,1.9,0,1,1-1.9-1.9A1.9,1.9,0,0,1,219.65,45.45Z"/>
            <path class="cls-3"
                  d="M244.47,54.91c-1.59-.12-3.18-.22-4.79-.2,1.91.51,3.69.8,5.45,1.11A79.14,79.14,0,0,0,247,44.05,94.82,94.82,0,0,0,244.47,54.91Z"/>
            <path class="cls-3"
                  d="M236.15,36.55a15.55,15.55,0,0,0-3,.76c2.15-.92,3.46-1.71,6.19-1.49,3.05.33,7.21,3.52,5.56,4.68a.89.89,0,0,1-1.31-.34C243.41,39.94,239.92,36.08,236.15,36.55Z"/>
            <path class="cls-3"
                  d="M260,44.47a15.35,15.35,0,0,1,2,2.42c-1.17-2-1.75-3.44-4.07-4.9-2.64-1.55-7.89-1.48-7.25.43a.9.9,0,0,0,1.25.52C252.16,42.85,257.26,41.84,260,44.47Z"/>
            <path class="cls-3" d="M232.72,56.89s5.84,4.5,12.1,5.37c0,0-4,2.31-6.49,2.31S232.72,56.89,232.72,56.89Z"/>
            <path class="cls-7"
                  d="M236.11,50.5c-1,1.15-3.67.46-6.1-1.53s-3.62-4.54-2.68-5.69,3.67-.45,6.1,1.54S237.05,49.36,236.11,50.5Z"/>
            <path class="cls-3" d="M242.57,44.19a1.91,1.91,0,1,1-.88-2.92A2.2,2.2,0,0,1,242.57,44.19Z"/>
            <path class="cls-3" d="M254.81,47.53a1.91,1.91,0,1,1-.88-2.91A2.2,2.2,0,0,1,254.81,47.53Z"/>
        </g>
    </g>
</svg>