<svg xmlns="http://www.w3.org/2000/svg" xmlns:xlink="http://www.w3.org/1999/xlink" viewBox="0 0 893.44 625.9">
    <defs>
        <style>
            .cls-1{isolation:isolate;}.cls-2{fill:#e2e2e2;}.cls-3{fill:#fff;}.cls-4{fill:#ebecff;}.cls-5{fill:#fc7575;}.cls-6{fill:#3b4243;}.cls-7{fill:#c2d6ff;}.cls-8{fill:#ffd255;}.cls-9{fill:#fd5e5a;}.cls-10{fill:#472709;}.cls-11{fill:#5d5475;}.cls-12{fill:#6c3235;}.cls-13{fill:#7770a3;}.cls-14{fill:#4f5859;}.cls-15{fill:#552e5d;}.cls-16{fill:#653870;}.cls-17{fill:#b2165b;}.cls-18{fill:#e59d0b;}.cls-19{fill:#959b9b;}.cls-20{fill:#132a3a;}.cls-21{fill:#7365c8;}.cls-22{fill:#5241bb;}.cls-23{fill:#3e318c;}.cls-24{fill:#978dd6;}.cls-25{fill:#15102f;}.cls-26{fill:#c5c6fe;}.cls-27{fill:#0b446b;}.cls-28{fill:#287293;}.cls-29{fill:#041c69;}.cls-30{fill:#001959;}.cls-31{fill:url(#Untitled_Gradient_2);}.cls-32{fill:#591321;}.cls-33{fill:#fb8603;}.cls-34{mix-blend-mode:multiply;opacity:0.54;fill:url(#linear-gradient);}.cls-35{fill:#4f64eb;}.cls-36{fill:#2e050e;}.cls-37{fill:url(#linear-gradient-2);}.cls-38{fill:#b9bbff;}.cls-39{fill:#8c90ff;}.cls-40{fill:#b9c1f7;}.cls-41{fill:#fff7cf;}.cls-42{fill:#fbe1ff;}.cls-43{fill:#170f33;}.cls-44{fill:#2d1e66;}.cls-45{fill:#1a1361;}.cls-46{fill:#4c969c;}.cls-47{fill:#f7d364;}.cls-48{fill:#70a3ff;}.cls-49{fill:#385280;}.cls-50{fill:#5491ff;}.cls-51{fill:#547abf;}.cls-52{fill:#84d3d9;}.cls-53{fill:#ffcb57;}.cls-54{fill:url(#linear-gradient-3);}.cls-55{fill:#280d0d;}.cls-56{fill:#00648c;}.cls-57{fill:url(#Untitled_Gradient_2-2);}
        </style>
        <linearGradient id="Untitled_Gradient_2" x1="-976.19" y1="511.67" x2="-956.3" y2="511.67"
                        gradientTransform="translate(1675.18)" gradientUnits="userSpaceOnUse">
            <stop offset="0" stop-color="#18898a"/>
            <stop offset="1" stop-color="#2c9d9e"/>
        </linearGradient>
        <linearGradient id="linear-gradient" x1="-980.92" y1="483.74" x2="-880.34" y2="483.74"
                        gradientTransform="translate(1675.18)" gradientUnits="userSpaceOnUse">
            <stop offset="0" stop-color="#ffe5b8"/>
            <stop offset="1" stop-color="#ffc870"/>
        </linearGradient>
        <linearGradient id="linear-gradient-2" x1="-993.79" y1="500.67" x2="-979.85" y2="500.67"
                        gradientTransform="translate(1675.18)" gradientUnits="userSpaceOnUse">
            <stop offset="0" stop-color="#931153"/>
            <stop offset="1" stop-color="#3c3e69"/>
        </linearGradient>
        <linearGradient id="linear-gradient-3" x1="-206.42" y1="277.47" x2="-117.19" y2="277.47"
                        gradientTransform="matrix(-1, 0, 0, 1, 494.21, 0)" gradientUnits="userSpaceOnUse">
            <stop offset="0" stop-color="#931171"/>
            <stop offset="1" stop-color="#3c3e69"/>
        </linearGradient>
        <linearGradient id="Untitled_Gradient_2-2" x1="-394.78" y1="581.7" x2="-317.46" y2="581.7"
                        gradientTransform="matrix(-1, 0, 0, 1, 494.21, 0)" xlink:href="#Untitled_Gradient_2"/>
    </defs>
    <g class="cls-1">
        <g id="Capa_2" data-name="Capa 2">
            <g id="Layer_1" data-name="Layer 1">
                <path class="cls-2"
                      d="M340.63,7.38C266.61,22.75,186.82,53,176.38,133.1,171.84,168,174,204.6,158.61,236.59,135.72,284,44.06,316.86,112.17,381.77c30.28,28.87,68.36,49.35,107.13,67.1,82.05,37.56,222.34,83.84,294.13,31.06,53.77-39.53,56.69-117.32,56.69-175.68,0-45,17.58-88.61,42.12-126.66C644,128.34,655.43,86.68,597.61,50.94,522.76,4.68,427.74-10.7,340.63,7.38Z"/>
                <path class="cls-3"
                      d="M241.19,229.23a.62.62,0,0,0-.64-.6H162.06c-.15.4-.31.8-.47,1.2h41v32.41a.64.64,0,0,0,1.28,0V229.83h36.63A.62.62,0,0,0,241.19,229.23Z"/>
                <path class="cls-3"
                      d="M386.63,134.43H330.56a.57.57,0,0,0,.14-.38V101.64h36.63a.6.6,0,1,0,0-1.2H296.14V65.2h36.63a.6.6,0,1,0,0-1.2H228.84a.6.6,0,1,0,0,1.2h66v35.24H263.4a.6.6,0,1,0,0,1.2h66v32.41a.57.57,0,0,0,.14.38H282.7a.6.6,0,1,0,0,1.2h66V168a.64.64,0,0,0,1.28,0V135.63h36.63a.6.6,0,1,0,0-1.2Z"/>
                <path class="cls-3"
                      d="M542.78,424.43H438.86a.6.6,0,1,0,0,1.19h66V458a.64.64,0,0,0,1.27,0V425.62h36.63a.6.6,0,1,0,0-1.19Z"/>
                <path class="cls-3"
                      d="M369.44,263.67H265.51a.6.6,0,1,0,0,1.2h66v32.41a.64.64,0,0,0,1.28,0V264.87h36.63a.6.6,0,1,0,0-1.2Z"/>
                <path class="cls-4"
                      d="M597.61,50.94C539.48,15,469.19-2.29,399.88.24V406H560.22c9.06-33.56,9.9-70.42,9.9-101.7,0-45,17.58-88.61,42.12-126.66C644,128.34,655.43,86.68,597.61,50.94Z"/>
                <path class="cls-2"
                      d="M527.45,18.34q-6.8-2.27-13.69-4.24v90.38H399.88v8.32l113.88.59V406h13.69V113.39h111a58.75,58.75,0,0,0-.22-8.91H527.45Z"/>
                <path class="cls-5"
                      d="M242.44,158.81s-15.1,80.71-15.1,109.64c0,32.9,21.41,67.32,21.41,67.32L257.36,318s-10.58-35.75-10.58-54.19,16-81.44,16-81.44Z"/>
                <path class="cls-6" d="M239.66,142.51s-6.78,37.82-12.32,68l30,21.82,6.81-63.05Z"/>
                <ellipse class="cls-7" cx="227.34" cy="584.82" rx="174.41" ry="22.38"/>
                <path class="cls-8"
                      d="M97,553.48l-14.91-2.15s-56.77-1.58-56.77,24.4,127.85,15.93,135.81,23.9-88,17.6-88,17.6,74.19,15.51,104.37,5,13.83-38.22-9.64-42.79-33.54,1.29-33.54,1.29Z"/>
                <path class="cls-9"
                      d="M286.92,518.65c3,0,21.75-8.84,24.78-8.59-.54,5.73,5.66,63,5.66,63s-20.22-.43-25.74-.09c-7.53.47-20.09.09-20.09.09,12-4.27,25.44-6.63,27.66-8.52S286.78,525.65,286.92,518.65Z"/>
                <path class="cls-9"
                      d="M336.66,527.74c3,0,21.75-9.48,24.78-9.22-.54,6.15-5.39,67.47-5.39,67.47s-9.17-.28-14.69.09c-7.53.5-39.38,2.36-39.38,2.36,12-4.59,33.33-13.19,35.55-15.22S336.52,535.26,336.66,527.74Z"/>
                <path class="cls-10"
                      d="M269.57,442.75,288,268.64c14.33-1.1,41.63-4.88,53.33,7.19-6.87,41.43-32.17,155.28-32.17,168.73,0,23,5.83,91.35,5.83,91.35l-27.24-1Z"/>
                <polygon class="cls-11" points="314.99 535.91 286.55 537.1 281.17 518.52 314.42 516.63 314.99 535.91"/>
                <polygon class="cls-12"
                         points="351.45 224.9 376.73 261.78 364.09 411.84 364.09 535.91 332.17 536.42 317.36 413.94 305.45 233.7 351.45 224.9"/>
                <polygon class="cls-13" points="364.02 536.42 332.17 536.42 327.42 516.79 366.68 516.79 364.02 536.42"/>
                <path class="cls-14"
                      d="M275.23,109c8.08,1,15.95,9.21,29.36,39.12s66.34,93.44,66.34,93.44l-10.28,8.31s2.35,12.88-15.56,28.75S283,299.34,283,299.34s-8.19-40.49-19.28-72.12c-7.44-21.21-18.57-36-20.51-40.92C221.67,132.15,267.15,108.08,275.23,109Z"/>
                <polygon class="cls-15" points="130 544.01 363.47 154.06 354.87 148.56 121.4 538.51 130 544.01"/>
                <path class="cls-16"
                      d="M129,565.37l-26.78-15.29,6.57-11.51A9.7,9.7,0,0,1,122,535l9.94,5.67a9.7,9.7,0,0,1,3.61,13.23Z"/>
                <path class="cls-17"
                      d="M137.8,583.13l-55.69-31.8h0a11,11,0,0,1,15.06-4.12l36.52,20.86a11,11,0,0,1,4.11,15.06Z"/>
                <path class="cls-8"
                      d="M86,566.88c2.24,0,33-8.62,63.71,2.21s33.48,17.67,40.73,24.91,0,20.12,0,20.12-16.14-25-38.49-29.3-45.83,0-45.83,0Z"/>
                <path class="cls-18"
                      d="M46.36,562.89c-3.7,3.72-4.64,8-.5,11.36C64.11,588.8,201.29,581.76,169,609.4c-9.05,6.45-23.78,5.74-34.93,4.72,11.23,1,30.54,1.68,37.31-7.4a7.36,7.36,0,0,0,2-6.45c-.79-3.42-4.75-5-8-6.24C146,587.2,72.3,585,51.65,578.55,41,575.25,39,568.38,45.37,561.89c8.51-8.37,22.63-9,34.55-7.81a.84.84,0,0,1-.17,1.67C68.31,554.6,54.65,554.86,46.36,562.89Z"/>
                <path class="cls-18"
                      d="M87.13,559.53c-9.13.35-17.45-.65-24.06,3-3,1.66-4.76,3.76-2.64,6.4a7.66,7.66,0,0,0,3.63,2.47c32.32,9.71,68.23.57,98.61,10.92,6.38,2,14.45,5.51,14.13,12.41-.39-9.08-14.94-11.64-24.1-13.64-34.13-5.57-61,1-89.35-7.83a9.46,9.46,0,0,1-4.92-3.64,5.12,5.12,0,0,1-.9-3.67c3.1-9.66,21.23-7.84,29.54-8.11a.84.84,0,1,1,.06,1.68Z"/>
                <path class="cls-18"
                      d="M88.12,568.08c17.87-3,30.57-2.85,42.35-1.47,10.56,2.14,21.75,5.58,31,11.08-11.79-5.48-28.61-9.49-35.83-9.85-17.15-1.23-38.48,2.08-37.22,1.9A.84.84,0,0,1,88.12,568.08Z"/>
                <path class="cls-9"
                      d="M273.06,266.19l4.76,6.91,6.59-5.22s-5.06-3.44-7.29-4S273.06,266.19,273.06,266.19Z"/>
                <path class="cls-5"
                      d="M299.9,173.06s28.67,47.87,21.79,62.53c-3.1,6.6-8.72,13.42-14,18.93a47.85,47.85,0,0,1-25.83,13.91,114,114,0,0,0-12.33,2.72c-3.63,1.39-2.79,10.33-2.79,10.33s-.09,2.8-.09,4.48-1.41,9.67.82,9.67,13.37-8.29,13.37-8.29,24.1-2.68,36.2-13c15.11-12.87,25.33-26.66,29.76-45.13s-21.94-70.42-21.94-70.42Z"/>
                <path class="cls-19" d="M257.36,113.71Z"/>
                <path class="cls-19"
                      d="M264.18,119.63c-.23-16.38,19.32-14.28,31.29-3.55,5.39,4.83,37.69,43.84,37.69,43.84l-40.38,26.94S264.5,131.52,264.18,119.63Z"/>
                <path class="cls-5"
                      d="M262.08,319.93a31,31,0,0,0-6.24-3.12c-4.53-1.85-8.6,3.23-9.46,4.23a42,42,0,0,0-4.86,7.44,15.93,15.93,0,0,0-1.85,5.55c-.41,3,11,9.83,12,8.91.65-.62,1.13-1.38.85-2.08s-6.21-7.38-6.21-7.38,8.48,5.91,11,5.16,2.05-2.22,1.35-2.81-8.35-8.17-8.35-8.17,9.61,4.78,11.23,4.28,2.59-2.84-1.75-5.52a37.13,37.13,0,0,1-5.21-4.22s6.67,2.08,9.1,1.34S262.08,319.93,262.08,319.93Z"/>
                <path class="cls-20"
                      d="M470.91,448.78a11.62,11.62,0,0,1,.94,4.56v43.35l4.37-.55V458.63A12,12,0,0,0,470.91,448.78Z"/>
                <path class="cls-21"
                      d="M475.59,510.64s-2.46,89.63-2.46,89.81c0,4.79-19,8.68-42.4,8.68-6.5,0-12.67-.3-18.17-.84-14.32-1.39-24.22-4.38-24.22-7.84,0-.18-3.08-111.59-3.09-111.81h91Z"/>
                <path class="cls-22"
                      d="M426.9,488.64H385.25v.08c.1,3.25,3.09,111.55,3.09,111.73,0,3.46,9.9,6.45,24.22,7.84l10.72-92.74a188.65,188.65,0,0,0,52.31-4.91l.63-22Z"/>
                <path class="cls-23"
                      d="M471.19,505c-17.9,3.5-49.13,4.63-71.51,1.91a109.1,109.1,0,0,1-12-2.05c-13.06-3.09-14.67-6.81-8-16.55a2.33,2.33,0,0,0-.21.92c0,3.64,9.5,6.83,23.81,8.65a223.17,223.17,0,0,0,27.41,1.58c28.29,0,51.21-4.58,51.21-10.23a2.83,2.83,0,0,0-.9-1.92h.08C492.84,499.7,478,503.68,471.19,505Z"/>
                <path class="cls-24"
                      d="M379.51,489.25c0,5.65,22.93,10.23,51.22,10.23S482,494.9,482,489.25a2.28,2.28,0,0,0-1-2,21.1,21.1,0,0,0-4.59-2.6c-8.47-3.33-25.74-5.6-45.67-5.6C402.44,479,379.51,483.6,379.51,489.25Z"/>
                <path class="cls-25"
                      d="M476.22,488.58c0,1.79-3.53,3.44-9.47,4.75-8.31,1.85-21.36,3-36,3h-2c-13.74-.1-25.9-1.24-33.85-3-6-1.32-9.64-3-9.64-4.79,0-4.19,19.3-7.61,43.49-7.78h2C455.85,480.79,476.22,484.27,476.22,488.58Z"/>
                <path class="cls-26"
                      d="M466.75,493.33c-2.59.58-5.65,1.09-9.08,1.53h0a241,241,0,0,1-53.78,0c-3.38-.43-6.41-.93-9-1.5,8.32-1.84,21.36-3,36-3S458.43,491.51,466.75,493.33Z"/>
                <path class="cls-27"
                      d="M461.54,444.61H394.17c-7.33,0-13.28,5.12-13.28,11.45l-.17,43.44,4.82,1.59-.14-40c0-6.33,6-11.46,13.29-11.46h67.36a14.76,14.76,0,0,1,7.81,2.19C471.89,447.57,467.12,444.61,461.54,444.61Z"/>
                <path class="cls-28"
                      d="M476.56,484.69c-.33-.15-1-.38-1.21-.46.22-17.37.82-23.07.42-27.08-1.25-9.43-6.93-7.22-35.38-7.29-23.11.15-41.76-.08-41.71-.08s-7.56-.25-11.48,5.9c-2.4,3.88-1.45,6.74-1.47,28.68,0,2.91,0,6.14-.07,9.76q0,3.27-.12,7l-1.28-.42c0-2.52,0-4.88,0-7.1,0-3.16,0-6,0-8.64,0-27.45-.65-26.18,1.62-30a13.7,13.7,0,0,1,11.86-6.45c12.85-.14,70.16-.7,73.53.63a8.37,8.37,0,0,1,4.6,4C478.23,458.1,477,456.54,476.56,484.69Z"/>
                <path class="cls-29"
                      d="M20.23,589.32C-6.66,562.43,1,527.08,1.06,526.73l1.23.28c-.08.34-7.55,35,18.83,61.42Z"/>
                <path class="cls-29"
                      d="M215.23,311.38c-20.17-35.79-9.28-65.74-9.17-66l1.17.44c-.1.29-10.78,29.72,9.1,65Z"/>
                <path class="cls-5"
                      d="M220,100l19.05,33.12c1,1.8,5.11,11.42,7.27,11.68,5,.58,16-6,18.91-12.83,2.56-5.93-29.59-40.89-29.59-40.89S225.81,95.13,220,100Z"/>
                <path class="cls-9"
                      d="M235.65,91.12s1.07,1.14,2.82,3a63.8,63.8,0,0,1,4.61,12.48c1.18,5.57-.94,17-7.14,21.08L220,100C225.81,95.13,235.65,91.12,235.65,91.12Z"/>
                <path class="cls-30" d="M211.61,51.73c5.67,2.45,11.69,6.86,9,12.22,3.53-5.25-2.43-11-7.95-14.17Z"/>
                <path class="cls-5"
                      d="M200.53,79.71s-6.75,4.84-2.32,13.88,23.28,30.47,31.87,28.67,12.15-14.74,11.07-20.45C240,95.87,235.68,88,235.68,88S217.19,56.67,200.53,79.71Z"/>
                <path class="cls-30"
                      d="M250.1,95.85s-.56,2.85-4,1.42c0,0-7.91-3.26-6.74-9.72s3.32-15.59-2.51-23-16-1.7-16-1.7-9-11.25-20.81.67c0,0-4.28-1.14-12.39,3.78s-3.54,8.11-8.77,10-8-1.22-6.84-3.7c0,0-6.09,8.07-3.39,14.85s15.54.11,15.54.11-9.44,6.89.8,6.66,14-2.39,16.12-9.39,4.06-9.46,7.21-9.85,5.45,5.38,9.59,3.86,12.32,6.54,12.32,6.54,2.38-2.55,6.24,4.15,5.38,11.29,10.07,9.56S250.1,95.85,250.1,95.85Z"/>
                <path class="cls-5"
                      d="M227.69,77.68c2.08-1.49,8.41-2.91,7.94,6.2s-8.58,4.32-9.85,1.12A6.34,6.34,0,0,1,227.69,77.68Z"/>
                <path class="cls-30"
                      d="M212.1,99c2.93,3.69,5.25,7.57,8.4,10.8q1.47-.8,3-1.47a37.62,37.62,0,0,1-3.12,2.92A36.28,36.28,0,0,1,212.1,99Z"/>
                <path class="cls-30"
                      d="M213.11,96.84a.54.54,0,0,0,.36-.66,4.63,4.63,0,0,1,1.15-4c1.45-1.76,6.75-3.21,8.67-3.63a.53.53,0,0,0,.44-.65.56.56,0,0,0-.68-.41c-.3.06-7.34,1.59-9.34,4a5.7,5.7,0,0,0-1.36,5,.58.58,0,0,0,.71.37Z"/>
                <path class="cls-3"
                      d="M229.94,107.33S224,113.59,219.29,115c0,0,2.62,2.68,5.59,2.17A7.32,7.32,0,0,0,229.94,107.33Z"/>
                <path class="cls-9" d="M233.13,80.24s2.42,4.93,0,6.23-5.19-1.87-4.59-4.52S232.54,78.77,233.13,80.24Z"/>
                <path class="cls-30"
                      d="M216,97.77a1.91,1.91,0,0,0,2.51.61,1.7,1.7,0,0,0,.08-2.46,1.92,1.92,0,0,0-2.51-.6A1.69,1.69,0,0,0,216,97.77Z"/>
                <path class="cls-30"
                      d="M206.38,104a1.92,1.92,0,0,0,2.51.6,1.71,1.71,0,0,0,.07-2.46,1.92,1.92,0,0,0-2.51-.6A1.7,1.7,0,0,0,206.38,104Z"/>
                <path class="cls-30"
                      d="M208.38,99.23a.52.52,0,0,1,.36.68.54.54,0,0,1-.34.35.65.65,0,0,1-.39,0c-.85-.26-3.35-.83-4.63-.35a9.22,9.22,0,0,0-.91.39c-.23-.3-.44-.6-.66-.9A12.49,12.49,0,0,1,203,98.9C204.9,98.19,208.24,99.18,208.38,99.23Z"/>
                <path class="cls-31" d="M716.87,488.14h-6.3c-6,0-11.58,9.65-11.58,22.55s3.82,24.51,9.77,24.51h10.12Z"/>
                <path class="cls-32"
                      d="M730.89,511.67c0,13-5.56,23.53-12.42,23.53s-12.42-10.53-12.42-23.53,5.56-23.53,12.42-23.53S730.89,498.68,730.89,511.67Z"/>
                <path class="cls-33"
                      d="M671.11,509.32s1.49-29.69,20.9-49.1S740.1,440,765.31,443s29.52,31.84,29.52,50.41v31.85s-118.08,4.31-123.72-1.33C668.6,521.4,671.11,509.32,671.11,509.32Z"/>
                <path class="cls-34"
                      d="M765.31,443c-24.25-2.88-51.72-2.22-71,15.11,16.55-6.48,35.66-6.24,53.11-4.17,25.21,3,29.52,31.84,29.52,50.42v21.47c10.82-.31,17.94-.57,17.94-.57V493.39C794.83,474.82,790.52,446,765.31,443Z"/>
                <path class="cls-35"
                      d="M668,525.4c11.77,8.71,130.85,1.41,130.85,1.41l.67-39.39s-24.88-5.3-36.82,1.33S749.89,510,749.89,510c-33,2.49-80.94-2.86-80.94-2.86C666,509.87,664.7,523,668,525.4Z"/>
                <path class="cls-36"
                      d="M774.87,494.51h-7.53c-7.12,0-12.89,10.45-12.89,23.34a42.83,42.83,0,0,0,1.38,11c7.52-.27,14.6-.57,20.75-.86Z"/>
                <path class="cls-32" d="M775.26,494.51H769c-6,0-11.58,9.65-11.58,22.55s3.82,24.51,9.77,24.51h10.12Z"/>
                <path class="cls-37"
                      d="M695.33,500.68c0,4.3-3.12,7.79-7,7.79s-7-3.49-7-7.79,3.13-7.8,7-7.8S695.33,496.37,695.33,500.68Z"/>
                <path class="cls-38"
                      d="M684.84,498.39c-24.45,26.67-72.42,18.79-95.09-8.32-19-22.7-22.38-60-18.25-108.41l-9.18,42.52c.68,29.92,6.36,54.3,20.73,71.49,26.06,31.16,80.15,39.25,108.22,8.62C695.17,500,688.74,494.12,684.84,498.39Z"/>
                <path class="cls-39"
                      d="M564.65,451.26c3.09,1.9,5.55.79,8.52-1.24a8,8,0,0,1-1.71,1.74C568.67,453.71,565.94,452.9,564.65,451.26Z"/>
                <path class="cls-39"
                      d="M566.66,461.24c2.91.43,5.83-1.69,8.12-3.22C572.34,461.4,568.69,462.32,566.66,461.24Z"/>
                <path class="cls-39"
                      d="M569.85,472.63c3.38-.47,6.51-1.41,7.88-4.39C577.31,471.77,573.23,473.29,569.85,472.63Z"/>
                <path class="cls-39"
                      d="M568.59,468.24c4.88-.18,6.62-1.74,8-3.57C575.54,468,571.73,469.24,568.59,468.24Z"/>
                <path class="cls-39"
                      d="M649.35,514.67c2.94,1.45,3.84,5.41.88,8.68C651.74,519.94,651.93,517.5,649.35,514.67Z"/>
                <path class="cls-39"
                      d="M659.4,513.11c2.94.84,4.32,4.68.88,8.75C661.72,518.33,662.63,515.35,659.4,513.11Z"/>
                <path class="cls-39" d="M654.8,514c2.72,2.25,3.65,6.25.6,8.73C656.76,520.59,657.48,518.43,654.8,514Z"/>
                <path class="cls-39"
                      d="M669.34,509.65c3.65.84,6.2,4.2,3.86,7.83C673.89,514.79,673.94,512.44,669.34,509.65Z"/>
                <path class="cls-39"
                      d="M666,511.05c2.67,1.62,4.75,5.36,2.77,8.22C669.67,516.24,668.09,513.58,666,511.05Z"/>
                <ellipse class="cls-40" cx="776.86" cy="518.04" rx="12.42" ry="23.53"/>
                <path class="cls-41"
                      d="M781.87,518c0,5.25-2.24,9.5-5,9.5s-5-4.25-5-9.5,2.24-9.49,5-9.49S781.87,512.8,781.87,518Z"/>
                <path class="cls-42"
                      d="M671.65,504.37c1.74-29.47,19.88-55.41,49.13-59.95C697.23,452.6,680.32,467.84,671.65,504.37Z"/>
                <path class="cls-9"
                      d="M650.35,171.11s20.23,90.25,36.18,108.32,29.59,56.62,29.59,56.62L703.64,341s-23.21-28.26-34.86-50.52c-5.43-10.36-22.7-42.7-25.82-68.17C639.39,193.08,650.35,171.11,650.35,171.11Z"/>
                <path class="cls-43"
                      d="M636.94,75.28s10.81,4.38,16.06,9.85,7.64,16.33,6.59,24.93-3.3,10.15-3.3,10.15,5,12,3.46,22.34S647,162.71,639.64,164.11c0,0,10.19-12.18,8.84-18.59,0,0-7.34,10.47-14.69,14.53s-42.91,39.74-65.9,14.25c0,0,18.79-8.47,12.64-25.34s10.8-32.19,10.8-32.19-13.2,7.35-20.1-2.5,4.95-17.49,5.55-16.87-4.65,9.53,1.5,11.88,7.58-7.11,17.25-17.19S632.29,70.44,636.94,75.28Z"/>
                <path class="cls-5" d="M655.77,553.86l4.75,19.63L675,569.27s-1-7.78-2.76-20Z"/>
                <path class="cls-5" d="M566.86,548.84l0,20.19,15-.73s.88-7.79,2-20.08Z"/>
                <path class="cls-5"
                      d="M633.94,164.58l5.75-37.67-19.4-1.38-5.74,31.08C618.73,160.59,626.26,168.56,633.94,164.58Z"/>
                <path class="cls-9"
                      d="M637.18,143.37l2.51-16.46-19.4-1.38L618,137.75c.22.3.47.59.73.88C622.35,142.61,630.36,149,637.18,143.37Z"/>
                <path class="cls-5"
                      d="M642.49,84.13s7.94,2.82,7.94,13.61c0,0-.87,24.71-10.74,37.06-7.24,9-16.89,2.24-20.92-1.79-5.88-5.88-4.21-13.87-4.21-24.66S631.64,76.46,642.49,84.13Z"/>
                <path class="cls-44" d="M629.46,110.26A2.07,2.07,0,1,1,627.4,108,2.16,2.16,0,0,1,629.46,110.26Z"/>
                <path class="cls-44" d="M646.09,112.32a2.07,2.07,0,1,1-2.06-2.25A2.16,2.16,0,0,1,646.09,112.32Z"/>
                <path class="cls-44"
                      d="M621.64,109.62s3.91-2.57,6.81-1.84,3.28,2.48,3.28,2.48a7.72,7.72,0,0,0-5.5-1.31C623.09,109.47,621.64,109.62,621.64,109.62Z"/>
                <path class="cls-44"
                      d="M650.35,113.53s-3.14-3.47-6.12-3.51-3.81,1.57-3.81,1.57a7.72,7.72,0,0,1,5.66.13C649,113,650.35,113.53,650.35,113.53Z"/>
                <path class="cls-44"
                      d="M637.88,115a38.19,38.19,0,0,0,1.69,6.25,12,12,0,0,1-3.61,1.47c3.36.14,4.31-1.21,4.46-1.26A49.27,49.27,0,0,0,637.88,115Z"/>
                <path class="cls-9"
                      d="M629.8,117.9c0,1.74-2.27,3.16-5.06,3.16s-5.06-1.42-5.06-3.16,2.27-3.15,5.06-3.15S629.8,116.16,629.8,117.9Z"/>
                <path class="cls-9"
                      d="M646.8,116.22c-2.12,0-3.84,1.33-3.84,3,0,1.46,1.36,2.67,3.16,2.92.63-1.92,1.18-3.87,1.64-5.79A5,5,0,0,0,646.8,116.22Z"/>
                <path class="cls-44"
                      d="M648.35,81.33s1.34,15.42-11.79,16.39a42.59,42.59,0,0,0-21.48,7.5l-5.85,17.52s-2.83-13.52-2.45-23.44,14.55-23.72,24-25S648.35,81.33,648.35,81.33Z"/>
                <path class="cls-5" d="M616.87,107.57s-.92-3.27-3.8-2.55-1.47,9.19,0,10.66S619.71,116,616.87,107.57Z"/>
                <path class="cls-9"
                      d="M616.13,109.21s-1.71-4-3.06-2.67.27,7.24,1.45,7.24S616.13,109.21,616.13,109.21Z"/>
                <path class="cls-44"
                      d="M628.84,127.37c-.35-.25-.24-.34-.49,0-.71,1,.52,4.17,2.63,4.84,2.73.87,6.64-1,6.64-2.63C637.62,129.07,634.05,131.05,628.84,127.37Z"/>
                <path class="cls-44"
                      d="M623,104.48s4.83-1.74,6.76-1.74,4.57,2.22,4.07,3.53-2.82-2.18-4.41-2.18S623,104.48,623,104.48Z"/>
                <path class="cls-44"
                      d="M648.35,108.7s-1.15-2.81-3-3.38-5,.8-4.92,2.19,3.33-1.26,4.85-.79A9.27,9.27,0,0,1,648.35,108.7Z"/>
                <path class="cls-45"
                      d="M567.51,260s-20.8,47-20.8,61.62,10.91,228.88,10.91,228.88L591.71,552s-1.46-200.26,3.67-205.39,10.27-4.4,10.27-4.4l43.89,213,31.81-2.42s-17-203.22-25.82-225.22S627.66,260,627.66,260Z"/>
                <path class="cls-46"
                      d="M598.71,286.17a65.14,65.14,0,0,1-33.86-10.06l1.68-2.38c.25.18,26.36,18,54.47,4.39l1.28,2.62A53.46,53.46,0,0,1,598.71,286.17Z"/>
                <path class="cls-46" d="M598.31,276a3.47,3.47,0,1,1-3.46-3.46A3.46,3.46,0,0,1,598.31,276Z"/>
                <rect class="cls-46" x="576.71" y="272.08" width="19.36" height="2.91"
                      transform="translate(255.73 829.72) rotate(-84.28)"/>
                <path class="cls-47"
                      d="M650.35,168c-6.67-5-14.13-7.94-20.31-10.5-20.67-8.58-35.65-11.91-44.6-14.42-19.45,29.36-25.69,67.74-26.86,104.2,3.25,9.06.07,8.2,8.93,12.74,23.09,11.85,43.66,9.54,58.31,3.17,7.34-3.19,10.9-22.65,14.85-26.6C652.51,224.76,654.49,171.11,650.35,168Z"/>
                <path class="cls-5"
                      d="M630,157.51c-20.62-8.56-16.56-5.27-24.94-11.91-1.32,12.94-.18,48.51,12.94,57.37,15.22,10.29,20.15-19.56,24.56-40.25C627.93,152.8,642.6,162.72,630,157.51Z"/>
                <path class="cls-48"
                      d="M582.2,564.19,580.67,580c-.62,6.42,1.72,11.79-6.34,12.34s-16.27-2.52-16.69-6.75,8.33-13.29,8.73-17.44,2.84-5.63,4-4.18S582.2,564.19,582.2,564.19Z"/>
                <path class="cls-49"
                      d="M579.71,589.92c-1.5,1.4-3.49,1.44-5.65,1.34-4.62-.2-14.65-1.4-16.42-5.64a4.25,4.25,0,0,0,1,3.24C563.77,595.31,578.52,595.12,579.71,589.92Z"/>
                <path class="cls-49"
                      d="M566.92,572.33c-.47,5.29,6.67,7.53,9.34,2.94l.12-.22a95.76,95.76,0,0,0,5.55-11.18c1-1.87,2.25-4.44-1.72-6.73s-10-2.66-10.22-.78C569.87,557.62,567.63,564.38,566.92,572.33Z"/>
                <path class="cls-3"
                      d="M580.21,557.14c4,2.29,2.7,4.86,1.72,6.73a95.76,95.76,0,0,1-5.55,11.18l-.12.22a5.38,5.38,0,0,1-.82,1.08c.07-.11.14-.22.2-.33l.13-.22a94.57,94.57,0,0,0,5.55-11.19c1-1.87,2.25-4.44-1.72-6.73-3.26-1.87-7.93-2.46-9.6-1.57C570.29,554.48,576.28,554.87,580.21,557.14Z"/>
                <path class="cls-50"
                      d="M575.33,576.45s.8-11.69,2.51-12a26.74,26.74,0,0,1,4.36-.26s-2,11.68-4.16,13.47S575.33,576.45,575.33,576.45Z"/>
                <path class="cls-3"
                      d="M566.66,567.09a.49.49,0,0,0,.16.4c4.41,4,11.3,1.08,11.59,1a.47.47,0,0,0,.25-.63.48.48,0,0,0-.63-.25c-.06,0-6.62,2.77-10.57-.78a.49.49,0,0,0-.68,0A.5.5,0,0,0,566.66,567.09Z"/>
                <path class="cls-3"
                      d="M565.93,571.74a.5.5,0,0,0,.15.39c2.72,2.59,10.87.87,11.21.8a.48.48,0,0,0-.2-.94c-2.22.48-8.4,1.31-10.35-.55a.48.48,0,0,0-.68,0A.51.51,0,0,0,565.93,571.74Z"/>
                <path class="cls-3"
                      d="M565.29,575.07a.51.51,0,0,0,.11.35c2.12,2.57,10.76,1.4,11.74,1.26a.47.47,0,0,0,.4-.54.49.49,0,0,0-.54-.41c-2.51.37-9.36.91-10.86-.92a.49.49,0,0,0-.68-.06A.46.46,0,0,0,565.29,575.07Z"/>
                <path class="cls-50"
                      d="M576.82,581.26s1.45,6.24.17,7.3-16.38-.62-16.13-3.24,4.16-7.44,5.55-7.7S576.82,581.26,576.82,581.26Z"/>
                <path class="cls-50"
                      d="M678.43,556.15s-8.33,1.37-8.55,6.9,6.68,13,6.68,13l6.45-4.38a15.61,15.61,0,0,1-3.43-8.27A55.43,55.43,0,0,0,678.43,556.15Z"/>
                <path class="cls-51"
                      d="M658.35,587.07l14.25.32c5.87.13,15.21,1.05,18.14,1.12s13.71-6.61,13.06-8.89-10.29-1.92-15.26-4.58-13.52-9-15.29-9.66c-2.77-1-10,1.49-11.72,3.14S656.92,585.56,658.35,587.07Z"/>
                <path class="cls-49"
                      d="M660.54,583.25c23.48-3.16,16.65,3.81,39.67-2.06-5.61,2.13-13.9,4.18-19.79,2.89a53.06,53.06,0,0,0-9.87-.89C667.22,583.12,663.88,583.18,660.54,583.25Z"/>
                <path class="cls-3"
                      d="M676.42,577.33a.91.91,0,0,0,1.27.14,46.42,46.42,0,0,1,7.19-4.78c-.54-.38-1.08-.78-1.63-1.19a50.64,50.64,0,0,0-6.69,4.55A.92.92,0,0,0,676.42,577.33Z"/>
                <path class="cls-3"
                      d="M675.42,573.58a.9.9,0,0,0,1.24-.32,51.08,51.08,0,0,1,4.69-5.5,3,3,0,0,0-.92-1.65,72.78,72.78,0,0,0-5.32,6.22A.91.91,0,0,0,675.42,573.58Z"/>
                <polygon class="cls-52" points="554.14 541.91 593.57 542.93 593.57 551.91 554.14 551.3 554.14 541.91"/>
                <polygon class="cls-52" points="645.08 547.88 684.88 545.3 684.88 552.74 646.89 556.15 645.08 547.88"/>
                <polygon class="cls-53" points="842.29 565.74 852.7 565.46 695.64 305.26 686.53 310.76 842.29 565.74"/>
                <path class="cls-41" d="M710,337.5,831.66,538.63,712.49,336a1.46,1.46,0,0,0-2.51,1.48Z"/>
                <path class="cls-54"
                      d="M700.63,312.28h0c-3.58,2.92-11.77,3-14.38-.83-7.75-11.29-20.59-33.06-32.5-35.9-16.4-3.9-41.74-3.71-41.74-3.71l-.61-8.19s24,.38,34.63.38,12.08,1.37,12.08,1.37-13.22-14.32-15.82-19.27.78-7.29,7-4.17S700.63,312.28,700.63,312.28Z"/>
                <path class="cls-5"
                      d="M632.63,255.51c-2.86-.77-10.87-7.41-10.87-7.41-17.33-9.45-47.19-27.87-47.89-33-1.1-8.14,19-40.21,19-56.68,0-14.85-11.43-22.81-23-8.9-5.11,6.14-25.59,57.53-26.43,74-.66,13,47.58,27,72.19,36.86a8.13,8.13,0,0,1,3.38,4.86c.91,4.14,4,9.85,6.46,9.85s3.72-1.21,5.91-.2,4.54-.24,6-.46,5.71,1.48,7.73-.53S635.5,256.29,632.63,255.51Z"/>
                <path class="cls-9"
                      d="M714.49,344.31c-.56.55-3,.45-3.9.61,2,.24,5.53,1.22,5.53,2.48,0,1.7-2.15,1.92-3.78,1.84,1.83.27,4.42.83,4.42,1.89,0,1.64-4.8,2.81-4.8,2.81a25.48,25.48,0,0,1-6.2-4.38c-2.72-2.71-6.86-14-6.86-16.52C698.9,333,716.21,342.58,714.49,344.31Z"/>
                <path class="cls-5" d="M716.71,334.15s3,6.7,3,9.25.16,9.09-3,8.46.51-7.59-1.4-10.75S714,330,714,330Z"/>
                <polygon class="cls-55"
                         points="871.69 579 852.84 565.75 848.73 546.77 826.65 548.9 836.37 568.94 821.22 579.53 871.69 579"/>
                <polygon class="cls-55"
                         points="807.35 590.12 807.35 592.87 821.71 592.87 822.61 591.02 822.84 592.87 858 592.87 858.2 591.5 858.83 592.87 866.01 592.87 866.38 591.5 866.8 592.87 878.04 592.87 878.04 591.29 878.86 592.87 885.68 592.87 886.5 591.02 886.89 592.87 891.01 592.87 891.01 590.12 807.35 590.12"/>
                <path class="cls-56"
                      d="M813.29,576.49h70.89a9.26,9.26,0,0,1,9.26,9.26v4.37a0,0,0,0,1,0,0H804a0,0,0,0,1,0,0v-4.37A9.27,9.27,0,0,1,813.29,576.49Z"/>
                <path class="cls-57" d="M811.67,581.7l75.6-1.68a1.68,1.68,0,1,1,.07,3.36h-.07Z"/>
                <path class="cls-44"
                      d="M643,87.19s-23.74,14.18-26.09,20.38-10.55,15.08-5.11,35.06S596.47,171.14,589,164.87s-6-19.57,0-18.59c0,0,2.86,6.06,7.52,1.41s.6-21.72-.2-32.68S623,60,643,87.19Z"/>
            </g>
        </g>
    </g>
</svg>