<svg xmlns="http://www.w3.org/2000/svg" viewBox="0 0 2542.14 1344.18">
    <defs>
        <style>
            .cls-1{fill:#ebf2f9;}.cls-2{fill:#c5dbff;}.cls-3{fill:#d57912;}.cls-4{fill:#cb6900;}.cls-5{fill:#e69d43;}.cls-6{fill:#b9774e;}.cls-7{fill:#6488d3;}.cls-8{fill:#af6f4a;}.cls-9{fill:#2c3a64;}.cls-10{fill:#9f5e3f;}.cls-11{fill:#739cf3;}.cls-12{fill:#415da5;}.cls-13{fill:#942e2a;}.cls-14{fill:#b84c42;}.cls-15{fill:#882529;}.cls-16{fill:#aa3f3a;}.cls-17{fill:#ad423e;}.cls-18{fill:#acd29a;}.cls-19{fill:#82b378;}.cls-20{fill:#ce8e55;}.cls-21{fill:#c0783d;}.cls-22{fill:#35488b;}.cls-23{fill:#adcbff;}.cls-24{fill:#2e3552;}
        </style>
    </defs>
    <g id="Capa_2" data-name="Capa 2">
        <g id="Layer_1" data-name="Layer 1">
            <path class="cls-1"
                  d="M409.74,460.44c379.87,70.5,157.14-709.16,674.63-378.22,205.8,131.61,502.14-27.65,785.92,59.4,260.62,79.94,196.42,342.26,171.2,428.09-50.94,173.37,202.76,104.23,349.81,178.71,230.66,116.85,28.32,587.92-189.59,589.88s-1818.84-3.91-1818.84-3.91-95.1-66.17-145.6-202.55C133.76,852.26,75.24,398.36,409.74,460.44Z"/>
            <path class="cls-2"
                  d="M1754.84,130.19h-517.6c-8.47,0-15.4,7.27-15.4,16.17s6.93,16.16,15.4,16.16h74.88V1323.91c0,7.61,5.93,13.83,13.17,13.83s13.17-6.22,13.17-13.83v-158.2h326.77v158.2c0,7.61,5.92,13.83,13.17,13.83s13.17-6.22,13.17-13.83V162.52h63.27c8.47,0,15.4-7.27,15.4-16.16S1763.31,130.19,1754.84,130.19ZM1338.46,582.08h326.77V852.84H1338.46ZM1665.23,561H1338.46V290.27h326.77Zm-326.77,583.63V873.9h326.77v270.76Zm326.77-875.45H1338.46V162.52h326.77Z"/>
            <path class="cls-2"
                  d="M1233.23,1260.53H492.28L356.66,874.47h77.28a9.36,9.36,0,0,0,1.75-.18l154.05-31.38a9.59,9.59,0,0,0,7.4-10.39,9.4,9.4,0,0,0-9.16-8.74H338.86l-66.5-189.29C268,622,254.72,615.6,242.84,620.19a23.72,23.72,0,0,0-14.26,16.43l-124,4.7-2.4-6.83C97.84,622,84.58,615.6,72.71,620.19s-18,18.48-13.62,31l214.06,609.36H169.56c-20.23,0-36.79,17.37-36.79,38.6h0c0,21.24,16.56,38.61,36.79,38.61H1233.23c20.23,0,36.79-17.37,36.79-38.61h0C1270,1277.9,1253.46,1260.53,1233.23,1260.53ZM492.31,843.1l-59.25,12H349.88l-4.24-12ZM268,761.58l32.87,93.57H179.74l-29-82.59ZM186.53,874.47H307.67l135.62,386.06H322.14Z"/>
            <g id="man">
                <path class="cls-3"
                      d="M444.93,1134H650.18c7.51,0,13.66,6.46,13.66,14.34v177.14c0,7.88-6.15,14.34-13.66,14.34H444.93c-7.52,0-13.67-6.46-13.67-14.34V1148.37C431.26,1140.49,437.41,1134,444.93,1134Z"/>
                <path class="cls-4" d="M545.07,1134l25.22,86.18,93.55-67.45v-4.39c0-7.88-6.15-14.34-13.66-14.34Z"/>
                <path class="cls-5"
                      d="M354.44,1134H559.69c7.52,0,13.67,6.46,13.67,14.35V1325.5c0,7.89-6.15,14.34-13.67,14.34H354.44c-7.51,0-13.66-6.45-13.66-14.34V1148.38C340.78,1140.49,346.93,1134,354.44,1134Z"/>
                <path class="cls-6"
                      d="M571.68,782.24c7,13.47,24.47,21.28,45.11,27.22,2.31.66,4.64,1.3,7,1.92,36.18,9.48,84.67,4,98.71,23.78,15.6,22,34.17,137.17,34.17,137.17,22.35,9.35,22.1,4.77,22.1,4.77,6.86-31.15,7.38-125.87,5.76-152-1.86-30-60.52-72-111-102.83-38.54-23.53-72.3-40.5-72.3-40.5-1,.23-2.08.48-3.08.75C553.72,694.4,552.38,745.19,571.68,782.24Z"/>
                <path class="cls-7"
                      d="M598.19,682.56c4.77,41.93,12.44,103.88,18.6,126.9,2.31.66,4.64,1.3,7,1.92,0,0,0-.06,0-.09,7-43.94,42.19-81.35,49.75-89-38.54-23.53-72.3-40.5-72.3-40.5C600.22,682,599.19,682.29,598.19,682.56Z"/>
                <path class="cls-6"
                      d="M373.29,1049.58a445.68,445.68,0,0,1,10.76-54.36c14.34-54.38,35.33-92.05,50.5-155,24.33-99.88,59.27-167.62,104.26-184.07l.37-.11c3.55-1.15,32.12-11.2,52.65-45,1.1-1.82,2.18-3.7,3.22-5.65a123.1,123.1,0,0,0,6-12.83q1.31-3.17,2.47-6.52l34.35,60.83s-4.42,11.53-14.62,30.44q-1.92,3.57-4.13,7.48l.27,0,8.56,15c11.6,21.47,19.39,72,7.7,105.53-67.19,192.81-98.89,192.42-99.56,194.67a11.06,11.06,0,0,1-3.3,4.58C509,1026.72,370.78,1068.07,373.29,1049.58Z"/>
                <path class="cls-8"
                      d="M623.26,677.34c10.2-18.91,14.62-30.44,14.62-30.44l-34.35-60.83q-1.17,3.36-2.47,6.52C597.39,608.15,592.72,646,623.26,677.34Z"/>
                <path class="cls-6"
                      d="M644.72,655.59S584,622,604.56,582.66s26.49-70.16,66.1-50.37,39.24,39.08,35.44,54S661,663.32,644.72,655.59Z"/>
                <path class="cls-9"
                      d="M603.15,585.38s35.34-46.41,89.92-14.84c37.38,21.63,38.38-24.1,37.92-31.84,0,0-29.43-15.36-60.12-30.29C606.45,477.08,602.4,573.7,603.15,585.38Z"/>
                <path class="cls-8"
                      d="M519.43,1087.82c16,2.23,39.23,2.26,64.78,1.47,69.54-2.15,156.71-10.42,161.82,4,33.36,94.25,153.27,168.34,155.38,203.3-.39,2.27,30.45-15.07,29.48-15.79,0,0-9.76-4.27-106.54-280.55-8.88-25.36-109.88-35-171-40.14-39-3.27-69.46-4.54-69.46-4.54s-41.66-7.28-84.31-4.16S459.92,1079.5,519.43,1087.82Z"/>
                <path class="cls-10"
                      d="M778.78,977.1s-30.21,11.46-43,4.72-1.61-24.16,7-24.16S770.21,958,778.78,977.1Z"/>
                <path class="cls-9"
                      d="M502.57,1087.82c16,2.23,39.22,2.26,64.78,1.47-6.25-21.18-22.71-59.35,1.55-87.64,0,0,26.39-38.09,47.59-44.29-39-3.28-49.45-1.76-49.45-1.76s-41.66-7.28-84.31-4.16S443.05,1079.5,502.57,1087.82Z"/>
                <path class="cls-11"
                      d="M384.05,995.22l.69.63,148.06,8.78a10.94,10.94,0,0,0,3.29-4.57c.11-.36,1-.64,2.66-1.64,4.73-2.81,15.78-11.26,33.54-42.77,15.75-27.92,36.78-74,63.36-150.26,11.7-33.55,3.91-84.06-7.69-105.53,0,0-8.49,4.94-19.06-.45-25.54-13-68.32-43.86-70.09-43.26-45,16.45-79.93,84.19-104.26,184.07C419.38,903.16,398.4,940.84,384.05,995.22Z"/>
                <path class="cls-7"
                      d="M471.69,804.43l72.56,71.48,44.32-71.67L572.29,955.65c-17.76,31.51-28.81,40-33.54,42.77-41,2.43-100.52,1.46-105.29-24.09C426.14,935.05,471.69,804.43,471.69,804.43Z"/>
                <path class="cls-6"
                      d="M407.29,1129.05c133.12,33.28,257.48-49.33,262.09-25.75,14.3,73.08,86.55,179,88.25,191.62.25,1.86,31.86,4.69,31.86,4.69S758.34,1041.5,732,1008.07c-27.19-34.51-271.66-20.62-271.66-20.62C365,967.62,348.14,1114.26,407.29,1129.05Z"/>
                <path class="cls-12"
                      d="M563.61,984.57s-65.05,70.7-72.28,77.65-34.93,4.42-34.93,4.42,30.31,4.22,30.31,9.69S467.44,1140,460.21,1140s-61-3.37-73.87-10.11-29.71-81.75-3.61-141.58l21-53.09S433.46,980.87,563.61,984.57Z"/>
                <path class="cls-13"
                      d="M562.45,871.89a42.15,42.15,0,0,1,52.47-30.38,43.47,43.47,0,0,1,15.69,8.13l9.08,6.91s9.57,25.5,6.17,38.82c-6,23.27-57.74,30.38-57.74,30.38l-10.28-8h0A44.81,44.81,0,0,1,562.45,871.89Z"/>
                <ellipse class="cls-14" cx="612.76" cy="890.21" rx="42.87" ry="43.93"
                         transform="translate(-325.87 354.56) rotate(-25.75)"/>
                <path class="cls-15"
                      d="M604.74,889.82c.43-5.19,6.45-10.33,12.92-7.82,2.62,1,72,46.61,72,46.61l-14.85,19.3-67.36-50.47S604.3,895.09,604.74,889.82Z"/>
                <path class="cls-6"
                      d="M468.65,983.21c31.33,32.85,175-60.68,175-60.68l-16.26-29.7-93.74,23a527.4,527.4,0,0,0,54.88-111.56c14.64-41.3,19-69.64,19-69.64,8-33.7-62.71-76.38-97.17-42.13-11.49,11.43-22.79,43.86-32.46,83.33C458.62,854.64,447.78,961.32,468.65,983.21Z"/>
                <path class="cls-8"
                      d="M481.8,758.49c33.17,8.19,98.73,26.58,106.77,45.75,0,0-61.18-27.57-120.93,17.48Z"/>
                <path class="cls-11"
                      d="M477.27,775.86c63.2-6.21,104.74,23.35,111.3,28.38,14.64-41.3,19-69.64,19-69.64,8-33.7-62.71-76.38-97.17-42.13C498.9,703.9,486.94,736.4,477.27,775.86Z"/>
                <path class="cls-9"
                      d="M895,1338.83h16.42c5.51-.91,9.57-2.58,15.21-3.35,8.57-1.18,12.52,2.5,13.3,3.35l.16.17h69.78c1.76-2.63.07-8.72-1.58-13.21a10.14,10.14,0,0,0-6.53-6.26c-7.4-2.25-22-4.26-35.35-17-7.52-7.13-36.3-26.21-36.3-26.21l-.15,0c-.63,0-3.64,1-16.73,12.58-6.77,6-18.3-8.45-18.3-8.45a17.17,17.17,0,0,0-3.79,5.38,19.08,19.08,0,0,0-1.5,11.25c1.05,6.6-2.31,18.86-5,27.15-1.63,5-3,8.6-3,8.6S880.9,1337,895,1338.83Z"/>
                <path class="cls-16"
                      d="M891.18,1285.84c3.93,2.9,12.2,8.62,17.7,9.37,7.41,1,21.27-18.84,21.27-18.84l-.15,0c-.63,0-3.64,1-16.73,12.58-6.77,6-18.3-8.45-18.3-8.45A17.17,17.17,0,0,0,891.18,1285.84Z"/>
                <path class="cls-16"
                      d="M895,1338.83h16.42c5.51-.91,9.57-2.58,15.21-3.35,8.57-1.18,12.52,2.5,13.3,3.35l.16.17h69.78c1.76-2.63.07-8.72-1.58-13.21-2.12-2-2.72,8.59-3.89,10.28s-56.93.61-60.15-1.85-12.88-6.76-26.34-3.38c-11.72,2.94-29-4.59-33.26-6.6-1.63,5-3,8.6-3,8.6S880.9,1337,895,1338.83Z"/>
                <path class="cls-9"
                      d="M749.17,1338.82H766.5c5.8-1,10.08-2.72,16-3.54,9-1.24,13.2,2.65,14,3.54l.16.18h73.6c1.85-2.77.07-9.2-1.67-13.93a10.69,10.69,0,0,0-6.89-6.61c-7.8-2.37-23.19-4.48-37.28-17.87-7.93-7.51-38.28-27.64-38.28-27.64l-.16,0c-.66,0-3.84,1-17.64,13.27-7.14,6.31-19.3-8.92-19.3-8.92a18.1,18.1,0,0,0-4,5.68,20.05,20.05,0,0,0-1.58,11.86c1.1,7-2.45,19.89-5.27,28.64-1.72,5.3-3.16,9.06-3.16,9.06S734.27,1336.87,749.17,1338.82Z"/>
                <path class="cls-16"
                      d="M745.11,1282.94c4.14,3.06,12.87,9.09,18.66,9.88,7.81,1.07,22.43-19.87,22.43-19.87l-.16,0c-.66,0-3.84,1-17.64,13.27-7.14,6.31-19.3-8.92-19.3-8.92A18.1,18.1,0,0,0,745.11,1282.94Z"/>
                <path class="cls-16"
                      d="M749.17,1338.82H766.5c5.8-1,10.08-2.72,16-3.54,9-1.24,13.2,2.65,14,3.54l.16.18h73.6c1.85-2.77.07-9.2-1.67-13.93-2.23-2.08-2.86,9.06-4.1,10.84s-60,.64-63.43-2-13.58-7.12-27.78-3.56c-12.36,3.1-30.58-4.85-35.08-7-1.72,5.3-3.16,9.06-3.16,9.06S734.27,1336.87,749.17,1338.82Z"/>
                <path class="cls-13"
                      d="M615.46,913.64a45.85,45.85,0,0,1,57.07-33.06,47.58,47.58,0,0,1,17.07,8.85l9.87,7.52s10.42,27.73,6.72,42.23c-6.47,25.31-62.81,33.05-62.81,33.05l-11.19-8.7h0A48.72,48.72,0,0,1,615.46,913.64Z"/>
                <path class="cls-14"
                      d="M715.55,946.33a48.61,48.61,0,0,0-33.66-58.6,45.85,45.85,0,0,0-57.07,33.06,48.61,48.61,0,0,0,33.65,58.6A45.86,45.86,0,0,0,715.55,946.33Z"/>
                <path class="cls-13"
                      d="M655.3,927.44a14.88,14.88,0,0,1,18.53-10.73,15.48,15.48,0,0,1,5.54,2.87l3.21,2.44s3.38,9,2.18,13.71c-2.1,8.22-20.4,10.73-20.4,10.73l-3.63-2.82h0A15.83,15.83,0,0,1,655.3,927.44Z"/>
                <path class="cls-17"
                      d="M658.34,929.76A14.89,14.89,0,0,1,676.87,919a15.79,15.79,0,0,1,10.92,19,14.89,14.89,0,0,1-18.53,10.73A15.79,15.79,0,0,1,658.34,929.76Z"/>
            </g>
            <path class="cls-13"
                  d="M303.87,1255.31a42.46,42.46,0,0,1,17.1-3.92l11.2-.54s22.64,13.65,27.9,26.3c9.18,22.07-27.07,61.54-27.07,61.54l-12.79.49h0a41.45,41.45,0,0,1-39.28-25.76C271.75,1291.33,282,1265.32,303.87,1255.31Z"/>
            <path class="cls-14"
                  d="M314.51,1254.81a41.58,41.58,0,0,1,56.19,21.84c9.18,22.08-1.09,48.09-22.94,58.1a41.58,41.58,0,0,1-56.2-21.84C282.38,1290.84,292.65,1264.82,314.51,1254.81Z"/>
            <path class="cls-15"
                  d="M330.08,1285.16c2.66-.93,84-10.74,84-10.74l-.14,24.81-82.64,4.65s-3.89.26-6.68-4.15S323.53,1287.44,330.08,1285.16Z"/>
            <path class="cls-13"
                  d="M372.13,1248.13a46.48,46.48,0,0,1,18.6-4.27l12.18-.58,0,2a45.11,45.11,0,0,1,30.33,26.56c10,24-1.18,52.31-25,63.21a47.31,47.31,0,0,1-4.5,1.79v1.95l-13.91.53h0a45.1,45.1,0,0,1-42.73-28C337.18,1287.32,348.35,1259,372.13,1248.13Z"/>
            <path class="cls-14"
                  d="M383.69,1247.59a45.24,45.24,0,0,1,61.14,23.76c10,24-1.19,52.31-25,63.21a45.25,45.25,0,0,1-61.14-23.77C348.74,1286.78,359.92,1258.48,383.69,1247.59Z"/>
            <path class="cls-13"
                  d="M394.61,1275.51a15.12,15.12,0,0,1,6-1.38l4-.19s8,4.82,9.85,9.29c3.24,7.79-9.56,21.74-9.56,21.74l-4.52.17h0a14.62,14.62,0,0,1-13.87-9.1A16,16,0,0,1,394.61,1275.51Z"/>
            <path class="cls-14"
                  d="M398.37,1275.34a14.69,14.69,0,0,1,19.85,7.71,16,16,0,0,1-8.11,20.52,14.69,14.69,0,0,1-19.85-7.71A16,16,0,0,1,398.37,1275.34Z"/>
            <path class="cls-9"
                  d="M2083.24,763.55c-26.46,53.29-138.66,124.28-133.39,130.75,37.38,45.92,61.48,219.89,61.48,219.89s-7.57,4.5-14.55,4.71c-11.79.36-23.84-3.93-23.84-3.93-46.48-99.49-119.71-208.23-113.33-232.15C1875.86,821.91,1999.08,659,1999.08,659l110.3-25.61,33.41-1.17S2119.37,690.78,2083.24,763.55Z"/>
            <path class="cls-18"
                  d="M2315,1114.88l-322.44-75.06c-87.37-20.34-171.91,46.85-175.29,140.71-.07,1.87-.1,3.74-.11,5.62-.14,84.54,66.88,153.7,147.43,153.7h349.87c59.05,0,107.8-50.71,107.72-112.68S2383.61,1131.65,2315,1114.88Z"/>
            <path class="cls-12"
                  d="M1498,1322.73l199-464.09-17.25-7.24c-11.22-4.71-23.94,1-28.4,12.81l-174.62,448.9c-2.36,6.2,1.92,4.35,7.81,6.87l3.57-6.62C1493.8,1315.81,1495.36,1328.62,1498,1322.73Z"/>
            <path class="cls-19"
                  d="M1697,858.64c18.64-50.76,49.75-130.49,49.25-129.71l-18.76-13.12c-.92,1.44-1.52,2.4-50.4,135.51Z"/>
            <path class="cls-12"
                  d="M1698.22,700.79a19.49,19.49,0,0,1,18.24,13.47l53.4-3.2a19.4,19.4,0,0,1,17.7-12c10.72,0,19.41,9.13,19.41,20.38s-8.69,20.38-19.41,20.38a18.83,18.83,0,0,1-13-5.25l-66.23,4a18.61,18.61,0,0,1-10.14,3c-10.73,0-19.42-9.12-19.42-20.38S1687.49,700.79,1698.22,700.79Z"/>
            <path class="cls-12"
                  d="M1792.34,1228.46h48.85a10.74,10.74,0,0,1,10.44,11h0a10.74,10.74,0,0,1-10.44,10.95h-48.85a10.73,10.73,0,0,1-10.43-10.95h0A10.73,10.73,0,0,1,1792.34,1228.46Z"/>
            <polygon class="cls-12"
                     points="1816.29 1237.03 1915.23 1189.7 1911.6 1181.33 1812.65 1228.66 1816.29 1237.03"/>
            <path class="cls-12"
                  d="M2165.08,763s4.07-19.39-7.52-20.71-53.85,8.22-65.13,6.91-70.14-11.51-80.47-1-6,19.72,14.72,21.69,48.22,5.59,56,12.49S2147.23,809.67,2165.08,763Z"/>
            <path class="cls-12"
                  d="M1966.85,1189.9c0-32.67-25.23-59.15-56.36-59.15s-56.36,26.48-56.36,59.15,25.24,59.15,56.36,59.15S1966.85,1222.57,1966.85,1189.9Z"/>
            <path class="cls-20" d="M1864.71,1171.9s-5.71,21.52-17.56,19.93-18.28-24.16-18.28-24.16Z"/>
            <path class="cls-13"
                  d="M1864.64,1231.61h-16.8c-5.63-.93-9.79-2.64-15.56-3.43-8.77-1.21-12.81,2.56-13.61,3.43a1.62,1.62,0,0,0-.16.18h-71.39c-1.79-2.69-.07-8.93,1.62-13.52a10.36,10.36,0,0,1,6.68-6.41c7.58-2.3,22.5-4.35,36.17-17.34,7.69-7.29,37.13-26.81,37.13-26.81l.15,0c.65,0,3.73,1,17.12,12.88,6.92,6.12,18.72-8.65,18.72-8.65a17.44,17.44,0,0,1,3.87,5.5,19.48,19.48,0,0,1,1.54,11.5c-1.07,6.76,2.37,19.3,5.11,27.79,1.66,5.14,3.07,8.79,3.07,8.79S1879.1,1229.71,1864.64,1231.61Z"/>
            <path class="cls-20"
                  d="M1995.48,265.9s-53.84,54.12-94.38,54.15a98.4,98.4,0,0,1,18.47-29.56c-2.6-5.33-4.87-10.23-6.82-14.63a259.25,259.25,0,0,1-10-25.32l29.12-46,6.53-10.33a126.52,126.52,0,0,0,7.77,21.42c.24.51.47,1,.71,1.5C1965.26,254.78,1995.48,265.9,1995.48,265.9Z"/>
            <path class="cls-21"
                  d="M1732.7,679.75s77-103.53,83.86-112.66,75-163.37,75-163.37l103.87-9.46S1883.58,584.78,1865.9,607.58c-29.23,37.67-112.08,83.91-112.08,83.91,1.59,9.94-6,19.78-17.8,24.06s-7.92,4.35-16.2,7.59-11.28-10.09-11.28-10.09C1703.68,680.91,1732.7,679.75,1732.7,679.75Z"/>
            <path class="cls-18"
                  d="M2137.52,604.24c1.47,4.2-5.48,11.66-8.6,14.58-13.84,12.94-27.43,24.31-42,34a215.69,215.69,0,0,1-32.22,17.85c-33,15-75.82,20.35-89.61,25.14a6,6,0,0,1-4.34-.26c-1.16-.47-15.09-44-31-99.45-.64-2.13-1.34-4.47-1.81-6.65l-.23-.77c-6.29-21.57-12.38-44.49-18.23-67.26-12.92-50.26-23.66-99.33-25.38-128-2-33.63,8.77-59.8,19.72-80.05l9.17-16a62,62,0,0,0,38.16-18.23c12.31-12.39,25.73-25.8,28.9-24.72,37.42,13.68,73.62,78.81,97.37,158.63.75,2.52,1.49,5.06,2.22,7.6q3.52,12.42,6.65,25.22c14.43,59.92,33.19,109.79,44.06,138.8C2133.5,593,2136,599.61,2137.52,604.24Z"/>
            <path class="cls-19"
                  d="M2137.52,604.24c1.47,4.2-5.48,11.66-8.6,14.58-13.84,12.94-27.43,24.31-42,34-89.06-134.7-80-296.95-80-296.95l72.68,64.77q3.52,12.42,6.65,25.22c14.43,59.92,33.19,109.79,44.06,138.8C2133.5,593,2136,599.61,2137.52,604.24Z"/>
            <path class="cls-21"
                  d="M1947,216.38s0,.24-.13.71c-1.07,5.46-8.9,41-34.16,58.77a259.25,259.25,0,0,1-10-25.32l29.12-46a114.15,114.15,0,0,1,14.3,11.09Z"/>
            <path class="cls-20"
                  d="M1885.4,251.77s64.7,2.12,65.34-40.18,9.42-70.53-31.86-73.68-49.55,12.87-53,26.93S1868.59,250.12,1885.4,251.77Z"/>
            <path class="cls-9"
                  d="M1950.69,214.51s-8.38-55.37-67.18-56.17c-40.28-.55-20.79-38.56-17-44.68,0,0,31,1.8,62.78,4.57C1996.09,124,1956.49,205.28,1950.69,214.51Z"/>
            <path class="cls-20"
                  d="M1789.41,684l83.86-112.67c6.81-9.13,75-163.36,75-163.36l49-11,44.46,19.25S1940.29,589,1922.61,611.78c-29.23,37.67-112.08,83.91-112.08,83.91,1.6,9.93-6,19.78-17.8,24.06s-7.91,4.35-16.2,7.58-11.28-10.09-11.28-10.09C1760.4,685.11,1789.41,684,1789.41,684Z"/>
            <path class="cls-18"
                  d="M1940.39,408s70.34-10.89,104.22,12.1c0,0,7.69-46.18,1.65-85.1-3.31-21.37-22.8-35.86-43.1-32-13.62,2.61-27.87,8.12-34.5,19.53C1954,347.75,1940.39,408,1940.39,408Z"/>
            <path class="cls-19"
                  d="M2154.17,1077.9h0c-73.17-51.92-105-148.25-78.06-236.54l20.07-65.88-21.48-7.2L2011.28,976.5,1726.77,774.62l-.06-.11,0,0-4-2.83,2.21,4.75-25.12,27.29,152,236.65,26.89-10.34L1773.27,852.8,2084,1061.58Z"/>
            <path class="cls-22"
                  d="M2137.52,604.24s44.16,100.64-9.31,146.56-209,111-211.48,121.18-13.13,177.46-52,299.92c0,0-13.39,5.6-35.84-4.23-12.56-5.5-29.42-323.12-7.54-353.73S1965.12,695.8,1965.12,695.8Z"/>
            <path class="cls-12"
                  d="M1541.75,1286.93a24.21,24.21,0,0,0-12,2.26,73.68,73.68,0,0,1-31.49,7.47h-4.42a73.68,73.68,0,0,1-31.49-7.47,24.21,24.21,0,0,0-12-2.26c-12.49.84-22.64,11.44-23.5,24.55-1,15.47,10.64,28.36,25.17,28.36a24.25,24.25,0,0,0,13.8-4.31,53.19,53.19,0,0,1,30.24-9.1h0a53.22,53.22,0,0,1,30.25,9.1,24.19,24.19,0,0,0,13.79,4.31c14.53,0,26.19-12.89,25.17-28.36C1564.39,1298.37,1554.24,1287.77,1541.75,1286.93Z"/>
            <rect class="cls-23" x="1177.22" y="628.43" width="4.01" height="612.49"/>
            <path class="cls-2"
                  d="M1194,1337a323.23,323.23,0,0,1-132-28,337.51,337.51,0,0,1-107.76-76.25,356.25,356.25,0,0,1-72.66-113.11,373.37,373.37,0,0,1,0-277,356.21,356.21,0,0,1,72.66-113.1A337.54,337.54,0,0,1,1062,653.28a325.43,325.43,0,0,1,263.94,0,337.54,337.54,0,0,1,107.76,76.26,356,356,0,0,1,72.66,113.1,373.37,373.37,0,0,1,0,277,356.08,356.08,0,0,1-72.66,113.11A337.51,337.51,0,0,1,1325.93,1309,323.16,323.16,0,0,1,1194,1337Zm0-693.16c-85.85,0-166.56,35.09-227.27,98.81S872.55,891,872.55,981.15,906,1156,966.69,1219.68s141.42,98.8,227.27,98.8,166.57-35.09,227.27-98.8,94.14-148.43,94.14-238.53-33.43-174.82-94.14-238.53S1279.81,643.81,1194,643.81Z"/>
            <path class="cls-23"
                  d="M1157.15,625.4a2,2,0,0,0-2,2.1V857.92a2,2,0,1,0,4,0V627.5A2.06,2.06,0,0,0,1157.15,625.4Z"/>
            <path class="cls-5"
                  d="M1156.23,854.58a8,8,0,0,0-7.77,8.16v27.9a7.78,7.78,0,1,0,15.55,0v-27.9A8,8,0,0,0,1156.23,854.58Z"/>
            <path class="cls-5"
                  d="M1179.22,1222.46a8,8,0,0,0-7.77,8.16v27.9a7.78,7.78,0,1,0,15.55,0v-27.9A8,8,0,0,0,1179.22,1222.46Z"/>
            <path class="cls-19"
                  d="M2328.51,1141.51h0l-337.85-81.12,204.66,81.38c25.54,10.16,39.38,38.74,33,66.61a94.38,94.38,0,0,0-2.37,19.47c-.84,49.46,37.16,90.69,84.29,91.38,47.79.69,86.73-39.75,86.73-89.75C2397,1186,2367.56,1149.81,2328.51,1141.51Z"/>
            <path class="cls-24"
                  d="M2538.36,1344.18H3.78A4.1,4.1,0,0,1,0,1339.85H0a4.1,4.1,0,0,1,3.78-4.33H2538.36a4.1,4.1,0,0,1,3.78,4.33h0A4.1,4.1,0,0,1,2538.36,1344.18Z"/>
        </g>
    </g>
</svg>