<svg xmlns="http://www.w3.org/2000/svg" viewBox="0 0 236.95 255.93">
    <defs>
        <style>
            .cls-1{fill:none;}.cls-2{fill:#e9b46f;}.cls-3{fill:#352e28;}.cls-4{fill:#37312c;}.cls-5{fill:#e9b56f;}.cls-6{fill:#e7b0af;}.cls-7{fill:#fdfdfd;}.cls-8{fill:#362e29;}.cls-9{fill:#fafafa;}.cls-10{fill:#f7f6f6;}.cls-11{fill:#39332e;}.cls-12{fill:#38312c;}.cls-13{fill:#39322d;}.cls-14{fill:#3a332e;}.cls-15{fill:#f0f0ef;}.cls-16{fill:#ecebeb;}.cls-17{fill:#edecec;}.cls-18{fill:#eeeded;}.cls-19{fill:#efefee;}
        </style>
    </defs>
    <g id="Capa_2" data-name="Capa 2">
        <g id="Capa_1-2" data-name="Capa 1">
            <path class="cls-1"
                  d="M0,0H237V255.93H0ZM112.66,199.9l6.34-4c.09,1.16.19,2,.2,2.82q.24,18.73.49,37.47c0,3.41.13,6.83.26,10.24.09,2.28.27,4.56.44,6.84.1,1.34.57,1.75,1.72,1.69,5.29-.27,10.58-.57,15.87-.79,4.61-.19,9.22-.4,13.82-.4q10.41,0,20.8.35c8,.26,16,.9,24,1,5.17.06,10.36-.43,15.52-.88a42.68,42.68,0,0,1,10.29,0c1.08.17,1.47-.33,1.65-1.2a156,156,0,0,0,2.4-19.73c.3-3.65.5-7.31.71-11q.56-9.72,1.06-19.45c.11-2,.17-4.06.25-6.09.27-6.27.62-12.54.78-18.81.13-5.3.06-10.61,0-15.91a44.05,44.05,0,0,0-2.49-14.71c-2.18-6.06-6.29-10.23-11.87-13.16-3.75-2-7.87-2.72-12-3.43-3.06-.54-6.18-.73-9.28-1.11-1.54-.19-3.07-.45-4.61-.68,0-2.07.1-4.14,0-6.2-.2-4.24-.48-8.48-.76-12.72-.15-2.39-.34-4.77-.53-7.16-.28-3.65-.59-7.3-.85-11a2.85,2.85,0,0,1,1.68-2.92c.9-.45,1.84-.84,2.76-1.27a7.47,7.47,0,0,0,3.72-3.34,11.71,11.71,0,0,0,1.33-7.67c-.47-2.68-1.69-4.84-4.38-5.7a42,42,0,0,0-5-1c0-3.42.14-7.05,0-10.67a46.64,46.64,0,0,0-1.07-8.16c-1.3-5.68-3.49-11-7.61-15.28a26.12,26.12,0,0,0-12.11-7.37c-7.14-1.95-14.39-1.46-21.49-.1-6.46,1.23-12.82,3.08-19.15,4.91a57.16,57.16,0,0,0-17.8,8.15C103.06,45,99.67,49.21,98.38,55a10.76,10.76,0,0,0,9.09,13.26,34.73,34.73,0,0,0,4.57,0c0-.14,0,0,0,.07-.37,6,.8,11.78,1.9,17.59.84,4.42,1.87,8.8,2.65,13.23,1,5.36,1.93,10.68,4.14,15.71a21.26,21.26,0,0,0,8.51,10,1.24,1.24,0,0,1,.68,1.31c-.24,5.73-.46,11.47-.7,17.2-1.58.88-3.17,1.75-4.74,2.64-9.6,5.45-19,11.14-27.65,18.09a10.81,10.81,0,0,0-1.35,1.64c-.34.27-.69.53-1,.82a185.32,185.32,0,0,1-17.12,13.63,220.14,220.14,0,0,1-21.6,13.87,15.72,15.72,0,0,1-4,1.55,4.71,4.71,0,0,1-5.63-2.6,17.74,17.74,0,0,1-1-2.63,188.08,188.08,0,0,1-6.33-33.74c-.7-8.25-1.11-16.52-1.79-24.78-.53-6.36-1.24-12.71-1.93-19.06a9.88,9.88,0,0,0-1.8-5.39c-1.78-2.23-4.35-2.36-6.14-.18a5.25,5.25,0,0,0-.76,1.76,15.62,15.62,0,0,0-.3,1.62c-.73-1.45-1.37-2.94-2.21-4.3a1.84,1.84,0,0,0-3.21,0,11.27,11.27,0,0,0-1.35,2.93c-.49,2-.77,4-1.13,6a8.6,8.6,0,0,0-.27-.91c-.94-2.11-1.8-4.27-2.87-6.31-.64-1.21-2.47-1.64-3.27-.87a9.69,9.69,0,0,0-1.93,2.56,19.53,19.53,0,0,0-1,3.19c-.28-.21-.47-.37-.68-.5a4.33,4.33,0,0,0-5.83.92,7.7,7.7,0,0,0-1.66,6c.44,5.31,1.07,10.61,1.65,15.91.53,4.8,1.2,9.58,1.64,14.39.4,4.41.35,8.86.91,13.25.79,6.29,1.71,12.59,3,18.79,1.65,7.8,3.61,15.54,5.7,23.23,2.17,8,4.52,16,9.2,23a21.57,21.57,0,0,0,8,7.55,20.71,20.71,0,0,0,11.3,2.62,63.07,63.07,0,0,0,16.36-3.8,152.26,152.26,0,0,0,37.77-20.14c4.8-3.58,9.44-7.37,14.06-11.17A16.62,16.62,0,0,0,112.66,199.9ZM215.58,41.33l-1.19,1.14L201.77,54.65c-.42.41-.72.78-.31,1.4a1,1,0,0,0,1.37.49c3.67-1.12,7.38-2.12,11-3.35a82.26,82.26,0,0,0,20.39-10.4c.43-.3,1-.91.93-1.3A2.12,2.12,0,0,0,234,40.26c-3.41-1.61-6.85-3.15-10.28-4.72-.24-.11-.47-.27-.71-.41,1.56-1.84,3.08-3.59,4.56-5.38A75.29,75.29,0,0,0,236.3,17c.2-.37.28-1.11.07-1.32a1.66,1.66,0,0,0-1.42-.35,30.72,30.72,0,0,0-4.87,1.85A94.52,94.52,0,0,0,214.81,27c-2.78,2.25-5.38,4.75-8,7.18-.92.85-.82,1.6.18,2.33a26.62,26.62,0,0,0,2.71,1.81C211.59,39.37,213.55,40.31,215.58,41.33ZM32.23,4.89a10,10,0,0,0-.44-1.17,11.69,11.69,0,0,0-1.5-2.49,1.92,1.92,0,0,0-3.32.9,28.52,28.52,0,0,0-.54,3.37,13.78,13.78,0,0,0-1.91-.84,2.09,2.09,0,0,0-2.91,1.85,4.32,4.32,0,0,0,1.2,4c.22.21.4.45.66.75-3.63,0-4.52,1.64-4.7,3.52a2.54,2.54,0,0,0,.5,1.69c1.14,1.35,2.75,1.16,4.36.93-1.46,2.63-1.56,4.48-.34,5.45,1.6,1.26,3.63.85,5.82-1.28.54,1.79,1.5,3.32,3.54,3s2.87-2.11,2.91-4.19c1.72.58,3.26.48,4.42-.94a3.65,3.65,0,0,0,.32-4.67c1.52-.62,2.66-1.56,2.56-3.22A3.54,3.54,0,0,0,39.26,8c.6-3.08.11-4.66-1.52-5.4C35.3,1.45,33.73,3,32.23,4.89Zm148.09,8.55a24.58,24.58,0,0,1,0-3.2c.4-3.33,2.37-5.48,5.34-6.84,2.14-1,4.33-.7,6.5-.2.84.2,1.16-.2,1.34-.84s-.18-1.11-.87-1.37C189.19-.33,186,.56,183,2.28a9.9,9.9,0,0,0-4.36,5.26,11.54,11.54,0,0,0-.31,7,1.84,1.84,0,0,1-.27,1.33c-2.63,3.69-2.75,8-.06,10.94a5.76,5.76,0,0,1,1.3,3.82,8.42,8.42,0,0,1,0,.87c0,.81.37,1.42,1.19,1.38s1.2-.71,1.09-1.56c-.06-.49-.13-1-.2-1.5,3.55.34,5-.27,5.65-2.29a3.21,3.21,0,0,0-1.61-3.71,4,4,0,0,0-1.94-.48c-1.63.05-2.65,1.14-3.49,2.42-2.05-2.34-2.15-6.39-.24-8a6.76,6.76,0,0,0,6.16,3.6,4.28,4.28,0,0,0,4.41-4.28,4.9,4.9,0,0,0-4.6-4.21C184,12.93,182.25,13.22,180.32,13.44Z"/>
            <path class="cls-2"
                  d="M95.49,165.77a10.81,10.81,0,0,1,1.35-1.64c8.61-6.95,18-12.64,27.65-18.09,1.57-.89,3.16-1.76,4.74-2.64-.07,4.1-.17,8.2-.2,12.31-.08,12.6.31,25.2,1.07,37.78.44,7.28.61,14.58,1.2,21.85a83.19,83.19,0,0,0,2,12.23,41.19,41.19,0,0,0,6.39,14.32,24.59,24.59,0,0,0,9.29,8,27.89,27.89,0,0,0,17.41,2.39,102.82,102.82,0,0,0,13.82-3.69c3.16-1,5.8-3.05,8.39-5.14a79.84,79.84,0,0,0,19-22.07c1.89-3.21,3.72-6.48,6.38-9.18a10.28,10.28,0,0,0,1.56-2.08c3.09-5.51,6.14-11,9.22-16.55.34-.6.53-1.1-.23-1.54a1,1,0,0,0-1.63.47q-3.67,6.54-7.32,13.11c-1,1.82-1.66,3.89-3.69,4.94-.15-.16-.29-.33-.45-.47q-8.85-7-17.69-13.92c-2.22-1.75-4.4-3.54-6.6-5.31.15-.36.28-.74.46-1.09q6-12.1,11.94-24.21c1.42-2.9,2.81-5.81,4.14-8.75a1.85,1.85,0,0,0-.1-1.63c-.71-.83-1.44-.53-2,.68-3,6.38-5.86,12.8-9,19.11s-6.4,12.24-9.62,18.34c-.51,1-1,1.93-1.6,2.85-2.43,4-4.86,7.92-7.33,11.85a6.2,6.2,0,0,1-1.3,1.45,1.83,1.83,0,0,1-2.95-.45,14.54,14.54,0,0,1-1.31-4.2c-.37-3.06-.54-6.15-.72-9.22q-1-15.66-1.86-31.32c-.06-1,0-2.08,0-3.19a24.42,24.42,0,0,0,4.37,0c2.84-.53,5.83-.89,8.41-2.08a25.23,25.23,0,0,0,13.39-13.8c1-2.41,2-4.83,1.89-7.53,0-.71-.14-1.22-1-1.22s-1.08.29-1.17,1.09a22.84,22.84,0,0,1-3.74,10.55c-5.17,7.58-12.14,11.56-21.51,10.6-.31,0-.82-.36-.82-.56-.06-2.31,0-4.63,0-7-.09,0-.05,0,0,0,.59.14,1.2.26,1.78.43a14.39,14.39,0,0,0,13.05-2.64,20,20,0,0,0,6.75-9.95,36,36,0,0,0,1.8-9.92c1.54.23,3.07.49,4.61.68,3.1.38,6.22.57,9.28,1.11,4.1.71,8.22,1.47,12,3.43,5.58,2.93,9.69,7.1,11.87,13.16a44.05,44.05,0,0,1,2.49,14.71c0,5.3.12,10.61,0,15.91-.16,6.27-.51,12.54-.78,18.81-.08,2-.14,4.06-.25,6.09q-.51,9.72-1.06,19.45c-.21,3.66-.41,7.32-.71,11a156,156,0,0,1-2.4,19.73c-.18.87-.57,1.37-1.65,1.2a42.68,42.68,0,0,0-10.29,0c-5.16.45-10.35.94-15.52.88-8-.11-16-.75-24-1q-10.4-.34-20.8-.35c-4.6,0-9.21.21-13.82.4-5.29.22-10.58.52-15.87.79-1.15.06-1.62-.35-1.72-1.69-.17-2.28-.35-4.56-.44-6.84-.13-3.41-.22-6.83-.26-10.24q-.27-18.74-.49-37.47c0-.83-.11-1.66-.2-2.82l-6.34,4c-1,.57-2,1.17-3.09,1.7-.59.29-1.23.48-1.85.72a3.67,3.67,0,0,1-.76-.88c-2.13-5-4.36-10-6.3-15a116.11,116.11,0,0,1-5-17.88Z"/>
            <path class="cls-3"
                  d="M211.93,210.57c2-1,2.68-3.12,3.69-4.94q3.63-6.57,7.32-13.11a1,1,0,0,1,1.63-.47c.76.44.57.94.23,1.54-3.08,5.52-6.13,11-9.22,16.55a10.28,10.28,0,0,1-1.56,2.08c-2.66,2.7-4.49,6-6.38,9.18a79.84,79.84,0,0,1-19,22.07c-2.59,2.09-5.23,4.14-8.39,5.14a102.82,102.82,0,0,1-13.82,3.69A27.89,27.89,0,0,1,149,249.91a24.59,24.59,0,0,1-9.29-8,41.19,41.19,0,0,1-6.39-14.32,83.19,83.19,0,0,1-2-12.23c-.59-7.27-.76-14.57-1.2-21.85-.76-12.58-1.15-25.18-1.07-37.78,0-4.11.13-8.21.2-12.31.24-5.73.46-11.47.7-17.2a1.24,1.24,0,0,0-.68-1.31,21.26,21.26,0,0,1-8.51-10c-2.21-5-3.19-10.35-4.14-15.71-.78-4.43-1.81-8.81-2.65-13.23-1.1-5.81-2.27-11.62-1.9-17.59,0-.1,0-.21,0-.07a34.73,34.73,0,0,1-4.57,0A10.76,10.76,0,0,1,98.38,55c1.29-5.77,4.68-10,9.36-13.41a57.16,57.16,0,0,1,17.8-8.15c6.33-1.83,12.69-3.68,19.15-4.91,7.1-1.36,14.35-1.85,21.49.1A26.12,26.12,0,0,1,178.29,36c4.12,4.31,6.31,9.6,7.61,15.28A46.64,46.64,0,0,1,187,59.42c.18,3.62,0,7.25,0,10.67a42,42,0,0,1,5,1c2.69.86,3.91,3,4.38,5.7a11.71,11.71,0,0,1-1.33,7.67,7.47,7.47,0,0,1-3.72,3.34c-.92.43-1.86.82-2.76,1.27A2.85,2.85,0,0,0,186.94,92c.26,3.66.57,7.31.85,11,.19,2.39.38,4.77.53,7.16.28,4.24.56,8.48.76,12.72.1,2.06,0,4.13,0,6.2a36,36,0,0,1-1.8,9.92,20,20,0,0,1-6.75,9.95,14.39,14.39,0,0,1-13.05,2.64c-.58-.17-1.19-.29-1.78-.43,0,0-.07,0,0,0,0,2.36,0,4.68,0,7,0,.2.51.53.82.56,9.37,1,16.34-3,21.51-10.6a22.84,22.84,0,0,0,3.74-10.55c.09-.8.43-1.08,1.17-1.09s1,.51,1,1.22c.12,2.7-.92,5.12-1.89,7.53A25.23,25.23,0,0,1,178.72,159c-2.58,1.19-5.57,1.55-8.41,2.08a24.42,24.42,0,0,1-4.37,0c0,1.11-.05,2.16,0,3.19q.9,15.66,1.86,31.32c.18,3.07.35,6.16.72,9.22a14.54,14.54,0,0,0,1.31,4.2,1.83,1.83,0,0,0,2.95.45,6.2,6.2,0,0,0,1.3-1.45c2.47-3.93,4.9-7.89,7.33-11.85.57-.92,1.09-1.88,1.6-2.85,3.22-6.1,6.55-12.16,9.62-18.34s6-12.73,9-19.11c.57-1.21,1.3-1.51,2-.68a1.85,1.85,0,0,1,.1,1.63c-1.33,2.94-2.72,5.85-4.14,8.75q-6,12.12-11.94,24.21c-.18.35-.31.73-.46,1.09-.5.8-1,1.59-1.48,2.39-2.9,4.81-5.76,9.64-8.71,14.43a15.44,15.44,0,0,1-2.53,3.12c-2.72,2.59-5.5,1.22-6.82-.9a7.25,7.25,0,0,1-1.07-2.81c-.51-4.14-1.05-8.29-1.27-12.45-.68-13-1.38-26.05-1.76-39.08-.33-11.11-.19-22.23-.31-33.34-.05-3.85-.17-7.7-.46-11.54a60.14,60.14,0,0,0-1.16-6.41,3.4,3.4,0,0,0-2,2.69,60,60,0,0,0-1,17.12c.07.82-.14,1.5-1.07,1.56s-1.19-.64-1.24-1.44c-.22-3.73-.48-7.47-.66-11.2a31,31,0,0,0-1.78-8.7,9.82,9.82,0,0,0-.8-1.33,7.94,7.94,0,0,0-1.31,1.7,22.83,22.83,0,0,0-1.5,4.64c-.64,4-1.08,8-1.58,12-.16,1.26-.16,2.55-.44,3.78a1.75,1.75,0,0,1-1.18,1.13c-.6,0-1.08-.49-1.06-1.33.07-2.33.12-4.66,0-7q-.3-5.7-.85-11.39a15.36,15.36,0,0,0-1-3.1c-.39.13-.51.14-.58.21a2.31,2.31,0,0,0-.34.42,9.57,9.57,0,0,0-1.7,5.31c-.07,5-.09,10.08-.09,15.13,0,.73-.24,1-.94,1.17a.92.92,0,0,1-1.18-.8c-.16-.71-.34-1.41-.45-2.13a65.93,65.93,0,0,0-3.27-13.28,3.73,3.73,0,0,0-2.1-2.67,16.19,16.19,0,0,0-1.08,3.44c-.24,3-.34,6.09-.36,9.13s.22,6.33.12,9.48c-.22,7-.8,13.93-.84,20.9-.14,22,.17,43.95,2.35,65.85a85.5,85.5,0,0,0,2.23,12.72,31.92,31.92,0,0,0,6.55,13.36c2.53,2.91,5.38,5.48,9,6.83A30.23,30.23,0,0,0,166.36,250c3.46-.46,6.64-1.76,9.94-2.7a27.07,27.07,0,0,0,4.43-1.35,34.3,34.3,0,0,0,8.61-6c4.86-4.54,9.65-9.13,13.21-14.84,2.08-3.32,4.27-6.57,6.36-9.88a9.25,9.25,0,0,0,.58-1.73,2.51,2.51,0,0,1,.5-.76C210.63,212,211.28,211.27,211.93,210.57ZM119.78,61.26a13.64,13.64,0,0,1-4.35,5,2.37,2.37,0,0,0-1.17,2.2c-.32,6.57,1.17,12.92,2.25,19.32.72,4.24,1.76,8.44,2.5,12.68a63.25,63.25,0,0,0,3.3,12.48,19.24,19.24,0,0,0,3.92,6.45c1.11,1.15,2.3,2.23,3.45,3.35a7,7,0,0,0,.13-2.13c-.15-4.78-.47-9.59,1.38-14.17.76-1.88,3-2.79,4.34-1.08a22.4,22.4,0,0,1,2.41,4.06,15.32,15.32,0,0,1,.81,2.62,3.14,3.14,0,0,0,.33-1.16c.57-2.46,1-5,1.78-7.37a3.23,3.23,0,0,1,3.17-2.4c1.5,0,2.17,1.19,2.58,2.44.49,1.53.9,3.1,1.4,4.86.18-.54.29-.93.45-1.32a31.74,31.74,0,0,1,1.78-4.29c1-1.71,2.62-2.54,4.14-1.39a6.06,6.06,0,0,1,1.66,2.45,27.78,27.78,0,0,1,1,3.3c.64-1.24,1.23-2.55,2-3.78a2.56,2.56,0,0,1,2.75-1.36,2.66,2.66,0,0,1,2.13,2.24,48.44,48.44,0,0,1,1.12,6.53c.29,4.6.43,9.21.48,13.82.07,7.52,0,15,0,22.56a1.64,1.64,0,0,0,.56,1.23,11.59,11.59,0,0,0,12.16-.74,19.89,19.89,0,0,0,6.81-9.24,26.48,26.48,0,0,0,1.48-10c0-6.1-.28-12.19-.5-18.29-.08-2.21-.26-4.42-.45-6.63-.3-3.57-.79-7.14-.91-10.72-.07-2.4.49-4.75,3-5.91a21.57,21.57,0,0,1,2-.78c2.6-.91,4.33-2.58,4.4-5.43a18.13,18.13,0,0,0-.48-5.15c-.62-2.31-3.71-3.28-5.9-3.08-.69.07-1,.44-1,1.21-.22,1.85-.29,3.76-1.31,5.45A3.25,3.25,0,0,1,182,80.63a7,7,0,0,1-4.07-3.08c-1.45-2.12-2.69-4.39-4.13-6.52-3.11-4.59-6.3-9.13-9.43-13.71-.87-1.26-1.65-2.59-2.52-4-.72.78-1.36,1.47-2,2.18-1.21,1.34-2.36,2.76-3.64,4a11.2,11.2,0,0,1-11,3.17,10.48,10.48,0,0,1-5.85-3.92C135.16,68.86,123.6,67.87,119.78,61.26Z"/>
            <path class="cls-4"
                  d="M95.49,165.77c.06.92.13,1.84.2,2.76-.2.16-.41.3-.6.47a199.45,199.45,0,0,1-37.7,26.64A20.91,20.91,0,0,1,52,197.81c-2.95.63-4.83.35-6.89-2.4a21.07,21.07,0,0,1-3.42-8.4c-1.16-5.39-2.16-10.81-3.2-16.22a169.59,169.59,0,0,1-2.74-23.23c-.2-3.81-.41-7.62-.71-11.42-.6-7.6-1.22-15.2-1.95-22.79a12.33,12.33,0,0,0-1.38-4.18,2.76,2.76,0,0,0-1.94-1.07c-.31,0-.89.85-1.09,1.42a14.46,14.46,0,0,0-.53,2.65c-.47,3.35.12,6.66.55,10,.27,2.12.62,4.23.91,6.35a1.2,1.2,0,0,1-1,1.52c-.91.18-1-.39-1.13-1.13-.44-2.72-.88-5.45-1.52-8.13-.9-3.84-2-7.64-3-11.45a6.44,6.44,0,0,0-.66-1.24l-.3.07c-.56,3.14-1.31,6.26-1.62,9.42a44.33,44.33,0,0,0,.47,12.59c.11.6.2,1.3-.63,1.49a1.22,1.22,0,0,1-1.68-1,27,27,0,0,1-.62-3.3,71.57,71.57,0,0,0-3-15,10.9,10.9,0,0,0-1.37-2.7c-.29-.47-.9-.71-1.18,0-.63,1.64-1.51,3.25-1.32,5.1.28,2.6.57,5.19.92,7.77.33,2.41.74,4.81,1.12,7.21.12.81.15,1.54-.93,1.72s-1.24-.66-1.36-1.37c-.41-2.32-.75-4.66-1.12-7-.34-2.15-.62-4.31-1.08-6.43a3.16,3.16,0,0,0-2.31-2.39,2.29,2.29,0,0,0-2.54,1.1,4.81,4.81,0,0,0-.72,2.42c-.13,6.06,1.21,12,1.77,18,.49,5.27,1.09,10.54,1.6,15.81.55,5.56.81,11.16,1.62,16.68,1,6.63,2.19,13.25,3.71,19.77,1.86,8,4,16,6.32,23.85a51.09,51.09,0,0,0,6.58,14.72c4.46,6.49,10.42,10.16,18.53,9.25a65.4,65.4,0,0,0,9.06-1.8c7.87-2,15.17-5.52,22.38-9.19A164.68,164.68,0,0,0,104.64,205c1-.87,2-1.81,3.08-2.72.62-.24,1.26-.43,1.85-.72,1.05-.53,2.06-1.13,3.09-1.7a16.62,16.62,0,0,1-2.42,3.16c-4.62,3.8-9.26,7.59-14.06,11.17a152.26,152.26,0,0,1-37.77,20.14,63.07,63.07,0,0,1-16.36,3.8,20.71,20.71,0,0,1-11.3-2.62,21.57,21.57,0,0,1-8-7.55c-4.68-7-7-15-9.2-23-2.09-7.69-4.05-15.43-5.7-23.23-1.31-6.2-2.23-12.5-3-18.79-.56-4.39-.51-8.84-.91-13.25-.44-4.81-1.11-9.59-1.64-14.39-.58-5.3-1.21-10.6-1.65-15.91a7.7,7.7,0,0,1,1.66-6,4.33,4.33,0,0,1,5.83-.92c.21.13.4.29.68.5a19.53,19.53,0,0,1,1-3.19,9.69,9.69,0,0,1,1.93-2.56c.8-.77,2.63-.34,3.27.87,1.07,2,1.93,4.2,2.87,6.31a8.6,8.6,0,0,1,.27.91c.36-2,.64-4,1.13-6a11.27,11.27,0,0,1,1.35-2.93,1.84,1.84,0,0,1,3.21,0c.84,1.36,1.48,2.85,2.21,4.3a15.62,15.62,0,0,1,.3-1.62,5.25,5.25,0,0,1,.76-1.76c1.79-2.18,4.36-2.05,6.14.18a9.88,9.88,0,0,1,1.8,5.39c.69,6.35,1.4,12.7,1.93,19.06.68,8.26,1.09,16.53,1.79,24.78a188.08,188.08,0,0,0,6.33,33.74,17.74,17.74,0,0,0,1,2.63,4.71,4.71,0,0,0,5.63,2.6,15.72,15.72,0,0,0,4-1.55,220.14,220.14,0,0,0,21.6-13.87,185.32,185.32,0,0,0,17.12-13.63C94.8,166.3,95.15,166,95.49,165.77Z"/>
            <path class="cls-5"
                  d="M215.58,41.33c-2-1-4-2-5.9-3A26.62,26.62,0,0,1,207,36.53c-1-.73-1.1-1.48-.18-2.33,2.64-2.43,5.24-4.93,8-7.18a94.52,94.52,0,0,1,15.27-9.82A30.72,30.72,0,0,1,235,15.35a1.66,1.66,0,0,1,1.42.35c.21.21.13.95-.07,1.32a75.29,75.29,0,0,1-8.72,12.73c-1.48,1.79-3,3.54-4.56,5.38.24.14.47.3.71.41,3.43,1.57,6.87,3.11,10.28,4.72a2.12,2.12,0,0,1,1.15,1.23c.06.39-.5,1-.93,1.3a82.26,82.26,0,0,1-20.39,10.4c-3.63,1.23-7.34,2.23-11,3.35a1,1,0,0,1-1.37-.49c-.41-.62-.11-1,.31-1.4l12.62-12.18Z"/>
            <path class="cls-6"
                  d="M32.23,4.89C33.73,3,35.3,1.45,37.74,2.56c1.63.74,2.12,2.32,1.52,5.4a3.54,3.54,0,0,1,3.6,3.55c.1,1.66-1,2.6-2.56,3.22A3.65,3.65,0,0,1,40,19.4c-1.16,1.42-2.7,1.52-4.42.94,0,2.08-.78,3.82-2.91,4.19s-3-1.17-3.54-3c-2.19,2.13-4.22,2.54-5.82,1.28-1.22-1-1.12-2.82.34-5.45-1.61.23-3.22.42-4.36-.93a2.54,2.54,0,0,1-.5-1.69c.18-1.88,1.07-3.56,4.7-3.52-.26-.3-.44-.54-.66-.75a4.32,4.32,0,0,1-1.2-4,2.09,2.09,0,0,1,2.91-1.85,13.78,13.78,0,0,1,1.91.84A28.52,28.52,0,0,1,27,2.13a1.92,1.92,0,0,1,3.32-.9,11.69,11.69,0,0,1,1.5,2.49A10,10,0,0,1,32.23,4.89Zm.34,2.31A7.52,7.52,0,0,0,28,8.7a6,6,0,0,0-2.5,6.67c.47,2,2.41,3.49,4.77,4.09,3,.77,6.93-2.24,7.84-5.24a6.72,6.72,0,0,0,.36-2.54C38.16,8.47,35.52,7.17,32.57,7.2Z"/>
            <path class="cls-4"
                  d="M180.32,13.44c1.93-.22,3.66-.51,5.4-.59a4.9,4.9,0,0,1,4.6,4.21,4.28,4.28,0,0,1-4.41,4.28,6.76,6.76,0,0,1-6.16-3.6c-1.91,1.59-1.81,5.64.24,8,.84-1.28,1.86-2.37,3.49-2.42a4,4,0,0,1,1.94.48A3.21,3.21,0,0,1,187,27.49c-.63,2-2.1,2.63-5.65,2.29.07.51.14,1,.2,1.5.11.85-.21,1.52-1.09,1.56s-1.19-.57-1.19-1.38a8.42,8.42,0,0,0,0-.87,5.76,5.76,0,0,0-1.3-3.82c-2.69-3-2.57-7.25.06-10.94a1.84,1.84,0,0,0,.27-1.33,11.54,11.54,0,0,1,.31-7A9.9,9.9,0,0,1,183,2.28c3-1.72,6.2-2.61,9.66-1.29.69.26,1.08.64.87,1.37s-.5,1-1.34.84c-2.17-.5-4.36-.78-6.5.2-3,1.36-4.94,3.51-5.34,6.84A24.58,24.58,0,0,0,180.32,13.44Zm1,2.63a5.18,5.18,0,0,0,3.46,3,3.55,3.55,0,0,0,2.46-.45,1.62,1.62,0,0,0,0-2.79A5.13,5.13,0,0,0,181.3,16.07Zm.48,11.14c1.29.75,2.61.72,2.91-.15a1.62,1.62,0,0,0-.59-1.38C183.42,25.17,182.28,25.94,181.78,27.21Z"/>
            <path class="cls-7"
                  d="M211.93,210.57c-.65.7-1.3,1.4-1.94,2.12a2.51,2.51,0,0,0-.5.76,9.25,9.25,0,0,1-.58,1.73c-2.09,3.31-4.28,6.56-6.36,9.88-3.56,5.71-8.35,10.3-13.21,14.84a34.3,34.3,0,0,1-8.61,6,27.07,27.07,0,0,1-4.43,1.35c-3.3.94-6.48,2.24-9.94,2.7a30.23,30.23,0,0,1-14.89-1.52c-3.63-1.35-6.48-3.92-9-6.83a31.92,31.92,0,0,1-6.55-13.36,85.5,85.5,0,0,1-2.23-12.72c-2.18-21.9-2.49-43.87-2.35-65.85,0-7,.62-13.93.84-20.9.1-3.15-.15-6.32-.12-9.48s.12-6.09.36-9.13a16.19,16.19,0,0,1,1.08-3.44,3.73,3.73,0,0,1,2.1,2.67,65.93,65.93,0,0,1,3.27,13.28c.11.72.29,1.42.45,2.13a.92.92,0,0,0,1.18.8c.7-.12.94-.44.94-1.17,0-5,0-10.09.09-15.13a9.57,9.57,0,0,1,1.7-5.31,2.31,2.31,0,0,1,.34-.42c.07-.07.19-.08.58-.21a15.36,15.36,0,0,1,1,3.1q.56,5.69.85,11.39c.12,2.32.07,4.65,0,7,0,.84.46,1.35,1.06,1.33a1.75,1.75,0,0,0,1.18-1.13c.28-1.23.28-2.52.44-3.78.5-4,.94-8,1.58-12a22.83,22.83,0,0,1,1.5-4.64,7.94,7.94,0,0,1,1.31-1.7,9.82,9.82,0,0,1,.8,1.33,31,31,0,0,1,1.78,8.7c.18,3.73.44,7.47.66,11.2.05.8.28,1.49,1.24,1.44s1.14-.74,1.07-1.56a60,60,0,0,1,1-17.12,3.4,3.4,0,0,1,2-2.69,60.14,60.14,0,0,1,1.16,6.41c.29,3.84.41,7.69.46,11.54.12,11.11,0,22.23.31,33.34.38,13,1.08,26.06,1.76,39.08.22,4.16.76,8.31,1.27,12.45a7.25,7.25,0,0,0,1.07,2.81c1.32,2.12,4.1,3.49,6.82.9a15.44,15.44,0,0,0,2.53-3.12c2.95-4.79,5.81-9.62,8.71-14.43.48-.8,1-1.59,1.48-2.39,2.2,1.77,4.38,3.56,6.6,5.31q8.84,7,17.69,13.92C211.64,210.24,211.78,210.41,211.93,210.57Zm-40.69,14c.12-1.74.13-3,.29-4.13a1.13,1.13,0,0,0-1.08-1.42c-.43,0-1,.69-1.26,1.19a3.47,3.47,0,0,0-.14,1.39c-.11,2-.26,4-.32,6,0,.72.16,1.48,1.14,1.54s1.19-.57,1.22-1.41C171.12,226.44,171.21,225.21,171.24,224.52Zm-9-.62c.31.29.72.95,1.12.95a1.71,1.71,0,0,0,1.31-.95c.61-2.19,1.11-4.42,1.52-6.66.08-.42-.45-1-.7-1.44-.51.28-1.35.45-1.46.84C163.39,218.93,162.9,221.26,162.27,223.9Z"/>
            <path class="cls-7"
                  d="M107.72,202.32c-1,.91-2,1.85-3.08,2.72a164.68,164.68,0,0,1-30.15,19.79C67.28,228.5,60,232,52.11,234a65.4,65.4,0,0,1-9.06,1.8c-8.11.91-14.07-2.76-18.53-9.25a51.09,51.09,0,0,1-6.58-14.72C15.61,204,13.48,196,11.62,188c-1.52-6.52-2.73-13.14-3.71-19.77-.81-5.52-1.07-11.12-1.62-16.68-.51-5.27-1.11-10.54-1.6-15.81-.56-6-1.9-11.91-1.77-18a4.81,4.81,0,0,1,.72-2.42,2.29,2.29,0,0,1,2.54-1.1,3.16,3.16,0,0,1,2.31,2.39c.46,2.12.74,4.28,1.08,6.43.37,2.32.71,4.66,1.12,7,.12.71.23,1.57,1.36,1.37s1-.91.93-1.72c-.38-2.4-.79-4.8-1.12-7.21-.35-2.58-.64-5.17-.92-7.77-.19-1.85.69-3.46,1.32-5.1.28-.73.89-.49,1.18,0a10.9,10.9,0,0,1,1.37,2.7,71.57,71.57,0,0,1,3,15,27,27,0,0,0,.62,3.3,1.22,1.22,0,0,0,1.68,1c.83-.19.74-.89.63-1.49a44.33,44.33,0,0,1-.47-12.59c.31-3.16,1.06-6.28,1.62-9.42l.3-.07a6.44,6.44,0,0,1,.66,1.24c1,3.81,2.1,7.61,3,11.45.64,2.68,1.08,5.41,1.52,8.13.12.74.22,1.31,1.13,1.13a1.2,1.2,0,0,0,1-1.52c-.29-2.12-.64-4.23-.91-6.35-.43-3.31-1-6.62-.55-10a14.46,14.46,0,0,1,.53-2.65c.2-.57.78-1.46,1.09-1.42a2.76,2.76,0,0,1,1.94,1.07,12.33,12.33,0,0,1,1.38,4.18c.73,7.59,1.35,15.19,1.95,22.79.3,3.8.51,7.61.71,11.42a169.59,169.59,0,0,0,2.74,23.23c1,5.41,2,10.83,3.2,16.22a21.07,21.07,0,0,0,3.42,8.4c2.06,2.75,3.94,3,6.89,2.4a20.91,20.91,0,0,0,5.42-2.17A199.45,199.45,0,0,0,95.09,169c.19-.17.4-.31.6-.47a116.11,116.11,0,0,0,5,17.88c1.94,5.07,4.17,10,6.3,15A3.67,3.67,0,0,0,107.72,202.32Zm-61.86.31c-.31-.3-.62-.8-1-.94a1.27,1.27,0,0,0-1.1.55c-.88,1.82-1.69,3.68-2.45,5.55a1.22,1.22,0,0,0,.7,1.79c.79.27,1.18-.23,1.46-.9.69-1.68,1.41-3.33,2.11-5C45.65,203.41,45.71,203.13,45.86,202.63Zm4.47,3.57a13,13,0,0,1,0-1.53,1,1,0,0,0-1.09-1.19,1.62,1.62,0,0,0-1.23.93,11.07,11.07,0,0,0,0,3.35,1.71,1.71,0,0,0,1.22,1.11,1.07,1.07,0,0,0,1.12-1.37A8.05,8.05,0,0,1,50.33,206.2Z"/>
            <path class="cls-7"
                  d="M119.78,61.26c3.82,6.61,15.38,7.6,19.62-2.42a10.48,10.48,0,0,0,5.85,3.92,11.2,11.2,0,0,0,11-3.17c1.28-1.28,2.43-2.7,3.64-4,.63-.71,1.27-1.4,2-2.18.87,1.36,1.65,2.69,2.52,4,3.13,4.58,6.32,9.12,9.43,13.71,1.44,2.13,2.68,4.4,4.13,6.52A7,7,0,0,0,182,80.63a3.25,3.25,0,0,0,3.42-1.47c1-1.69,1.09-3.6,1.31-5.45.09-.77.35-1.14,1-1.21,2.19-.2,5.28.77,5.9,3.08a18.13,18.13,0,0,1,.48,5.15c-.07,2.85-1.8,4.52-4.4,5.43a21.57,21.57,0,0,0-2,.78c-2.55,1.16-3.11,3.51-3,5.91.12,3.58.61,7.15.91,10.72.19,2.21.37,4.42.45,6.63.22,6.1.5,12.19.5,18.29a26.48,26.48,0,0,1-1.48,10,19.89,19.89,0,0,1-6.81,9.24,11.59,11.59,0,0,1-12.16.74,1.64,1.64,0,0,1-.56-1.23c0-7.52,0-15,0-22.56-.05-4.61-.19-9.22-.48-13.82a48.44,48.44,0,0,0-1.12-6.53,2.66,2.66,0,0,0-2.13-2.24,2.56,2.56,0,0,0-2.75,1.36c-.72,1.23-1.31,2.54-2,3.78a27.78,27.78,0,0,0-1-3.3,6.06,6.06,0,0,0-1.66-2.45c-1.52-1.15-3.14-.32-4.14,1.39a31.74,31.74,0,0,0-1.78,4.29c-.16.39-.27.78-.45,1.32-.5-1.76-.91-3.33-1.4-4.86-.41-1.25-1.08-2.41-2.58-2.44a3.23,3.23,0,0,0-3.17,2.4c-.75,2.41-1.21,4.91-1.78,7.37a3.14,3.14,0,0,1-.33,1.16,15.32,15.32,0,0,0-.81-2.62,22.4,22.4,0,0,0-2.41-4.06c-1.37-1.71-3.58-.8-4.34,1.08-1.85,4.58-1.53,9.39-1.38,14.17a7,7,0,0,1-.13,2.13c-1.15-1.12-2.34-2.2-3.45-3.35a19.24,19.24,0,0,1-3.92-6.45,63.25,63.25,0,0,1-3.3-12.48c-.74-4.24-1.78-8.44-2.5-12.68-1.08-6.4-2.57-12.75-2.25-19.32a2.37,2.37,0,0,1,1.17-2.2A13.64,13.64,0,0,0,119.78,61.26Zm14.54,39.88a7.59,7.59,0,0,0,4.88-1.77,15,15,0,0,0,4.48-7.07,1.75,1.75,0,0,0-.52-1.42c-.52-.49-1.1-.17-1.47.36a3,3,0,0,0-.46,1A9.51,9.51,0,0,1,134.85,99c-.92.29-1.25-.42-1.13-1.22a11.72,11.72,0,0,1,.6-2.31c1.33-3.79,2.75-7.55,4-11.36a45.08,45.08,0,0,0,1.12-4.76c.17-.78-.2-1.37-1-1.39-.38,0-.8.53-1.14.88a1.7,1.7,0,0,0-.22.72,90.2,90.2,0,0,1-4.72,14.67,15.11,15.11,0,0,0-1,3.76A2.74,2.74,0,0,0,134.32,101.14ZM158.11,62.7c-1,.25-2.38.57-3.76,1-.67.19-1.24.7-1,1.44s1,.81,1.73.58c1.73-.51,3.5-1,5.3-.28A23.9,23.9,0,0,1,163,66.63a1.31,1.31,0,0,0,1.75-.23c.64-.66.11-1.15-.36-1.53A11.08,11.08,0,0,0,158.11,62.7ZM125.48,70a10.76,10.76,0,0,0-5.29,1.56,1.07,1.07,0,0,0-.46,1.47.86.86,0,0,0,1.24.49,5.84,5.84,0,0,1,1.21-.44,32.66,32.66,0,0,1,3.89-.78c.58-.06,1.21.38,1.84.53a1.16,1.16,0,0,0,1.48-.93,1,1,0,0,0-.94-1.33C127.46,70.39,126.47,70.19,125.48,70Zm27.61,7.57a1.59,1.59,0,0,0-1.61,1.54,1.67,1.67,0,0,0,1.68,1.51A1.89,1.89,0,0,0,154.94,79C155,78.24,154.16,77.6,153.09,77.56Zm-22.54,5.26a1.53,1.53,0,0,0-1.45-1.55,1.55,1.55,0,0,0-1.58,1.44,1.71,1.71,0,0,0,1.54,1.55A1.62,1.62,0,0,0,130.55,82.82Z"/>
            <path class="cls-8"
                  d="M32.57,7.2c3,0,5.59,1.27,5.9,4.48a6.72,6.72,0,0,1-.36,2.54c-.91,3-4.81,6-7.84,5.24-2.36-.6-4.3-2.14-4.77-4.09A6,6,0,0,1,28,8.7,7.52,7.52,0,0,1,32.57,7.2Zm-2.89,4.48c.4-.54.78-.85.75-1.1s-.44-.53-.68-.79c-.26.27-.65.51-.75.83S29.33,11.15,29.68,11.68ZM34.36,10c-.54-.35-.86-.7-1.11-.66s-.52.44-.77.69c.23.24.46.67.71.68S33.78,10.4,34.36,10Zm1.72,3.56c-.5-.37-.75-.7-1-.73s-.6.41-.59.62.34.58.53.87Zm-7.49,1.83c.27-.49.57-.78.55-1s-.39-.47-.61-.7c-.22.26-.59.5-.62.78S28.25,15,28.59,15.42Zm3,2.25c.32-.57.62-.86.6-1.12s-.39-.46-.61-.69c-.22.22-.62.44-.62.65S31.27,17.11,31.59,17.67Zm.31-5.75c-.25.47-.54.76-.51,1s.37.5.57.75c.24-.27.61-.52.66-.82S32.26,12.36,31.9,11.92Z"/>
            <path class="cls-9"
                  d="M181.3,16.07a5.13,5.13,0,0,1,5.95-.24,1.62,1.62,0,0,1,0,2.79,3.55,3.55,0,0,1-2.46.45A5.18,5.18,0,0,1,181.3,16.07Z"/>
            <path class="cls-10"
                  d="M181.78,27.21c.5-1.27,1.64-2,2.32-1.53a1.62,1.62,0,0,1,.59,1.38C184.39,27.93,183.07,28,181.78,27.21Z"/>
            <path class="cls-11"
                  d="M171.24,224.52c0,.69-.12,1.92-.15,3.15,0,.84-.23,1.46-1.22,1.41s-1.16-.82-1.14-1.54c.06-2,.21-4,.32-6a3.47,3.47,0,0,1,.14-1.39c.29-.5.83-1.2,1.26-1.19a1.13,1.13,0,0,1,1.08,1.42C171.37,221.57,171.36,222.78,171.24,224.52Z"/>
            <path class="cls-12"
                  d="M162.27,223.9c.63-2.64,1.12-5,1.79-7.26.11-.39.95-.56,1.46-.84.25.49.78,1,.7,1.44-.41,2.24-.91,4.47-1.52,6.66a1.71,1.71,0,0,1-1.31.95C163,224.85,162.58,224.19,162.27,223.9Z"/>
            <path class="cls-13"
                  d="M45.86,202.63c-.15.5-.21.78-.32,1.05-.7,1.67-1.42,3.32-2.11,5-.28.67-.67,1.17-1.46.9a1.22,1.22,0,0,1-.7-1.79c.76-1.87,1.57-3.73,2.45-5.55a1.27,1.27,0,0,1,1.1-.55C45.24,201.83,45.55,202.33,45.86,202.63Z"/>
            <path class="cls-11"
                  d="M50.33,206.2a8.05,8.05,0,0,0,0,1.3,1.07,1.07,0,0,1-1.12,1.37A1.71,1.71,0,0,1,48,207.76a11.07,11.07,0,0,1,0-3.35,1.62,1.62,0,0,1,1.23-.93,1,1,0,0,1,1.09,1.19A13,13,0,0,0,50.33,206.2Z"/>
            <path class="cls-12"
                  d="M134.32,101.14a2.74,2.74,0,0,1-2.88-3.2,15.11,15.11,0,0,1,1-3.76,90.2,90.2,0,0,0,4.72-14.67,1.7,1.7,0,0,1,.22-.72c.34-.35.76-.88,1.14-.88.75,0,1.12.61,1,1.39a45.08,45.08,0,0,1-1.12,4.76c-1.27,3.81-2.69,7.57-4,11.36a11.72,11.72,0,0,0-.6,2.31c-.12.8.21,1.51,1.13,1.22a9.51,9.51,0,0,0,6.38-6.74,3,3,0,0,1,.46-1c.37-.53.95-.85,1.47-.36a1.75,1.75,0,0,1,.52,1.42,15,15,0,0,1-4.48,7.07A7.59,7.59,0,0,1,134.32,101.14Z"/>
            <path class="cls-13"
                  d="M158.11,62.7a11.08,11.08,0,0,1,6.28,2.17c.47.38,1,.87.36,1.53a1.31,1.31,0,0,1-1.75.23,23.9,23.9,0,0,0-2.62-1.22c-1.8-.73-3.57-.23-5.3.28-.76.23-1.47.21-1.73-.58s.33-1.25,1-1.44C155.73,63.27,157.14,63,158.11,62.7Z"/>
            <path class="cls-12"
                  d="M125.48,70c1,.2,2,.4,3,.57a1,1,0,0,1,.94,1.33,1.16,1.16,0,0,1-1.48.93c-.63-.15-1.26-.59-1.84-.53a32.66,32.66,0,0,0-3.89.78,5.84,5.84,0,0,0-1.21.44.86.86,0,0,1-1.24-.49,1.07,1.07,0,0,1,.46-1.47A10.76,10.76,0,0,1,125.48,70Z"/>
            <path class="cls-13"
                  d="M153.09,77.56c1.07,0,1.9.68,1.85,1.44a1.89,1.89,0,0,1-1.78,1.61,1.67,1.67,0,0,1-1.68-1.51A1.59,1.59,0,0,1,153.09,77.56Z"/>
            <path class="cls-14"
                  d="M130.55,82.82a1.62,1.62,0,0,1-1.49,1.44,1.71,1.71,0,0,1-1.54-1.55,1.55,1.55,0,0,1,1.58-1.44A1.53,1.53,0,0,1,130.55,82.82Z"/>
            <path class="cls-15"
                  d="M29.68,11.68c-.35-.53-.74-.86-.68-1.06s.49-.56.75-.83c.24.26.65.51.68.79S30.08,11.14,29.68,11.68Z"/>
            <path class="cls-16"
                  d="M34.36,10c-.58.37-.88.72-1.17.71s-.48-.44-.71-.68c.25-.25.49-.64.77-.69S33.82,9.68,34.36,10Z"/>
            <path class="cls-17"
                  d="M36.08,13.59l-1.1.76c-.19-.29-.51-.57-.53-.87s.4-.64.59-.62S35.58,13.22,36.08,13.59Z"/>
            <path class="cls-18"
                  d="M28.59,15.42c-.34-.45-.71-.73-.68-1s.4-.52.62-.78c.22.23.58.45.61.7S28.86,14.93,28.59,15.42Z"/>
            <path class="cls-19"
                  d="M31.59,17.67c-.32-.56-.63-.86-.63-1.16s.4-.43.62-.65c.22.23.59.44.61.69S31.91,17.1,31.59,17.67Z"/>
            <path class="cls-16"
                  d="M31.9,11.92c.36.44.76.73.72.95s-.42.55-.66.82c-.2-.25-.54-.48-.57-.75S31.65,12.39,31.9,11.92Z"/>
        </g>
    </g>
</svg>