<svg xmlns="http://www.w3.org/2000/svg" viewBox="0 0 132 217.96">
    <defs>
        <style>
            .cls-0{fill:none}.cls-1{fill:#fefefe;}.cls-2{fill:#e9b46f;}.cls-3{fill:#362f2a;}.cls-4{fill:#e7afae;}.cls-5{fill:#372f29;}.cls-6{fill:#342d27;}.cls-7{fill:#383029;}.cls-8{fill:#342d28;}.cls-9{fill:#37302b;}
        </style>
    </defs>
    <g id="Capa_2" data-name="Capa 2">
        <g id="Capa_1-2" data-name="Capa 1">
            <path class="cls-0"
                  d="M132,218H0V0H132ZM93.09,140.77C94.05,132,95,123.2,96,114.35c1,0,2-.08,3-.15,2.37-.18,4.74.06,7.1-.74a9.81,9.81,0,0,0,6.74-7.15c1.06-3.88-1-10-4.33-12.32-2-1.41-4.08-2.54-6.17-3.82a17.14,17.14,0,0,0,.92-2.27c1.17-4.44,2.52-8.86,3.34-13.37,1-5.28,1.43-10.64,2.12-16,.1-.81-.11-1.41-1-1.47-2-.12-4-.58-6-.87-5.3-.78-10.66-1.24-16-1.83l-21-2.31C58.49,51.4,52.21,50.74,45.94,50c-3.2-.38-6.37-1.1-9.58-1.33-4.84-.36-9.71-.44-14.57-.59a27.74,27.74,0,0,0-3,.23c-.12.67-.24,1.16-.29,1.65-.52,5-.93,10-1.56,14.94a33.91,33.91,0,0,1-3.08,11c-1.06,2.07-2.28,4.23-4.63,5.13a14.71,14.71,0,0,1-3.88.71A4.33,4.33,0,0,0,2,83.71c-2.14,3.48.29,7.22,3.24,8.13a49.21,49.21,0,0,0,5.57,1.07c-.2,2.84-.41,5.84-.63,8.83-.1,1.43.23,1.92,1.56,2.29a30.53,30.53,0,0,0,11,.66c2.75-.25,5.46-.92,8.3-1.43a15,15,0,0,1-.2,1.49,14,14,0,0,1-2.17,4.9,12.61,12.61,0,0,1-13.63,4.86c-.72-.18-1.51-.32-2,.5a1.51,1.51,0,0,0,.37,2,50.09,50.09,0,0,0,4.67,5c4.54,3.87,9.94,6,15.71,7.29l8,1.78v9.13c-1.09.21-2.19.44-3.29.62a1.4,1.4,0,0,0-1.27,1.5c0,1.13,0,2.25.12,3.37.19,2.74.41,5.48.62,8.29-.7.2-1.38.41-2.08.59-6.42,1.69-12.33,4.29-17.34,8.85A50.35,50.35,0,0,0,6.22,179.86,68.24,68.24,0,0,0,.56,201.74c-.42,4.31-.1,8.69-.09,13,0,1,.62,1.4,1.54,1.46,3.08.2,6.15.47,9.22.59,5.11.2,10.22.43,15.33.44,23.2.07,46.39,0,69.58.12a101.67,101.67,0,0,0,14.38-1.31,45.23,45.23,0,0,1,11.15-.17,10.91,10.91,0,0,0,6.67-.9,6.49,6.49,0,0,0,3.38-4.82,22.11,22.11,0,0,0,0-5.86c-.76-6-.92-12.05-2-18a58.08,58.08,0,0,0-7.3-19.86,32.74,32.74,0,0,0-9.33-9.74,31.68,31.68,0,0,0-13.4-5.41c-.81-.13-1.14-.49-1.14-1.26,0-.4,0-.8-.05-1.2-.07-2-.14-4-.22-6,0-.85-.29-1.39-1.32-1.47C95.65,141.29,94.38,141,93.09,140.77Zm-19-105.22C75.6,37.38,77,39.24,78.53,41c1.73,1.93,4.06,2.29,6.49,1.94a3.72,3.72,0,0,0,2-1.08,7.74,7.74,0,0,0,.62-10c-.47-.66-.88-1.36-1.38-2.15l.93-.06a8.89,8.89,0,0,0,6.46-2.83,5.55,5.55,0,0,0,1-6.2c-1.25-3-5.26-4.58-8.31-3.93C85,17,83.64,17.46,82,18c.89-1.94,1.61-3.66,2.45-5.33a13.22,13.22,0,0,0,1.36-6.41C85.75,3.7,83.58,1.06,81.35.67a6.28,6.28,0,0,0-7,4.16,30,30,0,0,0-.89,3.25c-.38,1.77-.7,3.57-1.06,5.43-1.46-1.33-2.76-2.7-4.24-3.85-2.76-2.15-5.67-3.94-9.43-3.86A5,5,0,0,0,54.55,8c-1.79,2.36-1.37,6.31.89,8.59,1,1,2,1.86,2.94,2.78l-.09.28c-2.22.15-4.44.37-6.66.44A8.52,8.52,0,0,0,44,25.7a4.53,4.53,0,0,0,3.29,5.89c2.72.81,5.38.29,8.06-.11,1.65-.24,3.28-.59,5.08-.91-.27.83-.52,1.47-.7,2.13a12.44,12.44,0,0,0,.61,8.88,5.37,5.37,0,0,0,5,3.18c3,.18,6.55-2.47,7.44-5.22C73.2,38.17,73.69,36.82,74.12,35.55Z"/>
            <path class="cls-2"
                  d="M93.09,140.77c1.29.22,2.56.52,3.86.61,1,.08,1.29.62,1.32,1.47.08,2,.15,4,.22,6,0,.4.05.8.05,1.2,0,.77.33,1.13,1.14,1.26a31.68,31.68,0,0,1,13.4,5.41,32.74,32.74,0,0,1,9.33,9.74,58.08,58.08,0,0,1,7.3,19.86c1.09,6,1.25,12,2,18a22.11,22.11,0,0,1,0,5.86,6.49,6.49,0,0,1-3.38,4.82,10.91,10.91,0,0,1-6.67.9,45.23,45.23,0,0,0-11.15.17,101.67,101.67,0,0,1-14.38,1.31c-23.19-.09-46.38,0-69.58-.12-5.11,0-10.22-.24-15.33-.44-3.07-.12-6.14-.39-9.22-.59-.92-.06-1.54-.49-1.54-1.46,0-4.35-.33-8.73.09-13a68.24,68.24,0,0,1,5.66-21.88,50.35,50.35,0,0,1,12.35-16.48c5-4.56,10.92-7.16,17.34-8.85.7-.18,1.38-.39,2.08-.59-.21-2.81-.43-5.55-.62-8.29-.08-1.12-.14-2.24-.12-3.37a1.4,1.4,0,0,1,1.27-1.5c1.1-.18,2.2-.41,3.29-.62l2.62-.22c1.7-.06,3.41-.17,5.11-.19,8.48-.1,17-.31,25.45-.24,5.21.05,10.41.55,15.62.85ZM43.78,152.26H44c0,1.34,0,2.68,0,4,0,.9,1,1.84,1.62,1.76a1.93,1.93,0,0,0,1.35-2c-.17-2.56-.4-5.12-.56-7.69a1.25,1.25,0,0,0-1.39-1.2,1.23,1.23,0,0,0-1.3,1.39C43.84,149.8,43.78,151,43.78,152.26ZM81,154.13c0,1.3,0,2.61,0,3.91,0,1,.71,1.19,1.46,1.18s1.39-.17,1.38-1.14q0-3.86,0-7.71a1.25,1.25,0,0,0-1.4-1.41c-1,0-1.41.43-1.43,1.47C81,151.67,81,152.9,81,154.13Zm-15-3.75c0-1-.46-1.8-1.4-1.74a1.68,1.68,0,0,0-1.18,1.09c-.3,2.33-.47,4.68-.64,7a1.61,1.61,0,0,0,1.4,1.62c1,.07,1.2-.61,1.27-1.39Q65.72,153.68,66,150.38Zm5.44,6.31c-.2.93.15,1.55,1.1,1.65s1.45-.51,1.6-1.4.25-1.58.34-2.37c.14-1.4.34-2.8.36-4.2A1.26,1.26,0,0,0,73.5,149c-.91,0-1.12.71-1.22,1.38C72,152.45,71.7,154.57,71.42,156.69Zm18.07-.14A1.12,1.12,0,0,0,90.67,158a1.08,1.08,0,0,0,1.25-1.26A2.84,2.84,0,0,1,92,156c.3-1.74.62-3.48.92-5.23.14-.84-.44-2.1-1-2.21-.71-.16-1.45.57-1.61,1.67C90,152.32,89.77,154.44,89.49,156.55Zm-35.88-.83c-.37.93.33,1.45,1.14,1.58s1.25-.6,1.33-1.37c.2-2.09.4-4.17.52-6.26A1.51,1.51,0,0,0,55.32,148c-.83-.13-1,.66-1.16,1.3a4.89,4.89,0,0,0-.09.53Z"/>
            <path class="cls-3"
                  d="M44.43,139.94l-2.62.22V131l-8-1.78C28,128,22.6,125.83,18.06,122a50.09,50.09,0,0,1-4.67-5,1.51,1.51,0,0,1-.37-2c.53-.82,1.32-.68,2-.5a12.61,12.61,0,0,0,13.63-4.86,14,14,0,0,0,2.17-4.9,15,15,0,0,0,.2-1.49c-2.84.51-5.55,1.18-8.3,1.43a30.53,30.53,0,0,1-11-.66c-1.33-.37-1.66-.86-1.56-2.29.22-3,.43-6,.63-8.83a49.21,49.21,0,0,1-5.57-1.07C2.29,90.93-.14,87.19,2,83.71a4.33,4.33,0,0,1,3.36-1.93,14.71,14.71,0,0,0,3.88-.71c2.35-.9,3.57-3.06,4.63-5.13A33.91,33.91,0,0,0,17,64.9c.63-5,1-10,1.56-14.94,0-.49.17-1,.29-1.65a27.74,27.74,0,0,1,3-.23c4.86.15,9.73.23,14.57.59,3.21.23,6.38.95,9.58,1.33,6.27.74,12.55,1.4,18.82,2.09l21,2.31c5.33.59,10.69,1.05,16,1.83,2,.29,3.94.75,6,.87.88.06,1.09.66,1,1.47-.69,5.32-1.16,10.68-2.12,16-.82,4.51-2.17,8.93-3.34,13.37a17.14,17.14,0,0,1-.92,2.27c2.09,1.28,4.22,2.41,6.17,3.82,3.3,2.37,5.39,8.44,4.33,12.32a9.81,9.81,0,0,1-6.74,7.15c-2.36.8-4.73.56-7.1.74-1,.07-1.95.1-3,.15-1,8.85-1.92,17.63-2.88,26.42l-2.48-.41c.49-4.51,1-9,1.45-13.53s.81-8.74,1.18-13.12c.12-1.38.49-1.79,1.94-1.94,3.59-.36,7.27,0,10.76-1.26a5.82,5.82,0,0,0,3.87-3.36,10.29,10.29,0,0,0-.66-8.22c-1.44-3-4.14-4.57-7.06-5.79A3.55,3.55,0,0,0,99.17,93a3.33,3.33,0,0,1-3.32-.43A6.72,6.72,0,0,1,93,89.09,35.31,35.31,0,0,1,92,84.35c-.49-3.67-.71-7.38-1.3-11-.85-5.25-2-10.48-1.41-15.91-2.11-.24-4.23-.49-6.35-.72-8.91-1-17.8-2-26.72-2.89C47,52.91,37.93,51.21,28.7,50.89c-2.52-.09-5.05,0-7.65,0,0,.37-.1.8-.13,1.23-.56,7.61-1.35,15.2-3.61,22.52a21.72,21.72,0,0,1-3,5.86,9.08,9.08,0,0,1-8,4,2.14,2.14,0,0,0-2.36,1.34,2.86,2.86,0,0,0,2.35,3.69,30.16,30.16,0,0,0,5.18.48c2.15,0,2.21.26,2.08,2.47,0,.21-.11.42-.12.64q-.36,4.22-.7,8.42c.58.14,1,.25,1.35.32A34.86,34.86,0,0,0,31.82,100c1.42-.5,2.07,0,2.15,1.56a13.63,13.63,0,0,1-1.6,7.15,16,16,0,0,1-13.06,8.9,20.16,20.16,0,0,1-2.08,0,12.54,12.54,0,0,0,.91,1,36.24,36.24,0,0,0,17.72,8.46c2.14.39,4.29.75,6.41,1.22,1.78.39,2.16.95,2.16,2.7Z"/>
            <path class="cls-4"
                  d="M74.12,35.55c-.43,1.27-.92,2.62-1.36,4-.89,2.75-4.47,5.4-7.44,5.22a5.37,5.37,0,0,1-5-3.18,12.44,12.44,0,0,1-.61-8.88c.18-.66.43-1.3.7-2.13-1.8.32-3.43.67-5.08.91-2.68.4-5.34.92-8.06.11A4.53,4.53,0,0,1,44,25.7,8.52,8.52,0,0,1,51.63,20c2.22-.07,4.44-.29,6.66-.44l.09-.28c-1-.92-2-1.82-2.94-2.78-2.26-2.28-2.68-6.23-.89-8.59A5,5,0,0,1,58.68,5.8c3.76-.08,6.67,1.71,9.43,3.86,1.48,1.15,2.78,2.52,4.24,3.85.36-1.86.68-3.66,1.06-5.43a30,30,0,0,1,.89-3.25,6.28,6.28,0,0,1,7-4.16c2.23.39,4.4,3,4.46,5.54a13.22,13.22,0,0,1-1.36,6.41C83.61,14.29,82.89,16,82,18c1.64-.49,3-1,4.31-1.27,3-.65,7.06.94,8.31,3.93a5.55,5.55,0,0,1-1,6.2,8.89,8.89,0,0,1-6.46,2.83l-.93.06c.5.79.91,1.49,1.38,2.15a7.74,7.74,0,0,1-.62,10,3.72,3.72,0,0,1-2,1.08c-2.43.35-4.76,0-6.49-1.94C77,39.24,75.6,37.38,74.12,35.55Zm-.62-1.43a7.8,7.8,0,0,0,5.1-1.31c6.29-3.9,5.81-11.76.84-15.73a12.11,12.11,0,0,0-13.49-1c-2.69,1.51-3.38,4.07-3.57,6.76A8.67,8.67,0,0,0,63.85,28C66.16,31.64,69,34.49,73.5,34.12Z"/>
            <path class="cls-1"
                  d="M44.43,139.94V131c0-1.75-.38-2.31-2.16-2.7-2.12-.47-4.27-.83-6.41-1.22a36.24,36.24,0,0,1-17.72-8.46,12.54,12.54,0,0,1-.91-1,20.16,20.16,0,0,0,2.08,0,16,16,0,0,0,13.06-8.9,13.63,13.63,0,0,0,1.6-7.15c-.08-1.56-.73-2.06-2.15-1.56a34.86,34.86,0,0,1-17.75,1.81c-.39-.07-.77-.18-1.35-.32q.34-4.2.7-8.42c0-.22.11-.43.12-.64.13-2.21.07-2.49-2.08-2.47a30.16,30.16,0,0,1-5.18-.48,2.86,2.86,0,0,1-2.35-3.69,2.14,2.14,0,0,1,2.36-1.34,9.08,9.08,0,0,0,8.05-4,21.72,21.72,0,0,0,3-5.86c2.26-7.32,3.05-14.91,3.61-22.52,0-.43.09-.86.13-1.23,2.6,0,5.13-.08,7.65,0,9.23.32,18.3,2,27.47,2.91,8.92.87,17.81,1.92,26.72,2.89,2.12.23,4.24.48,6.35.72-.54,5.43.56,10.66,1.41,15.91.59,3.65.81,7.36,1.3,11A35.31,35.31,0,0,0,93,89.09a6.72,6.72,0,0,0,2.82,3.48,3.33,3.33,0,0,0,3.32.43,3.55,3.55,0,0,1,2.92.14c2.92,1.22,5.62,2.81,7.06,5.79a10.29,10.29,0,0,1,.66,8.22,5.82,5.82,0,0,1-3.87,3.36c-3.49,1.28-7.17.9-10.76,1.26-1.45.15-1.82.56-1.94,1.94-.37,4.38-.75,8.75-1.18,13.12s-1,9-1.45,13.53c-5.21-.3-10.41-.8-15.62-.85-8.48-.07-17,.14-25.45.24C47.84,139.77,46.13,139.88,44.43,139.94Zm3.49-69.83c-.22-2.41-2.09-5-4.45-5.49a7.5,7.5,0,0,0-9.22,5.2,1.46,1.46,0,0,0,.88,1.8A1,1,0,0,0,36.64,71a7.46,7.46,0,0,1,.86-1.5,6.34,6.34,0,0,1,1.75-2,4.25,4.25,0,0,1,4.87.37c.85.67,1.29,2.91.66,3.73s-.67,1.45.18,2a1.27,1.27,0,0,0,2-.62A27.17,27.17,0,0,0,47.92,70.11Z"/>
            <path class="cls-5"
                  d="M43.78,152.26c0-1.23.06-2.46,0-3.69a1.23,1.23,0,0,1,1.3-1.39,1.25,1.25,0,0,1,1.39,1.2c.16,2.57.39,5.13.56,7.69a1.93,1.93,0,0,1-1.35,2c-.66.08-1.58-.86-1.62-1.76,0-1.34,0-2.68,0-4Z"/>
            <path class="cls-6"
                  d="M81,154.13c0-1.23,0-2.46,0-3.7,0-1,.46-1.49,1.43-1.47a1.25,1.25,0,0,1,1.4,1.41q0,3.85,0,7.71c0,1-.68,1.13-1.38,1.14S81,159.07,81,158C81,156.74,81,155.43,81,154.13Z"/>
            <path class="cls-5"
                  d="M66,150.38q-.27,3.3-.55,6.6c-.07.78-.26,1.46-1.27,1.39a1.61,1.61,0,0,1-1.4-1.62c.17-2.34.34-4.69.64-7a1.68,1.68,0,0,1,1.18-1.09C65.52,148.58,66,149.36,66,150.38Z"/>
            <path class="cls-5"
                  d="M71.42,156.69c.28-2.12.54-4.24.86-6.36.1-.67.31-1.37,1.22-1.38a1.26,1.26,0,0,1,1.32,1.42c0,1.4-.22,2.8-.36,4.2-.09.79-.2,1.58-.34,2.37s-.64,1.49-1.6,1.4S71.22,157.62,71.42,156.69Z"/>
            <path class="cls-5"
                  d="M89.49,156.55c.28-2.11.55-4.23.85-6.34.16-1.1.9-1.83,1.61-1.67.56.11,1.14,1.37,1,2.21-.3,1.75-.62,3.49-.92,5.23a2.84,2.84,0,0,0-.11.75A1.08,1.08,0,0,1,90.67,158,1.12,1.12,0,0,1,89.49,156.55Z"/>
            <path class="cls-7"
                  d="M53.61,155.72l.46-5.87a4.89,4.89,0,0,1,.09-.53c.16-.64.33-1.43,1.16-1.3a1.51,1.51,0,0,1,1.28,1.65c-.12,2.09-.32,4.17-.52,6.26-.08.77-.47,1.51-1.33,1.37S53.24,156.65,53.61,155.72Z"/>
            <path class="cls-8"
                  d="M73.5,34.12c-4.55.37-7.34-2.48-9.65-6.17a8.67,8.67,0,0,1-1.47-5.13c.19-2.69.88-5.25,3.57-6.76a12.11,12.11,0,0,1,13.49,1c5,4,5.45,11.83-.84,15.73A7.8,7.8,0,0,1,73.5,34.12Z"/>
            <path class="cls-9"
                  d="M47.92,70.11A27.17,27.17,0,0,1,47,73.05a1.27,1.27,0,0,1-2,.62c-.85-.56-.89-1.07-.18-2s.19-3.06-.66-3.73a4.25,4.25,0,0,0-4.87-.37,6.34,6.34,0,0,0-1.75,2,7.46,7.46,0,0,0-.86,1.5,1,1,0,0,1-1.51.59,1.46,1.46,0,0,1-.88-1.8,7.5,7.5,0,0,1,9.22-5.2C45.83,65.12,47.7,67.7,47.92,70.11Z"/>
        </g>
    </g>
</svg>