<svg xmlns="http://www.w3.org/2000/svg" viewBox="0 0 7278.9 3363"><defs><style>.cls-1{fill:#e9f2fa;}.cls-2{fill:#bddcff;}.cls-3{fill:#a1ccff;}.cls-4{fill:#27478f;}.cls-5{fill:#35405d;}.cls-6{fill:#9bd397;}.cls-7{fill:#5c9ef5;}.cls-8{fill:#67b576;}.cls-9{fill:#243966;}.cls-10{fill:#e8f1f9;}.cls-11{fill:#c37148;}.cls-12{fill:#cd784a;}.cls-13{fill:#cb774a;}.cls-14{fill:#5189d6;}.cls-15{fill:#305fab;}.cls-16{fill:#e8f1fa;}.cls-17{fill:#e8f0f8;}.cls-18{fill:#fe9e3a;}.cls-19{fill:#d24b3f;}.cls-20{fill:#d67a38;}.cls-21{fill:#e38f53;}.cls-22{fill:#2e5eaa;}.cls-23{fill:#ab2c27;}.cls-24{fill:#ef7b02;}.cls-25{fill:#e66800;}</style></defs><g id="Capa_2" data-name="Capa 2"><g id="Capa_1-2" data-name="Capa 1"><path class="cls-1" d="M427.28,1599.18a844.35,844.35,0,0,1,50.35-175.55,522.92,522.92,0,0,1,71.94-123.34c12.22-15.67,25.42-30.87,40-44.36,21.88-20.31,46.11-37.77,71.7-53.39,43.66-26.65,91.64-41.79,140.79-53.75,12.15-3,24.91-3.28,37.29-5.37,46.31-7.82,93-2.35,139.44-3.78,5.87-.18,11.79,1.4,17.68,2.23,3.27.46,6.53,1.47,9.8,1.52,25.31.37,49.86,5.88,74.59,10.41,14.93,2.73,30.15,3.91,45.26,5.65,3.29.38,6.78-.39,10,.34,33.61,7.67,67.68,3.32,101.47,3.11,19.64-.13,39.39-4.62,58.82-8.48,17.5-3.49,34.81-8.23,51.89-13.42,32.6-9.89,62.33-25.92,91.59-43.16,42.44-25,76.16-59.92,109.77-94.91,11.43-11.9,21.31-25.43,30.81-39,14.84-21.18,29.23-42.71,42.89-64.67,11.57-18.59,22.21-37.8,32.54-57.12,6.25-11.69,11-24.15,16.65-36.2,3.65-7.85,7.83-15.46,11.33-23.37,15.84-35.85,32.36-71.42,47.08-107.73,24.18-59.68,47.17-119.84,70.66-179.8,11.62-29.67,22.71-59.56,35-88.93,10-23.84,21.5-47.06,32.3-70.57,5.27-11.47,9.91-23.26,15.83-34.38,16.55-31.08,32.76-62.44,52.19-91.8,29.08-43.93,62.32-84.71,102.32-119.12,28.7-24.69,60.21-45.55,96-59.5,21.74-8.47,43.62-16,66.46-20.52,16.86-3.37,33.61-7.49,51-6.83,8.6.32,17.07-.09,25.66-2.58,6-1.75,13.08-.28,19.64.24,5.92.46,11.82,2.52,17.65,2.24,28.11-1.3,55.58,3.66,82.85,8.94a745.81,745.81,0,0,1,111.2,30.26c28.73,10.34,57.4,20.83,85.53,32.78q35.76,15.19,70.21,33c26.5,13.69,53.68,26.09,79.86,40.34,29.74,16.18,58.81,33.62,88,50.84,28,16.56,55.45,34.44,85.36,47.41,43.82,19,87.57,38.43,134.32,49.76,28.32,6.85,56.33,15,84.74,21.43,18.67,4.21,37.81,6.3,56.73,9.41,8.49,1.39,16.94,2.95,25.41,4.43-1.33,3-2.07,6.48-4.07,8.93-7.24,8.83-8.06,19-8.73,29.9-1.1,17.78,19.86,39,37.21,36.87,4.6-.56,9.32-.05,14-.05q82,0,164,.09c6.43,0,13.36-1.87,20,3.48a103,103,0,0,1,1.1,11.09q-.16,595.92-.53,1191.83c0,1-1.44,2-3,4.09-5.14-1.47-10.78-3-16.36-4.71-21.57-6.69-43-13.71-64.69-20.11-35-10.36-71.14-15.89-107.12-21.1-20.18-2.92-40.67-6.78-61.45-4.94-4.52.4-9.2-.9-13.8-1.47-5.91-.72-11.8-2-17.71-2.13-17.33-.29-34.67-.2-52,0-4.62,0-9.24.86-13.84,1.39-6.57.76-13.11,2-19.7,2.3-10,.51-20,.43-30,.6-8.69-4.4-8.69-4.4-12.11,3.18-19.9.93-39.41,4.57-59,8a830.71,830.71,0,0,0-125.11,32.2c-28.24,9.72-55.81,21.31-83.26,33.31-37.37,16.32-72.23,36.74-106.78,58-32.87,20.22-63.58,43.43-93.59,67.58a482.2,482.2,0,0,0-38.71,34.4c-22.09,22.09-45.55,42.89-64.6,68-10.42,13.71-22.35,26.27-33,39.86a685.3,685.3,0,0,0-51.86,75.47c-9.74,16.63-20,33-28.78,50.12-11.5,22.5-22,45.55-32.49,68.53-16.1,35.14-28.14,71.82-38.23,109-9,33.19-18.24,66.4-21.63,101-1.86,19-6.93,37.76-6.73,57.11,0,2.66.37,5.53-.48,7.94-4.78,13.6-3.27,27.66-3.37,41.58-.17,25.33-.1,50.66,0,76,0,6,.57,11.95,1.15,17.89.77,7.89,2,15.74,2.67,23.64.45,5.3-.33,10.75.51,16,3.59,22.21,7.8,44.3,11.35,66.51,5.67,35.48,15.14,70,26.3,104,17.62,53.77,38.52,106.22,67.3,155.18,12.12,20.62,23.65,41.66,36.86,61.56,15.41,23.19,31.95,45.67,48.81,67.85,9.62,12.66,20.84,24.1,31.34,36.09,8.3,9.49,16.49,19.08,25,28.42,4.92,5.42,9.63,11.45,15.62,15.39,11.3,7.44,20,17.51,29.8,26.46,5.87,5.35,12.36,10,18.33,15.26,5.3,4.65,11.3,8.83,14.25,15.17-1.27,1.47-1.66,2.31-2.05,2.31q-77,.4-153.91.69c-5.83-12.68-12-25.23-17.45-38.08-61.29-144.59-116.51-291.57-171.7-438.55-20.58-54.8-41-109.67-60.81-164.75-5.29-14.7-14.23-25.35-27.3-33-6.3-3.68-12.7-7.5-19.52-9.92-19.41-6.9-39-13.16-58.6-19.58-6.19-2-13.37-1.81-17.57-8.11,1.11-3.78,2.61-7.48,3.27-11.33,7.08-40.73,9.24-82,10.93-123.12,3.22-78.47,3.16-157,1.37-235.55a76.78,76.78,0,0,0-8.82-34.48,213.06,213.06,0,0,0-16.94-27c-16.68-22.63-37-41.87-58.3-60-48.81-41.49-101.91-77-156.41-110.36-17-10.41-34.5-19.91-51.78-29.82-2.59-2-5-4.26-7.8-5.85-20.62-11.7-41.15-23.58-62-34.77-17.92-9.61-36.29-18.4-54.46-27.56a88.63,88.63,0,0,1-16.11-26.84c14.27-27,28.23-53.44,42.23-79.86a3.44,3.44,0,0,1,1.46-1.31,16.81,16.81,0,0,1,3.2-.72c2,1,5.16,2.13,7.66,4.1,14.46,11.41,28.88,8.44,42.4-.94a228.61,228.61,0,0,0,30.86-25.21c34.69-34.49,62.94-73.94,87.4-116.19,8.81-15.22,14.39-31.43,15-49.16,3.31-.3,6.61-.69,9.93-.9,16.7-1,28.71-9.4,37.2-23.49,11.09-18.41,16.47-48.59,12.5-71a19,19,0,0,0-3.15-2.4c-54-25.92-107.94-52.14-162.28-77.4-11.28-5.24-24-7.86-36.42-10.07-33.72-6-62,4.77-83.69,31a146.79,146.79,0,0,0-20.27,31.9c-20.67,44.93-29.49,92.36-27.23,141.8-3.67,10-6.64,20.26-11.14,29.83-25.55,54.33-63,98.25-115.24,128.64-13.14,7.64-27.14,13.84-40.75,20.7-23.29,5.18-42.66,17.9-61.37,31.88-29.13,21.75-51.83,49.43-72.54,78.91-41.62,59.24-70.77,124.71-94.78,192.55-13.29,37.54-24.58,75.79-36.77,113.72q-124.8.12-249.61.19c-3.87,0-7.73-.84-11.94-1.33-4.57-11.63-9.13-22.65-13.25-33.83-10.3-28-20.33-56.14-30.61-84.17-13-35.51-26.19-71-39.24-106.44-11-29.89-21.82-59.84-32.86-89.72q-17.25-46.66-34.76-93.24c-8.13-21.74-16-43.6-24.57-65.17-5.61-14.13-16.17-24.54-29.52-31.2-29.83-14.86-62.1-4.76-78.68,24.47-4.24,7.49-8.6,12.07-17.79,13.66-8.54,1.48-16.91,2.91-25.58,2.9q-34.94,0-69.89.14c-4.66,0-9.62-.9-13.92.38C461.79,1601,444.5,1599.17,427.28,1599.18Z"/><path class="cls-2" d="M6055.28,1803.4c3.83-19,1.86-38.67,5.09-57.37,3.76-21.74,0-44,6.51-65.27.95-3.07.33-6.62.44-10,.46-13.91-.86-27.93,3.47-41.6,1.16-3.66.42-7.93.55-11.93.42-13.25-.63-26.57,3.37-39.61,1.32-4.31.5-9.26.67-13.92.46-12.58-.72-25.24,3.27-37.63,1.38-4.27.59-9.25.73-13.9.34-11.27-.67-22.64,3.27-33.61.86-2.41.56-5.27.62-7.93a409.54,409.54,0,0,1,3.41-47.61c3.28-23.58,3.22-47.62,4.9-71.44.93-13.21,2.78-26.35,3.7-39.56.88-12.55-.61-25.21,3.28-37.63,1.54-4.9.67-10.57.84-15.89.33-10.61-.76-21.35,3.24-31.6a13.22,13.22,0,0,0,.49-4c1.48-25.84,2.86-51.68,4.48-77.51.41-6.59,1.55-13.13,2.42-19.69.26-2,.93-3.9,1.06-5.87,1.51-23.84,2.84-47.68,4.48-71.51.54-7.91,1.8-15.76,2.75-23.64.24-2,.7-3.94.82-5.92,1.5-25.17,2.77-50.35,4.49-75.51.85-12.54,2.8-25,3.65-37.56.81-11.9-.43-23.89,3.35-35.62,1.38-4.27.58-9.25.74-13.9.37-11.27-.65-22.62,3.22-33.62,1.06-3,.6-6.6.69-9.92.36-13.27-.67-26.62,3.5-39.6,1-3,.73-6.64.46-9.93-1.86-22.74,2.21-45.21,5-67.45,3.92-31.23,16.33-59.94,34.87-86a195.08,195.08,0,0,1,72-61.57c24.93-12.6,51.68-20.94,80.26-20.78,12.65.08,25.75-1.93,37.87.67,22.29,4.77,45.23.54,67.25,6.59,3.76,1,7.94.54,11.93.69,15.24.59,30.67-1.28,45.56,3.7a5.47,5.47,0,0,0,2,.15c17.39-1.11,34.38,2.48,51.51,4.33,4.51,2.62,8.79,5.79,13.57,7.76,31.46,13,57.22,33.45,78.15,60a239.8,239.8,0,0,1,37,65.65c13.68,37,22.09,74.94,23.24,114.41.27,9.28.7,18.36,2.71,27.65a73.94,73.94,0,0,1-.19,29.67,138.86,138.86,0,0,0-2.5,25.68c-.2,10.65,1.28,21.68-1,31.86-2.38,10.61-1.63,21.21-3.33,31.58a318.13,318.13,0,0,0-4.07,51.52,4.83,4.83,0,0,1-.32,2c-4.25,9.49-3.15,19.58-3.33,29.54-.06,3.32.44,7-.71,9.9-4,10.31-3,21-3.29,31.59-.11,4.65.52,9.69-1,13.85-3.43,9.1-2.71,18.36-2.92,27.64-.11,4.66.79,9.68-.63,13.91-4.17,12.36-3.15,25-3.4,37.58-.08,4,.54,8.34-.82,11.89-3.72,9.69-3,19.64-3.17,29.6-.07,4.66.71,9.7-.78,13.89-3.92,11-2.95,22.33-3.23,33.6-.13,5.32.63,11-1.08,15.85-3.27,9.14-2.69,18.36-2.89,27.65-.11,4.66.79,9.68-.63,13.9-4.17,12.36-3.16,25-3.4,37.59-.08,4,.55,8.34-.82,11.89-4,10.35-2.91,21-3.17,31.6-.1,4,.58,8.33-.73,11.9-4.05,11-3,22.32-3.26,33.59-.09,4.66.77,9.7-.7,13.9-4.1,11.7-3.07,23.66-3.32,35.59-.09,4.66.63,9.72-.92,13.88-3.64,9.74-2.81,19.68-3.06,29.62-.15,6,.9,12.42-.93,17.86-3.52,10.48-2.84,21-3.07,31.63-.12,5.32.82,11-.81,15.89-3.75,11.09-3,22.33-3.19,33.6-.09,4.66.76,9.7-.7,13.9-4.09,11.71-3.07,23.66-3.32,35.6-.1,4.65.63,9.7-.92,13.87-3.63,9.74-2.82,19.67-3.06,29.62-.14,6,.9,12.42-.93,17.87-3.51,10.47-2.84,21-3.07,31.62-.12,5.32.82,11-.81,15.89-3.75,11.09-3,22.33-3.19,33.6-.08,4.66.77,9.7-.7,13.9-4.08,11.71-3.07,23.66-3.32,35.6-.09,4.65.63,9.7-.92,13.87-3.62,9.74-2.83,19.67-3.06,29.62-.14,6,.9,12.41-.92,17.87-3.49,10.47-2.87,21-3.08,31.62-.11,5.33.83,11-.8,15.89-3.74,11.09-3,22.33-3.2,33.61-.08,4.65.77,9.69-.69,13.9-4,11.7-3.12,23.65-3.31,35.59-.07,4,.68,8.31-.57,11.92-4.51,13-3.12,26.32-3.44,39.57-.11,4.66.68,9.71-.84,13.89-3.8,10.39-2.94,21-3.15,31.61-.11,5.32.83,11-.8,15.88-3.75,11.09-3,22.33-3.2,33.61-.09,4.66.76,9.69-.69,13.9-4,11.7-3.1,23.65-3.33,35.59-.09,4.66.63,9.71-.91,13.88-3.6,9.74-2.85,19.67-3.07,29.62-.13,6,.9,12.4-.91,17.86-3.46,10.48-2.89,21-3.09,31.63-.1,5.32.85,11.06-.79,15.88-4,11.75-2.93,23.68-3.2,35.61-.12,5.33.88,11-.73,15.89-3.88,11.75-3.1,23.66-3.28,35.6-.06,4,.68,8.32-.57,11.92-4.5,13-3.15,26.32-3.44,39.58-.11,4.65.68,9.7-.83,13.88-3.79,10.4-3,21-3.16,31.61-.1,5.32.84,11-.79,15.88-3.75,11.09-3,22.34-3.21,33.61-.08,4.66.77,9.69-.68,13.9-4,11.71-3.14,23.65-3.32,35.59-.06,4,.69,8.32-.56,11.93-4.49,13-3.16,26.31-3.45,39.57-.1,4.65.7,9.71-.82,13.88-4.05,11.05-2.88,22.35-3.17,33.61-.12,4.66.73,9.7-.75,13.89-4.14,11.71-2.95,23.67-3.26,35.6-.15,6,.82,12.43-1.07,17.85-3.66,10.49-2.57,21-2.89,31.64h0l-316.1,0c-6.68-2.77-13.58-5.12-20-8.41-18.32-9.37-37.36-16.8-56.81-23.45-30.07-10.29-60.87-17.65-91.88-24.36-23.85-5.16-47.57-11-71.34-16.49,3.74-19,4.66-38.13,4.26-57.4a10.85,10.85,0,0,1,.34-4c4.72-12.86,3.22-26.26,3.55-39.5.12-4.65-.66-9.67.83-13.87,3.92-11.05,2.82-22.33,3.15-33.58.14-4.65-.69-9.66.75-13.88,4-11.7,3-23.65,3.24-35.57.12-5.32-.84-11,.71-15.88,3.94-12.39,3-25,3.32-37.56.1-4-.51-8.31.83-11.87,3.89-10.35,3-21,3.09-31.58.28-23.21,6.14-46.07,4.36-69.42-.14-1.9.91-3.87,1.17-5.83.88-6.54,2-13.08,2.41-19.66,1.56-24.46,1.4-49.14,4.83-73.33,2.25-15.9,3-31.63,3.37-47.52.09-3.31-.15-6.9,1-9.86,3.59-9,2.6-18.34,2.86-27.61.17-6-.94-12.36.77-17.87,3.86-12.42,3-25,3.25-37.57.11-4.65-.78-9.65.61-13.89,4.24-13,3.1-26.3,3.41-39.55.11-4.65-.66-9.67.82-13.87,3.88-11,2.86-22.32,3.17-33.58.13-4.65-.71-9.66.73-13.88,4.24-12.35,2.87-25,3.26-37.56.15-4.65-.73-9.65.66-13.9,4.26-13,3-26.31,3.37-39.54.14-4.65-.63-9.68.87-13.87,3.73-10.39,2.83-21,3.09-31.59.11-4.65-.86-9.65.49-13.91,4.75-15,3.1-30.3,3.56-45.52.13-4-.6-8.29.66-11.9C6056.42,1828.62,6055.33,1816,6055.28,1803.4Z"/><path class="cls-2" d="M3043.17,1568c10-.18,20-.1,30-.61,6.59-.33,13.13-1.54,19.7-2.3,4.6-.53,9.22-1.35,13.84-1.39,17.32-.17,34.66-.26,52,0,5.91.1,11.8,1.41,17.71,2.13,4.6.57,9.28,1.87,13.8,1.47,20.78-1.84,41.27,2,61.45,4.94,36,5.21,72.09,10.74,107.12,21.1,21.65,6.4,43.12,13.42,64.69,20.11,5.58,1.72,11.22,3.24,16.36,4.71,1.56-2.06,3-3.08,3-4.09q.39-595.92.53-1191.83a103,103,0,0,0-1.1-11.09c-6.62-5.35-13.55-3.46-20-3.48q-82-.23-164-.09c-4.67,0-9.39-.51-14,.05-17.35,2.09-38.31-19.09-37.21-36.87.67-10.92,1.49-21.07,8.73-29.9,2-2.45,2.74-5.93,4.07-8.93,16.76-5.75,34.14-4.5,51.39-4.5q260-.1,519.95-.16c8,0,16-.22,24-.34,8.66.18,17.32.51,26,.51q374,0,747.93,0c6,0,12,.15,18,0,10-.28,18,4,25,10.67,8.18,7.83,11.7,17.17,11.58,28.63-.26,24.91-14.49,40.19-39,40.79-4.66.11-9.33,0-14,0-44,0-88-.06-132,.08-5.79,0-12.07-1.64-17.82,3.42-2.54,7.18-1.37,15.22-1.37,23.08q-.09,644.94-.05,1289.89c0,6,.12,12,.14,18a13.83,13.83,0,0,0,6.18,11.87c-3.71,1.4-7.55,2.51-11.09,4.25-18.13,8.88-29,23.55-29.95,43.58-1,19.83,7.36,36,24.82,46.65,3.36,2,6.78,4,10.17,6l-.09,169.49a89,89,0,0,1-2.51,9.5c-9,23.51-17.95,47-27.16,70.42-3.14,8-7,15.7-10.45,23.54-10.69-4.32-21.26-.06-31.89.39q0-314,0-628c0-10.59-.85-21.17,2.62-31.67,2.14-6.5-2.27-11.5-9.51-12.14-6-.52-12-.35-18-.35h-804c-4.67,0-9.35-.21-14,.1-3.8.26-7.55,1.15-12.21,1.91-.39,6.82-1,12.68-1,18.54q-.12,76,0,152c0,3.34.1,6.67,0,10-.15,7.56,3.78,12.64,10.07,16,11.12,5.9,22.61,11.12,33.54,17.33,21.38,12.14,43,24,63.56,37.4,27.76,18.16,55.34,36.68,79.93,59.27,17.58,16.16,36.54,30.81,54.06,47,16.09,14.89,30.21,31.77,45.06,47.91,22.57,24.53,42.91,50.66,62.14,77.7,20.43,28.73,38.5,58.92,55.71,89.77,15.62,28,28.66,57,40.66,86.54,4.39,10.82,10.85,16.24,22.74,14.64,3.93-.52,8-.08,12-.08q170,0,340,0c8.64,0,17.28.69,25.93,1.06-14.23,10.42-23.64,24.22-29.24,40.87-1.66,4.91-4.3,9.49-6.49,14.22-3.33-.11-6.66-.32-10-.33q-155,0-309.95,0a49.44,49.44,0,0,0-8,.16,67.42,67.42,0,0,0-8.19,2.3c-.39,2.85-1,4.24-.68,5.42,7,28.29,14.6,56.47,21.17,84.87,4,17.39,7.8,35,9.44,52.74,2,21.09,6.54,42.07,4.64,63.47a17.32,17.32,0,0,0,.88,7.89c3.44,8.32,3.07,17,2.81,25.63-.79,26.53,1.49,53-3.22,79.61-3.09,17.44-1.65,35.58-4,53.49-3,23-7.18,45.76-10.88,68.6s-10.43,45.15-16.73,67.52a827.91,827.91,0,0,1-37.35,105.06c-6.61,15.25-13.86,30.22-20.51,45.46-1.46,3.35-1.62,7.28-2.32,10.62,7.13,4.81,14,3,20.43,3.1,32,.37,64,.5,96,.71q-10.59,25.71-21.16,51.41l-43.95,0c-14,0-28-.05-41.94,0-14.55.07-29.1.26-42.09.39-15.51,22.38-29.32,43.5-44.35,63.71-23.36,31.4-47.42,62.27-75.52,89.73-12.38,12.1-24.5,24.47-36.78,36.67-6.13,6.1-11.79,12.88-18.67,18-22.29,16.66-42.89,35.37-65.84,51.31-33.31,23.13-66.53,46.2-103,64.21-10.15,5-20.12,10.38-30.36,15.18-6.92,3.25-9.78,8.29-9.62,15.81.25,12-.15,24,.11,35.95.18,8.15-.78,15.84-4.93,23.07-1.62,2.81-2.19,6.21-3.24,9.34h-51.91c-6.69-14.42-9.09-29.84-9.13-45-2.7-.9-4-1.79-5.15-1.62a44.87,44.87,0,0,0-7.6,1.95c-42.61,13.79-85.35,27-129.77,34.07-7.22,1.15-16.17,2.11-20.34,10.57-4,.22-7.95.65-11.93.65q-298.8,0-597.61,0c-6,0-11.95-.6-17.92-.91-.63-8.26-1.78-16.37-7-23.23-2.71-9.39-9.9-13.55-18.61-15.92-9.56-2.6-19.18-5-28.69-7.81-19.88-5.82-38.38-14.63-54.23-28.06-28.86-24.47-60.9-44.36-92.48-64.91-3.71-2.42-8.25-3.54-12.41-5.27-10.4-12.31-15.93-27.15-21.75-41.84q77-.32,153.91-.69c.39,0,.78-.84,2.05-2.31-3-6.34-9-10.52-14.25-15.17-6-5.24-12.46-9.91-18.33-15.26-9.81-8.95-18.5-19-29.8-26.46-6-3.94-10.7-10-15.62-15.39-8.47-9.34-16.66-18.93-25-28.42-10.5-12-21.72-23.43-31.34-36.09-16.86-22.18-33.4-44.66-48.81-67.85-13.21-19.9-24.74-40.94-36.86-61.56-28.78-49-49.68-101.41-67.3-155.18-11.16-34-20.63-68.56-26.3-104-3.55-22.21-7.76-44.3-11.35-66.51-.84-5.21-.06-10.66-.51-16-.68-7.9-1.9-15.75-2.67-23.64-.58-5.94-1.12-11.92-1.15-17.89-.13-25.32-.2-50.65,0-76,.1-13.92-1.41-28,3.37-41.58.85-2.41.51-5.28.48-7.94-.2-19.35,4.87-38.07,6.73-57.11,3.39-34.58,12.62-67.79,21.63-101,10.09-37.19,22.13-73.87,38.23-109,10.53-23,21-46,32.49-68.53,8.76-17.13,19-33.49,28.78-50.12a685.3,685.3,0,0,1,51.86-75.47c10.61-13.59,22.54-26.15,33-39.86,19-25.07,42.51-45.87,64.6-68a482.2,482.2,0,0,1,38.71-34.4c30-24.15,60.72-47.36,93.59-67.58,34.55-21.24,69.41-41.66,106.78-58,27.45-12,55-23.59,83.26-33.31a830.71,830.71,0,0,1,125.11-32.2c19.57-3.48,39.08-7.12,59-8q.09,24.3.16,48.6c-7.32.06-14.79-.82-21.93.35-22.19,3.65-44.51,7-66.32,12.4-51.64,12.73-102.39,28.68-150.74,50.93-53.79,24.75-106.3,52.1-153.46,88.46-22.05,17-45.07,33.08-65.16,52.2-31.77,30.23-64.26,60-91.4,94.72-12.65,16.2-25.43,32.32-37.31,49.07-18.46,26-34.74,53.39-50.75,81-21.45,37-38.53,75.85-53,115.85-12.83,35.54-24.68,71.44-31.33,108.91-5.67,31.91-13.71,63.4-14.6,96a73.54,73.54,0,0,1-1.15,7.87c-.89,6.54-2.67,13.11-2.48,19.63,1.34,47.14-4,94.41,3.47,141.46,1.86,11.68,2.1,23.67,3.47,35.51,2.77,23.8,7.75,47,13.11,70.23,15,64.93,36.19,127.71,67.5,186.81,7.48,14.11,13.49,29.1,21.9,42.61,20.34,32.68,40.88,65.17,64.63,95.68,17.16,22,36.17,42.35,54,63.73,21.76,26.09,49.27,46.51,73.72,70a48.84,48.84,0,0,0,4.76,3.62c14.3,10.75,28.83,21.22,42.85,32.33,10.8,8.56,22.12,12.76,36.42,12.7,123.9-.49,247.81-.27,371.72-.3,8,0,16-.23,24-.36,4.31,10.24,10.5,17.67,23.08,16.84,10.72-.71,15.75-7.7,19.53-16.41,38,0,76,.21,114-.15,18.44-.17,35.83,3.57,51.51,13,30.93,18.54,51.29,43.85,50.43,82.21-.17,7.74-2.09,16,2.42,23.16,13.82,5.15,24.82-4,36.86-6.54,12.93-2.78,25.45-7.54,38.05-11.72,11.85-3.94,24.36-6.62,34.43-16.22v-19.92q0-760.76,0-1521.52,0-7-.08-14c-.08-5.92-2.85-10.15-8.31-12.46-3.66-1.55-7.37-3-11.13-4.33-38.86-13.6-77.92-26.73-118.49-34.15-34.48-6.31-68.85-14.13-104.26-13.58-3.32,0-7,.34-9.9-.83-9.67-3.85-19.68-2.93-29.62-3-20.66-.11-41.32,0-62,0l-12.15,0c-14.34,5.11-29.25,3.92-44,4ZM4367.54,730c-10.47-3.48-18.48-2.46-26.34-2.46q-401.83-.07-803.68,0c-4.67,0-9.37-.34-14,.15-3.72.39-7.35,1.79-12,3v24.62q0,309.89,0,619.76c0,5.33-.29,10.69.14,16,.3,3.76,1.57,7.44,2.64,12.16,8.7.12,16.62.32,24.54.32q400.84,0,801.69,0c4.66,0,9.35.24,14-.12,3.79-.28,7.52-1.3,11.74-2.08.5-4.82,1.25-8.71,1.25-12.59C4367.55,1169.55,4367.54,950.37,4367.54,730Zm-853.69,1458.1c-3.36,9.56-2.31,17.58-2.31,25.42q-.09,312,0,623.95c0,4.67-.34,9.38.15,14,.4,3.72,1.81,7.33,3,12H3849.3c3.34,0,6.69-.22,10,0,8.33.64,13.54-2.88,17.4-10.41,19.11-37.35,36.85-75.28,50.56-115,8.45-24.48,15.83-49.27,22.4-74.36,8.07-30.83,13.72-62,18.07-93.51,1.91-13.82,2.36-27.86,4.79-41.41a184,184,0,0,0,2.79-37.64c-1-37.18,3.57-74.56-3.74-111.53a13.66,13.66,0,0,1-.06-4c1.74-17.46-2.25-34.59-5.15-51.39a1073.38,1073.38,0,0,0-28-122c-1.46-4.92-4.17-9.47-6.28-14.15Zm851-1514.49c7.58-7,6.41-16.6,6.41-25.83q0-106,0-211.94c0-4.66.21-9.37-.37-14-1.28-10.1-5.52-13.86-15.54-14.25-4.66-.19-9.33-.06-14-.06H3537.65c-4.66,0-9.36-.32-14,.15-3.74.38-7.39,1.72-12.18,2.91V577.17c0,27.32,0,54.65.07,82,0,5.16-1.23,10.82,3.63,14.85C3533.77,676.2,4348.7,675.91,4364.9,673.62Zm-455.71,1456.3c.13-2.74.67-4.25.17-5.25-14.78-29.82-28.78-60.06-44.79-89.21-14-25.57-30.25-49.89-47.49-73.57-21.12-29-43.57-56.85-68.24-82.89-9.16-9.67-19.07-18.63-28.13-28.4-22.24-24-48.09-43.87-73.37-64.29-24.76-20-51.69-37.21-78.76-54-14.66-9.09-30.21-16.78-45.47-24.88-2.69-1.43-5.94-1.81-9.21-2.76-4,8.11-2.31,15.53-2.32,22.63q-.18,188.88-.08,377.74c0,4.66-.29,9.36.13,14,.35,3.77,1.56,7.45,2.31,10.79C3531.22,2132.18,3891,2132.25,3909.19,2129.92ZM3835,2917.51c-9.12-2.84-16.44-1.93-23.62-1.93q-137-.09-274,0c-4.67,0-9.37-.33-14,.16-3.72.4-7.33,1.81-12,3v22.64q0,108,0,216c0,13.33-.12,26.66.15,40,.06,2.91,1.52,5.8,2.5,9.28,72.75-36,135.88-83,194.95-135.9,30.34-27.19,55.77-58.79,82.13-89.51,14.65-17.07,27.05-36.08,40.3-54.34C3833,2924.86,3833.38,2922.07,3835,2917.51Z"/><path class="cls-1" d="M4445.74,1753.91a13.86,13.86,0,0,1-6.18-11.88c0-6-.14-12-.14-18q0-645,.05-1289.89c0-7.86-1.17-15.9,1.37-23.08,5.75-5.06,12-3.4,17.82-3.42,44-.14,88-.08,132-.08,4.67,0,9.34.08,14,0,24.55-.6,38.78-15.88,39-40.79.12-11.46-3.4-20.8-11.58-28.63-7-6.71-15-10.95-25-10.67-6,.16-12,0-18,0q-374,0-747.93,0c-8.66,0-17.32-.33-26-.51.85-3.39,2.35-6.6,6.15-6.92,6-.5,12-.1,18-.57,7.24-.56,14.44-1.61,21.66-2.47,3.94-.47,7.87-1.26,11.83-1.38a301.51,301.51,0,0,0,37.57-3.29c21.52-3.35,43.56-3.27,65.37-4.85,7.24-.53,14.43-1.7,21.63-2.64,2-.25,3.95-1.22,5.85-1.05,24.05,2.19,47.48-5.25,71.48-4.45,7.82.26,15.69-2,23.58-2.72,6.6-.62,13.26-.84,19.9-1.06,14.56-.48,29.26,1.48,43.55-3.48,3.6-1.25,7.93-.5,11.92-.51,14,0,28,0,42,0,4,0,8.27.8,11.94-.32,19.61-6,39.67-3.44,59.53-3.55,61.31-.31,122.63-.13,183.94-.08,9.28,0,18.44-.18,27.65,2.75,6.12,2,13.19,1,19.83,1.2,15.88.58,32-2,47.5,3.7a4.4,4.4,0,0,0,2,.15c20.08-2.3,39.54,3.77,59.45,4.55,15.74.61,31.36,4.36,47,6.72,10.46,1.58,21,2.64,31.47,4.17,49.86,7.3,98.92,18.15,147.83,30,7,1.69,14.37,1.88,21.57,2.76.12,21.24,7.76,38.21,27.42,48.39a7.48,7.48,0,0,1,1.44,1.33c-1.62,2.86-3.67,5.55-4.8,8.58-6.13,16.42-7.66,33.62-6.59,50.87,2,32.37,4.41,64.75,11.13,96.57,4,18.8,8.74,37.42,16.56,55.07,9.89,22.3,18.31,27.56,42.78,27,6.63-.15,13.25-.76,19.87-.68,3.9,0,7.78,1,11.67,1.62,6.27,20.56,13.81,40.58,25,59.08,5,11.94,9.95,23.88,15.13,36.31l-10.81,15.7c-2.5,2.06-5.76,3.65-7.4,6.26-21.51,34.3-41.94,69.16-54.77,107.91-7.09,21.41-12.75,42.95-16,65.45-3.7,25.91-3.41,51.69-1.46,77.35,1.09,14.46,3.18,28.92,3.68,43.49-4.4,9-8.93,17.87-13.18,26.89-18.71,39.75-37.06,79.67-56.06,119.27q-49.23,102.61-99.27,204.83a217.68,217.68,0,0,1-23.43,37q-99.2,127.82-199,255.16c-6.33,8.12-13.2,13.8-23.88,16.21-29.53,6.67-48.17,24.4-51.62,55.72C4470.1,1754.9,4458.31,1751.55,4445.74,1753.91Z"/><path class="cls-2" d="M427.28,1599.18c17.22,0,34.51,1.84,51.5-3.22,4.3-1.28,9.26-.37,13.92-.38q34.95-.11,69.89-.14c8.67,0,17-1.42,25.58-2.9,9.19-1.59,13.55-6.17,17.79-13.66,16.58-29.23,48.85-39.33,78.68-24.47,13.35,6.66,23.91,17.07,29.52,31.2,8.57,21.57,16.44,43.43,24.57,65.17q17.41,46.6,34.76,93.24c11,29.88,21.87,59.83,32.86,89.72,13,35.49,26.23,70.93,39.24,106.44,10.28,28,20.31,56.15,30.61,84.17,4.12,11.18,8.68,22.2,13.25,33.83,4.21.49,8.07,1.33,11.94,1.33q124.81,0,249.61-.19-7.11,24.19-14.23,48.38-111.55.15-223.12.36c-1.17,0-2.34,1.06-4.55,2.13,1.07,4.74,1.72,9.92,3.44,14.72,4.43,12.31,7.35,14.42,20.39,14.52,24.57.19,49.15,0,73.72.08q60.75.18,121.51.48c-1.23,16.91-8.51,32.09-13.67,47.87-86-2.2-158.13-1.27-173.83,2.4-.16,3-1.32,6.56-.36,9.4,5.33,15.7,11.09,31.26,16.88,46.8,12.5,33.57,24.82,67.2,37.77,100.59,9.59,24.72,16.3,50.57,28.91,74.11-1.1,3.8-1.86,7.72-3.35,11.35-6.81,16.63-13.88,33.15-20.75,49.76A394.21,394.21,0,0,0,970.89,2600c-.45,5.21-2.09,10.32-3.17,15.48-2.71-4.42-5.91-8.63-8-13.33-2.4-5.44-3.62-11.38-5.69-17q-27.22-73.8-54.57-147.57c-6.21-16.82-12.14-33.74-18.43-50.52-10.71-28.6-21.85-57-32.39-85.7-11.68-31.78-22.77-63.77-34.44-95.55-2.24-6.1-6-11.66-9.42-18.31H676.48q-82.93,0-165.85.09c-5.69,0-11.92-1.81-18,3.55,2,6.5,3.88,13.43,6.3,20.17q14.77,41.24,29.86,82.37,27.18,73.83,54.58,147.57c6.21,16.82,12.16,33.73,18.38,50.54,11.51,31.13,23.2,62.19,34.69,93.33,7.12,19.31,13.89,38.76,21,58.06,11.74,31.75,23.74,63.41,35.47,95.17,10.81,29.27,21.33,58.65,32.11,87.93,13.54,36.75,27.24,73.45,40.82,110.19,5.3,14.32,10.43,28.7,15.72,43q25.21,68.19,50.42,136.37c1.58,4.31,2.27,8.94,3.37,13.43-3.89.76-7.77,1.54-11.67,2.28-26.27,5-48.78,17-66.58,37-46.61,52.48-34.16,125.78,15.94,161,4.31,3,8.44,6.32,12.65,9.49-6,.15-12,.41-17.92.42q-176.26,0-352.53,0c-4,0-7.92-.45-11.88-.7-5.4-3.85-10.78-7.72-16.19-11.55-15.13-10.73-26.05-24.86-31.74-42.37-3.65-11.27-7.26-23.16-7.42-34.82A95.65,95.65,0,0,1,362.39,3199c19.82-32.62,50.39-46.63,87.09-47.08,64.63-.8,129.28-.22,193.92-.23,18.66,0,37.32.08,56,0,4.52,0,9-.76,14.86-1.29-1-4.1-1.51-7.24-2.58-10.17q-17.85-48.68-35.87-97.28c-20.8-56.08-41.75-112.1-62.46-168.21-11.51-31.17-22.55-62.52-34-93.7-16.31-44.27-32.9-88.44-49.26-132.7-11.52-31.17-22.78-62.43-34.28-93.61-16.56-44.89-33.28-89.72-49.83-134.61-11.5-31.18-22.75-62.45-34.25-93.63-11-29.92-22.34-59.75-33.4-89.67-10.82-29.3-21.42-58.68-32.25-88-17.52-47.37-35.22-94.68-52.68-142.07-11.49-31.18-22.55-62.52-34-93.7C243,1868.74,226.4,1824.56,210,1780.3q-17.28-46.74-34.26-93.61c-6.82-18.74-13-37.71-20.32-56.26-9-23-2.64-43,10.22-62.11a29.16,29.16,0,0,1,8.75-8c21.85-13.54,44.14-17.17,67.79-3.72,10.86,6.18,19.42,13.88,24.37,25.36,2.1,4.88,3.82,9.93,5.93,14.81a10.32,10.32,0,0,0,9.24,6.57c4,.26,8,.27,12,.26q24-.07,48-.24c2.67,0,5.45.42,8-.18C375.33,1597.05,401.44,1600.82,427.28,1599.18Zm46.38,539c3.62.43,7.5,1.3,11.39,1.29q148.74-.21,297.47-.7c1,0,2-1.48,3.91-2.92-.18-2,.11-4.65-.73-6.94q-27.06-73.82-54.35-147.55c-8.06-21.78-16.32-43.48-24.38-65.25-1.79-4.85-4.86-8.19-10.07-8.24-10-.1-20.26-1.18-29.8.93-9.27,2-18.34,2.54-27.62,2.78-5.31.14-11-.71-15.85.94-9.78,3.35-19.66,2.83-29.59,3.06-4.66.11-9.67-.65-13.88.82-10.38,3.61-21,2.94-31.57,3.2-4.65.12-9.66-.47-13.84,1.06-9.1,3.32-18.36,2.4-27.61,3-7.24.45-14.42,1.7-21.63,2.52-4.61.52-9.22,1-13.84,1.32-23.77,1.64-47.55,3.19-71.31,4.93-1,.07-1.84,1.61-3.45,3.12a63.91,63.91,0,0,0,1.81,7q35.19,94.14,70.53,188.21C470.17,2133.11,471.92,2135.24,473.66,2138.13Z"/><path class="cls-3" d="M6535.45,2839.52c.32-10.59-.77-21.15,2.89-31.64,1.89-5.42.92-11.86,1.07-17.85.31-11.93-.88-23.89,3.26-35.6,1.48-4.19.63-9.23.75-13.89.29-11.26-.88-22.56,3.17-33.61,1.52-4.17.72-9.23.82-13.88.29-13.26-1-26.59,3.45-39.57,1.25-3.61.5-7.93.56-11.93.18-11.94-.68-23.88,3.32-35.59,1.45-4.21.6-9.24.68-13.9.19-11.27-.54-22.52,3.21-33.61,1.63-4.83.69-10.56.79-15.88.19-10.61-.63-21.21,3.16-31.61,1.51-4.18.72-9.23.83-13.88.29-13.26-1.06-26.6,3.44-39.58,1.25-3.6.51-7.92.57-11.92.18-11.94-.6-23.85,3.28-35.6,1.61-4.84.61-10.56.73-15.89.27-11.93-.79-23.86,3.2-35.61,1.64-4.82.69-10.56.79-15.88.2-10.61-.37-21.15,3.09-31.63,1.81-5.46.78-11.88.91-17.86.22-10-.53-19.88,3.07-29.62,1.54-4.17.82-9.22.91-13.88.23-11.94-.71-23.89,3.33-35.59,1.45-4.21.6-9.24.69-13.9.2-11.28-.55-22.52,3.2-33.61,1.63-4.83.69-10.56.8-15.88.21-10.62-.65-21.22,3.15-31.61,1.52-4.18.73-9.23.84-13.89.32-13.25-1.07-26.59,3.44-39.57,1.25-3.61.5-7.93.57-11.92.19-11.94-.74-23.89,3.31-35.59,1.46-4.21.61-9.25.69-13.9.19-11.28-.54-22.52,3.2-33.61,1.63-4.84.69-10.56.8-15.89.21-10.61-.41-21.15,3.08-31.62,1.82-5.46.78-11.88.92-17.87.23-10-.56-19.88,3.06-29.62,1.55-4.17.83-9.22.92-13.87.25-11.94-.76-23.89,3.32-35.6,1.47-4.2.62-9.24.7-13.9.19-11.27-.56-22.51,3.19-33.6,1.63-4.84.69-10.57.81-15.89.23-10.61-.44-21.15,3.07-31.62,1.83-5.45.79-11.88.93-17.87.24-10-.57-19.88,3.06-29.62,1.55-4.17.82-9.22.92-13.87.25-11.94-.77-23.89,3.32-35.6,1.46-4.2.61-9.24.7-13.9.21-11.27-.56-22.51,3.19-33.6,1.63-4.84.69-10.57.81-15.89.23-10.61-.45-21.15,3.07-31.63,1.83-5.44.78-11.87.93-17.86.25-9.94-.58-19.88,3.06-29.62,1.55-4.16.83-9.22.92-13.88.25-11.93-.78-23.89,3.32-35.59,1.47-4.2.61-9.24.7-13.9.23-11.27-.79-22.58,3.26-33.59,1.31-3.57.63-7.91.73-11.9.26-10.6-.82-21.25,3.17-31.6,1.37-3.55.74-7.9.82-11.89.24-12.6-.77-25.23,3.4-37.59,1.42-4.22.52-9.24.63-13.9.2-9.29-.38-18.51,2.89-27.65,1.71-4.8,1-10.53,1.08-15.85.28-11.27-.69-22.55,3.23-33.6,1.49-4.19.71-9.23.78-13.89.16-10-.55-19.91,3.17-29.6,1.36-3.55.74-7.9.82-11.89.25-12.6-.77-25.22,3.4-37.58,1.42-4.23.52-9.25.63-13.91.21-9.28-.51-18.54,2.92-27.64,1.57-4.16.94-9.2,1-13.85.24-10.62-.72-21.28,3.29-31.59,1.15-3,.65-6.58.71-9.9.18-10-.92-20,3.33-29.54a4.83,4.83,0,0,0,.32-2,318.13,318.13,0,0,1,4.07-51.52c1.7-10.37.95-21,3.33-31.58,2.29-10.18.81-21.21,1-31.86a138.86,138.86,0,0,1,2.5-25.68,73.94,73.94,0,0,0,.19-29.67c-2-9.29-2.44-18.37-2.71-27.65-1.15-39.47-9.56-77.42-23.24-114.41a239.8,239.8,0,0,0-37-65.65c-20.93-26.52-46.69-47-78.15-60-4.78-2-9.06-5.14-13.57-7.76,26.47,1.46,53.08,1.73,79.36,4.8,15.9,1.86,32.11.94,47.57,3.91,23.69,4.55,47.8,1.24,71.41,6.33,10.87,2.34,22.32,2.08,33.46,4.54A187,187,0,0,1,6851.4,596c23,17.16,43.14,37.58,56.35,63.81,8.69,17.26,17.91,34.29,20.83,53.74,2.83,18.87,8.23,37.61,3.41,57a22.89,22.89,0,0,0-.23,4c-1.53,26.52-2.69,53.08-4.73,79.57-1.82,23.79-4.62,47.51-7,71.26-.07.67-.16,1.33-.2,2-1.54,24.53-2.75,49.08-4.7,73.58-1.9,23.79-4.54,47.52-6.86,71.27-.13,1.33-.33,2.65-.41,4-1.56,25.86-1.82,51.88-5,77.54-3.12,25.06-1.47,50.49-6.78,75.3a14.66,14.66,0,0,0-.24,2c-1.52,23.87-2.3,47.81-4.78,71.57-2.54,24.41-2.24,49.07-6.73,73.29a30.92,30.92,0,0,0-.45,4c-1.55,25.19-2.07,50.5-4.91,75.54-2.77,24.41-1.85,49.12-6.75,73.3a29.32,29.32,0,0,0-.39,4c-1.55,25.86-2.75,51.75-4.74,77.58-1.79,23.13-4.46,46.19-6.74,69.28-.13,1.32-.39,2.64-.47,4-1.53,24.52-2,49.18-4.87,73.54-3,25.06-1.77,50.46-6.76,75.3a29.2,29.2,0,0,0-.42,4c-1.55,25.86-2.75,51.75-4.74,77.58-1.79,23.13-4.44,46.19-6.72,69.28-.13,1.33-.39,2.64-.47,4-1.55,24.53-2.34,49.13-4.82,73.56-2.54,25.08-2.21,50.41-6.8,75.29a32.78,32.78,0,0,0-.43,4c-1.56,25.86-2.78,51.75-4.76,77.57-1.78,23.14-4.4,46.2-6.62,69.3-.38,4-.69,8-.84,11.94-.57,14.6-1.12,29.09-3.32,43.68-3,20.29-3.54,41-4.74,61.53-1.74,29.82-3.42,59.63-7.51,89.24-.09.66-.18,1.32-.22,2-1.54,24.53-1.69,49.25-5,73.54-3.38,25.06-1.27,50.51-6.63,75.32a26.19,26.19,0,0,0-.42,4c-1.55,25.19-2.73,50.41-4.73,75.57-1.84,23.13-5.1,46.15-6.69,69.28-1,15.23-.27,30.58-.3,45.88-7.28.22-14.56.61-21.84.62Q6642.86,2839.46,6535.45,2839.52Z"/><path class="cls-1" d="M6055.28,1803.4c.05,12.6,1.14,25.22-3.13,37.54-1.26,3.61-.53,7.92-.66,11.9-.46,15.22,1.19,30.54-3.56,45.52-1.35,4.26-.38,9.26-.49,13.91-.26,10.6.64,21.2-3.09,31.59-1.5,4.19-.73,9.22-.87,13.87-.37,13.23.89,26.53-3.37,39.54-1.39,4.25-.51,9.25-.66,13.9-.39,12.57,1,25.21-3.26,37.56-1.44,4.22-.6,9.23-.73,13.88-.31,11.26.71,22.54-3.17,33.58-1.48,4.2-.71,9.22-.82,13.87-.31,13.25.83,26.54-3.41,39.55-1.39,4.24-.5,9.24-.61,13.89-.29,12.58.61,25.15-3.25,37.57-1.71,5.51-.6,11.89-.77,17.87-.26,9.27.73,18.6-2.86,27.61-1.18,3-.94,6.55-1,9.86-.39,15.89-1.12,31.62-3.37,47.52-3.43,24.19-3.27,48.87-4.83,73.33-.42,6.58-1.53,13.12-2.41,19.66-.26,2-1.31,3.93-1.17,5.83,1.78,23.35-4.08,46.21-4.36,69.42-.13,10.59.8,21.23-3.09,31.58-1.34,3.56-.73,7.89-.83,11.87-.3,12.58.62,25.17-3.32,37.56-1.55,4.88-.59,10.56-.71,15.88-.28,11.92.74,23.87-3.24,35.57-1.44,4.22-.61,9.23-.75,13.88-.33,11.25.77,22.53-3.15,33.58-1.49,4.2-.71,9.22-.83,13.87-.33,13.24,1.17,26.64-3.55,39.5a10.85,10.85,0,0,0-.34,4c.4,19.27-.52,38.44-4.26,57.4q-86.53-18.89-173.06-37.81c-42.79-9.45-85.49-19.32-128.28-28.75-9.68-2.14-19.58-3.23-29.38-4.8l-5.16-4.93-3.87-3.1c-24.19-18.76-48.14-37.87-69.24-60.12-46.23-48.74-83.1-103.66-108.34-166.17-24.92-61.73-38.1-125.78-38.77-192.36a503.42,503.42,0,0,1,3.27-61.7c3.47-30.5,8.94-60.53,17.95-89.79,13.68-44.48,28.11-88.73,42.33-133,1.41-4.39,3.48-8.57,5.25-12.85,28,9.8,56.82,14.33,86.46,12,44.51-3.51,78.29-23.65,98.78-64.36,6.65-13.22,7.26-27,4.75-40.9s-10.51-20.64-24.85-21.43c-6.61-.36-13.29.44-19.93.92-10.62.77-21.23,1.73-31.84,2.6,18.45-23.45,32.9-49,40-78.21,2.78-11.45,4.91-23.06,7.33-34.59,14.47,1.63,29.06,2.52,43.36,5.08,18.26,3.28,36.89,3.88,55,7.41,17.63,3.45,35.69,2,53.13,6.79,10.13,2.8,20.91,1,31.55,3.63,14.66,3.56,30.2,3.37,45.31,5.24,16.39,2,32.7,4.61,49.06,6.89,12.45,1.73,25,3.08,37.36,5.1,26.11,4.25,52.16,8.81,78.22,13.32C6048.93,1801.45,6052.09,1802.55,6055.28,1803.4Z"/><path class="cls-4" d="M5652.72,1747.42c-2.42,11.53-4.55,23.14-7.33,34.59-7.09,29.23-21.54,54.76-40,78.21-19.14,18.33-40.07,34.39-62.1,49.09-14.82,9.88-29.34,20.19-44,30.31-3.7,1.26-7.7,2-11.05,3.85-21.85,12.25-43.55,24.75-65.31,37.17l-23.2,14.89c-4.42,1.08-9.17,1.46-13.19,3.37-8.4,4-16.25,9.09-24.6,13.17-40.66,19.87-81.45,39.48-122.12,59.33-23.34,11.39-46.2,23.85-69.9,34.44-44.4,19.82-87.8,41.48-130.06,65.5-8.3,4.72-12.26,10.91-12.64,20.79-.68,17.86-2.72,35.66-4.23,53.48-.12,1.31-.69,2.57-.86,3.88-.93,7.2-1.79,14.41-2.68,21.62-.43,5.94-.6,11.9-1.35,17.8-3.16,24.87-7.55,49.62-7.21,74.84-1.11,2.31-3,4.57-3.19,6.95-1.27,17.74-4.25,35.21-7.35,52.71-2.52,14.22-3.41,28.74-5,43.12l-19.86,123.53q-3.63,22.5-7.27,45c-1.43,5.79-3.15,11.52-4.25,17.37-12.71,67.74-28.22,134.82-47,201.14-.89,3.14-.89,6.53-1.3,9.8-1.2,1.49-3,2.79-3.51,4.48-5.11,17.35-10.12,34.73-14.85,52.18-1.17,4.31-1.22,8.91-1.79,13.38l-7.54,1.37c-24.56,2.72-48.52-1.06-72.33-6.59l-18.86-6.68q-7.11-27.09-14.2-54.2a36,36,0,0,0,0-6c-9-59.11-13.93-118.67-18-178.24-4.39-64.23-6.59-128.62-9.92-192.93-.85-16.54-2.37-33.06-3.59-49.59q-.19-76.89-.4-153.79c.5-21.77,1.1-43.54,1.45-65.31.14-8.54-.29-17.1-.46-25.65,5-5.7,3.28-12.68,3.28-19.14,0-28.61,4-56.85,7.48-85.15,9.16-52.76,12.87-54.52,46.17-87.09.95-.93,1.89-1.86,2.87-2.76a1394.11,1394.11,0,0,1,120.22-98.53c71.71-52.76,144.12-104.58,216.24-156.79,5.71-3.32,11.29-6.9,17.17-9.9q63.15-32.3,126.4-64.36c46.36-23.45,92.83-46.68,139.19-70.13,5.88-3,11.37-6.73,17.05-10.12,6.63-2.83,13.44-5.34,19.88-8.56,40.73-20.33,81.36-40.88,122.1-61.2,5.84-2.92,12.09-5,18.16-7.54,2.39,3.87,5.43,7.47,7.07,11.63,21.82,55.2,36,112.22,38.92,171.65C5654.7,1714.31,5653.18,1730.89,5652.72,1747.42Z"/><path class="cls-5" d="M403.39,3338.88c4,.25,7.92.7,11.88.7q176.27,0,352.53,0c6,0,11.94-.27,17.91-.42l30-.27,100.27,0,49.9-.13,33.67.27,104.5-.15c6,.26,11.94.74,17.9.74q179.43.06,358.85,0c6,0,11.92-.49,17.89-.76,4,.28,7.91.81,11.86.81q105.36.07,210.7,0c4.62,0,9.24-.55,13.86-.84,7.29.27,14.59.76,21.88.77q62.79.12,125.58,0c15.94,0,31.88-.42,47.81-.63q82.81.22,165.66.32c3,0,6.1-1.82,9.16-2.79,3.28-.08,7-1.19,9.78-.07,9.59,3.83,19.49,3.12,29.36,3.12q63.48,0,127-.08l15.2-.69,28.29-.1c52.13.23,104.26.5,156.39.54,2.25,0,4.5-2.06,6.75-3.16,7.15,1.16,14.3,3.31,21.46,3.32,45.88.1,91.76-.28,137.65-.5l15-.2c6,.31,11.95.9,17.92.91q298.8.08,597.61,0c4,0,8-.43,11.93-.65,27.68.23,55.35.66,83,.66,29.65,0,59.31-.42,89-.65h51.91a56.83,56.83,0,0,0,5.92.61q129.24-.06,258.48-.18l84.52-.38,146.49.1,84.56.21c3.31.11,6.62.31,9.93.31q137.09,0,274.17,0c4,0,7.92-.46,11.87-.7l48.31-.06c6.64.26,13.28.76,19.92.76q290.73.06,581.46,0c7.32,0,14.64-.47,21.95-.72,3.3.25,6.61.7,9.91.7q541.23,0,1082.47-.08c6.65,0,13.29-.38,19.93-.59,6.63.22,13.27.64,19.91.64q241.28.06,482.54,0c6,0,12-.32,17.93-.49,33.82.16,67.64.43,101.46.44,19.18,0,38.37-.44,57.56-.69,8,.28,16,.79,23.95.79q191,.08,382,0c5.33,0,10.68-.18,16,.14,8.52.51,13.78,4.76,14.26,11,.51,6.71-5.5,11.52-15.23,12.1-2.66.16-5.33,0-8,0H36c-5.34,0-10.67,0-16,0a70.82,70.82,0,0,1-8-.19C5.1,3362,.15,3357.24,0,3351.6s4.66-11,11.48-11.6c6-.55,12-.35,18-.35q176,0,352-.05C388.76,3339.6,396.08,3339.13,403.39,3338.88Z"/><path class="cls-6" d="M4948.24,1043.77c-.5-14.57-2.59-29-3.68-43.49-2-25.66-2.24-51.44,1.46-77.35,3.21-22.5,8.87-44,16-65.45,12.83-38.75,33.26-73.61,54.77-107.91,1.64-2.61,4.9-4.2,7.4-6.26,17.42-.64,33.71-5.77,49.42-12.86,20.7-9.36,38.53-22.91,54.77-38.61,19-18.36,37.25-37.52,59.09-52.67,11.18-1.34,20.73,3.16,30.21,8.21,29.29,15.6,53,38.08,73.86,63.13,43.68,52.46,76.25,111.8,103.85,174,6.42,14.46,10.8,29.89,20,43,3.74,11.27,7.4,22.55,11.22,33.79,9.14,26.9,18.37,53.76,27.45,80.68.61,1.79.25,3.91.34,5.87-2.4-1-5.25-1.52-7.15-3.14-12.56-10.75-24.82-21.85-37.38-32.59-10.53-9-21.3-17.73-32.08-26.44-.7-.56-2.41.14-4.55.33-2.36,19.77-4.75,39.76-7.21,60.36l-12.7,1.11c-9.41-9.27-21.85-12.38-33.84-15.82a411.78,411.78,0,0,0-115.85-16.17c-17.29.07-34.59.37-51.88.22-13.38-.12-26.19,2.64-39.23,5.9-3.18,6.27-6.32,12.12-9.15,18.11q-36.2,76.59-72.27,153.25c-1.42,3-2.45,6.18-3.89,9.17-7.76,16.18-15.62,32.31-23.37,48.49-1.69,3.52-4.42,4.65-8.05,4.27-3.07-14.25-5.72-28.61-9.28-42.74-12.32-48.9-23.84-98-32.06-147.76C4953.3,1057.4,4950.36,1050.65,4948.24,1043.77Z"/><path class="cls-7" d="M6842.68,3338.81c-19.19.25-38.38.69-57.56.69-33.82,0-67.64-.28-101.47-.44a65,65,0,0,0-3.58-23.46c-5.31-15.71-9.71-31.72-14.54-47.59q-29.53-97.12-59.13-194.23c-5.81-19-12-38-17.82-57q-18.49-60.95-36.71-122c-5.53-18.42-10.95-36.87-16.41-55.31h0q107.4-.11,214.81-.24c7.28,0,14.56-.4,21.84-.62l24,.3c49.33.61,92.38,43.46,92.07,92-.1,16,.12,32,.13,47.94q0,133.83-.13,267.68c0,11.22-.54,22.75-3.11,33.6-4.91,20.65-16.39,37.66-33.16,50.92C6848.73,3333.61,6845.74,3336.25,6842.68,3338.81Z"/><path class="cls-8" d="M5353.33,1047.52l12.7-1.11c2.46-20.6,4.85-40.59,7.21-60.36,2.14-.19,3.85-.89,4.55-.33,10.78,8.71,21.55,17.43,32.08,26.44,12.56,10.74,24.82,21.84,37.38,32.59,1.9,1.62,4.75,2.12,7.15,3.14,4.28,13.23,9.27,26.28,12.71,39.72,19.76,77.22,41.26,154,68.38,228.93,21.46,59.32,44.57,118,66.75,177.1,2.54,6.73,3.81,13.95,5.66,20.94-6.07,2.48-12.32,4.61-18.16,7.53-40.74,20.32-81.37,40.87-122.1,61.2-6.44,3.22-13.25,5.73-19.88,8.56-22.95-36.74-43-75.1-61.08-114.38-13.91-30.14-27.31-60.63-38.84-91.74a1290.37,1290.37,0,0,1-60.9-226.52c.94-2.44,1.51-5.1,2.86-7.28,13.85-22.35,28-44.55,41.71-67C5339.06,1072.67,5346.08,1060,5353.33,1047.52Z"/><path class="cls-9" d="M4904.23,393.21a7.48,7.48,0,0,0-1.44-1.33c-19.66-10.18-27.3-27.15-27.42-48.39,3.64-12.05,6.83-24.26,11.08-36.09,2.64-7.35,6.87-14.14,10.22-20.83,6,0,10.62-.26,15.22,0,48.4,3.15,96.83,6.07,145.19,9.82a205.81,205.81,0,0,1,41.09,7.3c39.8,11.5,61.9,39.84,64.86,81.26,1.68,23.52-2.66,46.31-8.37,68.94-1.46,5.77-2.71,11.59-4.05,17.38-2.58,5.86-5.1,11.76-7.76,17.58-7.26,15.87-12.51,32.76-23.64,46.68a88.12,88.12,0,0,1-3.74-9c-22.8-77.26-83.11-125.88-165.78-128.09C4934.5,398.05,4919.38,395,4904.23,393.21Z"/><path class="cls-10" d="M5119.21,535.57c11.13-13.92,16.38-30.81,23.64-46.68,2.66-5.82,5.18-11.72,7.76-17.58,5.37.05,10.24.79,14.92,4.29,34.55,25.9,67.92,53.17,97,85.24a556.48,556.48,0,0,1,38.92,47.65c19.42,26.88,37.63,54.79,52.11,84.61,20.6,42.4,37.54,86.46,48.28,132.42,5.69,24.36,12.26,48.72,13.89,74,.29,4.54,2.62,8.91,3.25,13.47.72,5.17,1.68,10.74-3.55,14.61-9.24-13.14-13.62-28.57-20-43-27.6-62.21-60.17-121.55-103.85-174-20.87-25-44.57-47.53-73.86-63.13-9.48-5-19-9.55-30.2-8.21a58.67,58.67,0,0,0-5.58-5.57c-20.66-15.93-38-35-53-56.21C5115.31,558.37,5115.39,558.31,5119.21,535.57Z"/><path class="cls-11" d="M2416.82,3151.61c5.82,14.69,11.35,29.53,21.72,41.84a5.25,5.25,0,0,1-2.21,2c-2.55.6-5.59.5-7.54,1.92-8,5.8-15.87,11.78-23.35,18.2-16.09,13.81-20.85,14.45-38.39,3.61a81.62,81.62,0,0,1-7.81-6c-4.1-3.28-8.17-6.6-12.24-9.9a263,263,0,0,0-46.14-52.14c-3.84-4.54-7.3-9.48-11.58-13.56-35.63-34.1-71.65-67.8-107.11-102.07-60-58-117.34-118.32-165-187.21-1.63-2.36-5.25-3.34-7.94-5-.8-5.23-1.43-10.49-2.42-15.69-5.11-26.62-10.15-53.25-15.54-79.81-4.34-21.4-8.8-42.79-13.87-64-4.14-17.38-9.53-34.47-13.86-51.81a581.55,581.55,0,0,0-27.11-83.24c-10-24.11-26.47-40.53-51.21-49.48-28.27-10.23-57.85-14.11-87.1-19.59-10.38-2-21-3.8-31.46-4-19.93-.31-39.37-6.61-59.47-4.48-1.89.2-3.88-.79-5.85-1.05-7.2-.94-14.4-2.37-21.62-2.58-14-.41-28,0-42-.17-5.3-.06-10.6-.59-15.88-1.14-7.88-.82-15.72-2.5-23.6-2.69-22.65-.54-45.31-.52-68-.72a284.73,284.73,0,0,1,51.9-48.44c9.58-6.86,20-12.63,30-18.9h28.08c3,2.46,5.71,5.25,8.94,7.29s6.8,3.23,10.24,4.79l-.12-.17,4.13,4.32c6.57,11.67,19.25,15.62,29.2,23,19.28,14.27,41.94,19.27,65.07,20.36a113,113,0,0,0,69.12-19.35c9.83-6.58,19.32-13.67,29-20.52,20.49-.39,40.51,6.9,61.28,4.44,2.19-3,4.11-5.67,6.07-8.3,8.56-11.44,19.56-17.34,34.26-16.18,7.21.57,14.52-.22,21.78-.4,2.22,4.08,6.29,4,10.17,4.91a73.31,73.31,0,0,1,37.32,21c5.89,6.15,11.48,12.59,17.21,18.91,4.2,6.3,11.38,6.08,17.57,8.11,19.57,6.42,39.19,12.68,58.6,19.58,6.82,2.42,13.22,6.24,19.52,9.92,13.07,7.63,22,18.28,27.3,33,19.82,55.08,40.23,109.95,60.81,164.75,55.19,147,110.41,294,171.7,438.55C2404.82,3126.38,2411,3138.93,2416.82,3151.61Z"/><path class="cls-7" d="M1136.77,2107.7q7.13-24.19,14.23-48.38c12.19-37.93,23.48-76.18,36.77-113.72,24-67.84,53.16-133.31,94.78-192.55,20.71-29.48,43.41-57.16,72.54-78.91,18.71-14,38.08-26.7,61.37-31.88,13.56,8.28,27.07,16.64,40.68,24.81q63,37.85,126,75.58c18.24,11,37.64,16,58.89,11.93,8,.76,10.87,7,13.46,13.15a357.23,357.23,0,0,1,23.51,84.09c2.94,18.93,3.54,38.23,5.18,57.37a54,54,0,0,0-.56,5.93c.28,38.72-5.37,76.38-19.7,112.55-1,2.4-1,5.17-1.49,7.76-3.21,7.2-6.59,14.33-9.6,21.61-7.33,17.68-14.49,35.43-21.73,53.14-1.92-.54-3.85-1-5.71-1.61-27-9.46-54-10.54-81.23-1a23.87,23.87,0,0,1-3.88.69c-8.06-7.62-4.87-17.07-3.84-25.91,2-16.84,4.64-33.59,6.78-50.41.4-3.2-.29-6.55-.48-9.83.72-5.43,1-10.63-4.73-14-11.51-6.66-22.63-14.09-34.46-20.11-75.41-38.34-155.67-52.77-239.75-47.74-3.15.19-6.24,1.52-10.35,2.57-4.68,19.57-9.17,38.92-13.94,58.21-3.82,15.45-8,30.81-12,46.21-2.52,5.27-5.68,10.34-7.47,15.84-11.89,36.47-23.86,72.92-35.07,109.6-8.1,26.51-15.51,53.26-22.42,80.12-6.72,26.17-13.08,52.47-18.33,79-4,20-5.92,40.37-8.77,60.58-11.64-5.89-24-10.72-34.76-17.92-14.63-9.8-28.06-21.4-42-32.23,15.07-40.17,30.26-80.3,45.1-120.55,4.09-11.09,7.13-22.56,10.66-33.86,5.16-15.78,12.44-31,13.67-47.87C1134.33,2130.11,1135.87,2119,1136.77,2107.7Z"/><path class="cls-12" d="M1662.47,2035.43c.48-2.59.53-5.36,1.49-7.76,14.33-36.17,20-73.83,19.7-112.55a54,54,0,0,1,.56-5.93c7.8-10.67,15.67-21.28,23.4-32,17.88-24.77,38.51-47.16,59.57-69.19,17.28,9.91,34.81,19.41,51.78,29.82,54.5,33.41,107.6,68.87,156.41,110.36,21.33,18.13,41.62,37.37,58.3,60a213.06,213.06,0,0,1,16.94,27,76.78,76.78,0,0,1,8.82,34.48c1.79,78.53,1.85,157.08-1.37,235.55-1.69,41.13-3.85,82.39-10.93,123.12-.66,3.85-2.16,7.55-3.27,11.33-5.73-6.32-11.32-12.76-17.21-18.91a73.31,73.31,0,0,0-37.32-21c-3.88-.89-7.95-.83-10.17-4.91-2.54-12.34-5.19-24.67-7.6-37-12.59-64.49-26.24-128.73-44.63-191.85-6.13-21-13.16-41.75-22.62-61.64-8.46-17.79-21.78-29.91-39.85-36.93a227.46,227.46,0,0,0-24.61-7.92c-25.77-6.75-52.24-9.13-78.63-11.93C1728.24,2044,1695.08,2042,1662.47,2035.43Z"/><path class="cls-13" d="M1642.07,1754.58c-21.25,4-40.65-1-58.89-11.93q-63-37.85-126-75.58c-13.61-8.17-27.12-16.53-40.68-24.81,13.61-6.86,27.61-13.06,40.75-20.7,52.25-30.39,89.69-74.31,115.24-128.64,4.5-9.57,7.47-19.87,11.14-29.83,12.25-10.15,24-21.07,36.85-30.31a169.74,169.74,0,0,1,99-32,175.88,175.88,0,0,1,84.45,20.47,308.27,308.27,0,0,0,53.12,22.49c-.62,17.73-6.2,33.94-15,49.16-24.46,42.25-52.71,81.7-87.4,116.19a228.61,228.61,0,0,1-30.86,25.21c-13.52,9.38-27.94,12.35-42.4.94-2.5-2-5.67-3.06-7.66-4.1a16.81,16.81,0,0,0-3.2.72,3.44,3.44,0,0,0-1.46,1.31c-14,26.42-28,52.86-42.23,79.86a88.63,88.63,0,0,0,16.11,26.84C1643.92,1744.82,1646.05,1749.87,1642.07,1754.58Z"/><path class="cls-9" d="M1857,1443.69a308.27,308.27,0,0,1-53.12-22.49,175.88,175.88,0,0,0-84.45-20.47,169.74,169.74,0,0,0-99,32c-12.9,9.24-24.6,20.16-36.85,30.31-2.26-49.44,6.56-96.87,27.23-141.8a146.79,146.79,0,0,1,20.27-31.9c21.72-26.18,50-37,83.69-31,12.37,2.21,25.14,4.83,36.42,10.07,54.34,25.26,108.24,51.48,162.28,77.4a19,19,0,0,1,3.15,2.4c4,22.4-1.41,52.58-12.5,71-8.49,14.09-20.5,22.44-37.2,23.49C1863.61,1443,1860.31,1443.39,1857,1443.69Z"/><path class="cls-14" d="M1642.07,1754.58c4-4.71,1.85-9.76.82-14.76,18.17,9.16,36.54,18,54.46,27.56,20.89,11.19,41.42,23.07,62,34.77,2.8,1.59,5.21,3.88,7.8,5.85-21.06,22-41.69,44.42-59.57,69.19-7.73,10.72-15.6,21.33-23.4,32-1.64-19.14-2.24-38.44-5.18-57.37a357.23,357.23,0,0,0-23.51-84.09C1652.94,1761.58,1650.1,1755.34,1642.07,1754.58Z"/><path class="cls-3" d="M3031.22,1619.73q-.07-24.3-.16-48.6c3.42-7.58,3.42-7.58,12.11-3.18l.27,47.55c-.08,8.65-.23,17.31-.23,26q0,222.74,0,445.47c0,17.31-.16,34.62-.24,51.94l-11.74-1.65Q3031.22,1878.49,3031.22,1619.73Z"/><path class="cls-6" d="M6163.28,3338.9c-6.64.21-13.28.59-19.93.59q-541.23.09-1082.47.08c-3.3,0-6.61-.45-9.91-.69-4.82-2.11-9.48-4.69-14.48-6.24-37.82-11.69-72.14-30-104.72-52.42-41.17-28.3-74.46-64-101.83-105.33-9.44-14.23-20.1-28.28-23.65-45.75,9.28-.53,18.58-.71,27.79-1.66,17.89-1.86,28.16-16.61,23.89-34.08-.94-3.85-2.79-7.47-4.22-11.19l55-2.53c7.3,11.8,19,18.54,30.38,25.25,26.05,15.31,54.43,20.76,84.47,19,42.31-2.53,76.71-20.89,103.64-52.87,20.24-24,31-52.06,33.19-83.9,2.56-37.64-6.8-71.59-29.6-101-49.28-63.51-136.43-76.27-200.22-32.74-4.95,3.38-10,6.65-14.94,10,.41-3.27.41-6.66,1.3-9.8,18.79-66.32,34.3-133.4,47-201.14,1.1-5.85,2.82-11.58,4.25-17.37,4.85-1.88,9.86-3.45,14.53-5.71,29-14,59.49-23.68,91-30.14,20.41-2.45,40.77-6,61.26-7.09,31.32-1.69,62.3,2.69,93,8.88,5.18,1.05,10.45,1.65,15.68,2.46,3.74,1.27,7.41,2.89,11.24,3.75q62.83,14.14,125.73,28.1,32.86,7.35,65.71,14.83c3.44.78,6.52.76,8.78-2.45,7.6,3.83,14.82,9.23,22.88,11.18,28.87,7,58,12.85,87.06,19.16,19.36,4.21,38.67,8.65,58.08,12.59,5.63,1.14,12,3.05,16.41-3.19l3.87,3.1,5.16,4.93c9.8,1.57,19.7,2.66,29.38,4.8,42.79,9.43,85.49,19.3,128.28,28.75q86.49,19.09,173.06,37.81c23.77,5.52,47.49,11.33,71.34,16.49,31,6.71,61.81,14.07,91.88,24.36,19.45,6.65,38.49,14.08,56.81,23.45,6.42,3.29,13.32,5.64,20,8.41,3.2,2.28,6.3,4.73,9.63,6.81,27.1,16.92,52.22,35.87,72.84,60.89,33.39,40.5,49.29,87.45,53.2,138.73,2.68,35.19-.44,70-11.06,104.22-11.82,38.05-29.85,72.5-56,102.24-31.55,35.9-69.27,63.69-114.54,80.46C6169.82,3334.23,6166.66,3336.86,6163.28,3338.9Zm-912-679.18c-.25.76-.51,1.52-.77,2.28,3.84,1.87,7.55,4.05,11.52,5.55,34.16,13,68.39,25.72,102.55,38.69,35.4,13.43,70.71,27.11,106.12,40.53,24.84,9.42,49.81,18.49,74.67,27.88q65.25,24.64,130.42,49.49c29.18,11.1,58.57,21.68,87.43,33.57,23.64,9.75,43.67,24.15,59.32,45.5a148.5,148.5,0,0,1,22.89,46.12c5.76,19.57,8.88,39.86,3.44,60.84-4.48,17.23-6.86,35.11-8.93,52.85-2.41,20.67,2.26,41,6,61.15,5.12,27.86,17.1,53.13,33,76.28a233.69,233.69,0,0,0,80.55,73,209.29,209.29,0,0,0,79.2,25.3c25,2.69,50.48,2.07,75.38-3.72,34.22-7.95,65.65-22.31,92.32-45,26-22.1,48.23-47.57,61.91-79.68,10.22-24,19.59-48,19.43-74.58,0-3.3.05-6.83,1.17-9.85,2.72-7.27,2.17-14.09-.07-21.43-1.51-4.95-.88-10.54-1.24-15.84-.32-4.64,0-9.44-1.12-13.89-11-45.34-29.34-86.46-64.32-119.29-29.25-27.45-61.58-48.31-101-57.34-11.62-2.66-23.3-5.08-34.93-7.72q-69.78-15.88-139.56-31.84-70.73-16.21-141.44-32.52c-34.24-7.86-68.51-15.58-102.72-23.53-55.52-12.91-110.95-26.19-166.52-38.87-49.74-11.36-99.68-21.85-149.42-33.22-42-9.6-83.81-19.95-125.73-29.86C5257.73,2659.84,5254.45,2660,5251.26,2659.72Zm-10.29-2.09-3-.27c.47.36.91,1,1.41,1S5240.44,2657.91,5241,2657.63Z"/><path class="cls-3" d="M6163.28,3338.9c3.38-2,6.54-4.67,10.17-6,45.27-16.77,83-44.56,114.54-80.46,26.13-29.74,44.16-64.19,56-102.24,10.62-34.21,13.74-69,11.06-104.22-3.91-51.28-19.81-98.23-53.2-138.73-20.62-25-45.74-44-72.84-60.89-3.33-2.08-6.43-4.53-9.63-6.81l316.1,0c5.46,18.44,10.88,36.89,16.41,55.31q18.3,61,36.71,122c5.78,19,12,37.95,17.82,57q29.66,97.09,59.13,194.23c4.83,15.87,9.23,31.88,14.54,47.59a65,65,0,0,1,3.58,23.46c-6,.17-11.94.49-17.92.49q-241.27,0-482.54,0C6176.55,3339.54,6169.91,3339.12,6163.28,3338.9Z"/><path class="cls-1" d="M3031.22,1619.73q0,258.75,0,517.48c-10.49,3.23-17.8,9.86-18.06,21.15-.54,23.2-.73,46.44,0,69.63.45,13.36,10.28,21.85,21.7,21.12,11.72-.76,19.19-9.36,19.9-22.94.07-1.33,0-2.66,0-4,0-19.24-.43-38.49.17-57.71.35-11-3.05-19.41-12-25.61.08-17.32.24-34.63.24-51.94q0-222.73,0-445.47c0-8.65.15-17.31.23-26,14.79-.08,29.7,1.11,44-4,.06,9.32.18,18.64.18,28q0,694.13,0,1388.24c0,10,.45,20,.69,29.94-11,5.05-15.28,13.75-15.14,25.67.28,22.63,0,45.26-.11,67.89-8,.13-16,.36-24,.36-123.91,0-247.82-.19-371.72.3-14.3.06-25.62-4.14-36.42-12.7-14-11.11-28.55-21.58-42.85-32.33a48.84,48.84,0,0,1-4.76-3.62c-24.45-23.49-52-43.91-73.72-70-17.83-21.38-36.84-41.7-54-63.73-23.75-30.51-44.29-63-64.63-95.68-8.41-13.51-14.42-28.5-21.9-42.61-31.31-59.1-52.49-121.88-67.5-186.81-5.36-23.18-10.34-46.43-13.11-70.23-1.37-11.84-1.61-23.83-3.47-35.51-7.46-47-2.13-94.32-3.47-141.46-.19-6.52,1.59-13.09,2.48-19.63a73.54,73.54,0,0,0,1.15-7.87c.89-32.63,8.93-64.12,14.6-96,6.65-37.47,18.5-73.37,31.33-108.91,14.44-40,31.52-78.83,53-115.85,16-27.64,32.29-55,50.75-81,11.88-16.75,24.66-32.87,37.31-49.07,27.14-34.75,59.63-64.49,91.4-94.72,20.09-19.12,43.11-35.2,65.16-52.2,47.16-36.36,99.67-63.71,153.46-88.46,48.35-22.25,99.1-38.2,150.74-50.93,21.81-5.37,44.13-8.75,66.32-12.4C3016.43,1618.91,3023.9,1619.79,3031.22,1619.73Z"/><path class="cls-1" d="M4367.54,730c0,220.36,0,439.54-.05,658.72,0,3.88-.75,7.77-1.25,12.59-4.22.78-7.95,1.8-11.74,2.08-4.64.36-9.33.12-14,.12q-400.85,0-801.69,0c-7.92,0-15.84-.2-24.54-.32-1.07-4.72-2.34-8.4-2.64-12.16-.43-5.29-.14-10.65-.14-16q0-309.88,0-619.76V730.66c4.69-1.21,8.32-2.61,12-3,4.62-.49,9.32-.15,14-.15q401.83,0,803.68,0C4349.06,727.55,4357.07,726.53,4367.54,730Z"/><path class="cls-1" d="M3099.63,1611.52c20.66,0,41.32-.06,62,0,9.94,0,19.95-.87,29.62,3,2.95,1.17,6.58.88,9.9.83,35.41-.55,69.78,7.27,104.26,13.58,40.57,7.42,79.63,20.55,118.49,34.15,3.76,1.32,7.47,2.78,11.13,4.33,5.46,2.31,8.23,6.54,8.31,12.46q.09,7,.08,14,0,760.76,0,1521.52v19.92c-10.07,9.6-22.58,12.28-34.43,16.22-12.6,4.18-25.12,8.94-38.05,11.72-12,2.58-23,11.69-36.86,6.54-4.51-7.2-2.59-15.42-2.42-23.16.86-38.36-19.5-63.67-50.43-82.21-15.68-9.4-33.07-13.14-51.51-13-38,.36-76,.13-114,.15-.19-21.85-1-43.72-.37-65.55.37-13.43-3.51-23.28-16.19-28.8.11-10,.32-20,.32-30q0-695.9,0-1391.79C3099.53,1627.51,3099.59,1619.52,3099.63,1611.52Z"/><path class="cls-1" d="M4356.91,2132.72c-8.65-.37-17.29-1-25.93-1.06q-170-.1-340,0c-4,0-8.06-.44-12,.08-11.89,1.6-18.35-3.82-22.74-14.64-12-29.55-25-58.53-40.66-86.54-17.21-30.85-35.28-61-55.71-89.77-19.23-27-39.57-53.17-62.14-77.7-14.85-16.14-29-33-45.06-47.91-17.52-16.22-36.48-30.87-54.06-47-24.59-22.59-52.17-41.11-79.93-59.27-20.55-13.45-42.18-25.26-63.56-37.4-10.93-6.21-22.42-11.43-33.54-17.33-6.29-3.33-10.22-8.41-10.07-16,.07-3.33,0-6.66,0-10q0-76,0-152c0-5.86.62-11.72,1-18.54,4.66-.76,8.41-1.65,12.21-1.91,4.65-.31,9.33-.1,14-.1h804c6,0,12-.17,18,.35,7.24.64,11.65,5.64,9.51,12.14-3.47,10.5-2.62,21.08-2.62,31.67q-.08,314,0,628Z"/><path class="cls-1" d="M3513.85,2188.11h418.23c2.11,4.68,4.82,9.23,6.28,14.15a1073.38,1073.38,0,0,1,28,122c2.9,16.8,6.89,33.93,5.15,51.39a13.66,13.66,0,0,0,.06,4c7.31,37,2.76,74.35,3.74,111.53a184,184,0,0,1-2.79,37.64c-2.43,13.55-2.88,27.59-4.79,41.41-4.35,31.52-10,62.68-18.07,93.51-6.57,25.09-13.95,49.88-22.4,74.36-13.71,39.71-31.45,77.64-50.56,115-3.86,7.53-9.07,11.05-17.4,10.41-3.31-.25-6.66,0-10,0H3514.68c-1.22-4.66-2.63-8.27-3-12-.49-4.61-.15-9.32-.15-14q0-312,0-623.95C3511.54,2205.69,3510.49,2197.67,3513.85,2188.11Z"/><path class="cls-1" d="M4364.9,673.62c-16.2,2.29-831.13,2.58-849.71.37-4.86-4-3.61-9.69-3.63-14.85-.12-27.32-.07-54.65-.07-82V410.63c4.79-1.19,8.44-2.53,12.18-2.91,4.62-.47,9.32-.15,14-.15H4341.4c4.67,0,9.34-.13,14,.06,10,.39,14.26,4.15,15.54,14.25.58,4.6.36,9.31.37,14q0,106,0,211.94C4371.31,657,4372.48,666.59,4364.9,673.62Z"/><path class="cls-15" d="M4356.91,2132.72l10.68-5c10.63-.45,21.2-4.71,31.88-.4,1.45,1.25,2.7,3.07,4.38,3.67,15.95,5.73,32,11.24,48,16.82-2.12,6-4.21,12-6.38,17.91-2.39,6.57-4.85,13.1-7.28,19.66-2,3.41-4.29,6.67-5.91,10.24q-24.94,55.17-49.67,110.44c-5.36,12-10.33,24.23-15.48,36.35-2.51,4.64-5.31,9.14-7.47,13.94q-95,211-189.87,422c-12,26.66-23.47,53.53-35.18,80.31l-25,55.88c-2.18,4.08-4.6,8.06-6.5,12.27q-66.78,148-133.41,296.13c-2.1,4.68-3.64,9.61-6,16.05,4.73-.48,8.06-.24,11-1.22,15.11-5,30.07-10.5,45.16-15.57a66.41,66.41,0,0,1,76,24.78c16.89,24,15.79,56.68-2.67,79.89-3.27,4.11-6.47,8.27-9.7,12.41l-84.56-.21c-3.16-2.29-6.07-5.11-9.53-6.79-31.15-15.07-63.84-17.15-97.25-10.32-14.25,2.91-28.41,6.82-39.71,17l-84.52.38c-4-5.23-8.16-10.33-11.91-15.73-25.64-37-9.73-86.76,32.55-101.31,15.61-5.37,31.25-4.65,46.82,1.14q21.45,8,43.31,14.82c4.14,1.29,8.89.61,13.73.85,2-4.37,3.85-7.87,5.33-11.51q61.35-150.36,122.59-300.78c1.48-3.63,2.23-7.55,3.33-11.33l21.15-51.41c2.58-5.35,5.46-10.57,7.7-16.06q118.67-290.19,237.17-580.45c10.81-26.48,21.1-53.18,31.62-79.78,2.19-4.73,4.83-9.31,6.49-14.22C4333.27,2156.94,4342.68,2143.14,4356.91,2132.72Z"/><path class="cls-16" d="M4321.18,2187.81c-10.52,26.6-20.81,53.3-31.62,79.78Q4171.09,2557.87,4052.39,2848c-2.24,5.49-5.12,10.71-7.7,16.06-32-.21-64-.34-96-.71-6.46-.08-13.3,1.71-20.43-3.1.7-3.34.86-7.27,2.32-10.62,6.65-15.24,13.9-30.21,20.51-45.46a827.91,827.91,0,0,0,37.35-105.06c6.3-22.37,13-44.61,16.73-67.52s7.84-45.61,10.88-68.6c2.36-17.91.92-36.05,4-53.49,4.71-26.59,2.43-53.08,3.22-79.61.26-8.62.63-17.31-2.81-25.63a17.32,17.32,0,0,1-.88-7.89c1.9-21.4-2.68-42.38-4.64-63.47-1.64-17.73-5.42-35.35-9.44-52.74-6.57-28.4-14.12-56.58-21.17-84.87-.3-1.18.29-2.57.68-5.42a67.42,67.42,0,0,1,8.19-2.3,49.44,49.44,0,0,1,8-.16q155,0,309.95,0C4314.52,2187.49,4317.85,2187.7,4321.18,2187.81Z"/><path class="cls-1" d="M3909.19,2129.92c-18.19,2.33-378,2.26-395.25-.1-.75-3.34-2-7-2.31-10.79-.42-4.62-.13-9.32-.13-14q0-188.87.08-377.74c0-7.1-1.63-14.52,2.32-22.63,3.27,1,6.52,1.33,9.21,2.76,15.26,8.1,30.81,15.79,45.47,24.88,27.07,16.78,54,34,78.76,54,25.28,20.42,51.13,40.31,73.37,64.29,9.06,9.77,19,18.73,28.13,28.4,24.67,26,47.12,53.87,68.24,82.89,17.24,23.68,33.46,48,47.49,73.57,16,29.15,30,59.39,44.79,89.21C3909.86,2125.67,3909.32,2127.18,3909.19,2129.92Z"/><path class="cls-16" d="M4023.54,2915.51c-1.1,3.78-1.85,7.7-3.33,11.33q-61.22,150.42-122.59,300.78c-1.48,3.64-3.3,7.14-5.33,11.51-4.84-.24-9.59.44-13.73-.85q-21.84-6.83-43.31-14.82c-15.57-5.79-31.21-6.51-46.82-1.14-42.28,14.55-58.19,64.3-32.55,101.31,3.75,5.4,7.93,10.5,11.91,15.73q-129.24.1-258.48.18a56.83,56.83,0,0,1-5.92-.61c1.05-3.13,1.62-6.53,3.24-9.34,4.15-7.23,5.11-14.92,4.93-23.07-.26-12,.14-24-.11-35.95-.16-7.52,2.7-12.56,9.62-15.81,10.24-4.8,20.21-10.16,30.36-15.18,36.44-18,69.66-41.08,103-64.21,22.95-15.94,43.55-34.65,65.84-51.31,6.88-5.13,12.54-11.91,18.67-18,12.28-12.2,24.4-24.57,36.78-36.67,28.1-27.46,52.16-58.33,75.52-89.73,15-20.21,28.84-41.33,44.35-63.71,13-.13,27.54-.32,42.09-.39,14-.06,28,0,41.94,0Z"/><path class="cls-8" d="M4451.84,2147.83c-16-5.58-32-11.09-48-16.82-1.68-.6-2.93-2.42-4.38-3.67,3.51-7.83,7.32-15.55,10.46-23.53,9.21-23.41,18.19-46.91,27.16-70.42a89,89,0,0,0,2.51-9.5c1.34-2.24,3-4.34,4-6.73q31.2-79.86,62.19-159.79c1.18-3,1.46-6.44,2.16-9.68,8-.44,16.16.14,23.85-1.55,13.9-3.06,27.71-2.83,41.66-1.65-10.66,32.64-26.37,63.42-36.87,95.92,2.43,2.07,3.81,3.51,5.43,4.61q104.85,70.9,209.77,141.68c3.2,2.16,7.12,3.26,10.7,4.85-3.49,28.3-7.47,56.54-7.48,85.15,0,6.46,1.67,13.44-3.28,19.14-5.17-2.91-10.48-5.59-15.48-8.76-22.9-14.55-45.7-29.28-68.61-43.83-1.93-1.23-4.18-3.78-7.47,0,2,3.66,3.86,7.74,6.23,11.53q34.16,54.77,68.52,109.39c4.9,7.78,10.53,15.09,15.82,22.62q.21,76.9.4,153.79c-2.57-3-5.48-5.74-7.67-9q-67.05-99-133.94-198.07-52.92-78.47-105.63-157.07c-4-5.94-7.45-12.42-14.94-17-3.05,6.73-6,12.57-8.36,18.6-4.67,11.72-8.84,23.64-13.63,35.3S4456.89,2136.36,4451.84,2147.83Z"/><path class="cls-1" d="M3835,2917.51c-1.66,4.56-2.05,7.35-3.51,9.37-13.25,18.26-25.65,37.27-40.3,54.34-26.36,30.72-51.79,62.32-82.13,89.51-59.07,52.93-122.2,99.87-194.95,135.9-1-3.48-2.44-6.37-2.5-9.28-.27-13.33-.15-26.66-.15-40q0-108,0-216v-22.64c4.65-1.23,8.26-2.64,12-3,4.62-.49,9.32-.16,14-.16q137,0,274,0C3818.6,2915.58,3825.92,2914.67,3835,2917.51Z"/><path class="cls-9" d="M2436.34,3195.47a5.28,5.28,0,0,0,2.2-2c4.19,1.73,8.73,2.85,12.44,5.27,31.58,20.55,63.62,40.44,92.48,64.91,15.85,13.43,34.35,22.24,54.23,28.06,9.51,2.79,19.13,5.21,28.69,7.81,8.71,2.37,15.9,6.53,18.61,15.92-7.1,6.3-5.76,15.46-7.92,23.43-45.89.22-91.77.6-137.65.5-7.16,0-14.31-2.16-21.45-3.32-20.23-9.33-40.84-13.71-63.4-9-11.43,2.39-23.68,2-35.47,1.32-20-1.09-38.63-8.09-56.75-16.32.85-3.86,1.46-7.79,2.59-11.56,6.29-20.93,11.77-41.9,9.56-64.17-.64-6.44-.42-13.3,4.37-18.78,5.65,3.51,11.13,7.36,17,10.44a216.71,216.71,0,0,0,21.7,10c7.22,2.81,14.66,2.22,21-2.4C2413.57,3224.53,2427.92,3212.77,2436.34,3195.47Z"/><path class="cls-15" d="M4573.42,1844.49c-13.95-1.18-27.76-1.41-41.66,1.65-7.69,1.69-15.88,1.11-23.85,1.55-9.18.7-19.17-.69-27.32,2.56-13.62,5.44-26.95,6-40.9,4.15-3.39-2-6.81-4-10.17-6-17.46-10.66-25.78-26.82-24.82-46.65,1-20,11.82-34.7,29.95-43.58,3.54-1.74,7.38-2.85,11.09-4.25,12.57-2.35,24.36,1,36.07,4.94.51,8.55-.23,17.43,1.78,25.63,4.9,20,15.81,34.56,39.69,20.82,16.73-9.63,35.21-14.86,52.52-23l54.05-2.5c1.52,10.45,2.34,21,8.48,30.27s12.85,12.41,23.61,9.54c4.42-1.19,8.62-3.33,12.8-5.29,6-2.81,11.62-6.57,17.84-8.66a162.64,162.64,0,0,0,45.59-23.64,98.83,98.83,0,0,1,2.68,9.58,50.48,50.48,0,0,1-25.91,53.59c-16.54,8.77-33.19,8.62-49.49-.53-5.88-3.29-11.46-6.21-18.59-5.63C4622.4,1841.05,4597.9,1842.7,4573.42,1844.49Z"/><path class="cls-3" d="M3099.63,1611.52c0,8-.1,16-.1,24q0,695.9,0,1391.79c0,10-.21,20-.32,30q-5.4.16-10.8.36c-.24-10-.69-20-.69-29.94q-.06-694.12,0-1388.24c0-9.32-.12-18.64-.18-28Z"/><path class="cls-17" d="M4439.69,1854.4c14,1.85,27.28,1.29,40.9-4.15,8.15-3.25,18.14-1.86,27.32-2.56-.7,3.24-1,6.63-2.16,9.68q-31,79.94-62.19,159.79c-.93,2.39-2.62,4.49-4,6.73Z"/><path class="cls-18" d="M3088.39,3057.64q5.4-.19,10.8-.36c12.68,5.52,16.56,15.37,16.19,28.8-.6,21.83.18,43.7.37,65.55-3.78,8.71-8.81,15.7-19.53,16.41-12.58.83-18.77-6.6-23.08-16.84.07-22.63.39-45.26.11-67.89C3073.11,3071.39,3077.4,3062.69,3088.39,3057.64Z"/><path class="cls-17" d="M3451.48,3338.94c-29.65.23-59.31.64-89,.65-27.68,0-55.35-.43-83-.66,4.17-8.46,13.12-9.42,20.34-10.57,44.42-7.09,87.16-20.28,129.77-34.07a44.87,44.87,0,0,1,7.6-1.95c1.15-.17,2.45.72,5.15,1.62C3442.39,3309.1,3444.79,3324.52,3451.48,3338.94Z"/><path class="cls-19" d="M2637.07,3338.85c2.16-8,.82-17.13,7.92-23.43,5.26,6.86,6.41,15,7,23.23Z"/><path class="cls-20" d="M4575.8,1782.33c-17.31,8.1-35.79,13.33-52.52,23-23.88,13.74-34.79-.8-39.69-20.82-2-8.2-1.27-17.08-1.78-25.63,3.44-31.31,22.08-49,51.61-55.71,10.68-2.41,17.55-8.09,23.88-16.21q99.45-127.64,199-255.16a217.68,217.68,0,0,0,23.43-37Q4830,1292.63,4879,1189.93c19-39.6,37.35-79.52,56.06-119.27,4.25-9,8.78-17.92,13.18-26.89,2.12,6.88,5.06,13.63,6.22,20.67,8.22,49.8,19.74,98.86,32.06,147.76,3.56,14.13,6.21,28.49,9.28,42.74,2.55,5.72,2.6,10.89-.4,17-17.36,35.15-33.71,70.79-51.37,105.78-13.43,26.61-27.48,52.76-47.07,75.89-21.79,25.72-41.25,53.43-61.91,80.11-23.1,29.83-46.07,59.77-69.87,89-6.82,8.38-11.06,20.08-23.62,23-1,.24-1.36,3.45-2,5.28-5.83,3-11.87,5.6-17.45,9-19.82,12-39.36,24.38-59.25,36.21-19.29,11.47-38.88,22.42-58.08,33.45-.67,2.55-1.47,4.41-1.59,6.31-1,16.15-8.28,29-20.38,39.4C4580.31,1777.49,4578.12,1780,4575.8,1782.33Z"/><path class="cls-21" d="M5119.21,535.57c-3.82,22.74-3.9,22.8,9.6,41.82,15,21.2,32.39,40.28,53,56.21a58.67,58.67,0,0,1,5.58,5.57c-21.85,15.15-40.11,34.31-59.1,52.67-16.24,15.7-34.07,29.25-54.77,38.61-15.71,7.09-32,12.22-49.42,12.86l10.81-15.7c-5.18-12.43-10.16-24.37-15.13-36.31,11.31-7,22.28-14.57,30.55-25.09a402.22,402.22,0,0,0,24.36-33.75c11.23-17.78,14.05-26.59,13.37-36.47-4.43,2.07-8.57,3.89-12.62,5.92-6.46,3.24-12.82,6.67-19.28,9.9-16.75,8.39-35.26,10.86-53,15.79-3,.83-5.55,3-8.32,4.62-3.89-.57-7.77-1.57-11.67-1.62-6.62-.08-13.24.53-19.87.68-24.47.58-32.89-4.68-42.78-27-7.82-17.65-12.59-36.27-16.56-55.07-6.72-31.82-9.14-64.2-11.13-96.57-1.07-17.25.46-34.45,6.59-50.87,1.13-3,3.18-5.72,4.8-8.58,15.15,1.81,30.27,4.84,45.46,5.24,82.67,2.21,143,50.83,165.78,128.09A88.12,88.12,0,0,0,5119.21,535.57Z"/><path class="cls-20" d="M4994.85,632.22c2.77-1.58,5.35-3.79,8.32-4.62,17.78-4.93,36.29-7.4,53-15.79,6.46-3.23,12.82-6.66,19.28-9.9,4.05-2,8.19-3.85,12.62-5.92.68,9.88-2.14,18.69-13.37,36.47a402.22,402.22,0,0,1-24.36,33.75c-8.27,10.52-19.24,18.1-30.55,25.09C5008.66,672.8,5001.12,652.78,4994.85,632.22Z"/><path class="cls-1" d="M835.38,3129.33c-1.1-4.49-1.79-9.12-3.37-13.43q-25.1-68.22-50.42-136.37c-5.29-14.32-10.42-28.7-15.72-43-13.58-36.74-27.28-73.44-40.82-110.19-10.78-29.28-21.3-58.66-32.11-87.93-11.73-31.76-23.73-63.42-35.47-95.17-7.14-19.3-13.91-38.75-21-58.06C625,2554,613.26,2523,601.75,2491.83c-6.22-16.81-12.17-33.72-18.38-50.54q-27.24-73.8-54.58-147.57-15.13-41.1-29.86-82.37c-2.42-6.74-4.29-13.67-6.3-20.17,6.08-5.36,12.31-3.54,18-3.55q82.92-.23,165.85-.09H804.79c3.47,6.65,7.18,12.21,9.42,18.31,11.67,31.78,22.76,63.77,34.44,95.55,10.54,28.66,21.68,57.1,32.39,85.7,6.29,16.78,12.22,33.7,18.43,50.52q27.25,73.8,54.57,147.57c2.07,5.61,3.29,11.55,5.69,17,2.08,4.7,5.28,8.91,8,13.33.13,8.64.54,17.29.36,25.93a480.51,480.51,0,0,0,7.46,93.38c4.5,25.63,11.07,50.66,23.05,74,5.79,11.3,14.21,19,26.64,22.29,3.78,1,7.37,2.72,11,4.11q-46.77.44-93.53.89c-6,.06-12-.21-17.85.87-18,3.33-28.93,15.93-30.18,34.38-.4,5.95-.21,11.94-.21,17.91q0,105.49,0,211c0,9.95-.37,19.89-.56,29.84-18.14-2.22-36.25-3.27-54.25,1.11Z"/><path class="cls-22" d="M1036.28,2835.24c-3.68-1.39-7.27-3.11-11-4.11-12.43-3.27-20.85-11-26.64-22.29-12-23.36-18.55-48.39-23.05-74a480.51,480.51,0,0,1-7.46-93.38c.18-8.64-.23-17.29-.36-25.93,1.08-5.16,2.72-10.27,3.17-15.48a394.21,394.21,0,0,1,28.87-117.76c6.87-16.61,13.94-33.13,20.75-49.76,1.49-3.63,2.25-7.55,3.35-11.35,3.69-7.64,7.64-15.16,11-22.93,8.1-18.59,15.92-37.3,23.85-56,14,10.83,27.38,22.43,42,32.23,10.77,7.2,23.12,12,34.76,17.91,12.21,6.24,24.08,13.31,36.73,18.47,11.43,4.66,23.14,9.41,35.92,9.51,2.61,6.05,5.18,12.12,7.83,18.16,6.93,15.81,17,29,34.3,33.65,12,3.2,24.8,6,37.07,5.38a310.62,310.62,0,0,0,78.06-14c6.92-2.16,14.11-3.44,21.18-5.13,11.16.37,22.35.39,33.48,1.2,11.72.86,23.38,2.48,35.07,3.77l21.84.65c-4.21,5.09-8.1,10.48-12.68,15.21-23.56,24.34-47.31,48.5-71,72.74-31.08,31.84-62.45,63.41-93.06,95.7-12.24,12.91-26.58,19.26-43.9,20.19a79.74,79.74,0,0,0-11.87,1.23c-3.41.71-6.66,2.22-10.86,3.69,12.7,4.16,24.09,7.57,35.23,11.68,5.48,2,8.25,6.76,7.18,12.77a145.34,145.34,0,0,1-4,17.4c-13.71,44.49-30.62,87.68-52.6,128.8-6.41,6.53-14,8.6-23.24,8.15q-58.56-2.82-116.65-10.43C1065.09,2839.31,1050.69,2837.23,1036.28,2835.24Z"/><path class="cls-1" d="M473.66,2138.13c-1.74-2.89-3.49-5-4.41-7.47q-35.36-94.07-70.53-188.21a63.91,63.91,0,0,1-1.81-7c1.61-1.51,2.48-3,3.45-3.12,23.76-1.74,47.54-3.29,71.31-4.93,4.62-.32,9.23-.8,13.84-1.32,7.21-.82,14.39-2.07,21.63-2.52,9.25-.58,18.51.34,27.61-3,4.18-1.53,9.19-.94,13.84-1.06,10.6-.26,21.19.41,31.57-3.2,4.21-1.47,9.22-.71,13.88-.82,9.93-.23,19.81.29,29.59-3.06,4.83-1.65,10.54-.8,15.85-.94,9.28-.24,18.35-.73,27.62-2.78,9.54-2.11,19.84-1,29.8-.93,5.21,0,8.28,3.39,10.07,8.24,8.06,21.77,16.32,43.47,24.38,65.25q27.27,73.74,54.35,147.55c.84,2.29.55,5,.73,6.94-1.87,1.44-2.89,2.91-3.91,2.92q-148.74.48-297.47.7C481.16,2139.43,477.28,2138.56,473.66,2138.13Z"/><path class="cls-16" d="M1058.73,2342.27c-7.93,18.66-15.75,37.37-23.85,56-3.38,7.77-7.33,15.29-11,22.93-12.61-23.54-19.32-49.39-28.91-74.11-13-33.39-25.27-67-37.77-100.59-5.79-15.54-11.55-31.1-16.88-46.8-1-2.84.2-6.39.36-9.4,15.7-3.67,87.85-4.6,173.83-2.4-3.53,11.3-6.57,22.77-10.66,33.86C1089,2262,1073.8,2302.1,1058.73,2342.27Z"/><path class="cls-16" d="M1136.77,2107.7c-.9,11.29-2.44,22.41-8.61,32.29q-60.75-.24-121.51-.48c-24.57-.07-49.15.11-73.72-.08-13-.1-16-2.21-20.39-14.52-1.72-4.8-2.37-10-3.44-14.72,2.21-1.07,3.38-2.12,4.55-2.13Q1025.21,2107.8,1136.77,2107.7Z"/><path class="cls-23" d="M835.38,3129.33l4.29,1.91c-4,2.07-7.91,4.38-12,6.18-32.07,14-54.4,37.48-65.78,70.33-4.68,13.51-8.09,28-5.84,42.77,3.23,21.23,10.84,40.71,23.88,57.93,6.44,8.51,13.63,16.05,23.3,21.14,4.55,2.4,8.38,6.15,12.54,9.29l-30,.28c-4.2-3.17-8.33-6.46-12.64-9.49-50.1-35.25-62.55-108.55-15.94-161,17.8-20.06,40.31-32,66.58-37C827.61,3130.87,831.49,3130.09,835.38,3129.33Z"/><path class="cls-8" d="M5639.58,2687.43c-4.45,6.24-10.78,4.33-16.41,3.19-19.41-3.94-38.72-8.38-58.08-12.59-29-6.31-58.19-12.14-87.06-19.16-8.06-1.95-15.28-7.35-22.88-11.18q-110.67-71-221.38-142c-3.88-2.48-8.25-4.21-12.39-6.29-7-5-13.68-10.45-20.9-15.1q-58.51-37.7-117.24-75.06c-24-15.29-48.22-30.33-72.34-45.48-.34-25.22,4.05-50,7.21-74.84.75-5.9.92-11.86,1.35-17.8,8.51.7,14.11,6.95,20.56,11.26,41.68,27.88,83.07,56.19,124.71,84.13,5.94,4,12.71,6.74,19.1,10.06,2.78,2.81,5.18,6.18,8.39,8.36q37.95,25.8,76.22,51.14c2.48,1.65,5.72,2.14,9.36,3.44,2.58-7.36,4.91-13.53,6.92-19.81q37.35-116.8,74.61-233.63,30-94,60-188c1.78-5.61,2.43-11.58,3.61-17.37,21.76-12.42,43.46-24.92,65.31-37.17,3.35-1.88,7.35-2.59,11.06-3.85-.87,4.39-1.61,8.8-2.62,13.16-1.45,6.22-3.1,12.41-4.66,18.61-1.77,4.28-3.84,8.46-5.25,12.85-14.22,44.32-28.65,88.57-42.33,133-9,29.26-14.48,59.29-17.95,89.79a503.42,503.42,0,0,0-3.27,61.7c.67,66.58,13.85,130.63,38.77,192.36,25.24,62.51,62.11,117.43,108.34,166.17C5591.44,2649.56,5615.39,2668.67,5639.58,2687.43Z"/><path class="cls-15" d="M5492,1971.39c1.56-6.2,3.21-12.39,4.66-18.61,1-4.36,1.75-8.77,2.62-13.16,14.65-10.12,29.17-20.43,44-30.31,22-14.7,43-30.76,62.1-49.09,10.61-.87,21.22-1.83,31.84-2.6,6.64-.48,13.32-1.28,19.93-.92,14.34.79,22.31,7.38,24.85,21.43s1.9,27.68-4.75,40.9c-20.49,40.71-54.27,60.85-98.78,64.36C5548.85,1985.72,5520,1981.19,5492,1971.39Z"/><path class="cls-8" d="M5648.61,2695.46l-5.16-4.93Z"/><path class="cls-10" d="M4451.84,2147.83c5.05-11.47,10.33-22.84,15.09-34.42s9-23.58,13.63-35.3c2.4-6,5.31-11.87,8.36-18.6,7.49,4.54,10.95,11,14.94,17q52.85,78.53,105.63,157.07,66.86,99.12,133.94,198.07c2.19,3.24,5.1,6,7.67,9,1.22,16.53,2.74,33,3.59,49.59,3.33,64.31,5.53,128.7,9.92,192.93,4.07,59.57,9,119.13,18,178.24a36,36,0,0,1,0,6c-10.42,22.85-11.29,47.63-14.46,71.93-5.39,3.85-10.8,7.67-16.17,11.54-16.71,12-34.16,23.18-49.92,36.34-21.36,17.82-44.91,30.56-71.74,37.51-7.7,2-15.61,3.58-23,6.49-5.35,2.12-11.61,5-14.57,9.51-7.72,11.67-12.82,24.59-7.8,40.46,7.35.21,14.57.47,21.79.6q36.83.67,73.65,1.27c-1.61,5-4.15,9.92-4.66,15-1.49,14.76,8.7,27.28,23.47,29.4,4.55.65,9.25.43,13.88.44,23.83,0,47.66-.08,71.49.08,7.24,0,14.48.8,21.73,1.23,3.55,17.47,14.21,31.52,23.65,45.75,27.37,41.29,60.66,77,101.83,105.33,32.58,22.39,66.9,40.73,104.72,52.42,5,1.55,9.66,4.13,14.48,6.24-7.31.24-14.63.71-21.95.71q-290.73.06-581.46,0c-6.64,0-13.28-.5-19.92-.76,9.44-10.49,12-22.75,12-36.78q-.39-547.38-.26-1094.77c0-7.29-.77-14.59-1.17-21.89,2.43-6.55,4.89-13.08,7.28-19.65C4447.63,2159.78,4449.72,2153.8,4451.84,2147.83Z"/><path class="cls-10" d="M4573.42,1844.49c24.48-1.79,49-3.44,73.44-5.43,7.13-.58,12.71,2.34,18.59,5.63,16.3,9.15,32.95,9.3,49.49.53a50.48,50.48,0,0,0,25.91-53.59c-.58-3.25-1.77-6.39-2.67-9.57,7.91-12.4,14.81-25.18,13.83-40.76,8.09-4.71,15.47-9.11,22.95-13.34,66.06-37.28,130.49-77.09,190.75-123.33,36.52-28,71-58.11,96.8-96.9,1-1.58,2.94-2.58,4.44-3.85,14.83,47.31,29.21,94.76,44.64,141.88,11.1,33.88,20.58,68.4,36.36,100.62-72.12,52.21-144.53,104-216.24,156.79a1394.11,1394.11,0,0,0-120.22,98.53c-1,.9-1.92,1.83-2.87,2.76-33.3,32.57-37,34.33-46.17,87.09-3.58-1.59-7.5-2.69-10.7-4.85Q4646.8,2016,4542,1945c-1.62-1.1-3-2.54-5.43-4.61C4547.05,1907.91,4562.76,1877.13,4573.42,1844.49Z"/><path class="cls-6" d="M5148,1746.38c-15.78-32.22-25.26-66.74-36.36-100.62-15.43-47.12-29.81-94.57-44.63-141.88,1.86-3.52,3.47-7.21,5.62-10.54,37.52-58.13,75.27-116.09,112.6-174.33,21.17-33,41.54-66.6,62.54-99.74,12.8-20.19,26.13-40,39.22-60a1290.37,1290.37,0,0,0,60.9,226.52c11.53,31.11,24.93,61.6,38.84,91.74,18.12,39.28,38.13,77.64,61.08,114.38-5.68,3.39-11.17,7.14-17.05,10.12-46.36,23.45-92.83,46.68-139.19,70.13q-63.29,32-126.4,64.36C5159.24,1739.48,5153.66,1743.06,5148,1746.38Z"/><path class="cls-22" d="M4915.65,2863.37c5-3.31,10-6.58,14.94-10,63.79-43.53,150.94-30.77,200.22,32.74,22.8,29.39,32.16,63.34,29.6,101-2.16,31.84-12.95,59.86-33.19,83.9-26.93,32-61.33,50.34-103.64,52.87-30,1.79-58.42-3.66-84.47-19-11.42-6.71-23.08-13.45-30.36-25.25,4.22-1.95,8.58-3.63,12.6-5.91,5.8-3.29,7.4-7,5.61-13.25-1.65-5.72-4-11.22-5.82-16.89-8-25.29-16.27-50.47-13.55-77.68,1.26-12.59-3.58-23.36-12.09-32.54.57-4.47.62-9.07,1.79-13.38,4.73-17.45,9.74-34.83,14.85-52.18C4912.63,2866.16,4914.45,2864.86,4915.65,2863.37Z"/><path class="cls-17" d="M5422.94,1980.63c-1.18,5.8-1.83,11.77-3.61,17.38q-29.85,94.06-60,188-37.31,116.82-74.61,233.63c-2,6.28-4.34,12.45-6.92,19.81-3.64-1.3-6.88-1.79-9.36-3.44q-38.25-25.36-76.22-51.14c-3.21-2.18-5.61-5.55-8.39-8.37-13.76-46.12-32.19-90.08-59.74-129.84l-7.8-11.24c5.68-9.8,13.49-16.09,21.25-22.2q36.85-29,74.12-57.52c49.7-38,99.27-76.16,145.59-118.31,14.7-13.37,28.35-27.91,42.49-41.91Z"/><path class="cls-23" d="M4895.5,2933.41c8.51,9.18,13.35,20,12.09,32.54-2.72,27.21,5.58,52.39,13.55,77.68,1.78,5.67,4.17,11.17,5.82,16.89,1.79,6.23.19,10-5.61,13.25-4,2.28-8.38,4-12.6,5.91l-55,2.54c-13.51-3-27-6.15-40.56-9.11-12-2.61-24.06-2.42-34.71,3.85-7.95,4.68-16,5.44-24.68,5.44-24.48,0-49,.35-73.43.56q-36.82-.63-73.65-1.27c-7.22-.13-14.44-.39-21.79-.6-5-15.87.08-28.79,7.8-40.46,3-4.47,9.22-7.39,14.57-9.51,7.36-2.91,15.27-4.49,23-6.49,26.83-7,50.38-19.69,71.74-37.51,15.76-13.16,33.21-24.31,49.92-36.34,5.37-3.87,10.78-7.69,16.17-11.53l28.66-17.74,18.86,6.68c7.79,6.85,15.47,13.83,23.39,20.53,10,8.45,18.78,9.28,30.5,3.1a45.86,45.86,0,0,0,18.44-17Z"/><path class="cls-9" d="M5010.9,2363.75c24.12,15.15,48.31,30.19,72.34,45.48q58.73,37.38,117.24,75.06c7.22,4.65,13.94,10.05,20.9,15.1,2.76,12.18,5.66,24.34,8.25,36.55,4.78,22.49,9.39,45,14.06,67.52-5.23-.81-10.5-1.41-15.68-2.46-30.7-6.19-61.68-10.57-93-8.88-20.49,1.1-40.85,4.64-61.26,7.09a44.36,44.36,0,0,0-2.26-5.5q-34.68-60.18-69.53-120.26c-1.56-2.68-4.39-4.63-6.62-6.92,1.61-14.38,2.5-28.9,5-43.12,3.1-17.5,6.08-35,7.35-52.71C5007.88,2368.32,5009.79,2366.06,5010.9,2363.75Z"/><path class="cls-9" d="M5399.74,1995.53c-14.14,14-27.79,28.54-42.49,41.91-46.32,42.15-95.89,80.32-145.59,118.31q-37.27,28.48-74.12,57.52c-7.76,6.11-15.57,12.4-21.25,22.2l7.8,11.24c27.55,39.76,46,83.72,59.74,129.84-6.39-3.31-13.16-6.06-19.1-10.05-41.64-27.94-83-56.25-124.71-84.13-6.45-4.31-12.05-10.56-20.56-11.26.89-7.21,1.75-14.42,2.68-21.62.17-1.31.74-2.57.86-3.88,1.51-17.82,3.55-35.62,4.23-53.48.38-9.88,4.34-16.07,12.64-20.79,42.26-24,85.66-45.68,130.06-65.5,23.7-10.59,46.56-23.05,69.9-34.44,40.67-19.85,81.46-39.46,122.12-59.33,8.35-4.08,16.2-9.19,24.6-13.17C5390.57,1997,5395.32,1996.61,5399.74,1995.53Z"/><path class="cls-17" d="M4995.34,2466.53c2.23,2.29,5.06,4.24,6.62,6.92q34.92,60,69.53,120.26a44.36,44.36,0,0,1,2.26,5.5c-31.52,6.46-62,16.12-91,30.14-4.67,2.26-9.68,3.83-14.53,5.71q3.63-22.5,7.27-45Z"/><path class="cls-17" d="M4750.7,2286.8c-5.29-7.53-10.92-14.84-15.82-22.62q-34.44-54.57-68.52-109.39c-2.37-3.79-4.26-7.87-6.23-11.53,3.29-3.79,5.54-1.24,7.47,0,22.91,14.55,45.71,29.28,68.61,43.83,5,3.17,10.31,5.85,15.48,8.76.17,8.55.6,17.11.46,25.65C4751.8,2243.26,4751.2,2265,4750.7,2286.8Z"/><path class="cls-6" d="M4796.77,2921.51l-28.66,17.74c3.17-24.31,4-49.09,14.46-71.94Q4789.67,2894.42,4796.77,2921.51Z"/><path class="cls-21" d="M4888,2934.78a45.86,45.86,0,0,1-18.44,17c-11.72,6.18-20.5,5.35-30.5-3.1-7.92-6.7-15.6-13.68-23.39-20.53C4839.44,2933.72,4863.4,2937.5,4888,2934.78Z"/><path class="cls-18" d="M1036.28,2835.24c14.41,2,28.81,4.07,43.24,6q58.11,7.64,116.65,10.43c9.2.45,16.83-1.62,23.24-8.15,27.09,0,54.17,0,81.25-.1,5.27,0,10.54-.44,15.78-1,8.48-.85,16.92-2,25.39-2.89,4.59-.47,9.59.48,13.76-1,10.32-3.72,20.83-2.87,31.35-3q32.61.28,65.22.58c11.83.13,23.66.38,35.49.57,0,6.07,4.44,9.49,8.27,13.07,5.79,5.41,7.94,11.92,7.76,19.72-.26,11.31,0,22.64,0,34q.25,69.93.52,139.86c-.2,7.94-.58,15.89-.58,23.83q-.07,114.3,0,228.61c0,14.55.69,29.16-4.89,43.06-6,.27-11.93.75-17.89.76q-179.43.06-358.85,0c-6,0-11.93-.48-17.9-.74l15-9.47c26.24-16.57,43.63-39.67,53.08-69.33,4.8-15.06,3.12-30.16,3.51-45.31.55-21.6-8-40.62-20.68-56.82-24.13-30.75-55.6-48.44-96-46.77-10.59.44-21.2.46-31.79.67-14.09-1.43-27.42,1.51-40.75,6a133.35,133.35,0,0,0-41.3,22.89c-4.12,3.3-7.71,7.33-13.58,7.23-10.41-10.4-23.84-14.43-37.59-17.79.19-10,.55-19.89.56-29.84q.07-105.49,0-211c0-6-.19-12,.21-17.91,1.25-18.45,12.15-31.05,30.18-34.38,5.81-1.08,11.89-.81,17.85-.87Q989.52,2835.61,1036.28,2835.24Z"/><path class="cls-16" d="M4083.36,3339.29c3.23-4.14,6.43-8.3,9.7-12.41,18.46-23.21,19.56-55.91,2.67-79.89a66.41,66.41,0,0,0-76-24.78c-15.09,5.07-30.05,10.54-45.16,15.57-2.92,1-6.25.74-11,1.22,2.41-6.44,3.95-11.37,6-16.05q66.63-148.1,133.41-296.13c1.9-4.21,4.32-8.19,6.5-12.27,8,.33,15.95.93,23.92.94q71.89.14,143.8.05c26,0,51.93-.06,77.89.06,5.15,0,10.81-1.23,16.12,5.46v22.12q0,181.74-.19,363.49c0,11.77,1.94,22.37,8.2,32.22-3.95.24-7.91.7-11.87.7q-137.09,0-274.17,0C4090,3339.6,4086.67,3339.4,4083.36,3339.29Z"/><path class="cls-24" d="M1498.72,3338.82c5.58-13.9,4.9-28.51,4.89-43.06q-.06-114.3,0-228.61c0-7.94.38-15.89.58-23.83,5.9-2.73,12.33-4.7,17.63-8.32,32.09-22,63.81-44.5,95.88-66.5q53.83-36.93,108.13-73.2c4.85-3.25,10.53-5.26,15.83-7.85.34,7.26,1,14.52,1,21.77q.1,110.33.08,220.66c0,7.26.58,14.52.89,21.78-.3,6.6-.85,13.19-.86,19.78-.08,44.34-.27,88.68.11,133,.1,12.25-1.91,23.62-7.74,34.33-4.62.29-9.24.84-13.86.84q-105.35.07-210.7,0C1506.63,3339.63,1502.67,3339.1,1498.72,3338.82Z"/><path class="cls-2" d="M4379.33,3338.89c-6.26-9.85-8.23-20.45-8.2-32.22q.46-181.76.19-363.49v-22.12c-5.31-6.69-11-5.44-16.12-5.46-26-.12-51.93-.06-77.89-.06q-71.9,0-143.8-.05c-8,0-15.94-.61-23.92-.94l25-55.88c3.63,5.14,9.08,4.78,14.41,4.78q104.74,0,209.5-.11c3.74,0,7.47-1.39,12.13-2.31.24-7.41.64-14,.65-20.5q.07-75.83,0-151.65V2369.63c0-9.28.9-18.7-4.2-27.2,5.15-12.12,10.12-24.33,15.48-36.35q24.69-55.29,49.67-110.44c1.62-3.57,3.93-6.83,5.91-10.24.4,7.29,1.17,14.59,1.17,21.88q.09,547.4.26,1094.77c0,14-2.53,26.29-12,36.78Z"/><path class="cls-19" d="M1027.13,3111.81c10.6-.21,21.21-.23,31.8-.67,40.45-1.67,71.92,16,96,46.77,12.72,16.2,21.23,35.22,20.68,56.82-.39,15.15,1.29,30.25-3.51,45.31-9.45,29.66-26.84,52.76-53.08,69.33l-15,9.47-104.51.16c-14.78-8-26.38-19.82-38.45-31.29-20.23-19.22-26.8-43.89-29.43-70-1.91-19,4.3-36.8,11.66-54,5-11.66,12-21.84,20.69-31.46,15.68-17.47,35.23-28,56.36-36.62A58,58,0,0,0,1027.13,3111.81Zm16.62,151c-4.88-5.25-6.76-8.05-9.32-9.89-12.86-9.21-12.63-22.56-10.45-35.7,1-6.12,5.8-11.57,8.54-17.48.87-1.87.67-4.24,1.11-7.5-19.47,11-26,24.44-21.59,45,1.31,6.11,4.94,12.27,9.06,17.08C1025.67,3259.63,1032.1,3263.23,1043.75,3262.77Zm1.15-73.16-3-.25c.46.36.91,1,1.4,1S1044.37,3189.9,1044.9,3189.61Z"/><path class="cls-2" d="M1735.14,3338.79c5.83-10.71,7.84-22.08,7.74-34.33-.38-44.34-.19-88.68-.11-133,0-6.59.56-13.18.86-19.78l195.31-.1c7.51,12,15.29,23.89,22.33,36.18,1.7,3,1,7.31,1.32,11-3.93,2.92-6.75,6.51-7.11,11.62-5.92,7.39-5.43,16.23-4.58,24.67,1.62,16.16-1.45,31.58-5.51,47-2.53,9.58-5.11,19.14-7.67,28.71-2.63,6.36-5.64,12.61-7.73,19.15-.86,2.69.23,6,.43,9-15.94.22-31.88.6-47.82.64q-62.79.13-125.58,0C1749.73,3339.55,1742.43,3339.06,1735.14,3338.79Z"/><path class="cls-2" d="M2338.87,3217.55c-4.79,5.48-5,12.34-4.37,18.78,2.21,22.27-3.27,43.24-9.56,64.17-1.13,3.77-1.74,7.7-2.59,11.56-4.51,8.29-8.87,16.63-7.53,26.59l-28.28.1c-1.51-8.42-2.44-17-7.66-24.29-2.18-9.64-9.35-14.16-17.92-16.84-7.6-2.37-15.4-4.09-23.1-6.16-24-6.46-46.72-15.83-65.9-31.91-33.75-28.31-71-51.51-107.94-75.14q-2.16-16.36-4.3-32.74,62.78,0,125.56-.09,57.79-.12,115.59-.44a263.26,263.26,0,0,1,46.13,52.14Z"/><path class="cls-9" d="M2064,3184.41c37,23.63,74.19,46.83,107.94,75.14,19.18,16.08,41.91,25.45,65.9,31.91,7.7,2.07,15.5,3.79,23.1,6.16,8.57,2.68,15.74,7.2,17.92,16.85-8.25,6.59-7.17,16-7.55,25q-63.48.06-127,.08c-9.87,0-19.77.71-29.36-3.12-2.8-1.12-6.5,0-9.77.07-23.86-12.06-48.48-15.58-75-9.48a89.77,89.77,0,0,1-45.24-1.49c-15.85-4.64-31.54-9.83-47.3-14.77,2.56-9.57,5.14-19.13,7.67-28.71,4.06-15.39,7.13-30.81,5.51-47-.85-8.44-1.34-17.28,4.58-24.67,13.41,7.27,26.73,14.74,40.29,21.71a19.75,19.75,0,0,0,20.91-1.22c17.27-11.51,32.45-25.11,42.62-43.58Z"/><path class="cls-19" d="M893.92,3130.13c13.75,3.36,27.18,7.39,37.59,17.79-1.17,3-1.9,6.33-3.59,9-7.72,12.38-16.42,24.36-19.87,38.75-2.26,9.41-8.8,12.94-16.72,15-4.43,1.13-9.26.81-13.91.86-7,.09-13,2.76-18.39,6.8-8.42,6.3-13,18-10.7,26.27,3.21,11.47,12.39,18.57,25.28,18.62,5.21,0,10.44-1.42,15.62-2.39,10.24-1.93,13.86-.72,16.92,8.79,4.35,13.54,11.36,25.21,20.07,36.37,3.85,5,9.61,9.62,9.35,17.12q-9.78,7.88-19.55,15.76l-100.28,0c-4.16-3.15-8-6.9-12.54-9.3-9.67-5.09-16.86-12.63-23.3-21.14-13-17.22-20.65-36.7-23.88-57.93-2.25-14.78,1.16-29.26,5.84-42.77,11.38-32.85,33.71-56.35,65.78-70.33,4.12-1.8,8-4.11,12-6.18C857.67,3126.86,875.78,3127.91,893.92,3130.13Z"/><path class="cls-23" d="M935.57,3323.09c.26-7.5-5.5-12.17-9.35-17.12-8.71-11.16-15.72-22.83-20.07-36.37-3.06-9.51-6.68-10.72-16.92-8.79-5.18,1-10.41,2.41-15.62,2.39-12.89,0-22.07-7.15-25.28-18.62-2.31-8.28,2.28-20,10.7-26.27,5.39-4,11.41-6.71,18.39-6.8,4.65-.05,9.48.27,13.91-.86,7.92-2,14.46-5.54,16.72-15,3.45-14.39,12.15-26.37,19.87-38.75,1.69-2.7,2.42-6,3.59-9,5.87.1,9.46-3.93,13.58-7.23a133.35,133.35,0,0,1,41.3-22.89c13.33-4.48,26.66-7.42,40.75-6a59,59,0,0,1-6.74,3.78c-21.13,8.6-40.68,19.15-56.36,36.62-8.64,9.62-15.7,19.8-20.69,31.46-7.36,17.21-13.57,35-11.66,54,2.63,26.14,9.2,50.81,29.43,70,12.07,11.47,23.67,23.26,38.45,31.29l-33.66-.28c-6.95-4.67-13.75-9.63-21-13.86C942.35,3323.35,938.72,3323.63,935.57,3323.09Z"/><path class="cls-19" d="M1937.72,3310.73c15.76,4.94,31.45,10.13,47.3,14.77a89.77,89.77,0,0,0,45.24,1.49c26.5-6.1,51.12-2.58,75,9.48-3.07,1-6.12,2.79-9.17,2.79q-82.85,0-165.66-.32c-.19-3.05-1.28-6.37-.42-9.06C1932.08,3323.34,1935.09,3317.09,1937.72,3310.73Z"/><path class="cls-19" d="M2314.82,3338.65c-1.34-10,3-18.3,7.53-26.59,18.12,8.23,36.71,15.23,56.75,16.32,11.79.64,24,1.07,35.47-1.32,22.56-4.74,43.17-.36,63.4,9-2.26,1.1-4.51,3.16-6.76,3.16C2419.08,3339.15,2367,3338.88,2314.82,3338.65Z"/><path class="cls-17" d="M3852.31,3339c11.3-10.19,25.46-14.1,39.71-17,33.41-6.83,66.1-4.75,97.25,10.32,3.46,1.68,6.37,4.5,9.53,6.79Z"/><path class="cls-18" d="M935.57,3323.09c3.15.54,6.78.26,9.37,1.77,7.22,4.23,14,9.19,21,13.86l-49.9.13Z"/><path class="cls-19" d="M2271.33,3339.44c.38-9-.7-18.38,7.55-25,5.22,7.25,6.15,15.86,7.66,24.28Z"/><path class="cls-21" d="M5286.94,1159.23c-13.09,20-26.42,39.85-39.22,60-21,33.14-41.37,66.7-62.54,99.74-37.33,58.24-75.08,116.2-112.6,174.33-2.15,3.33-3.76,7-5.62,10.54-1.51,1.27-3.41,2.27-4.45,3.85-25.78,38.79-60.28,68.88-96.8,96.9-60.26,46.24-124.69,86-190.75,123.33-7.48,4.23-14.86,8.63-22.95,13.34,1,15.58-5.92,28.36-13.83,40.76a163.07,163.07,0,0,1-45.6,23.63c-6.22,2.09-11.86,5.85-17.84,8.66-4.18,2-8.38,4.1-12.8,5.29-10.76,2.87-17.46-.26-23.61-9.54s-7-19.82-8.47-30.27c.37-3.27.79-6.53,1.1-9.8,2.65-28.18,18.28-45.75,44.62-54.49a63,63,0,0,1,11.5-2.86c6.36-.86,10.64-4.14,14.47-9.19,11.53-15.26,23.55-30.14,35.2-45.31,1.5-2,1.89-4.77,2.8-7.19.65-1.83,1-5,2-5.28,12.56-2.91,16.8-14.61,23.62-23,23.8-29.27,46.77-59.21,69.87-89,20.66-26.68,40.12-54.39,61.91-80.11,19.59-23.13,33.64-49.28,47.07-75.89,17.66-35,34-70.63,51.37-105.78,3-6.07,3-11.24.4-17,3.63.38,6.36-.75,8.05-4.27,7.75-16.18,15.61-32.31,23.37-48.49,1.44-3,2.47-6.17,3.89-9.17q36.09-76.65,72.27-153.25c2.83-6,6-11.84,9.15-18.11,13-3.26,25.85-6,39.23-5.9,17.29.15,34.59-.15,51.88-.22a411.78,411.78,0,0,1,115.85,16.17c12,3.44,24.43,6.55,33.84,15.82-7.25,12.5-14.27,25.15-21.82,37.47-13.75,22.41-27.86,44.61-41.71,67C5288.45,1154.13,5287.88,1156.79,5286.94,1159.23Z"/><path class="cls-12" d="M2064,3184.41l-4.72,2.88c-5.4,2.31-11.32,3.84-16.06,7.1a185.65,185.65,0,0,0-23,18.54c-8.56,8.18-17.5,8.3-27.11,3.18-4-2.14-7.28-5.67-11.27-7.88-6.25-3.46-12.81-6.34-19.25-9.47-.37-3.71.38-8.07-1.32-11-7-12.29-14.82-24.16-22.33-36.18-2.69-5.31-5.16-10.75-8.11-15.92-22.81-39.88-46.54-79.25-68.4-119.64-43.15-79.7-83.73-160.59-104.61-249.7-3.3-14.06-10-18.33-24.81-16.75a175.38,175.38,0,0,0-27.48,4.82q-53.88,14.79-107.54,30.41c-60,17.58-120.42,33.63-182.17,44.27-9.61,1.65-20.11.69-28.88,6.5-10.52.1-21-.75-31.35,3-4.17,1.5-9.17.55-13.76,1-8.47.86-16.91,2-25.39,2.89-5.24.52-10.51.94-15.78,1-27.08.11-54.16.08-81.25.1,22-41.12,38.89-84.31,52.6-128.8a145.34,145.34,0,0,0,4-17.4c1.07-6-1.7-10.75-7.18-12.77-11.14-4.11-22.53-7.52-35.23-11.68,4.2-1.47,7.45-3,10.86-3.69a79.74,79.74,0,0,1,11.87-1.23c17.32-.93,31.66-7.28,43.9-20.19,30.61-32.29,62-63.86,93.06-95.7,23.67-24.24,47.42-48.4,71-72.74,4.58-4.73,8.47-10.12,12.68-15.21l53.32-1.18c22.65.2,45.31.18,68,.72,7.88.19,15.72,1.87,23.6,2.69,5.28.55,10.58,1.08,15.88,1.14,14,.15,28-.24,42,.17,7.22.21,14.42,1.64,21.62,2.58,2,.26,4,1.25,5.85,1.05,20.1-2.13,39.54,4.17,59.47,4.48,10.51.16,21.08,2,31.46,4,29.25,5.48,58.83,9.36,87.1,19.59,24.74,8.95,41.16,25.37,51.21,49.48a581.55,581.55,0,0,1,27.11,83.24c4.33,17.34,9.72,34.43,13.86,51.81,5.07,21.24,9.53,42.63,13.87,64,5.39,26.56,10.43,53.19,15.54,79.81,1,5.2,1.62,10.46,2.42,15.69,6,34,12.46,67.87,17.86,101.94,8.84,55.71,16.91,111.55,25.48,167.31,2,13.08,4.74,26.06,7.14,39.08Q2061.87,3168,2064,3184.41Z"/><path class="cls-17" d="M1662.47,2035.43c32.61,6.52,65.77,8.61,98.76,12.11,26.39,2.8,52.86,5.18,78.63,11.93a227.46,227.46,0,0,1,24.61,7.92c18.07,7,31.39,19.14,39.85,36.93,9.46,19.89,16.49,40.61,22.62,61.64,18.39,63.12,32,127.36,44.63,191.85,2.41,12.36,5.06,24.69,7.6,37-7.26.18-14.57,1-21.78.4-14.7-1.16-25.7,4.74-34.26,16.18-2,2.63-3.88,5.3-6.07,8.3-20.77,2.46-40.79-4.83-61.28-4.44,2.67-5.19,5-10.6,8-15.53,27.19-43.48,22.78-96.63-7.93-135.48-13.73-17.38-31.45-29.83-50.23-41-10.7-10.47-24.4-15.08-38.13-19.69-16.59-5.57-33.77-4.72-50.86-4.75-5.28-18.75-14.87-35.26-29.25-48.1-11.6-10.35-25-18.65-37.66-27.86l-18.61-12.68c7.23-17.72,14.39-35.47,21.72-53.15C1655.88,2049.76,1659.26,2042.63,1662.47,2035.43Z"/><path class="cls-19" d="M1805.66,2223.27c18.78,11.17,36.5,23.62,50.23,41,30.71,38.85,35.12,92,7.93,135.48-3.08,4.93-5.37,10.34-8,15.53-9.64,6.85-19.13,13.94-29,20.52a113,113,0,0,1-69.12,19.35c-23.13-1.09-45.79-6.09-65.07-20.36-10-7.37-22.63-11.32-29.2-23l-4.13-4.32.12.17c-1.52-3.58-2.55-7.48-4.63-10.7-9.91-15.31-16.73-32.18-18.79-49.91-3.16-27.11,3.92-52.67,18.23-76,7.72-12.59,17.81-22.63,30.12-31.2,16.21-11.28,34-17.17,52.85-21.72a75.86,75.86,0,0,1,35.29-.4C1783.41,2220.15,1794.59,2221.47,1805.66,2223.27Zm-28.14,75.2c-10.06-9.24-20.34-7.79-29.81-6.1-10.94,2-18.91,9.81-24.94,18.67-6.43,9.46-3.43,20.63-2.68,31,.32,4.55,1.8,10.36,8.65,11.3-2.21-25.34-.73-30.73,7.87-41.17C1746.92,2299.69,1761.44,2299.43,1777.52,2298.47Z"/><path class="cls-17" d="M2059.72,3151.67c-2.4-13-5.13-26-7.14-39.08-8.57-55.76-16.64-111.6-25.48-167.31-5.4-34.07-11.87-68-17.86-101.94,2.69,1.62,6.31,2.6,7.94,5,47.65,68.89,105,129.24,165,187.21,35.46,34.27,71.48,68,107.11,102.07,4.28,4.08,7.74,9,11.58,13.56q-57.78.22-115.58.44Q2122.5,3151.72,2059.72,3151.67Z"/><path class="cls-23" d="M1805.66,2223.27c-11.07-1.8-22.25-3.12-33.17-5.55a75.86,75.86,0,0,0-35.29.4c-18.84,4.55-36.64,10.44-52.85,21.72-12.31,8.57-22.4,18.61-30.12,31.2-14.31,23.33-21.39,48.89-18.23,76,2.06,17.73,8.88,34.6,18.79,49.91,2.08,3.22,3.11,7.12,4.63,10.7-3.44-1.56-7.08-2.79-10.24-4.79s-6-4.83-8.94-7.29l-24.83-44c-5.67-18.8-5.3-38.16-3.21-57.2s13-35.45,22.53-51.58c-5.65-5.2-11-3.46-16-2.46-9,1.84-18,4.33-27,6.55-3.55-5.12-4.26-10.86-4.63-17-.7-11.55,4.45-18.72,14.55-23.59,7.31-3.53,14-3.07,20.88.68,10.4,5.65,20.89,11.14,31.82,16.95,19-13.29,39.41-22.39,62.27-25.14,17.09,0,34.27-.82,50.86,4.75C1781.26,2208.19,1795,2212.8,1805.66,2223.27Z"/><path class="cls-9" d="M1530.3,2462.9l-53.32,1.18-21.84-.65c2.61-4.5,5.33-8.94,7.79-13.52,5-9.22,14.8-15.4,16.45-26.64l-.14.23,3.94-3.85,61.76-29.88c7.92.56,15.85,1,23.76,1.71,14.5,1.28,29,2.71,43.46,4.08-10,6.27-20.38,12-30,18.9A284.73,284.73,0,0,0,1530.3,2462.9Z"/><path class="cls-17" d="M1612.16,2395.56c-14.48-1.37-29-2.8-43.46-4.08-7.91-.7-15.84-1.15-23.75-1.71l70.46-38.16,24.83,44Z"/><path class="cls-19" d="M2338.87,3217.55l8.13-14.27c4.07,3.3,8.14,6.62,12.24,9.9a81.62,81.62,0,0,0,7.81,6c17.54,10.84,22.3,10.2,38.39-3.61,7.48-6.42,15.37-12.4,23.35-18.2,1.95-1.42,5-1.32,7.54-1.92-8.41,17.3-22.76,29.06-37.78,40.07-6.31,4.62-13.75,5.21-21,2.4a216.71,216.71,0,0,1-21.7-10C2350,3224.91,2344.52,3221.06,2338.87,3217.55Z"/><path class="cls-23" d="M1659.3,2407.48l4.13,4.32Z"/><path class="cls-13" d="M1615.41,2351.61,1545,2389.77l-61.77,29.88-3.94,3.85.14-.23c-7-1.51-12.69,2.14-18.66,4.59-10.88,4.47-21.66,9.16-32.53,13.65-13.84,5.71-27.73,11.31-41.6,16.95-7.07,1.69-14.26,3-21.18,5.13a310.62,310.62,0,0,1-78.06,14c-12.27.58-25-2.18-37.07-5.38-17.31-4.6-27.37-17.84-34.3-33.65-2.65-6-5.22-12.11-7.84-18.17-.39-4.65-.42-9.35-1.21-13.92a501.31,501.31,0,0,1-7.27-85.44c0-38,3.53-75.75,6.9-113.56,3.9-43.81,11.22-87.08,18-130.46,1.52-9.82,2-19.78,3-29.68,4-15.4,8.17-30.76,12-46.21,4.77-19.29,9.26-38.64,13.94-58.21,4.11-1.05,7.2-2.38,10.35-2.57,84.08-5,164.34,9.4,239.75,47.74,11.83,6,23,13.45,34.46,20.11,5.76,3.33,5.45,8.53,4.73,14-1.61,2.85-3.47,5.58-4.79,8.55-15.08,33.8-30.17,67.6-45,101.52-1.48,3.41-1.12,7.63-1.62,11.48l.21-.31c-4.94,1-4.46,4.69-4.25,8.29l.24-.3-6.31,4.28q-.88,2.82-1.75,5.65l-4.17,10.4.23-.35c-2.49,3-5.57,5.66-7.36,9-17.82,33.43-37.5,65.72-58.49,97.24-2.06,3.09-3.46,6.64-5.32,10.28,2.54.52,3.88,1.23,5,1q36.82-8.49,73.6-17.24c2.48-.59,4.71-2.18,7.06-3.31l9.44-.83c3.88-.63,7.8-1.07,11.62-1.94q40.33-9.24,80.63-18.64c9-2.21,17.91-4.7,27-6.54,5-1,10.33-2.74,16,2.46-9.52,16.13-20.42,32.4-22.53,51.58S1609.74,2332.81,1615.41,2351.61Z"/><path class="cls-14" d="M1227.56,2047.32c-1,9.9-1.52,19.86-3,29.68-6.74,43.38-14.06,86.65-18,130.46-3.37,37.81-6.93,75.56-6.9,113.56a501.31,501.31,0,0,0,7.27,85.44c.79,4.57.82,9.27,1.21,13.92-12.77-.09-24.48-4.84-35.91-9.5-12.65-5.16-24.52-12.23-36.73-18.47,2.85-20.2,4.81-40.58,8.77-60.57,5.25-26.49,11.61-52.79,18.33-79,6.91-26.86,14.32-53.61,22.42-80.12,11.21-36.68,23.18-73.13,35.07-109.6C1221.88,2057.66,1225,2052.59,1227.56,2047.32Z"/><path class="cls-23" d="M1479.54,2161.31q.87-2.83,1.75-5.65c3.29.32,5.34-1.19,6.31-4.28l-.24.3c3.17-1.86,4.72-4.56,4.25-8.29l-.21.31c15.49-12.93,30.18-27,48.92-35.41a23.87,23.87,0,0,0,3.88-.69c27.2-9.57,54.26-8.49,81.23,1,1.86.65,3.79,1.07,5.71,1.61l18.62,12.69c-2.66.07-5.58.89-7.93.08-14.88-5.1-30.24-3.74-45.44-3.46-39.45.74-67.85,20.69-87.45,53.44-14.17,23.68-17.32,49.67-10.85,76.76,1.37,5.73,1,11.86,1.45,17.8l-9.44.83c-1-1.69-2.09-3.36-3-5.08-13.62-24.59-19.1-50.39-12.19-78.24,1.08-4.34.53-9.08.74-13.64l-.23.35C1480.75,2169.84,1479.89,2165.47,1479.54,2161.31Z"/><path class="cls-14" d="M1540.32,2108.29c-18.74,8.44-33.43,22.48-48.92,35.41.5-3.85.14-8.07,1.62-11.48,14.8-33.92,29.89-67.72,45-101.52,1.32-3,3.18-5.7,4.79-8.55.19,3.27.88,6.62.48,9.82-2.14,16.82-4.81,33.57-6.78,50.41C1535.45,2091.22,1532.26,2100.67,1540.32,2108.29Z"/><path class="cls-18" d="M3043,2138.87c9,6.2,12.38,14.62,12,25.61-.6,19.22-.16,38.47-.17,57.71,0,1.32.05,2.65,0,4-.71,13.58-8.18,22.18-19.9,22.94-11.42.73-21.25-7.76-21.7-21.12-.77-23.19-.58-46.43,0-69.63.26-11.29,7.57-17.92,18.06-21.15Z"/><path class="cls-8" d="M5251.26,2659.72c3.19.26,6.47.12,9.55.85,41.92,9.91,83.74,20.26,125.73,29.86,49.74,11.37,99.68,21.86,149.42,33.22,55.57,12.68,111,26,166.52,38.87,34.21,7.95,68.48,15.67,102.72,23.53q70.73,16.23,141.44,32.52,69.76,16,139.56,31.84c11.63,2.64,23.31,5.06,34.93,7.72,39.38,9,71.71,29.89,101,57.34,35,32.83,53.29,74,64.32,119.29,1.09,4.45.8,9.25,1.12,13.89.36,5.3-.27,10.89,1.24,15.84,2.24,7.34,2.79,14.16.07,21.43-1.12,3-1.19,6.55-1.17,9.85.16,26.61-9.21,50.61-19.43,74.58-13.68,32.11-35.95,57.58-61.91,79.68-26.67,22.72-58.1,37.08-92.32,45-24.9,5.79-50.34,6.41-75.38,3.72a209.29,209.29,0,0,1-79.2-25.3,233.69,233.69,0,0,1-80.55-73c-15.9-23.15-27.88-48.42-33-76.28-3.7-20.17-8.37-40.48-6-61.15,2.07-17.74,4.45-35.62,8.93-52.85,5.44-21,2.32-41.27-3.44-60.84a148.5,148.5,0,0,0-22.89-46.12c-15.65-21.35-35.68-35.75-59.32-45.5-28.86-11.89-58.25-22.47-87.43-33.57q-65.19-24.79-130.42-49.49c-24.86-9.39-49.83-18.46-74.67-27.88-35.41-13.42-70.72-27.1-106.12-40.53-34.16-13-68.39-25.73-102.55-38.69-4-1.5-7.68-3.68-11.52-5.55C5250.75,2661.24,5251,2660.48,5251.26,2659.72Z"/><path class="cls-17" d="M5243.69,2603.46c-4.67-22.51-9.28-45-14.06-67.52-2.59-12.21-5.49-24.37-8.25-36.55,4.14,2.08,8.51,3.81,12.39,6.29q110.74,70.93,221.38,142c-2.26,3.21-5.34,3.23-8.78,2.45q-32.85-7.47-65.71-14.83-62.86-14.05-125.73-28.1C5251.1,2606.35,5247.43,2604.73,5243.69,2603.46Z"/><path class="cls-15" d="M4680.38,3083c24.47-.21,48.95-.53,73.43-.56,8.69,0,16.73-.76,24.68-5.44,10.65-6.27,22.73-6.46,34.71-3.85,13.55,3,27.05,6.07,40.56,9.11,1.42,3.71,3.27,7.33,4.21,11.18,4.27,17.47-6,32.22-23.89,34.08-9.21.95-18.51,1.13-27.79,1.66-7.25-.43-14.49-1.19-21.73-1.23-23.83-.16-47.66,0-71.49-.08-4.63,0-9.33.21-13.88-.44-14.77-2.12-25-14.64-23.47-29.4C4676.23,3092.88,4678.77,3088,4680.38,3083Z"/><path class="cls-8" d="M5241,2657.64c-.53.27-1.09.78-1.59.73s-.94-.65-1.41-1Z"/><path class="cls-16" d="M4367.12,2342.43c5.1,8.5,4.2,17.92,4.2,27.2v319.25q0,75.82,0,151.65c0,6.54-.41,13.09-.65,20.5-4.66.92-8.39,2.3-12.13,2.31q-104.74.19-209.5.11c-5.33,0-10.78.36-14.41-4.78,11.71-26.78,23.2-53.65,35.18-80.31q94.81-211.05,189.87-422C4361.81,2351.57,4364.61,2347.07,4367.12,2342.43Z"/><path class="cls-17" d="M4739.55,1651c-.91,2.42-1.3,5.23-2.8,7.19-11.65,15.17-23.67,30-35.2,45.31-3.83,5-8.11,8.33-14.47,9.19a63,63,0,0,0-11.5,2.86c-26.34,8.74-42,26.31-44.62,54.49-.31,3.27-.73,6.53-1.1,9.8l-54.06,2.5c2.32-2.34,4.51-4.84,7-7,12.1-10.41,19.36-23.25,20.38-39.4.12-1.9.92-3.76,1.59-6.31,19.2-11,38.79-22,58.08-33.45,19.89-11.83,39.43-24.26,59.25-36.21C4727.68,1656.59,4733.72,1654,4739.55,1651Z"/><path class="cls-14" d="M1386.59,2458.46c13.87-5.64,27.76-11.24,41.6-16.95,10.87-4.49,21.65-9.18,32.53-13.65,6-2.45,11.7-6.1,18.66-4.59-1.65,11.24-11.5,17.42-16.45,26.64-2.46,4.58-5.18,9-7.79,13.52-11.69-1.29-23.35-2.91-35.07-3.77C1408.94,2458.85,1397.75,2458.83,1386.59,2458.46Z"/><path class="cls-17" d="M1386.94,2835.55c8.77-5.81,19.27-4.85,28.88-6.5,61.75-10.64,122.13-26.69,182.17-44.27q53.63-15.69,107.54-30.41a175.38,175.38,0,0,1,27.48-4.82c14.82-1.58,21.51,2.69,24.81,16.75,20.88,89.11,61.46,170,104.61,249.7,21.86,40.39,45.59,79.76,68.4,119.64,3,5.17,5.42,10.61,8.11,15.92l-195.31.1c-.31-7.26-.88-14.52-.89-21.78q-.09-110.33-.08-220.66c0-7.25-.65-14.51-1-21.76.21-5.93,1.19-11.94.49-17.75-2.27-18.71-15.16-31.11-34-33.2a128.53,128.53,0,0,0-13.89-.3q-48.69,0-97.37,0-54.63.14-109.27.48c-11.83-.19-23.66-.44-35.49-.57Q1419.55,2835.79,1386.94,2835.55Z"/><path class="cls-25" d="M1487.65,2836.7q54.64-.25,109.27-.48,48.69-.12,97.37,0a128.53,128.53,0,0,1,13.89.3c18.82,2.09,31.71,14.49,34,33.2.7,5.81-.28,11.82-.49,17.75-5.3,2.58-11,4.59-15.83,7.84q-54.22,36.38-108.13,73.2c-32.07,22-63.79,44.53-95.88,66.5-5.3,3.62-11.73,5.59-17.63,8.32q-.26-69.93-.52-139.86c0-11.33-.26-22.66,0-34,.18-7.8-2-14.31-7.76-19.72C1492.09,2846.19,1487.69,2842.77,1487.65,2836.7Z"/><path class="cls-23" d="M1043.75,3262.77c-11.65.46-18.08-3.14-22.65-8.47-4.12-4.81-7.75-11-9.06-17.08-4.43-20.58,2.12-34,21.59-45-.44,3.26-.24,5.63-1.11,7.5-2.74,5.91-7.52,11.36-8.54,17.48-2.18,13.14-2.41,26.49,10.45,35.7C1037,3254.72,1038.87,3257.52,1043.75,3262.77Z"/><path class="cls-23" d="M1044.9,3189.62c-.53.28-1.09.8-1.59.76s-.94-.66-1.4-1Z"/><path class="cls-19" d="M1962.59,3198.76c6.44,3.13,13,6,19.25,9.47,4,2.21,7.25,5.74,11.27,7.88,9.61,5.12,18.55,5,27.11-3.18a185.65,185.65,0,0,1,23-18.54c4.74-3.26,10.66-4.79,16.06-7.1-10.17,18.47-25.35,32.07-42.62,43.58a19.75,19.75,0,0,1-20.91,1.22c-13.56-7-26.88-14.44-40.29-21.71C1955.84,3205.27,1958.66,3201.68,1962.59,3198.76Z"/><path class="cls-19" d="M1499.54,2267.49c-.44-5.94-.08-12.07-1.45-17.8-6.47-27.09-3.32-53.08,10.85-76.76,19.6-32.75,48-52.7,87.45-53.44,15.2-.28,30.56-1.64,45.44,3.46,2.35.81,5.27,0,7.93-.08,12.62,9.21,26.06,17.51,37.66,27.86,14.38,12.84,24,29.35,29.25,48.1-22.86,2.75-43.25,11.85-62.27,25.14-10.93-5.81-21.42-11.3-31.82-16.95-6.9-3.75-13.57-4.21-20.88-.68-10.1,4.87-15.25,12-14.55,23.59.37,6.13,1.08,11.87,4.63,17q-40.29,9.32-80.62,18.63C1507.34,2266.42,1503.42,2266.86,1499.54,2267.49Z"/><path class="cls-23" d="M1777.52,2298.47c-16.08,1-30.6,1.22-40.91,13.73-8.6,10.44-10.08,15.83-7.87,41.17-6.85-.94-8.33-6.75-8.65-11.3-.75-10.4-3.75-21.57,2.68-31,6-8.86,14-16.72,24.94-18.67C1757.18,2290.68,1767.46,2289.23,1777.52,2298.47Z"/><path class="cls-14" d="M1479.24,2423.5l3.94-3.85Z"/><path class="cls-14" d="M1475.6,2171.36c-.21,4.56.34,9.3-.74,13.64-6.91,27.85-1.43,53.65,12.19,78.24,1,1.72,2,3.39,3,5.08-2.35,1.13-4.58,2.72-7.06,3.31q-36.75,8.79-73.6,17.24c-1.13.26-2.47-.45-5-1,1.86-3.64,3.26-7.19,5.32-10.28,21-31.52,40.67-63.81,58.49-97.24C1470,2177,1473.11,2174.35,1475.6,2171.36Z"/><path class="cls-14" d="M1479.54,2161.31c.35,4.16,1.21,8.53-4.17,10.4Z"/><path class="cls-14" d="M1491.61,2143.39c.47,3.73-1.08,6.43-4.25,8.29C1487.15,2148.08,1486.67,2144.35,1491.61,2143.39Z"/><path class="cls-14" d="M1487.6,2151.38c-1,3.09-3,4.6-6.31,4.28Z"/></g></g></svg>