<svg xmlns="http://www.w3.org/2000/svg" viewBox="0 0 9201.62 6542.96"><defs><style>.cls-1{fill:#e8f2f7;}.cls-2{fill:#28aab4;}.cls-3{fill:#ee8e49;}.cls-4{fill:#1a3864;}.cls-5{fill:#f2a77d;}.cls-6{fill:#3f3856;}.cls-7{fill:#ed8e4a;}.cls-8{fill:#ea7731;}.cls-9{fill:#ed8440;}.cls-10{fill:#93c597;}.cls-11{fill:#183763;}.cls-12{fill:#95c699;}.cls-13{fill:#e6f1f6;}.cls-14{fill:#f7fcfc;}.cls-15{fill:#e8f1f5;}.cls-16{fill:#e8eff2;}.cls-17{fill:#e7f1f5;}.cls-18{fill:#c7dbe4;}.cls-19{fill:#ee915d;}.cls-20{fill:#f0a67d;}.cls-21{fill:#7da789;}.cls-22{fill:#fff;}.cls-23{fill:#0c2a4a;}.cls-24{fill:#ec9352;}</style></defs><g id="Capa_2" data-name="Capa 2"><g id="Capa_1-2" data-name="Capa 1"><path class="cls-1" d="M8361.36,3580.62q.27,73.86.48,147.73c0,6.63.9,13.89-1.4,19.78-8,20.58-6.19,41.87-6.48,63.07-.28,19.87,1.55,39.83-6.38,59.07-2.39,5.82-1.41,13.13-1.55,19.77-.36,17.23.8,34.47-6.28,51.09-2.46,5.79-1.64,13.11-1.7,19.74-.11,10.71-.69,21.21-5,31.28a33.74,33.74,0,0,0-2.59,11.6c-1.09,26.65-9.55,51.95-13.82,78-7.53,45.87-22.85,89.86-31.34,135.3-6.07,32.54-17.85,63.84-20.1,97.09-10.06,22.2-5,47.37-13.9,70-2.75,7-.93,15.8-1.31,23.76-.31,6.64.83,13.89-1.47,19.79-8.51,21.88-6.36,44.54-6.44,67-.18,50.57-.09,101.15,0,151.73,0,14.6-.94,29.3,5.56,43.17,1.63,3.47,2.07,7.79,2,11.7-.32,17.43,1.31,34.49,7.69,50.87,2.08,30.68,13.16,59.41,19.77,89.09,6,27.09,12.8,54.28,26.32,79,7.54,34,24.45,64.51,37.71,96.23,15.32,36.67,33,72.61,54.6,106.3a155.86,155.86,0,0,1,8,13.74c15,29.65,33.67,57.14,50.16,85.88s36.21,55.61,53.22,84c19.1,31.92,40.9,62.11,59.77,94,14.15,23.93,27.06,48.79,41.8,72.39,19.07,30.54,34.19,63,50.83,94.78,25.4,48.48,43.67,99.81,58.91,152,8.47,29,17.93,58.3,20,89,7.62,19,7.71,38.86,7.47,58.87-.08,6.57,0,13.72,2.38,19.63,7.84,19.35,5.06,39.41,5.22,59.21.16,18.5,1.81,37.11-5.38,55.21-2.82,7.08-2.91,15.83-2.18,23.62,2.81,29.72-5.57,58-11.15,86.45-5.85,29.78-12.35,59.51-20.37,88.92-11.19,41-24.93,81.11-39.76,120.87-8.34,22.35-16.92,44.64-26.16,66.64-6.18,14.68-13.64,28.83-20.66,43.16-9.37,19.11-18.62,38.29-28.41,57.19-4.45,8.6-5.9,17.54-6,26.94-7.89.53-15.78,1.52-23.68,1.52q-278,.12-556.05-.05c-11.86,0-23.72-1.43-35.57-2.19-3.76-3.65-6.87-8.85-11.37-10.7-27.16-11.18-55.15-19.44-84.88-19.82-22.65-.29-45.3-.16-67.93-.71-7.9-.19-15.81-1.54-23.6-3a9.33,9.33,0,0,1-5.85-4.81c-.79-1.82-.2-5.67,1.22-6.8,11.43-9.14,22.86-18.32,34.92-26.58,37.31-25.59,74.52-51.37,112.53-75.9,22.75-14.69,41.14-33.65,59.09-53.32,8.21-9,13.52-19.8,16.54-31.55,4.89-19-3.4-38.49-20.28-47.75a124.46,124.46,0,0,0-18.08-8.39c-22.23-7.89-44.08-7.64-65.8,2.73-22.31,10.65-39.36,27-53.57,46.73-32.15,44.53-57.11,92.85-76.25,144.29-6,16.16-13.05,32-19.89,47.8-2.1,4.87-8.17,7-13.49,5.57-1.28-.35-2.56-.74-3.82-1.18-13.88-4.87-17.29-11.27-12.57-23.85,7-18.69,13.83-37.45,21.18-56q19.11-48.22,38.79-96.2c13.68-33.54,34.74-62.8,54.28-92.94,15.2-23.44,30-47.12,45.2-70.57,9.55-14.76,14.94-31.25,19.61-47.87,3.28-11.68,2.12-23.53-3.28-35-8.3-17.67-23.72-24.73-41.14-28-10.36-2-21.22-1.32-31.86-1.65-16.85-.51-31.49,5.69-43.74,16.65a153.15,153.15,0,0,0-21.22,23.69c-17.4,23.79-30.54,49.95-40.16,77.77-25.31,73.18-40.16,148.63-48.58,225.46-.72,6.61-.4,13.55-2.37,19.76-4.53,14.26-4.51,28.87-5.34,43.48-.3,5.29-1.05,10.57-1.76,15.83-.59,4.39-6.74,9.93-11.28,9.64-10.59-.66-21.77.17-31.6-3-18.06-5.87-34.38-1.06-50.51,5.06-15.37,5.83-26.33,17.84-35.93,30.8-6.89,9.31-5.43,20.2-4.47,30.85-11.9.61-23.8,1.73-35.7,1.74q-364.45.15-728.93,0c-11.89,0-23.79-1.16-35.69-1.78,3.87-23.55,8.82-46.71,9.06-71,.44-46-18.6-83-49.67-113.83-20.67-20.5-44.94-37.87-72-49.71-34.11-14.93-68.76-28.43-105.17-37.26-66-16-132.32-29.12-200.33-32.28-4-.18-8.14-.11-11.9-1.23-22.09-6.6-44.85-5.25-67.43-6.1-17.31-.65-35,.89-51.82-2.29-23.85-4.51-47.67-4.72-71.59-4.79q-181.87-.51-363.75-.62c-12,0-23.95-.52-35.91-1-.68,0-1.6-1.68-1.85-2.71s-.33-2.92.31-3.44c23.83-19.2,48.18-37.77,71.5-57.55a627.23,627.23,0,0,0,46.27-43.94c11.16-11.62,18.09-26.26,23.29-41.52,4.47-13.15-7.59-27.47-21.9-25.73-5.15.63-10.68,1.88-15,4.5-18.39,11-35.23,24.28-48.62,41.05-24.89,31.18-50.67,61.71-72.9,94.95-27.19,40.66-21,35.35-71.6,34.82-2.6,0-5.17-1.11-7.79-1.43-3-.36-6.61-6.39-5.37-9.25,3.17-7.3,6.23-14.67,9.77-21.79,20.14-40.56,40.74-80.88,60.53-121.61A783.75,783.75,0,0,0,5727,5906.94c8.48-30.74,14.13-62.06,13-94.47a112.61,112.61,0,0,0-14.91-53.1c-7-12.36-17.38-20-30.24-24.66-10.69-3.86-21-2.61-30.14,4.65-8.4,6.7-15.9,14.29-20.87,23.92-9.75,18.91-19.34,37.78-24.71,58.69-15.22,59.29-28.14,118.93-32.53,180.16-.38,5.28-1.84,10.47-2.54,15.73-1.55,11.84-3.26,23.68-4.29,35.57-.92,10.61.73,21.72-1.78,31.86-6.85,27.53-5.47,55.55-7.21,83.4a39.29,39.29,0,0,1-2.38,11.58,9.89,9.89,0,0,1-5.33,5.36,49.1,49.1,0,0,1-38.59-3.28c-3.23-1.68-6.67-5.35-7.55-8.74-3.31-12.86-7.26-25.89-8-39-2-36.1-11.56-70.8-18.09-106-5.59-30.14-16.5-58.88-27.7-87.37a79.91,79.91,0,0,0-26.4-34.47c-9-6.87-20.56-6.37-29,1.78-5.93,5.71-10,12.4-10.75,20.77-.83,9.38.76,18.4,2.72,27.63,10,47.22,28.58,91.32,48.58,134.88,9.44,20.57,20.07,40.59,29.94,61a30.16,30.16,0,0,1,3.07,11.25c.1,1.89-2.5,5.53-4,5.59-5.13.23-10.6.1-15.43-1.47-63.64-20.58-123.29-49.89-180.92-83.5-41.42-24.16-80.91-51.33-120.69-78-81.78-54.91-163.08-110.6-250.78-156-13-6.73-25.69-14.24-39.14-19.9-42.9-18.06-84.93-38.32-129.61-51.94-11.52-3.52-17.4-11.55-19.21-23.08,7.45-37.83,14.68-75.7,22.38-113.47,19.91-97.67,40.46-195.22,59.93-293,14.73-74,21.91-56.26-45.87-90.23.07-7.95-1.51-16.36.55-23.77,5.43-19.57,4.45-39.57,6.27-59.39,1.94-21.14,4.94-42.17,7.21-63.28,1-9.25-.13-19,2.22-27.79,5.57-20.92,5-42.2,6.13-63.42.56-10.63-.4-21.65,2.11-31.8,5.5-22.31,4.79-44.9,5.76-67.46,1-23.88-.56-48,5.71-71.44-.12-31.91,1.48-63.95-.88-95.69-2.07-27.68-7.79-55.21-13.44-82.48-4.86-23.5-6.25-47.43-10.68-70.87a259,259,0,0,1-4.94-43.48c-.57-31.94-.41-63.9-1.24-95.83-1-37.54,6.54-74,12.82-110.66,4.27-24.85,10.13-49.38,13.38-74.46,2.89-22.34,7.94-44.4,11.8-66.62,3.64-20.92,7.8-41.8,10.28-62.87,4.2-35.6,9.08-71.07,15.66-106.32,1.21-6.5,1.07-13.25,1.56-19.89,8.64-2.85,17.3-5.62,25.9-8.56,20.81-7.11,43.2-9.64,62.39-21.45,10.33-2.34,20.94-3.84,30.93-7.17,26.48-8.82,52.92-17.84,79-27.83,77.09-29.59,151.91-64.08,223.46-105.43,5.67-3.27,11.87-6.16,14.67-12.86-.16-2.6,0-5.32-.56-7.87-16.23-71.3-32-142.71-49-213.84q-43-180.47-90.36-359.84c-41-155.62-83.78-310.71-129.64-465-47-158.09-96.43-315.41-150.61-471.2-10.47-30.11-19.69-60.7-33.13-89.73a26.35,26.35,0,0,0-4.05-17.09c5.57,3.47,12.17,6,16.51,10.59,12.13,12.93,27.09,21.23,42.47,29.29,36.65,19.22,75.2,33.61,114.77,45.32,31.38,9.28,39.5,5.81,55.39-21.81,23.37-40.63,39.75-84.05,51.87-129.18a84.84,84.84,0,0,0,3-15.62c3.86-53.26,5.54-106.34-14.36-157.44,22.5-4.82,42.25-16.37,61.14-28.34,15.81-10,32.33-18.36,48.7-27.15,55.11-29.59,113.25-52.5,170.71-76.89,11-4.65,22.69-7.5,33.94-11.53,16.24-5.81,32.34-12,48.56-17.89,6.21-2.24,12.55-4.12,18.87-6,7.6-2.28,15.38-4,22.86-6.65,57.68-20.17,118-30.57,176.47-47.81,21.47.39,41.09-10,62.71-10.19,11.65-.07,23.17-5.41,34.93-6.87s23.69-1.19,35.3-5.45c7.24-2.66,15.63-2.62,23.55-2.93,10.67-.41,21.19-.73,31.32-4.92,11.42-4.72,23.63-2.9,35.55-3.17,15.92-.36,31.69.34,47.29-5.42,8.38-3.1,18.34-2.4,27.6-2.49,30.63-.28,61.26,0,91.88-.25,9.29-.06,19.43,1.28,27.7-1.89,20.79-8,42-5.32,63.19-5.77,5.28-.11,11.13-.51,15.8,1.44,19.19,8,39.22,6.12,59.1,6.27,21.3.16,42.61,0,63.91.12,17.24.12,34.22-.16,51.26,5.48,10.95,3.62,23.68,2.06,35.62,2.42,14.6.44,29.37-1,43.17,5.71a19.79,19.79,0,0,0,7.76,1.63c12,.48,24.05-.11,35.9,1.3s23.22,6.21,35,6.89c16,.92,31.44,2.9,47,7.12,13.86,3.76,29.33.22,42.86,7.48,46.22,4.88,90.43,19.75,136.19,27.24,24.73,4,49,11.49,73.16,18.47,53.54,15.45,106.41,33.06,159.45,50.18,41.74,13.47,82,30.81,123.77,44.11,20.14,6.41,37.72,19.71,58.67,24.73,58.59,28.45,119.43,52.29,176.24,84.33,19.65,11.08,38.91,22.8,59,33.14,18.87,9.7,37.26,20.44,55.25,31.69,39.37,24.63,79.46,48.34,117.13,75.38,29,20.85,58.92,40.65,87,62.78,16.66,13.11,31.42,28.6,49.76,39.61,11.55,15.18,30,21.82,43.17,35.07,12.18,12.3,24.52,24.44,36.8,36.63,1.89,1.88,3.58,4.11,5.79,5.49,34.35,21.42,59.09,53.32,88.08,80.59,6.79,6.38,12.75,13.7,19.89,19.63,14.59,12.13,23,29.14,35.3,43s27.68,25.52,38.42,40.48c10.14,14.13,22.39,26.33,32.41,40.22,9.37,13,19.45,25.09,29.87,37.16a428.22,428.22,0,0,1,30.94,41.38c29.58,44.07,60.17,87.6,86.29,133.78s54,91.76,74.78,140.79c16.55,39.07,33.64,77.93,49,117.55,11.51,29.74,22,59.76,32.35,89.89,9.08,26.4,16.32,53.2,22.74,80.29a183.11,183.11,0,0,0,5.54,19.07c8.93,25.07,12.35,51.43,18.06,77.24,4.85,21.93,9.05,44,13.36,66.06,1.27,6.48,2.07,13.07,2.82,19.64.45,3.95-.64,8.36.71,11.9,10.27,27,6.71,55.13,7.61,82.9-5.42-3.72-11.12-7.09-16.19-11.25-17.45-14.33-34.62-29-52-43.43-149.58-123.81-305.36-239.41-465.41-349.25q-182.43-125.2-371.81-239.75-112.6-68-227.83-131.42c-24.37-13.35-48-28.35-74.27-38-11.74-11.34-27.06-16.66-41.11-24Q6759.47,2446,6406.66,2301.12c-61.5-25.23-123.51-49.25-185.33-73.69a113.07,113.07,0,0,0-19-5.74,13.8,13.8,0,0,0-14.1,5.41,134.16,134.16,0,0,0-8.75,13.33q-40.44,68.87-80.77,137.8-136.17,232.62-272.28,465.26A2603.67,2603.67,0,0,0,5645,3220.92c-48.44,125.51-88.25,253.73-117.81,385.06-18.41,81.77-33.59,164.09-44.72,247.22-3.54,26.41-5,53-9.13,79.26-7.05,44.84-5.4,90.34-12,135.14-3.46,131.8-4.52,263.45,12.52,394.69,6.85,52.79,14.42,105.34,24.76,157.57,18.41,93,44.56,183.51,82,270.62,29,67.57,64.76,131.26,112.2,187.91,28.41,33.93,60.41,63.92,98.38,86.82,38.74,23.37,78,45.86,117.24,68.4a438.11,438.11,0,0,0,91.37,39.52c6.23,1.89,13,1.89,19.56,2.76,3.55,1.81,6.92,4.5,10.69,5.29,44.24,9.29,88.59,18.46,134,18.9,57.16.55,114.48,3.63,171.27-6.36,46.72-1.6,92.47-10.92,138-19.93,66.43-13.15,131.95-30.63,196.59-51.2,71-22.59,140.5-49,209-78.35a2418.91,2418.91,0,0,0,242.66-120.95A2523.27,2523.27,0,0,0,7436,4812.05c69.05-54.37,135.71-111.53,198.88-172.68a2431.37,2431.37,0,0,0,181.69-196.15c79.1-95.48,151.18-195.9,214.06-302.82,39.79-67.67,79.19-135.55,118.87-203.28Q8243.29,3777,8337.34,3617C8344.69,3604.48,8350.37,3590.76,8361.36,3580.62Z"/><path class="cls-1" d="M551,6515.16c-17.7-21.46-35-43.37-51.9-65.34q-53.41-69.22-101-142.83c-22.41-34.49-44.83-69-66.79-103.76a58.53,58.53,0,0,1-4-6.88c-19.26-42.43-46.58-80.56-65.69-123.09-6.54-14.55-14.4-28.5-21.54-42.79-19-38-35.67-77.08-50.89-116.77-2.86-7.44-6.8-14.45-10.23-21.66s-7.8-14.14-10.09-21.7c-13.13-43.22-31.68-84.48-45.11-127.63-15.77-50.65-28.66-102.05-43.12-153-3.33-33-12.25-65-18.32-97.46-3.66-19.59-8.28-38.86-7.84-58.92-9.2-20.14-6.94-41.71-7.88-62.88-10.85-29.6-6.93-60.43-7.56-90.87-.41-19.87,2-40-6.54-59-1.39-26.52-4.76-53.21,2.56-79.28a115.21,115.21,0,0,0,3.92-31.49c0-18.64,0-37.28.08-55.93.05-15.93-.38-31.73,5.7-47.2,2.79-7.1,2-15.73,2.2-23.68.39-13.29-.53-26.69,5.72-39.16a16.84,16.84,0,0,0,1.66-7.75c-1.21-39,12.67-75.59,18.36-113.5,4.29-28.63,13.87-56.56,22.17-84.48,7.56-25.4,13.42-51.24,22.6-76.25,22.88-62.29,43.54-125.37,73.24-185,8.83-17.73,16-36.24,26.5-53.21,5.56-8.94,9-19.2,13.27-28.93,1-2.42.81-5.6,2.3-7.59,19.26-25.72,29.26-56.59,46.86-83.32,19-28.8,36.22-58.72,54.19-88.17,1.38-2.26,2-5.11,3.78-7,27.17-29.43,44.54-65.84,69.66-96.89,28.29-35,53.82-72.19,80.53-108.45,1.58-2.13,2.58-4.86,4.52-6.53,23.32-20.16,37.45-48.27,60-69.07,2.93-2.7,6.23-5.4,8.07-8.8,12.35-22.7,32.32-38.64,49.69-56.88,14.63-15.36,31.2-28.9,41.61-48.12,3.68-6.78,10.59-11.85,16.22-17.52q26.75-26.91,53.67-53.67c10.36-10.29,20.8-20.18,33.4-28.2,11-7,19.71-17.7,29.42-26.78,14.56-13.61,27.64-29.49,44.08-40.23,16.85-11,29.06-26.93,46.59-37.27,16.89-10,30.64-25,46.76-36.87,19.21-14.08,37.83-29,57.55-42.44,9-6.11,16.23-13.72,20.73-23.74,4.35,4.94,9.15,9.57,13,14.87a2656.07,2656.07,0,0,0,202.79,246.69c121.75,131.07,254.38,250,399.09,355.46,136,99.11,279.64,185.07,433.28,254,108.37,48.64,220,87.48,336.49,111.66,41.69,8.65,83.74,16.13,126.25,18.32,39.85,2.06,79.93,2.51,119.78.79,67.29-2.92,131.47-18.9,190.73-52.23,30.16-17,60.37-33.9,91.06-49.89,58.81-30.63,107.56-73.08,150-123.58,45.7-54.32,83-114,115.37-176.91,49.59-96.24,85.41-197.75,114.52-301.77,21.89-78.21,36.59-158,51.23-237.77,17.38-.55,34.55-1.9,50-11.27a42.56,42.56,0,0,1,11-4.64c24.55-6.54,47-18.31,70.44-27.52,32.31-12.71,62.8-28.83,93.89-43.87,37.12-18,72.29-39.37,107.46-60.76,7.28-4.43,15-5,23-5.24,3.94,34.17,9,68.24,9.73,102.72.24,10.59,1,21.19,2.12,31.72,4.08,38.15,8.45,76.27,12.65,114.41,3.63,32.89,6.22,65.93,11,98.65,6.49,44.51,14.08,88.87,22.24,133.1,6.49,35.12,14,70.1,24.51,104.29,3.51,11.38,7.83,22.5,11.67,33.77,3.32,9.75,10.77,14.63,20.08,17.41a32.59,32.59,0,0,0,3.82,1.11q33.24,5.64,66.52,11.22c2.45,7.59,5.42,15.05,7.27,22.77,21,87.76,45.59,174.53,70.83,261.15,11.52,39.54,18.27,80.23,18.61,121.55.48,58.48.11,117-.1,175.46,0,10.61.85,21.76-2,31.74-7.69,27.17-3.79,55.67-11,82.87-1.95,7.42-1.67,16.16.1,23.71,5.25,22.31,3.58,45,5,67.46.85,13.24.54,26.76,3.25,39.63,3.05,14.45,3.94,28.9,4.9,43.47.6,9.27.43,18.84,2.83,27.68,3.89,14.33,3.93,28.9,5.56,43.39,1.78,15.79,4.78,31.44,7.06,47.18q4.28,29.51,8.24,59.06c3.53,26.27,6.47,52.64,10.53,78.83,3.45,22.25,8.44,44.26,12.09,66.48,1.27,7.77.58,15.87.79,23.82-.93.94-1.7,2.18-2.81,2.79-9.21,5-12.53,12-10.26,22.82q38.14,182.64,75.42,365.45c3.64,18,10.15,35.74,9.55,54.58-11.55,3-23.16,5.86-34.62,9.19-28.08,8.14-56.67,14.95-84,25.18-43.55,16.32-87.25,32.56-128.73,53.93q-88.71,45.7-177.44,91.39a16,16,0,0,1-7.53,2c-2.41-.08-5.79-.91-7-2.63a50.24,50.24,0,0,1-7-14c-18.69-65.12-35.87-130.7-55.94-195.38-34.28-110.49-71.22-220-117.9-326.17-24.7-56.15-51.51-111.05-83.89-163.05a402.6,402.6,0,0,0-77.43-90.83c-25.3-22.06-54.11-33.29-88.14-28.76-24.14,3.21-50.48,19.18-55.94,54.21-3.06,19.68-3.21,40,1.09,59.62,9.11,41.66,22,82.26,39.69,121.06,28.7,63,60.53,124.56,96.6,183.62,41.58,68.08,84.24,135.47,130,201,46.44,66.51,93.76,132.37,141.11,198.22,6.2,8.63,12.8,17,19.08,25.55,2.72,3.74,1,11.79-3.28,14-23.66,12-47.33,24-71.33,35.31-2.46,1.16-8.28-1.16-10.49-3.67-14.95-16.94-29.86-34-43.8-51.73-29.61-37.73-63.47-71.66-95.35-107.34-24.79-27.74-52.57-52.64-81.39-76.43-21.59-17.81-43.78-34.58-66.71-50.55-22.18-15.45-46.42-25.17-72.62-31.62-17.06-4.2-31.55-.59-45.78,7.56-15.87,9.08-22.64,27.1-16.76,44.76,3.82,11.46,9.48,22.17,18.05,30.77,19.72,19.79,38.34,41.08,60.11,58.36,50,39.68,102,76.74,157.11,109.25q68.73,40.56,137.38,81.22c2.22,1.32,4.69,3.12,5.68,5.31.9,2,.88,5.73-.42,7.1a28.64,28.64,0,0,1-9.79,6.56c-91.54,37.39-185.81,63.81-285,70.32-6.6.44-13.11,2.07-19.69,2.92-9.21,1.19-18.44,3-27.68,3.07-34.61.31-69.23.14-103.85-.11a147.4,147.4,0,0,1-23.84-1.89,279.63,279.63,0,0,0-99.14.21c-9.09,1.66-18.54,1.75-27.84,1.93-42.69.84-84.54,8.13-126.15,16.79A935.78,935.78,0,0,0,2538,6170.68c-57.85,27.43-111.89,61.31-163.06,99.81a1029.21,1029.21,0,0,0-85.66,71.57c-51.59,48.4-96,103.11-136,161.39-2.14,3.12-2.49,7.47-3.67,11.24-13.21.75-26.42,2.14-39.63,2.15q-346.38.19-692.76,0c-11.9,0-23.79-1.12-35.69-1.71-2.28-4.79-4.27-9.75-6.91-14.33-9.28-16.09-22.3-26-41.92-25.49-3.24.07-6.56-3-10-4.66,1.49-4.67,2.24-8.67,4-12.19,9.9-20,9.24-41.22,7.4-62.54-.6-7-4.37-12.48-10.25-16.29a33.09,33.09,0,0,0-26.45-4.81c-25.94,5.57-42.12,21.22-51.26,45.45-3.77,10-7.32,19.93-7.06,30.87.15,6.64-.27,13.29-.51,19.93-.27,7.55-4.71,11.81-11.22,14.83-9,4.18-16.92.08-18.85-8-2.15-9-2.77-18.41-5-27.41q-17.51-71.61-40.63-141.64c-14.64-44.43-34.29-86.44-56-127.65-17-32.16-39.64-59.81-67-83.55-26.38-22.87-56.65-34.05-92-28.81-10.48,1.56-20.2,10.7-21.35,20.8-2.3,20.16-.51,39.58,8.27,58.39a723.88,723.88,0,0,0,75.34,126.59c40.46,54.37,80.6,109,125.76,159.64,14.12,15.85,27.09,32.73,40.56,49.16,2.17,2.65-.92,8.25-4.7,8.85-8.19,1.32-16.28,1.17-22.18-5.44-6.17-6.91-11.52-14.56-17.29-21.83-24.25-30.56-52.7-56.06-87.71-74-30.07-15.39-61.46-14.27-93.33-8.78-5.94,1-9.78,11.8-5.66,16.32,4.38,4.81,8.94,10.1,14.55,13,24.79,12.84,49.79,25.33,75.09,37.12,26.5,12.35,53.47,23.67,80.09,35.75,1.64.75,2.07,4.17,3.34,6.94-21.46,0-42.68-.57-63.85.15-25.35.85-52.72,9.69-78.93,23.95-10.57.48-21.14,1.38-31.7,1.39q-182.73.15-365.46,0C569.42,6516.85,560.21,6515.75,551,6515.16Z"/><path class="cls-2" d="M3343.71,3566.81c-14.64,79.78-29.34,159.56-51.23,237.77-29.11,104-64.93,205.53-114.52,301.77-32.4,62.88-69.67,122.59-115.37,176.91-42.48,50.5-91.23,92.95-150,123.58-30.69,16-60.9,32.93-91.06,49.89-59.26,33.33-123.44,49.31-190.73,52.23-39.85,1.72-79.93,1.27-119.78-.79-42.51-2.19-84.56-9.67-126.25-18.32-116.47-24.18-228.12-63-336.49-111.66-153.64-68.95-297.25-154.91-433.28-254-144.71-105.45-277.34-224.39-399.09-355.46A2656.07,2656.07,0,0,1,1013.08,3522c-3.86-5.3-8.66-9.93-13-14.87-4-6.83-7.61-14-12.17-20.44C924,3396.31,867,3301.74,814,3204.6q-150.15-275.29-301.5-549.94c-8.87-16.19-18.83-31.95-24.56-48.25,4.45-11,12.88-15.68,20.1-21.34q132.12-103.53,268.44-201.45c182.8-131.52,369.8-256.67,563-372.52,227.52-136.45,462.68-258.28,704-368.4q192.65-87.92,390.09-164.37c89.46-34.41,179.4-67.48,270.88-96.2,5.08-1.59,10.07-4.11,15.25-4.54,3.5-.3,8.61,1.24,10.61,3.82,4.85,6.25,8.45,13.49,12.29,20.48q114.38,208.35,228.68,416.75Q3025,1916.73,3078.5,2015c95,173.86,164.92,357.54,213.84,549.29a2355.27,2355.27,0,0,1,50.38,254.39c6.12,43.5,11.14,87.09,16,130.75s5.32,87.71,8.75,131.48c4,50.57,4.69,101.15,3.32,151.73-1.47,54.56-3.5,109.19-8,163.58C3358.08,3453.19,3350.2,3509.94,3343.71,3566.81ZM2656.6,3535.4c-12,0-24-.77-35.93.19-14.56,1.17-29,3.8-43.51,5.78-57.37,7.83-111.31,26.38-161.84,54.2-75.21,41.41-133.88,100.23-178,173.68-48.63,81-76.33,169.49-93.43,261.69-3.21,17.36,4.22,31.41,19.21,40.71,13.61,8.44,27.78,8.1,41.63.29,5.79-3.26,11.2-7.19,16.78-10.82,26.77-17.44,53.42-35.07,80.33-52.29a3879,3879,0,0,1,346.67-197.9q133.77-67.35,270.51-128.42c8.48-3.8,17.21-7.53,24.8-12.77,20-13.78,25.37-34.4,12.65-55.65a36.54,36.54,0,0,0-17.78-15.42c-20.94-8.54-41.78-17.42-63.08-25A663.14,663.14,0,0,0,2656.6,3535.4Zm-872.85-671.61a695.19,695.19,0,0,0-130.21,18.45q-298.74,71.39-486.25,314.83a312.66,312.66,0,0,0-18.21,26.22,45.86,45.86,0,0,0-5.67,14.75c-3.82,18.58,6.12,37.8,23.49,46.42,15.88,7.88,35.82,5.28,48.27-6.79,4.74-4.6,8.8-9.94,12.92-15.14,9.92-12.52,19.34-25.45,29.56-37.72q191.47-229.7,488-268.75c19.77-2.6,39.72-3.88,59.6-5.59,8.09-.69,15.67-2.43,22.57-7,15.94-10.6,22.39-28.26,17.68-49.17-3.19-14.16-18.23-28.32-33.88-30.29C1802.48,2862.84,1793.05,2863.79,1783.75,2863.79ZM2811,2303.88c-24.89.57-102.66,11.19-130.89,17.76q-305.73,71.13-496.14,320.71a207,207,0,0,0-15.69,23.12c-4.65,8.17-7,17.19-5.31,26.88,3.23,19,14.25,31.3,32.42,36.75,17.13,5.14,31.69-.89,43.23-13.47,8.07-8.79,14.68-18.93,22-28.4,60.21-77.71,131.48-143,216.74-192.48,92.21-53.53,191-87.36,297.19-98.62,17.21-1.83,34.51-2.91,51.68-5a57.78,57.78,0,0,0,18.91-5.51c15.65-8,25-27,22.24-43.42-3.06-18.51-19-34.93-36.91-37.3C2822.63,2303.84,2814.59,2304,2811,2303.88Z"/><path class="cls-3" d="M8361.36,3580.62c-11,10.14-16.67,23.86-24,36.36q-94.14,159.95-187.88,320.14c-39.68,67.73-79.08,135.61-118.87,203.28-62.88,106.92-135,207.34-214.06,302.82a2431.37,2431.37,0,0,1-181.69,196.15c-63.17,61.15-129.83,118.31-198.88,172.68a2523.27,2523.27,0,0,1-314.46,211.24,2418.91,2418.91,0,0,1-242.66,120.95c-68.48,29.33-138,55.76-209,78.35-64.64,20.57-130.16,38.05-196.59,51.2-45.52,9-91.27,18.33-138,19.93-56.79,10-114.11,6.91-171.27,6.36-45.41-.44-89.76-9.61-134-18.9-3.77-.79-7.14-3.48-10.69-5.29,0-26.55-.17-53.1.18-79.65.12-9.21-.17-19,2.84-27.46,4.61-13,4.88-26,5-39.21.25-21.14-1.36-42.31,6.52-62.9,2.7-7.05,1.14-15.74,1.46-23.69.37-9.27-1.45-19.27,1.41-27.67,6.16-18.06,6.64-36.34,6.85-54.91.06-5.23.49-10.87,2.5-15.58,4.85-11.38,5.08-23.18,5.37-35.15.16-6.58-.19-13.78,2.28-19.59,5.42-12.73,5.43-25.82,5.72-39.1.12-5.27-.12-11,1.78-15.71,4.59-11.34,5.36-23,6.51-35,1.13-11.73,5.15-23.15,7.1-34.83,1.52-9.11-.22-19.24,3.11-27.45,5.19-12.8,2.94-26.61,7.42-38.88,4.68-12.86,5.87-25.72,6.33-39a30.36,30.36,0,0,1,2.42-11.59c6.52-13.87,4.94-28.55,5-43.09,4.38,2.91,9.21,5.33,13.07,8.82,20.82,18.82,44.07,34.23,68.1,48.44,59.24,35,123.49,55.86,191.85,61.14,54.3,4.19,108.82,3.55,162.79-7.12,48.24-9.55,95.82-21.28,141.94-38.46a160.78,160.78,0,0,0,25.27-11.58c15.86-9.29,21.83-32.17,13.86-49-4.15-8.77-10.26-15.53-18.92-19.7-14.35-6.9-29-13.27-43.31-20.19-148.5-71.61-292.68-151-431.49-240-17.8-11.41-36.54-21.59-52.13-36.22,1.95-1.76,4.93-3.17,5.69-5.35,6.61-18.75,13.46-37.45,19-56.53,6.58-22.85,9.2-46.87,20.83-68.23a29.76,29.76,0,0,0,3.19-11.44c1.26-14.85,8-28.06,12.14-42,14.43-48.41,34.28-94.9,50.82-142.56,10.87-31.33,23.42-62.07,34.74-93.25,8.18-22.54,19.83-43.6,28.28-65.88,14.15-37.32,29.12-74.16,47.67-109.53a203.15,203.15,0,0,0,9.72-21.85c12.31-32.11,73.22-153.47,90.78-181.87,9.75-15.78,20-31.53,22.56-50.6,4.7,4.55,10.12,8.57,14,13.76,15,20.18,29.57,40.63,44,61.19a49.65,49.65,0,0,0,28.87,19.78c15.58,4.07,29-2,39.72-12.72s16.58-24.23,11.26-39.7a109.94,109.94,0,0,0-12-24.89q-15.34-23.13-32.46-45.06c-15.44-19.76-31.64-38.94-47.51-58.37,4.3-3,9.89-5.16,12.66-9.22,13.43-19.67,26.95-39.37,38.86-60,23.25-40.19,51.48-77.08,75.88-116.49,17.13-17,26.73-39.49,41.87-57.82s27.69-38.79,42.94-56.94c13.65-16.24,23.68-35.17,39.12-50s23.56-35.39,40.73-48.59c17.32-25.27,38.4-47.24,60.26-68.53a33,33,0,0,0,7.18-9.46c5.71-12.49,15.87-21.18,25.22-30.55q57.69-57.86,115.53-115.58c21.61-21.61,42.94-43.51,64.93-64.72,9.46-9.13,13.18-19.56,12.08-32.23,26.29,9.65,49.9,24.65,74.27,38q115.36,63.18,227.83,131.42,189.48,114.38,371.81,239.75c160,109.84,315.83,225.44,465.41,349.25,17.4,14.41,34.57,29.1,52,43.43,5.07,4.16,10.77,7.53,16.19,11.25q18.72,17.57,37.43,35.15c2.87,2.71,5.94,5.36,8.19,8.54,3.09,4.37,5.23,9.49,2.39,14.75-7.51,13.9-15.48,27.54-22.94,41.47C8367.6,3566.23,8364.65,3573.51,8361.36,3580.62ZM7030,3693.19c-14.6,0-21.3-.5-27.9.1-17.52,1.57-29.91,10.84-36.21,27.12s-3.47,31.42,8.56,44.41c8.49,9.17,19,14.72,31.51,15.39,21.3,1.13,42.25,4.38,63.32,7.68a745.15,745.15,0,0,1,201.46,61.7,726.37,726.37,0,0,1,167.28,107.94c40.41,34.82,78.18,72.43,109.91,115.6q15.38,20.91,29.88,42.44c9,13.46,21.61,19.13,37.41,18.63,2.66-.08,5.31-.37,8-.6,9.86-.87,17.71-5.65,23.85-13.09,13-15.76,14.73-34.26,4.29-52-14.92-25.28-32.7-48.51-51.33-71.21-68.41-83.41-150.18-150.54-244.5-202.69-78.67-43.5-162.29-73.37-250.41-90.45C7077.75,3698.9,7049.91,3696.05,7030,3693.19Z"/><path class="cls-3" d="M3883.79,4061.91q-33.27-5.6-66.52-11.22a32.59,32.59,0,0,1-3.82-1.11c-9.31-2.78-16.76-7.66-20.08-17.41-3.84-11.27-8.16-22.39-11.67-33.77-10.54-34.19-18-69.17-24.51-104.29-8.16-44.23-15.75-88.59-22.24-133.1-4.78-32.72-7.37-65.76-11-98.65-4.2-38.14-8.57-76.26-12.65-114.41-1.12-10.53-1.88-21.13-2.12-31.72-.78-34.48-5.79-68.55-9.73-102.72,2.34-22.61.11-45.11-1.68-67.62-1.27-15.88-3.2-31.73-3.8-47.63-3.46-91.68-2.54-183.37.13-275.05,7.39-51.35,4-103.55,12.11-154.85.83-5.24.86-10.6,1.31-15.89,3.51-41,6.19-82.12,10.74-123,6.17-55.4,13.72-110.64,20.76-165.94,6.2-48.72,12-97.49,18.92-146.12,6.15-43.35,13.62-86.51,20.35-129.79,2.65-17.05,4.88-34.17,7.29-51.25,3.41-5.61,6.31-11.64,10.35-16.78,22.5-28.58,35-62.37,47.93-95.53,12.51-32,24.3-64.35,33.12-97.71,6.42-24.3,14.65-48.12,21.42-72.34s11.88-48.9,19.25-72.9c9.73-31.7,14.72-64.43,22.68-96.5,8.27-33.35,17.25-66.66,22.9-100.48s13.77-67.32,19.41-101.24c4.32-26,10-51.85,15.42-77.69s10.15-51.84,15.36-77.73c4.93-24.51,12.45-48.51,18.93-72.7.31-1.16,1.68-2,2.55-3,3.12,8.78,6.37,17.51,9.33,26.34,17,50.9,41.91,97.78,72.7,141.6,23.11,32.88,49.26,62.78,82.74,85.77,29.53,20.28,64.35,33.15,117.49,21.55,32.9-3.32,59.61-20.38,85.33-39.14,38.8-28.32,70.36-63.71,98.49-102.42,33.63-46.28,58.78-97,80.13-149.85,5.54,4.68,7.51,11,6.9,17.81-1.68,19.06,3.46,36.81,9.37,54.53,2.51,7.51,6.41,15.32,6.14,22.87-.78,21.7,10,41.31,9.85,62.72,12.43,46,20,93,29,139.69,8.73,45.45,20.15,90.3,28.29,135.88,6,33.78,16.23,66.84,24.87,100.14,12.29,47.39,23.82,95,37.61,142,11.19,38.13,24.95,75.52,38.07,113.07,9.56,27.35,24.58,52.83,27.44,82.5.24,2.55,5.67,4.6,8.69,6.88a26.42,26.42,0,0,1,4.06,17.09c-6.9,1.19-13.62,3.73-14.24,11.47-1.76,22.41,0,45.21-8.47,66.81-.92,2.34-.37,5.27-.43,7.93-.54,23.82,2,48-7.48,70.84-.22,16-.14,31.92-.76,47.86-.41,10.56-.09,21.61-3.18,31.48-4.1,13.08-4.56,26.08-4.63,39.35-.1,18.62.14,37.25-.24,55.86-.16,7.91.06,16.39-2.66,23.57-5.38,14.22-5,28.69-5.07,43.28-.11,31.92,0,63.84-.24,95.76-.08,9.26.68,19.21-2.36,27.6-5.65,15.59-5.35,31.33-5.36,47.24q-.08,155.61,0,311.22c0,14.59-.08,29,4.94,43.3,3,8.47,2.65,18.31,2.76,27.55.35,29.25.12,58.52.32,87.77,0,8-1.1,16.66,1.63,23.73,8,20.65,5.6,41.92,6.3,63.06.39,11.92-1,24.58,2.6,35.56,5.11,15.72,5,31.34,5.39,47.23.15,6.64-1,13.87,1.24,19.8,9.9,26.49,4,55.6,14.32,81.9-1.32,24.15,11.06,46.49,9.4,70.7,4.31,12.6,5.78,25.75,8.22,38.76,2.68,14.26,5,28.78,8.49,42.73,13,51.31,25.86,102.69,42.59,153,2.93,8.8,5.86,17.63,9.35,26.21,12.95,31.95,26.44,63.68,39,95.78,2.81,7.19,2.61,15.57,3.8,23.4-19.19,11.81-41.58,14.34-62.39,21.45-8.6,2.94-17.26,5.71-25.9,8.56-4,.14-8.11-.46-11.84.53-26.66,7.07-53.28,14.1-80.65,18.33-20.71,3.19-40.93,9.55-61.66,12.59s-40.8,11.25-62.31,8.85c-21.58,7.1-43.93,8-66.36,8.32a19.65,19.65,0,0,0-7.73,1.5c-15,6.83-31,5.21-46.8,5.84-11.81.47-24.14,0-35.22,3.28-14.34,4.29-28.64,4-43.07,4.81l-224.78.29c-30.56-.2-61.13-.31-91.69-.67-9.28-.11-19.25,1.1-27.69-1.82-18.15-6.29-36.56-5.89-55.12-6-15.93-.09-31.45-1.11-47.17-5.59-12.43-3.55-26.32-2.23-39.58-2.62C3912,4068.66,3898.93,4059.1,3883.79,4061.91Z"/><path class="cls-4" d="M3609.45,1422.92c-6.83-16.28-8.21-33.71-8.8-50.91a133.13,133.13,0,0,1,12.95-62q8.54-18,18.28-35.5c18.71-33.57,19.71-68.5,8.08-104.26-4.11-12.63-9.23-25-14.42-37.19-3.63-8.56-8.36-16.66-12.23-25.13-16.64-36.43-15.72-72.47,4.19-107.27,8.57-15,18.71-29.11,28.8-43.15s21.53-27.16,31.42-41.36a451,451,0,0,0,27.54-43.91c16-29.81,17.27-61.11,5.48-92.66a368.36,368.36,0,0,0-17.69-40.12c-8.53-16.55-18.29-32.46-27.4-48.72-8.45-15.1-17.34-30-24.92-45.54a311.68,311.68,0,0,1-16.53-40.62c-9.77-30.24-9.76-60.35,5.1-89.25,8.51-16.55,16.63-33.49,26.91-48.93,18.43-27.69,37.3-55.23,57.85-81.36a1911.17,1911.17,0,0,1,268.69-278.59c22.34-18.88,46-36.35,70-53.12,42.39-29.66,90.75-44.21,141.36-51.25,22.41-3.12,45.27-3.31,67.34,3.82,13.07,4.22,26.12,3.88,39.43,1.53,50.44-8.89,97.9,1.39,143.64,22.62C4501,56.26,4548.94,94.13,4590.1,140.2c55.1,61.68,105.23,127.3,148.29,198.08,20.79,34.18,39.23,69.59,53.24,107.14,12.15,32.57,20.86,65.85,22.2,100.94,1.49,39.41-5.38,76.88-22.73,112.33-8.2,16.73-16.42,33.46-25,50-14.65,28.08-14.63,56.51-1,84.5a527.8,527.8,0,0,0,29.61,52c13.62,21.31,28.91,41.55,42.6,62.82,11.51,17.88,22.16,36.34,32.46,54.95,12.51,22.58,18.68,47,17.61,72.9-1.08,26.14,5.86,50.11,18.89,72.34,11.44,19.52,23.72,38.53,35.64,57.76,14,22.62,28.55,44.95,42,67.93a192.28,192.28,0,0,1,24.82,71.26c4.47,32.68-.69,63.59-21.55,90.48-5.29-10.65-11-21.11-15.82-32-24.3-54.46-47.77-109.31-72.75-163.46-14.41-31.26-30.94-61.56-46.87-92.1-10.07-19.32-25.62-33.48-43.86-45.12-22.62-14.43-47.23-24.2-73.08-30.46-37.4-9.07-75.32-15.26-113.9-16.51-.65-6.55-1.05-13.13-2-19.63-.83-5.46-3.65-10-9.43-11.25-33.46-7.42-67.11-13.86-101.18-17.73-15.76-1.79-31.5-3.36-46.35-9.45a738.82,738.82,0,0,1-11.37-110.75c-.06-2.6-1.08-5.18-1.66-7.77a21.23,21.23,0,0,0-.87-16c4.48-11.48,13.73-19.23,21.86-27.83a333.48,333.48,0,0,0,50.82-70.48c14.55-26.83,26.23-55.07,28.19-85.85,1.68-26.3,1-52.76,1.13-79.14,0-6.91-3.28-12.64-8.26-17.37-2.86-2.72-5.75-5.42-8.62-8.13-13.21-24.43-29.62-46.9-43.25-71.07a2.82,2.82,0,0,0-2.65-.44c-.85.92-1.87,2.47-1.63,3.49,6.72,28.68,19,54.93,35,79.53.65,1,2.22,1.4,3.37,2.08a20.93,20.93,0,0,0,2.61,5.51c-4.93,5.72-12.13,5.08-18.56,6.6l-.06,0c-6.56-7.11-14.84-8.83-24-7.7l-.25-.07c-4.11-5.52-9.47-8.06-16.4-6.88-34.45-14.62-66.3-33.89-97.88-53.8-48-30.28-87.65-69.26-120.62-115.12-12.42-17.28-23.4-35.59-35.28-53.27-2-3-5.27-5.18-7.49-7.3-3.72.95-6.58,1.05-8.75,2.32A474.69,474.69,0,0,0,4078,417.64a224,224,0,0,0-36.07,57.23c-8.59,19.69-14.42,39.91-13.85,61.8.58,22.63.78,45.31,0,67.92-1.52,44.06,11.55,84,32.72,121.81,13.07,23.36,29.19,44.51,47.42,64.07,8.13,8.72,16.09,17.6,23.46,25.68,1.77,18.88-.32,36-2.67,53.17-3.79,27.75-10,55-16.58,82.13-4.43,2.56-8.64,6.73-13.34,7.41-23.34,3.38-46.83,5.74-70.23,8.73-5.06.64-10,2.39-14.35,3.47-5.2,11-3.76,21.7-4.28,32.05-.35,6.87-3.15,12.59-6.39,18.3-7.8-1.37-15.6-2.79-23.41-4.11-50.69-8.56-100.3-6.24-148.57,13.39-15.19,6.18-27.84,14.73-38.19,27.46a409.7,409.7,0,0,0-41.92,62.8q-21.87,40.17-42.21,81.18c-29.53,59.38-55.89,120.21-81.48,181.38C3622.44,1396.9,3615.67,1409.8,3609.45,1422.92Z"/><path class="cls-1" d="M5611.23,1479.23c-24-.51-44.23,2.15-63.16-6.65-27.34-3.07-49.66-18.07-72.89-30.83-5.79-3.19-10.94-7.53-16.55-11.07-12.59-8-22.08-18.68-30.76-30.76-28.49-39.58-44.83-84.14-55.26-131.19-4.87-22-11.55-43.69-9.08-66.77.7-6.5.5-13.71-1.64-19.78-11-31.23-4.27-63.37-5.73-95.06a9.52,9.52,0,0,1,.48-3.95c9-21.62,6.56-44.44,7.32-67a95.36,95.36,0,0,1,3.56-23.47c5.22-17.85,4.69-36.91,11.78-54.31-1.15-15.13,5-28.76,9.56-42.53,7.9-23.94,11.61-49.11,21.79-72.36,1.58-3.61,1.65-7.94,3.43-11.43,18.16-35.53,29.92-74,49.85-108.7,10.58-18.43,20.45-37.35,32.43-54.83,8.35-12.19,14.73-25.21,21.93-37.92,11.78-20.78,24.08-41.27,36.5-61.68,10.35-17,21.44-33.55,31.72-50.59,5.74-9.51,14.31-11.22,24-10.27,5.23.51,10.74,1.23,15.45,3.34,41.21,18.46,84.66,31.71,124.41,53.55,47.78,17.1,91.65,42.51,137,64.82,34.55,17,67,37.87,100.43,57,57.74,33.05,111.3,72.38,166.86,108.69,16.6,10.85,32,23.55,47.93,35.43,10.62,7.93,21.74,15.3,31.65,24s20.42,16.8,31.05,24.78c13.69,10.28,25.13,23.66,37,36.24,3.73,4,3.89,9.84.93,14.92q-17,29.25-34.23,58.37c-3.38,5.7-7.45,11-10.72,16.75-13.13,23.09-25.23,46.82-39.36,69.27-11.36,18-21.36,36.72-31.58,55.37-14.08,25.66-34.09,47.29-50.6,71.32-28.13,41-66.14,72.65-100.19,108.07-22.17,14.61-40.16,34.6-62.85,48.59-10.16,6.27-20,13.14-29.62,20.19a419.7,419.7,0,0,1-72.2,42.16c-9.67,4.47-19.21,9.25-28.54,14.37-47,25.84-98,41.05-149.69,53.32C5665.49,1475.36,5636.77,1483.09,5611.23,1479.23Zm-43.88-376.29c-12.11-2-28.14,3.7-43.49,12.31-3.47,1.94-7.15,3.51-10.57,5.54-14.69,8.7-24.42,32.22-19.9,48.47,11.08,39.81,38.7,84.91,72.23,100.42,30.29,23.69,66.47,31.4,103.06,38,15.09,7.7,28-5.93,42.45-4.39,1.31.14,2.65-.15,4-.14,8.45,0,15.41-3.48,21.35-9.18,5.74-5.51,11.19-11.33,17-16.76,11.12-10.39,11.36-23.55,8.81-36.89-1.21-6.35-4.21-12.64-7.58-18.26-27.21-45.47-63.83-81.15-112.46-102.89C5620.59,1109.46,5597.4,1103.51,5567.35,1102.94ZM5537.7,768.31c1.07-.14-.44-.33-1.51.27-3.3,1.86-7.53,3.33-9.38,6.24-3,4.69-2,10.17,1.33,14.88,4.06,5.82,9.89,9.34,16.77,9.21,28.91-.54,54.5,9.85,79.34,23.07,3.51,1.87,7.27,3.3,10.73,5.27,30.14,17.13,59.27,35.29,76.92,67,3,5.46,9.3,9.23,14.38,13.41,3.75,3.07,9.66,1.62,14.33-2.93s6.13-10.39,3.28-14.29c-9.34-12.82-18.05-26.21-28.42-38.16a183.41,183.41,0,0,0-29.13-27c-40.12-29.73-85.84-46.75-134.34-56.91C5548.19,767.62,5544.07,768.31,5537.7,768.31Zm338,191.08-10.52.72c-5.68.39-10.41,4.1-11.65,9s1.74,11.14,6.73,12.75q15.14,4.89,30.4,9.42c8.89,2.64,18,4.61,26.74,7.67,33,11.52,63.7,26.5,87.43,53.49,11.4,13,24.39,24.57,37,36.42a18.88,18.88,0,0,0,10.52,4.88c3.5.31,8.28-.92,10.52-3.32s3.57-7.53,2.67-10.71a33.22,33.22,0,0,0-7.83-13.47c-17.6-18.19-35.32-36.29-53.64-53.74-6.62-6.31-14.69-11.39-22.75-15.83-14-7.69-28.18-15.21-42.86-21.43C5917.69,966.48,5895.88,960.93,5875.73,959.39Z"/><path class="cls-5" d="M4034.9,1351.73c-.87,1-2.24,1.87-2.55,3-6.48,24.19-14,48.19-18.93,72.7-5.21,25.89-10,51.85-15.36,77.73s-11.1,51.71-15.42,77.69c-5.64,33.92-13.74,67.32-19.41,101.24s-14.63,67.13-22.9,100.48c-8,32.07-12.95,64.8-22.68,96.5-7.37,24-12.48,48.69-19.25,72.9s-15,48-21.42,72.34c-8.82,33.36-20.61,65.74-33.12,97.71-13,33.16-25.43,66.95-47.93,95.53-4,5.14-6.94,11.17-10.35,16.78-13.14,6.2-26.37,12.26-39.43,18.65a711.87,711.87,0,0,1-106.85,42.46c-10.26,3.1-20.41,5.39-31.07,5.78-8.74.33-15.1-3.23-19.81-10.6-20.8-32.5-36.45-67.3-49.55-103.61-10.92-30.23-16.69-61.5-19.91-92.86-4.55-44.24,5.38-86.9,24.25-127.18,6.17-13.17,13.71-25.7,20.69-38.48,3.5-6.39,1.91-12.82.43-19.28,8.07-.65,15.82-2.22,21-9.21,4.72-6.32,9.33-12.74,13.71-19.3,37.34-55.9,74.36-112,112-167.71,27.32-40.42,53.94-81.24,78.06-123.66,7.1-9.49,15.2-18.41,21.14-28.59,24.08-41.21,49.9-81.31,75.69-121.45,15.11-23.54,27.81-48.37,35-75.56,3-11.46,3.51-23.59,6.52-35,7.57-28.86,7.85-57.57,0-86.3-2.53-9.26-2.66-18.17.47-27.35,2.13-6.23,3.37-12.78,4.8-19.23,10.06-45.63,27.6-88.39,49.66-129.4,4.9-9.13,12.71-13.17,23-12.5,0,13.3.06,26.59.17,39.89.37,45.13-3.86,90.46,6,135.19.57,2.56.33,5.3.4,8,.44,16,3.8,31.52,6.35,47.24C4021.93,1308.69,4029.87,1329.78,4034.9,1351.73Z"/><path class="cls-5" d="M4807.32,2213.64c-3-2.28-8.45-4.33-8.69-6.88-2.86-29.67-17.88-55.15-27.44-82.5-13.12-37.55-26.88-74.94-38.07-113.07-13.79-47-25.32-94.58-37.61-142-8.64-33.3-18.84-66.36-24.87-100.14-8.14-45.58-19.56-90.43-28.29-135.88-9-46.64-16.55-93.71-29-139.69.2-21.41-10.63-41-9.85-62.72.27-7.55-3.63-15.36-6.14-22.87-5.91-17.72-11.05-35.47-9.37-54.53.61-6.83-1.36-13.13-6.9-17.81,1.46-17.34,9.24-32.87,14.23-49.19,5.84-19.07,9.79-38.27,9.42-58.39-.26-14.52-.93-29.43,1.86-43.51,4.42-22.32,4.23-44.67,4.82-67.1q.62-23.81,1.29-47.59a21.66,21.66,0,0,1,5.73-14.34c2.21,1.41,5,2.36,6.54,4.31,9.81,12.6,16.85,26.5,23.11,41.38,10.31,24.48,21.58,48.45,29.4,74,4.34,14.19,7.16,28.16,6.94,43-.38,25.28,0,50.58-.38,75.86-.46,33.61,8.53,65.52,17.26,97.45a70.52,70.52,0,0,0,8.3,18.09c27.26,44,54.31,88.16,82.39,131.64,13,20.07,26.7,39.62,38.11,60.67,1.19,2.19,3.82,3.59,5.77,5.35,12.83,21.61,24.82,43.76,38.64,64.71,51,77.31,102.59,154.23,154,231.26,8.12,12.16,16.7,23.91,30.22,30.8,1,15.86,10.93,27.77,18.22,40.85,19.91,51.1,18.23,104.18,14.37,157.44a84.84,84.84,0,0,1-3,15.62c-12.12,45.13-28.5,88.55-51.87,129.18-15.89,27.62-24,31.09-55.39,21.81-39.57-11.71-78.12-26.1-114.77-45.32-15.38-8.06-30.34-16.36-42.47-29.29C4819.49,2219.61,4812.89,2217.11,4807.32,2213.64Z"/><path class="cls-6" d="M1381.49,6515.14c11.9.59,23.79,1.71,35.69,1.71q346.38.16,692.76,0c13.21,0,26.42-1.4,39.63-2.15,13.28.51,26.56,1.47,39.84,1.47q944.93.1,1889.84,0c14.64,0,29.28-.72,43.91-1.11l152.7,1c3.16,2.15,6.26,6.05,9.48,6.16,18,.61,36.05.61,54.05,0,3.2-.11,6.27-4.07,9.4-6.25q96.89-.08,193.78-.18c47.45-.11,94.9-.43,142.36-.66,16,.36,31.94,1,47.91,1q978.91.07,1957.84,0c13.29,0,26.58-.72,39.88-1.1,11.9.62,23.8,1.77,35.69,1.78q364.47.15,728.93,0c11.9,0,23.8-1.13,35.7-1.73,5.29.35,10.59,1,15.9,1q203.74.09,407.51,0c7.95,0,15.9-1,23.85-1.48,11.85.76,23.71,2.18,35.57,2.19q278,.22,556.05.05c7.9,0,15.79-1,23.68-1.52,14.61.55,29.22,1.57,43.83,1.58q257.85.18,515.68.14c13.29,0,26.58.85,39.85,1.52,3.66.18,9,7.45,8.82,11.92-.17,4-1.57,7.92-5.74,9.43a38.42,38.42,0,0,1-11.46,2.69c-12,.4-24,.31-36,.31q-4547.16,0-9094.33,0c-12,0-24,.06-36-.27a34.32,34.32,0,0,1-11.63-2.24c-3.62-1.44-7.2-4.32-6.41-8.8.64-3.59,2.05-7.78,4.59-10.08a18.53,18.53,0,0,1,10.8-4.13c12-.57,24-.4,36-.41q227.85,0,455.71-.09c14.61,0,29.21-1.15,43.81-1.77,9.22.59,18.43,1.69,27.65,1.7q182.73.18,365.46,0c10.56,0,21.13-.91,31.69-1.39,2.6.4,5.22,1.13,7.84,1.13q189-.15,378-.46C1368.28,6516.14,1374.88,6515.49,1381.49,6515.14Z"/><path class="cls-7" d="M4005.38,1055.94c-10.29-.68-18.1,3.36-23,12.49-22.06,41-39.6,83.77-49.66,129.4-1.43,6.45-2.67,13-4.8,19.23-3.13,9.18-3,18.09-.47,27.35,7.85,28.73,7.57,57.44,0,86.3-3,11.46-3.5,23.59-6.52,35-7.16,27.19-19.86,52-35,75.56-25.79,40.14-51.61,80.24-75.69,121.45-5.94,10.18-14,19.1-21.14,28.59-3.19-4.89-8.05-8.1-13.18-5.08q-25.57,15-50.33,31.36c-66,43.55-132.64,86.29-196.5,133-11.69,8.57-24.66,15.33-34.87,26-4.85,5-11.6,5.92-18.37,5.86-.49-9.54,3.24-18,6.38-26.73q53.56-149.07,112.94-295.92c4.93-12.24,9.49-24.63,14.23-36.95,6.24-13.12,13-26,18.61-39.41,25.59-61.17,51.95-122,81.48-181.38q20.37-41,42.21-81.18a409.7,409.7,0,0,1,41.92-62.8c10.35-12.73,23-21.28,38.19-27.46,48.27-19.63,97.88-22,148.57-13.39,7.81,1.32,15.61,2.74,23.41,4.11C4008,1032.76,4006.2,1044.37,4005.38,1055.94Z"/><path class="cls-7" d="M4835.9,1607.17c-1.95-1.76-4.58-3.16-5.77-5.35-11.41-21-25.14-40.6-38.11-60.67-28.08-43.48-55.13-87.63-82.39-131.64a70.52,70.52,0,0,1-8.3-18.09c-8.73-31.93-17.72-63.84-17.26-97.45.35-25.28,0-50.58.38-75.86.22-14.81-2.6-28.78-6.94-43-7.82-25.54-19.09-49.51-29.4-74-6.26-14.88-13.3-28.78-23.11-41.38-1.52-2-4.33-2.9-6.53-4.31q1.2-19.76,2.41-39.5c38.57,1.25,76.49,7.44,113.89,16.51,25.85,6.26,50.46,16,73.08,30.46,18.24,11.64,33.79,25.8,43.86,45.12,15.93,30.54,32.46,60.84,46.87,92.1,25,54.15,48.45,109,72.75,163.46,4.83,10.84,10.53,21.3,15.82,32,28.38,68.46,57,136.81,85.07,205.37,26.08,63.66,51.59,127.56,77.38,191.35,3,7.33,7,14.34,6,22.72-3.85-.8-8.27-.66-11.44-2.57-10.13-6.12-20.34-12.32-29.54-19.71q-38.43-30.79-77.53-60.74c-12.51-9.58-24.72-19.57-37.4-28.92-18-13.25-36.08-26.34-54.47-39-24.93-17.16-50.1-34-75.34-50.67a139.36,139.36,0,0,0-20.72-11.44C4843.71,1599.54,4839.08,1602.27,4835.9,1607.17Z"/><path class="cls-8" d="M3475.88,1782.52c6.77.06,13.52-.81,18.37-5.86,10.21-10.64,23.18-17.4,34.87-26,63.86-46.76,130.46-89.5,196.5-133q24.75-16.32,50.33-31.36c5.13-3,10,.19,13.18,5.08-24.12,42.42-50.74,83.24-78.06,123.66-37.64,55.7-74.66,111.81-112,167.71-4.38,6.56-9,13-13.71,19.3-5.21,7-13,8.56-21,9.21-23.25-13-42.83-30.45-61-49.64a145.93,145.93,0,0,1-32.67-53.53C3467.52,1798.87,3468.4,1789.86,3475.88,1782.52Z"/><path class="cls-8" d="M4835.9,1607.17c3.18-4.9,7.81-7.63,13.24-5.23a139.36,139.36,0,0,1,20.72,11.44c25.24,16.71,50.41,33.51,75.34,50.67,18.39,12.67,36.49,25.76,54.47,39,12.68,9.35,24.89,19.34,37.4,28.92q39.12,29.91,77.53,60.74c9.2,7.39,19.41,13.59,29.54,19.71,3.17,1.91,7.59,1.77,11.44,2.57,2.22,3.17,5,6.08,6.52,9.55,2.73,6.17,3.61,12.8-1.64,18.17-13.66,14-27,28.38-41.55,41.31-19.48,17.28-40.05,33.33-60.15,49.91-13.52-6.89-22.1-18.64-30.22-30.8-51.41-77-103-154-154-231.26C4860.72,1650.93,4848.73,1628.78,4835.9,1607.17Z"/><path class="cls-9" d="M6099.17,4605.46c-.08,14.54,1.5,29.22-5,43.09a30.36,30.36,0,0,0-2.42,11.59c-.46,13.28-1.65,26.14-6.33,39-4.48,12.27-2.23,26.08-7.42,38.88-3.33,8.21-1.59,18.34-3.11,27.45-1.95,11.68-6,23.1-7.1,34.83-1.15,11.94-1.92,23.63-6.51,35-1.9,4.72-1.66,10.44-1.78,15.71-.29,13.28-.3,26.37-5.72,39.1-2.47,5.81-2.12,13-2.28,19.59-.29,12-.52,23.77-5.37,35.15-2,4.71-2.44,10.35-2.5,15.58-.21,18.57-.69,36.85-6.85,54.91-2.86,8.4-1,18.4-1.41,27.67-.32,8,1.24,16.64-1.46,23.69-7.88,20.59-6.27,41.76-6.52,62.9-.15,13.25-.42,26.24-5,39.21-3,8.43-2.72,18.25-2.84,27.46-.35,26.55-.16,53.1-.18,79.65-6.53-.87-13.33-.87-19.56-2.76a438.11,438.11,0,0,1-91.37-39.52c-39.23-22.54-78.5-45-117.24-68.4-38-22.9-70-52.89-98.38-86.82-47.44-56.65-83.18-120.34-112.2-187.91-37.43-87.11-63.58-177.67-82-270.62-10.34-52.23-17.91-104.78-24.76-157.57-17-131.24-16-262.89-12.52-394.69,6.61-44.8,5-90.3,12-135.14,4.12-26.23,5.59-52.85,9.13-79.26,11.13-83.13,26.31-165.45,44.72-247.22,29.56-131.33,69.37-259.55,117.81-385.06a2603.67,2603.67,0,0,1,181.45-377.43q136-232.69,272.28-465.26,40.34-68.92,80.77-137.8a134.16,134.16,0,0,1,8.75-13.33,13.8,13.8,0,0,1,14.1-5.41,113.07,113.07,0,0,1,19,5.74c61.82,24.44,123.83,48.46,185.33,73.69q352.82,144.77,690.92,321.22c14.05,7.33,29.37,12.65,41.11,24,1.1,12.67-2.62,23.1-12.08,32.23-22,21.21-43.32,43.11-64.93,64.72q-57.77,57.78-115.53,115.58c-9.35,9.37-19.51,18.06-25.22,30.55a33,33,0,0,1-7.18,9.46c-21.86,21.29-42.94,43.26-60.26,68.53-17.17,13.2-25.42,33.9-40.73,48.59s-25.47,33.75-39.12,50c-15.25,18.15-27.75,38.54-42.94,56.94s-24.74,40.82-41.87,57.82c-24.4,39.41-52.63,76.3-75.88,116.49-11.91,20.6-25.43,40.3-38.86,60-2.77,4.06-8.36,6.19-12.65,9.21-8.83-8-17.93-15.67-26.46-24a848.47,848.47,0,0,0-203-146.38c-80.94-41.78-166.72-68.75-256.23-84.24-20.91-3.62-42.15-5.37-63.24-8-12.43-1.53-23.76,1.81-34.18,8.3-13.21,8.24-22,27.5-18.82,41.19,4.2,18.06,13.61,32.12,32.76,36.16a342.08,342.08,0,0,0,47.29,6.93c25.33,1.72,50.09,6.82,74.58,12.51,153.29,35.62,283,111.93,389.58,227.68,4.44,4.81,7.91,10.52,11.83,15.81-2.56,19.07-12.81,34.82-22.56,50.6-17.56,28.4-78.47,149.76-90.78,181.87a203.15,203.15,0,0,1-9.72,21.85c-18.55,35.37-33.52,72.21-47.67,109.53-8.45,22.28-20.1,43.34-28.28,65.88-11.32,31.18-23.87,61.92-34.74,93.25-16.54,47.66-36.39,94.15-50.82,142.56-4.16,14-10.88,27.17-12.14,42a29.76,29.76,0,0,1-3.19,11.44c-11.63,21.36-14.25,45.38-20.83,68.23-5.5,19.08-12.35,37.78-19,56.53-.76,2.18-3.74,3.59-5.69,5.35-7-3.77-14.33-7-20.87-11.4-50.81-34.18-101.44-68.63-152.18-102.91-8.8-5.94-17.63-11.94-27-17a35,35,0,0,0-15.25-3.7c-18.16-.48-37.57,16-38.84,33.62a133.16,133.16,0,0,0,1.14,31.8c9,52.51,20.3,104.56,39.55,154.38,29.57,76.55,69.79,146.53,129.66,203.95C6091.18,4594.84,6095,4600.38,6099.17,4605.46Z"/><path class="cls-10" d="M6730.56,6515.08c-13.3.38-26.59,1.09-39.88,1.1q-978.92.07-1957.84,0c-16,0-31.94-.67-47.91-1-1.77-33.19-2.88-66.32-7.46-99.41-3.84-27.72-8.15-55.09-15.05-82.22a616,616,0,0,0-29-86.94c-5.95-14.17-7.58-28.06-4.69-42.81,1-5.21,2.25-10.39,3.32-15.59q10.09-48.81,20.16-97.6c12.37-59.85,25.43-119.57,36.88-179.6,9.45-49.55,22.31-98.47,28.36-148.68.28-2.34,2.68-4.42,4.09-6.62,1.81,11.51,7.69,19.54,19.21,23.06,44.68,13.62,86.71,33.88,129.61,51.94,13.45,5.66,26.14,13.17,39.14,19.9,87.7,45.39,169,101.08,250.78,156,39.78,26.71,79.27,53.88,120.69,78,57.63,33.61,117.28,62.92,180.92,83.5,4.83,1.57,10.3,1.7,15.43,1.47,1.5-.06,4.1-3.7,4-5.59a30.16,30.16,0,0,0-3.07-11.25c-9.87-20.38-20.5-40.4-29.94-61-20-43.56-38.56-87.66-48.58-134.88-2-9.23-3.55-18.25-2.72-27.63.75-8.37,4.82-15.06,10.75-20.77,8.45-8.15,20-8.65,29-1.78a79.91,79.91,0,0,1,26.4,34.47c11.2,28.49,22.11,57.23,27.7,87.37,6.53,35.23,16.11,69.93,18.09,106,.71,13.13,4.66,26.16,8,39,.88,3.39,4.32,7.06,7.55,8.74a49.1,49.1,0,0,0,38.59,3.28,9.89,9.89,0,0,0,5.33-5.36,39.29,39.29,0,0,0,2.38-11.58c1.74-27.85.36-55.87,7.21-83.4,2.51-10.14.86-21.25,1.78-31.86,1-11.89,2.74-23.73,4.29-35.57.7-5.26,2.16-10.45,2.54-15.73,4.39-61.23,17.31-120.87,32.53-180.16,5.37-20.91,15-39.78,24.71-58.69,5-9.63,12.47-17.22,20.87-23.92,9.13-7.26,19.45-8.51,30.14-4.65,12.86,4.63,23.24,12.3,30.24,24.66a112.61,112.61,0,0,1,14.91,53.1c1.12,32.41-4.53,63.73-13,94.47a783.75,783.75,0,0,1-50.38,134.39c-19.79,40.73-40.39,81.05-60.53,121.61-3.54,7.12-6.6,14.49-9.77,21.79-1.24,2.86,2.37,8.89,5.37,9.25,2.62.32,5.19,1.4,7.79,1.43,50.59.53,44.41,5.84,71.6-34.82,22.23-33.24,48-63.77,72.9-94.95,13.39-16.77,30.23-30,48.62-41.05,4.36-2.62,9.89-3.87,15-4.5,14.31-1.74,26.37,12.58,21.9,25.73-5.2,15.26-12.13,29.9-23.29,41.52a627.23,627.23,0,0,1-46.27,43.94c-23.32,19.78-47.67,38.35-71.5,57.55-.64.52-.57,2.35-.31,3.44s1.17,2.69,1.85,2.71c12,.47,23.94,1,35.91,1q181.88.34,363.75.62c23.92.07,47.74.28,71.59,4.79,16.81,3.18,34.51,1.64,51.82,2.29,22.58.85,45.34-.5,67.43,6.1,3.76,1.12,7.92,1,11.9,1.23,68,3.16,134.36,16.27,200.33,32.28,36.41,8.83,71.06,22.33,105.17,37.26,27.06,11.84,51.33,29.21,72,49.71,31.07,30.8,50.11,67.87,49.67,113.83C6739.38,6468.37,6734.43,6491.53,6730.56,6515.08Z"/><path class="cls-8" d="M4916.59,3991.45c-1.19-7.83-1-16.21-3.8-23.4-12.55-32.1-26-63.83-39-95.78-3.49-8.58-6.42-17.41-9.35-26.21-16.73-50.28-29.61-101.66-42.59-153-3.53-14-5.81-28.47-8.49-42.73-2.44-13-3.91-26.16-8.22-38.76,1.66-24.21-10.72-46.55-9.4-70.7-10.32-26.3-4.42-55.41-14.32-81.9-2.22-5.93-1.09-13.16-1.24-19.8-.37-15.89-.28-31.51-5.39-47.23-3.57-11-2.21-23.64-2.6-35.56-.7-21.14,1.69-42.41-6.3-63.06-2.73-7.07-1.58-15.77-1.63-23.73-.2-29.25,0-58.52-.32-87.77-.11-9.24.22-19.08-2.76-27.55-5-14.31-4.94-28.71-4.94-43.3q-.06-155.61,0-311.22c0-15.91-.29-31.65,5.36-47.24,3-8.39,2.28-18.34,2.36-27.6.28-31.92.13-63.84.24-95.76.05-14.59-.31-29.06,5.07-43.28,2.72-7.18,2.5-15.66,2.66-23.57.38-18.61.14-37.24.24-55.86.07-13.27.53-26.27,4.63-39.35,3.09-9.87,2.77-20.92,3.18-31.48.62-15.94.54-31.9.76-47.86,9.49-22.87,6.94-47,7.48-70.84.06-2.66-.49-5.59.43-7.93,8.44-21.6,6.71-44.4,8.47-66.81.62-7.74,7.34-10.28,14.24-11.47,13.43,29,22.65,59.62,33.12,89.73,54.18,155.79,103.61,313.11,150.61,471.2,45.86,154.24,88.68,309.33,129.64,465q47.2,179.41,90.36,359.84c16.94,71.13,32.72,142.54,49,213.84.58,2.55.4,5.27.56,7.87-2.8,6.7-9,9.59-14.67,12.86-71.55,41.35-146.37,75.84-223.46,105.43-26.05,10-52.49,19-79,27.83C4937.53,3987.61,4926.92,3989.11,4916.59,3991.45Z"/><path class="cls-5" d="M4412.66,4085.51c14.43-.77,28.73-.52,43.07-4.81,11.08-3.32,23.41-2.81,35.22-3.28,15.78-.63,31.77,1,46.8-5.84a19.65,19.65,0,0,1,7.73-1.5c22.43-.33,44.78-1.22,66.36-8.32,21.51,2.4,41.56-5.81,62.31-8.85s41-9.4,61.66-12.59c27.37-4.23,54-11.26,80.65-18.33,3.73-1,7.88-.39,11.84-.53-.49,6.64-.35,13.39-1.56,19.89-6.58,35.25-11.46,70.72-15.66,106.32-2.48,21.07-6.64,41.95-10.28,62.87-3.86,22.22-8.91,44.28-11.8,66.62-3.25,25.08-9.11,49.61-13.38,74.46-6.28,36.64-13.8,73.12-12.82,110.66.83,31.93.67,63.89,1.24,95.83a259,259,0,0,0,4.94,43.48c4.43,23.44,5.82,47.37,10.68,70.87,5.65,27.27,11.37,54.8,13.44,82.48,2.36,31.74.76,63.78.88,95.69-6.27,23.46-4.68,47.56-5.71,71.44-1,22.56-.26,45.15-5.76,67.46-2.51,10.15-1.55,21.17-2.11,31.8-1.12,21.22-.56,42.5-6.13,63.42-2.35,8.83-1.23,18.54-2.22,27.79-2.27,21.11-5.27,42.14-7.21,63.28-1.82,19.82-.84,39.82-6.27,59.39-2.06,7.41-.48,15.82-.56,23.77-11.37-3.28-22.76-6.45-34.08-9.86-64.13-19.32-129.07-27.28-195.31-12.81-20.56,4.49-40.74,10.76-61,16.57-10.1,2.89-20,6.6-29.95,9.94-.45-14.63-1.25-29.26-1.27-43.89q-.12-127.86.05-255.71,0-111.87-.24-223.74c0-11.92,1.68-24.19-3-35.59-5.23-12.78-5.12-26.06-4.77-39.34.41-16.18-1.56-31.78-7.85-46.81-7.33-17.51-9.06-35.86-8.45-54.71.37-11.9,1.62-24.15-3-35.58s-4.65-23.38-4.65-35.36c0-63.93-.1-127.86.13-191.78,0-9.23.09-19,2.95-27.56,4.35-13.05,4.61-26.12,4.66-39.41Q4412.47,4159.42,4412.66,4085.51Z"/><path class="cls-11" d="M4437.69,5262.82c10-3.34,19.84-7,29.94-9.94,20.25-5.81,40.43-12.08,61-16.57,66.24-14.47,131.18-6.51,195.31,12.81,11.32,3.41,22.71,6.58,34.08,9.86,67.79,34,60.61,16.26,45.88,90.23-19.47,97.77-40,195.32-59.93,293-7.7,37.77-14.93,75.64-22.38,113.47-1.41,2.22-3.81,4.3-4.09,6.64-6.05,50.21-18.91,99.13-28.36,148.68-11.45,60-24.51,119.75-36.88,179.6q-10.07,48.8-20.16,97.6c-1.07,5.2-2.29,10.38-3.32,15.59-2.89,14.75-1.26,28.64,4.69,42.81a616,616,0,0,1,29,86.94c6.9,27.13,11.21,54.5,15.05,82.22,4.58,33.09,5.69,66.22,7.46,99.41-47.46.22-94.91.54-142.36.65q-96.9.21-193.79.18c-4.91-9.54-8.16-19.25-8.56-30.36-.85-23.12,6.69-44.46,12.47-66.13,4.44-16.68,11.84-31.95,21.42-46.79,18.78-29.07,33.79-60.19,39.23-95.1,1-6.42,4.51-12.44,6.86-18.65,7.67-14.5,9.22-30.12,8.84-46.2-.93-39.69-1.61-79.38-2.48-119.07-.25-11.9.51-24-1.45-35.66-4.41-26.29-3.76-52.74-4.54-79.16s-1.45-52.91-2.22-79.36c-.19-6.57.1-13.28-3.94-19.07-.62-21.16-1.4-42.33-1.74-63.5-.08-5.22.15-10.94,2.14-15.62,6.47-15.25,5.44-31.16,5.48-47,.09-43.74-.08-87.48.25-131.22.09-10.51,0-21.55,3.1-31.38,4.09-13,4.62-26,4.64-39.22.08-47.72,0-95.44.19-143.15,0-9.26-1.45-19.31,1.56-27.62,7.51-20.67,5.45-41.77,6.46-62.85a107.49,107.49,0,0,0-8.3-46.37Z"/><path class="cls-12" d="M7978.14,6514.64c-8,.51-15.9,1.47-23.85,1.48q-203.76.15-407.51,0c-5.31,0-10.61-.67-15.9-1-1-10.66-2.42-21.55,4.47-30.86,9.6-13,20.56-25,35.93-30.8,16.13-6.12,32.45-10.93,50.51-5.06,9.83,3.2,21,2.37,31.6,3,4.54.29,10.69-5.25,11.28-9.64.71-5.26,1.46-10.54,1.76-15.83.83-14.61.81-29.22,5.34-43.48,2-6.21,1.65-13.15,2.37-19.76,8.42-76.83,23.27-152.28,48.58-225.46,9.62-27.82,22.76-54,40.16-77.77a153.15,153.15,0,0,1,21.22-23.69c12.25-11,26.89-17.16,43.74-16.65,10.64.33,21.5-.3,31.86,1.65,17.42,3.27,32.84,10.33,41.14,28,5.4,11.49,6.56,23.34,3.28,35-4.67,16.62-10.06,33.11-19.61,47.87-15.17,23.45-30,47.13-45.2,70.57-19.54,30.14-40.6,59.4-54.28,92.94q-19.59,48-38.79,96.2c-7.35,18.54-14.17,37.3-21.18,56-4.72,12.58-1.31,19,12.57,23.85,1.26.44,2.54.83,3.82,1.18,5.32,1.44,11.39-.7,13.49-5.57,6.84-15.84,13.88-31.64,19.89-47.8,19.14-51.44,44.1-99.76,76.25-144.29,14.21-19.69,31.26-36.08,53.57-46.73,21.72-10.37,43.57-10.62,65.8-2.73a124.46,124.46,0,0,1,18.08,8.39c16.88,9.26,25.17,28.72,20.28,47.75-3,11.75-8.33,22.56-16.54,31.55-18,19.67-36.34,38.63-59.09,53.32-38,24.53-75.22,50.31-112.53,75.9-12.06,8.26-23.49,17.44-34.92,26.58-1.42,1.13-2,5-1.22,6.8a9.33,9.33,0,0,0,5.85,4.81c7.79,1.46,15.7,2.81,23.6,3,22.63.55,45.28.42,67.93.71,29.73.38,57.72,8.64,84.88,19.82C7971.27,6505.79,7974.38,6511,7978.14,6514.64Z"/><path class="cls-10" d="M4123.16,6515.06c-14.63.39-29.27,1.11-43.91,1.11q-944.91.09-1889.84,0c-13.28,0-26.56-1-39.84-1.47,1.18-3.77,1.53-8.12,3.67-11.24,40-58.28,84.41-113,136-161.39a1029.21,1029.21,0,0,1,85.66-71.57c51.17-38.5,105.21-72.38,163.06-99.81A935.78,935.78,0,0,1,2749.23,6100c41.61-8.66,83.46-15.95,126.15-16.79,9.3-.18,18.75-.27,27.84-1.93a279.63,279.63,0,0,1,99.14-.21,147.4,147.4,0,0,0,23.84,1.89c34.62.25,69.24.42,103.85.11,9.24-.08,18.47-1.88,27.68-3.07,6.58-.85,13.09-2.48,19.69-2.92,99.18-6.51,193.45-32.93,285-70.32a28.64,28.64,0,0,0,9.79-6.56c1.3-1.37,1.32-5.11.42-7.1-1-2.19-3.46-4-5.68-5.31q-68.64-40.69-137.38-81.22c-55.09-32.51-107.11-69.57-157.11-109.25-21.77-17.28-40.39-38.57-60.11-58.36-8.57-8.6-14.23-19.31-18.05-30.77-5.88-17.66.89-35.68,16.76-44.76,14.23-8.15,28.72-11.76,45.78-7.56,26.2,6.45,50.44,16.17,72.62,31.62,22.93,16,45.12,32.74,66.71,50.55,28.82,23.79,56.6,48.69,81.39,76.43,31.88,35.68,65.74,69.61,95.35,107.34,13.94,17.77,28.85,34.79,43.8,51.73,2.21,2.51,8,4.83,10.49,3.67,24-11.31,47.67-23.3,71.33-35.31,4.33-2.2,6-10.25,3.28-14-6.28-8.58-12.88-16.92-19.08-25.55-47.35-65.85-94.67-131.71-141.11-198.22-45.73-65.5-88.39-132.89-130-201-36.07-59.06-67.9-120.6-96.6-183.62-17.67-38.8-30.58-79.4-39.69-121.06-4.3-19.64-4.15-39.94-1.09-59.62,5.46-35,31.8-51,55.94-54.21,34-4.53,62.84,6.7,88.14,28.76a402.6,402.6,0,0,1,77.43,90.83c32.38,52,59.19,106.9,83.89,163.05,46.68,106.13,83.62,215.68,117.9,326.17,20.07,64.68,37.25,130.26,55.94,195.38a50.24,50.24,0,0,0,7,14c1.17,1.72,4.55,2.55,7,2.63a16,16,0,0,0,7.53-2q88.77-45.61,177.44-91.39c41.48-21.37,85.18-37.61,128.73-53.93,27.3-10.23,55.89-17,84-25.18,11.46-3.33,23.07-6.15,34.62-9.2,11.57,36.78,16.44,75,24.47,112.59,15.23,71.27,29.31,142.78,44,214.17q17.2,83.71,34.67,167.37a66.49,66.49,0,0,1-1.11,31.49c-12.56,46.12-26.51,91.2-52.83,132.31C4123.18,6421.91,4113.5,6467.09,4123.16,6515.06Z"/><path class="cls-5" d="M3883.79,4061.91c15.14-2.81,28.2,6.75,42.84,7.19,13.26.39,27.15-.93,39.58,2.62,15.72,4.48,31.24,5.5,47.17,5.59,18.56.11,37-.29,55.12,6,8.44,2.92,18.41,1.71,27.69,1.82,30.56.36,61.13.47,91.7.67,1,3.83,1,8.42,3.22,11.39,16.73,22.67,27.36,48.61,40,73.47,9.56,18.86,21.1,37,23,59,.43,5,4,9.77,6,14.68,2.53,6.13,6,12.1,7.22,18.49,5.05,27.46,16.83,53.06,21.95,80.45,6.08,32.47,19.54,63.43,19.84,97.09a16.61,16.61,0,0,0,1.7,7.73c7.56,13.34,3.16,29.16,8.92,42.68,6,14.07,3.88,28.82,5.19,43.29a37.31,37.31,0,0,0,2.51,11.62c5,11.34,4.87,23.29,5.12,35.27.11,5.3-.51,11.19,1.54,15.77,7.38,16.5,5.89,33.85,6.53,51.07.2,5.28.14,11,2.15,15.69,6.57,15.29,5.29,31.27,5.72,47.18.28,10.61-1.07,22,2.26,31.63,5.84,17,5.34,34,5.72,51.21.27,11.95-1.49,24.7,2.07,35.65,5.53,17,5.62,33.95,5.86,51.19.33,23.84-1.72,47.76,6.58,71.06,2.55,7.17,1.24,15.81,1.3,23.78.17,25.28,0,50.56.3,75.84.12,9.26-.72,19.21,2.3,27.63,5.59,15.59,5.36,31.33,5.42,47.25q.16,47.89.1,95.8a140,140,0,0,1-1.24,19.86c-.8,5.53-4.94,9.15-9.46,12.15-15.9-4.38-31.84-8.61-47.68-13.17-9.86-2.84-19.7-5.13-30-3.75-12.11-6.29-25.39-6.56-38.53-7.22-67-3.35-131,9.94-192.63,35.63-10.89,4.54-22,8.63-33,12.93-.21-7.95.48-16.05-.79-23.82-3.65-22.22-8.64-44.23-12.09-66.48-4.06-26.19-7-52.56-10.53-78.83q-4-29.55-8.24-59.06c-2.28-15.74-5.28-31.39-7.06-47.18-1.63-14.49-1.67-29.06-5.56-43.39-2.4-8.84-2.23-18.41-2.83-27.68-1-14.57-1.85-29-4.9-43.47-2.71-12.87-2.4-26.39-3.25-39.63-1.43-22.49.24-45.15-5-67.46-1.77-7.55-2.05-16.29-.1-23.71,7.16-27.2,3.26-55.7,11-82.87,2.83-10,1.94-21.13,2-31.74.21-58.49.58-117,.1-175.46-.34-41.32-7.09-82-18.61-121.55-25.24-86.62-49.81-173.39-70.83-261.15C3889.21,4077,3886.24,4069.5,3883.79,4061.91Z"/><path class="cls-11" d="M4027.83,5278.16c11-4.3,22.06-8.39,33-12.93,61.66-25.69,125.61-39,192.63-35.63,13.14.66,26.42.93,38.54,7.22.9,6.69,2.37,13.3,7.49,18.08,10.94,10.22,17.55,23.19,24.49,36.14,19.64,36.73,30.49,76.56,39.16,116.73,5.83,27,12.44,54.41,9.53,82.74-.66,6.48-.48,13.83,1.94,19.69,6.9,16.71,5.68,34,5.69,51.23q.16,227.81.21,455.62c0,15.92-.83,31.79,5.06,47.34,2.72,7.19,2.57,15.7,2.62,23.62q.34,59.94,0,119.89c-.05,7.91,0,16.4-2.73,23.59-4.88,12.95-5.31,26.08-4.93,39.36.9,31.83-9.31,59.55-27.36,85.64-12.85,18.57-27.42,35.78-40.13,54.41-8.23,12.05-17.48,23.41-25.47,35.62-7.37,11.26-12,23.59-11.3,37.6.5,10.62-.2,21.3-.37,32l-152.69-1c-9.66-48,0-93.15,25.75-133.34,26.32-41.11,40.27-86.19,52.83-132.31a66.49,66.49,0,0,0,1.11-31.49q-17.31-83.68-34.67-167.37c-14.67-71.39-28.75-142.9-44-214.17-8-37.55-12.9-75.81-24.47-112.59.6-18.83-5.91-36.53-9.55-54.57q-36.91-182.9-75.42-365.45c-2.27-10.83,1-17.78,10.26-22.82C4026.13,5280.34,4026.9,5279.1,4027.83,5278.16Z"/><path class="cls-12" d="M1381.49,6515.14c-6.61.35-13.21,1-19.82,1q-189,.32-378,.46c-2.62,0-5.24-.73-7.84-1.13,26.22-14.26,53.59-23.1,78.94-23.95,21.17-.72,42.39-.15,63.85-.15-1.27-2.77-1.7-6.19-3.34-6.94-26.62-12.08-53.59-23.4-80.09-35.75-25.3-11.79-50.3-24.28-75.09-37.12-5.61-2.91-10.17-8.2-14.55-13-4.12-4.52-.28-15.29,5.66-16.32,31.87-5.49,63.26-6.61,93.33,8.78,35,17.93,63.46,43.43,87.71,74,5.77,7.27,11.12,14.92,17.29,21.83,5.9,6.61,14,6.76,22.18,5.44,3.78-.6,6.87-6.2,4.7-8.85-13.47-16.43-26.44-33.31-40.56-49.16-45.16-50.68-85.3-105.27-125.76-159.64A723.88,723.88,0,0,1,934.72,6148c-8.78-18.81-10.57-38.23-8.27-58.39,1.15-10.1,10.87-19.24,21.35-20.8,35.34-5.24,65.61,5.94,92,28.81,27.38,23.74,50,51.39,67,83.55,21.75,41.21,41.4,83.22,56,127.65q23.09,70.08,40.63,141.64c2.21,9,2.83,18.39,5,27.41,1.93,8.08,9.86,12.18,18.85,8,6.51-3,11-7.28,11.22-14.83.24-6.64.66-13.29.51-19.93-.26-10.94,3.29-20.86,7.06-30.87,9.14-24.23,25.32-39.88,51.26-45.45a33.09,33.09,0,0,1,26.45,4.81c5.88,3.81,9.65,9.34,10.25,16.29,1.84,21.32,2.5,42.54-7.4,62.54-1.74,3.52-2.49,7.52-4,12.19,3.42,1.68,6.74,4.73,10,4.66,19.62-.47,32.64,9.4,41.92,25.49C1377.22,6505.39,1379.21,6510.35,1381.49,6515.14Z"/><path class="cls-13" d="M2656.6,3535.4a663.14,663.14,0,0,1,219,38.28c21.3,7.57,42.14,16.45,63.08,25a36.54,36.54,0,0,1,17.78,15.42c12.72,21.25,7.34,41.87-12.65,55.65-7.59,5.24-16.32,9-24.8,12.77q-136.72,61.13-270.51,128.42a3879,3879,0,0,0-346.67,197.9c-26.91,17.22-53.56,34.85-80.33,52.29-5.58,3.63-11,7.56-16.78,10.82-13.85,7.81-28,8.15-41.63-.29-15-9.3-22.42-23.35-19.21-40.71,17.1-92.2,44.8-180.73,93.43-261.69,44.12-73.45,102.79-132.27,178-173.68,50.53-27.82,104.47-46.37,161.84-54.2,14.5-2,29-4.61,43.51-5.78C2632.58,3534.63,2644.62,3535.4,2656.6,3535.4Z"/><path class="cls-14" d="M1783.75,2863.79c9.3,0,18.73-.95,27.89.21,15.65,2,30.69,16.13,33.88,30.29,4.71,20.91-1.74,38.57-17.68,49.17-6.9,4.58-14.48,6.32-22.57,7-19.88,1.71-39.83,3-59.6,5.59q-296.54,38.91-488,268.75c-10.22,12.27-19.64,25.2-29.56,37.72-4.12,5.2-8.18,10.54-12.92,15.14-12.45,12.07-32.39,14.67-48.27,6.79-17.37-8.62-27.31-27.84-23.49-46.42a45.86,45.86,0,0,1,5.67-14.75,312.66,312.66,0,0,1,18.21-26.22q187.53-243.22,486.25-314.83A695.19,695.19,0,0,1,1783.75,2863.79Z"/><path class="cls-14" d="M2811,2303.88c3.56.16,11.6,0,19.49,1,17.92,2.37,33.85,18.79,36.91,37.3,2.73,16.43-6.59,35.45-22.24,43.42a57.78,57.78,0,0,1-18.91,5.51c-17.17,2.11-34.47,3.19-51.68,5-106.23,11.26-205,45.09-297.19,98.62-85.26,49.51-156.53,114.77-216.74,192.48-7.34,9.47-14,19.61-22,28.4-11.54,12.58-26.1,18.61-43.23,13.47-18.17-5.45-29.19-17.77-32.42-36.75-1.65-9.69.66-18.71,5.31-26.88a207,207,0,0,1,15.69-23.12q190.47-249.41,496.14-320.71C2708.37,2315.07,2786.14,2304.45,2811,2303.88Z"/><path class="cls-15" d="M6099.17,4605.46c-4.22-5.08-8-10.62-12.72-15.16-59.87-57.42-100.09-127.4-129.66-203.95-19.25-49.82-30.55-101.87-39.55-154.38a133.16,133.16,0,0,1-1.14-31.8c1.27-17.59,20.68-34.1,38.84-33.62a35,35,0,0,1,15.25,3.7c9.33,5,18.16,11,27,17,50.74,34.28,101.37,68.73,152.18,102.91,6.54,4.41,13.89,7.63,20.87,11.4,15.59,14.63,34.33,24.81,52.13,36.22,138.81,89,283,168.43,431.49,240,14.35,6.92,29,13.29,43.31,20.19,8.66,4.17,14.77,10.93,18.92,19.7,8,16.84,2,39.72-13.86,49a160.78,160.78,0,0,1-25.27,11.58c-46.12,17.18-93.7,28.91-141.94,38.46-54,10.67-108.49,11.31-162.79,7.12-68.36-5.28-132.61-26.13-191.85-61.14-24-14.21-47.28-29.62-68.1-48.44C6108.38,4610.79,6103.55,4608.37,6099.17,4605.46Z"/><path class="cls-16" d="M6515.58,3452.43c-3.92-5.29-7.39-11-11.83-15.81-106.55-115.75-236.29-192.06-389.58-227.68-24.49-5.69-49.25-10.79-74.58-12.51a342.08,342.08,0,0,1-47.29-6.93c-19.15-4-28.56-18.1-32.76-36.16-3.18-13.69,5.61-33,18.82-41.19,10.42-6.49,21.75-9.83,34.18-8.3,21.09,2.61,42.33,4.36,63.24,8,89.51,15.49,175.29,42.46,256.23,84.24a848.47,848.47,0,0,1,203,146.38c8.53,8.29,17.63,16,26.46,24,15.86,19.44,32.06,38.62,47.5,58.38q17.09,21.87,32.46,45.06a109.94,109.94,0,0,1,12,24.89c5.32,15.47-.48,28.92-11.26,39.7s-24.14,16.79-39.72,12.72a49.65,49.65,0,0,1-28.87-19.78c-14.45-20.56-29.05-41-44-61.19C6525.7,3461,6520.28,3457,6515.58,3452.43Z"/><path class="cls-16" d="M7030,3693.19c19.87,2.86,47.71,5.71,75.08,11,88.12,17.08,171.74,47,250.41,90.45,94.32,52.15,176.09,119.28,244.5,202.69,18.63,22.7,36.41,45.93,51.33,71.21,10.44,17.7,8.7,36.2-4.29,52-6.14,7.44-14,12.22-23.85,13.09-2.65.23-5.3.52-8,.6-15.8.5-28.36-5.17-37.41-18.63q-14.48-21.52-29.88-42.44c-31.73-43.17-69.5-80.78-109.91-115.6a726.37,726.37,0,0,0-167.28-107.94,745.15,745.15,0,0,0-201.46-61.7c-21.07-3.3-42-6.55-63.32-7.68-12.48-.67-23-6.22-31.51-15.39-12-13-14.86-28.13-8.56-44.41s18.69-25.55,36.21-27.12C7008.74,3692.69,7015.44,3693.19,7030,3693.19Z"/><path class="cls-17" d="M4620.87,1016l-2.4,39.5a21.62,21.62,0,0,0-5.74,14.34q-.69,23.79-1.29,47.59c-.59,22.43-.4,44.78-4.82,67.1-2.79,14.08-2.12,29-1.86,43.51.37,20.12-3.58,39.32-9.42,58.39-5,16.32-12.77,31.85-14.23,49.19-21.35,52.81-46.5,103.57-80.13,149.85-28.13,38.71-59.69,74.1-98.49,102.42-25.72,18.76-52.43,35.82-85.33,39.12-.36-8.13-3-15.51-6.21-23-14.18-32.94-27.55-66.2-38.51-100.4a77.24,77.24,0,0,1-4.06-23.4c11.84-.25,23.71,0,35.5-.91,7.77-.59,15.8-1.8,23-4.53,26.37-9.91,48.88-25.57,66-48.15,2.06-2.71,2.2-7.37,2.09-11.09-.12-4.08-6.1-7.48-12.3-7.49-10.53,0-21.06.49-31.58.26-35.5-.76-71-1.74-106.5-2.64a32.18,32.18,0,0,0-.25-3.94c-6.3-34.63-17-68.53-17.11-104.19a19.53,19.53,0,0,0-1.93-7.58c-5-11.17-4.84-23-4.85-34.85q0-31.53,0-63.07c7.52,2,15,4.19,22.59,6.1,3.2.81,8-2.44,8.74-6.19a13.87,13.87,0,0,0-.59-7.48c-.93-2.29-2.71-4.84-4.81-5.94-9.31-4.86-18.87-9.24-28.35-13.79.82-9.23,1.48-18.49,2.49-27.7.86-7.86,1-16,3.47-23.42,3.44-10.32,4.36-20.68,4.42-31.31.05-9.32,1.75-18.23,4-27.36,8.43-34.64,18-68.94,28-103.15a7,7,0,0,0-.51-4c29.28,4,58.64,3.25,88,1.42,3.89.65,7.77,1.66,11.69,1.89,27.61,1.57,55.41.23,82.63,7.2,6.12,1.57,13.09-.19,19.67-.42,14.85,6.09,30.59,7.66,46.35,9.45,34.07,3.87,67.72,10.31,101.18,17.73,5.78,1.28,8.6,5.79,9.43,11.25C4619.82,1002.83,4620.22,1009.41,4620.87,1016Zm-90.5,183.57c.19-7.09-2.53-11.69-7.41-14.32-22.45-12.12-46.61-17.24-71.89-19.69-32.22-3.12-63,1-92.72,13.47a35.62,35.62,0,0,0-10,6.22c-1.66,1.51-2.12,4.53-2.74,7-.83,3.26,3.72,7.72,7.39,7.52,5.21-.29,10.54-.24,15.59-1.36,10.26-2.27,20.22-6.13,30.56-7.75,37.19-5.85,73.61-3.17,108.74,11.55,4.67,2,10,3.51,14.94,3.26C4525.69,1205.24,4528.38,1201.17,4530.37,1199.53Z"/><path class="cls-18" d="M4260.38,951.8c-10,34.21-19.53,68.51-28,103.15-2.22,9.13-3.92,18-4,27.36-.06,10.63-1,21-4.42,31.31-2.46,7.38-2.61,15.56-3.47,23.42-1,9.21-1.67,18.47-2.48,27.68-31.35-8.4-63.24-7.13-95.11-5-16.08,1.1-31,6.89-45.45,13.73a35.76,35.76,0,0,0-3.34,2.15c-4.14,2.56-6.63,10.7-3.41,13.9,2.47,2.45,6.66,4.62,9.95,4.44,5.16-.27,10.31-2.34,15.29-4.15,36.25-13.21,73.16-10.95,110.16-4.53,5,.87,9.56,4.43,14.32,6.74q0,31.53,0,63.07c0,11.84-.17,23.68,4.85,34.85a19.53,19.53,0,0,1,1.93,7.58c.14,35.66,10.81,69.56,17.11,104.19a32.18,32.18,0,0,1,.25,3.94c-13.18,1.93-26-.19-38.79-3.2-4.94-1.16-10.32-.67-15.5-.57-5.73.12-11.17,9.94-8.33,14.82a81.07,81.07,0,0,0,6.22,9.89,158,158,0,0,0,80.11,53.61,77.24,77.24,0,0,0,4.06,23.4c11,34.2,24.33,67.46,38.51,100.4,3.21,7.44,5.85,14.82,6.21,23-53.14,11.62-88-1.25-117.49-21.53-33.48-23-59.63-52.89-82.74-85.77-30.79-43.82-55.66-90.7-72.7-141.6-3-8.83-6.21-17.56-9.33-26.34-5-22-13-43-16.63-65.52-2.55-15.72-5.91-31.25-6.35-47.24-.07-2.66.17-5.4-.4-8-9.83-44.73-5.6-90.06-6-135.19-.11-13.3-.12-26.59-.17-39.89.82-11.56,2.65-23.17-1.56-34.52,3.24-5.71,6-11.43,6.39-18.3.52-10.35-.92-21,4.28-32.05,4.37-1.08,9.29-2.83,14.35-3.47,23.4-3,46.89-5.35,70.23-8.73,4.7-.68,8.91-4.85,13.35-7.41,14.27.24,28.53.69,42.79.69C4190.27,952.13,4225.33,951.92,4260.38,951.8Z"/><path class="cls-19" d="M4369.66,5253.74c4.52-3,8.66-6.62,9.46-12.15a140,140,0,0,0,1.24-19.86q.12-47.89-.1-95.8c-.06-15.92.17-31.66-5.42-47.25-3-8.42-2.18-18.37-2.3-27.63-.31-25.28-.13-50.56-.3-75.84-.06-8,1.25-16.61-1.3-23.78-8.3-23.3-6.25-47.22-6.58-71.06-.24-17.24-.33-34.18-5.86-51.19-3.56-11-1.8-23.7-2.07-35.65-.38-17.23.12-34.26-5.72-51.21-3.33-9.66-2-21-2.26-31.63-.43-15.91.85-31.89-5.72-47.18-2-4.68-1.95-10.41-2.15-15.69-.64-17.22.85-34.57-6.53-51.07-2.05-4.58-1.43-10.47-1.54-15.77-.25-12-.11-23.93-5.12-35.27a37.31,37.31,0,0,1-2.51-11.62c-1.31-14.47.81-29.22-5.19-43.29-5.76-13.52-1.36-29.34-8.92-42.68a16.61,16.61,0,0,1-1.7-7.73c-.3-33.66-13.76-64.62-19.84-97.09-5.12-27.39-16.9-53-21.95-80.45-1.17-6.39-4.69-12.36-7.22-18.49-2-4.91-5.59-9.65-6-14.68-1.88-22-13.42-40.16-23-59-12.59-24.86-23.22-50.8-40-73.47-2.19-3-2.2-7.56-3.22-11.39l224.77-.29q-.21,73.92-.43,147.83c0,13.29-.31,26.36-4.66,39.41-2.86,8.57-2.92,18.33-2.95,27.56-.23,63.92-.13,127.85-.13,191.78,0,12,0,23.89,4.65,35.36s3.4,23.68,3,35.58c-.61,18.85,1.12,37.2,8.45,54.71,6.29,15,8.26,30.63,7.85,46.81-.35,13.28-.46,26.56,4.77,39.34,4.66,11.4,3,23.67,3,35.59q.27,111.87.24,223.74,0,127.86-.05,255.71c0,14.63.82,29.26,1.27,43.89q-4.74,4.83-9.49,9.67c-6.18.65-13.23,3.54-18.37,1.54C4395.89,5268.59,4381.79,5263,4369.66,5253.74Z"/><path class="cls-20" d="M4260.38,951.8c-35.05.12-70.11.33-105.17.34-14.26,0-28.52-.45-42.79-.69,6.54-27.17,12.78-54.38,16.57-82.13,2.35-17.18,4.44-34.29,2.67-53.17-7.37-8.08-15.33-17-23.46-25.68-18.23-19.56-34.35-40.71-47.42-64.07-21.17-37.82-34.24-77.75-32.72-121.81.79-22.61.59-45.29,0-67.92-.57-21.89,5.26-42.11,13.85-61.8A224,224,0,0,1,4078,417.64a474.69,474.69,0,0,1,119.23-99.2c2.17-1.27,5-1.37,8.75-2.32,2.22,2.12,5.47,4.3,7.49,7.3,11.88,17.68,22.86,36,35.28,53.27,33,45.86,72.58,84.84,120.62,115.12,31.58,19.91,63.43,39.18,97.89,53.8,4,5.77,9.77,7.35,16.39,6.88l.25.07c6.26,8,14.95,8.5,24,7.7l.06,0c3.51,4.34,8.06,6.62,13.64,6.31,4.1-.23,8-1.79,8.23-6.41.12-2.1-2.13-4.33-3.31-6.5a20.85,20.85,0,0,1-2.6-5.48c.73-6.07,2.06-11.77,9.14-13.62,2.87,2.71,5.76,5.41,8.62,8.13,5,4.73,8.29,10.46,8.26,17.37-.14,26.38.55,52.84-1.13,79.14-2,30.78-13.64,59-28.19,85.85a333.48,333.48,0,0,1-50.82,70.48c-8.13,8.6-17.38,16.35-21.85,27.83-9.44,4.54-20.77,7.11-27.93,14-17.64,17-39.78,25.54-60.6,36.7-14,7.51-28.75,12.92-43.82,17.88-13,4.29-26.69,6.08-38.91,1.88-27.18-9.33-56.41-13.81-79.91-32.79-9.07-7.33-19.81-13.19-32.33-13.47-1.27-3.92-2.51-4.59-3.17-1.86-.08.33,2.08,1.2,3.21,1.83.37,6.75,1.82,13.21,6.78,18.12,26.15,25.89,48.78,55.83,83.33,72.16,2.71,1.29,3.54,6.55,5.24,10A7,7,0,0,1,4260.38,951.8Z"/><path class="cls-19" d="M4164.48,847.59c12.52.28,23.26,6.14,32.33,13.47,23.5,19,52.73,23.46,79.91,32.79,12.22,4.2,25.88,2.41,38.91-1.88,15.07-5,29.82-10.37,43.82-17.88,20.82-11.16,43-19.69,60.6-36.7,7.16-6.9,18.49-9.47,27.93-14a21.27,21.27,0,0,1,.86,16c-5.22,1.37-9.59,3.85-12.51,8.66-7.48,12.3-15.29,24.4-22.59,36.81-12.32,20.93-29.17,36.94-51,47.59-7.42,3.63-13.53,8-14.9,16.79-29.37,1.83-58.73,2.53-88-1.42-1.7-3.42-2.53-8.68-5.24-10-34.55-16.33-57.18-46.27-83.33-72.16-5-4.91-6.41-11.37-6.78-18.12Z"/><path class="cls-20" d="M4347.88,949.23c1.37-8.78,7.48-13.16,14.9-16.79,21.79-10.65,38.64-26.66,51-47.59,7.3-12.41,15.11-24.51,22.59-36.81,2.92-4.81,7.29-7.29,12.51-8.66.58,2.59,1.6,5.17,1.66,7.77a738.82,738.82,0,0,0,11.37,110.75c-6.58.23-13.55,2-19.67.42-27.22-7-55-5.63-82.63-7.2C4355.65,950.89,4351.77,949.88,4347.88,949.23Z"/><path class="cls-21" d="M4533.09,534.58c-7.08,1.85-8.41,7.55-9.14,13.62-1.16-.71-2.73-1.11-3.38-2.11-16-24.6-28.29-50.85-35-79.53-.24-1,.78-2.57,1.63-3.49a2.82,2.82,0,0,1,2.65.44C4503.47,487.68,4519.88,510.15,4533.09,534.58Z"/><path class="cls-21" d="M4526.55,553.68c1.18,2.17,3.43,4.4,3.31,6.5-.25,4.62-4.13,6.18-8.23,6.41-5.58.31-10.13-2-13.64-6.31C4514.42,558.76,4521.62,559.4,4526.55,553.68Z"/><path class="cls-21" d="M4507.93,560.26c-9.09.8-17.78.34-24-7.7C4493.09,551.43,4501.37,553.15,4507.93,560.26Z"/><path class="cls-21" d="M4483.64,552.49c-6.62.47-12.38-1.11-16.39-6.88C4474.17,544.43,4479.53,547,4483.64,552.49Z"/><path class="cls-22" d="M5567.35,1102.94c30,.57,53.24,6.52,74.89,16.2,48.63,21.74,85.25,57.42,112.46,102.89,3.37,5.62,6.37,11.91,7.58,18.26,2.55,13.34,2.31,26.5-8.81,36.89-5.82,5.43-11.27,11.25-17,16.76-5.94,5.7-12.9,9.21-21.35,9.18-1.33,0-2.67.28-4,.14-14.46-1.54-27.36,12.09-42.45,4.39-36.59-6.57-72.77-14.28-103.06-38-33.53-15.51-61.15-60.61-72.23-100.42-4.52-16.25,5.21-39.77,19.9-48.47,3.42-2,7.1-3.6,10.57-5.54C5539.21,1106.64,5555.24,1100.93,5567.35,1102.94Z"/><path class="cls-22" d="M5537.7,768.31c6.37,0,10.49-.69,14.3.1,48.5,10.16,94.22,27.18,134.34,56.91a183.41,183.41,0,0,1,29.13,27c10.37,12,19.08,25.34,28.42,38.16,2.85,3.9,1.39,9.75-3.28,14.29s-10.58,6-14.33,2.93c-5.08-4.18-11.34-7.95-14.38-13.41-17.65-31.72-46.78-49.88-76.92-67-3.46-2-7.22-3.4-10.73-5.27-24.84-13.22-50.43-23.61-79.34-23.07-6.88.13-12.71-3.39-16.77-9.21-3.28-4.71-4.31-10.19-1.33-14.88,1.85-2.91,6.08-4.38,9.38-6.24C5537.26,768,5538.77,768.17,5537.7,768.31Z"/><path class="cls-22" d="M5875.73,959.39c20.15,1.54,42,7.09,62.77,15.9,14.68,6.22,28.87,13.74,42.86,21.43,8.06,4.44,16.13,9.52,22.75,15.83,18.32,17.45,36,35.55,53.64,53.74a33.22,33.22,0,0,1,7.83,13.47c.9,3.18-.41,8.28-2.67,10.71s-7,3.63-10.52,3.32a18.88,18.88,0,0,1-10.52-4.88c-12.62-11.85-25.61-23.45-37-36.42-23.73-27-54.47-42-87.43-53.49-8.74-3.06-17.85-5-26.74-7.67q-15.25-4.55-30.4-9.42c-5-1.61-8-7.67-6.73-12.75s6-8.66,11.65-9Z"/><path class="cls-23" d="M4369.66,5253.74c12.13,9.23,26.23,14.85,40.16,20.29,5.14,2,12.19-.89,18.37-1.54a107.49,107.49,0,0,1,8.3,46.37c-1,21.08,1.05,42.18-6.46,62.85-3,8.31-1.53,18.36-1.56,27.62-.16,47.71-.11,95.43-.19,143.15,0,13.23-.55,26.18-4.64,39.22-3.09,9.83-3,20.87-3.1,31.38-.33,43.74-.16,87.48-.25,131.22,0,15.86,1,31.77-5.48,47-2,4.68-2.22,10.4-2.14,15.62.34,21.17,1.12,42.34,1.73,63.46-.65,13.19.2,26.69-2.24,39.57-5.21,27.54-5.14,55.31-6.18,83.06-2.1,55.55-.94,111.22-6.45,166.65a314.27,314.27,0,0,0-1.05,31.76c0,21.83,6.67,41.3,21.72,57.52-2.35,6.21-5.86,12.23-6.86,18.65-5.44,34.91-20.45,66-39.23,95.1-9.58,14.84-17,30.11-21.42,46.79-5.78,21.67-13.32,43-12.47,66.13.4,11.11,3.65,20.82,8.56,30.36-3.12,2.18-6.19,6.14-9.39,6.25-18,.6-36.05.6-54.05,0-3.22-.11-6.32-4-9.48-6.16.16-10.65.86-21.33.36-31.95-.65-14,3.93-26.34,11.3-37.6,8-12.21,17.24-23.57,25.47-35.62,12.71-18.63,27.28-35.84,40.13-54.41,18.05-26.09,28.26-53.81,27.36-85.64-.38-13.28.05-26.41,4.93-39.36,2.72-7.19,2.68-15.68,2.73-23.59q.36-59.94,0-119.89c-.05-7.92.1-16.43-2.62-23.62-5.89-15.55-5.05-31.42-5.06-47.34q-.15-227.8-.21-455.62c0-17.24,1.21-34.52-5.69-51.23-2.42-5.86-2.6-13.21-1.94-19.69,2.91-28.33-3.7-55.74-9.53-82.74-8.67-40.17-19.52-80-39.16-116.73-6.94-12.95-13.55-25.92-24.49-36.14-5.12-4.78-6.59-11.39-7.49-18.08,10.33-1.38,20.17.91,30,3.75C4337.82,5245.13,4353.76,5249.36,4369.66,5253.74Z"/><path class="cls-21" d="M4420.2,6259c-15.05-16.22-21.69-35.69-21.72-57.52a314.27,314.27,0,0,1,1.05-31.76c5.51-55.43,4.35-111.1,6.45-166.65,1-27.75,1-55.52,6.18-83.06,2.44-12.88,1.59-26.38,2.24-39.57,4.05,5.83,3.76,12.54,4,19.11.77,26.45,1.44,52.91,2.22,79.36s.13,52.87,4.54,79.16c2,11.64,1.2,23.76,1.45,35.66.87,39.69,1.55,79.38,2.48,119.07C4429.42,6228.84,4427.87,6244.46,4420.2,6259Z"/><path class="cls-24" d="M4268.38,1480.22a158,158,0,0,1-80.11-53.61,81.07,81.07,0,0,1-6.22-9.89c-2.84-4.88,2.6-14.7,8.33-14.82,5.18-.1,10.56-.59,15.5.57,12.83,3,25.61,5.13,38.79,3.2,35.5.9,71,1.88,106.5,2.64,10.52.23,21.05-.27,31.58-.26,6.2,0,12.18,3.41,12.3,7.49.11,3.72,0,8.38-2.09,11.09-17.16,22.58-39.67,38.24-66,48.15-7.24,2.73-15.27,3.94-23,4.53C4292.09,1480.22,4280.22,1480,4268.38,1480.22Z"/><path class="cls-19" d="M4530.37,1199.53c-2,1.64-4.68,5.71-7.58,5.86-4.93.25-10.27-1.3-14.94-3.26-35.13-14.72-71.55-17.4-108.74-11.55-10.34,1.62-20.3,5.48-30.56,7.75-5.05,1.12-10.38,1.07-15.59,1.36-3.67.2-8.22-4.26-7.39-7.52.62-2.43,1.08-5.45,2.74-7a35.62,35.62,0,0,1,10-6.22c29.73-12.46,60.5-16.59,92.72-13.47,25.28,2.45,49.44,7.57,71.89,19.69C4527.84,1187.84,4530.56,1192.44,4530.37,1199.53Z"/><path class="cls-24" d="M4220.49,1192c-4.76-2.31-9.31-5.87-14.32-6.74-37-6.42-73.91-8.68-110.16,4.53-5,1.81-10.13,3.88-15.29,4.15-3.29.18-7.48-2-9.95-4.44-3.22-3.2-.73-11.34,3.41-13.9a35.76,35.76,0,0,1,3.34-2.15c14.46-6.84,29.37-12.63,45.45-13.73,31.87-2.17,63.76-3.44,95.11,5,9.47,4.57,19,9,28.34,13.81,2.1,1.1,3.88,3.65,4.81,5.94a13.87,13.87,0,0,1,.59,7.48c-.73,3.75-5.54,7-8.74,6.19C4235.51,1196.23,4228,1194.09,4220.49,1192Z"/><path class="cls-19" d="M4164.52,847.56c-1.13-.63-3.29-1.5-3.21-1.83.66-2.73,1.9-2.06,3.17,1.86Z"/></g></g></svg>